<?xml version="1.0" encoding="utf-8"?>
<!-- Generator: Adobe Illustrator 27.8.1, SVG Export Plug-In . SVG Version: 6.00 Build 0)  -->
<svg version="1.1" id="レイヤー_1" xmlns="http://www.w3.org/2000/svg" xmlns:xlink="http://www.w3.org/1999/xlink" x="0px"
	 y="0px" width="680px" height="59px" viewBox="0 0 680 59" style="enable-background:new 0 0 680 59;" xml:space="preserve">
<style type="text/css">
	.st0{fill-rule:evenodd;clip-rule:evenodd;fill:#FFFFFF;}
	.st1{fill-rule:evenodd;clip-rule:evenodd;}
</style>
<path class="st0" d="M0,0h680v27H0V0z"/>
<path class="st0" d="M0,32h680v27H0V32z"/>
<path class="st1" d="M662.7,21.6c-0.4,0.3-0.9,0.4-1.4,0.4c-0.5,0-1-0.1-1.4-0.4c-0.4-0.3-0.8-0.6-1-1c-0.3-0.4-0.4-0.9-0.4-1.4
	c0-0.5,0.1-1,0.4-1.4c0.3-0.4,0.6-0.8,1-1c0.4-0.2,0.9-0.4,1.4-0.4s1,0.1,1.4,0.4c0.4,0.3,0.8,0.6,1,1c0.2,0.4,0.4,0.9,0.4,1.4
	c0,0.5-0.1,1-0.4,1.4C663.5,21,663.1,21.3,662.7,21.6z M662.6,17.8c-0.4-0.4-0.8-0.6-1.3-0.6s-1,0.2-1.3,0.5s-0.5,0.8-0.5,1.3
	c0,0.5,0.2,0.9,0.5,1.3c0.4,0.4,0.8,0.6,1.3,0.6c0.5,0,0.9-0.2,1.3-0.6c0.4-0.4,0.5-0.8,0.5-1.3C663.2,18.6,663,18.2,662.6,17.8z
	 M652.7,9c-1.3,0-2.7,0-4.1,0.1c0,0.5,0,1.1,0,1.6c0,0.6,0.1,1.1,0.1,1.6c0.6,0.7,0.9,1.7,0.9,2.8c0,1.6-0.5,3.1-1.5,4.2
	c-1,1.2-2.4,2.1-4.2,2.7c-0.1-0.2-0.3-0.4-0.5-0.7c-0.2-0.3-0.4-0.5-0.7-0.8c1.5-0.4,2.6-1,3.4-1.6c0.8-0.7,1.3-1.5,1.5-2.4
	c-0.5,0.4-1.1,0.6-1.7,0.6c-0.9,0-1.6-0.3-2.2-0.8c-0.6-0.5-0.8-1.2-0.9-2.1c0-0.6,0.1-1.1,0.4-1.6c0.3-0.5,0.6-0.8,1.1-1.1
	s1-0.4,1.6-0.4c0.1,0,0.3,0,0.4,0c0.1,0,0.3,0,0.4,0.1c0-0.3-0.1-0.6-0.1-1c0-0.3,0-0.7,0-1.1c-1.1,0-2.2,0.1-3.2,0.2
	c-1,0.1-2,0.2-2.8,0.3c-0.9,0.1-1.6,0.2-2.2,0.3l-0.3-1.8c0.5-0.1,1.2-0.1,2.1-0.2c0.9-0.1,1.9-0.1,3-0.2c1.1-0.1,2.2-0.1,3.4-0.2
	v-3h1.8v3c1-0.1,2-0.1,2.9-0.1s1.8,0,2.6-0.1c0.8,0,1.4,0,1.9,0l-0.1,1.8C655.1,9.1,654,8.1,652.7,9z M647.4,13.7
	c0-0.2,0-0.3-0.1-0.5c-0.3-0.4-0.7-0.5-1.2-0.5c-0.4,0-0.8,0.1-1.1,0.4c-0.3,0.3-0.4,0.6-0.4,1c0,0.4,0.1,0.8,0.4,1
	c0.3,0.3,0.6,0.4,1,0.4c0.4,0,0.7-0.1,1-0.4c0.2-0.2,0.4-0.6,0.4-0.9C647.4,14,647.4,13.8,647.4,13.7z M633.7,11.6
	c-0.3-0.3-0.6-0.6-0.9-0.9c-0.3-0.3-0.6-0.5-0.8-0.7l0.9-0.7c0.2,0.2,0.5,0.4,0.8,0.7c0.3,0.3,0.6,0.6,0.9,0.9
	c0.3,0.3,0.5,0.6,0.7,0.8l-0.9,0.7C634.2,12.2,634,11.9,633.7,11.6z M631.7,7.6c-0.8,0.1-1.5,0.4-2.2,0.8c-0.7,0.4-1.3,0.9-1.8,1.5
	c-0.5,0.6-1,1.3-1.2,2c-0.3,0.8-0.5,1.5-0.5,2.4c0,1.1,0.3,1.9,0.8,2.7c0.5,0.7,1.2,1.3,2.2,1.7c0.9,0.4,1.9,0.7,3,0.8
	c-0.2,0.2-0.4,0.5-0.6,0.9c-0.2,0.4-0.3,0.7-0.4,0.9c-1.3-0.2-2.5-0.6-3.5-1.2c-1-0.6-1.8-1.5-2.4-2.5s-0.9-2.1-0.9-3.4
	c0-0.7,0.1-1.4,0.3-2.1c0.2-0.7,0.6-1.4,1-2.1c0.5-0.7,1.1-1.3,1.8-1.8c-0.8,0.1-1.7,0.3-2.5,0.4c-0.9,0.2-1.7,0.3-2.5,0.4
	c-0.8,0.1-1.5,0.3-2.1,0.4c-0.6,0.1-1.1,0.2-1.5,0.3l-0.4-2c0.4,0,1-0.1,1.8-0.2s1.6-0.2,2.6-0.4c0.9-0.1,1.9-0.3,2.9-0.5
	c1-0.2,2-0.3,2.9-0.5c0.9-0.2,1.8-0.3,2.6-0.5c0.8-0.2,1.4-0.3,1.8-0.4l0.5,1.9c-0.2,0-0.4,0-0.7,0.1C632.4,7.5,632.1,7.6,631.7,7.6
	z M612,14c0.6,0.7,1.1,1.3,1.7,1.9c0.6,0.6,1.1,1.1,1.6,1.5c-0.1,0.1-0.3,0.2-0.5,0.3s-0.4,0.3-0.5,0.5c-0.2,0.2-0.3,0.3-0.4,0.4
	c-0.5-0.5-1.1-1-1.6-1.7c-0.6-0.7-1.1-1.4-1.7-2.1c-0.5-0.8-1-1.5-1.5-2.3v4.6h2.5v1.8H609v3.4h-1.8v-3.4h-2.6v-1.8h2.6v-4.8
	c-0.4,0.8-0.9,1.6-1.5,2.4s-1.2,1.5-1.8,2.2c-0.6,0.7-1.2,1.3-1.7,1.8c-0.1-0.1-0.3-0.3-0.5-0.5c-0.2-0.2-0.5-0.4-0.6-0.5v4.6h-1.8
	V11.6c-0.3,0.4-0.6,0.9-0.9,1.2c-0.3,0.4-0.6,0.7-0.9,1.1c-0.2-0.2-0.4-0.4-0.6-0.6s-0.5-0.4-0.7-0.5c0.4-0.4,0.8-0.8,1.2-1.4
	c0.4-0.6,0.8-1.2,1.2-1.8s0.8-1.3,1.1-2c0.3-0.7,0.6-1.3,0.9-1.9c0.2-0.6,0.4-1.1,0.5-1.6l1.8,0.5c-0.2,0.6-0.4,1.2-0.7,1.9
	s-0.6,1.3-0.9,2v8.8c0.5-0.4,1-0.9,1.5-1.5c0.5-0.6,1.1-1.2,1.6-1.9s1-1.4,1.4-2.1c0.4-0.7,0.8-1.4,1.1-2h-4.5V8.2h5.1v-4h1.8v4h5.3
	v1.7h-4.9c0.3,0.6,0.7,1.3,1.1,2C611,12.6,611.5,13.3,612,14z M593.9,12.4c-0.1,0.2-0.2,0.4-0.3,0.6c-1.1-0.5-2.2-1.2-3.3-1.9
	c-1.1-0.7-2.1-1.6-3-2.5s-1.7-1.8-2.3-2.8c-0.5,0.9-1.3,1.8-2.1,2.6c-0.9,0.9-1.8,1.7-2.8,2.4h10v1.7h-10.1v-1.6
	c-0.6,0.4-1.2,0.8-1.8,1.2c-0.6,0.4-1.2,0.7-1.8,1c-0.1-0.2-0.3-0.5-0.5-0.8s-0.4-0.5-0.6-0.7c0.9-0.4,1.8-0.8,2.6-1.4
	c0.9-0.6,1.7-1.2,2.5-1.9c0.8-0.7,1.5-1.4,2.2-2.2c0.7-0.8,1.2-1.5,1.6-2.3l1.7,0.2c0.6,0.9,1.3,1.9,2.2,2.8s2,1.7,3.1,2.5
	c1.1,0.7,2.3,1.4,3.5,1.8c-0.1,0.1-0.2,0.3-0.3,0.5C594.1,11.9,594,12.1,593.9,12.4z M571.1,19.7c0.8,0.3,1.6,0.5,2.3,0.7
	c-0.1,0.1-0.2,0.2-0.3,0.4c-0.1,0.2-0.2,0.4-0.3,0.6s-0.2,0.3-0.2,0.5c-0.9-0.3-1.8-0.6-2.7-1c-0.9-0.4-1.8-0.8-2.6-1.3
	c-0.8-0.5-1.5-1-2.2-1.5v4.2h-1.8v-4.2c-0.6,0.5-1.4,1-2.2,1.5c-0.8,0.5-1.7,0.9-2.6,1.3c-0.9,0.4-1.8,0.7-2.7,1
	c0-0.1-0.1-0.2-0.2-0.4c-0.1-0.2-0.2-0.4-0.3-0.6c-0.1-0.2-0.2-0.3-0.3-0.4c0.7-0.2,1.5-0.4,2.3-0.7c0.8-0.3,1.6-0.7,2.4-1
	c0.8-0.4,1.5-0.8,2.1-1.2h-6.4v-1.4h7.9V15h-5.3V8.8c-0.8,0.8-1.5,1.6-2.3,2.1c-0.1-0.1-0.3-0.3-0.6-0.6c-0.3-0.2-0.5-0.4-0.7-0.5
	c0.5-0.3,0.9-0.7,1.4-1.2c0.5-0.5,1-1,1.4-1.6c0.5-0.6,0.9-1.1,1.2-1.7c0.4-0.6,0.7-1.1,0.9-1.6l1.6,0.6c-0.1,0.3-0.3,0.6-0.5,0.9
	c-0.2,0.3-0.4,0.7-0.7,1h3.5c0.2-0.3,0.4-0.7,0.6-1.2c0.2-0.4,0.3-0.8,0.4-1.2l1.8,0.1c-0.1,0.3-0.3,0.7-0.4,1.1s-0.4,0.8-0.5,1.1
	h6.4v1.4h-6.6v1.1h5.3v1.3h-5.3v1.1h5.3v1.3h-5.3v1.1h6.8V15h-6.8v1.1h7.8v1.4h-6.4c0.6,0.4,1.4,0.8,2.1,1.2
	C569.5,19.1,570.3,19.4,571.1,19.7z M563.3,7.7h-3.6v1.1h3.6V7.7z M563.3,10.1h-3.6v1.1h3.6V10.1z M563.3,12.5h-3.6v1.1h3.6V12.5z
	 M549.5,18.2c-1.1,1.2-2.7,2-4.7,2.5c-0.1-0.2-0.2-0.5-0.4-0.9c-0.2-0.4-0.4-0.6-0.7-0.8c1.2-0.2,2.2-0.5,3.1-1s1.5-1.1,2-1.9
	c0.5-0.7,0.7-1.5,0.8-2.4c0-0.8-0.1-1.5-0.3-2.2c-0.3-0.7-0.6-1.3-1.1-1.8s-1-0.9-1.7-1.2c-0.6-0.3-1.3-0.5-2-0.5
	c-0.1,1.3-0.3,2.6-0.6,3.9c-0.3,1.3-0.7,2.5-1.2,3.7s-1.1,2.1-1.8,2.8c-0.5,0.5-0.9,0.8-1.4,0.9c-0.5,0.1-1,0-1.5-0.2
	c-0.5-0.2-1-0.6-1.4-1c-0.4-0.5-0.7-1.1-0.9-1.8c-0.2-0.7-0.3-1.4-0.3-2.2c0.1-1.2,0.3-2.3,0.8-3.2c0.5-1,1.1-1.8,2-2.6
	c0.8-0.7,1.8-1.3,2.8-1.6c1.1-0.4,2.2-0.5,3.4-0.4c1,0.1,1.9,0.3,2.7,0.7c0.9,0.4,1.6,0.9,2.3,1.6c0.7,0.7,1.2,1.4,1.5,2.3
	c0.4,0.9,0.5,1.9,0.5,3C551.2,15.6,550.6,17,549.5,18.2z M539.8,9.3c-0.8,0.6-1.4,1.3-1.9,2.2c-0.5,0.9-0.7,1.8-0.8,2.8
	c0,0.7,0.1,1.4,0.3,1.9c0.3,0.5,0.6,0.9,0.9,1.2c0.1,0.1,0.3,0.1,0.5,0.1s0.4-0.1,0.6-0.3c0.5-0.5,1-1.3,1.4-2.2
	c0.4-0.9,0.8-2,1-3.2c0.3-1.2,0.5-2.4,0.5-3.6C541.5,8.3,540.6,8.7,539.8,9.3z M519.8,19.8h5v-4.2h-3.9v-1.7h3.9v-3.5h-2.4
	c-0.2,0.5-0.5,1.1-0.8,1.6c-0.3,0.5-0.5,0.9-0.8,1.3c-0.1-0.1-0.3-0.2-0.5-0.3c-0.2-0.1-0.4-0.2-0.6-0.3c-0.2-0.1-0.4-0.2-0.5-0.2
	c0.3-0.3,0.5-0.7,0.7-1.1c0.2-0.4,0.5-0.9,0.7-1.4l-1.3,0.8c-0.1-0.3-0.3-0.7-0.6-1.1c-0.3-0.4-0.5-0.8-0.8-1.1v13.6h-1.8V4.1h1.8
	v3.9l1-0.6c0.3,0.4,0.6,0.8,0.9,1.3s0.6,0.9,0.8,1.2c0.3-0.7,0.6-1.4,0.8-2.2s0.4-1.4,0.5-2l1.7,0.3c-0.1,0.5-0.1,0.9-0.2,1.4
	c-0.1,0.5-0.2,0.9-0.4,1.4h1.8V4.2h1.8v4.5h4.5v1.6h-4.5v3.5h3.9v1.7h-3.9v4.2h5v1.7h-11.8V19.8z M515.2,11.6
	c-0.1,0.6-0.2,1.1-0.3,1.5s-0.2,0.8-0.3,1.1c-0.1,0-0.2-0.1-0.4-0.2c-0.2-0.1-0.4-0.1-0.6-0.2c-0.2-0.1-0.3-0.1-0.5-0.1
	c0.1-0.3,0.2-0.7,0.3-1.1c0.1-0.5,0.2-1,0.3-1.5s0.1-1,0.2-1.5s0.1-0.9,0.1-1.2l1.6,0.1c0,0.5,0,1-0.1,1.5
	C515.3,10.5,515.3,11,515.2,11.6z M498.5,5H510v16.5h-11.5V5z M500.2,19.9h8.1V6.6h-8.1V19.9z M505.1,13.1h1.9v5.4h-5.5v-5.4h1.9
	v-1.9h-2.8V9.7h2.8V7.5h1.6v2.2h2.8v1.5h-2.8V13.1z M503.1,14.6v2.4h2.4v-2.4H503.1z M496.7,8v14.2h-1.7V11.3
	c-0.3,0.5-0.5,0.9-0.8,1.3c-0.3,0.4-0.5,0.7-0.8,1c-0.1-0.2-0.3-0.4-0.6-0.6c-0.3-0.2-0.5-0.4-0.7-0.5c0.4-0.5,0.9-1.1,1.3-1.8
	c0.4-0.7,0.9-1.5,1.2-2.3s0.7-1.6,1-2.4s0.5-1.4,0.6-2l1.7,0.4c-0.1,0.5-0.3,1.1-0.5,1.7S496.9,7.4,496.7,8z M486.5,11
	c-0.5-0.4-1-0.7-1.6-1c-0.5-0.3-1-0.6-1.4-0.7l0.9-1.4c0.3,0.1,0.7,0.3,1.1,0.5c0.4,0.2,0.8,0.4,1.2,0.7c0.4,0.3,0.8,0.5,1.2,0.8
	c0.4,0.3,0.7,0.5,0.9,0.7l-1.1,1.4C487.4,11.7,487,11.4,486.5,11z M479,9.5c-0.5,1.7-1,3.2-1.8,4.7c-0.7,1.5-1.6,2.8-2.5,4
	c-0.1-0.1-0.2-0.2-0.4-0.3c-0.2-0.1-0.4-0.2-0.6-0.4c-0.2-0.1-0.4-0.2-0.5-0.3c0.8-0.9,1.6-2.1,2.3-3.4c0.7-1.3,1.2-2.7,1.7-4.1
	c-0.7,0.1-1.4,0.2-2.1,0.3c-0.6,0.1-1.2,0.1-1.5,0.2l-0.3-1.7c0.5,0,1.1-0.1,1.9-0.1c0.8-0.1,1.6-0.2,2.4-0.3
	c0.1-0.6,0.3-1.3,0.4-1.9c0.1-0.6,0.1-1.2,0.1-1.8l1.7,0.2c-0.1,0.5-0.1,1.1-0.2,1.6c-0.1,0.5-0.2,1.1-0.3,1.6
	c0.5-0.1,1-0.2,1.5-0.3c0.5-0.1,0.9-0.2,1.3-0.3l0.2,1.7c-0.4,0.1-0.9,0.2-1.5,0.3C480.3,9.3,479.6,9.4,479,9.5z M469.8,19.5
	c-0.2,0.1-0.4,0.3-0.6,0.6c-0.2,0.3-0.4,0.5-0.5,0.7c-0.5-0.3-1.1-0.7-1.6-1.1s-1.1-0.9-1.6-1.3c-0.5-1.4-0.9-0.9-1.3-1.3v3.3
	c0,0.6-0.2,1.1-0.5,1.4c-0.3,0.3-0.9,0.4-1.6,0.4h-1.4c0-0.2-0.1-0.5-0.2-0.9c-0.1-0.3-0.2-0.6-0.2-0.8h1.4c0.3,0,0.5,0,0.6-0.1
	c0.1-0.1,0.2-0.3,0.2-0.5v-6.4h-4.7v-1.5h4.7v-1.3h-3.8V9.4h3.8V8h-4.4V6.7h2.8c-0.2-0.3-0.4-0.7-0.7-1.1c-0.3-0.4-0.5-0.7-0.7-1
	l1.4-0.7c0.3,0.3,0.6,0.7,0.9,1.2c0.3,0.5,0.6,0.9,0.7,1.2L462,6.7h2.1c0.3-0.4,0.5-0.9,0.8-1.4c0.3-0.5,0.5-1,0.6-1.3l1.6,0.5
	c-0.1,0.3-0.3,0.7-0.6,1.1c-0.2,0.4-0.5,0.8-0.7,1.2h3V8h-4.5v1.3h3.6v1.4h-3.6v1.3h4.8v1.5h-4.8v1.6c0.2,0.2,0.4,0.4,0.6,0.7
	c0.2,0.2,0.4,0.5,0.7,0.7c0.3-0.4,0.7-0.8,1.1-1.3c0.4-0.5,0.7-0.9,0.9-1.3l1.4,0.8c-0.3,0.5-0.7,1-1.1,1.5
	c-0.4,0.5-0.8,0.9-1.2,1.3c0.5,0.4,1.1,0.8,1.6,1.2C468.7,18.9,469.3,19.3,469.8,19.5z M455.6,11.4c0.2,0.3,0.4,0.6,0.8,1.1
	c0.3,0.4,0.6,0.8,1,1.2s0.7,0.7,1,1c-0.1,0.1-0.2,0.2-0.4,0.3c-0.2,0.1-0.3,0.3-0.5,0.4c-0.1,0.1-0.3,0.3-0.3,0.4
	c-0.2-0.2-0.5-0.5-0.7-0.9c-0.3-0.3-0.5-0.7-0.8-1v8.4H454v-8.4c-0.3,0.7-0.6,1.3-1,1.9c-0.3,0.6-0.7,1.1-1,1.6
	c-0.1-0.1-0.2-0.2-0.4-0.3c-0.2-0.1-0.4-0.2-0.5-0.3c-0.2-0.1-0.3-0.2-0.4-0.2c0.3-0.4,0.6-0.8,1-1.3s0.7-1.1,1-1.7
	c0.3-0.6,0.6-1.2,0.8-1.8c0.2-0.6,0.4-1.1,0.6-1.6V9.6h-2.8V8.1h2.8v-4h1.6v4h2.2v1.5h-2.2V11.4z M460.5,16.9
	c-0.3-0.4-0.6-0.7-1-1.1c-0.4-0.4-0.8-0.7-1.2-1l1.1-1c0.2,0.2,0.5,0.4,0.8,0.6c0.3,0.3,0.6,0.5,0.8,0.8c0.3,0.3,0.5,0.5,0.6,0.7
	c-0.1,0.1-0.2,0.1-0.3,0.3c-0.1,0.1-0.3,0.3-0.4,0.4C460.7,16.7,460.6,16.8,460.5,16.9z M461.8,17.1c0,0.2,0.1,0.4,0.1,0.6
	c0,0.2,0.1,0.3,0.1,0.4c-0.4,0.3-0.8,0.6-1.4,0.9c-0.5,0.3-1.1,0.6-1.6,0.9c-0.5,0.3-1,0.6-1.4,0.8l-0.8-1.5c0.5-0.2,1-0.4,1.6-0.7
	c0.6-0.3,1.2-0.6,1.8-1c0.6-0.3,1.1-0.6,1.5-0.9C461.8,16.7,461.8,16.8,461.8,17.1z M442.3,19.7c-1.4,0.8-3,1.4-4.8,1.9
	c-1.8,0.5-3.6,0.8-5.6,1c0-0.1-0.1-0.3-0.2-0.5c-0.1-0.2-0.2-0.5-0.3-0.7c-0.1-0.2-0.2-0.4-0.3-0.5c1.7-0.1,3.4-0.3,5-0.7
	s3-0.9,4.3-1.5c-0.3-0.3-0.5-0.7-0.8-1c-0.3-0.3-0.5-0.5-0.7-0.7l1.7-1.1c0.2,0.2,0.5,0.5,0.8,0.8s0.6,0.7,0.9,1
	c1.5-0.9,2.7-1.9,3.5-3h-4.5c-1.9,1.4-4.1,2.5-6.6,3.2c0-0.1-0.1-0.3-0.3-0.5s-0.3-0.4-0.4-0.6c-0.2-0.2-0.3-0.4-0.4-0.5
	c0.9-0.2,1.7-0.5,2.7-0.8c0.9-0.4,1.8-0.8,2.7-1.4c0.9-0.5,1.7-1.1,2.4-1.7c0.7-0.6,1.3-1.2,1.8-1.9l1.8,0.7
	c-0.6,0.7-1.2,1.3-1.8,1.9h4.7l0.7,0.7c-0.6,1.1-1.5,2.2-2.5,3.2C445,18,443.7,18.9,442.3,19.7z M437.2,13.5
	c-1.7,0.9-3.7,1.6-5.7,2.2c0-0.1-0.1-0.3-0.2-0.5s-0.2-0.4-0.4-0.6c-0.1-0.2-0.2-0.4-0.3-0.4c1.3-0.3,2.6-0.6,3.8-1.1
	c1.2-0.5,2.3-1,3.4-1.6c-0.3-0.3-0.6-0.6-0.9-0.9c-0.3-0.3-0.6-0.5-0.7-0.6l1.6-1.3c0.3,0.2,0.6,0.5,0.9,0.7s0.6,0.6,0.9,0.8
	c0.6-0.5,1.2-0.9,1.7-1.4c0.5-0.5,0.9-1,1.3-1.4h-4.1c-1.6,1.6-3.6,2.9-5.8,4c-0.1-0.1-0.2-0.3-0.3-0.5s-0.3-0.4-0.5-0.6
	c-0.2-0.2-0.3-0.3-0.4-0.4c0.8-0.3,1.6-0.7,2.4-1.2c0.8-0.5,1.5-1,2.2-1.6c0.7-0.6,1.3-1.1,1.8-1.7s0.9-1.1,1.2-1.6l1.8,0.5
	c-0.2,0.3-0.4,0.5-0.6,0.8c-0.2,0.3-0.4,0.5-0.6,0.8h4.6l0.7,0.7c-0.8,1.3-1.9,2.5-3.2,3.7S439,12.6,437.2,13.5z M422.3,20.5
	c-0.9,0.4-1.9,0.7-3,0.7c-1.5,0-2.6-0.3-3.3-0.8c-0.7-0.5-1.1-1.2-1.1-2c0-0.5,0.1-0.9,0.4-1.3c0.3-0.4,0.6-0.6,1-0.8
	s0.8-0.3,1.3-0.3c0.9,0,1.6,0.3,2.2,0.9c0.6,0.6,0.9,1.4,1,2.3c0.6-0.2,1.2-0.6,1.6-1.1s0.7-1.2,0.7-2c0-0.6-0.1-1.2-0.4-1.6
	c-0.3-0.5-0.7-0.8-1.2-1.1c-0.5-0.3-1.1-0.4-1.8-0.4c-1.7,0-3.2,0.5-4.4,1.5c-0.2,0.2-0.6,0.5-1,0.8c-0.4,0.3-0.8,0.6-1.1,0.9
	l-1.2-1.3c0.6-0.4,1.3-0.9,2-1.4s1.4-1.2,2.1-1.9c0.7-0.7,1.4-1.4,2-2.2c0.6-0.7,1.2-1.5,1.7-2.2c-0.6,0.1-1.2,0.3-1.9,0.4
	s-1.4,0.2-2.1,0.3c-0.7,0.1-1.3,0.1-1.8,0.2l-0.3-1.8c0.4,0,0.8,0,1.4,0c0.5,0,1.1-0.1,1.7-0.2c0.6-0.1,1.2-0.1,1.8-0.2
	c0.6-0.1,1.1-0.2,1.6-0.3c0.5-0.1,0.8-0.2,1-0.3l1.4,0.9c-0.3,0.6-0.7,1.2-1.2,1c-0.5,1.6-1,2.3-1.6,2.9c-0.6,0.7-1.2,1.3-1.8,2
	c0.3-0.1,0.6-0.3,1-0.4c0.4-0.1,0.7-0.1,1.1-0.1c1,0,1.8,0.2,2.6,0.6s1.3,0.9,1.7,1.6c0.4,0.7,0.6,1.5,0.6,2.4c0,1-0.2,1.8-0.7,2.6
	S423.1,20,422.3,20.5z M418.7,18c-0.3-0.4-0.6-0.6-1.1-0.6c-0.3,0-0.5,0.1-0.7,0.2c-0.2,0.1-0.3,0.3-0.3,0.6c0,0.3,0.2,0.6,0.5,0.8
	c0.3,0.2,0.9,0.3,1.7,0.4h0.2C419.1,18.8,419,18.4,418.7,18z M405.8,21.1c-0.6,0.1-1.2,0.2-1.9,0.2c-0.7,0.1-1.3,0.1-1.7,0.1
	c-0.8,0-1.4-0.1-1.9-0.3c-0.5-0.2-0.8-0.6-1-1.1c-0.2-0.5-0.3-1.2-0.2-2.2c0-0.8,0-1.3-0.1-1.7c-0.1-0.3-0.2-0.6-0.5-0.7
	c-0.5-0.2-1-0.1-1.4,0.4c-0.6,0.8-1.3,1.5-1.9,2.2c-0.6,0.7-1.1,1.4-1.6,1.9c-0.5,0.6-0.8,1-1.1,1.3l-1.5-1.2
	c0.3-0.3,0.7-0.7,1.2-1.3c0.5-0.6,1.1-1.2,1.7-1.9c0.6-0.7,1.2-1.4,1.8-2.1c0.6-0.7,1.2-1.4,1.7-2.1c0.5-0.6,0.9-1.2,1.3-1.6
	c-0.4,0.1-0.9,0.2-1.5,0.3c-0.6,0.1-1.2,0.2-1.8,0.2s-1.1,0.1-1.6,0.2c-0.5,0.1-0.9,0.1-1.1,0.1l-0.3-1.7c0.3,0,0.7,0,1.2-0.1
	c0.5,0,1.1-0.1,1.7-0.1c0.6-0.1,1.3-0.1,1.9-0.2c0.6-0.1,1.3-0.2,1.8-0.3c0.6-0.1,1-0.2,1.4-0.3l1.3,1.1c-0.1,0.1-0.4,0.4-0.7,0.8
	c-0.3,0.4-0.7,0.8-1.2,1.4c-0.4,0.5-0.9,1.1-1.4,1.6c0.2-0.1,0.4-0.1,0.6,0c0.3,0.1,0.5,0.1,0.6,0.2c0.3,0.2,0.6,0.4,0.7,0.8
	c0.2,0.4,0.2,1,0.2,1.9c0,0.8,0,1.3,0.1,1.7c0.1,0.4,0.3,0.6,0.6,0.7c0.3,0.1,0.6,0.1,1,0.1c0.3,0,0.7,0,1.1,0
	c0.4,0,0.9-0.1,1.3-0.2c0.4-0.1,0.8-0.1,1.1-0.2c-0.1,0.2-0.1,0.5-0.1,0.9C405.8,20.6,405.8,20.9,405.8,21.1z M399.3,7.7
	c-0.5-0.2-1-0.3-1.5-0.5c-0.5-0.2-1-0.4-1.5-0.6c-0.5-0.2-0.8-0.4-1-0.5l0.8-1.5c0.2,0.1,0.5,0.3,0.9,0.4c0.4,0.2,0.9,0.4,1.4,0.5
	c0.5,0.2,1,0.4,1.5-0.4c0.5,1.1,0.9,1.2,1.2,1.2L400.5,8C400.2,7.9,399.8,7.8,399.3,7.7z M377.6,12.5c-0.5,0.4-1.1,0.7-1.6,1.1
	c0.7,0,1.4-0.1,2.2-0.2c0.8-0.1,1.5-0.2,2.3-0.3c0.8-0.1,1.5-0.2,2.2-0.3c0.7-0.1,1.2-0.3,1.7-0.4l0.9,1.4c-0.8,0.2-1.7,0.4-2.8,0.5
	c-1.1,0.2-2.2,0.3-3.3,0.4c-1.1,0.1-2.3,0.2-3.3,0.2c-0.1,0.2-0.1,0.4-0.1,0.6c0,0.2-0.1,0.3-0.1,0.4h7.7c-0.2,1.4-0.4,2.6-0.6,3.4
	c-0.2,0.9-0.5,1.5-0.7,1.9c-0.3,0.4-0.7-0.2-1.1,0.9c-0.4,0.1-1,0.2-1.6,0.2h-2.5c0-0.2-0.1-0.5-0.1-0.9c-0.1-0.4-0.1-0.6-0.2-0.9
	h2.4c0.5,0,0.9-0.1,1.1-0.2c0.3-0.1,0.5-0.4,0.6-0.9c0.2-0.5,0.3-1.1,0.5-2.1h-7.7c0-0.1,0.1-0.3,0.1-0.6c0.1-0.3,0.1-0.6,0.2-1
	c0.1-0.4,0.1-0.7,0.2-1.1c-0.9,0.5-1.7,0.9-2.7,1.3c-0.9,0.4-1.9,0.8-2.8,1.1c-0.1-0.2-0.2-0.5-0.4-0.8c-0.2-0.3-0.3-0.6-0.5-0.7
	c1.7-0.5,3.3-1.2,4.8-1.9c1.5-0.7,2.9-1.6,4.1-2.5h-8.3V9.8h7.5v-2h-5.2V6.3h5.2V4h1.8v2.3h3.2v1.4c1-1.1,1.8-2.1,2.5-3.2l1.5,0.8
	c-0.5,0.8-1.1,1.6-1.7,2.3c-0.6,0.8-1.3,1.5-2,2.2h5.5v1.5h-7.2C378.6,11.7,378.1,12.1,377.6,12.5z M380.6,7.8h-3.1v2h1
	c0.4-0.3,0.8-0.7,1.1-1C379.9,8.5,380.2,8.1,380.6,7.8z M363.7,18.4c0,0.3,0,0.5,0,0.6c-0.7,0.2-1.4,0.3-2.1,0.4s-1.5,0.1-2.2,0.2
	c-0.7,0-1.3,0-1.9,0c-0.9-0.1-1.6-0.2-2.2-0.5c-0.6-0.3-0.9-0.8-1.1-1.4c-0.3-0.7-0.2-1.6,0.1-2.6l1.6,0.4c-0.1,0.3-0.1,0.6-0.1,0.8
	c0,0.2,0.1,0.5,0.1,0.6c0.2,0.5,0.9,0.7,1.9,0.8c0.6,0,1.3,0,2,0s1.5-0.1,2.2-0.3c0.7-0.1,1.3-0.3,1.8-0.4c0,0.1-0.1,0.3-0.1,0.6
	S363.7,18.2,363.7,18.4z M360.9,9.7c-0.7,0.1-1.4,0.1-2.2,0.2c-0.7,0-1.5,0.1-2.1,0.1s-1.3,0-1.8,0L354.8,8c0.5,0.1,1.1,0.1,1.8,0.1
	c0.7,0,1.4,0,2.2,0c0.8,0,1.5-0.1,2.2-0.2c0.7-0.1,1.3-0.2,1.8-0.3l-0.1,1.9C362.2,9.5,361.6,9.6,360.9,9.7z M351.2,10.7
	c-0.1,0.9-0.1,1.8-0.1,2.8s0,1.9,0,2.8c0,0.9,0.1,1.7,0.1,2.4s0.1,1.3,0.2,1.8l-1.8,0.3c-0.1-0.5-0.2-1.2-0.2-1.9
	c-0.1-0.8-0.1-1.6-0.1-2.5s0-1.9,0-2.8s0.1-1.9,0.1-2.9c0.1-0.9,0.1-1.8,0.2-2.6c0.1-0.8,0.2-1.5,0.3-2l1.8,0.4
	c-0.1,0.5-0.2,1.1-0.4,1.8C351.3,9,351.2,9.8,351.2,10.7z M341.8,22.2H340c0-0.2,0-0.4-0.1-0.6s-0.1-0.5-0.1-0.7
	c0-0.2-0.1-0.4-0.1-0.5h1.7c0.3,0,0.5,0,0.6-0.1s0.2-0.3,0.2-0.5V4.2h1.7v16.3C343.8,21.7,343.1,22.2,341.8,22.2z M338.6,8.5V5.8
	h1.7v11.8h-1.7V8.5z M337.8,9.6c-0.1,0.2-0.2,0.4-0.3,0.5c-0.3-0.1-0.5-0.3-0.8-0.5c-0.3-0.2-0.6-0.4-0.8-0.6v1.3h-2.7v1.4h4.1v5
	h-3.9c0.5,0.9,1.1,1.6,2,2.3c0.8,0.7,1.7,1.3,2.6,1.7c-0.1,0.1-0.2,0.2-0.4,0.4s-0.3,0.4-0.4,0.5c-0.1,0.2-0.2,0.3-0.3,0.5
	c-0.9-0.5-1.7-1-2.4-1.7s-1.3-1.4-1.9-2.2c-0.4,1-1.1,1.8-2,2.5s-2,1.2-3.4,1.6c-0.1-0.2-0.2-0.5-0.3-0.8s-0.3-0.5-0.4-0.7
	c1.4-0.3,2.6-0.9,3.3-1.6c0.8-0.7,1.3-1.5,1.6-2.6h-3.8v-5h4v-1.4h-2.7v-1c-0.3,0.2-0.5,0.4-0.8,0.6c-0.3,0.2-0.6,0.4-0.9,0.6
	c-0.1-0.1-0.2-0.3-0.3-1.3c-0.1,0.7-0.3,0.5-0.5,0.4c-0.2-0.2-0.3-0.3-0.4-0.4c0.8-0.4,1.6-0.9,2.3-1.5c0.7-0.6,1.4-1.2,1.9-1.8
	s1-1.3,1.4-1.9l1.6,0.2c0.4,0.5,0.9,1.1,1.5,1.7s1.2,1.1,1.9,1.6c0.7,0.5,1.4,0.9,2,1.2c-0.1,0.1-0.2,0.2-0.4,0.4
	C338.1,9.1,338,9.4,337.8,9.6z M335.6,15.1v-2h-2.4v1.4c0,0.1,0,0.2,0,0.3c0,0.1,0,0.2,0,0.3H335.6z M329.2,13.2v2h2.3
	c0-0.1,0-0.2,0-0.3c0-0.1,0-0.2,0-0.3v-1.4H329.2z M333.8,7.2c-0.6-0.5-1-1.1-1.5-1.6c-0.7,1-1.6,2.1-2.8,3.1h6
	C334.9,8.3,334.4,7.8,333.8,7.2z M318.8,19.2c0.5,0.2,1,0.5,1.5,0.7c0.5,0.2,1,0.4,1.4,0.6c0.5,0.2,0.8,0.3,1.2,0.4
	c-0.1,0.1-0.2,0.3-0.3,0.5c-0.1,0.2-0.3,0.4-0.4,0.6c-0.1,0.2-0.2,0.4-0.2,0.5c-0.6-0.2-1.2-0.4-1.9-0.8c-0.7-0.3-1.4-0.7-2-1
	c-0.7-0.4-1.2-0.7-1.8-1.1l0.8-1h-4.6l0.8,1c-0.5,0.3-1.1,0.7-1.7,1.1c-0.7,0.4-1.3,0.7-2,1c-0.7,0.3-1.3,0.6-1.9,0.8
	c0-0.1-0.1-0.3-0.2-0.5c-0.1-0.2-0.2-0.4-0.4-0.6c-0.1-0.2-0.2-0.3-0.3-0.5c0.3-0.1,0.7-0.2,1.2-0.4c0.5-0.2,0.9-0.4,1.4-0.6
	c0.5-0.2,1-0.4,1.5-0.7c0.5-0.2,0.9-0.5,1.2-0.7H306V17h17.8v1.5h-6.1C318,18.7,318.4,19,318.8,19.2z M315.9,7.9h4.8v8.2H309V7.9
	h4.8V6.8h-7.5V5.3h7.5V4h2v1.4h7.5v1.5h-7.5V7.9z M311,14.8h7.8v-1H311V14.8z M311,12.5h7.8v-1H311V12.5z M311,9.2v1h7.8v-1H311z
	 M296.4,15.4v2.7h-1.8v-2.1c-0.8,0.4-1.4,0.8-1.9,1.2c-0.5,0.4-0.7,0.8-0.7,1.2c0,0.5,0.3,0.9,0.9,1.1c0.6,0.2,1.5,0.3,2.6,0.3
	c0.4,0,0.9,0,1.4-0.1c0.5-0.1,1-0.1,1.6-0.2c0.5-0.1,1-0.2,1.4-0.3c0,0.1,0,0.3,0,0.5s0,0.5,0,0.7c0,0.2,0,0.4,0,0.6
	c0,0,0,0.1,0,0.1c-0.7,0.2-1.4,0.3-2.2,0.4c-0.8,0.1-1.5,0.1-2.2,0.1c-1,0-1.9-0.1-2.8-0.3c-0.8-0.2-1.5-0.5-1.9-1
	c-0.5-0.4-0.7-1-0.7-1.7c0-0.6,0.2-1.1,0.6-2.5c0.4,0.4,0.9-0.1,1.6-0.5c0.7-0.4,1.4-0.8,2.2-1.2v-0.2c0-0.6-0.1-1-0.4-1.3
	c-0.2-0.2-0.6-0.4-1-0.4c-0.7,0-1.4,0.1-2,0.3c-0.7,0.3-1.3,0.7-1.9,1.3c-0.2,0.3-0.5,0.5-0.9,0.9c-0.3,0.3-0.6,0.6-0.9,0.8
	l-1.3-1.3c0.9-0.7,1.8-1.5,2.7-2.5c0.8-1,1.5-2,2.1-3.1c-0.8,0-1.6,0.1-2.2,0.1c-0.7,0-1.2,0-1.5,0l-0.1-1.8c0.4,0,1.1,0.1,1.9,0.1
	c0.8,0,1.7,0,2.7-0.1c0.2-0.5,0.3-0.9,0.4-1.4c0.1-0.5,0.2-0.9,0.2-1.3l1.8,0.1c0,0.8-0.2,1.6-0.5,2.4c1-0.1,2-0.2,2.9-0.3
	s1.6-0.2,2.1-0.3l0.1,1.7c-0.4,0.1-0.9,0.2-1.5,0.2c-0.6,0.1-1.3,0.1-2,0.2c-0.7,0.1-1.5,0.1-2.2,0.2c-0.2,0.5-0.4,0.9-0.7,1.4
	c-0.3,0.5-0.6,0.9-0.9,1.3c0.3-0.2,0.7-0.3,1.1-0.4c0.4-0.1,0.8-0.1,1.1-0.1c0.8,0,1.4,0.2,1.9,0.7c0.5,0.4,0.7,1.1,0.8,2.1
	c0.8-0.3,1.6-0.5,2.4-0.8c0.8-0.2,1.6-0.4,2.2-0.6l0.5,1.7c-0.9,0.1-1.8,0.3-2.7,0.5C298,14.9,297.2,15.2,296.4,15.4z M280.4,14.6
	c-0.4-0.5-0.8-1-1.2-1.4c-0.4-0.5-0.9-0.9-1.3-1.3c-0.4-0.4-0.8-0.7-1.1-0.9l1.3-1.2c0.3,0.2,0.7,0.6,1.2,1c0.4,0.4,0.9,0.8,1.3,0.4
	c0.4,1.4,0.9,1.8,1.2,2.3c0.4,0.4,0.7,0.8,0.9,1.2l-1.4,1.3C281.1,15.4,280.8,15,280.4,14.6z M274.7,18.6c-0.3,0.8-0.7,1.3-1.2,1.7
	c-0.5,0.3-1.1,0.5-1.8,0.5c-0.4,0-0.7,0-1.1-0.1c-0.3-0.1-0.7-0.2-1-0.4c0-0.2,0-0.5,0-0.9c0-0.4,0-0.7-0.1-0.9
	c0.6,0.4,1.3,0.6,1.9,0.6c0.4,0,0.7-0.1,0.9-0.3c0.3-0.2,0.5-0.6,0.7-1.1s0.4-1.3,0.6-2.4c0.2-0.8,0.3-1.5,0.3-2s0-0.9-0.1-1.1
	s-0.3-0.4-0.5-0.5c-0.2-0.1-0.4-0.1-0.7-0.1c-0.2,0-0.5,0-0.7,0c-0.3,0-0.6,0-0.9,0.1c-0.4,1.2-0.9,2.5-1.4,3.7
	c-0.5,1.2-1.1,2.3-1.7,3.3c-0.6,1-1.1,1.9-1.7,2.5c-0.1-0.1-0.2-0.2-0.4-0.3c-0.2-0.1-0.4-0.3-0.6-0.4c-0.2-0.1-0.4-0.2-0.5-0.2
	c0.5-0.6,1.1-1.3,1.6-2.2c0.5-0.9,1-1.9,1.5-2.9c0.5-1.1,0.9-2.1,1.3-3.2c-0.7,0.1-1.4,0.2-2.1,0.3c-0.7,0.1-1.2,0.2-1.6,0.3
	c0-0.1,0-0.3-0.1-0.5s-0.1-0.5-0.2-0.7c-0.1-0.2-0.1-0.4-0.1-0.5c0.3,0,0.7-0.1,1.2-0.1c0.5,0,1-0.1,1.6-0.2
	c0.6-0.1,1.2-0.1,1.8-0.2c0.3-0.9,0.5-1.7,0.6-2.5s0.3-1.6,0.3-2.3l1.8,0.3c-0.1,0.7-0.2,0.4-0.3,2.1c-0.2,0.7-0.4,1.5-0.6,2.3
	c0.6,0,1.1-0.1,1.5-0.1c0.5,0,1,0.1,1.4,0.2s0.7,0.5,0.9,0.9s0.4,1,0.4,1.7s-0.1,1.7-0.3,2.8C275.3,16.9,275.1,17.9,274.7,18.6z
	 M259.6,20.2c0,1.2-0.7,1.8-2.2,1.8h-1.8c0-0.2-0.1-0.6-0.2-0.9c-0.1-0.4-0.2-0.7-0.2-0.9h1.8c0.3,0,0.5,0,0.6-0.1
	c0.1-0.1,0.2-0.3,0.2-0.5v-12h-8.3V5.8h12.2v1.7h-2.1V20.2z M247.9,8.7v13.4H246V11.7c-0.6,0.9-1.3,1.7-1.9,2.3
	c-0.1-0.2-0.3-0.4-0.6-0.6c-0.3-0.2-0.5-0.4-0.7-0.5c0.4-0.4,0.8-0.8,1.2-1.4s0.8-1.1,1.2-1.8c0.4-0.7,0.8-1.3,1.1-2
	s0.6-1.3,0.9-1.9c0.2-0.6,0.4-1.1,0.5-1.6l1.7,0.5c-0.2,0.6-0.4,1.3-0.7,1.9S248.2,8.1,247.9,8.7z M235.8,16.3
	c0.7,0.3,1.5,0.6,2.2,1c0.7,0.4,1.4,0.9,2.1,1.4c-0.1,0.1-0.2,0.2-0.4,0.4c-0.2,0.2-0.3,0.4-0.4,0.6c-0.1,0.2-0.2,0.4-0.3,0.5
	c-1-0.9-2.1-1.6-3.1-2.1c0,1-0.4,1.8-1.1,2.2c-0.7,0.5-1.6,0.7-2.8,0.6c-1,0-1.7-0.3-2.3-0.8c-0.6-0.5-0.8-1.1-0.8-1.8
	c0-0.5,0.1-0.9,0.4-1.3c0.3-0.4,0.7-0.7,1.2-0.9c0.5-0.2,1.2-0.4,2-0.4c0.5,0,1,0,1.5,0.1c0-0.6-0.1-1.4-0.1-2.3
	c0-0.9-0.1-1.8-0.1-2.9c-0.9,0.1-1.7,0.1-2.5,0.1c-0.8,0-1.5,0-2.1,0l-0.1-1.9c0.5,0.1,1.2,0.1,2.1-0.8c0.8,0.9,1.7,0.9,2.6,0.8
	c0-0.5,0-1.1,0-1.7c0-0.6,0-1.2,0-1.8h1.8c0,0.6,0,1.1,0,1.7s0,1.1,0,1.7c0.8-0.1,1.6-0.1,2.3-0.2c0.7-0.1,1.2-0.2,1.5-0.3v1.8
	c-0.4,0.1-0.9,0.1-1.6,0.2c-0.7,0.1-1.4,0.1-2.2,0.2c0,1.1,0.1,2.2,0.1,3.2C235.8,14.8,235.8,15.6,235.8,16.3z M234.1,17.5
	c-0.3-0.1-0.6-0.1-0.8-0.1c-0.3,0-0.6-0.1-0.8-0.1c-0.6,0-1,0.1-1.4,0.3c-0.3,0.2-0.5,0.5-0.5,0.8c0,0.3,0.1,0.5,0.4,0.7
	c0.3,0.2,0.7,0.3,1.2,0.3c0.7,0,1.2-0.1,1.5-1.2c0.3,0.7,0.5,0.3,0.5-0.3V17.5z M226.3,10.5c-0.1,1-0.1,1.9-0.1,3c0,1,0,2,0,3
	c0,1,0.1,1.8,0.1,2.6c0.1,0.8,0.2,1.4,0.3,1.9l-1.8,0.3c-0.1-0.5-0.2-1.2-0.2-2c-0.1-0.8-0.1-1.7-0.1-2.7c0-1,0-2,0-3.1
	c0-1.1,0.1-2.1,0.1-3.1c0.1-1,0.1-1.9,0.2-2.8c0.1-0.8,0.2-1.5,0.3-2.1l1.8,0.4c-0.1,0.5-0.3,1.1-0.4,1.9
	C226.4,8.7,226.3,9.5,226.3,10.5z M210,19.3c0.9,0.1,2,0.1,3.2,0c1.2-0.1,2.5-0.3,3.8-0.6c-0.1,0.3-0.2,0.6-0.2,1
	c-0.1,0.4-0.1,0.8-0.1,1c-1.2,0.2-2.4,0.4-3.5,0.4c-1.1,0.1-2.2,0.1-3.2,0c-1-0.1-1.9-0.3-2.6-0.6c-0.7-0.3-1.3-0.7-1.8-1.3
	c-0.4-0.5-0.6-1.2-0.6-2.1c0-1.1,0.4-2,1.2-2.8c0.8-0.8,1.9-1.5,3.3-2c-0.4-0.8-0.6-1.8-0.8-3.1s-0.2-2.8-0.2-4.5h2
	c-0.1,0.8-0.1,1.6-0.1,2.5s0.1,1.7,0.2,2.5c0.1,0.8,0.3,1.4,0.5,2c0.7-0.2,1.4-0.4,2.1-0.6c0.7-0.2,1.5-0.4,2.2-0.6l0.4,1.9
	c-1.2,0.2-2.3,0.4-3.4,0.7c-1.1,0.3-2.1,0.7-2.9,1.1s-1.5,0.9-2,1.4c-0.5,0.5-0.7,1-0.7,1.5c0,0.6,0.3,1.1,0.8,1.5
	C208.3,18.9,209,19.2,210,19.3z M182.2,21.4h4.8V12h1.2v10.5h-5.9V21.4z M172.3,9.8c0.4,0.9,1,1.8,1.6,2.6c0.6,0.8,1.4,1.5,2.2,2.1
	l-1.1,1.3c-0.6-0.3-1.3-0.5-1.9-0.7c-0.7-0.1-1.3-0.2-2-0.2c-0.6,0-1.2,0.1-1.8,0.2c-0.5,0.2-0.9,0.4-1.2,0.7
	c-0.3,0.3-0.5,0.7-0.5,1.2c0,0.5,0.2,1,0.6,1.4c0.4,0.4,0.9,0.6,1.6,0.8c0.7,0.2,1.4,0.3,2.3,0.4c0.9,0.1,1.8,0,2.8,0
	c-0.2,0.3-0.3,0.6-0.5,1c-0.1,0.4-0.2,0.7-0.2,1c-1.1,0.1-2.2,0-3.2-0.1c-1-0.1-1.9-0.4-2.7-0.7c-0.8-0.4-1.4-0.8-1.9-1.4
	c-0.5-0.6-0.7-1.3-0.7-2.2c0-0.7,0.2-1.3,0.6-1.8c0.4-0.5,0.9-0.9,1.5-1.2c0.6-0.3,1.4-0.5,2.2-0.6c0.8-0.1,1.7-0.1,2.6,0.1
	c-0.9-1.1-1.6-2.3-2.2-3.6c-1.3,0.1-2.5,0.2-3.7,0.3c-1.2,0.1-2.2,0.1-3.1,0.1l-0.3-1.8c0.8,0.1,1.8,0.1,2.9,0.1
	c1.1,0,2.3-0.1,3.6-0.2c-0.4-1.2-0.6-2.5-0.6-3.7h1.9c0,0.6,0,1.2,0.1,1.7c0.1,0.6,0.2,1.2,0.4,1.8c1.3-0.1,2.5-0.3,3.6-0.5
	c1.1-0.2,2-0.4,2.6-0.5l0.3,1.8c-0.7,0.1-1.5,0.3-2.6,0.4C174.6,9.6,173.5,9.7,172.3,9.8z M157.4,14.6c-0.4-0.5-0.8-1-1.2-1.4
	c-0.4-0.5-0.9-0.9-1.3-1.3c-0.4-0.4-0.8-0.7-1.1-0.9l1.3-1.2c0.3,0.2,0.7,0.6,1.2,1s0.9,0.8,1.3,0.4c0.4,1.4,0.9,1.8,1.2,2.3
	c0.4,0.4,0.7,0.8,0.9,1.2l-1.4,1.3C158,15.4,157.7,15,157.4,14.6z M151.7,18.6c-0.3,0.8-0.7,1.3-1.2,1.7c-0.5,0.3-1.1,0.5-1.8,0.5
	c-0.4,0-0.7,0-1.1-0.1s-0.7-0.2-1-0.4c0-0.2,0-0.5,0-0.9c0-0.4,0-0.7-0.1-0.9c0.6,0.4,1.3,0.6,1.9,0.6c0.4,0,0.7-0.1,0.9-0.3
	c0.3-0.2,0.5-0.6,0.7-1.1s0.4-1.3,0.6-2.4c0.2-0.8,0.3-1.5,0.3-2s0-0.9-0.1-1.1s-0.3-0.4-0.5-0.5s-1.3-0.1-0.7-0.1
	c-0.2,0-0.5,0-0.7,0c-0.3,0-0.6,0-0.9,0.1c-0.4,1.2-0.9,2.5-1.4,3.7c-0.5,1.2-1.1,2.3-1.7,3.3s-1.1,1.9-1.7,2.5
	c-0.1-0.1-0.2-0.2-0.4-0.3c-0.2-0.1-0.4-0.3-0.6-0.4c-0.2-0.1-0.4-0.2-0.5-0.2c0.5-0.6,1.1-1.3,1.6-2.2c0.5-0.9,1-1.9,1.5-2.9
	s0.9-2.1,1.3-3.2c-0.7,0.1-1.4,0.2-2.1,0.3c-0.7,0.1-1.2,0.2-1.6,0.3c0-0.1,0-0.3-0.1-0.5s-0.1-0.5-0.2-0.7
	c-0.1-0.2-0.1-0.4-0.1-0.5c0.3,0,0.7-0.1,1.2-0.1c0.5,0,1-0.1,1.6-0.2c0.6-0.1,1.2-0.1,1.8-0.2c0.3-0.9,0.5-1.7,0.6-2.5
	s0.3-1.6,0.3-2.3l1.8,0.3c-0.1,0.7-0.2,0.4-0.3,2.1c-0.2,0.7-0.4,1.5-0.6,2.3c0.6,0,1.1-0.1,1.5-0.1c0.5,0,1,0.1,1.4,0.2
	s0.7,0.5,0.9,0.9c0.2,0.4,0.4,1,0.4,1.7c0,0.7-0.1,1.7-0.3,2.8C152.3,16.9,152,17.9,151.7,18.6z M120.5,20.2h5.9
	c-0.1-0.3-0.2-0.6-0.4-0.9c-0.1-0.3-0.3-0.6-0.4-0.8h-2.4v-3.8h12.7v3.8h-2.3c-0.1,0.3-0.2,0.6-0.4,0.9s-0.3,0.6-0.4,0.9h5.7v1.5
	h-17.9V20.2z M134,17.2v-1.2h-9v1.2H134z M127.9,19.4c0.1,0.3,0.3,0.6,0.3,0.9h2.6c0.1-0.3,0.3-0.6,0.4-0.9c0.1-0.3,0.3-0.6,0.4-0.9
	h-4.1C127.6,18.8,127.8,19,127.9,19.4z M120.8,12.3h17.3v1.5h-17.3V12.3z M122.4,5.4h4.2V4h1.7v1.4h2.3V4h1.7v1.4h4.2v6.1h-14.2V5.4
	z M132.4,10.3h2.5V9.1h-2.5V10.3z M132.4,7.9h2.5V6.7h-2.5V7.9z M128.3,10.3h2.3V9.1h-2.3V10.3z M128.3,7.9h2.3V6.7h-2.3V7.9z
	 M124.2,10.3h2.5V9.1h-2.5V10.3z M124.2,7.9h2.5V6.7h-2.5V7.9z M113.6,14.4h-1.2V3.9h5.9V5h-4.8V14.4z M93.5,16.3
	c0.7,0.3,1.5,0.6,2.2,1c0.7,0.4,1.4,0.9,2.1,1.4c-0.1,0.1-0.2,0.2-0.4,0.4c-0.2,0.2-0.3,0.4-0.4,0.6c-0.1,0.2-0.2,0.4-0.3,0.5
	c-1-0.9-2.1-1.6-3.1-2.1c0,1-0.4,1.8-1.1,2.2c-0.7,0.5-1.6,0.7-2.8,0.6c-1,0-1.7-0.3-2.3-0.8s-0.8-1.1-0.8-1.8
	c0-0.5,0.1-0.9,0.4-1.3c0.3-0.4,0.7-0.7,1.2-0.9c0.5-0.2,1.2-0.4,2-0.4c0.5,0,1,0,1.5,0.1c0-0.6-0.1-1.4-0.1-2.3
	c0-0.9-0.1-1.8-0.1-2.9c-0.9,0.1-1.7,0.1-2.5,0.1c-0.8,0-1.5,0-2.1,0l-0.1-1.9C87.3,9,88,9,88.9,8.1C89.7,9,90.6,9,91.5,8.9
	c0-0.5,0-1.1,0-1.7c0-0.6,0-1.2,0-1.8h1.8c0,0.6,0,1.1,0,1.7s0,1.1,0,1.7c0.8-0.1,1.6-0.1,2.3-0.2c0.7-0.1,1.2-0.2,1.5-0.3v1.8
	c-0.4,0.1-0.9,0.1-1.6,0.2c-0.7,0.1-1.4,0.1-2.2,0.2c0,1.1,0.1,2.2,0.1,3.2S93.5,15.6,93.5,16.3z M91.8,17.5
	c-0.3-0.1-0.6-0.1-0.8-0.1c-0.3,0-0.6-0.1-0.8-0.1c-0.6,0-1,0.1-1.4,0.3c-0.3,0.2-0.5,0.5-0.5,0.8c0,0.3,0.1,0.5,0.4,0.7
	c0.3,0.2,0.7,0.3,1.2,0.3c0.7,0,1.2-0.1,1.5-1.2c0.3,0.7,0.5,0.3,0.5-0.3V17.5z M84,10.5c-0.1,1-0.1,1.9-0.1,3c0,1,0,2,0,3
	S84,18.2,84,19c0.1,0.8,0.2,1.4,0.3,1.9l-1.8,0.3c-0.1-0.5-0.2-1.2-0.2-2c-0.1-0.8-0.1-1.7-0.1-2.7c0-1,0-2,0-3.1
	c0-1.1,0.1-2.1,0.1-3.1s0.1-1.9,0.2-2.8c0.1-0.8,0.2-1.5,0.3-2.1L84.6,6c-0.1,0.5-0.3,1.1-0.4,1.9S84,9.5,84,10.5z M70.6,12.9
	c0.9,0,1.7,0.2,2.4,0.4c0.7,0.3,1.2,0.7,1.6,1.3c0.4,0.6,0.6,1.3,0.6,2.1c0,1.6-0.7,2.9-2.1,3.8c-1.4,0.9-3.5,1.3-6.3,1.2
	c-0.1-0.3-0.2-0.6-0.3-1c-0.2-0.4-0.3-0.7-0.5-0.9c1.5,0.1,2.8,0.1,3.8-0.1c1.1-0.2,2-0.6,2.6-1.1c0.6-0.5,0.9-1.2,0.9-2
	c0-0.7-0.3-1.2-0.8-1.6c-0.5-0.4-1.2-0.5-2-0.5c-0.9,0-1.8,0.2-2.8,0.6c-1,0.4-1.9,1-2.7,1.9l-0.1,0.1l0,0l-1.5-1.1
	c0.7-0.7,1.2-1.5,1.7-2.7c0.5-1.1,0.8-2.3,1.1-3.6c-1.9,0.1-3.6,0.1-4.9,0L61,7.9c0.6,0.1,1.4,0.1,2.4,0.2c0.9,0,1.9,0,3-0.1
	c0.1-0.7,0.1-1.3,0.2-1.9c0-0.6,0-1.2,0-1.7h1.9c0,0.5,0,1,0,1.6c0,0.6-0.1,1.2-0.2,1.9c0.9-0.1,1.8-0.1,2.7-0.2
	c0.9-0.1,1.7-0.2,2.4-0.3c0.7-0.1,1.3-0.2,1.8-0.4L75,8.9c-0.8,0.2-1.9,0.4-3.1,0.5c-1.3,0.1-2.6,0.3-3.9,0.3
	c-0.1,0.7-0.3,1.5-0.5,2.2c-0.2,0.7-0.5,1.5-0.8,2.1c0.7-0.4,1.3-0.7,2-0.9C69.3,13,70,12.9,70.6,12.9z M55.3,20.6
	c-1.4,0.2-2.8,0.3-4,0.2c-1.2-0.1-2.3-0.4-3.2-0.8c-0.9-0.4-1.6-0.9-2-1.5l1-1.3c0.4,0.5,1,0.9,1.9,1.2c0.8,0.3,1.8,0.5,2.9,0.6
	c1.1,0.1,2.3,0,3.7-0.3c-0.1,0.3-0.2,0.6-0.2,1C55.3,20,55.3,20.4,55.3,20.6z M52.6,13c-0.8-0.1-1.6-0.2-2.4-0.2c-0.8,0-1.5,0-2.1,0
	l0.2-1.8c0.5,0,1,0,1.6,0c0.6,0,1.3,0.1,1.9,0.1c0.7,0.1,1.3,0.1,1.9,0.2c0.6,0.1,1.1,0.2,1.6,0.3l-0.6,1.8
	C54.1,13.2,53.4,13.1,52.6,13z M46,9.9c-0.3,1.1-0.6,2.1-1,3.2c-0.4,1.1-0.7,2.2-1.1,3.2c-0.4,1.1-0.8,2-1.1,2.9
	c-0.4,0.9-0.7,1.6-1.1,2.2c-0.2-0.1-0.5-0.3-0.9-0.5c-0.4-0.2-0.7-0.3-0.9-0.3c0.3-0.5,0.7-1.2,1-2c0.4-0.8,0.7-1.7,1.1-2.6
	c0.4-1,0.7-2,1.1-3c0.4-1,0.7-2.1,1-3.1c-0.8,0.1-1.5,0.1-2.3,0.2c-0.7,0-1.3,0-1.8,0l-0.1-1.9c0.6,0.1,1.3,0.1,2.1,0.1
	c0.8,0,1.7-0.1,2.6-0.2c0.2-0.7,0.3-1.4,0.4-2c0.1-0.6,0.2-1.2,0.2-1.7l1.9,0.3c-0.1,0.4-0.1,0.9-0.3,1.4s-0.3,1.1-0.4,1.7
	c0.6-0.1,1.2-0.2,1.7-0.3c0.5-0.1,1-0.3,1.3-0.4l0.3,1.7c-0.4,0.1-1,0.3-1.7,0.4C47.5,9.6,46.7,9.8,46,9.9z M34.3,20.6
	c-0.1-0.4-0.3-0.8-0.4-1.2c-0.6,0.1-1.2,0.3-2,0.4c-0.8,0.1-1.6,0.3-2.5,0.4c-0.8,0.1-1.6,0.3-2.4,0.4c-0.8,0.1-1.4,0.2-1.9,0.3
	l-0.4-1.8c0.5,0,1.2-0.1,1.9-0.2c0.3-0.8,0.5-1.7,0.8-2.7s0.5-2,0.7-3.1c0.2-1.1,0.4-2.1,0.6-3.2C29,9,29.2,8,29.4,7.1
	c0.1-0.9,0.3-1.8,0.3-2.5l1.9,0.3c-0.1,1-0.3,2.1-0.6,3.3c-0.2,1.2-0.5,2.4-0.8,3.7c-0.3,1.3-0.6,2.5-0.9,3.7
	c-0.3,1.2-0.6,2.3-0.9,3.2c0.9-0.1,1.7-0.2,2.6-0.4c0.9-0.1,1.6-0.3,2.3-0.4c-0.4-0.9-0.7-1.8-1.1-2.7c-0.4-0.9-0.8-1.6-1.2-2.1
	l1.7-0.6c0.3,0.5,0.7,1.1,1,1.9c0.4,0.7,0.7,1.5,1.1,2.3c0.3,0.8,0.7,1.6,0.9,2.3c0.3,0.7,0.5,1.4,0.7,1.9l-1.8,0.7
	C34.6,21.3,34.5,21,34.3,20.6z M23.8,11.9c0.2,0.3,0.5,0.6,0.9,1c0.4,0.4,0.8,0.8,1.2,1.2s0.8,0.7,1,0.9c-0.1,0.1-0.2,0.2-0.4,0.4
	s-0.3,0.3-0.4,0.5s-0.2,0.3-0.3,0.4c-0.3-0.2-0.6-0.5-1-0.9c-0.4-0.4-0.7-0.8-1.1-1.2v8.1H22v-8c-0.4,0.8-0.9,1.6-1.4,2.3
	c-0.5,0.7-1,1.3-1.4,1.8c-0.1-0.1-0.2-0.2-0.4-0.4c-0.2-0.1-0.4-0.3-0.5-0.4c-0.2-0.1-0.3-0.2-0.5-0.3c0.4-0.3,0.7-0.7,1.1-1.2
	c0.4-0.5,0.8-1.1,1.2-1.6c0.4-0.6,0.7-1.2,1-1.8c0.3-0.6,0.6-1.2,0.7-1.7h-3.5V9.2H22V7.1c-0.5,0.1-1.1,0.2-1.6,0.3
	c-0.5,0.1-1,0.1-1.4,0.2c0-0.1-0.1-0.3-0.1-0.5c-0.1-0.2-0.2-0.4-0.2-0.6c-0.1-0.2-0.2-0.4-0.2-0.5c0.5,0,1-0.1,1.7-0.2
	s1.4-0.2,2.1-0.4c0.7-0.2,1.4-0.4,2-0.6c0.6-0.2,1.1-0.4,1.5-0.6l0.9,1.4C26.4,5.8,26,6,25.4,6.2s-1.1,0.3-1.7,0.5v2.6H27v1.6h-3.2
	V11.9z M255.8,16.6h-5.9V9.9h5.9V16.6z M254.1,11.5h-2.6V15h2.6V11.5z M480.3,21.8c-1,0-1.7-0.3-2.2-0.8c-0.5-0.5-0.8-1.1-0.8-1.9
	c0-0.5,0.2-0.9,0.4-1.3c0.3-0.4,0.7-0.7,1.2-0.9c0.5-0.2,1.2-0.3,1.9-0.3c0.2,0,0.5,0,0.7,0c0.2,0,0.5,0.1,0.7,0.1v-4.9h1.7v5.4
	c0.8,0.3,1.5,0.6,2.2,1c0.7,0.4,1.4,0.8,2,1.3c-0.2,0.2-0.4,0.4-0.6,0.7c-0.2,0.3-0.4,0.6-0.5,0.8c-1-0.9-2-1.6-3.2-2.1
	c0,1-0.4,1.7-1,2.2C482.4,21.7,481.5,21.9,480.3,21.8z M482.3,18.6v-0.2c-0.5-0.1-1-0.2-1.5-0.2c-0.5,0-1,0.1-1.3,0.3
	c-0.3,0.2-0.5,0.4-0.5,0.8c0,0.3,0.1,0.6,0.4,0.8c0.2,0.2,0.6,0.3,1.1,0.3c0.6,0,1-0.1,1.4-0.4C482.1,19.6,482.3,19.2,482.3,18.6z
	 M579.2,14.6h11.4V22h-11.4V14.6z M581.1,20.3h7.6v-4.1h-7.6V20.3z M631.2,12.1c-0.3-0.3-0.5-0.5-0.8-0.7l0.9-0.7
	c0.2,0.2,0.5,0.4,0.8,0.7c0.3,0.3,0.6,0.6,0.9,1c0.3,0.3,0.5,0.6,0.7,0.8l-0.9,0.7c-0.2-0.3-0.4-0.6-0.7-0.9
	C631.7,12.7,631.5,12.4,631.2,12.1z"/>
<path class="st1" d="M652.7,41.9c-1.3,0-2.7,0-4.1,0.1c0,0.5,0,1.1,0,1.6c0,0.6,0.1,1.1,0.1,1.6c0.6,0.7,0.9,1.7,0.9,2.8
	c0,1.6-0.5,3-1.5,4.2c-1,1.2-2.4,2.1-4.2,2.7c-0.1-0.2-0.3-0.4-0.5-0.7c-0.2-0.3-0.4-0.5-0.7-0.8c1.5-0.4,2.6-1,3.4-1.6
	c0.8-0.7,1.3-1.5,1.5-2.4c-0.5,0.4-1.1,0.6-1.7,0.6c-0.9,0-1.6-0.3-2.2-0.8c-0.6-0.5-0.8-1.2-0.9-2.1c0-0.6,0.1-1.1,0.4-1.6
	c0.3-0.5,0.6-0.8,1.1-1.1s1-0.4,1.6-0.4c0.1,0,0.3,0,0.4,0s0.3,0,0.4,0.1c0-0.3-0.1-0.6-0.1-1c0-0.3,0-0.7,0-1.1
	c-1.1,0-2.2,0.1-3.2,0.2c-1,0.1-2,0.2-2.8,0.3c-0.9,0.1-1.6,0.2-2.2,0.3l-0.3-1.8c0.5-0.1,1.2-0.1,2.1-0.2c0.9-0.1,1.9-0.1,3-0.2
	c1.1-0.1,2.2-0.1,3.4-0.2v-3h1.8v3c1-0.1,2-0.1,2.9-0.1s1.8-0.1,2.6-0.1c0.8,0,1.4,0,1.9,0l-0.1,1.8C655.1,41.9,654,41,652.7,41.9z
	 M647.4,46.6c0-0.2,0-0.3-0.1-0.5c-0.3-0.4-0.7-0.5-1.2-0.5c-0.4,0-0.8,0.1-1.1,0.4c-0.3,0.3-0.4,0.6-0.4,1c0,0.4,0.1,0.8,0.4,1
	c0.3,0.3,0.6,0.4,1,0.4c0.4,0,0.7-0.1,1-0.4c0.2-0.2,0.4-0.6,0.4-1C647.4,46.9,647.4,46.7,647.4,46.6z M576.8,42.7
	c0.1,0.8,0.2,1.6,0.4,2.4c0.2,0.8,0.4,1.5,0.6,2.2c0.2,0.7,0.5,1.3,0.8,1.8c0.2,0.4,0.5,0.6,0.7,0.6c0.2,0,0.5,0,0.7-0.2
	c0.3-0.2,0.7-0.5,1-0.9c0.4-0.4,0.7-0.8,0.9-1.1c0.1,0.2,0.2,0.5,0.5,0.8c0.2,0.3,0.4,0.5,0.6,0.7c-0.3,0.5-0.7,0.9-1.1,1.4
	c-0.5,0.5-0.9,0.8-1.3,1.1c-0.6,0.3-1.1,0.5-1.7-0.5c-0.5,0.8-1,0.5-1.5-0.2c-0.4-0.6-0.7-1.4-1.1-2.2c-0.3-0.8-0.6-1.7-0.8-2.7
	c-0.2-0.9-0.4-1.9-0.5-2.8c-0.1-0.9-0.2-1.8-0.2-2.6l1.9,0C576.7,41.2,576.7,41.9,576.8,42.7z M557.2,40.3c1-0.1,1.9-0.3,3-0.5
	s2-0.3,2.9-0.5c1-0.2,1.8-0.3,2.6-0.5c0.8-0.2,1.4-0.3,1.8-0.4l0.5,1.9c-0.2,0-0.4,0-0.7,0.1c-0.3,0-0.6,0.1-1,0.2
	c-0.8,0.1-1.5,0.4-2.2,0.8s-1.3,0.9-1.8,1.5c-0.5,0.6-0.9,1.3-1.2,2c-0.3,0.8-0.4,1.5-0.4,2.4c0,1.1,0.3,1.9,0.8,2.7
	c0.5,0.7,1.2,1.3,2.1,1.7c0.9,0.4,1.9,0.7,3,0.8c-0.2,0.2-0.4,0.6-0.6,0.9c-0.2,0.4-0.3,0.7-0.4,0.9c-1.3-0.1-2.5-0.5-3.6-1.2
	c-1-0.6-1.8-1.5-2.4-2.5c-0.6-1-0.9-2.2-0.9-3.4c0-0.7,0.1-1.4,0.3-2.1c0.2-0.7,0.6-1.4,1-2.1c0.5-0.7,1.1-1.3,1.8-1.8
	c-0.8,0.1-1.7,0.3-2.5,0.4c-0.9,0.2-1.7,0.3-2.5,0.5c-0.8,0.1-1.5,0.3-2.1,0.4c-0.6,0.1-1.1,0.2-1.5,0.3l-0.4-2c0.4,0,1-0.1,1.8-0.2
	C555.4,40.6,556.3,40.4,557.2,40.3z M536.4,39c0,0.5,0,1.1-0.1,1.8c0,0.5,0,1,0,1.6c0,0.6,0,1.2,0,1.9v6.3c0,0.7,0.2,1.1,0.5,1.4
	c0.4,0.3,1,0.4,1.9,0.4c0.8,0,1.7-0.1,2.5-0.3c0.8-0.2,1.6-0.5,2.3-0.9c0.7-0.4,1.3-0.8,1.9-1.3c0,0.2,0,0.4,0.1,0.7
	c0,0.3,0.1,0.6,0.1,0.8c0,0.3,0.1,0.4,0.1,0.5c-1,0.7-2.1,1.3-3.3,1.7c-1.2,0.4-2.5,0.7-3.8,0.7c-1,0-1.8-0.1-2.4-0.3
	s-1.1-0.5-1.4-1c-0.3-0.5-0.4-1.1-0.4-2V37.7l2,0.1C536.4,38.1,536.4,38.5,536.4,39z M517.5,38.7c-0.1,0.3-0.3,0.6-0.4,0.9h2V37h1.8
	v2.6h4.1v1.5h-4.1v2.1h5.5v1.5h-12.8v-1.5h5.5v-2.1h-2.8c-0.4,0.7-0.8,1.3-1.3,1.8c-0.2-0.2-0.4-0.4-0.7-0.6
	c-0.3-0.2-0.5-0.3-0.8-0.4c0.4-0.4,0.7-0.8,1.1-1.4c0.3-0.5,0.6-1.1,0.9-1.7c0.3-0.6,0.5-1.1,0.6-1.6l1.7,0.5
	C517.8,38.1,517.7,38.3,517.5,38.7z M512.9,41c-0.2,0.2-0.4,0.3-0.5,0.5c-0.2,0.2-0.3,0.3-0.4,0.4c-0.2-0.3-0.5-0.7-0.8-1.1
	c-0.3-0.4-0.7-0.8-1.1-1.2c-0.4-0.4-0.7-0.7-1.1-0.9l1.3-1.1c0.3,0.2,0.7,0.5,1.1,0.9s0.8,0.8,1.1,1.1s0.6,0.7,0.9,1
	C513.3,40.8,513.1,40.9,512.9,41z M497.7,41.9c-0.1,0.2-0.2,0.3-0.3,0.4c-0.3-0.2-0.7-0.4-1-0.6c-0.3-0.2-0.7-0.5-1-0.7v1.2H490v-1
	c-0.9,0.7-1.7,1.3-2.6,1.7c-0.1-0.1-0.1-0.2-0.3-0.4c-0.1-0.2-0.3-0.4-0.4-0.5c-0.1-0.2-0.3-0.3-0.4-0.4c0.7-0.3,1.5-0.8,2.2-1.3
	c0.7-0.5,1.4-1.1,2-1.7c0.6-0.6,1.1-1.2,1.4-1.8l1.6,0.4c0.3,0.4,0.8,0.9,1.3,1.4c0.5,0.5,1.1,0.9,1.7,1.3c0.6,0.4,1.2,0.8,1.8,1
	c-0.1,0.1-0.2,0.2-0.3,0.4C498,41.6,497.8,41.7,497.7,41.9z M492.7,38.6c-0.3,0.3-0.6,0.7-0.9,1.1c-0.4,0.4-0.8,0.7-1.2,1.1h4.5
	C494.2,40.1,493.4,39.4,492.7,38.6z M474,40c1-0.1,2-0.2,2.9-0.3s1.6-0.2,2-0.3l0.1,1.7c-0.4,0.1-0.9,0.2-1.5,0.2
	c-0.6,0.1-1.3,0.1-2,0.2c-0.7,0.1-1.5,0.1-2.2,0.2c-0.2,0.5-0.4,0.9-0.7,1.4c-0.3,0.5-0.6,0.9-0.9,1.3c0.3-0.2,0.7-0.3,1.1-0.4
	c0.4-0.1,0.8-0.1,1.1-0.1c0.8,0,1.4,0.2,1.9,0.7c0.5,0.4,0.7,1.1,0.8,2.1c0.8-0.3,1.6-0.5,2.4-0.8c0.8-0.2,1.5-0.4,2.2-0.6l0.5,1.7
	c-0.9,0.1-1.8,0.3-2.7,0.5c-0.9,0.2-1.7,0.5-2.4,0.7v2.7h-1.8V49c-0.8,0.4-1.4,0.8-1.9,1.2c-0.5,0.4-0.7,0.8-0.7,1.2
	c0,0.5,0.3,0.9,0.9,1.1c0.6,0.2,1.5,0.3,2.6,0.3c0.4,0,0.9,0,1.4-0.1c0.5-0.1,1-0.1,1.6-0.2c0.5-0.1,1-0.2,1.4-0.3
	c0,0.1,0,0.3,0,0.5s0,0.5,0,0.7c0,0.2,0,0.4,0,0.6c0,0,0,0.1,0,0.1c-0.7,0.2-1.4,0.3-2.2,0.4c-0.8,0.1-1.5,0.1-2.2,0.1
	c-1,0-1.9-0.1-2.8-0.3c-0.8-0.2-1.5-0.5-1.9-1c-0.5-0.4-0.7-1-0.7-1.7c0-0.6,0.2-1.2,0.6-2.6c0.4,0.4,0.9-0.1,1.6-0.5
	c0.7-0.4,1.4-0.8,2.2-1.2v-0.2c0-0.6-0.1-1-0.4-1.3c-0.2-0.2-0.6-0.4-0.9-0.4c-0.7,0-1.4,0.1-2,0.3s-1.3,0.7-1.9,1.3
	c-0.2,0.3-0.5,0.5-0.9,0.9c-0.3,0.3-0.6,0.6-0.9,0.8l-1.3-1.3c0.9-0.7,1.8-1.5,2.7-2.5c0.8-1,1.5-2,2.1-3.1c-0.8,0-1.6,0.1-2.2,0.1
	c-0.7,0-1.2,0-1.5,0l-0.1-1.8c0.4,0,1.1,0.1,1.9,0.1c0.8,0,1.7,0,2.7-0.1c0.2-0.5,0.3-0.9,0.4-1.4c0.1-0.5,0.2-0.9,0.2-1.3l1.8,0.1
	C474.5,38.4,474.3,39.2,474,40z M455.2,37.6c0.1-0.4,0.1-0.6,0.1-0.7h1.9c0,0.1,0,0.3-0.1,0.7c-0.1,0.4-0.1,0.8-0.2,1.3h5v1.6h-5.2
	c-0.1,0.3-0.1,0.6-0.2,0.9c-0.1,0.3-0.1,0.5-0.1,0.7h4.2v9.9h-8.3v-9.9h2.2c0-0.2,0.1-0.4,0.1-0.7c0.1-0.3,0.1-0.6,0.2-0.9h-5.4
	v-1.6h5.7C455.1,38.4,455.2,38,455.2,37.6z M454,50.6h4.8v-1.5H454V50.6z M454,47.8h4.8v-1.5H454V47.8z M454,43.6v1.5h4.8v-1.5H454z
	 M450.9,53.2h11v1.4h-12.7V42.8h1.7V53.2z M447.6,55.2h-1.7V44.1c-0.6,1-1.1,1.8-1.7,2.5c-0.1-0.2-0.3-0.4-0.6-0.6
	c-0.3-0.2-0.5-0.4-0.7-0.5c0.4-0.5,0.9-1.1,1.3-1.8c0.4-0.7,0.9-1.5,1.3-2.3c0.4-0.8,0.7-1.6,1-3.3c0.3,0.1,0.5-0.5,0.6-1.1l1.7,0.4
	c-0.3,1-0.7,2.2-1.3,3.4V55.2z M426,40.9V55h-1.7V44.2c-0.3,0.5-0.6,0.9-0.8,1.3c-0.3,0.4-0.6,0.8-0.8,1.1c-0.1-0.2-0.3-0.4-0.6-0.6
	c-0.3-0.2-0.5-0.4-0.7-0.5c0.4-0.5,0.9-1.1,1.3-1.8c0.4-0.7,0.9-1.5,1.3-2.3c0.4-0.8,0.7-1.6,1-2.4c0.3-0.8,0.5-1.4,0.6-2l1.7,0.4
	c-0.1,0.5-0.3,1.1-0.5,1.7C426.5,39.7,426.3,40.3,426,40.9z M407.5,42.4c-0.5,1.7-1,3.2-1.8,4.7c-0.7,1.5-1.6,2.8-2.5,4
	c-0.1-0.1-0.2-0.2-0.4-0.3c-0.2-0.1-0.4-0.2-0.6-0.4c-0.2-0.1-0.4-0.2-0.5-0.3c0.8-0.9,1.6-2.1,2.3-3.4s1.2-2.7,1.7-4.1
	c-0.7,0.1-1.4,0.2-2.1,0.3c-0.6,0.1-1.2,0.1-1.5,0.2l-0.3-1.7c0.5,0,1.1-0.1,1.9-0.1c0.8-0.1,1.6-0.2,2.4-0.3
	c0.1-0.6,0.3-1.3,0.4-1.9c0.1-0.6,0.1-1.2,0.1-1.8l1.7,0.2c-0.1,0.5-0.1,1.1-0.2,1.6s-0.2,1.1-0.3,1.6c0.5-0.1,1-0.2,1.5-0.3
	c0.5-0.1,0.9-0.2,1.3-0.3l0.2,1.7c-0.4,0.1-0.9,0.2-1.5,0.3C408.8,42.2,408.2,42.3,407.5,42.4z M393.8,44.2c0.6,0.1,1.1,0.2,1.6,0.3
	l-0.6,1.8c-0.6-0.2-1.3-0.4-2.1-0.5c-0.8-0.1-1.6-0.2-2.4-0.2c-0.8,0-1.5,0-2.1,0l0.2-1.8c0.5,0,1,0,1.6,0s1.3,0.1,1.9,0.1
	C392.6,44,393.2,44.1,393.8,44.2z M386,42.8c-0.3,1.1-0.6,2.1-1,3.2c-0.4,1.1-0.7,2.2-1.1,3.2c-0.4,1.1-0.8,2-1.1,2.9
	c-0.4,0.9-0.7,1.6-1.1,2.2c-0.2-0.1-0.5-0.3-0.9-0.4c-0.4-0.2-0.7-0.3-0.9-0.3c0.3-0.5,0.7-1.2,1-2c0.4-0.8,0.7-1.7,1.1-2.6
	c0.4-1,0.7-2,1.1-3c0.4-1,0.7-2.1,0.9-3.1c-0.8,0.1-1.5,0.1-2.3,0.2s-1.3,0-1.8,0l-0.1-1.9c0.6,0.1,1.3,0.1,2.1,0.1s1.7-0.1,2.6-0.2
	c0.2-0.7,0.3-1.4,0.4-2c0.1-0.6,0.2-1.2,0.2-1.7l1.9,0.3c-0.1,0.4-0.1,0.9-0.3,1.4c-0.1,0.5-0.3,1.1-0.4,1.7
	c0.6-0.1,1.2-0.2,1.7-0.3c0.5-0.1,1-0.3,1.4-0.4l0.3,1.7c-0.4,0.1-1,0.3-1.7,0.4C387.5,42.5,386.8,42.7,386,42.8z M369.6,38.6
	c0.8-0.1,1.6-0.3,2.4-0.5c0.8-0.2,1.4-0.5,2-0.8l1.2,1.5c-0.5,0.2-1.1,0.4-1.8,0.6c-0.7,0.2-1.4,0.4-2.1,0.5c-0.7,0.1-1.4,0.2-2,0.3
	v3.2h6.2v1.7h-2.3v10.1h-1.8V45.1h-2.1c0,2.3-0.3,4.3-0.8,5.9s-1.3,3.1-2.4,4.2c-0.1-0.1-0.3-0.2-0.5-0.3c-0.2-0.1-0.4-0.3-0.6-0.4
	c-0.2-0.1-0.4-0.2-0.5-0.2c1.1-1,1.9-2.3,2.3-3.8c0.4-1.6,0.6-3.5,0.6-5.8v-5.9C368.1,38.8,368.8,38.7,369.6,38.6z M363,46.6h3.3
	v1.6H363v0.2l0.1-0.1c0.2,0.3,0.5,0.6,0.9,0.9c0.4,0.3,0.8,0.7,1.2,1c0.4,0.3,0.8,0.6,1.2,0.8c-0.1,0.1-0.2,0.2-0.3,0.3
	c-0.2,0.2-0.3,0.3-0.4,0.5s-0.2,0.3-0.3,0.4c-0.3-0.2-0.7-0.5-1.1-0.9c-0.4-0.4-0.8-0.8-1.1-1.1v4.9h-1.7v-5.3c-0.5,0.7-1,1.3-1.5,2
	c-0.6,0.6-1.1,1.2-1.6,1.6c-0.1-0.1-0.2-0.2-0.4-0.3c-0.2-1-0.3-0.3-0.5-0.4s-0.3-0.2-0.4-0.2c0.4-0.3,0.8-0.7,1.3-1.2
	c0.5-0.5,0.9-1,1.4-1.6c0.4-0.6,0.8-1.1,1.1-1.5h-2.7v-1.6h3.4v-1.7h-3.7v-1.5h2.4c-0.1-0.4-0.3-0.8-0.4-1.2c-0.2-0.4-0.3-0.8-0.4-1
	l1.4-0.5c0.2,0.3,0.4,0.8,0.6,1.3c0.2,0.5,0.4,1,0.5,1.4h1.2c0.1-0.3,0.3-0.6,0.4-1c0.1-0.4,0.3-0.7,0.4-1s0.2-0.6,0.2-0.8l1.5,0.4
	c-0.1,0.3-0.2,0.7-0.4,1.1s-0.3,0.8-0.5,1.2h2.4v1.5H363V46.6z M358,39h3.3v-2h1.8v2h3.3v1.5H358V39z M352.1,53.5
	c-1.4,0.2-2.8,0.3-4,0.2c-1.2-0.1-2.3-0.4-3.2-0.8c-0.9-0.4-1.6-0.9-2-1.5l1-1.3c0.4,0.5,1,0.9,1.9,1.2c0.8,0.3,1.8,0.5,2.9,0.5
	s2.3,0,3.7-0.3c-0.1,0.3-0.2,0.6-0.2,1S352.1,53.3,352.1,53.5z M349.5,45.9c-0.8-0.1-1.6-0.2-2.4-0.2c-0.8,0-1.5,0-2.1,0l0.2-1.8
	c0.5,0,1,0,1.6,0c0.6,0,1.3,0.1,1.9,0.1c0.7,0.1,1.3,0.1,1.9,0.2c0.6,0.1,1.1,0.2,1.6,0.3l-0.6,1.8C351,46.2,350.3,46,349.5,45.9z
	 M342.8,42.8c-0.3,1.1-0.6,2.1-1,3.2c-0.4,1.1-0.7,2.2-1.1,3.2c-0.4,1.1-0.8,2-1.1,2.9c-0.4,0.9-0.7,1.6-1.1,2.2
	c-0.2-0.1-0.5-0.3-0.9-0.4c-0.4-0.2-0.7-0.3-0.9-0.3c0.3-0.5,0.7-1.2,1-2c0.4-0.8,0.7-1.7,1.1-2.6c0.4-1,0.7-2,1.1-3
	c0.4-1,0.7-2.1,1-3.1c-0.8,0.1-1.5,0.1-2.3,0.2s-1.3,0-1.8,0l-0.1-1.9c0.6,0.1,1.3,0.1,2.1,0.1c0.8,0,1.7-0.1,2.6-0.2
	c0.2-0.7,0.3-1.4,0.4-2c0.1-0.6,0.2-1.2,0.2-1.7l1.9,0.3c-0.1,0.4-0.1,0.9-0.3,1.4s-0.3,1.1-0.4,1.7c0.6-0.1,1.2-0.2,1.7-0.3
	c0.5-0.1,1-0.3,1.4-0.4l0.3,1.7c-0.4,0.1-1,0.3-1.7,0.4C344.3,42.5,343.6,42.7,342.8,42.8z M325.7,40.9c-0.3-0.1-0.7-0.2-1.1-0.3
	c-0.5-0.2-1-0.3-1.5-0.5c-0.5-0.2-1-0.4-1.5-0.6c-0.5-0.2-0.8-0.4-1-0.5l0.8-1.5c0.2,0.1,0.5,0.3,0.9,0.4c0.4,0.2,0.9,0.4,1.4,0.5
	c0.5,0.2,1,0.4,1.5-0.4c0.5,1.1,0.9,1.2,1.2,1.2L325.7,40.9z M282.9,52.9c0.1,0.1,0.3,0.1,0.6,0.1h2.5c0.4,0,0.7-0.1,0.9-0.2
	c0.2-0.1,0.4-0.4,0.5-0.7c0.1-0.3,0.2-0.9,0.2-1.5c0.2,0.1,0.5,0.2,0.9,0.4c0.4,0.1,0.7,0.2,0.9,0.3c-0.1,1-0.3,1.8-0.5,2.3
	c-0.2,0.5-0.5,0.8-0.9,1c-0.4,0.2-0.9,0.2-1.5,0.2h-3.6c-0.7,0-1.3-0.1-1.6-0.3c-0.3-0.2-0.5-0.6-0.5-1.2v-4.6h-1.7
	c-0.1,1.6-0.8,3-2.1,4.2c-1.3,1.2-3.1,2-5.5,2.3c0-0.1-0.1-0.3-0.2-0.5c-0.1-0.2-0.2-0.4-0.3-0.6c-0.1-0.2-0.2-0.4-0.3-0.5
	c1.2-0.1,2.3-0.4,3.3-0.8c0.9-0.4,1.7-1,2.3-1.7c0.6-0.7,0.9-1.5,1-2.4h-3V37.6h11.5v11.1h-3v3.7C282.7,52.7,282.8,52.8,282.9,52.9z
	 M283.8,39.2h-7.7v1.8h7.7V39.2z M283.8,42.3h-7.7V44h7.7V42.3z M283.8,47.1v-1.7h-7.7v1.7H283.8z M259.6,41.6
	c-0.7,0.1-1.5,0.1-2.2,0.2c-0.2,0.5-0.4,0.9-0.7,1.4s-0.6,0.9-0.9,1.3c0.3-0.2,0.7-0.3,1.1-0.4c0.4-0.1,0.8-0.1,1.1-0.1
	c0.8,0,1.4,0.2,1.9,0.7c0.5,0.4,0.7,1.1,0.8,2.1c0.8-0.3,1.6-0.5,2.4-0.8c0.8-0.2,1.5-0.4,2.2-0.6l0.5,1.7c-0.9,0.1-1.8,0.3-2.7,0.5
	s-1.7,0.5-2.4,0.7v2.7h-1.8V49c-0.8,0.4-1.4,0.8-1.9,1.2s-0.7,0.8-0.7,1.2c0,0.5,0.3,0.9,0.9,1.1c0.6,0.2,1.5,0.3,2.6,0.3
	c0.4,0,0.9,0,1.4-0.1c0.5-0.1,1-0.1,1.6-0.2c0.5-0.1,1-0.2,1.4-0.3c0,0.1,0,0.3,0,0.5s0,0.5,0,0.7s0,0.4,0,0.6c0,0,0,0.1,0,0.1
	c-0.7,0.2-1.4,0.3-2.2,0.4c-0.8,0.1-1.5,0.1-2.2,0.1c-1,0-1.9-0.1-2.8-0.3c-0.8-0.2-1.5-0.5-1.9-1c-0.5-0.4-0.7-1-0.7-1.7
	c0-0.6,0.2-1.2,0.6-2.6c0.4,0.4,0.9-0.1,1.6-0.5c0.7-0.4,1.4-0.8,2.2-1.2v-0.2c0-0.6-0.1-1-0.4-1.3c-0.2-0.2-0.6-0.4-1-0.4
	c-0.7,0-1.4,0.1-2,0.3c-0.7,0.3-1.3,0.7-1.9,1.3c-0.2,0.3-0.5,0.5-0.9,0.9c-0.3,0.3-0.6,0.6-0.9,0.8l-1.3-1.3
	c0.9-0.7,1.8-1.5,2.7-2.5c0.8-1,1.5-2,2.1-3.1c-0.8,0-1.6,0.1-2.2,0.1s-1.2,0-1.5,0l-0.1-1.8c0.4,0,1.1,0.1,1.9,0.1
	c0.8,0,1.7,0,2.7-0.1c0.2-0.5,0.3-0.9,0.4-1.4s0.2-0.9,0.2-1.3l1.8,0.1c0,0.8-0.2,1.6-0.5,2.4c1-0.1,2-0.2,2.9-0.3
	c0.9-0.1,1.6-0.2,2-0.3l0.1,1.7c-0.4,0.1-0.9,0.2-1.5,0.2S260.3,41.5,259.6,41.6z M228.1,45.6h4.5c-0.1-0.3-0.3-0.7-0.6-1.1
	c-0.2-0.4-0.5-0.9-0.8-1.3c-0.3-0.4-0.5-0.8-0.7-1l1.6-0.8c0.3,0.3,0.5,0.7,0.8,1.1c0.3,0.4,0.6,0.9,0.8,1.3
	c0.3,0.4,0.5,0.8,0.6,1.1l-1.4,0.8h3V41H229v-1.7h6.9V37h1.8v2.3h6.9V41h-6.9v4.6h2.7c-0.2-0.1-0.4-0.2-0.7-0.4
	c-0.3-0.1-0.5-0.2-0.6-0.3c0.2-0.3,0.5-0.7,0.8-1.1s0.6-0.9,0.8-1.4c0.3-0.5,0.5-0.8,0.6-1.1l1.7,0.7c-0.2,0.3-0.4,0.7-0.6,1.2
	s-0.5,0.9-0.8,1.3s-0.5,0.8-0.8,1.2h4.7v1.7h-6.8c0.6,0.7,1.4,1.5,2.2,2.2c0.8,0.7,1.7,1.4,2.7,2c0.9,0.6,1.8,1.1,2.7,1.5
	c-0.1,0.1-0.3,0.2-0.4,0.4c-0.2,0.2-0.3,0.4-0.5,0.6c-0.2,0.2-0.3,0.4-0.3,0.5c-0.8-0.4-1.7-0.9-2.6-1.6c-0.9-0.6-1.7-1.3-2.5-2.1
	c-0.8-0.8-1.5-1.6-2.2-2.4v6.8h-1.8v-6.7c-1,1.2-2.1,2.3-3.4,3.4c-1.3,1-2.6,2-4.1,2.7c-0.1-0.1-0.2-0.3-0.3-0.5
	c-0.2-0.2-0.3-0.4-0.5-0.6c-0.2-0.2-0.3-0.3-0.4-0.4c0.9-0.4,1.8-0.9,2.7-1.6c0.9-0.6,1.8-1.3,2.7-2.1c0.9-0.8,1.6-1.5,2.2-2.2h-6.8
	V45.6z M218.9,48.4c0.9,0.8,1.8,1.6,2.8,2.3c1,0.7,2,1.3,3,1.8c-0.1,0.1-0.3,0.2-0.4,0.4c-0.2,0.2-0.4,0.4-0.5,0.6
	c-0.2,0.2-0.3,0.4-0.4,0.5c-0.8-0.5-1.7-1-2.6-1.7c-0.9-0.6-1.7-1.4-2.5-2.2c-0.8-0.8-1.5-1.6-2.2-2.5v7.4h-1.8v-7.4
	c-1,1.2-2.1,2.4-3.4,3.5c-1.3,1.1-2.6,2-4.1,2.8c-0.1-0.1-0.2-0.3-0.3-0.5c-0.2-0.2-0.3-0.4-0.5-0.6s-0.3-0.3-0.4-0.4
	c0.7-0.3,1.5-0.8,2.2-1.2c0.8-0.5,1.5-1,2.2-1.6c0.7-0.6,1.4-1.2,2-1.8s1.1-1.3,1.6-1.9h-7.2v-1.7h7.7v-2.9h-6.5v-1.7h6.5V37h1.8
	v2.8h6.4v1.7h-6.4v2.9h7.7V46h-7.2C217.2,46.8,218,47.6,218.9,48.4z M189.2,53.4c-0.4-0.5-0.9-1-1.3-1.4c-0.5-0.5-0.9-0.8-1.3-1.1
	l1.2-1.1c0.4,0.3,0.9,0.7,1.4,1.1s1,0.9,1.4,1.4c0.5,0.5,0.8,0.9,1.1,1.2l-1.4,1.3C190,54.3,189.6,53.9,189.2,53.4z M179.7,42.6
	c-0.7,0.1-1.4,0.1-2.2,0.2c-0.7,0-1.5,0.1-2.1,0.1c-0.7,0-1.3,0-1.8,0l-0.1-1.9c0.5,0.1,1.1,0.1,1.8,0.1c0.7,0,1.4,0,2.2,0
	c0.8,0,1.5-0.1,2.2-0.2c0.7-0.1,1.3-0.2,1.8-0.3l-0.1,1.9C181,42.4,180.4,42.5,179.7,42.6z M161.5,48.7c-0.1,0.9-0.1,1.6-0.2,2.2
	c-0.1,1-0.3,1.8-0.6,2.3c-0.3,0.6-0.7,1-1.2,1.2c-0.5,0.2-1.1,0.3-1.9,0.3h-1.5c0-0.3-0.1-0.6-0.2-0.9s-0.2-0.7-0.3-0.9h1.9
	c0.5,0,0.9-0.2,1.2-0.5c0.3-0.3,0.5-0.9,0.7-1.8c0.1-0.4,0.2-1.1,0.2-1.9s0.1-1.9,0.2-3.1c0-1.2,0.1-2.4,0.1-3.6v-1.7H157
	c0,2.2-0.1,4.1-0.3,5.7c-0.2,1.6-0.5,2.9-1,4.1s-1.1,2.1-1.9,2.9s-1.8,1.5-2.9,2.1c-0.1-0.1-0.2-0.3-0.4-0.5
	c-0.2-0.2-0.3-0.4-0.5-0.6c-0.2-0.2-0.3-0.3-0.4-0.3c1.1-0.5,2-1.1,2.7-1.8c0.7-0.7,1.3-1.6,1.7-2.6c0.4-1,0.7-2.3,0.8-3.7
	c0.2-1.5,0.3-3.2,0.3-5.2h-3.7v-1.8h10.3V42c0,1.2,0,2.4-0.1,3.6S161.6,47.8,161.5,48.7z M135.7,49.7c0.7,0.8,1.6,1.6,2.5,1.3
	c0.9,1.6,2,2.1,3,2.5c-0.1,0.1-0.2,0.3-0.4,0.5c-0.2,0.2-0.3,0.4-0.5,0.7c-0.1,0.2-0.3,0.4-0.3,0.6c-1.2-0.5-2.3-1.2-3.3-2
	c-1.1-0.8-2-1.7-2.8-2.8c-0.8-1-1.4-2.2-1.9-3.4c-0.4,1.3-1.1,2.4-1.9,3.4c-0.8,1-1.8,2-2.8,2.8c-1.1,0.8-2.2,1.5-3.3,2
	c-0.1-0.1-0.2-0.3-0.3-0.6c-0.1-0.2-0.3-0.4-0.5-0.7c-0.2-0.2-0.3-0.4-0.4-0.5c1.1-0.4,2.1-0.9,3.1-1.6c1-0.7,1.8-1.4,2.5-2.2
	c0.7-0.8,1.3-1.7,1.8-2.7c0.4-1,0.7-2,0.8-3h-7.7v-1.8h7.8v-5.2h1.9v5.2h7.8V44H133c0.1,1,0.4,2,0.9,2.9
	C134.3,47.9,134.9,48.8,135.7,49.7z M112.9,39.8c0.9-0.1,1.6-0.2,2.1-0.3l0.1,1.7c-0.4,0.1-0.9,0.2-1.5,0.2c-0.6,0.1-1.3,0.1-2,0.2
	c-0.7,0.1-1.5,0.1-2.2,0.2c-0.2,0.5-0.4,0.9-0.7,1.4c-0.3,0.5-0.6,0.9-0.9,1.3c0.3-0.2,0.7-0.3,1.1-0.4c0.4-0.1,0.8-0.1,1.1-0.1
	c0.8,0,1.4,0.2,1.9,0.7s0.7,1.1,0.8,2.1c0.8-0.3,1.6-0.5,2.4-0.8c0.8-0.2,1.5-0.4,2.2-0.6l0.5,1.7c-0.9,0.1-1.8,0.3-2.7,0.5
	c-0.9,0.2-1.7,0.5-2.4,0.7v2.7h-1.8V49c-0.8,0.4-1.4,0.8-1.9,1.2s-0.7,0.8-0.7,1.2c0,0.5,0.3,0.9,0.9,1.1c0.6,0.2,1.5,0.3,2.6,0.3
	c0.4,0,0.9,0,1.4-0.1c0.5-0.1,1-0.1,1.6-0.2c0.5-0.1,1-0.2,1.4-0.3c0,0.1,0,0.3,0,0.5s0,0.5,0,0.7s0,0.4,0,0.6c0,0,0,0.1,0,0.1
	c-0.7,0.2-1.4,0.3-2.2,0.4c-0.8,0.1-1.5,0.1-2.2,0.1c-1,0-1.9-0.1-2.8-0.3c-0.8-0.2-1.5-0.5-1.9-1s-0.7-1-0.7-1.7
	c0-0.6,0.2-1.2,0.6-2.6c0.4,0.4,0.9-0.1,1.6-0.5c0.7-0.4,1.4-0.8,2.2-1.2v-0.2c0-0.6-0.1-1-0.4-1.3c-0.2-0.2-0.6-0.4-1-0.4
	c-0.7,0-1.4,0.1-2,0.3c-0.7,0.3-1.3,0.7-1.9,1.3c-0.2,0.3-0.5,0.5-0.9,0.9s-0.6,0.6-0.9,0.8l-1.3-1.3c0.9-0.7,1.8-1.5,2.7-2.5
	s1.5-2,2.1-3.1c-0.8,0-1.6,0.1-2.2,0.1c-0.7,0-1.2,0-1.5,0l-0.1-1.8c0.4,0,1.1,0.1,1.9,0.1s1.7,0,2.7-0.1c0.2-0.5,0.3-0.9,0.4-1.4
	s0.2-0.9,0.2-1.3l1.8,0.1c0,0.8-0.2,1.6-0.5,2.4C111,39.9,112,39.9,112.9,39.8z M97.1,54.3c-0.1,0.2-0.2,0.4-0.3,0.6
	c-1.2-0.6-2.3-1.3-3.3-2.2c-1-0.9-1.9-1.9-2.7-3c-0.8-1.1-1.4-2.3-1.8-3.6c-0.4,1.3-0.9,2.5-1.7,3.6c-0.8,1.1-1.7,2.1-2.8,2.9
	c-1.1,0.9-2.2,1.6-3.5,2.2c-0.1-0.2-0.3-0.5-0.5-0.8c-0.2-0.3-0.4-0.6-0.6-0.8c1.6-0.7,3-1.6,4.2-2.7c1.2-1.1,2.1-2.3,2.8-3.7
	c0.7-1.4,1-2.9,1-4.6v-5h1.9v4.5c0,1.3,0.2,2.5,0.7,3.7c0.4,1.2,1.1,2.2,1.8,3.2c0.8,1,1.7,1.9,2.6,2.6c1,0.7,2,1.3,3.1,1.8
	c-0.1,0.1-0.2,0.3-0.4,0.5C97.4,53.9,97.2,54.1,97.1,54.3z M57.4,54.7c-0.2,0.4-0.5,0.6-0.9,0.6c-0.4,0-0.7-0.2-1.1-0.5
	c-0.4-0.4-0.8-0.9-1.1-1.4c-0.3-0.5-0.7-1.1-0.9-1.8c-1.4,1.6-3.1,2.8-5.1,3.8c-0.1-0.2-0.2-0.4-0.4-0.7c-0.2-0.3-0.4-0.5-0.5-0.6
	c1.1-0.5,2.2-1.1,3.1-1.8c0.9-0.7,1.7-1.5,2.4-2.4c-0.5-1.9-0.9-4.4-1.1-7.6h-5.9v-1.5h5.9c0-1.2-0.1-2.4-0.1-3.8h1.7
	c0,0.7,0,1.3,0,1.9c0,0.6,0,1.2,0,1.8h4.6v1.5h-4.5c0.1,2.2,0.3,4.1,0.7,5.7c0.3-0.6,0.6-1.2,0.8-1.8c0.2-0.6,0.5-1.3,0.6-2l1.6,0.5
	c-0.6,2.1-1.4,3.9-2.5,5.4c0.5,1.3,1,2.3,1.7,3.1c0.2-0.4,0.3-0.8,0.4-1.2c0.1-0.4,0.2-0.8,0.3-1.2c0.1,0.1,0.2,0.1,0.4,0.2
	c0.2,0.1,0.4,0.2,0.6,0.3c0.2,0.1,0.4,0.2,0.5,0.2c-0.1,0.5-0.3,1-0.5,1.7C57.8,53.7,57.6,54.2,57.4,54.7z M56.4,40.2
	c-0.1,0.1-0.2,0.2-0.3,0.3c-0.1-0.2-0.3-0.5-0.6-0.8c-0.2-0.3-0.5-0.6-0.7-0.8c-0.3-0.3-0.5-0.5-0.7-0.7l1.1-0.9
	c0.2,0.2,0.5,0.4,0.7,0.7c0.3,0.3,0.5,0.5,0.8,0.8c0.2,0.3,0.4,0.5,0.6,0.7c-0.1,0.1-0.2,0.2-0.4,0.3C56.7,40,56.5,40.1,56.4,40.2z
	 M39.6,43.9v-1.6h2.3v-4.5h1.7v4.5h2v1.6h-2v5.7c0.4-0.1,0.8-0.3,1.2-0.4c0.4-0.1,0.7-0.3,0.9-0.4v1.7c-0.4,0.1-0.8,0.3-1.3,0.5
	c-0.5,0.2-1,0.4-1.6,0.6c-0.6,0.2-1.1,0.4-1.6,0.5s-1,0.3-1.4,0.4l-0.5-1.8c0.3-0.1,0.7-0.2,1.1-0.3c0.4-0.1,0.9-0.2,1.4-0.4v-6.2
	H39.6z M35,54.5c-0.4,0.2-0.9,0.2-1.4,0.2h-5.6c-0.7,0-1.2-0.1-1.5-0.3c-0.3-0.2-0.4-0.6-0.4-1.2v-7.1l-2.1,0.8l-0.6-1.6l2.7-1v-5.8
	h1.8v5.2l1.9-0.7v-5.9h1.7v5.3l3.1-1.2l0.8,0.4v6.7c0,0.5-0.1,0.8-0.4,1.1c-0.2,0.3-0.6,0.5-1.2,0.6c-0.2,0-0.4,0.1-0.7,0.1
	c-0.3,0-0.5,0.1-0.7,0.1c0-0.3-0.1-0.7-0.2-1c-0.1-0.3-0.2-0.6-0.3-0.7h1.1c0.3,0,0.4,0,0.5-0.1c0.1-0.1,0.2-0.3,0.2-0.5v-4.5
	l-2.2,0.8v7.1h-1.7v-6.4l-1.9,0.7v7c0,0.2,0.1,0.4,0.2,0.5c0.1,0.1,0.3,0.1,0.6,0.1H33c0.4,0,0.7-0.1,0.9-0.2s0.4-0.4,0.5-0.7
	c0.1-0.4,0.2-0.9,0.3-1.7c0.2,0.1,0.5,0.2,0.8,0.3s0.7,0.2,0.9,0.3c-0.1,1.1-0.3,1.9-0.6,2.4C35.7,54,35.4,54.3,35,54.5z M20.5,50.3
	V44h-2.4v-1.6h2.4v-4.7h1.8v4.7h2.3V44h-2.3v5.7c0.5-0.2,1-0.4,1.4-0.6c0.4-0.2,0.8-0.3,1.1-0.5v1.7c-0.3,0.2-0.8,0.4-1.4,0.6
	s-1.1,0.5-1.8,0.7c-0.6,0.2-1.2,0.5-1.8,0.7c-0.6,0.2-1.1,0.4-1.5,0.5L17.9,51c0.3-0.1,0.7-0.2,1.2-0.3C19.5,50.6,20,50.5,20.5,50.3
	z M46.1,43.8h5v4.8h-5V43.8z M47.5,47.2h2.1v-2.1h-2.1V47.2z M48.1,50.3c0.6-0.2,1.2-0.3,1.8-0.5c0.6-0.2,1-0.3,1.4-0.4v1.6
	c-0.3,0.1-0.7,0.3-1.2,0.4c-0.5,0.2-1,0.3-1.6,0.5c-0.6,0.2-1.2,0.3-1.7,0.5c-0.6,0.2-1.1,0.3-1.6,0.4L44.7,51
	c0.5-0.1,1-0.2,1.6-0.3C46.9,50.6,47.5,50.4,48.1,50.3z M68.8,44.2c0.5,0,1,0.2,1.4,0.6c0.4,0.4,0.6,0.8,0.6,1.4
	c0,0.5-0.2,1-0.6,1.4c-0.4,0.4-0.8,0.6-1.4,0.6c-0.5,0-1-0.2-1.4-0.6s-0.6-0.8-0.6-1.4c0-0.5,0.2-1,0.6-1.4S68.2,44.2,68.8,44.2z
	 M147,43.7v-5.8h1.9v5.4c0.8-0.2,1.6-0.4,2.4-0.6c0.8-0.2,1.4-0.4,1.9-0.5l0.3,1.8c-0.5,0.1-1.1,0.2-2,0.4s-1.7,0.4-2.6,0.6v3.7
	c0,0.2,0,0.3,0.1,0.3s0.2,0.1,0.5,0.1h0.7c0.3,0,0.5-0.1,0.7-0.2c0.2-0.1,0.3-0.3,0.4-0.7c0.1-0.3,0.2-0.9,0.2-1.6
	c0.2,0.1,0.5,0.2,0.8,0.3c0.3,0.1,0.6,0.2,0.9,0.3c-0.1,1-0.3,1.8-0.5,2.3c-0.2,0.5-0.6,0.9-0.9,1.1s-0.9,0.3-1.4,0.3h-1.5
	c-0.7,0-1.1-0.1-1.4-0.3c-0.3-0.2-0.4-0.6-0.4-1.1v-4.1c-0.5,0.1-1.1,0.3-1.5,0.4c-0.5,0.1-0.9,0.2-1.2,0.3l-0.4-1.8
	c0.4-0.1,0.8-0.2,1.4-0.3C145.8,43.9,146.3,43.8,147,43.7z M168.2,43.5c0.1-0.9,0.1-1.8,0.2-2.6c0.1-0.8,0.2-1.5,0.3-2l1.8,0.4
	c-0.1,0.5-0.2,1.1-0.3,1.8c-0.1,0.8-0.2,1.6-0.2,2.5c-0.1,0.9-0.1,1.8-0.1,2.8c0,1,0,1.9,0,2.8c0,0.9,0.1,1.7,0.1,2.4
	s0.1,1.3,0.2,1.8l-1.8,0.3c-0.1-0.5-0.2-1.2-0.2-1.9c-0.1-0.8-0.1-1.6-0.1-2.5c0-0.9,0-1.9,0-2.8C168.1,45.4,168.1,44.5,168.2,43.5z
	 M174.6,48.4c-0.1,0.3-0.1,0.6-0.1,0.8c0,0.2,0.1,0.5,0.2,0.7c0.2,0.5,0.9,0.7,1.9,0.8c0.6,0,1.3,0,2,0c0.7-0.1,1.5-0.2,2.2-0.3
	c0.7-0.1,1.3-0.3,1.8-0.4c0,0.1-0.1,0.3-0.1,0.6c0,0.3,0,0.5,0,0.8c0,0.3,0,0.5,0,0.6c-0.7,0.2-1.4,0.3-2.1,0.4
	c-0.7,0.1-1.5,0.2-2.2,0.2s-1.3,0-1.9,0c-0.9-0.1-1.6-0.2-2.2-0.5c-0.6-0.3-0.9-0.8-1.1-1.3c-0.3-0.7-0.2-1.6,0.1-2.6L174.6,48.4z
	 M294.9,46.5v-4.1h-2.5v-1.7h2.5V37h1.7v3.7h2v1.7h-2v3.5c0.4-0.2,0.8-0.3,1.2-0.4s0.6-0.3,0.9-0.3v1.7c-0.2,0.1-0.4,0.2-0.8,0.4
	c-0.4,0.2-0.8,0.3-1.2,0.5v5.7c0,0.6-0.2,1.1-0.5,1.4c-0.3,0.3-0.9,0.4-1.6,0.4h-1.4c0-0.2,0-0.4-0.1-0.6s-0.1-0.5-0.1-0.7
	c-0.1-0.2-0.1-0.4-0.2-0.5h1.4c0.3,0,0.5,0,0.6-0.1c0.1-0.1,0.2-0.3,0.2-0.5v-4.3c-0.5,0.2-1,0.4-1.4,0.5c-0.4,0.1-0.7,0.2-0.9,0.3
	l-0.5-1.8c0.3-0.1,0.7-0.2,1.2-0.3S294.4,46.7,294.9,46.5z M299.2,48.5c0.2-1.2,0.3-2.5,0.3-4.2v-6.7H310v5h-3.6v2.1h4.4v1.6h-4.4
	v2.2h3.2v6.2h-8v-6.2h3v-2.2h-3.4c-0.1,2-0.5,3.7-1,5.1c-0.5,1.4-1.2,2.6-1.9,3.5c-0.1-0.1-0.3-0.2-0.5-0.3
	c-0.2-0.1-0.4-0.2-0.6-0.4s-0.4-0.2-0.5-0.2c0.6-0.7,1.1-1.5,1.5-2.4C298.7,50.7,299,49.7,299.2,48.5z M303.3,50.1v3.2h4.6v-3.2
	H303.3z M308.2,41.1v-1.9h-6.9v1.9H308.2z M304.6,44.8v-2.1h-3.3v1.7c0,0.1,0,0.1,0,0.2c0,0.1,0,0.1,0,0.2H304.6z M319.1,50
	c0.6-0.7,1.2-1.4,1.8-2.1c0.6-0.7,1.2-1.4,1.7-2.1s0.9-1.2,1.3-1.6c-0.4,0.1-0.9,0.2-1.5,0.3c-0.6,0.1-1.2,0.2-1.8,0.2
	c-0.6,0.1-1.1,0.1-1.6,0.2c-0.5,0.1-0.9,0.1-1.1,0.1l-0.3-1.7c0.3,0,0.7,0,1.2,0c0.5,0,1.1-0.1,1.7-0.2c0.6-0.1,1.3-0.1,1.9-0.2
	c0.6-0.1,1.3-0.2,1.8-0.3c0.6-0.1,1-0.2,1.4-0.3l1.3,1.1c-0.1,0.1-0.4,0.4-0.7,0.8c-0.3,0.4-0.7,0.8-1.2,1.4
	c-0.4,0.5-0.9,1.1-1.4,1.6c0.2-0.1,0.4-0.1,0.6,0c0.3,0.1,0.5,0.1,0.6,0.2c0.3,0.2,0.6,0.4,0.7,0.8c0.2,0.4,0.2,1,0.2,1.9
	c0,0.8,0,1.3,0.1,1.7c0.1,0.4,0.3,0.6,0.5,0.7c0.3,0.1,0.6,0.1,1,0.1c0.3,0,0.7,0,1.1-0.1c0.4,0,0.9-0.1,1.3-0.1
	c0.4-0.1,0.8-0.1,1.1-0.2c-0.1,0.2-0.1,0.5-0.1,0.9c0,0.4,0,0.7,0,1c-0.6,0.1-1.2,0.2-1.9,0.2c-0.7,0.1-1.3,0.1-1.7,0.1
	c-0.8,0-1.4-0.1-1.9-0.3c-0.5-0.2-0.8-0.6-1-1.1c-0.2-0.5-0.3-1.2-0.2-2.2c0-0.8,0-1.3-0.1-1.7c-0.1-0.3-0.2-0.6-0.5-0.7
	c-0.5-0.2-1-0.1-1.4,0.4c-0.6,0.8-1.3,1.5-1.9,2.2c-0.6,0.7-1.1,1.4-1.6,1.9c-0.5,0.6-0.8,1-1.1,1.3l-1.5-1.2
	c0.3-0.3,0.7-0.7,1.2-1.3C317.9,51.3,318.5,50.7,319.1,50z M389.1,51.3c0.8,0.3,1.8,0.5,2.9,0.5c1.1,0.1,2.3,0,3.7-0.3
	c-0.1,0.3-0.2,0.6-0.2,1s-0.1,0.7-0.1,1c-1.4,0.2-2.8,0.3-4,0.2c-1.2-0.1-2.3-0.4-3.2-0.8c-0.9-0.4-1.6-0.9-2-1.5l1-1.3
	C387.6,50.6,388.2,51,389.1,51.3z M415,43.9c-0.5-0.4-1-0.7-1.6-1c-0.5-0.3-1-0.6-1.4-0.7l0.9-1.4c0.3,0.1,0.7,0.3,1.1,0.5
	s0.8,0.5,1.2,0.7c0.4,0.3,0.8,0.5,1.2,0.8c0.4,0.3,0.7,0.5,0.9,0.7l-1.1,1.4C415.9,44.6,415.5,44.3,415,43.9z M407.5,49.9
	c0.5-0.2,1.2-0.3,1.9-0.3c0.2,0,0.5,0,0.7,0.1c0.2,0,0.5,0,0.7,0.1v-4.9h1.7v5.4c0.8,0.3,1.5,0.6,2.2,1c0.7,0.4,1.4,0.8,2,1.3
	c-0.2,0.2-0.4,0.4-0.6,0.7s-0.4,0.6-0.5,0.8c-1-0.9-2-1.6-3.2-2.1c0,1-0.4,1.7-1,2.2c-0.6,0.5-1.5,0.7-2.7,0.7c-1,0-1.7-0.3-2.2-0.8
	c-0.5-0.5-0.8-1.1-0.8-1.9c0-0.5,0.2-0.9,0.4-1.3C406.6,50.4,407,50.1,407.5,49.9z M407.9,52.9c0.2,0.2,0.6,0.3,1.1,0.3
	c0.6,0,1-0.1,1.4-0.4s0.5-0.7,0.5-1.2v-0.2c-0.5-0.1-1-0.2-1.5-0.2c-0.5,0-1,0.1-1.3,0.3s-0.5,0.4-0.5,0.8S407.6,52.7,407.9,52.9z
	 M440.1,40.1h-4.2v3.2h3.5v11.1h-11.7V43.3h3.5v-3.2h-4v-1.7h13V40.1z M435.8,52.6h1.8v-7.5h-1.8V52.6z M431,45.1h-1.8v7.5h1.8V45.1
	z M434.3,40.1h-1.8v3.2h1.8V40.1z M434.3,45.1h-1.8v7.5h1.8V45.1z M488.4,49.4c0.2-0.8,0.3-1.8,0.3-2.9v-3.4h8.1v5.8h-6.6
	c0,0.2-0.1,0.3-0.1,0.5c0,0.2-0.1,0.4-0.1,0.5h6.8v4.9h-7v-4c-0.2,0.7-0.5,1.3-0.9,1.9s-0.7,1.2-1.2,1.7c-0.2-0.1-0.4-0.3-0.8-1.4
	c-0.3,0.7-0.5,0.6-0.7,0.5c0.5-0.6,1-1.2,1.4-1.9C488,51,488.2,50.2,488.4,49.4z M495.2,44.3h-4.8v1h4.8V44.3z M495.2,47.7v-1.1
	h-4.8c0,0.2,0,0.4,0,0.6c0,0.2,0,0.4,0,0.6H495.2z M491.4,53.4h3.8v-2.1h-3.8V53.4z M500.3,50.8h-1.7V39h1.7V50.8z M502.2,53.2
	c0.1-0.1,0.2-0.3,0.2-0.5V37.3h1.8v15.9c0,0.6-0.2,1.1-0.5,1.4c-0.3,0.3-0.9,0.4-1.6,0.4h-1.6c0-0.2-0.1-0.5-0.2-0.9
	c-0.1-0.4-0.2-0.6-0.2-0.8h1.6C501.9,53.3,502.1,53.3,502.2,53.2z M515.5,45.9h8.9v5.8h-8.9V45.9z M517.4,50.2h5.2v-2.8h-5.2V50.2z
	 M510.2,51.9c0.4-0.2,0.6-0.4,0.9-0.5V46h-2.5v-1.6h4.2v6.9c0.3,0.5,0.8,0.8,1.4,1.1c0.6,0.3,1.3,0.5,2.2,0.6c0.9,0.1,2,0.2,3.4,0.2
	c1.6,0,3,0,4.1-0.1c1.2-0.1,2.1-0.1,2.9-0.2c0,0.1-0.1,0.3-0.2,0.5c-0.1,0.2-0.1,0.5-0.2,0.8c-0.1,0.3-0.1,0.5-0.1,0.6
	c-0.3,0-0.8,0-1.3,0c-0.5,0-1.1,0-1.7,0c-0.6,0-1.2,0-1.9,0c-0.6,0-1.2,0-1.8,0c-1.4,0-2.5-0.1-3.5-0.2c-1-0.1-1.8-0.4-2.5-0.7
	c-0.7-0.3-1.3-0.7-1.8-1.2c-0.2,0.2-0.5,0.4-0.9,0.6c-0.4,0.2-0.7,0.5-1.1,0.7s-0.7,0.4-0.9,0.6l-0.8-1.7c0.2-0.1,0.5-0.2,0.9-0.4
	S509.9,52.1,510.2,51.9z M587.5,42.2c0.4,0.5,0.8,1.1,1.1,1.8c0.4,0.6,0.7,1.2,1,1.8c0.3,0.6,0.5,1,0.6,1.4c-0.3,0.1-0.6,0.2-1,0.3
	c-0.3,0.1-0.6,0.3-0.8,0.4c-0.1-0.4-0.3-0.8-0.6-1.4c-0.3-0.6-0.6-1.1-0.9-1.7c-0.3-0.6-0.7-1.2-1.1-1.7c-0.4-0.5-0.7-0.9-0.9-1.2
	l1.5-0.9C586.8,41.2,587.1,41.7,587.5,42.2z M601,44.1c0.8-0.1,1.6-0.2,2.5-0.4c-0.2-0.3-0.3-0.7-0.5-1.1s-0.3-0.7-0.5-1.1
	c-0.8,0.1-1.6,0.2-2.4,0.3S598.6,42,598,42l-0.4-1.6c0.6,0,1.2,0,2-0.1c0.7-0.1,1.5-0.1,2.3-0.2c-0.3-1-0.6-1.8-0.7-2.5l1.8-0.2
	c0,0.3,0.1,0.7,0.2,1.1s0.2,0.9,0.4,1.3c0.8-0.1,1.5-0.3,2.2-0.4c0.7-0.2,1.3-0.3,1.7-0.5l0.5,1.6c-0.4,0.1-1,0.3-1.7-0.4
	c-0.7,1.1-1.4,1.2-2.2,1.3c0.1,0.3,0.3,0.7,0.5,1s0.3,0.7,0.5,1c1-0.2,1.9-0.4,2.8-0.7c0.8-0.2,1.5-0.5,1.9-0.7l0.6,1.5
	c-0.5,0.2-1.1,0.5-1.9,0.7c-0.8,0.2-1.7,0.4-2.6,0.6c0.4,0.7,0.9,1.4,1.4,2c0.5,0.6,1,1.1,1.5,1.6l-1.1,1.3
	c-0.8-0.4-1.6-0.7-2.4-0.8c-0.8-0.1-1.5-0.1-2.2,0c-0.6,0.1-1.2,0.3-1.6,0.6s-0.6,0.6-0.6,1.1c0,0.7,0.3,1.2,0.9,1.5
	c0.6,0.3,1.4,0.6,2.4,0.6c1,0.1,2.1,0.1,3.3,0c-0.1,0.2-0.3,0.5-0.4,0.9c-0.1,0.4-0.2,0.7-0.2,0.9c-1.5,0.1-2.9,0-4-0.2
	s-2.1-0.6-2.8-1.2c-0.7-0.6-1-1.4-1-2.5c0-0.6,0.2-1.2,0.6-1.7s0.9-0.8,1.5-1.1c0.6-0.3,1.4-0.4,2.2-0.5s1.6,0,2.5,0.1
	c-0.3-0.3-0.6-0.7-0.8-1.1c-0.3-0.4-0.5-0.8-0.8-1.2c-0.9,0.1-1.7,0.3-2.6,0.4c-0.9,0.1-1.7,0.2-2.4,0.3c-0.7,0.1-1.4,0.1-1.9,0.1
	l-0.4-1.6c0.5,0,1.1,0,1.8,0C599.5,44.3,600.2,44.2,601,44.1z M621.5,49.4c0.6-0.2,1.3-0.3,2-0.3c0.3,0,0.5,0,0.8,0
	c0.3,0,0.5,0.1,0.8,0.1l-0.1-2.9c-0.3,0-0.6,0-0.8,0c-0.3,0-0.6,0-0.8,0c-0.7,0-1.2-0.1-1.6-0.2c-0.4-0.1-0.7-0.3-1-0.6
	c-0.3-0.3-0.5-0.6-0.7-1.1l1.5-0.7c0.2,0.4,0.4,0.6,0.7,0.7c0.3,0.1,0.7,0.2,1.2,0.2c0.3,0,0.5,0,0.8,0c0.3,0,0.5,0,0.8,0
	c0-0.4,0-0.9,0-1.3c0-0.4,0-0.9,0-1.3c-1,0.1-1.9,0.1-2.8,0.1c-0.9,0-1.5,0-2,0l-0.1-1.8c0.5,0,1.1,0.1,2,0.1c0.9,0,1.8,0,2.8-0.1
	c0-0.5,0-0.9,0-1.4c0-0.5,0-0.9,0-1.3h1.8c0,0.4,0,0.8,0,1.2s0,0.9,0,1.3c0.9-0.1,1.7-0.1,2.5-0.2c0.7-0.1,1.3-0.2,1.7-0.3l0,1.7
	c-0.4,0.1-0.9,0.2-1.7,0.2c-0.7,0.1-1.6,0.1-2.5,0.2c0,0.9,0,1.8,0.1,2.6c0.8-0.1,1.5-0.2,2.2-0.3c0.7-0.1,1.2-0.2,1.7-0.4v1.8
	c-0.5,0.1-1.1,0.2-1.7,0.3c-0.7,0.1-1.4,0.2-2.1,0.2c0,0.6,0,1.2,0,1.8c0,0.6,0,1.1,0,1.5c0.9,0.3,1.9,0.6,2.7,1
	c0.9,0.4,1.7,0.9,2.4,1.4c-0.1,0.1-0.3,0.2-0.4,0.5c-0.2,0.2-0.3-0.5-0.5,0.6c-0.1,0.2-0.2,0.4-0.3,0.5c-1.2-1-2.5-1.7-3.9-2.2v0.2
	c0,0.9-0.3,1.6-1,2.1c-0.7,0.6-1.7,0.8-3.1,0.8c-1,0-1.8-0.3-2.4-0.9c-0.5-0.5-0.8-1.2-0.8-1.9c0-0.5,0.2-0.9,0.5-1.3
	C620.5,50,620.9,49.7,621.5,49.4z M621.7,52.5c0.3,0.2,0.6,0.3,1.1,0.4c0.8,0,1.4-0.1,1.7-0.4c0.3-0.3,0.5-0.6,0.5-1
	c0-0.1,0-0.2,0-0.3s0-0.2,0-0.4c-0.3-0.1-0.6-0.1-0.9-0.2c-0.3,0-0.6-0.1-0.9-0.1c-0.6,0-1.1,0.1-1.5,0.3c-0.3,0.2-0.5,0.5-0.5,0.8
	C621.4,52.1,621.5,52.3,621.7,52.5z M659.9,49.6c0.4-0.2,0.9-0.4,1.4-0.4s1,0.1,1.4,0.4c0.4,0.3,0.8,0.6,1,1
	c0.2,0.4,0.4,0.9,0.4,1.4c0,0.5-0.1,1-0.4,1.4c-0.3,0.4-0.6,0.8-1,1c-0.4,0.3-0.9,0.4-1.4,0.4c-0.5,0-1-0.1-1.4-0.4
	c-0.4-0.3-0.8-0.6-1-1c-0.3-0.4-0.4-0.9-0.4-1.4c0-0.5,0.1-1,0.4-1.4C659.1,50.2,659.5,49.8,659.9,49.6z M660,53.4
	c0.4,0.4,0.8,0.5,1.3,0.5c0.5,0,0.9-0.2,1.3-0.6c0.4-0.4,0.5-0.8,0.5-1.3c0-0.5-0.2-0.9-0.5-1.3c-0.4-0.4-0.8-0.6-1.3-0.6
	s-1,0.2-1.3,0.6c-0.4,0.4-0.5,0.8-0.5,1.3C659.5,52.6,659.6,53,660,53.4z"/>
</svg>
