<?xml version="1.0" encoding="utf-8"?>
<!-- Generator: Adobe Illustrator 27.8.1, SVG Export Plug-In . SVG Version: 6.00 Build 0)  -->
<svg version="1.1" id="レイヤー_1" xmlns="http://www.w3.org/2000/svg" xmlns:xlink="http://www.w3.org/1999/xlink" x="0px"
	 y="0px" width="653.2px" height="104px" viewBox="0 0 653.2 104" style="enable-background:new 0 0 653.2 104;"
	 xml:space="preserve">
<g>
	<path d="M0,58V5.5h27.6v3.3h-24V58H0z"/>
	<path d="M39.5,93.6v-3.4h32.4c-1.4-3.4-2.9-6.5-4.6-9.2l3.5-1.4c0.9,1.6,1.9,3.3,2.8,5.2c0.9,1.9,1.7,3.7,2.4,5.3h15.3
		c2.3-3.5,4.1-7.2,5.5-11l3.6,1.6c-0.7,1.5-1.4,3.1-2.2,4.7c-0.8,1.6-1.7,3.2-2.6,4.7h31.5v3.4H39.5V93.6z M41.4,54v-3h83.7v3H41.4z
		 M49.3,44V16h21.9V6.7h3.5V16h17.2V6.7h3.5V16h21.8v28H49.3z M53,28.5h18.2V19H53V28.5z M53,41h18.2v-9.7H53V41z M53.2,78.4V61.2
		h59.9v17.2H53.2z M56.7,75.4h52.8V64.2H56.7V75.4z M74.7,28.5h17.2V19H74.7V28.5z M74.7,41h17.2v-9.7H74.7V41z M95.4,28.5h18.2V19
		H95.4V28.5z M95.4,41h18.2v-9.7H95.4V41z"/>
	<path d="M147.2,89.6c-0.9-0.7-1.6-1.2-2-1.5s-0.7-0.5-0.8-0.5c2.7-2.9,5.5-6.8,8.2-11.5c2.8-4.7,5.4-10,8-15.8s4.8-11.6,6.8-17.6
		c-4,0.5-7.9,1-11.6,1.6c-3.8,0.6-6.7,1-8.9,1.4c0-0.1-0.1-0.4-0.3-0.9c-0.2-0.6-0.4-1.2-0.6-1.8c-0.2-0.6-0.3-0.9-0.4-0.9
		c2.7-0.2,6.1-0.6,10.2-1.2c4.2-0.6,8.4-1.1,12.6-1.6c1.5-4.7,2.6-9.2,3.6-13.6c0.9-4.4,1.4-8.4,1.6-12.1l3.5,0.5
		c-0.2,3.6-0.7,7.5-1.6,11.7c-0.9,4.2-2,8.6-3.3,13.1c1.9-0.2,3.8-0.4,5.6-0.5s3.4-0.2,4.8-0.2c3.1,0,5.7,0.8,7.6,2.2
		c2,1.5,3.1,4.2,3.5,8.1s-0.2,9.5-1.8,16.8c-1.5,6.9-3.4,12.3-5.6,16.2c-2.3,4-5.6,6-10.1,6c-1.8,0-3.5-0.2-5.2-0.7
		s-3.4-1.4-5.1-2.8c0.1-0.5,0.2-1.2,0.4-2c0.1-0.8,0.1-1.4,0.1-1.9c1.6,1.3,3.1,2.3,4.6,3c1.5,0.6,3.2,1,5.1,1c3.5,0,6-1.6,7.7-4.7
		s3.3-8.1,4.8-15c1.1-5.1,1.8-9.2,1.9-12.2c0.1-3-0.2-5.3-0.9-6.8s-1.7-2.5-2.9-3s-2.6-0.7-4.1-0.7s-3.2,0.1-5.2,0.2
		c-2,0.1-4.1,0.3-6.2,0.5c-2,6.2-4.3,12.3-7,18.4s-5.5,11.6-8.4,16.6C153,82.5,150.1,86.5,147.2,89.6z M225.1,62.1
		c-1.2-1.9-2.8-3.9-4.6-6.1c-1.9-2.2-3.9-4.3-6.1-6.4c-2.2-2.1-4.3-4.1-6.5-5.9c-2.2-1.8-4.1-3.2-5.9-4.2l2.3-2.5
		c2,1.2,4.1,2.7,6.4,4.6c2.3,1.9,4.5,3.9,6.6,6c2.2,2.2,4.2,4.3,6,6.3s3.3,3.8,4.4,5.5L225.1,62.1z"/>
	<path d="M298.9,91.6c-5.3,0.3-10.3,0.1-15-0.5s-8.9-1.7-12.6-3.3c-3.7-1.6-6.5-3.7-8.6-6.4c-2.1-2.7-3.1-5.9-3.1-9.7
		c0-3.5,1.1-6.4,3.2-8.7c2.2-2.3,5.1-4,8.8-5c3.7-1.1,7.8-1.6,12.3-1.6s9.2,0.6,13.9,1.6c-3.5-3.3-6.6-7.1-9.3-11.2
		c-2.8-4.1-5.1-8.5-7-13.1c-6.3,0.5-12.4,1-18.5,1.3c-6,0.4-11.3,0.6-15.8,0.6l-0.9-3.9c4.3,0.3,9.4,0.3,15.4,0s12.2-0.7,18.5-1.2
		c-1.1-3.1-1.9-6.3-2.5-9.5s-0.9-6.4-0.9-9.6h3.9c-0.2,6,0.8,12.2,3.1,18.7c6.6-0.7,12.8-1.4,18.5-2.3s10.1-1.7,13.2-2.5l1.3,3.7
		c-3.5,0.7-8,1.5-13.7,2.2c-5.7,0.8-11.7,1.5-18.1,2.1c2.1,5.2,5,10.1,8.5,14.8c3.5,4.6,7.5,8.5,11.9,11.6l-2.3,3.2
		c-4.5-1.5-9-2.5-13.8-3c-4.7-0.5-9-0.4-13,0.3s-7.2,1.9-9.6,3.8c-2.5,1.9-3.7,4.4-3.7,7.6c0,3.3,1,6.1,3.1,8.3
		c2.1,2.2,4.9,4,8.4,5.2s7.5,2,11.8,2.4c4.3,0.3,8.8,0.3,13.3-0.1c-0.2,0.5-0.4,1.2-0.5,2.1C299.1,90.5,299,91.1,298.9,91.6z"/>
	<path d="M338.8,98.5v-3.3h24V46h3.6v52.5H338.8z"/>
	<path d="M440.5,94.4c-5.1,0-9.7-0.5-13.8-1.6c-4.1-1-7.3-2.6-9.7-4.8c-2.4-2.2-3.5-5.1-3.5-8.7c0-3,1-5.8,2.9-8.2
		c1.9-2.5,4.6-4.8,8-6.9s7.1-4.1,11.2-5.8v-1.1c0-3-0.6-5.1-1.9-6.3c-1.2-1.2-2.8-1.9-4.8-2c-3.4-0.2-6.8,0.3-10.2,1.6
		c-3.4,1.3-6.5,3.4-9.3,6.3c-1.2,1.3-2.6,2.7-4.3,4.4c-1.7,1.7-3.2,3.1-4.5,4.2l-6.7-6.7c4.7-3.3,9.2-7.5,13.4-12.4
		c4.2-4.9,7.6-10.1,10.4-15.5c-4.1,0.2-7.8,0.3-11.1,0.4c-3.4,0.1-5.9,0.1-7.5,0l-0.4-8.9c2.1,0.2,5.3,0.3,9.5,0.3s8.7-0.1,13.5-0.4
		c0.9-2.3,1.5-4.6,2-6.9s0.8-4.4,0.9-6.5l9.2,0.6c-0.2,4.1-1,8.1-2.4,12.2c5.1-0.3,10-0.8,14.5-1.3s7.9-1.1,10.2-1.7l0.6,8.6
		c-1.9,0.4-4.3,0.8-7.3,1.1c-3,0.4-6.4,0.7-10,1s-7.4,0.6-11.2,0.9c-1,2.3-2.2,4.6-3.7,6.9c-1.5,2.4-3,4.6-4.5,6.8
		c1.6-0.9,3.4-1.5,5.4-1.9s3.8-0.7,5.5-0.7c3.9,0,7.1,1.1,9.4,3.3s3.7,5.7,4.2,10.4c3.9-1.4,7.9-2.6,12-3.8c4-1.1,7.8-2,11.2-2.9
		l2.7,8.5c-4.6,0.7-9.1,1.5-13.4,2.6s-8.4,2.3-12.2,3.7v13.7h-9.2V66.6c-3.9,1.9-7.1,3.8-9.6,5.8c-2.4,2-3.6,4-3.6,6
		c0,2.5,1.5,4.4,4.5,5.5s7.3,1.7,13,1.7c2.1,0,4.5-0.2,7.1-0.5s5.2-0.7,7.9-1.2c2.6-0.5,5-1,7.1-1.7c-0.1,0.6-0.2,1.5-0.2,2.7
		s0,2.3,0.1,3.5s0.1,2.2,0.2,2.9c0,0.2,0,0.3,0,0.4c-3.3,0.9-6.9,1.5-10.8,2C447.4,94.2,443.8,94.4,440.5,94.4z"/>
	<path d="M492.8,97.3c-0.1-0.8-0.2-1.8-0.4-3c-0.2-1.2-0.5-2.3-0.8-3.4s-0.5-2-0.8-2.6h7.1c1.3,0,2.3-0.2,2.9-0.7
		c0.6-0.5,0.9-1.3,0.9-2.6V62.7c-3,1.1-5.7,2.1-8.2,3c-2.4,0.9-4.1,1.4-5,1.7l-2.2-9.3c1.5-0.4,3.7-1,6.5-1.9s5.8-1.8,8.9-2.9V33.9
		h-14.1v-8.6h14.1V6.6h8.9v18.7h11.6v8.6h-11.6v16.4c2.7-1,5.2-1.9,7.4-2.8c2.2-0.9,3.8-1.6,4.8-2.1V54c-0.9,0.5-2.4,1.2-4.6,2.1
		c-2.2,0.9-4.8,2-7.5,3.1v29.1c0,3.1-0.9,5.4-2.6,6.9c-1.7,1.4-4.4,2.1-7.9,2.1C500.2,97.3,492.8,97.3,492.8,97.3z M533,95.2V60.9
		c-2,3-4.1,5.8-6.4,8.5c-2.3,2.6-4.6,5-7.1,7.1c-0.5-0.6-1.2-1.3-2.1-2.1c-0.9-0.8-1.9-1.6-2.8-2.3c-0.9-0.7-1.7-1.2-2.2-1.5
		c3.5-2.7,6.7-5.9,9.7-9.6c3-3.7,5.7-7.8,8.1-12.2c2.4-4.4,4.4-9,6.1-13.7c1.7-4.7,2.9-9.3,3.7-13.9h-19.7V13h58.2v8.1h-29
		c-0.8,4.1-1.9,8.2-3.3,12.5c-1.4,4.3-3.1,8.5-5,12.6h31.7v49H533z M542,86.8h21.8V54.7H542V86.8z"/>
	<path d="M644.4,97c-1.2-2.3-2.8-5-4.8-8s-4.1-6.1-6.5-9.3c-2.4-3.2-4.8-6.4-7.2-9.5c-2.5-3.1-4.8-5.9-7.1-8.4
		c-2.3-2.6-4.2-4.7-5.9-6.4c-2.3-2.3-3.4-4.2-3.3-5.8c0.1-1.6,1.2-3.4,3.5-5.5c2.2-2,4.8-4.5,7.6-7.6c2.9-3,5.8-6.3,8.8-9.7
		s5.7-6.8,8.2-10.2c2.5-3.3,4.3-6.3,5.6-8.8l8.6,5.9c-1.5,2.1-3.4,4.7-5.9,7.7s-5.1,6.1-8,9.2c-2.9,3.2-5.7,6.2-8.5,9.1
		c-2.7,2.9-5.1,5.3-7.2,7.2c-1.9,1.7-1.8,3.5,0.1,5.4c1.7,1.7,3.6,3.8,5.8,6.3s4.5,5.3,6.9,8.2c2.4,3,4.8,6,7.1,9s4.5,5.8,6.4,8.4
		s3.5,4.9,4.6,6.7c-0.7,0.3-1.7,0.8-2.9,1.5s-2.3,1.5-3.4,2.2C645.8,95.8,644.9,96.5,644.4,97z"/>
</g>
</svg>
