<?xml version="1.0" encoding="utf-8"?>
<!-- Generator: Adobe Illustrator 27.8.1, SVG Export Plug-In . SVG Version: 6.00 Build 0)  -->
<svg version="1.1" id="レイヤー_1" xmlns="http://www.w3.org/2000/svg" xmlns:xlink="http://www.w3.org/1999/xlink" x="0px"
	 y="0px" width="646.2px" height="27px" viewBox="0 0 646.2 27" style="enable-background:new 0 0 646.2 27;" xml:space="preserve">
<style type="text/css">
	.st0{fill-rule:evenodd;clip-rule:evenodd;}
</style>
<path class="st0" d="M634.8,9.9c-1.3,0-2.7,0-4.1,0.1c0,0.5,0,1.1,0,1.6c0,0.6,0.1,1.1,0.1,1.6c0.6,0.7,0.9,1.7,0.9,2.8
	c0,1.6-0.5,3-1.5,4.2s-2.4,2.1-4.2,2.7c-0.1-0.2-0.3-0.4-0.5-0.7s-0.4-0.5-0.7-0.8c1.5-0.4,2.6-1,3.4-1.6c0.8-0.7,1.3-1.5,1.5-2.4
	c-0.5,0.4-1.1,0.6-1.7,0.6c-0.9,0-1.6-0.3-2.2-0.8c-0.6-0.5-0.8-1.2-0.9-2.1c0-0.6,0.1-1.1,0.4-1.6c0.3-0.5,0.6-0.8,1.1-1.1
	s1-0.4,1.6-0.4c0.1,0,0.3,0,0.4,0s0.3,0,0.4,0.1c0-0.3-0.1-0.6-0.1-1c0-0.3,0-0.7,0-1.1c-1.1,0-2.2,0.1-3.2,0.2
	c-1,0.1-2,0.2-2.8,0.3c-0.9,0.1-1.6,0.2-2.2,0.3L620.2,9c0.5-0.1,1.2-0.1,2.1-0.2c0.9-0.1,1.9-0.1,3-0.2c1.1-0.1,2.2-0.1,3.4-0.2v-3
	h1.8v3c1-0.1,2-0.1,2.9-0.1s1.8-0.1,2.6-0.1s1.4,0,1.9,0l-0.1,1.8C637.2,9.9,636.1,9,634.8,9.9z M629.5,14.6c0-0.2,0-0.3-0.1-0.5
	c-0.3-0.4-0.7-0.5-1.2-0.5c-0.4,0-0.8,0.1-1.1,0.4c-0.3,0.3-0.4,0.6-0.4,1s0.1,0.8,0.4,1c0.3,0.3,0.6,0.4,1,0.4s0.7-0.1,1-0.4
	c0.2-0.2,0.4-0.6,0.4-1C629.5,14.9,629.5,14.7,629.5,14.6z M558.9,10.7c0.1,0.8,0.2,1.6,0.4,2.4c0.2,0.8,0.4,1.5,0.6,2.2
	c0.2,0.7,0.5,1.3,0.8,1.8c0.2,0.4,0.5,0.6,0.7,0.6s0.5,0,0.7-0.2c0.3-0.2,0.7-0.5,1-0.9c0.4-0.4,0.7-0.8,0.9-1.1
	c0.1,0.2,0.2,0.5,0.5,0.8c0.2,0.3,0.4,0.5,0.6,0.7c-0.3,0.5-0.7,0.9-1.1,1.4c-0.5,0.5-0.9,0.8-1.3,1.1c-0.6,0.3-1.1,0.5-1.7-0.5
	c-0.5,0.8-1,0.5-1.5-0.2c-0.4-0.6-0.7-1.4-1.1-2.2c-0.3-0.8-0.6-1.7-0.8-2.7c-0.2-0.9-0.4-1.9-0.5-2.8c-0.1-0.9-0.2-1.8-0.2-2.6h1.9
	C558.8,9.2,558.8,9.9,558.9,10.7z M539.3,8.3c1-0.1,1.9-0.3,3-0.5s2-0.3,2.9-0.5c1-0.2,1.8-0.3,2.6-0.5s1.4-0.3,1.8-0.4l0.5,1.9
	c-0.2,0-0.4,0-0.7,0.1c-0.3,0-0.6,0.1-1,0.2c-0.8,0.1-1.5,0.4-2.2,0.8s-1.3,0.9-1.8,1.5s-0.9,1.3-1.2,2c-0.3,0.8-0.4,1.5-0.4,2.4
	c0,1.1,0.3,1.9,0.8,2.7c0.5,0.7,1.2,1.3,2.1,1.7c0.9,0.4,1.9,0.7,3,0.8c-0.2,0.2-0.4,0.6-0.6,0.9c-0.2,0.4-0.3,0.7-0.4,0.9
	c-1.3-0.1-2.5-0.5-3.6-1.2c-1-0.6-1.8-1.5-2.4-2.5c-0.6-1-0.9-2.2-0.9-3.4c0-0.7,0.1-1.4,0.3-2.1c0.2-0.7,0.6-1.4,1-2.1
	c0.5-0.7,1.1-1.3,1.8-1.8c-0.8,0.1-1.7,0.3-2.5,0.4c-0.9,0.2-1.7,0.3-2.5,0.5c-0.8,0.1-1.5,0.3-2.1,0.4c-0.6,0.1-1.1,0.2-1.5,0.3
	l-0.4-2c0.4,0,1-0.1,1.8-0.2C537.5,8.6,538.4,8.4,539.3,8.3z M518.5,7c0,0.5,0,1.1-0.1,1.8c0,0.5,0,1,0,1.6s0,1.2,0,1.9v6.3
	c0,0.7,0.2,1.1,0.5,1.4c0.4,0.3,1,0.4,1.9,0.4c0.8,0,1.7-0.1,2.5-0.3s1.6-0.5,2.3-0.9s1.3-0.8,1.9-1.3c0,0.2,0,0.4,0.1,0.7
	c0,0.3,0.1,0.6,0.1,0.8c0,0.3,0.1,0.4,0.1,0.5c-1,0.7-2.1,1.3-3.3,1.7s-2.5,0.7-3.8,0.7c-1,0-1.8-0.1-2.4-0.3s-1.1-0.5-1.4-1
	c-0.3-0.5-0.4-1.1-0.4-2V5.7l2,0.1C518.5,6.1,518.5,6.5,518.5,7z M499.6,6.7c-0.1,0.3-0.3,0.6-0.4,0.9h2V5h1.8v2.6h4.1v1.5H503v2.1
	h5.5v1.5h-12.8v-1.5h5.5V9.1h-2.8c-0.4,0.7-0.8,1.3-1.3,1.8c-0.2-0.2-0.4-0.4-0.7-0.6c-0.3-0.2-0.5-0.3-0.8-0.4
	c0.4-0.4,0.7-0.8,1.1-1.4c0.3-0.5,0.6-1.1,0.9-1.7c0.3-0.6,0.5-1.1,0.6-1.6l1.7,0.5C499.9,6.1,499.8,6.3,499.6,6.7z M495,9
	c-0.2,0.2-0.4,0.3-0.5,0.5c-0.2,0.2-0.3,0.3-0.4,0.4c-0.2-0.3-0.5-0.7-0.8-1.1c-0.3-0.4-0.7-0.8-1.1-1.2s-0.7-0.7-1.1-0.9l1.3-1.1
	c0.3,0.2,0.7,0.5,1.1,0.9s0.8,0.8,1.1,1.1s0.6,0.7,0.9,1C495.4,8.8,495.2,8.9,495,9z M479.8,9.9c-0.1,0.2-0.2,0.3-0.3,0.4
	c-0.3-0.2-0.7-0.4-1-0.6c-0.3-0.2-0.7-0.5-1-0.7v1.2h-5.4v-1c-0.9,0.7-1.7,1.3-2.6,1.7c-0.1-0.1-0.1-0.2-0.3-0.4
	c-0.1-0.2-0.3-0.4-0.4-0.5c-0.1-0.2-0.3-0.3-0.4-0.4c0.7-0.3,1.5-0.8,2.2-1.3s1.4-1.1,2-1.7c0.6-0.6,1.1-1.2,1.4-1.8l1.6,0.4
	c0.3,0.4,0.8,0.9,1.3,1.4s1.1,0.9,1.7,1.3c0.6,0.4,1.2,0.8,1.8,1c-0.1,0.1-0.2,0.2-0.3,0.4C480.1,9.6,479.9,9.7,479.8,9.9z
	 M474.8,6.6c-0.3,0.3-0.6,0.7-0.9,1.1c-0.4,0.4-0.8,0.7-1.2,1.1h4.5C476.3,8.1,475.5,7.4,474.8,6.6z M456.1,8c1-0.1,2-0.2,2.9-0.3
	s1.6-0.2,2-0.3l0.1,1.7c-0.4,0.1-0.9,0.2-1.5,0.2c-0.6,0.1-1.3,0.1-2,0.2c-0.7,0.1-1.5,0.1-2.2,0.2c-0.2,0.5-0.4,0.9-0.7,1.4
	c-0.3,0.5-0.6,0.9-0.9,1.3c0.3-0.2,0.7-0.3,1.1-0.4c0.4-0.1,0.8-0.1,1.1-0.1c0.8,0,1.4,0.2,1.9,0.7c0.5,0.4,0.7,1.1,0.8,2.1
	c0.8-0.3,1.6-0.5,2.4-0.8c0.8-0.2,1.5-0.4,2.2-0.6l0.5,1.7c-0.9,0.1-1.8,0.3-2.7,0.5c-0.9,0.2-1.7,0.5-2.4,0.7v2.7h-1.8V17
	c-0.8,0.4-1.4,0.8-1.9,1.2s-0.7,0.8-0.7,1.2c0,0.5,0.3,0.9,0.9,1.1c0.6,0.2,1.5,0.3,2.6,0.3c0.4,0,0.9,0,1.4-0.1s1-0.1,1.6-0.2
	c0.5-0.1,1-0.2,1.4-0.3c0,0.1,0,0.3,0,0.5s0,0.5,0,0.7s0,0.4,0,0.6v0.1c-0.7,0.2-1.4,0.3-2.2,0.4c-0.8,0.1-1.5,0.1-2.2,0.1
	c-1,0-1.9-0.1-2.8-0.3c-0.8-0.2-1.5-0.5-1.9-1c-0.5-0.4-0.7-1-0.7-1.7c0-0.6,0.2-1.2,0.6-2.6c0.4,0.4,0.9-0.1,1.6-0.5
	s1.4-0.8,2.2-1.2v-0.2c0-0.6-0.1-1-0.4-1.3c-0.2-0.2-0.6-0.4-0.9-0.4c-0.7,0-1.4,0.1-2,0.3s-1.3,0.7-1.9,1.3
	c-0.2,0.3-0.5,0.5-0.9,0.9c-0.3,0.3-0.6,0.6-0.9,0.8l-1.3-1.3c0.9-0.7,1.8-1.5,2.7-2.5c0.8-1,1.5-2,2.1-3.1c-0.8,0-1.6,0.1-2.2,0.1
	c-0.7,0-1.2,0-1.5,0l-0.1-1.8c0.4,0,1.1,0.1,1.9,0.1s1.7,0,2.7-0.1c0.2-0.5,0.3-0.9,0.4-1.4s0.2-0.9,0.2-1.3l1.8,0.1
	C456.6,6.4,456.4,7.2,456.1,8z M437.3,5.6c0.1-0.4,0.1-0.6,0.1-0.7h1.9c0,0.1,0,0.3-0.1,0.7s-0.1,0.8-0.2,1.3h5v1.6h-5.2
	c-0.1,0.3-0.1,0.6-0.2,0.9c-0.1,0.3-0.1,0.5-0.1,0.7h4.2V20h-8.3v-9.9h2.2c0-0.2,0.1-0.4,0.1-0.7c0.1-0.3,0.1-0.6,0.2-0.9h-5.4V6.9
	h5.7C437.2,6.4,437.3,6,437.3,5.6z M436.1,18.6h4.8v-1.5h-4.8V18.6z M436.1,15.8h4.8v-1.5h-4.8V15.8z M436.1,11.6v1.5h4.8v-1.5
	H436.1z M433,21.2h11v1.4h-12.7V10.8h1.7V21.2z M429.7,23.2H428V12.1c-0.6,1-1.1,1.8-1.7,2.5c-0.1-0.2-0.3-0.4-0.6-0.6
	c-0.3-0.2-0.5-0.4-0.7-0.5c0.4-0.5,0.9-1.1,1.3-1.8s0.9-1.5,1.3-2.3s0.7-1.6,1-3.3c0.3,0.1,0.5-0.5,0.6-1.1l1.7,0.4
	c-0.3,1-0.7,2.2-1.3,3.4v14.4H429.7z M408.1,8.9V23h-1.7V12.2c-0.3,0.5-0.6,0.9-0.8,1.3c-0.3,0.4-0.6,0.8-0.8,1.1
	c-0.1-0.2-0.3-0.4-0.6-0.6c-0.3-0.2-0.5-0.4-0.7-0.5c0.4-0.5,0.9-1.1,1.3-1.8s0.9-1.5,1.3-2.3s0.7-1.6,1-2.4c0.3-0.8,0.5-1.4,0.6-2
	l1.7,0.4c-0.1,0.5-0.3,1.1-0.5,1.7C408.6,7.7,408.4,8.3,408.1,8.9z M389.6,10.4c-0.5,1.7-1,3.2-1.8,4.7c-0.7,1.5-1.6,2.8-2.5,4
	c-0.1-0.1-0.2-0.2-0.4-0.3c-0.2-0.1-0.4-0.2-0.6-0.4c-0.2-0.1-0.4-0.2-0.5-0.3c0.8-0.9,1.6-2.1,2.3-3.4s1.2-2.7,1.7-4.1
	c-0.7,0.1-1.4,0.2-2.1,0.3c-0.6,0.1-1.2,0.1-1.5,0.2l-0.3-1.7c0.5,0,1.1-0.1,1.9-0.1c0.8-0.1,1.6-0.2,2.4-0.3
	c0.1-0.6,0.3-1.3,0.4-1.9c0.1-0.6,0.1-1.2,0.1-1.8l1.7,0.2c-0.1,0.5-0.1,1.1-0.2,1.6s-0.2,1.1-0.3,1.6c0.5-0.1,1-0.2,1.5-0.3
	s0.9-0.2,1.3-0.3l0.2,1.7c-0.4,0.1-0.9,0.2-1.5,0.3C390.9,10.2,390.3,10.3,389.6,10.4z M375.9,12.2c0.6,0.1,1.1,0.2,1.6,0.3
	l-0.6,1.8c-0.6-0.2-1.3-0.4-2.1-0.5c-0.8-0.1-1.6-0.2-2.4-0.2s-1.5,0-2.1,0l0.2-1.8c0.5,0,1,0,1.6,0s1.3,0.1,1.9,0.1
	C374.7,12,375.3,12.1,375.9,12.2z M368.1,10.8c-0.3,1.1-0.6,2.1-1,3.2c-0.4,1.1-0.7,2.2-1.1,3.2c-0.4,1.1-0.8,2-1.1,2.9
	c-0.4,0.9-0.7,1.6-1.1,2.2c-0.2-0.1-0.5-0.3-0.9-0.4c-0.4-0.2-0.7-0.3-0.9-0.3c0.3-0.5,0.7-1.2,1-2c0.4-0.8,0.7-1.7,1.1-2.6
	c0.4-1,0.7-2,1.1-3s0.7-2.1,0.9-3.1c-0.8,0.1-1.5,0.1-2.3,0.2s-1.3,0-1.8,0l-0.1-1.9c0.6,0.1,1.3,0.1,2.1,0.1s1.7-0.1,2.6-0.2
	c0.2-0.7,0.3-1.4,0.4-2s0.2-1.2,0.2-1.7l1.9,0.3c-0.1,0.4-0.1,0.9-0.3,1.4c-0.1,0.5-0.3,1.1-0.4,1.7c0.6-0.1,1.2-0.2,1.7-0.3
	s1-0.3,1.4-0.4l0.3,1.7c-0.4,0.1-1,0.3-1.7,0.4C369.6,10.5,368.9,10.7,368.1,10.8z M351.7,6.6c0.8-0.1,1.6-0.3,2.4-0.5
	s1.4-0.5,2-0.8l1.2,1.5c-0.5,0.2-1.1,0.4-1.8,0.6c-0.7,0.2-1.4,0.4-2.1,0.5s-1.4,0.2-2,0.3v3.2h6.2v1.7h-2.3v10.1h-1.8V13.1h-2.1
	c0,2.3-0.3,4.3-0.8,5.9s-1.3,3.1-2.4,4.2c-0.1-0.1-0.3-0.2-0.5-0.3s-0.4-0.3-0.6-0.4c-0.2-0.1-0.4-0.2-0.5-0.2
	c1.1-1,1.9-2.3,2.3-3.8c0.4-1.6,0.6-3.5,0.6-5.8V6.8C350.2,6.8,350.9,6.7,351.7,6.6z M345.1,14.6h3.3v1.6h-3.3v0.2l0.1-0.1
	c0.2,0.3,0.5,0.6,0.9,0.9c0.4,0.3,0.8,0.7,1.2,1c0.4,0.3,0.8,0.6,1.2,0.8c-0.1,0.1-0.2,0.2-0.3,0.3c-0.2,0.2-0.3,0.3-0.4,0.5
	s-0.2,0.3-0.3,0.4c-0.3-0.2-0.7-0.5-1.1-0.9s-0.8-0.8-1.1-1.1v4.9h-1.7v-5.3c-0.5,0.7-1,1.3-1.5,2c-0.6,0.6-1.1,1.2-1.6,1.6
	c-0.1-0.1-0.2-0.2-0.4-0.3c-0.2-1-0.3-0.3-0.5-0.4s-0.3-0.2-0.4-0.2c0.4-0.3,0.8-0.7,1.3-1.2s0.9-1,1.4-1.6c0.4-0.6,0.8-1.1,1.1-1.5
	h-2.7v-1.6h3.4v-1.7H340v-1.5h2.4c-0.1-0.4-0.3-0.8-0.4-1.2c-0.2-0.4-0.3-0.8-0.4-1l1.4-0.5c0.2,0.3,0.4,0.8,0.6,1.3s0.4,1,0.5,1.4
	h1.2c0.1-0.3,0.3-0.6,0.4-1s0.3-0.7,0.4-1s0.2-0.6,0.2-0.8l1.5,0.4c-0.1,0.3-0.2,0.7-0.4,1.1s-0.3,0.8-0.5,1.2h2.4v1.5h-4.2V14.6z
	 M340.1,7h3.3V5h1.8v2h3.3v1.5h-8.4V7z M334.2,21.5c-1.4,0.2-2.8,0.3-4,0.2s-2.3-0.4-3.2-0.8c-0.9-0.4-1.6-0.9-2-1.5l1-1.3
	c0.4,0.5,1,0.9,1.9,1.2c0.8,0.3,1.8,0.5,2.9,0.5s2.3,0,3.7-0.3c-0.1,0.3-0.2,0.6-0.2,1S334.2,21.3,334.2,21.5z M331.6,13.9
	c-0.8-0.1-1.6-0.2-2.4-0.2s-1.5,0-2.1,0l0.2-1.8c0.5,0,1,0,1.6,0s1.3,0.1,1.9,0.1c0.7,0.1,1.3,0.1,1.9,0.2c0.6,0.1,1.1,0.2,1.6,0.3
	l-0.6,1.8C333.1,14.2,332.4,14,331.6,13.9z M324.9,10.8c-0.3,1.1-0.6,2.1-1,3.2c-0.4,1.1-0.7,2.2-1.1,3.2c-0.4,1.1-0.8,2-1.1,2.9
	c-0.4,0.9-0.7,1.6-1.1,2.2c-0.2-0.1-0.5-0.3-0.9-0.4c-0.4-0.2-0.7-0.3-0.9-0.3c0.3-0.5,0.7-1.2,1-2c0.4-0.8,0.7-1.7,1.1-2.6
	c0.4-1,0.7-2,1.1-3s0.7-2.1,1-3.1c-0.8,0.1-1.5,0.1-2.3,0.2s-1.3,0-1.8,0l-0.1-1.9c0.6,0.1,1.3,0.1,2.1,0.1c0.8,0,1.7-0.1,2.6-0.2
	c0.2-0.7,0.3-1.4,0.4-2s0.2-1.2,0.2-1.7l1.9,0.3c-0.1,0.4-0.1,0.9-0.3,1.4s-0.3,1.1-0.4,1.7c0.6-0.1,1.2-0.2,1.7-0.3s1-0.3,1.4-0.4
	l0.3,1.7c-0.4,0.1-1,0.3-1.7,0.4C326.4,10.5,325.7,10.7,324.9,10.8z M307.8,8.9c-0.3-0.1-0.7-0.2-1.1-0.3c-0.5-0.2-1-0.3-1.5-0.5
	s-1-0.4-1.5-0.6c-0.5-0.2-0.8-0.4-1-0.5l0.8-1.5c0.2,0.1,0.5,0.3,0.9,0.4c0.4,0.2,0.9,0.4,1.4,0.5c0.5,0.2,1,0.4,1.5-0.4
	c0.5,1.1,0.9,1.2,1.2,1.2L307.8,8.9z M265,20.9c0.1,0.1,0.3,0.1,0.6,0.1h2.5c0.4,0,0.7-0.1,0.9-0.2c0.2-0.1,0.4-0.4,0.5-0.7
	s0.2-0.9,0.2-1.5c0.2,0.1,0.5,0.2,0.9,0.4c0.4,0.1,0.7,0.2,0.9,0.3c-0.1,1-0.3,1.8-0.5,2.3s-0.5,0.8-0.9,1s-0.9,0.2-1.5,0.2H265
	c-0.7,0-1.3-0.1-1.6-0.3c-0.3-0.2-0.5-0.6-0.5-1.2v-4.6h-1.7c-0.1,1.6-0.8,3-2.1,4.2c-1.3,1.2-3.1,2-5.5,2.3c0-0.1-0.1-0.3-0.2-0.5
	s-0.2-0.4-0.3-0.6c-0.1-0.2-0.2-0.4-0.3-0.5c1.2-0.1,2.3-0.4,3.3-0.8c0.9-0.4,1.7-1,2.3-1.7c0.6-0.7,0.9-1.5,1-2.4h-3V5.6h11.5v11.1
	h-3v3.7C264.8,20.7,264.9,20.8,265,20.9z M265.9,7.2h-7.7V9h7.7V7.2z M265.9,10.3h-7.7V12h7.7V10.3z M265.9,15.1v-1.7h-7.7v1.7
	H265.9z M241.7,9.6c-0.7,0.1-1.5,0.1-2.2,0.2c-0.2,0.5-0.4,0.9-0.7,1.4s-0.6,0.9-0.9,1.3c0.3-0.2,0.7-0.3,1.1-0.4
	c0.4-0.1,0.8-0.1,1.1-0.1c0.8,0,1.4,0.2,1.9,0.7c0.5,0.4,0.7,1.1,0.8,2.1c0.8-0.3,1.6-0.5,2.4-0.8c0.8-0.2,1.5-0.4,2.2-0.6l0.5,1.7
	c-0.9,0.1-1.8,0.3-2.7,0.5s-1.7,0.5-2.4,0.7V19H241v-2c-0.8,0.4-1.4,0.8-1.9,1.2s-0.7,0.8-0.7,1.2c0,0.5,0.3,0.9,0.9,1.1
	c0.6,0.2,1.5,0.3,2.6,0.3c0.4,0,0.9,0,1.4-0.1s1-0.1,1.6-0.2c0.5-0.1,1-0.2,1.4-0.3c0,0.1,0,0.3,0,0.5s0,0.5,0,0.7s0,0.4,0,0.6v0.1
	c-0.7,0.2-1.4,0.3-2.2,0.4c-0.8,0.1-1.5,0.1-2.2,0.1c-1,0-1.9-0.1-2.8-0.3c-0.8-0.2-1.5-0.5-1.9-1c-0.5-0.4-0.7-1-0.7-1.7
	c0-0.6,0.2-1.2,0.6-2.6c0.4,0.4,0.9-0.1,1.6-0.5c0.7-0.4,1.4-0.8,2.2-1.2v-0.2c0-0.6-0.1-1-0.4-1.3c-0.2-0.2-0.6-0.4-1-0.4
	c-0.7,0-1.4,0.1-2,0.3c-0.7,0.3-1.3,0.7-1.9,1.3c-0.2,0.3-0.5,0.5-0.9,0.9c-0.3,0.3-0.6,0.6-0.9,0.8l-1.3-1.3
	c0.9-0.7,1.8-1.5,2.7-2.5c0.8-1,1.5-2,2.1-3.1c-0.8,0-1.6,0.1-2.2,0.1s-1.2,0-1.5,0l-0.1-1.8c0.4,0,1.1,0.1,1.9,0.1
	c0.8,0,1.7,0,2.7-0.1c0.2-0.5,0.3-0.9,0.4-1.4s0.2-0.9,0.2-1.3l1.8,0.1c0,0.8-0.2,1.6-0.5,2.4c1-0.1,2-0.2,2.9-0.3s1.6-0.2,2-0.3
	L245,9c-0.4,0.1-0.9,0.2-1.5,0.2S242.4,9.5,241.7,9.6z M210.2,13.6h4.5c-0.1-0.3-0.3-0.7-0.6-1.1c-0.2-0.4-0.5-0.9-0.8-1.3
	c-0.3-0.4-0.5-0.8-0.7-1l1.6-0.8c0.3,0.3,0.5,0.7,0.8,1.1c0.3,0.4,0.6,0.9,0.8,1.3c0.3,0.4,0.5,0.8,0.6,1.1l-1.4,0.8h3V9h-6.9V7.3
	h6.9V5h1.8v2.3h6.9V9h-6.9v4.6h2.7c-0.2-0.1-0.4-0.2-0.7-0.4c-0.3-0.1-0.5-0.2-0.6-0.3c0.2-0.3,0.5-0.7,0.8-1.1s0.6-0.9,0.8-1.4
	c0.3-0.5,0.5-0.8,0.6-1.1l1.7,0.7c-0.2,0.3-0.4,0.7-0.6,1.2s-0.5,0.9-0.8,1.3s-0.5,0.8-0.8,1.2h4.7v1.7h-6.8
	c0.6,0.7,1.4,1.5,2.2,2.2s1.7,1.4,2.7,2c0.9,0.6,1.8,1.1,2.7,1.5c-0.1,0.1-0.3,0.2-0.4,0.4c-0.2,0.2-0.3,0.4-0.5,0.6
	c-0.2,0.2-0.3,0.4-0.3,0.5c-0.8-0.4-1.7-0.9-2.6-1.6c-0.9-0.6-1.7-1.3-2.5-2.1s-1.5-1.6-2.2-2.4v6.8h-1.8v-6.7
	c-1,1.2-2.1,2.3-3.4,3.4c-1.3,1-2.6,2-4.1,2.7c-0.1-0.1-0.2-0.3-0.3-0.5c-0.2-0.2-0.3-0.4-0.5-0.6c-0.2-0.2-0.3-0.3-0.4-0.4
	c0.9-0.4,1.8-0.9,2.7-1.6c0.9-0.6,1.8-1.3,2.7-2.1s1.6-1.5,2.2-2.2h-6.8L210.2,13.6L210.2,13.6z M201,16.4c0.9,0.8,1.8,1.6,2.8,2.3
	s2,1.3,3,1.8c-0.1,0.1-0.3,0.2-0.4,0.4c-0.2,0.2-0.4,0.4-0.5,0.6c-0.2,0.2-0.3,0.4-0.4,0.5c-0.8-0.5-1.7-1-2.6-1.7
	c-0.9-0.6-1.7-1.4-2.5-2.2s-1.5-1.6-2.2-2.5V23h-1.8v-7.4c-1,1.2-2.1,2.4-3.4,3.5c-1.3,1.1-2.6,2-4.1,2.8c-0.1-0.1-0.2-0.3-0.3-0.5
	c-0.2-0.2-0.3-0.4-0.5-0.6s-0.3-0.3-0.4-0.4c0.7-0.3,1.5-0.8,2.2-1.2c0.8-0.5,1.5-1,2.2-1.6s1.4-1.2,2-1.8s1.1-1.3,1.6-1.9h-7.2
	v-1.7h7.7V9.3h-6.5V7.6h6.5V5h1.8v2.8h6.4v1.7H198v2.9h7.7V14h-7.2C199.3,14.8,200.1,15.6,201,16.4z M171.3,21.4
	c-0.4-0.5-0.9-1-1.3-1.4c-0.5-0.5-0.9-0.8-1.3-1.1l1.2-1.1c0.4,0.3,0.9,0.7,1.4,1.1s1,0.9,1.4,1.4c0.5,0.5,0.8,0.9,1.1,1.2l-1.4,1.3
	C172.1,22.3,171.7,21.9,171.3,21.4z M161.8,10.6c-0.7,0.1-1.4,0.1-2.2,0.2c-0.7,0-1.5,0.1-2.1,0.1c-0.7,0-1.3,0-1.8,0L155.6,9
	c0.5,0.1,1.1,0.1,1.8,0.1s1.4,0,2.2,0s1.5-0.1,2.2-0.2c0.7-0.1,1.3-0.2,1.8-0.3l-0.1,1.9C163.1,10.4,162.5,10.5,161.8,10.6z
	 M143.6,16.7c-0.1,0.9-0.1,1.6-0.2,2.2c-0.1,1-0.3,1.8-0.6,2.3c-0.3,0.6-0.7,1-1.2,1.2s-1.1,0.3-1.9,0.3h-1.5c0-0.3-0.1-0.6-0.2-0.9
	s-0.2-0.7-0.3-0.9h1.9c0.5,0,0.9-0.2,1.2-0.5s0.5-0.9,0.7-1.8c0.1-0.4,0.2-1.1,0.2-1.9s0.1-1.9,0.2-3.1c0-1.2,0.1-2.4,0.1-3.6V8.3
	h-2.9c0,2.2-0.1,4.1-0.3,5.7c-0.2,1.6-0.5,2.9-1,4.1s-1.1,2.1-1.9,2.9s-1.8,1.5-2.9,2.1c-0.1-0.1-0.2-0.3-0.4-0.5s-0.3-0.4-0.5-0.6
	c-0.2-0.2-0.3-0.3-0.4-0.3c1.1-0.5,2-1.1,2.7-1.8s1.3-1.6,1.7-2.6s0.7-2.3,0.8-3.7c0.2-1.5,0.3-3.2,0.3-5.2h-3.7V6.6h10.3V10
	c0,1.2,0,2.4-0.1,3.6S143.7,15.8,143.6,16.7z M117.8,17.7c0.7,0.8,1.6,1.6,2.5,1.3c0.9,1.6,2,2.1,3,2.5c-0.1,0.1-0.2,0.3-0.4,0.5
	s-0.3,0.4-0.5,0.7c-0.1,0.2-0.3,0.4-0.3,0.6c-1.2-0.5-2.3-1.2-3.3-2c-1.1-0.8-2-1.7-2.8-2.8c-0.8-1-1.4-2.2-1.9-3.4
	c-0.4,1.3-1.1,2.4-1.9,3.4c-0.8,1-1.8,2-2.8,2.8c-1.1,0.8-2.2,1.5-3.3,2c-0.1-0.1-0.2-0.3-0.3-0.6c-0.1-0.2-0.3-0.4-0.5-0.7
	c-0.2-0.2-0.3-0.4-0.4-0.5c1.1-0.4,2.1-0.9,3.1-1.6c1-0.7,1.8-1.4,2.5-2.2s1.3-1.7,1.8-2.7c0.4-1,0.7-2,0.8-3h-7.7v-1.8h7.8V5h1.9
	v5.2h7.8V12h-7.8c0.1,1,0.4,2,0.9,2.9C116.4,15.9,117,16.8,117.8,17.7z M95,7.8c0.9-0.1,1.6-0.2,2.1-0.3l0.1,1.7
	c-0.4,0.1-0.9,0.2-1.5,0.2c-0.6,0.1-1.3,0.1-2,0.2c-0.7,0.1-1.5,0.1-2.2,0.2c-0.2,0.5-0.4,0.9-0.7,1.4c-0.3,0.5-0.6,0.9-0.9,1.3
	c0.3-0.2,0.7-0.3,1.1-0.4c0.4-0.1,0.8-0.1,1.1-0.1c0.8,0,1.4,0.2,1.9,0.7s0.7,1.1,0.8,2.1c0.8-0.3,1.6-0.5,2.4-0.8
	c0.8-0.2,1.5-0.4,2.2-0.6l0.5,1.7c-0.9,0.1-1.8,0.3-2.7,0.5c-0.9,0.2-1.7,0.5-2.4,0.7V19H93v-2c-0.8,0.4-1.4,0.8-1.9,1.2
	s-0.7,0.8-0.7,1.2c0,0.5,0.3,0.9,0.9,1.1c0.6,0.2,1.5,0.3,2.6,0.3c0.4,0,0.9,0,1.4-0.1s1-0.1,1.6-0.2c0.5-0.1,1-0.2,1.4-0.3
	c0,0.1,0,0.3,0,0.5s0,0.5,0,0.7s0,0.4,0,0.6v0.1c-0.7,0.2-1.4,0.3-2.2,0.4c-0.8,0.1-1.5,0.1-2.2,0.1c-1,0-1.9-0.1-2.8-0.3
	c-0.8-0.2-1.5-0.5-1.9-1s-0.7-1-0.7-1.7c0-0.6,0.2-1.2,0.6-2.6c0.4,0.4,0.9-0.1,1.6-0.5s1.4-0.8,2.2-1.2v-0.2c0-0.6-0.1-1-0.4-1.3
	c-0.2-0.2-0.6-0.4-1-0.4c-0.7,0-1.4,0.1-2,0.3c-0.7,0.3-1.3,0.7-1.9,1.3c-0.2,0.3-0.5,0.5-0.9,0.9s-0.6,0.6-0.9,0.8l-1.3-1.3
	c0.9-0.7,1.8-1.5,2.7-2.5s1.5-2,2.1-3.1c-0.8,0-1.6,0.1-2.2,0.1c-0.7,0-1.2,0-1.5,0l-0.1-1.8c0.4,0,1.1,0.1,1.9,0.1s1.7,0,2.7-0.1
	c0.2-0.5,0.3-0.9,0.4-1.4s0.2-0.9,0.2-1.3l1.8,0.1c0,0.8-0.2,1.6-0.5,2.4C93.1,7.9,94.1,7.9,95,7.8z M79.2,22.3
	c-0.1,0.2-0.2,0.4-0.3,0.6c-1.2-0.6-2.3-1.3-3.3-2.2s-1.9-1.9-2.7-3c-0.8-1.1-1.4-2.3-1.8-3.6c-0.4,1.3-0.9,2.5-1.7,3.6
	c-0.8,1.1-1.7,2.1-2.8,2.9c-1.1,0.9-2.2,1.6-3.5,2.2c-0.1-0.2-0.3-0.5-0.5-0.8s-0.4-0.6-0.6-0.8c1.6-0.7,3-1.6,4.2-2.7
	c1.2-1.1,2.1-2.3,2.8-3.7c0.7-1.4,1-2.9,1-4.6v-5h1.9v4.5c0,1.3,0.2,2.5,0.7,3.7c0.4,1.2,1.1,2.2,1.8,3.2c0.8,1,1.7,1.9,2.6,2.6
	c1,0.7,2,1.3,3.1,1.8c-0.1,0.1-0.2,0.3-0.4,0.5C79.5,21.9,79.3,22.1,79.2,22.3z M39.5,22.7c-0.2,0.4-0.5,0.6-0.9,0.6
	s-0.7-0.2-1.1-0.5c-0.4-0.4-0.8-0.9-1.1-1.4c-0.3-0.5-0.7-1.1-0.9-1.8c-1.4,1.6-3.1,2.8-5.1,3.8c-0.1-0.2-0.2-0.4-0.4-0.7
	s-0.4-0.5-0.5-0.6c1.1-0.5,2.2-1.1,3.1-1.8c0.9-0.7,1.7-1.5,2.4-2.4c-0.5-1.9-0.9-4.4-1.1-7.6H28V8.8h5.9c0-1.2-0.1-2.4-0.1-3.8h1.7
	c0,0.7,0,1.3,0,1.9c0,0.6,0,1.2,0,1.8h4.6v1.5h-4.5c0.1,2.2,0.3,4.1,0.7,5.7c0.3-0.6,0.6-1.2,0.8-1.8c0.2-0.6,0.5-1.3,0.6-2l1.6,0.5
	c-0.6,2.1-1.4,3.9-2.5,5.4c0.5,1.3,1,2.3,1.7,3.1c0.2-0.4,0.3-0.8,0.4-1.2s0.2-0.8,0.3-1.2c0.1,0.1,0.2,0.1,0.4,0.2
	c0.2,0.1,0.4,0.2,0.6,0.3s0.4,0.2,0.5,0.2c-0.1,0.5-0.3,1-0.5,1.7C39.9,21.7,39.7,22.2,39.5,22.7z M38.5,8.2
	c-0.1,0.1-0.2,0.2-0.3,0.3c-0.1-0.2-0.3-0.5-0.6-0.8c-0.2-0.3-0.5-0.6-0.7-0.8c-0.3-0.3-0.5-0.5-0.7-0.7l1.1-0.9
	C37.5,5.5,37.8,5.7,38,6c0.3,0.3,0.5,0.5,0.8,0.8c0.2,0.3,0.4,0.5,0.6,0.7c-0.1,0.1-0.2,0.2-0.4,0.3C38.8,8,38.6,8.1,38.5,8.2z
	 M21.7,11.9v-1.6H24V5.8h1.7v4.5h2v1.6h-2v5.7c0.4-0.1,0.8-0.3,1.2-0.4c0.4-0.1,0.7-0.3,0.9-0.4v1.7c-0.4,0.1-0.8,0.3-1.3,0.5
	s-1,0.4-1.6,0.6c-0.6,0.2-1.1,0.4-1.6,0.5s-1,0.3-1.4,0.4l-0.5-1.8c0.3-0.1,0.7-0.2,1.1-0.3c0.4-0.1,0.9-0.2,1.4-0.4v-6.2h-2.2V11.9
	z M17.1,22.5c-0.4,0.2-0.9,0.2-1.4,0.2h-5.6c-0.7,0-1.2-0.1-1.5-0.3s-0.4-0.6-0.4-1.2v-7.1l-2.1,0.8l-0.6-1.6l2.7-1V6.5H10v5.2
	l1.9-0.7V5.1h1.7v5.3l3.1-1.2l0.8,0.4v6.7c0,0.5-0.1,0.8-0.4,1.1c-0.2,0.3-0.6,0.5-1.2,0.6c-0.2,0-0.4,0.1-0.7,0.1s-0.5,0.1-0.7,0.1
	c0-0.3-0.1-0.7-0.2-1c-0.1-0.3-0.2-0.6-0.3-0.7h1.1c0.3,0,0.4,0,0.5-0.1s0.2-0.3,0.2-0.5v-4.5l-2.2,0.8v7.1h-1.7v-6.4L10,13.6v7
	c0,0.2,0.1,0.4,0.2,0.5s0.3,0.1,0.6,0.1h4.3c0.4,0,0.7-0.1,0.9-0.2s0.4-0.4,0.5-0.7c0.1-0.4,0.2-0.9,0.3-1.7
	c0.2,0.1,0.5,0.2,0.8,0.3s0.7,0.2,0.9,0.3c-0.1,1.1-0.3,1.9-0.6,2.4C17.8,22,17.5,22.3,17.1,22.5z M2.6,18.3V12H0.2v-1.6h2.4V5.7
	h1.8v4.7h2.3V12H4.4v5.7c0.5-0.2,1-0.4,1.4-0.6c0.4-0.2,0.8-0.3,1.1-0.5v1.7c-0.3,0.2-0.8,0.4-1.4,0.6s-1.1,0.5-1.8,0.7
	c-0.6,0.2-1.2,0.5-1.8,0.7c-0.6,0.2-1.1,0.4-1.5,0.5L0,19c0.3-0.1,0.7-0.2,1.2-0.3C1.6,18.6,2.1,18.5,2.6,18.3z M28.2,11.8h5v4.8h-5
	V11.8z M29.6,15.2h2.1v-2.1h-2.1V15.2z M30.2,18.3c0.6-0.2,1.2-0.3,1.8-0.5c0.6-0.2,1-0.3,1.4-0.4V19c-0.3,0.1-0.7,0.3-1.2,0.4
	c-0.5,0.2-1,0.3-1.6,0.5s-1.2,0.3-1.7,0.5c-0.6,0.2-1.1,0.3-1.6,0.4L26.8,19c0.5-0.1,1-0.2,1.6-0.3C29,18.6,29.6,18.4,30.2,18.3z
	 M50.9,12.2c0.5,0,1,0.2,1.4,0.6c0.4,0.4,0.6,0.8,0.6,1.4c0,0.5-0.2,1-0.6,1.4s-0.8,0.6-1.4,0.6c-0.5,0-1-0.2-1.4-0.6
	s-0.6-0.8-0.6-1.4c0-0.5,0.2-1,0.6-1.4S50.3,12.2,50.9,12.2z M129.1,11.7V5.9h1.9v5.4c0.8-0.2,1.6-0.4,2.4-0.6
	c0.8-0.2,1.4-0.4,1.9-0.5l0.3,1.8c-0.5,0.1-1.1,0.2-2,0.4s-1.7,0.4-2.6,0.6v3.7c0,0.2,0,0.3,0.1,0.3s0.2,0.1,0.5,0.1h0.7
	c0.3,0,0.5-0.1,0.7-0.2c0.2-0.1,0.3-0.3,0.4-0.7c0.1-0.3,0.2-0.9,0.2-1.6c0.2,0.1,0.5,0.2,0.8,0.3s0.6,0.2,0.9,0.3
	c-0.1,1-0.3,1.8-0.5,2.3s-0.6,0.9-0.9,1.1s-0.9,0.3-1.4,0.3H131c-0.7,0-1.1-0.1-1.4-0.3c-0.3-0.2-0.4-0.6-0.4-1.1v-4.1
	c-0.5,0.1-1.1,0.3-1.5,0.4c-0.5,0.1-0.9,0.2-1.2,0.3l-0.4-1.8c0.4-0.1,0.8-0.2,1.4-0.3C127.9,11.9,128.4,11.8,129.1,11.7z
	 M150.3,11.5c0.1-0.9,0.1-1.8,0.2-2.6c0.1-0.8,0.2-1.5,0.3-2l1.8,0.4c-0.1,0.5-0.2,1.1-0.3,1.8c-0.1,0.8-0.2,1.6-0.2,2.5
	c-0.1,0.9-0.1,1.8-0.1,2.8s0,1.9,0,2.8c0,0.9,0.1,1.7,0.1,2.4s0.1,1.3,0.2,1.8l-1.8,0.3c-0.1-0.5-0.2-1.2-0.2-1.9
	c-0.1-0.8-0.1-1.6-0.1-2.5s0-1.9,0-2.8C150.2,13.4,150.2,12.5,150.3,11.5z M156.7,16.4c-0.1,0.3-0.1,0.6-0.1,0.8s0.1,0.5,0.2,0.7
	c0.2,0.5,0.9,0.7,1.9,0.8c0.6,0,1.3,0,2,0c0.7-0.1,1.5-0.2,2.2-0.3s1.3-0.3,1.8-0.4c0,0.1-0.1,0.3-0.1,0.6s0,0.5,0,0.8s0,0.5,0,0.6
	c-0.7,0.2-1.4,0.3-2.1,0.4c-0.7,0.1-1.5,0.2-2.2,0.2s-1.3,0-1.9,0c-0.9-0.1-1.6-0.2-2.2-0.5c-0.6-0.3-0.9-0.8-1.1-1.3
	c-0.3-0.7-0.2-1.6,0.1-2.6L156.7,16.4z M277,14.5v-4.1h-2.5V8.7h2.5V5h1.7v3.7h2v1.7h-2v3.5c0.4-0.2,0.8-0.3,1.2-0.4
	s0.6-0.3,0.9-0.3v1.7c-0.2,0.1-0.4,0.2-0.8,0.4s-0.8,0.3-1.2,0.5v5.7c0,0.6-0.2,1.1-0.5,1.4c-0.3,0.3-0.9,0.4-1.6,0.4h-1.4
	c0-0.2,0-0.4-0.1-0.6s-0.1-0.5-0.1-0.7c-0.1-0.2-0.1-0.4-0.2-0.5h1.4c0.3,0,0.5,0,0.6-0.1s0.2-0.3,0.2-0.5v-4.3
	c-0.5,0.2-1,0.4-1.4,0.5s-0.7,0.2-0.9,0.3l-0.5-1.8c0.3-0.1,0.7-0.2,1.2-0.3S276.5,14.7,277,14.5z M281.3,16.5
	c0.2-1.2,0.3-2.5,0.3-4.2V5.6h10.5v5h-3.6v2.1h4.4v1.6h-4.4v2.2h3.2v6.2h-8v-6.2h3v-2.2h-3.4c-0.1,2-0.5,3.7-1,5.1
	c-0.5,1.4-1.2,2.6-1.9,3.5c-0.1-0.1-0.3-0.2-0.5-0.3s-0.4-0.2-0.6-0.4s-0.4-0.2-0.5-0.2c0.6-0.7,1.1-1.5,1.5-2.4
	C280.8,18.7,281.1,17.7,281.3,16.5z M285.4,18.1v3.2h4.6v-3.2H285.4z M290.3,9.1V7.2h-6.9v1.9H290.3z M286.7,12.8v-2.1h-3.3v1.7
	c0,0.1,0,0.1,0,0.2c0,0.1,0,0.1,0,0.2C283.4,12.8,286.7,12.8,286.7,12.8z M301.2,18c0.6-0.7,1.2-1.4,1.8-2.1
	c0.6-0.7,1.2-1.4,1.7-2.1s0.9-1.2,1.3-1.6c-0.4,0.1-0.9,0.2-1.5,0.3s-1.2,0.2-1.8,0.2c-0.6,0.1-1.1,0.1-1.6,0.2
	c-0.5,0.1-0.9,0.1-1.1,0.1l-0.3-1.7c0.3,0,0.7,0,1.2,0s1.1-0.1,1.7-0.2c0.6-0.1,1.3-0.1,1.9-0.2c0.6-0.1,1.3-0.2,1.8-0.3
	c0.6-0.1,1-0.2,1.4-0.3l1.3,1.1c-0.1,0.1-0.4,0.4-0.7,0.8c-0.3,0.4-0.7,0.8-1.2,1.4c-0.4,0.5-0.9,1.1-1.4,1.6c0.2-0.1,0.4-0.1,0.6,0
	c0.3,0.1,0.5,0.1,0.6,0.2c0.3,0.2,0.6,0.4,0.7,0.8c0.2,0.4,0.2,1,0.2,1.9c0,0.8,0,1.3,0.1,1.7s0.3,0.6,0.5,0.7
	c0.3,0.1,0.6,0.1,1,0.1c0.3,0,0.7,0,1.1-0.1c0.4,0,0.9-0.1,1.3-0.1c0.4-0.1,0.8-0.1,1.1-0.2c-0.1,0.2-0.1,0.5-0.1,0.9s0,0.7,0,1
	c-0.6,0.1-1.2,0.2-1.9,0.2c-0.7,0.1-1.3,0.1-1.7,0.1c-0.8,0-1.4-0.1-1.9-0.3s-0.8-0.6-1-1.1s-0.3-1.2-0.2-2.2c0-0.8,0-1.3-0.1-1.7
	c-0.1-0.3-0.2-0.6-0.5-0.7c-0.5-0.2-1-0.1-1.4,0.4c-0.6,0.8-1.3,1.5-1.9,2.2s-1.1,1.4-1.6,1.9c-0.5,0.6-0.8,1-1.1,1.3L298,21
	c0.3-0.3,0.7-0.7,1.2-1.3C300,19.3,300.6,18.7,301.2,18z M371.2,19.3c0.8,0.3,1.8,0.5,2.9,0.5c1.1,0.1,2.3,0,3.7-0.3
	c-0.1,0.3-0.2,0.6-0.2,1s-0.1,0.7-0.1,1c-1.4,0.2-2.8,0.3-4,0.2s-2.3-0.4-3.2-0.8c-0.9-0.4-1.6-0.9-2-1.5l1-1.3
	C369.7,18.6,370.3,19,371.2,19.3z M397.1,11.9c-0.5-0.4-1-0.7-1.6-1c-0.5-0.3-1-0.6-1.4-0.7l0.9-1.4c0.3,0.1,0.7,0.3,1.1,0.5
	s0.8,0.5,1.2,0.7c0.4,0.3,0.8,0.5,1.2,0.8c0.4,0.3,0.7,0.5,0.9,0.7l-1.1,1.4C398,12.6,397.6,12.3,397.1,11.9z M389.6,17.9
	c0.5-0.2,1.2-0.3,1.9-0.3c0.2,0,0.5,0,0.7,0.1c0.2,0,0.5,0,0.7,0.1v-4.9h1.7v5.4c0.8,0.3,1.5,0.6,2.2,1s1.4,0.8,2,1.3
	c-0.2,0.2-0.4,0.4-0.6,0.7s-0.4,0.6-0.5,0.8c-1-0.9-2-1.6-3.2-2.1c0,1-0.4,1.7-1,2.2s-1.5,0.7-2.7,0.7c-1,0-1.7-0.3-2.2-0.8
	s-0.8-1.1-0.8-1.9c0-0.5,0.2-0.9,0.4-1.3C388.7,18.4,389.1,18.1,389.6,17.9z M390,20.9c0.2,0.2,0.6,0.3,1.1,0.3c0.6,0,1-0.1,1.4-0.4
	s0.5-0.7,0.5-1.2v-0.2c-0.5-0.1-1-0.2-1.5-0.2s-1,0.1-1.3,0.3s-0.5,0.4-0.5,0.8S389.7,20.7,390,20.9z M422.2,8.1H418v3.2h3.5v11.1
	h-11.7V11.3h3.5V8.1h-4V6.4h13L422.2,8.1L422.2,8.1z M417.9,20.6h1.8v-7.5h-1.8V20.6z M413.1,13.1h-1.8v7.5h1.8V13.1z M416.4,8.1
	h-1.8v3.2h1.8V8.1z M416.4,13.1h-1.8v7.5h1.8V13.1z M470.5,17.4c0.2-0.8,0.3-1.8,0.3-2.9v-3.4h8.1v5.8h-6.6c0,0.2-0.1,0.3-0.1,0.5
	s-0.1,0.4-0.1,0.5h6.8v4.9h-7v-4c-0.2,0.7-0.5,1.3-0.9,1.9s-0.7,1.2-1.2,1.7c-0.2-0.1-0.4-0.3-0.8-1.4c-0.3,0.7-0.5,0.6-0.7,0.5
	c0.5-0.6,1-1.2,1.4-1.9C470.1,19,470.3,18.2,470.5,17.4z M477.3,12.3h-4.8v1h4.8V12.3z M477.3,15.7v-1.1h-4.8c0,0.2,0,0.4,0,0.6
	c0,0.2,0,0.4,0,0.6L477.3,15.7L477.3,15.7z M473.5,21.4h3.8v-2.1h-3.8V21.4z M482.4,18.8h-1.7V7h1.7V18.8z M484.3,21.2
	c0.1-0.1,0.2-0.3,0.2-0.5V5.3h1.8v15.9c0,0.6-0.2,1.1-0.5,1.4c-0.3,0.3-0.9,0.4-1.6,0.4h-1.6c0-0.2-0.1-0.5-0.2-0.9
	s-0.2-0.6-0.2-0.8h1.6C484,21.3,484.2,21.3,484.3,21.2z M497.6,13.9h8.9v5.8h-8.9V13.9z M499.5,18.2h5.2v-2.8h-5.2V18.2z
	 M492.3,19.9c0.4-0.2,0.6-0.4,0.9-0.5V14h-2.5v-1.6h4.2v6.9c0.3,0.5,0.8,0.8,1.4,1.1c0.6,0.3,1.3,0.5,2.2,0.6s2,0.2,3.4,0.2
	c1.6,0,3,0,4.1-0.1c1.2-0.1,2.1-0.1,2.9-0.2c0,0.1-0.1,0.3-0.2,0.5c-0.1,0.2-0.1,0.5-0.2,0.8c-0.1,0.3-0.1,0.5-0.1,0.6
	c-0.3,0-0.8,0-1.3,0s-1.1,0-1.7,0c-0.6,0-1.2,0-1.9,0c-0.6,0-1.2,0-1.8,0c-1.4,0-2.5-0.1-3.5-0.2c-1-0.1-1.8-0.4-2.5-0.7
	s-1.3-0.7-1.8-1.2c-0.2,0.2-0.5,0.4-0.9,0.6c-0.4,0.2-0.7,0.5-1.1,0.7s-0.7,0.4-0.9,0.6l-0.8-1.7c0.2-0.1,0.5-0.2,0.9-0.4
	S492,20.1,492.3,19.9z M569.6,10.2c0.4,0.5,0.8,1.1,1.1,1.8c0.4,0.6,0.7,1.2,1,1.8s0.5,1,0.6,1.4c-0.3,0.1-0.6,0.2-1,0.3
	c-0.3,0.1-0.6,0.3-0.8,0.4c-0.1-0.4-0.3-0.8-0.6-1.4c-0.3-0.6-0.6-1.1-0.9-1.7c-0.3-0.6-0.7-1.2-1.1-1.7c-0.4-0.5-0.7-0.9-0.9-1.2
	l1.5-0.9C568.9,9.2,569.2,9.7,569.6,10.2z M583.1,12.1c0.8-0.1,1.6-0.2,2.5-0.4c-0.2-0.3-0.3-0.7-0.5-1.1s-0.3-0.7-0.5-1.1
	c-0.8,0.1-1.6,0.2-2.4,0.3s-1.5,0.2-2.1,0.2l-0.4-1.6c0.6,0,1.2,0,2-0.1c0.7-0.1,1.5-0.1,2.3-0.2c-0.3-1-0.6-1.8-0.7-2.5l1.8-0.2
	c0,0.3,0.1,0.7,0.2,1.1s0.2,0.9,0.4,1.3c0.8-0.1,1.5-0.3,2.2-0.4c0.7-0.2,1.3-0.3,1.7-0.5l0.5,1.6c-0.4,0.1-1,0.3-1.7-0.4
	c-0.7,1.1-1.4,1.2-2.2,1.3c0.1,0.3,0.3,0.7,0.5,1s0.3,0.7,0.5,1c1-0.2,1.9-0.4,2.8-0.7c0.8-0.2,1.5-0.5,1.9-0.7l0.6,1.5
	c-0.5,0.2-1.1,0.5-1.9,0.7c-0.8,0.2-1.7,0.4-2.6,0.6c0.4,0.7,0.9,1.4,1.4,2s1,1.1,1.5,1.6l-1.1,1.3c-0.8-0.4-1.6-0.7-2.4-0.8
	c-0.8-0.1-1.5-0.1-2.2,0c-0.6,0.1-1.2,0.3-1.6,0.6s-0.6,0.6-0.6,1.1c0,0.7,0.3,1.2,0.9,1.5c0.6,0.3,1.4,0.6,2.4,0.6
	c1,0.1,2.1,0.1,3.3,0c-0.1,0.2-0.3,0.5-0.4,0.9c-0.1,0.4-0.2,0.7-0.2,0.9c-1.5,0.1-2.9,0-4-0.2s-2.1-0.6-2.8-1.2
	c-0.7-0.6-1-1.4-1-2.5c0-0.6,0.2-1.2,0.6-1.7s0.9-0.8,1.5-1.1s1.4-0.4,2.2-0.5s1.6,0,2.5,0.1c-0.3-0.3-0.6-0.7-0.8-1.1
	c-0.3-0.4-0.5-0.8-0.8-1.2c-0.9,0.1-1.7,0.3-2.6,0.4c-0.9,0.1-1.7,0.2-2.4,0.3s-1.4,0.1-1.9,0.1l-0.4-1.6c0.5,0,1.1,0,1.8,0
	C581.6,12.3,582.3,12.2,583.1,12.1z M603.6,17.4c0.6-0.2,1.3-0.3,2-0.3c0.3,0,0.5,0,0.8,0s0.5,0.1,0.8,0.1l-0.1-2.9
	c-0.3,0-0.6,0-0.8,0c-0.3,0-0.6,0-0.8,0c-0.7,0-1.2-0.1-1.6-0.2c-0.4-0.1-0.7-0.3-1-0.6s-0.5-0.6-0.7-1.1l1.5-0.7
	c0.2,0.4,0.4,0.6,0.7,0.7c0.3,0.1,0.7,0.2,1.2,0.2c0.3,0,0.5,0,0.8,0s0.5,0,0.8,0c0-0.4,0-0.9,0-1.3c0-0.4,0-0.9,0-1.3
	c-1,0.1-1.9,0.1-2.8,0.1c-0.9,0-1.5,0-2,0l-0.1-1.8c0.5,0,1.1,0.1,2,0.1s1.8,0,2.8-0.1c0-0.5,0-0.9,0-1.4s0-0.9,0-1.3h1.8
	c0,0.4,0,0.8,0,1.2s0,0.9,0,1.3c0.9-0.1,1.7-0.1,2.5-0.2c0.7-0.1,1.3-0.2,1.7-0.3v1.7c-0.4,0.1-0.9,0.2-1.7,0.2
	c-0.7,0.1-1.6,0.1-2.5,0.2c0,0.9,0,1.8,0.1,2.6c0.8-0.1,1.5-0.2,2.2-0.3s1.2-0.2,1.7-0.4v1.8c-0.5,0.1-1.1,0.2-1.7,0.3
	c-0.7,0.1-1.4,0.2-2.1,0.2c0,0.6,0,1.2,0,1.8s0,1.1,0,1.5c0.9,0.3,1.9,0.6,2.7,1c0.9,0.4,1.7,0.9,2.4,1.4c-0.1,0.1-0.3,0.2-0.4,0.5
	c-0.2,0.2-0.3-0.5-0.5,0.6c-0.1,0.2-0.2,0.4-0.3,0.5c-1.2-1-2.5-1.7-3.9-2.2v0.2c0,0.9-0.3,1.6-1,2.1c-0.7,0.6-1.7,0.8-3.1,0.8
	c-1,0-1.8-0.3-2.4-0.9c-0.5-0.5-0.8-1.2-0.8-1.9c0-0.5,0.2-0.9,0.5-1.3C602.6,18,603,17.7,603.6,17.4z M603.8,20.5
	c0.3,0.2,0.6,0.3,1.1,0.4c0.8,0,1.4-0.1,1.7-0.4c0.3-0.3,0.5-0.6,0.5-1c0-0.1,0-0.2,0-0.3s0-0.2,0-0.4c-0.3-0.1-0.6-0.1-0.9-0.2
	c-0.3,0-0.6-0.1-0.9-0.1c-0.6,0-1.1,0.1-1.5,0.3c-0.3,0.2-0.5,0.5-0.5,0.8C603.5,20.1,603.6,20.3,603.8,20.5z M642,17.6
	c0.4-0.2,0.9-0.4,1.4-0.4s1,0.1,1.4,0.4c0.4,0.3,0.8,0.6,1,1s0.4,0.9,0.4,1.4s-0.1,1-0.4,1.4c-0.3,0.4-0.6,0.8-1,1
	c-0.4,0.3-0.9,0.4-1.4,0.4s-1-0.1-1.4-0.4c-0.4-0.3-0.8-0.6-1-1c-0.3-0.4-0.4-0.9-0.4-1.4s0.1-1,0.4-1.4
	C641.2,18.2,641.6,17.8,642,17.6z M642.1,21.4c0.4,0.4,0.8,0.5,1.3,0.5s0.9-0.2,1.3-0.6c0.4-0.4,0.5-0.8,0.5-1.3s-0.2-0.9-0.5-1.3
	c-0.4-0.4-0.8-0.6-1.3-0.6s-1,0.2-1.3,0.6c-0.4,0.4-0.5,0.8-0.5,1.3C641.6,20.6,641.7,21,642.1,21.4z"/>
</svg>
