<?xml version="1.0" encoding="utf-8"?>
<!-- Generator: Adobe Illustrator 27.9.0, SVG Export Plug-In . SVG Version: 6.00 Build 0)  -->
<svg version="1.1" id="レイヤー_1" xmlns="http://www.w3.org/2000/svg" xmlns:xlink="http://www.w3.org/1999/xlink" x="0px"
	 y="0px" width="414.1px" height="173.7px" viewBox="0 0 414.1 173.7" style="enable-background:new 0 0 414.1 173.7;"
	 xml:space="preserve">
<style type="text/css">
	.st0{opacity:0.302;fill-rule:evenodd;clip-rule:evenodd;enable-background:new    ;}
	.st1{enable-background:new    ;}
</style>
<path class="st0" d="M44.2,3.1h340.9V12H44.2V3.1z"/>
<path class="st0" d="M45.1,43.1h295.1V52H45.1V43.1z"/>
<path class="st0" d="M44.2,83.1h206.9V92H44.2V83.1z"/>
<path class="st0" d="M44.2,123.1h148.9v8.9H44.2V123.1z"/>
<path class="st0" d="M44.2,163.1h277.9v8.9H44.2V163.1z"/>
<g class="st1">
	<path d="M0,11.4v-0.7C0.8,9.8,1.5,9,2.1,8.4s1-1.1,1.3-1.6S3.7,6,3.7,5.7c0-0.4-0.1-0.8-0.4-1S2.7,4.3,2.2,4.3
		c-0.4,0-0.8,0.1-1.1,0.3S0.4,5.1,0.2,5.3V3.5c0.3-0.2,0.6-0.4,1-0.6s0.9-0.3,1.4-0.3c0.6,0,1.1,0.1,1.5,0.3s0.8,0.5,1,0.9
		s0.4,0.8,0.4,1.4c0,0.4-0.1,0.8-0.2,1.2S5,7.1,4.7,7.4S4.2,8.1,3.8,8.5S3.1,9.4,2.6,9.9h2.9v1.5H0z"/>
	<path d="M10.1,11.5c-0.5,0-1-0.1-1.4-0.3s-0.8-0.6-1-1C7.3,9.8,7.1,9.3,7,8.8S6.8,7.7,6.8,7.1c0-0.6,0.1-1.2,0.2-1.7s0.3-1,0.6-1.4
		s0.6-0.7,1-1s0.9-0.3,1.4-0.3c0.6,0,1,0.1,1.4,0.3s0.8,0.5,1,1s0.5,0.9,0.6,1.4s0.2,1.1,0.2,1.7c0,0.6-0.1,1.2-0.2,1.7
		s-0.3,1-0.6,1.4c-0.3,0.4-0.6,0.7-1,1S10.6,11.5,10.1,11.5z M10.1,10c0.3,0,0.5-0.1,0.7-0.2s0.3-0.3,0.5-0.6s0.2-0.6,0.3-0.9
		s0.1-0.7,0.1-1.1s0-0.8-0.1-1.1S11.3,5.3,11.2,5c-0.1-0.3-0.3-0.5-0.5-0.6s-0.4-0.2-0.7-0.2S9.6,4.3,9.4,4.4S9,4.8,8.9,5
		C8.8,5.3,8.7,5.6,8.6,6S8.5,6.7,8.5,7.1s0,0.8,0.1,1.1s0.2,0.7,0.3,0.9s0.3,0.5,0.5,0.6S9.8,10,10.1,10z"/>
	<path d="M14.6,11.4v-0.7c0.8-0.9,1.5-1.6,2.1-2.2s1-1.1,1.3-1.6s0.4-0.8,0.4-1.2c0-0.4-0.1-0.8-0.4-1s-0.6-0.4-1.1-0.4
		c-0.4,0-0.8,0.1-1.1,0.3S15,5.1,14.8,5.3V3.5c0.3-0.2,0.6-0.4,1-0.6s0.9-0.3,1.4-0.3c0.6,0,1.1,0.1,1.5,0.3s0.8,0.5,1,0.9
		s0.4,0.8,0.4,1.4c0,0.4-0.1,0.8-0.2,1.2s-0.3,0.7-0.6,1s-0.6,0.7-0.9,1.1s-0.8,0.8-1.2,1.3h2.9v1.5H14.6z"/>
	<path d="M21.9,11.4v-0.7C22.7,9.8,23.4,9,24,8.4s1-1.1,1.3-1.6s0.4-0.8,0.4-1.2c0-0.4-0.1-0.8-0.4-1s-0.6-0.4-1.1-0.4
		c-0.4,0-0.8,0.1-1.1,0.3s-0.7,0.4-0.9,0.7V3.5c0.3-0.2,0.6-0.4,1-0.6s0.9-0.3,1.4-0.3C25,2.7,25.6,2.8,26,3s0.8,0.5,1,0.9
		s0.4,0.8,0.4,1.4c0,0.4-0.1,0.8-0.2,1.2s-0.3,0.7-0.6,1s-0.6,0.7-0.9,1.1S25,9.4,24.5,9.9h2.9v1.5H21.9z"/>
</g>
<g class="st1">
	<path d="M0,51.4v-0.7c0.8-0.9,1.5-1.6,2.1-2.2s1-1.1,1.3-1.6s0.4-0.8,0.4-1.2c0-0.4-0.1-0.8-0.4-1s-0.6-0.4-1.1-0.4
		c-0.4,0-0.8,0.1-1.1,0.3s-0.7,0.4-0.9,0.7v-1.8c0.3-0.2,0.6-0.4,1-0.6s0.9-0.3,1.4-0.3c0.6,0,1.1,0.1,1.5,0.3s0.8,0.5,1,0.9
		s0.4,0.8,0.4,1.4c0,0.4-0.1,0.8-0.2,1.2s-0.3,0.7-0.6,1s-0.6,0.7-0.9,1.1s-0.8,0.8-1.2,1.3h2.9v1.5H0z"/>
	<path d="M10.1,51.5c-0.5,0-1-0.1-1.4-0.3s-0.8-0.6-1-1S7.1,49.3,7,48.8s-0.2-1.1-0.2-1.7c0-0.6,0.1-1.2,0.2-1.7s0.3-1,0.6-1.4
		s0.6-0.7,1-1s0.9-0.3,1.4-0.3c0.6,0,1,0.1,1.4,0.3s0.8,0.5,1,1s0.5,0.9,0.6,1.4s0.2,1.1,0.2,1.7c0,0.6-0.1,1.2-0.2,1.7
		s-0.3,1-0.6,1.4s-0.6,0.7-1,1S10.6,51.5,10.1,51.5z M10.1,50c0.3,0,0.5-0.1,0.7-0.2s0.3-0.3,0.5-0.6s0.2-0.6,0.3-0.9
		s0.1-0.7,0.1-1.1s0-0.8-0.1-1.1s-0.2-0.7-0.3-0.9s-0.3-0.5-0.5-0.6s-0.4-0.2-0.7-0.2s-0.5,0.1-0.7,0.2S9,44.8,8.9,45
		S8.7,45.6,8.6,46s-0.1,0.7-0.1,1.1s0,0.8,0.1,1.1s0.2,0.7,0.3,0.9s0.3,0.5,0.5,0.6S9.8,50,10.1,50z"/>
	<path d="M14.6,51.4v-0.7c0.8-0.9,1.5-1.6,2.1-2.2s1-1.1,1.3-1.6s0.4-0.8,0.4-1.2c0-0.4-0.1-0.8-0.4-1s-0.6-0.4-1.1-0.4
		c-0.4,0-0.8,0.1-1.1,0.3s-0.7,0.4-0.9,0.7v-1.8c0.3-0.2,0.6-0.4,1-0.6s0.9-0.3,1.4-0.3c0.6,0,1.1,0.1,1.5,0.3s0.8,0.5,1,0.9
		s0.4,0.8,0.4,1.4c0,0.4-0.1,0.8-0.2,1.2s-0.3,0.7-0.6,1s-0.6,0.7-0.9,1.1s-0.8,0.8-1.2,1.3h2.9v1.5H14.6z"/>
	<path d="M22.2,51.4v-1.6h5.2v1.6H22.2z M23.9,51.4v-6c-0.3,0.2-0.5,0.4-0.8,0.5s-0.6,0.2-0.8,0.3v-1.7c0.4-0.1,0.8-0.3,1.2-0.6
		s0.7-0.6,1-0.9h1.2v8.5H23.9z"/>
</g>
<g class="st1">
	<path d="M0,91.4v-0.7c0.8-0.9,1.5-1.6,2.1-2.2s1-1.1,1.3-1.6s0.4-0.8,0.4-1.2c0-0.4-0.1-0.8-0.4-1s-0.6-0.4-1.1-0.4
		c-0.4,0-0.8,0.1-1.1,0.3s-0.7,0.4-0.9,0.7v-1.8c0.3-0.2,0.6-0.4,1-0.6s0.9-0.3,1.4-0.3c0.6,0,1.1,0.1,1.5,0.3s0.8,0.5,1,0.9
		s0.4,0.8,0.4,1.4c0,0.4-0.1,0.8-0.2,1.2s-0.3,0.7-0.6,1s-0.6,0.7-0.9,1.1s-0.8,0.8-1.2,1.3h2.9v1.5H0z"/>
	<path d="M10.1,91.5c-0.5,0-1-0.1-1.4-0.3s-0.8-0.6-1-1S7.1,89.3,7,88.8s-0.2-1.1-0.2-1.7c0-0.6,0.1-1.2,0.2-1.7s0.3-1,0.6-1.4
		s0.6-0.7,1-1s0.9-0.3,1.4-0.3c0.6,0,1,0.1,1.4,0.3s0.8,0.5,1,1s0.5,0.9,0.6,1.4s0.2,1.1,0.2,1.7c0,0.6-0.1,1.2-0.2,1.7
		s-0.3,1-0.6,1.4s-0.6,0.7-1,1S10.6,91.5,10.1,91.5z M10.1,90c0.3,0,0.5-0.1,0.7-0.2s0.3-0.3,0.5-0.6s0.2-0.6,0.3-0.9
		s0.1-0.7,0.1-1.1s0-0.8-0.1-1.1s-0.2-0.7-0.3-0.9s-0.3-0.5-0.5-0.6s-0.4-0.2-0.7-0.2s-0.5,0.1-0.7,0.2S9,84.8,8.9,85
		S8.7,85.6,8.6,86s-0.1,0.7-0.1,1.1s0,0.8,0.1,1.1s0.2,0.7,0.3,0.9s0.3,0.5,0.5,0.6S9.8,90,10.1,90z"/>
	<path d="M14.6,91.4v-0.7c0.8-0.9,1.5-1.6,2.1-2.2s1-1.1,1.3-1.6s0.4-0.8,0.4-1.2c0-0.4-0.1-0.8-0.4-1s-0.6-0.4-1.1-0.4
		c-0.4,0-0.8,0.1-1.1,0.3s-0.7,0.4-0.9,0.7v-1.8c0.3-0.2,0.6-0.4,1-0.6s0.9-0.3,1.4-0.3c0.6,0,1.1,0.1,1.5,0.3s0.8,0.5,1,0.9
		s0.4,0.8,0.4,1.4c0,0.4-0.1,0.8-0.2,1.2s-0.3,0.7-0.6,1s-0.6,0.7-0.9,1.1s-0.8,0.8-1.2,1.3h2.9v1.5H14.6z"/>
	<path d="M24.7,91.5c-0.5,0-1-0.1-1.4-0.3s-0.8-0.6-1-1s-0.5-0.9-0.6-1.4s-0.2-1.1-0.2-1.7c0-0.6,0.1-1.2,0.2-1.7s0.3-1,0.6-1.4
		s0.6-0.7,1-1s0.9-0.3,1.4-0.3c0.6,0,1,0.1,1.4,0.3s0.8,0.5,1,1s0.5,0.9,0.6,1.4s0.2,1.1,0.2,1.7c0,0.6-0.1,1.2-0.2,1.7
		s-0.3,1-0.6,1.4s-0.6,0.7-1,1S25.2,91.5,24.7,91.5z M24.7,90c0.3,0,0.5-0.1,0.7-0.2s0.3-0.3,0.5-0.6s0.2-0.6,0.3-0.9
		s0.1-0.7,0.1-1.1s0-0.8-0.1-1.1s-0.2-0.7-0.3-0.9s-0.3-0.5-0.5-0.6s-0.4-0.2-0.7-0.2s-0.5,0.1-0.7,0.2s-0.3,0.4-0.5,0.6
		s-0.2,0.6-0.3,0.9s-0.1,0.7-0.1,1.1s0,0.8,0.1,1.1s0.2,0.7,0.3,0.9s0.3,0.5,0.5,0.6S24.4,90,24.7,90z"/>
</g>
<g class="st1">
	<path d="M0,131.4v-0.7c0.8-0.9,1.5-1.6,2.1-2.2s1-1.1,1.3-1.6s0.4-0.8,0.4-1.2c0-0.4-0.1-0.8-0.4-1s-0.6-0.4-1.1-0.4
		c-0.4,0-0.8,0.1-1.1,0.3s-0.7,0.4-0.9,0.7v-1.8c0.3-0.2,0.6-0.4,1-0.6s0.9-0.3,1.4-0.3c0.6,0,1.1,0.1,1.5,0.3s0.8,0.5,1,0.9
		s0.4,0.8,0.4,1.4c0,0.4-0.1,0.8-0.2,1.2s-0.3,0.7-0.6,1s-0.6,0.7-0.9,1.1s-0.8,0.8-1.2,1.3h2.9v1.5H0z"/>
	<path d="M10.1,131.5c-0.5,0-1-0.1-1.4-0.3s-0.8-0.6-1-1s-0.5-0.9-0.6-1.4s-0.2-1.1-0.2-1.7c0-0.6,0.1-1.2,0.2-1.7s0.3-1,0.6-1.4
		s0.6-0.7,1-1s0.9-0.3,1.4-0.3c0.6,0,1,0.1,1.4,0.3s0.8,0.5,1,1s0.5,0.9,0.6,1.4s0.2,1.1,0.2,1.7c0,0.6-0.1,1.2-0.2,1.7
		s-0.3,1-0.6,1.4s-0.6,0.7-1,1S10.6,131.5,10.1,131.5z M10.1,130c0.3,0,0.5-0.1,0.7-0.2s0.3-0.3,0.5-0.6s0.2-0.6,0.3-0.9
		s0.1-0.7,0.1-1.1s0-0.8-0.1-1.1s-0.2-0.7-0.3-0.9s-0.3-0.5-0.5-0.6s-0.4-0.2-0.7-0.2s-0.5,0.1-0.7,0.2S9,124.8,8.9,125
		s-0.2,0.6-0.3,0.9s-0.1,0.7-0.1,1.1s0,0.8,0.1,1.1s0.2,0.7,0.3,0.9s0.3,0.5,0.5,0.6S9.8,130,10.1,130z"/>
	<path d="M14.9,131.4v-1.6h5.2v1.6H14.9z M16.6,131.4v-6c-0.3,0.2-0.5,0.4-0.8,0.5s-0.6,0.2-0.8,0.3v-1.7c0.4-0.1,0.8-0.3,1.2-0.6
		s0.7-0.6,1-0.9h1.2v8.5H16.6z"/>
	<path d="M24.6,122.7c0.6,0,1.1,0.1,1.6,0.4s0.9,0.6,1.2,1.1s0.4,1.1,0.4,1.7c0,0.5-0.1,0.9-0.2,1.3s-0.3,0.9-0.6,1.3
		s-0.5,0.8-0.8,1.1s-0.5,0.7-0.8,1s-0.5,0.5-0.7,0.7h-2.2c0.3-0.2,0.5-0.5,0.8-0.8s0.6-0.6,0.9-0.9s0.6-0.6,0.8-0.9s0.4-0.6,0.6-0.9
		c-0.2,0.2-0.4,0.3-0.6,0.5s-0.5,0.2-0.8,0.2c-0.5,0-1-0.1-1.4-0.4s-0.7-0.6-1-1s-0.4-0.9-0.4-1.4c0-0.4,0.1-0.8,0.2-1.2
		s0.4-0.7,0.6-1s0.6-0.5,1-0.7S24.2,122.7,24.6,122.7z M24.7,124.2c-0.2,0-0.5,0.1-0.7,0.2s-0.4,0.3-0.5,0.5s-0.2,0.5-0.2,0.7
		c0,0.3,0.1,0.5,0.2,0.7s0.3,0.4,0.5,0.5s0.4,0.2,0.7,0.2c0.3,0,0.5-0.1,0.7-0.2s0.4-0.3,0.5-0.5s0.2-0.4,0.2-0.7
		c0-0.3-0.1-0.5-0.2-0.7s-0.3-0.4-0.5-0.5S24.9,124.2,24.7,124.2z"/>
</g>
<g class="st1">
	<path d="M0,171.4v-0.7c0.8-0.9,1.5-1.6,2.1-2.2s1-1.1,1.3-1.6s0.4-0.8,0.4-1.2c0-0.4-0.1-0.8-0.4-1c-0.3-0.2-0.6-0.4-1.1-0.4
		c-0.4,0-0.8,0.1-1.1,0.3s-0.7,0.4-0.9,0.7v-1.8c0.3-0.2,0.6-0.4,1-0.6c0.4-0.2,0.9-0.3,1.4-0.3c0.6,0,1.1,0.1,1.5,0.3
		s0.8,0.5,1,0.9c0.2,0.4,0.4,0.8,0.4,1.4c0,0.4-0.1,0.8-0.2,1.2c-0.1,0.4-0.3,0.7-0.6,1s-0.6,0.7-0.9,1.1c-0.4,0.4-0.8,0.8-1.2,1.3
		h2.9v1.5H0z"/>
	<path d="M10.1,171.5c-0.5,0-1-0.1-1.4-0.3c-0.4-0.2-0.8-0.6-1-1c-0.3-0.4-0.5-0.9-0.6-1.4c-0.1-0.5-0.2-1.1-0.2-1.7
		c0-0.6,0.1-1.2,0.2-1.7s0.3-1,0.6-1.4c0.3-0.4,0.6-0.7,1-1s0.9-0.3,1.4-0.3c0.6,0,1,0.1,1.4,0.3s0.8,0.5,1,1
		c0.3,0.4,0.5,0.9,0.6,1.4s0.2,1.1,0.2,1.7c0,0.6-0.1,1.2-0.2,1.7c-0.1,0.5-0.3,1-0.6,1.4c-0.3,0.4-0.6,0.7-1,1
		C11.1,171.4,10.6,171.5,10.1,171.5z M10.1,170c0.3,0,0.5-0.1,0.7-0.2c0.2-0.1,0.3-0.3,0.5-0.6c0.1-0.3,0.2-0.6,0.3-0.9
		c0.1-0.4,0.1-0.7,0.1-1.1c0-0.4,0-0.8-0.1-1.1c-0.1-0.4-0.2-0.7-0.3-0.9c-0.1-0.3-0.3-0.5-0.5-0.6c-0.2-0.1-0.4-0.2-0.7-0.2
		s-0.5,0.1-0.7,0.2c-0.2,0.1-0.3,0.4-0.5,0.6c-0.1,0.3-0.2,0.6-0.3,0.9c-0.1,0.4-0.1,0.7-0.1,1.1c0,0.4,0,0.8,0.1,1.1
		c0.1,0.4,0.2,0.7,0.3,0.9c0.1,0.3,0.3,0.5,0.5,0.6C9.6,169.9,9.8,170,10.1,170z"/>
	<path d="M14.9,171.4v-1.6h5.2v1.6H14.9z M16.6,171.4v-6c-0.3,0.2-0.5,0.4-0.8,0.5c-0.3,0.1-0.6,0.2-0.8,0.3v-1.7
		c0.4-0.1,0.8-0.3,1.2-0.6c0.4-0.3,0.7-0.6,1-0.9h1.2v8.5H16.6z"/>
	<path d="M24.6,171.5c-0.6,0-1.1-0.1-1.5-0.3s-0.8-0.5-1-0.9c-0.3-0.4-0.4-0.9-0.4-1.4c0-0.3,0.1-0.6,0.2-0.9s0.3-0.5,0.5-0.7
		c0.2-0.2,0.5-0.3,0.7-0.4c-0.3-0.2-0.6-0.4-0.8-0.7c-0.2-0.3-0.3-0.7-0.3-1.2c0-0.5,0.1-0.9,0.4-1.2c0.2-0.3,0.6-0.6,1-0.8
		c0.4-0.2,0.9-0.3,1.4-0.3c0.5,0,0.9,0.1,1.3,0.3c0.4,0.2,0.7,0.5,1,0.8c0.2,0.3,0.4,0.8,0.4,1.2c0,0.5-0.1,0.9-0.3,1.2
		c-0.2,0.3-0.5,0.5-0.8,0.7c0.2,0.1,0.5,0.2,0.7,0.4c0.2,0.2,0.4,0.4,0.5,0.7s0.2,0.6,0.2,0.9c0,0.5-0.1,1-0.4,1.4
		c-0.3,0.4-0.6,0.7-1,0.9S25.2,171.5,24.6,171.5z M24.6,170.1c0.2,0,0.5-0.1,0.7-0.2c0.2-0.1,0.3-0.3,0.5-0.5s0.2-0.4,0.2-0.6
		c0-0.2-0.1-0.5-0.2-0.6c-0.1-0.2-0.3-0.3-0.5-0.4s-0.4-0.2-0.6-0.2s-0.4,0.1-0.6,0.2s-0.4,0.2-0.5,0.4c-0.1,0.2-0.2,0.4-0.2,0.6
		c0,0.2,0.1,0.5,0.2,0.6s0.3,0.3,0.5,0.5C24.2,170,24.4,170.1,24.6,170.1z M24.6,166.3c0.2,0,0.4,0,0.5-0.1c0.2-0.1,0.3-0.2,0.4-0.4
		c0.1-0.2,0.2-0.4,0.2-0.6c0-0.2-0.1-0.4-0.2-0.6s-0.2-0.3-0.4-0.4c-0.2-0.1-0.4-0.1-0.5-0.1s-0.4,0-0.5,0.1
		c-0.2,0.1-0.3,0.2-0.4,0.4s-0.2,0.4-0.2,0.6c0,0.2,0.1,0.4,0.2,0.6c0.1,0.2,0.2,0.3,0.4,0.4C24.3,166.3,24.4,166.3,24.6,166.3z"/>
</g>
<g class="st1">
	<path d="M398,13.7c-0.5,0-0.9-0.1-1.4-0.2c-0.5-0.1-0.9-0.3-1.2-0.5c-0.4-0.2-0.7-0.4-0.9-0.6v-1.9c0.2,0.2,0.5,0.4,0.9,0.7
		c0.4,0.3,0.7,0.5,1.2,0.7c0.4,0.2,0.9,0.3,1.4,0.3c0.6,0,1.1-0.1,1.6-0.4c0.5-0.2,0.9-0.6,1.1-1c0.3-0.4,0.4-0.9,0.4-1.5
		c0-0.5-0.2-1-0.4-1.4c-0.3-0.4-0.7-0.7-1.2-0.9c-0.5-0.2-1-0.3-1.6-0.3c-0.5,0-0.9,0.1-1.4,0.2c-0.4,0.1-0.8,0.3-1.2,0.4v-7h6.9
		v1.6h-5.2v3.5c0.2-0.1,0.4-0.1,0.7-0.2c0.3-0.1,0.6-0.1,1-0.1c0.7,0,1.4,0.2,2,0.5s1.1,0.8,1.5,1.4c0.4,0.6,0.6,1.3,0.6,2.1
		c0,0.9-0.2,1.7-0.6,2.4c-0.4,0.7-1,1.2-1.7,1.6C399.8,13.5,398.9,13.7,398,13.7z"/>
	<path d="M409.4,0c0.9,0,1.7,0.2,2.4,0.6c0.7,0.4,1.3,1,1.7,1.7c0.4,0.8,0.6,1.7,0.6,2.7c0,0.7-0.1,1.4-0.4,2.1
		c-0.3,0.7-0.6,1.3-1,2c-0.4,0.6-0.8,1.2-1.3,1.8s-0.9,1-1.3,1.5c-0.4,0.4-0.8,0.8-1,1.1h-2.6c0.4-0.4,0.9-0.8,1.4-1.3
		c0.5-0.5,1.1-1,1.7-1.6c0.6-0.6,1.1-1.1,1.5-1.7c0.4-0.6,0.8-1.1,1-1.6c-0.3,0.4-0.7,0.8-1.2,1.1c-0.5,0.3-1,0.5-1.7,0.5
		c-0.8,0-1.6-0.2-2.2-0.6c-0.6-0.4-1.1-0.9-1.4-1.5s-0.5-1.3-0.5-2c0-0.6,0.1-1.1,0.3-1.7c0.2-0.6,0.5-1.1,0.9-1.5
		c0.4-0.5,0.8-0.8,1.4-1.1S408.7,0,409.4,0z M409.5,1.6c-0.5,0-0.9,0.1-1.4,0.4c-0.4,0.2-0.8,0.6-1.1,1c-0.3,0.4-0.4,1-0.4,1.6
		c0,0.5,0.1,1,0.4,1.4c0.3,0.4,0.6,0.7,1.1,0.9c0.4,0.2,0.9,0.3,1.4,0.3c0.5,0,1-0.1,1.4-0.3c0.4-0.2,0.8-0.5,1.1-0.9
		c0.3-0.4,0.4-0.9,0.4-1.4c0-0.6-0.1-1.1-0.4-1.6c-0.3-0.4-0.7-0.8-1.1-1C410.4,1.7,409.9,1.6,409.5,1.6z"/>
</g>
<g class="st1">
	<path d="M354.9,53.4v-2.9h-6v-0.6c0.7-0.8,1.5-1.7,2.4-2.7s1.7-2,2.5-3.2c0.8-1.2,1.6-2.4,2.2-3.7h0.6V49h2.1v1.5h-2.1v2.9H354.9z
		 M351.7,49h3.2v-4.4c-0.5,0.8-1,1.6-1.6,2.3C352.8,47.7,352.2,48.4,351.7,49z"/>
	<path d="M364.8,53.7c-0.9,0-1.7-0.2-2.4-0.6c-0.7-0.4-1.3-1-1.7-1.7c-0.4-0.8-0.6-1.7-0.6-2.7c0-0.7,0.1-1.4,0.4-2.1
		c0.3-0.7,0.6-1.3,1-2c0.4-0.6,0.8-1.2,1.3-1.8s0.9-1,1.3-1.5c0.4-0.4,0.8-0.8,1-1.1h2.6c-0.4,0.4-0.9,0.8-1.4,1.3
		c-0.5,0.5-1.1,1-1.7,1.6c-0.6,0.6-1.1,1.1-1.5,1.7c-0.4,0.6-0.8,1.1-1,1.6c0.3-0.4,0.7-0.8,1.2-1.1c0.5-0.3,1-0.5,1.7-0.5
		c0.9,0,1.6,0.2,2.2,0.6c0.6,0.4,1.1,0.9,1.4,1.5c0.3,0.6,0.5,1.3,0.5,2c0,0.6-0.1,1.1-0.3,1.7c-0.2,0.6-0.5,1.1-0.9,1.5
		c-0.4,0.5-0.8,0.8-1.4,1.1S365.5,53.7,364.8,53.7z M364.7,52.1c0.5,0,1-0.1,1.4-0.4c0.4-0.2,0.8-0.6,1.1-1c0.3-0.4,0.4-1,0.4-1.5
		c0-0.5-0.1-1-0.4-1.4c-0.3-0.4-0.6-0.7-1.1-0.9c-0.4-0.2-0.9-0.3-1.4-0.3c-0.5,0-1,0.1-1.4,0.3c-0.5,0.2-0.8,0.5-1.1,0.9
		c-0.3,0.4-0.4,0.9-0.4,1.4c0,0.6,0.1,1.1,0.4,1.5c0.3,0.4,0.7,0.8,1.1,1C363.7,52,364.2,52.1,364.7,52.1z"/>
</g>
<g class="st1">
	<path d="M264.5,93.7c-0.8,0-1.5-0.1-2.1-0.4s-1.1-0.5-1.4-0.9v-1.9c0.3,0.2,0.6,0.4,0.9,0.7c0.3,0.2,0.7,0.5,1.1,0.6
		c0.4,0.2,0.9,0.3,1.5,0.3c0.8,0,1.4-0.2,1.9-0.6c0.5-0.4,0.8-1,0.8-1.8c0-0.4-0.1-0.8-0.4-1.2c-0.3-0.3-0.6-0.6-1-0.8
		c-0.4-0.2-0.9-0.3-1.4-0.3h-1.2v-1.6h1.2c0.5,0,1-0.1,1.4-0.2c0.4-0.2,0.7-0.4,1-0.7c0.2-0.3,0.4-0.7,0.4-1.1
		c0-0.5-0.1-0.9-0.4-1.2c-0.3-0.3-0.6-0.6-1-0.8s-0.9-0.3-1.4-0.3c-0.7,0-1.2,0.1-1.7,0.4c-0.5,0.3-0.9,0.6-1.3,1v-1.9
		c0.3-0.3,0.8-0.6,1.3-0.8c0.5-0.2,1.1-0.3,1.7-0.3c0.9,0,1.6,0.2,2.3,0.5c0.7,0.3,1.2,0.8,1.6,1.3c0.4,0.6,0.6,1.2,0.6,1.9
		c0,0.6-0.1,1.1-0.4,1.5c-0.3,0.4-0.6,0.7-1,1c-0.4,0.2-0.8,0.4-1.1,0.5c0.3,0.1,0.7,0.3,1.1,0.5c0.4,0.3,0.8,0.6,1,1
		s0.4,0.9,0.4,1.5c0,0.7-0.2,1.4-0.6,2s-0.9,1-1.6,1.4S265.4,93.7,264.5,93.7z"/>
	<path d="M271.6,93.4v-0.7c1.3-1.5,2.5-2.7,3.4-3.8c1-1,1.7-1.9,2.2-2.7c0.5-0.7,0.8-1.4,0.8-2c0-0.8-0.3-1.5-0.8-1.9
		c-0.6-0.4-1.2-0.6-2-0.6c-0.6,0-1.2,0.2-1.8,0.5c-0.6,0.3-1,0.6-1.4,1v-1.8c0.3-0.3,0.8-0.6,1.4-0.9s1.2-0.4,2-0.4
		c0.9,0,1.6,0.2,2.3,0.5c0.7,0.3,1.2,0.8,1.5,1.3c0.4,0.6,0.5,1.3,0.5,2.1c0,0.6-0.1,1.2-0.4,1.8c-0.2,0.6-0.6,1.2-1.1,1.8
		c-0.5,0.6-1,1.2-1.7,1.9c-0.6,0.7-1.4,1.5-2.2,2.4h5.4v1.6H271.6z"/>
</g>
<g class="st1">
	<path d="M202.9,133.4v-0.7c1.3-1.5,2.5-2.7,3.4-3.8c1-1,1.7-1.9,2.2-2.7c0.5-0.7,0.8-1.4,0.8-2c0-0.8-0.3-1.5-0.8-1.9
		c-0.6-0.4-1.2-0.6-2-0.6c-0.6,0-1.2,0.2-1.8,0.5c-0.6,0.3-1,0.6-1.4,1v-1.8c0.3-0.3,0.8-0.6,1.4-0.9s1.2-0.4,2-0.4
		c0.9,0,1.6,0.2,2.3,0.5c0.7,0.3,1.2,0.8,1.5,1.3c0.4,0.6,0.5,1.3,0.5,2.1c0,0.6-0.1,1.2-0.4,1.8c-0.2,0.6-0.6,1.2-1.1,1.8
		c-0.5,0.6-1,1.2-1.7,1.9c-0.6,0.7-1.4,1.5-2.2,2.4h5.4v1.6H202.9z"/>
	<path d="M217.3,133.7c-0.8,0-1.5-0.1-2.1-0.4s-1.1-0.5-1.4-0.9v-1.9c0.3,0.2,0.6,0.4,0.9,0.7c0.3,0.2,0.7,0.5,1.1,0.6
		c0.4,0.2,0.9,0.3,1.5,0.3c0.8,0,1.4-0.2,1.9-0.6c0.5-0.4,0.8-1,0.8-1.8c0-0.4-0.1-0.8-0.4-1.2c-0.3-0.3-0.6-0.6-1-0.8
		c-0.4-0.2-0.9-0.3-1.4-0.3H216v-1.6h1.2c0.5,0,1-0.1,1.4-0.2c0.4-0.2,0.7-0.4,1-0.7c0.2-0.3,0.4-0.7,0.4-1.1c0-0.5-0.1-0.9-0.4-1.2
		c-0.3-0.3-0.6-0.6-1-0.8s-0.9-0.3-1.4-0.3c-0.7,0-1.2,0.1-1.7,0.4c-0.5,0.3-0.9,0.6-1.3,1v-1.9c0.3-0.3,0.8-0.6,1.3-0.8
		c0.5-0.2,1.1-0.3,1.7-0.3c0.9,0,1.6,0.2,2.3,0.5c0.7,0.3,1.2,0.8,1.6,1.3c0.4,0.6,0.6,1.2,0.6,1.9c0,0.6-0.1,1.1-0.4,1.5
		c-0.3,0.4-0.6,0.7-1,1c-0.4,0.2-0.8,0.4-1.1,0.5c0.3,0.1,0.7,0.3,1.1,0.5c0.4,0.3,0.8,0.6,1,1s0.4,0.9,0.4,1.5c0,0.7-0.2,1.4-0.6,2
		s-0.9,1-1.6,1.4S218.1,133.7,217.3,133.7z"/>
</g>
<g class="st1">
	<path d="M336.3,173.4v-2.9h-6v-0.6c0.7-0.8,1.5-1.7,2.4-2.7s1.7-2,2.5-3.2c0.8-1.2,1.6-2.4,2.2-3.7h0.6v8.7h2.1v1.5h-2.1v2.9H336.3
		z M333.1,169h3.2v-4.4c-0.5,0.8-1,1.6-1.6,2.3C334.2,167.7,333.7,168.4,333.1,169z"/>
	<path d="M345.4,173.7c-0.8,0-1.5-0.1-2.1-0.4c-0.6-0.3-1.1-0.5-1.4-0.9v-1.9c0.3,0.2,0.6,0.4,0.9,0.7c0.3,0.2,0.7,0.5,1.1,0.6
		c0.4,0.2,0.9,0.3,1.5,0.3c0.8,0,1.4-0.2,1.9-0.6s0.8-1,0.8-1.8c0-0.4-0.1-0.8-0.4-1.2c-0.3-0.3-0.6-0.6-1-0.8
		c-0.4-0.2-0.9-0.3-1.4-0.3h-1.2v-1.6h1.2c0.5,0,1-0.1,1.4-0.2c0.4-0.2,0.7-0.4,1-0.7c0.2-0.3,0.4-0.7,0.4-1.1
		c0-0.5-0.1-0.9-0.4-1.2c-0.3-0.3-0.6-0.6-1-0.8s-0.9-0.3-1.4-0.3c-0.7,0-1.2,0.1-1.7,0.4c-0.5,0.3-0.9,0.6-1.3,1v-1.9
		c0.3-0.3,0.8-0.6,1.3-0.8c0.5-0.2,1.1-0.3,1.7-0.3c0.9,0,1.6,0.2,2.3,0.5c0.7,0.3,1.2,0.8,1.6,1.3c0.4,0.6,0.6,1.2,0.6,1.9
		c0,0.6-0.1,1.1-0.4,1.5s-0.6,0.7-1,1c-0.4,0.2-0.8,0.4-1.1,0.5c0.3,0.1,0.7,0.3,1.1,0.5c0.4,0.3,0.8,0.6,1,1s0.4,0.9,0.4,1.5
		c0,0.7-0.2,1.4-0.6,2s-0.9,1-1.6,1.4C347,173.5,346.3,173.7,345.4,173.7z"/>
</g>
</svg>
