<?xml version="1.0" encoding="utf-8"?>
<!-- Generator: Adobe Illustrator 27.9.0, SVG Export Plug-In . SVG Version: 6.00 Build 0)  -->
<svg version="1.1" id="レイヤー_1" xmlns="http://www.w3.org/2000/svg" xmlns:xlink="http://www.w3.org/1999/xlink" x="0px"
	 y="0px" width="920px" height="438.3px" viewBox="0 0 920 438.3" style="enable-background:new 0 0 920 438.3;"
	 xml:space="preserve">
<style type="text/css">
	.st0{opacity:0.302;fill-rule:evenodd;clip-rule:evenodd;enable-background:new    ;}
	.st1{opacity:0.102;fill-rule:evenodd;clip-rule:evenodd;enable-background:new    ;}
	.st2{opacity:0.4;enable-background:new    ;}
	.st3{fill-rule:evenodd;clip-rule:evenodd;fill:#EEEEEF;}
	.st4{enable-background:new    ;}
	
		.st5{opacity:0.102;clip-path:url(#SVGID_00000077294120077610138220000006084970135716011158_);fill-rule:evenodd;clip-rule:evenodd;enable-background:new    ;}
	.st6{opacity:0.4;clip-path:url(#SVGID_00000078021185342560356410000002490449795230760586_);enable-background:new    ;}
</style>
<path class="st0" d="M0,51.4h920v2.9H0V51.4z"/>
<path class="st0" d="M0,191.4h920v2.9H0V191.4z"/>
<path class="st0" d="M0,331.4h920v2.9H0V331.4z"/>
<path class="st1" d="M76,223.4c22.1,0,40,18.8,40,40.9s-17.9,40-40,40s-40.9-17.9-40.9-40S53.9,223.4,76,223.4z"/>
<path class="st1" d="M868,223.4c22.1,0,40,18.8,40,40.9s-17.9,40-40,40s-40.9-17.9-40.9-40S845.9,223.4,868,223.4z"/>
<path class="st1" d="M76,357.4c22.1,0,40,18.8,40,40.9s-17.9,40-40,40s-40.9-17.9-40.9-40S53.9,357.4,76,357.4z"/>
<path class="st1" d="M76,83.4c22.1,0,40,18.8,40,40.9s-17.9,40-40,40s-40.9-17.9-40.9-40S53.9,83.4,76,83.4z"/>
<path class="st1" d="M868,83.4c22.1,0,40,18.8,40,40.9s-17.9,40-40,40s-40.9-17.9-40.9-40S845.9,83.4,868,83.4z"/>
<g class="st2">
	<path class="st3" d="M736,83.4c22.1,0,40,18.8,40,40.9s-17.9,40-40,40s-40.9-17.9-40.9-40S713.9,83.4,736,83.4z"/>
	<path d="M736,91.4c17.3,0,32,15.1,32,32.9c0,17.6-14.4,32-32,32c-17.8,0-32.9-14.7-32.9-32c0-8.5,3.5-16.7,9.8-23.1
		C719.3,94.9,727.5,91.4,736,91.4 M736,83.4c-22.1,0-40.9,18.8-40.9,40.9s18.8,40,40.9,40s40-17.9,40-40S758.1,83.4,736,83.4
		L736,83.4z"/>
</g>
<g class="st2">
	<path class="st3" d="M604,83.4c22.1,0,40,18.8,40,40.9s-17.9,40-40,40s-40.9-17.9-40.9-40S581.9,83.4,604,83.4z"/>
	<path d="M604,91.4c17.3,0,32,15.1,32,32.9c0,17.6-14.4,32-32,32c-17.8,0-32.9-14.7-32.9-32c0-8.5,3.5-16.7,9.8-23.1
		C587.3,94.9,595.5,91.4,604,91.4 M604,83.4c-22.1,0-40.9,18.8-40.9,40.9s18.8,40,40.9,40s40-17.9,40-40S626.1,83.4,604,83.4
		L604,83.4z"/>
</g>
<g class="st2">
	<path class="st3" d="M472,83.4c22.1,0,40,18.8,40,40.9s-17.9,40-40,40s-40.9-17.9-40.9-40S449.9,83.4,472,83.4z"/>
	<path d="M472,91.4c17.3,0,32,15.1,32,32.9c0,17.6-14.4,32-32,32c-17.8,0-32.9-14.7-32.9-32c0-8.5,3.5-16.7,9.8-23.1
		C455.3,94.9,463.5,91.4,472,91.4 M472,83.4c-22.1,0-40.9,18.8-40.9,40.9s18.8,40,40.9,40s40-17.9,40-40S494.1,83.4,472,83.4
		L472,83.4z"/>
</g>
<g class="st2">
	<path class="st3" d="M340,83.4c22.1,0,40,18.8,40,40.9s-17.9,40-40,40s-40.9-17.9-40.9-40S317.9,83.4,340,83.4z"/>
	<path d="M340,91.4c17.3,0,32,15.1,32,32.9c0,17.6-14.4,32-32,32c-17.8,0-32.9-14.7-32.9-32c0-8.5,3.5-16.7,9.8-23.1
		C323.3,94.9,331.5,91.4,340,91.4 M340,83.4c-22.1,0-40.9,18.8-40.9,40.9s18.8,40,40.9,40s40-17.9,40-40S362.1,83.4,340,83.4
		L340,83.4z"/>
</g>
<g class="st2">
	<path class="st3" d="M208,83.4c22.1,0,40,18.8,40,40.9s-17.9,40-40,40s-40.9-17.9-40.9-40S185.9,83.4,208,83.4z"/>
	<path d="M208,91.4c17.3,0,32,15.1,32,32.9c0,17.6-14.4,32-32,32c-17.8,0-32.9-14.7-32.9-32c0-8.5,3.5-16.7,9.8-23.1
		C191.3,94.9,199.5,91.4,208,91.4 M208,83.4c-22.1,0-40.9,18.8-40.9,40.9s18.8,40,40.9,40s40-17.9,40-40S230.1,83.4,208,83.4
		L208,83.4z"/>
</g>
<g class="st2">
	<path class="st3" d="M736,223.4c22.1,0,40,18.8,40,40.9s-17.9,40-40,40s-40.9-17.9-40.9-40S713.9,223.4,736,223.4z"/>
	<path d="M736,231.4c17.3,0,32,15.1,32,32.9c0,17.6-14.4,32-32,32c-17.8,0-32.9-14.7-32.9-32c0-8.5,3.5-16.7,9.8-23.1
		C719.3,234.9,727.5,231.4,736,231.4 M736,223.4c-22.1,0-40.9,18.8-40.9,40.9s18.8,40,40.9,40s40-17.9,40-40S758.1,223.4,736,223.4
		L736,223.4z"/>
</g>
<g class="st2">
	<path class="st3" d="M604,223.4c22.1,0,40,18.8,40,40.9s-17.9,40-40,40s-40.9-17.9-40.9-40S581.9,223.4,604,223.4z"/>
	<path d="M604,231.4c17.3,0,32,15.1,32,32.9c0,17.6-14.4,32-32,32c-17.8,0-32.9-14.7-32.9-32c0-8.5,3.5-16.7,9.8-23.1
		C587.3,234.9,595.5,231.4,604,231.4 M604,223.4c-22.1,0-40.9,18.8-40.9,40.9s18.8,40,40.9,40s40-17.9,40-40S626.1,223.4,604,223.4
		L604,223.4z"/>
</g>
<g class="st2">
	<path class="st3" d="M472,223.4c22.1,0,40,18.8,40,40.9s-17.9,40-40,40s-40.9-17.9-40.9-40S449.9,223.4,472,223.4z"/>
	<path d="M472,231.4c17.3,0,32,15.1,32,32.9c0,17.6-14.4,32-32,32c-17.8,0-32.9-14.7-32.9-32c0-8.5,3.5-16.7,9.8-23.1
		C455.3,234.9,463.5,231.4,472,231.4 M472,223.4c-22.1,0-40.9,18.8-40.9,40.9s18.8,40,40.9,40s40-17.9,40-40S494.1,223.4,472,223.4
		L472,223.4z"/>
</g>
<g class="st2">
	<path class="st3" d="M340,223.4c22.1,0,40,18.8,40,40.9s-17.9,40-40,40s-40.9-17.9-40.9-40S317.9,223.4,340,223.4z"/>
	<path d="M340,231.4c17.3,0,32,15.1,32,32.9c0,17.6-14.4,32-32,32c-17.8,0-32.9-14.7-32.9-32c0-8.5,3.5-16.7,9.8-23.1
		C323.3,234.9,331.5,231.4,340,231.4 M340,223.4c-22.1,0-40.9,18.8-40.9,40.9s18.8,40,40.9,40s40-17.9,40-40S362.1,223.4,340,223.4
		L340,223.4z"/>
</g>
<g class="st2">
	<path class="st3" d="M208,223.4c22.1,0,40,18.8,40,40.9s-17.9,40-40,40s-40.9-17.9-40.9-40S185.9,223.4,208,223.4z"/>
	<path d="M208,231.4c17.3,0,32,15.1,32,32.9c0,17.6-14.4,32-32,32c-17.8,0-32.9-14.7-32.9-32c0-8.5,3.5-16.7,9.8-23.1
		C191.3,234.9,199.5,231.4,208,231.4 M208,223.4c-22.1,0-40.9,18.8-40.9,40.9s18.8,40,40.9,40s40-17.9,40-40S230.1,223.4,208,223.4
		L208,223.4z"/>
</g>
<g class="st4">
	<path d="M721.5,273v-3.4h11.3v3.4H721.5z M725.2,273v-12.9c-0.5,0.5-1.1,0.8-1.8,1c-0.6,0.2-1.2,0.4-1.8,0.5v-3.7
		c0.9-0.3,1.8-0.7,2.7-1.3c0.9-0.6,1.6-1.2,2.2-2h2.5V273H725.2z"/>
	<path d="M742.6,273.4c-1.2,0-2.2-0.3-3.1-0.8s-1.6-1.2-2.2-2.1c-0.6-0.9-1-1.9-1.3-3.1c-0.3-1.2-0.5-2.4-0.5-3.7
		c0-1.3,0.2-2.6,0.5-3.7s0.7-2.2,1.3-3c0.6-0.9,1.3-1.6,2.2-2.1s1.9-0.7,3.1-0.7c1.2,0,2.2,0.2,3.1,0.7s1.6,1.2,2.2,2.1
		c0.6,0.9,1,1.9,1.3,3s0.4,2.4,0.4,3.7c0,1.3-0.1,2.5-0.4,3.7c-0.3,1.2-0.7,2.2-1.3,3.1c-0.6,0.9-1.3,1.6-2.2,2.1
		S743.8,273.4,742.6,273.4z M742.6,270.1c0.5,0,1-0.2,1.4-0.5c0.4-0.3,0.8-0.7,1-1.3c0.3-0.6,0.5-1.2,0.6-2c0.1-0.8,0.2-1.6,0.2-2.5
		c0-0.9-0.1-1.7-0.2-2.5c-0.1-0.8-0.3-1.4-0.6-2c-0.3-0.6-0.6-1-1-1.3c-0.4-0.3-0.9-0.5-1.4-0.5s-1,0.2-1.4,0.5
		c-0.4,0.3-0.7,0.8-1,1.3c-0.3,0.6-0.5,1.2-0.6,2c-0.1,0.8-0.2,1.6-0.2,2.5c0,0.9,0.1,1.7,0.2,2.5c0.1,0.8,0.3,1.4,0.6,2
		c0.3,0.6,0.6,1,1,1.3C741.6,269.9,742,270.1,742.6,270.1z"/>
</g>
<g class="st4">
	<path d="M603.5,254.5c1.2,0,2.4,0.3,3.4,0.8c1,0.6,1.9,1.4,2.5,2.4c0.6,1.1,1,2.3,1,3.7c0,1-0.2,2-0.5,2.9
		c-0.3,0.9-0.7,1.9-1.2,2.7c-0.5,0.9-1.1,1.7-1.7,2.5c-0.6,0.8-1.2,1.4-1.7,2.1c-0.6,0.6-1.1,1.1-1.5,1.5H599
		c0.6-0.5,1.2-1.1,1.8-1.7c0.6-0.6,1.3-1.2,1.9-1.9c0.6-0.6,1.2-1.3,1.7-2s0.9-1.3,1.2-1.9c-0.4,0.4-0.9,0.7-1.4,1
		c-0.5,0.3-1.1,0.4-1.7,0.4c-1.1,0-2.1-0.3-3-0.8s-1.6-1.2-2.1-2.1c-0.5-0.9-0.8-1.9-0.8-3c0-0.9,0.2-1.8,0.5-2.6
		c0.3-0.8,0.8-1.5,1.4-2.2s1.3-1.1,2.1-1.5C601.6,254.6,602.5,254.5,603.5,254.5z M603.5,257.8c-0.5,0-1,0.1-1.5,0.4
		c-0.5,0.3-0.8,0.6-1.1,1.1s-0.4,1-0.4,1.6c0,0.5,0.1,1,0.4,1.5s0.6,0.8,1.1,1c0.5,0.3,0.9,0.4,1.5,0.4c0.5,0,1-0.1,1.5-0.4
		c0.4-0.3,0.8-0.6,1.1-1s0.4-0.9,0.4-1.5c0-0.6-0.1-1.1-0.4-1.6s-0.6-0.8-1.1-1.1C604.6,258,604.1,257.8,603.5,257.8z"/>
</g>
<g class="st4">
	<path d="M471.5,273.4c-1.2,0-2.3-0.2-3.2-0.7s-1.7-1.2-2.3-2c-0.6-0.9-0.8-1.9-0.8-3c0-0.7,0.1-1.3,0.4-1.9s0.7-1.1,1.1-1.5
		c0.5-0.4,1-0.7,1.5-0.9c-0.7-0.4-1.3-0.9-1.8-1.5c-0.5-0.6-0.8-1.5-0.8-2.6c0-1,0.3-1.9,0.8-2.7c0.5-0.7,1.2-1.3,2.1-1.7
		c0.9-0.4,1.8-0.6,2.9-0.6c1.1,0,2,0.2,2.9,0.6c0.9,0.4,1.6,1,2.1,1.7c0.5,0.7,0.8,1.6,0.8,2.7c0,1.1-0.3,1.9-0.8,2.6
		c-0.5,0.6-1.1,1.2-1.8,1.5c0.5,0.2,1,0.5,1.5,0.9c0.5,0.4,0.8,0.9,1.1,1.5s0.4,1.2,0.4,1.9c0,1.1-0.3,2.1-0.8,3
		c-0.5,0.9-1.3,1.5-2.3,2S472.8,273.4,471.5,273.4z M471.5,270.2c0.5,0,1-0.1,1.4-0.4c0.4-0.2,0.7-0.6,1-1s0.4-0.9,0.4-1.4
		c0-0.5-0.1-1-0.4-1.4c-0.3-0.4-0.6-0.7-1-0.9s-0.9-0.3-1.3-0.3s-0.9,0.1-1.4,0.3s-0.8,0.5-1,0.9c-0.3,0.4-0.4,0.9-0.4,1.4
		c0,0.5,0.1,1,0.4,1.4s0.6,0.7,1,1C470.5,270.1,471,270.2,471.5,270.2z M471.5,262.2c0.4,0,0.8-0.1,1.2-0.3c0.4-0.2,0.7-0.5,0.9-0.8
		c0.2-0.3,0.3-0.8,0.3-1.2c0-0.5-0.1-0.9-0.3-1.2s-0.5-0.6-0.9-0.8c-0.4-0.2-0.8-0.3-1.2-0.3s-0.8,0.1-1.2,0.3
		c-0.4,0.2-0.7,0.5-0.9,0.8s-0.3,0.8-0.3,1.2c0,0.5,0.1,0.9,0.3,1.2c0.2,0.3,0.5,0.6,0.9,0.8C470.7,262.1,471.1,262.2,471.5,262.2z"
		/>
</g>
<g class="st4">
	<path d="M335.3,273c0-1.3,0.2-2.7,0.5-4s0.8-2.5,1.4-3.8c0.6-1.2,1.2-2.5,1.9-3.7c0.7-1.2,1.4-2.4,2.1-3.5h-8.1v-3.4h13v1.6
		c-1,1.6-1.9,3.1-2.7,4.5c-0.8,1.4-1.5,2.7-2,4c-0.6,1.3-1,2.6-1.3,3.9c-0.3,1.3-0.5,2.8-0.5,4.3H335.3z"/>
</g>
<g class="st4">
	<path d="M207.6,273.2c-1.2,0-2.4-0.3-3.4-0.9s-1.9-1.4-2.5-2.4c-0.6-1-1-2.3-1-3.8c0-1,0.2-2,0.5-2.9c0.3-0.9,0.7-1.9,1.2-2.7
		c0.5-0.9,1-1.7,1.6-2.5c0.6-0.8,1.2-1.5,1.7-2.1c0.6-0.6,1.1-1.1,1.5-1.5h4.8c-0.5,0.5-1.1,1.1-1.8,1.7c-0.6,0.6-1.3,1.2-1.9,1.9
		c-0.6,0.6-1.2,1.3-1.7,2s-0.9,1.3-1.2,2c0.4-0.4,0.9-0.8,1.4-1c0.5-0.3,1.1-0.4,1.6-0.4c1.1,0,2.1,0.3,3,0.8
		c0.9,0.5,1.6,1.2,2.1,2.1c0.5,0.9,0.8,1.9,0.8,3c0,0.9-0.2,1.8-0.5,2.6c-0.3,0.8-0.8,1.5-1.4,2.2c-0.6,0.6-1.3,1.1-2.1,1.5
		S208.6,273.2,207.6,273.2z M207.6,269.8c0.5,0,1-0.1,1.5-0.4s0.8-0.6,1.1-1.1s0.4-1,0.4-1.6c0-0.6-0.1-1.1-0.4-1.5
		c-0.3-0.4-0.6-0.8-1.1-1c-0.4-0.3-0.9-0.4-1.5-0.4c-0.5,0-1,0.1-1.5,0.4c-0.5,0.3-0.8,0.6-1.1,1c-0.3,0.4-0.4,0.9-0.4,1.5
		c0,0.6,0.1,1.1,0.4,1.6s0.6,0.8,1.1,1.1S207.1,269.8,207.6,269.8z"/>
</g>
<g class="st4">
	<path d="M201.9,133v-3.4h11.3v3.4H201.9z M205.6,133v-12.9c-0.5,0.5-1.1,0.8-1.8,1c-0.6,0.2-1.2,0.4-1.8,0.5v-3.7
		c0.9-0.3,1.8-0.7,2.7-1.3c0.9-0.6,1.6-1.2,2.2-2h2.5V133H205.6z"/>
</g>
<g class="st4">
	<path d="M734.6,133.2c-0.8,0-1.5-0.1-2.2-0.3s-1.2-0.4-1.7-0.7s-0.9-0.5-1.2-0.8V128c0.4,0.3,0.9,0.5,1.4,0.8s1,0.5,1.5,0.7
		s1.1,0.3,1.7,0.3c0.7,0,1.4-0.1,2-0.3c0.6-0.2,1-0.5,1.3-0.9s0.5-0.9,0.5-1.5c0-0.6-0.2-1.1-0.5-1.5c-0.3-0.4-0.8-0.7-1.3-1
		c-0.6-0.2-1.2-0.3-1.9-0.3c-0.7,0-1.3,0.1-1.9,0.2s-1.1,0.3-1.6,0.5v-10.5h10v3.4h-6.6v3.9c0.3-0.1,0.7-0.2,1.1-0.3
		s0.9-0.1,1.4-0.1c0.9,0,1.8,0.2,2.6,0.7c0.8,0.4,1.4,1.1,1.9,1.9s0.7,1.7,0.7,2.8c0,1.4-0.3,2.6-0.9,3.6s-1.5,1.7-2.5,2.2
		S735.9,133.2,734.6,133.2z"/>
</g>
<g class="st4">
	<path d="M604.4,133v-4h-7.7v-2.2c1-1.1,2-2.3,3-3.5s2-2.6,3-4s1.9-2.9,2.8-4.6h2.4v11.2h2.5v3.1h-2.5v4H604.4z M601.3,125.8h3.1
		v-4.3c-0.5,0.8-1.1,1.6-1.5,2.3S601.9,125.2,601.3,125.8z"/>
</g>
<g class="st4">
	<path d="M470.6,133.4c-1,0-1.9-0.2-2.7-0.5s-1.5-0.7-2-1.1v-3.6c0.4,0.3,0.8,0.5,1.3,0.8s0.9,0.5,1.4,0.7c0.5,0.2,1.1,0.3,1.7,0.3
		c0.9,0,1.7-0.2,2.4-0.7c0.6-0.4,0.9-1.1,0.9-2c0-0.5-0.2-0.9-0.5-1.3c-0.3-0.3-0.8-0.6-1.3-0.8s-1.1-0.2-1.7-0.2h-1.5v-3h1.5
		c0.6,0,1.2-0.1,1.7-0.2c0.5-0.1,0.9-0.3,1.2-0.6c0.3-0.3,0.5-0.7,0.5-1.2c0-0.5-0.2-1-0.5-1.4c-0.3-0.4-0.7-0.7-1.3-0.9
		c-0.5-0.2-1.1-0.3-1.7-0.3c-0.8,0-1.5,0.2-2.1,0.5c-0.6,0.3-1.2,0.7-1.7,1.2v-3.6c0.5-0.4,1.1-0.8,1.8-1.1c0.7-0.3,1.6-0.4,2.5-0.4
		c1.3,0,2.4,0.2,3.4,0.7c1,0.4,1.8,1.1,2.4,1.9s0.8,1.7,0.8,2.7c0,0.8-0.2,1.5-0.5,2.1s-0.8,1-1.4,1.4c-0.5,0.3-1.1,0.6-1.7,0.7
		c0.6,0.1,1.1,0.4,1.7,0.7c0.5,0.3,1,0.8,1.4,1.4c0.4,0.6,0.5,1.3,0.5,2.1c0,1.1-0.3,2-0.9,2.8s-1.4,1.5-2.4,1.9
		S471.9,133.4,470.6,133.4z"/>
</g>
<g class="st4">
	<path d="M333.6,133.2v-1.5c1.8-1.9,3.2-3.5,4.4-4.8s2.1-2.4,2.7-3.4s0.9-1.8,0.9-2.5c0-0.9-0.3-1.7-0.9-2.2
		c-0.6-0.5-1.4-0.8-2.3-0.8c-0.8,0-1.6,0.2-2.4,0.7s-1.5,0.9-2,1.5v-3.9c0.5-0.5,1.3-0.9,2.2-1.3c0.9-0.4,1.9-0.6,2.9-0.6
		c1.3,0,2.4,0.2,3.3,0.7s1.7,1.1,2.2,1.9c0.5,0.8,0.8,1.8,0.8,2.9c0,0.9-0.1,1.7-0.4,2.5c-0.3,0.8-0.7,1.5-1.2,2.2s-1.2,1.5-1.9,2.4
		c-0.8,0.8-1.6,1.8-2.6,2.9h6.3v3.2H333.6z"/>
</g>
<g class="st4">
	<path d="M184.2,19.9V4h1.1l6.7,7l6.7-7h1.1v15.8h-3.3v-9.6l-4,4.4h-0.9l-4.1-4.4v9.6H184.2z"/>
	<path d="M209.4,20.2c-0.9,0-1.7-0.2-2.4-0.5s-1.4-0.8-2-1.3s-1.1-1.2-1.4-2S203,14.8,203,14s0.2-1.7,0.5-2.4s0.8-1.4,1.4-2
		s1.3-1,2-1.3s1.6-0.5,2.4-0.5s1.7,0.2,2.4,0.5s1.4,0.8,2,1.3s1,1.2,1.4,2s0.5,1.6,0.5,2.4s-0.2,1.7-0.5,2.4s-0.8,1.4-1.4,2
		s-1.3,1-2,1.3S210.2,20.2,209.4,20.2z M209.4,17.3c0.6,0,1.1-0.1,1.6-0.4s0.9-0.6,1.2-1.1s0.4-1.1,0.4-1.8c0-0.7-0.1-1.4-0.4-1.9
		s-0.7-0.9-1.2-1.1s-1-0.4-1.6-0.4c-0.5,0-1.1,0.1-1.6,0.4s-0.9,0.6-1.2,1.1s-0.4,1.1-0.4,1.9c0,0.7,0.1,1.3,0.4,1.8
		s0.7,0.9,1.2,1.1S208.8,17.3,209.4,17.3z"/>
	<path d="M218.5,19.9V8h3v11.8H218.5z M226.3,19.9l0-6.9c0-0.8-0.2-1.4-0.6-1.8s-0.9-0.6-1.6-0.6c-0.5,0-1,0.2-1.5,0.5
		s-0.9,0.8-1.2,1.2V9.7c0.2-0.3,0.6-0.6,0.9-0.9s0.8-0.6,1.2-0.8s0.9-0.3,1.5-0.3c0.8,0,1.5,0.2,2.2,0.5s1.1,0.9,1.5,1.6
		s0.6,1.6,0.6,2.7v7.3H226.3z"/>
	<path d="M234.1,20.3c-0.5,0-1-0.2-1.3-0.6s-0.6-0.8-0.6-1.3c0-0.5,0.2-1,0.6-1.3s0.8-0.6,1.3-0.6s1,0.2,1.3,0.6s0.6,0.8,0.6,1.3
		c0,0.5-0.2,0.9-0.6,1.3S234.7,20.3,234.1,20.3z"/>
</g>
<g class="st4">
	<path d="M58,20.1c-0.9,0-1.8-0.2-2.6-0.5s-1.6-0.7-2.2-1.1v-3.1c0.7,0.5,1.5,0.9,2.3,1.3s1.8,0.5,2.7,0.5c0.7,0,1.2-0.1,1.6-0.4
		s0.6-0.7,0.6-1.2c0-0.3-0.1-0.5-0.3-0.7s-0.4-0.4-0.7-0.6s-0.6-0.3-0.9-0.4l-2.4-0.9c-0.8-0.3-1.4-0.7-1.9-1.1s-0.8-0.9-0.9-1.5
		s-0.3-1.1-0.3-1.7c0-1,0.3-1.8,0.8-2.5s1.2-1.3,2.1-1.7s1.8-0.6,2.7-0.6c0.9,0,1.8,0.1,2.5,0.4s1.4,0.5,1.9,0.9v3.1
		c-0.6-0.4-1.2-0.7-1.9-1s-1.4-0.4-2.2-0.4c-0.4,0-0.8,0.1-1.2,0.2s-0.7,0.3-0.9,0.6s-0.4,0.6-0.4,1c0,0.5,0.2,0.9,0.7,1.2
		s1,0.6,1.7,0.8l1.9,0.8c1.1,0.5,1.9,1,2.4,1.7s0.8,1.4,0.8,2.3c0,0.9-0.3,1.8-0.8,2.5s-1.3,1.3-2.2,1.7S59,20.1,58,20.1z"/>
	<path d="M71.8,20.1c-1,0-1.9-0.2-2.8-0.6s-1.4-1-1.9-1.7s-0.7-1.7-0.7-2.7V8h3v6.5c0,0.9,0.2,1.6,0.6,2.1s1,0.7,1.7,0.7
		s1.2-0.2,1.7-0.7s0.6-1.1,0.6-2.1V8h3v7.1c0,1-0.2,1.9-0.7,2.7s-1.1,1.3-1.9,1.7S72.8,20.1,71.8,20.1z"/>
	<path d="M80.5,19.9V8h3v11.8H80.5z M88.4,19.9l0-6.9c0-0.8-0.2-1.4-0.6-1.8s-0.9-0.6-1.6-0.6c-0.5,0-1,0.2-1.5,0.5
		s-0.9,0.8-1.2,1.2V9.7c0.2-0.3,0.6-0.6,0.9-0.9s0.8-0.6,1.2-0.8s0.9-0.3,1.5-0.3c0.8,0,1.5,0.2,2.2,0.5s1.1,0.9,1.5,1.6
		s0.6,1.6,0.6,2.7v7.3H88.4z"/>
	<path d="M96.2,20.3c-0.5,0-1-0.2-1.3-0.6s-0.6-0.8-0.6-1.3c0-0.5,0.2-1,0.6-1.3s0.8-0.6,1.3-0.6s1,0.2,1.3,0.6s0.6,0.8,0.6,1.3
		c0,0.5-0.2,0.9-0.6,1.3S96.7,20.3,96.2,20.3z"/>
</g>
<g class="st4">
	<path d="M720.2,19.9V4.1h10.7v2.9h-7.5v12.8H720.2z M722,14V11h7.7V14H722z"/>
	<path d="M734.1,19.9V8h3v11.8H734.1z M737.1,13.2v-3c0.4-0.7,0.9-1.3,1.4-1.8s1.2-0.7,1.9-0.7c0.4,0,0.8,0.1,1.1,0.2v3.4
		c-0.2-0.1-0.5-0.2-0.7-0.3s-0.5-0.1-0.8-0.1c-0.7,0-1.2,0.2-1.7,0.7S737.4,12.6,737.1,13.2z"/>
	<path d="M743.2,10.5V8h4.9v2.5H743.2z M746.3,5.9c-0.6,0-1-0.2-1.5-0.6s-0.6-0.9-0.6-1.4c0-0.6,0.2-1,0.6-1.4s0.9-0.6,1.5-0.6
		c0.4,0,0.7,0.1,1,0.3s0.6,0.4,0.8,0.7s0.3,0.6,0.3,1c0,0.3-0.1,0.7-0.3,1s-0.4,0.6-0.8,0.8S746.7,5.9,746.3,5.9z M745.1,19.9V8h3
		v11.8H745.1z"/>
	<path d="M753.2,20.3c-0.5,0-1-0.2-1.3-0.6s-0.6-0.8-0.6-1.3c0-0.5,0.2-1,0.6-1.3s0.8-0.6,1.3-0.6s1,0.2,1.3,0.6s0.6,0.8,0.6,1.3
		c0,0.5-0.2,0.9-0.6,1.3S753.7,20.3,753.2,20.3z"/>
</g>
<g class="st4">
	<path d="M850,20.1c-0.9,0-1.8-0.2-2.6-0.5s-1.6-0.7-2.2-1.1v-3.1c0.7,0.5,1.5,0.9,2.3,1.3s1.8,0.5,2.7,0.5c0.7,0,1.2-0.1,1.6-0.4
		s0.6-0.7,0.6-1.2c0-0.3-0.1-0.5-0.3-0.7s-0.4-0.4-0.7-0.6s-0.6-0.3-0.9-0.4l-2.4-0.9c-0.8-0.3-1.4-0.7-1.9-1.1s-0.8-0.9-0.9-1.5
		s-0.3-1.1-0.3-1.7c0-1,0.3-1.8,0.8-2.5s1.2-1.3,2.1-1.7s1.8-0.6,2.7-0.6c0.9,0,1.8,0.1,2.5,0.4s1.4,0.5,1.9,0.9v3.1
		c-0.6-0.4-1.2-0.7-1.9-1s-1.4-0.4-2.2-0.4c-0.4,0-0.8,0.1-1.2,0.2s-0.7,0.3-0.9,0.6s-0.4,0.6-0.4,1c0,0.5,0.2,0.9,0.7,1.2
		s1,0.6,1.7,0.8l1.9,0.8c1.1,0.5,1.9,1,2.4,1.7s0.8,1.4,0.8,2.3c0,0.9-0.3,1.8-0.8,2.5s-1.3,1.3-2.2,1.7S851,20.1,850,20.1z"/>
	<path d="M863.1,20.2c-0.9,0-1.8-0.2-2.6-0.7s-1.5-1.2-1.9-2.1s-0.7-2-0.7-3.4c0-1.3,0.2-2.5,0.7-3.4s1.2-1.7,2-2.2s1.8-0.8,2.8-0.8
		c0.7,0,1.3,0.1,2,0.4s1.2,0.7,1.6,1.2V8h3v11.8h-3v-2c-0.3,0.6-0.8,1.2-1.5,1.7S864,20.2,863.1,20.2z M863.9,17.2
		c0.5,0,1-0.1,1.5-0.4s0.8-0.7,1.1-1.2s0.4-1.1,0.4-1.8v-1.7c-0.4-0.5-0.9-0.8-1.4-1.1s-1-0.4-1.6-0.4c-0.6,0-1.2,0.2-1.6,0.5
		s-0.8,0.7-1,1.3s-0.4,1.1-0.4,1.7c0,0.6,0.1,1.1,0.4,1.6s0.6,0.9,1,1.2S863.3,17.2,863.9,17.2z"/>
	<path d="M878.5,20.2c-0.7,0-1.3-0.2-1.9-0.5s-1-0.8-1.3-1.3s-0.5-1.2-0.5-2v-5.9h-2V9c0.8-0.3,1.4-0.8,1.9-1.5s0.9-1.6,1.3-2.7h1.8
		V8h3.6v2.5h-3.6v5.1c0,0.5,0.1,0.9,0.4,1.3s0.7,0.5,1.2,0.5c0.5,0,0.9-0.1,1.2-0.2s0.6-0.3,0.9-0.4v2.5c-0.3,0.3-0.7,0.5-1.2,0.7
		S879.2,20.2,878.5,20.2z"/>
	<path d="M885.9,20.3c-0.5,0-1-0.2-1.3-0.6s-0.6-0.8-0.6-1.3c0-0.5,0.2-1,0.6-1.3s0.8-0.6,1.3-0.6s1,0.2,1.3,0.6s0.6,0.8,0.6,1.3
		c0,0.5-0.2,0.9-0.6,1.3S886.4,20.3,885.9,20.3z"/>
</g>
<g class="st4">
	<path d="M580.8,7V4.1h12.9V7H580.8z M585.6,19.9V4.1h3.3v15.7H585.6z"/>
	<path d="M596.3,19.9V3h3v16.9H596.3z M604.1,19.9l0-6.9c0-0.8-0.2-1.4-0.6-1.8s-0.9-0.6-1.6-0.6c-0.5,0-1,0.2-1.5,0.5
		s-0.9,0.8-1.2,1.2V9.7c0.2-0.3,0.6-0.6,0.9-0.9s0.8-0.6,1.2-0.8s0.9-0.3,1.5-0.3c0.8,0,1.5,0.2,2.2,0.5s1.1,0.9,1.5,1.6
		s0.6,1.6,0.6,2.7v7.3H604.1z"/>
	<path d="M615.6,20.1c-1,0-1.9-0.2-2.8-0.6s-1.4-1-1.9-1.7s-0.7-1.7-0.7-2.7V8h3v6.5c0,0.9,0.2,1.6,0.6,2.1s1,0.7,1.7,0.7
		s1.2-0.2,1.7-0.7s0.6-1.1,0.6-2.1V8h3v7.1c0,1-0.2,1.9-0.7,2.7s-1.1,1.3-1.9,1.7S616.6,20.1,615.6,20.1z"/>
	<path d="M625.8,20.3c-0.5,0-1-0.2-1.3-0.6s-0.6-0.8-0.6-1.3c0-0.5,0.2-1,0.6-1.3s0.8-0.6,1.3-0.6s1,0.2,1.3,0.6s0.6,0.8,0.6,1.3
		c0,0.5-0.2,0.9-0.6,1.3S626.3,20.3,625.8,20.3z"/>
</g>
<g class="st4">
	<path d="M449.5,19.9l-5.2-15.7h3.7l2.9,9.9l3.3-9.9h2.2l3.3,9.9l3-9.9h3.7L461,19.9h-2.2l-3.5-10.1l-3.5,10.1H449.5z"/>
	<path d="M474,20.2c-0.9,0-1.7-0.2-2.5-0.5s-1.4-0.7-2-1.3s-1-1.2-1.4-1.9s-0.5-1.6-0.5-2.5c0-1.2,0.3-2.2,0.8-3.2s1.2-1.7,2.1-2.3
		s1.9-0.9,3.1-0.9s2.2,0.2,3,0.8s1.5,1.2,1.9,2.1s0.7,1.9,0.7,3.1v1.3h-8.8v-2h6c0-0.6-0.2-1.1-0.5-1.4s-0.6-0.6-1-0.8
		s-0.8-0.3-1.3-0.3c-0.6,0-1.1,0.2-1.6,0.5s-0.8,0.8-1,1.3s-0.4,1.2-0.4,2c0,0.7,0.1,1.3,0.4,1.8s0.7,0.9,1.3,1.2s1.2,0.4,1.8,0.4
		c0.9,0,1.7-0.2,2.4-0.5s1.2-0.7,1.7-1.1v2.8c-0.2,0.2-0.6,0.4-1,0.7s-0.9,0.4-1.4,0.6S474.5,20.2,474,20.2z"/>
	<path d="M486.4,20.2c-0.9,0-1.8-0.2-2.6-0.7s-1.5-1.2-1.9-2.1s-0.7-2-0.7-3.4c0-1.3,0.2-2.5,0.7-3.4s1.2-1.7,2-2.2s1.8-0.8,2.8-0.8
		c0.7,0,1.3,0.1,2,0.4s1.2,0.7,1.6,1.2V3h3v16.9h-3v-2c-0.3,0.6-0.8,1.2-1.5,1.7S487.2,20.2,486.4,20.2z M487.1,17.2
		c0.5,0,1-0.1,1.5-0.4s0.8-0.7,1.1-1.2s0.4-1.1,0.4-1.8v-1.7c-0.4-0.5-0.9-0.8-1.4-1.1s-1-0.4-1.6-0.4c-0.6,0-1.2,0.2-1.6,0.5
		s-0.8,0.7-1,1.2s-0.4,1.1-0.4,1.7c0,0.6,0.1,1.1,0.4,1.6s0.6,0.9,1,1.2S486.5,17.2,487.1,17.2z"/>
	<path d="M498.2,20.3c-0.5,0-1-0.2-1.3-0.6s-0.6-0.8-0.6-1.3c0-0.5,0.2-1,0.6-1.3s0.8-0.6,1.3-0.6s1,0.2,1.3,0.6s0.6,0.8,0.6,1.3
		c0,0.5-0.2,0.9-0.6,1.3S498.7,20.3,498.2,20.3z"/>
</g>
<g class="st4">
	<path d="M316.8,7V4.1h12.9V7H316.8z M321.6,19.9V4.1h3.3v15.7H321.6z"/>
	<path d="M337.4,20.1c-1,0-1.9-0.2-2.8-0.6s-1.4-1-1.9-1.7s-0.7-1.7-0.7-2.7V8h3v6.5c0,0.9,0.2,1.6,0.6,2.1s1,0.7,1.7,0.7
		s1.2-0.2,1.7-0.7s0.6-1.1,0.6-2.1V8h3v7.1c0,1-0.2,1.9-0.7,2.7s-1.1,1.3-1.9,1.7S338.4,20.1,337.4,20.1z"/>
	<path d="M351.6,20.2c-0.9,0-1.7-0.2-2.5-0.5s-1.4-0.7-2-1.3s-1-1.2-1.4-1.9s-0.5-1.6-0.5-2.5c0-1.2,0.3-2.2,0.8-3.2
		s1.2-1.7,2.1-2.3s1.9-0.9,3.1-0.9s2.2,0.2,3,0.8s1.5,1.2,1.9,2.1s0.7,1.9,0.7,3.1v1.3H348v-2h6c0-0.6-0.2-1.1-0.5-1.4
		s-0.6-0.6-1-0.8s-0.8-0.3-1.3-0.3c-0.6,0-1.1,0.2-1.6,0.5s-0.8,0.8-1,1.3s-0.4,1.2-0.4,2c0,0.7,0.1,1.3,0.4,1.8s0.7,0.9,1.3,1.2
		s1.2,0.4,1.8,0.4c0.9,0,1.7-0.2,2.4-0.5s1.2-0.7,1.7-1.1v2.8c-0.2,0.2-0.6,0.4-1,0.7s-0.9,0.4-1.4,0.6S352.2,20.2,351.6,20.2z"/>
	<path d="M361,20.3c-0.5,0-1-0.2-1.3-0.6s-0.6-0.8-0.6-1.3c0-0.5,0.2-1,0.6-1.3s0.8-0.6,1.3-0.6s1,0.2,1.3,0.6s0.6,0.8,0.6,1.3
		c0,0.5-0.2,0.9-0.6,1.3S361.5,20.3,361,20.3z"/>
</g>
<g>
	<defs>
		<path id="SVGID_1_" d="M167.1,438.3H248v-62.8h-80.9V438.3z"/>
	</defs>
	<clipPath id="SVGID_00000020365992867079237360000002694158187214499007_">
		<use xlink:href="#SVGID_1_"  style="overflow:visible;"/>
	</clipPath>
	
		<path style="opacity:0.102;clip-path:url(#SVGID_00000020365992867079237360000002694158187214499007_);fill-rule:evenodd;clip-rule:evenodd;enable-background:new    ;" d="
		M208,357.4c22.1,0,40,18.8,40,40.9s-17.9,40-40,40s-40.9-17.9-40.9-40S185.9,357.4,208,357.4z"/>
</g>
<g class="st4">
	<path d="M194,407v-3.4h11.3v3.4H194z M197.8,407v-12.9c-0.5,0.5-1.1,0.8-1.8,1c-0.6,0.2-1.2,0.4-1.8,0.5v-3.7
		c0.9-0.3,1.8-0.7,2.7-1.3c0.9-0.6,1.6-1.2,2.2-2h2.5V407H197.8z"/>
	<path d="M209.8,407v-3.4h11.3v3.4H209.8z M213.5,407v-12.9c-0.5,0.5-1.1,0.8-1.8,1c-0.6,0.2-1.2,0.4-1.8,0.5v-3.7
		c0.9-0.3,1.8-0.7,2.7-1.3c0.9-0.6,1.6-1.2,2.2-2h2.5V407H213.5z"/>
</g>
<g>
	<defs>
		<path id="SVGID_00000132053049053659156680000011235044932755417250_" d="M167.1,357.4H248v18.1h-80.9V357.4z"/>
	</defs>
	<clipPath id="SVGID_00000010996777021584054040000004620441641254857113_">
		<use xlink:href="#SVGID_00000132053049053659156680000011235044932755417250_"  style="overflow:visible;"/>
	</clipPath>
	<g style="opacity:0.4;clip-path:url(#SVGID_00000010996777021584054040000004620441641254857113_);enable-background:new    ;">
		<path class="st3" d="M208,357.4c22.1,0,40,18.8,40,40.9s-17.9,40-40,40s-40.9-17.9-40.9-40S185.9,357.4,208,357.4z"/>
		<path d="M208,365.4c17.3,0,32,15.1,32,32.9c0,17.6-14.4,32-32,32c-17.8,0-32.9-14.7-32.9-32c0-8.5,3.5-16.7,9.8-23.1
			S199.5,365.4,208,365.4 M208,357.4c-22.1,0-40.9,18.8-40.9,40.9s18.8,40,40.9,40s40-17.9,40-40S230.1,357.4,208,357.4L208,357.4z"
			/>
	</g>
</g>
</svg>
