<?xml version="1.0" encoding="utf-8"?>
<!-- Generator: Adobe Illustrator 27.9.0, SVG Export Plug-In . SVG Version: 6.00 Build 0)  -->
<svg version="1.1" xmlns="http://www.w3.org/2000/svg" xmlns:xlink="http://www.w3.org/1999/xlink" x="0px" y="0px" width="235.3px"
	 height="235.3px" viewBox="0 0 235.3 235.3" style="enable-background:new 0 0 235.3 235.3;" xml:space="preserve">
<style type="text/css">
	.st0{fill:#FFFFFF;}
	.st1{fill:#717071;}
	.st2{opacity:0.1;fill:#231815;}
	.st3{fill:#CCCCCC;}
	.st4{opacity:0.2;fill:#231815;}
	.st5{fill:#808080;}
	.st6{fill:#F5F5F5;}
</style>
<g id="レイヤー_1">
	<g>
		<circle class="st0" cx="117.6" cy="117.6" r="113.4"/>
		<path class="st1" d="M117.6,4.3C180.3,4.3,231,55,231,117.6S180.3,231,117.6,231S4.3,180.3,4.3,117.6S55,4.3,117.6,4.3 M117.6,0
			c-31.4,0-61,12.2-83.2,34.5C12.2,56.7,0,86.2,0,117.6s12.2,61,34.5,83.2c22.2,22.2,51.8,34.5,83.2,34.5s61-12.2,83.2-34.5
			c22.2-22.2,34.5-51.8,34.5-83.2s-12.2-61-34.5-83.2C178.6,12.2,149.1,0,117.6,0L117.6,0z"/>
	</g>
	<circle class="st2" cx="117.6" cy="117.6" r="3.9"/>
	<path class="st3" d="M38.3,198.6c20.4,20,48.4,32.4,79.3,32.4V117.6L38.3,198.6z"/>
	<g>
		<path class="st4" d="M162.7,54.3l0-24.2h3.8l0,24.2L162.7,54.3z"/>
		<path class="st4" d="M66.5,54.1l0-23.8h3.7l0,23.8L66.5,54.1z"/>
		<path class="st4" d="M76.8,54.1l0-23.8h3.7l0,23.8L76.8,54.1z"/>
		<path class="st4" d="M34.3,113.8c0-4.7-3.8-8.6-8.6-8.6c-4.7,0-8.6,3.8-8.6,8.6s3.8,8.6,8.6,8.6c0,0,0,0,0,0l-5.6,7.4h4.2
			l8.2-10.8l0,0C33.6,117.5,34.3,115.7,34.3,113.8z M20.5,113.8c0-2.9,2.3-5.2,5.2-5.2s5.2,2.3,5.2,5.2s-2.3,5.2-5.2,5.2
			S20.5,116.6,20.5,113.8z"/>
		<path class="st4" d="M202.8,74.3L202.8,74.3c1.7-1.6,2.8-3.8,2.8-6.3c0-4.7-3.8-8.6-8.6-8.6c-4.6,0-8.3,3.6-8.6,8l3.4,0.2
			c0.2-2.7,2.4-4.8,5.2-4.8c2.9,0,5.2,2.3,5.2,5.2c0,0.9-0.2,1.7-0.6,2.4c-0.2,0.3-0.5,0.8-1,1.3l-11.9,12.3h4.7l0,0l11.8,0v-3.7
			h-8.2L202.8,74.3z"/>
		<path class="st4" d="M203.6,164.4h-3.2l0-14.5l-17.3,18.2l13.5,0l0,6.3h3.7l0-6.3h3.2V164.4z M191.9,164.4l4.7-5v5H191.9z"/>
		<path class="st4" d="M45.4,160.5c1.1-1.1,1.7-2.7,1.7-4.3c0-3.5-2.8-6.3-6.3-6.3c-3.5,0-6.3,2.8-6.3,6.3c0,1.7,0.7,3.2,1.7,4.3
			c-2.1,1.4-3.4,3.8-3.4,6.6c0,4.4,3.6,8,8,8c4.4,0,8-3.6,8-8C48.9,164.4,47.5,162,45.4,160.5z M38,156.2c0-1.6,1.3-2.9,2.9-2.9
			c1.6,0,2.9,1.3,2.9,2.9c0,1.6-1.3,2.9-2.9,2.9C39.3,159.1,38,157.8,38,156.2z M40.9,171.7c-2.5,0-4.6-2.1-4.6-4.6
			c0-2.5,2.1-4.6,4.6-4.6c2.5,0,4.6,2.1,4.6,4.6C45.5,169.6,43.4,171.7,40.9,171.7z"/>
		<polygon class="st4" points="69,182.9 69,186.7 80.6,186.7 68,206.8 71.8,206.8 86.7,182.9 		"/>
		<path class="st4" d="M162.2,190.3h-3.3v-3.6l10.1,0v-3.7h-13.8l0,10.8c0,0,7,0,7,0c2.8,0,5.1,2.3,5.1,5.1s-2.3,5.1-5.1,5.1
			c-2.4,0-4.4-1.7-5-3.9l-3.3,0.9c0.9,3.7,4.3,6.5,8.3,6.5c4.7,0,8.6-3.8,8.6-8.6S167,190.3,162.2,190.3z"/>
		<path class="st4" d="M117.7,201.9c-0.3,0-0.5,0-0.8,0l4.6-7.4h-4l-7.1,11.4l0,0c-0.8,1.3-1.3,2.9-1.3,4.6c0,4.7,3.8,8.6,8.6,8.6
			c4.7,0,8.6-3.8,8.6-8.6S122.4,201.9,117.7,201.9z M117.7,215.7c-2.9,0-5.2-2.3-5.2-5.2c0-2.9,2.3-5.2,5.2-5.2s5.2,2.3,5.2,5.2
			C122.9,213.3,120.5,215.7,117.7,215.7z"/>
		<path class="st4" d="M32.4,83.9l0-23.8h3.7l0,23.8L32.4,83.9z"/>
		<path class="st4" d="M53.5,67c0-3.9-3.2-7.1-7.1-7.1c-3.9,0-7.1,3.2-7.1,7.1c0,0.6,0,10,0,10.6c0,3.9,3.2,7.1,7.1,7.1
			c3.9,0,7.1-3.2,7.1-7.1C53.5,76.9,53.5,67.5,53.5,67z M50.1,77.5c0,2-1.6,3.7-3.7,3.7c-2,0-3.7-1.6-3.7-3.7c0-0.7,0-3,0-5.3v-3.6
			c0-0.8,0-1.3,0-1.6c0-2,1.6-3.7,3.7-3.7c2,0,3.7,1.6,3.7,3.7C50.1,68.4,50.1,76.1,50.1,77.5z"/>
		<path class="st4" d="M213.2,114l5.6-8.1l-15.8,0v3.7l9.3,0l-4.7,6.8l3.2,0.4c2.4,0.4,4.2,2.5,4.2,5c0,2.8-2.3,5.1-5.1,5.1
			c-2.8,0-5-2.2-5.1-5l-3.2,2c1,3.7,4.3,6.4,8.3,6.4c4.7,0,8.6-3.8,8.6-8.6C218.4,118.3,216.3,115.3,213.2,114z"/>
		<path class="st4" d="M107.9,40.7l0-23.8h3.7l0,23.8L107.9,40.7z"/>
		<path class="st4" d="M127.9,31.1L127.9,31.1c1.7-1.6,2.8-3.8,2.8-6.3c0-4.7-3.8-8.6-8.6-8.6c-4.6,0-8.3,3.6-8.6,8l3.4,0.2
			c0.2-2.7,2.4-4.8,5.2-4.8c2.9,0,5.2,2.3,5.2,5.2c0,0.9-0.2,1.7-0.6,2.4c-0.2,0.3-0.5,0.8-1,1.3l-11.9,12.3h4.7l0,0l11.8,0V37h-8.2
			L127.9,31.1z"/>
	</g>
	<g>
		<path class="st5" d="M109.7,115c-0.5,1.8-0.3,3.7,0.4,5.3l-33.5,34.2c-0.4,0.4-0.8,1.2-1,2c-0.1,0.3-0.1,0.6-0.1,0.8l0,1.7
			c0,0.3,0.1,0.5,0.3,0.7c0.2,0.2,0.5,0.3,0.7,0.3l1.7,0c0.9,0,2.2-0.6,2.8-1.2l33.5-34.2c0.3,0.1,0.7,0.3,1.1,0.4
			c4.4,1.1,8.9-1.5,10-5.9c1.1-4.4-1.5-8.9-5.9-10C115.4,107.9,110.9,110.6,109.7,115z"/>
		<path class="st6" d="M122.4,118.2c-0.7,2.6-3.3,4.2-5.9,3.5c-2.6-0.7-4.2-3.3-3.5-5.9c0.7-2.6,3.3-4.2,5.9-3.5
			C121.5,113,123.1,115.7,122.4,118.2z"/>
	</g>
	<g>
		<path class="st5" d="M129.5,204.6l1-1.3c0.1-0.1,0.2-0.3,0.3-0.4c0.4-0.8,0.6-1.8,0.5-2.5l-9.6-76.1c1.3-0.7,2.5-1.9,3.3-3.3
			c2.1-4,0.6-9-3.4-11.1c-4-2.1-9-0.6-11.1,3.4c-2.1,4-0.6,9,3.4,11.1c0.6,0.3,1.1,0.5,1.7,0.7l9.6,76.1c0.1,0.8,0.8,2.1,1.5,2.6
			l1.3,1C128.5,205.1,129.1,205,129.5,204.6z"/>
		<path class="st6" d="M113.4,114.8c1.3-2.4,4.2-3.3,6.6-2c2.4,1.3,3.3,4.2,2,6.6c-1.2,2.4-4.2,3.3-6.6,2
			C113.1,120.1,112.2,117.1,113.4,114.8z"/>
	</g>
	<g>
		<path class="st6" d="M112.9,116.8c0.1-2.7,2.4-4.7,5.1-4.6c2.7,0.1,4.7,2.4,4.6,5.1c-0.1,2.7-2.4,4.7-5.1,4.6
			C114.8,121.7,112.7,119.5,112.9,116.8z"/>
		<path class="st5" d="M143.1,125.4c0.4-1.1-0.2-2.2-1.3-2.6l-11.7-3.8c-0.7-0.2-1.5,0-2,0.4l-8.4-2.7c-0.2-0.9-0.9-1.6-1.9-1.6
			c-0.6,0-1.1,0.2-1.5,0.5L24.2,85.4c-0.5-0.2-1.1,0.1-1.3,0.7c0,0.1,0,0.2,0,0.3c0,0.5,0.3,0.9,0.7,1l92.2,30.1
			c0.2,0.9,0.9,1.6,1.9,1.6c0.6,0,1.1-0.2,1.5-0.5l8.4,2.7c0.1,0.7,0.6,1.3,1.4,1.5l11.7,3.8C141.6,127,142.8,126.4,143.1,125.4z"/>
	</g>
</g>
<g id="レイヤー_2">
</g>
</svg>
