<?xml version="1.0" encoding="utf-8"?>
<!-- Generator: Adobe Illustrator 27.9.0, SVG Export Plug-In . SVG Version: 6.00 Build 0)  -->
<svg version="1.1" id="レイヤー_1" xmlns="http://www.w3.org/2000/svg" xmlns:xlink="http://www.w3.org/1999/xlink" x="0px"
	 y="0px" width="226.8px" height="226.8px" viewBox="0 0 226.8 226.8" style="enable-background:new 0 0 226.8 226.8;"
	 xml:space="preserve">
<style type="text/css">
	.st0{fill:#E8E8E8;stroke:#FFFFFF;stroke-width:0.2835;stroke-miterlimit:10;}
	.st1{fill:#FFFFFF;stroke:#FFFFFF;stroke-width:0.2835;stroke-miterlimit:10;}
	.st2{fill:#D1D1D1;stroke:#FFFFFF;stroke-width:0.2835;stroke-miterlimit:10;}
	.st3{fill:#B9B9B9;stroke:#FFFFFF;stroke-width:0.2835;stroke-miterlimit:10;}
	.st4{fill:#A2A2A2;stroke:#FFFFFF;stroke-width:0.2835;stroke-miterlimit:10;}
	.st5{fill:#8B8B8B;stroke:#FFFFFF;stroke-width:0.2835;stroke-miterlimit:10;}
	.st6{fill:#747474;stroke:#FFFFFF;stroke-width:0.2835;stroke-miterlimit:10;}
	.st7{fill:#5D5D5D;stroke:#FFFFFF;stroke-width:0.2835;stroke-miterlimit:10;}
	.st8{fill:#464646;stroke:#FFFFFF;stroke-width:0.2835;stroke-miterlimit:10;}
	.st9{fill:#2E2E2E;stroke:#FFFFFF;stroke-width:0.2835;stroke-miterlimit:10;}
	.st10{fill:#171717;stroke:#FFFFFF;stroke-width:0.2835;stroke-miterlimit:10;}
	.st11{stroke:#FFFFFF;stroke-width:0.2835;stroke-miterlimit:10;}
	.st12{fill:#FFFFFF;}
	.st13{fill:#4D4D4D;stroke:#FFFFFF;stroke-width:0.2835;stroke-miterlimit:10;}
	.st14{display:none;}
	.st15{display:inline;fill:#DC007A;}
	.st16{display:inline;fill:#850E84;}
	.st17{display:inline;fill:#ED6A02;}
	.st18{display:inline;fill:#E5001E;}
	.st19{display:inline;fill:#71BB48;}
	.st20{display:inline;fill:#395DAA;}
	.st21{display:inline;fill:#FABD00;}
	.st22{display:inline;fill-rule:evenodd;clip-rule:evenodd;fill:#FABD00;}
	.st23{display:inline;fill:#BCD400;}
	.st24{fill:#BCD400;}
	.st25{font-family:'ShinGoPr5-DeBold';}
	.st26{font-size:8px;}
	.st27{display:inline;}
	.st28{fill:#ED6A02;}
	.st29{font-family:'LinotypeUnivers-BasicHeavy';}
	.st30{font-size:11px;}
	.st31{fill:#E5001E;}
	.st32{fill:#71BB48;}
	.st33{fill:#850E84;}
	.st34{fill:#395DAA;}
	.st35{display:none;fill-rule:evenodd;clip-rule:evenodd;fill:#E5001E;}
	.st36{display:none;fill:#283F68;}
	.st37{display:none;fill:none;stroke:#283F68;stroke-width:0.42;stroke-linecap:round;stroke-linejoin:round;stroke-miterlimit:10;}
	.st38{display:none;fill:none;stroke:#283F68;stroke-width:0.42;stroke-linecap:round;stroke-miterlimit:10;}
	
		.st39{display:inline;fill:none;stroke:#283F68;stroke-width:0.42;stroke-linecap:round;stroke-linejoin:round;stroke-miterlimit:10;}
</style>
<g>
	<path class="st0" d="M89,2.6l24.4,110.8L101.9,0.6C97.6,1,93.3,1.7,89,2.6z"/>
	<path class="st1" d="M113.4,113.4V0c0,0,0,0,0,0c-3.9,0-7.7,0.2-11.5,0.6L113.4,113.4z"/>
	<path class="st2" d="M74.8,6.7l38.6,106.6L89,2.6C84.2,3.7,79.4,5.1,74.8,6.7z"/>
	<path class="st3" d="M55.5,15.9l57.9,97.5L74.8,6.7C68,9.2,61.6,12.3,55.5,15.9z"/>
	<path class="st4" d="M113.4,113.4L55.5,15.9c-13.2,7.9-24.7,18.3-33.7,30.7L113.4,113.4z"/>
	<path class="st5" d="M2.1,91.4l111.2,22L21.8,46.6C12.2,59.7,5.4,74.9,2.1,91.4z"/>
	<path class="st6" d="M2.1,91.4c-1.4,7.1-2.1,14.5-2.1,22c0,12.7,2.1,24.9,6,36.4l107.4-36.4L2.1,91.4z"/>
	<path class="st7" d="M6,149.7c7.7,22.6,22.3,42,41.3,55.7l66.2-92.1L6,149.7z"/>
	<path class="st8" d="M113.4,226.8l0-113.4l-66.2,92.1C65.8,218.9,88.7,226.8,113.4,226.8z"/>
	<path class="st9" d="M113.4,226.8c28.8,0,55.1-10.8,75.1-28.5l-75.1-84.9L113.4,226.8C113.4,226.8,113.4,226.8,113.4,226.8z"/>
	<path class="st10" d="M113.4,113.4l75.1,84.9c21-18.6,35-44.8,37.8-74.2L113.4,113.4z"/>
	<path class="st11" d="M226.8,113.4C226.8,50.8,176,0,113.4,0v113.4l112.9,10.7C226.6,120.5,226.8,117,226.8,113.4z"/>
</g>
<ellipse transform="matrix(0.8446 -0.5354 0.5354 0.8446 -43.0857 78.3304)" class="st12" cx="113.4" cy="113.4" rx="31.9" ry="31.9"/>
<path class="st13" d="M39.7,113.4c0-40.7,33-73.7,73.7-73.7c40.7,0,73.7,33,73.7,73.7c0,40.7-33,73.7-73.7,73.7
	S39.7,154.1,39.7,113.4z"/>
<g class="st14">
	<path class="st15" d="M296.9,221v60.7h-60.7V221H296.9 M297.6,220.3h-62.1v62.1h62.1V220.3L297.6,220.3z"/>
</g>
<g class="st14">
	<path class="st16" d="M296.9,285.3V346h-60.7v-60.7H296.9 M297.6,284.6h-62.1v62.1h62.1V284.6L297.6,284.6z"/>
</g>
<g class="st14">
	<path class="st17" d="M168.2,156.6v60.7h-60.7v-60.7H168.2 M168.9,155.9h-62.1V218h62.1V155.9L168.9,155.9z"/>
</g>
<g class="st14">
	<path class="st18" d="M232.6,156.6v60.7h-60.7v-60.7H232.6 M233.3,155.9h-62.1V218h62.1V155.9L233.3,155.9z"/>
</g>
<g class="st14">
	<path class="st19" d="M168.2,349.7v60.7h-60.7v-60.7H168.2 M168.9,348.9h-62.1V411h62.1V348.9L168.9,348.9z"/>
</g>
<g class="st14">
	<path class="st20" d="M232.6,349.7v60.7h-60.7v-60.7H232.6 M233.3,348.9h-62.1V411h62.1V348.9L233.3,348.9z"/>
</g>
<g class="st14">
	<path class="st21" d="M103.9,221v60.7H43.2V221H103.9 M104.6,220.3H42.5v62.1h62.1V220.3L104.6,220.3z"/>
</g>
<g class="st14">
	<path class="st22" d="M80.7,246.9l2.6,2.2c0.2,0.1,0.1,0.4-0.1,0.5L82,250c0.4,2.8-0.5,5.7-2.7,7.7l-0.9-1c1.8-1.6,2.6-4,2.3-6.3
		l-1.2,0.3c-0.2,0.1-0.4-0.2-0.3-0.4l1.2-3.2C80.4,246.9,80.6,246.8,80.7,246.9L80.7,246.9z M77.9,258.5l-2.2,2.6
		c-0.1,0.2-0.4,0.1-0.5-0.1l-0.3-1.3c-2.8,0.4-5.7-0.5-7.7-2.7l1-0.9c1.6,1.8,4,2.6,6.3,2.3l-0.3-1.2c-0.1-0.2,0.2-0.4,0.4-0.3
		l3.2,1.2C78,258.1,78,258.3,77.9,258.5L77.9,258.5z M66.4,255.6l-2.6-2.2c-0.2-0.1-0.1-0.4,0.1-0.5l1.3-0.3
		c-0.4-2.8,0.5-5.7,2.7-7.7l0.9,1c-1.8,1.6-2.6,4-2.3,6.3l1.2-0.3c0.2-0.1,0.4,0.2,0.3,0.4l-1.2,3.2
		C66.8,255.7,66.5,255.8,66.4,255.6z M69.2,244.1l2.2-2.6c0.1-0.2,0.4-0.1,0.5,0.1l0.3,1.3c2.8-0.4,5.7,0.5,7.7,2.7l-1,0.9
		c-1.6-1.8-4-2.6-6.3-2.3l0.3,1.2c0.1,0.2-0.2,0.4-0.4,0.3l-3.2-1.2C69.1,244.5,69.1,244.3,69.2,244.1L69.2,244.1z M71.4,252.2
		l1-0.1c0.1,0.5,0.3,0.8,0.6,0.9v-1.5c-0.8-0.2-1.5-0.6-1.5-1.5c0-0.9,0.7-1.3,1.5-1.4V248H74v0.6c0.8,0.1,1.5,0.6,1.5,1.6l-1.1,0
		c-0.1-0.4-0.2-0.6-0.5-0.7v1.2c0.9,0.2,1.7,0.6,1.7,1.7c0,1-0.8,1.5-1.7,1.6v0.6h-0.9V254C72.1,253.9,71.5,253.3,71.4,252.2
		L71.4,252.2z M74,253.1c0.3-0.1,0.6-0.3,0.6-0.7c0-0.3-0.3-0.5-0.6-0.6V253.1z M73.1,249.5c-0.2,0.1-0.5,0.2-0.5,0.5
		c0,0.2,0.2,0.4,0.5,0.5V249.5z"/>
</g>
<g class="st14">
	<path class="st23" d="M103.9,285.3V346H43.2v-60.7H103.9 M104.6,284.6H42.5v62.1h62.1V284.6L104.6,284.6z"/>
</g>
<g>
	<path class="st24" d="M86.7,316.2l-2.5-0.4l-1-2.6c-0.3-0.7-0.9-1.1-1.7-1.1h-2.3l0.3-1.4c0.1-0.6,0-1.1-0.4-1.6
		c-0.4-0.4-0.9-0.6-1.4-0.6H67.6c-0.9,0-1.6,0.6-1.8,1.5l-1.3,7.1c-0.1,0.6,0,1.1,0.4,1.6c0.1,0.1,0.1,0.2,0.3,0.2l-0.2,1.2
		c-0.1,0.3,0.2,0.6,0.5,0.6h1c-0.1,1.1,0.7,2,1.8,2c1.2,0,2.3-0.9,2.6-2h9.9c-0.1,1.1,0.7,2,1.8,2c1.1,0,2.3-0.9,2.6-2h1.3
		c0.2,0,0.4-0.2,0.5-0.4l0.6-3.1C87.5,316.7,87.2,316.3,86.7,316.2z M69.8,320.6c-0.1,0.6-0.7,1.2-1.4,1.2c-0.6,0-1.1-0.5-1-1.2
		s0.7-1.2,1.4-1.2S69.9,319.9,69.8,320.6z M79.2,315.8l0.4-2.2h1.7c0.3,0,0.6,0.2,0.6,0.4l0.7,1.8H79.2z M84.1,320.6
		c-0.1,0.6-0.7,1.2-1.4,1.2c-0.6,0-1.1-0.5-1-1.2c0.1-0.6,0.7-1.2,1.4-1.2C83.8,319.4,84.3,319.9,84.1,320.6z"/>
	<path class="st24" d="M63.9,310.8H61c-0.3,0-0.6,0.3-0.6,0.6c0,0.4,0.3,0.6,0.6,0.6h2.9c0.3,0,0.6-0.3,0.6-0.6
		C64.5,311.1,64.2,310.8,63.9,310.8z"/>
	<path class="st24" d="M63.5,313h-2.9c-0.3,0-0.6,0.3-0.6,0.6c0,0.4,0.3,0.6,0.6,0.6h2.9c0.3,0,0.6-0.3,0.6-0.6
		C64.1,313.3,63.8,313,63.5,313z"/>
	<path class="st24" d="M63.1,315.2h-2.9c-0.3,0-0.6,0.3-0.6,0.6s0.3,0.6,0.6,0.6h2.9c0.3,0,0.6-0.3,0.6-0.6S63.4,315.2,63.1,315.2z"
		/>
</g>
<g class="st14">
	<path class="st17" d="M138.7,188.1c0.7-0.4,0.9-1.3,0.4-2c-0.4-0.7-1.3-0.9-2-0.4c-0.7,0.4-0.9,1.3-0.4,2
		C137.1,188.4,138,188.6,138.7,188.1z"/>
	<path class="st17" d="M144.7,188.1c0.7-0.4,0.9-1.3,0.4-2c-0.4-0.7-1.3-0.9-2-0.4c-0.7,0.4-0.9,1.3-0.4,2
		C143.1,188.4,144,188.6,144.7,188.1z"/>
	<path class="st17" d="M132.7,188.1c0.7-0.4,0.9-1.3,0.4-2c-0.4-0.7-1.3-0.9-2-0.4c-0.7,0.4-0.9,1.3-0.4,2
		C131.1,188.4,132,188.6,132.7,188.1z"/>
</g>
<g class="st14">
	<text transform="matrix(1 0 0 1 65.5592 237.2394)" class="st18 st25 st26">文化</text>
	<text transform="matrix(1 0 0 1 65.5592 203.5659)" class="st18 st25 st26">体育</text>
	<text transform="matrix(1 0 0 1 65.5592 191.321)" class="st18 st25 st26">生産</text>
	<text transform="matrix(1 0 0 1 65.5592 178.5659)" class="st18 st25 st26">物流</text>
	<text transform="matrix(1 0 0 1 65.5592 166.321)" class="st18 st25 st26">住宅</text>
	<text transform="matrix(1 0 0 1 129.9054 172.8931)" class="st18 st25 st26">福祉</text>
	<text transform="matrix(1 0 0 1 258.5983 237.2397)" class="st18 st25 st26">医療</text>
	<text transform="matrix(1 0 0 1 258.5983 301.5862)" class="st18 st25 st26">教育</text>
	<text transform="matrix(1 0 0 1 194.2517 365.9323)" class="st18 st25 st26">宿泊</text>
	<text transform="matrix(1 0 0 1 129.9054 365.9326)" class="st18 st25 st26">庁舎</text>
	<text transform="matrix(1 0 0 1 190.2517 172.8931)" class="st18 st25 st26">事務所</text>
	<text transform="matrix(1 0 0 1 65.5592 301.5861)" class="st18 st25 st26">商業</text>
</g>
<g class="st14">
	<text transform="matrix(1 0 0 1 56.9942 275.7236)" class="st27"><tspan x="0" y="0" class="st29 st30" style="fill:#FABD00;">16.0</tspan><tspan x="23" y="0.3" class="st29 st26" style="fill:#FABD00;"> %</tspan></text>
	<text transform="matrix(1 0 0 1 124.6622 211.3767)" class="st27"><tspan x="0" y="0" class="st28 st29 st30">6.5</tspan><tspan x="16.3" y="0.3" class="st28 st29 st26"> %</tspan></text>
	<text transform="matrix(1 0 0 1 188.7668 211.3766)" class="st27"><tspan x="0" y="0" class="st31 st29 st30">26.5</tspan><tspan x="23" y="0.3" class="st31 st29 st26"> %</tspan></text>
	<text transform="matrix(1 0 0 1 253.3557 275.723)" class="st27"><tspan x="0" y="0" class="st29 st30" style="fill:#DC007A;">4.8</tspan><tspan x="16.3" y="0.3" class="st29 st26" style="fill:#DC007A;"> %</tspan></text>
	<text transform="matrix(1 0 0 1 250.0328 340.0699)" class="st27"><tspan x="0" y="0" class="st33 st29 st30">13.5</tspan><tspan x="23" y="0.3" class="st33 st29 st26"> %</tspan></text>
	<text transform="matrix(1 0 0 1 185.6865 404.4158)" class="st27"><tspan x="0" y="0" class="st34 st29 st30">16.3</tspan><tspan x="23" y="0.3" class="st34 st29 st26"> %</tspan></text>
	<text transform="matrix(1 0 0 1 124.6628 404.4158)" class="st27"><tspan x="0" y="0" class="st32 st29 st30">3.9</tspan><tspan x="16.3" y="0.3" class="st32 st29 st26"> %</tspan></text>
	<text transform="matrix(1 0 0 1 60.3161 340.0696)" class="st27"><tspan x="0" y="0" class="st24 st29 st30">7.1</tspan><tspan x="16.3" y="0.3" class="st24 st29 st26"> %</tspan></text>
</g>
<g class="st14">
	<g class="st27">
		<path class="st32" d="M129.5,378h16.9c0,0,0,0,0,0c0.2,0,0.4-0.2,0.4-0.4c0-0.2-0.1-0.3-0.2-0.4l-8.4-6.3c-0.1-0.1-0.3-0.1-0.5,0
			l-8.4,6.3c-0.1,0.1-0.2,0.3-0.1,0.5C129.1,377.9,129.3,378,129.5,378z"/>
	</g>
	<g class="st27">
		<rect x="130.3" y="378.8" class="st32" width="3.4" height="7"/>
	</g>
	<g class="st27">
		<rect x="142.1" y="378.8" class="st32" width="3.4" height="7"/>
	</g>
	<g class="st27">
		<rect x="136.2" y="378.8" class="st32" width="3.4" height="7"/>
	</g>
	<g class="st27">
		<path class="st32" d="M129.1,387c0,0.2,0.2,0.4,0.4,0.4h16.9c0.2,0,0.4-0.2,0.4-0.4s-0.2-0.4-0.4-0.4h-16.9
			C129.2,386.6,129.1,386.8,129.1,387z"/>
	</g>
	<g class="st27">
		<path class="st32" d="M147.4,388.3h-19c-0.2,0-0.4,0.2-0.4,0.4c0,0.2,0.2,0.4,0.4,0.4h19c0.2,0,0.4-0.2,0.4-0.4
			C147.8,388.5,147.6,388.3,147.4,388.3z"/>
	</g>
</g>
<g class="st14">
	<g transform="translate(50 50) scale(0.69 0.69) rotate(0) translate(-50 -50)" class="st27">
		<path class="st33" d="M368.9,430.8c0-0.2,0-0.3,0-0.5c0-0.3,0-0.6,0-0.9l1.9-0.2c0-0.5-0.1-1.1-0.3-1.6l-1.9,0.5
			c-0.1-0.4-0.2-0.8-0.4-1.2l1.8-0.7c-0.2-0.5-0.4-1-0.7-1.4l-1.7,1c-0.2-0.4-0.5-0.7-0.7-1.1l1.5-1.3c-0.3-0.4-0.7-0.8-1.1-1.2
			l-1.4,1.5c-0.3-0.3-0.7-0.6-1-0.8l1.1-1.7c-0.4-0.3-0.9-0.6-1.4-0.8l-0.9,1.8c-0.4-0.2-0.8-0.3-1.2-0.5l0.6-1.9
			c-0.5-0.2-1-0.3-1.6-0.3l-0.3,2c-0.4-0.1-0.8-0.1-1.3-0.1c0,0,0,0,0,0l0-2c-0.5,0-1.1,0-1.6,0.1l0.3,2c-0.4,0.1-0.9,0.2-1.3,0.3
			L357,420c-0.5,0.2-1,0.4-1.5,0.6l0.9,1.8c-0.4,0.2-0.8,0.4-1.2,0.7l-1.1-1.6c-0.4,0.3-0.8,0.6-1.2,1l1.4,1.4
			c-0.3,0.3-0.6,0.6-0.9,0.9l-1.5-1.2c-0.3,0.4-0.6,0.9-0.9,1.3l1.7,1c-0.2,0.4-0.4,0.8-0.6,1.2l-1.8-0.7c-0.2,0.5-0.3,1-0.5,1.5
			l1.9,0.4c-0.1,0.4-0.2,0.9-0.2,1.3l-1.9-0.1c0,0.4,0,1,0,1.5l1.9-0.2c0,0.4,0.1,0.9,0.2,1.3l-1.8,0.4c0.1,0.5,0.3,1,0.5,1.5
			l1.7-0.7c0.2,0.4,0.3,0.8,0.6,1.2l-1.6,0.9c0.3,0.5,0.6,0.9,0.9,1.3l1.4-1.1c0.3,0.3,0.6,0.7,0.9,1L353,438c0.4,0.4,0.8,0.7,1.2,1
			l1-1.5c0.4,0.3,0.8,0.5,1.2,0.7l-0.8,1.6c0.5,0.2,1,0.4,1.5,0.6l0.5-1.7c0.4,0.1,0.9,0.2,1.3,0.3l-0.2,1.8l0.4,0l0.5,0
			c0.2,0,0.2,0,0.3,0l0.1,0l0.2,0l0.1,0l0-1.8c0.4,0,0.9-0.1,1.3-0.1l0.3,1.8c0.5-0.1,1-0.2,1.5-0.4l-0.5-1.7
			c0.4-0.1,0.8-0.3,1.2-0.5l0.8,1.6c0.5-0.2,0.9-0.5,1.4-0.8l-1-1.5c0.4-0.3,0.7-0.5,1-0.8l1.3,1.3c0.4-0.4,0.7-0.8,1.1-1.2
			l-1.5-1.1c0.3-0.3,0.5-0.7,0.7-1.1l1.6,0.9c0.3-0.5,0.5-0.9,0.7-1.4l-1.8-0.7c0.2-0.4,0.3-0.8,0.4-1.3l1.9,0.4
			c0.1-0.3,0.1-0.5,0.1-0.8l0.1-0.4c0-0.1,0-0.3,0-0.4L368.9,430.8z M366,430.8l0,0.2c0,0.1,0,0.3-0.1,0.4l-1-0.2
			c0,0.2-0.1,0.5-0.2,0.7l1,0.4c-0.1,0.3-0.2,0.5-0.4,0.8l-0.9-0.5c-0.1,0.2-0.3,0.4-0.4,0.6l0.8,0.6c-0.2,0.2-0.4,0.4-0.6,0.6
			l-0.7-0.7c-0.2,0.2-0.4,0.3-0.6,0.5l0.6,0.8c-0.2,0.2-0.5,0.3-0.8,0.4l-0.4-0.9c-0.2,0.1-0.4,0.2-0.7,0.3l0.3,0.9
			c-0.3,0.1-0.6,0.2-0.9,0.2l-0.2-1c-0.2,0-0.5,0.1-0.7,0.1l0,1l-0.1,0l-0.1,0l-0.1,0c-0.1,0-0.1,0-0.2,0l-0.3,0l-0.2,0l0.1-1
			c-0.2,0-0.5-0.1-0.7-0.2l-0.3,0.9c-0.3-0.1-0.6-0.2-0.8-0.3l0.4-0.9c-0.2-0.1-0.5-0.2-0.7-0.4l-0.6,0.8c-0.2-0.2-0.5-0.3-0.7-0.5
			l0.7-0.7c-0.2-0.2-0.3-0.3-0.5-0.5l-0.8,0.6c-0.2-0.2-0.3-0.5-0.5-0.7l0.9-0.5c-0.1-0.2-0.2-0.4-0.3-0.7l-0.9,0.4
			c-0.1-0.3-0.2-0.5-0.3-0.8l1-0.2c-0.1-0.2-0.1-0.5-0.1-0.7l-1,0.1c0-0.3,0-0.6,0-0.8l1,0c0-0.2,0.1-0.5,0.1-0.7l-1-0.2
			c0.1-0.3,0.1-0.6,0.3-0.8l1,0.4c0.1-0.2,0.2-0.4,0.3-0.6l-0.9-0.5c0.1-0.3,0.3-0.5,0.5-0.7l0.8,0.7c0.1-0.2,0.3-0.4,0.5-0.5
			l-0.8-0.8c0.2-0.2,0.4-0.4,0.7-0.6l0.6,0.9c0.2-0.1,0.4-0.3,0.7-0.4l-0.5-1c0.3-0.1,0.5-0.2,0.8-0.3l0.3,1.1
			c0.2-0.1,0.5-0.1,0.7-0.2l-0.2-1.1c0.3,0,0.6-0.1,0.9-0.1l0,1.1c0,0,0,0,0,0c0.2,0,0.5,0,0.7,0.1l0.2-1.1c0.3,0,0.6,0.1,0.9,0.2
			l-0.3,1.1c0.2,0.1,0.4,0.2,0.7,0.3l0.5-1c0.3,0.1,0.5,0.3,0.8,0.4l-0.6,0.9c0.2,0.1,0.4,0.3,0.6,0.4l0.7-0.8
			c0.2,0.2,0.4,0.4,0.6,0.6l-0.8,0.7c0.2,0.2,0.3,0.4,0.4,0.6l0.9-0.6c0.1,0.2,0.3,0.5,0.4,0.8l-1,0.4c0.1,0.2,0.2,0.4,0.2,0.7
			l1-0.3c0.1,0.3,0.1,0.6,0.1,0.9l-1.1,0.1c0,0.2,0,0.3,0,0.5c0,0.1,0,0.2,0,0.3l1.1,0.1C366,430.6,366,430.7,366,430.8z"/>
		<path class="st33" d="M377,443.8c0-0.1,0-0.2,0-0.3c0-0.2,0-0.4,0-0.6l1.3-0.1c0-0.3-0.1-0.7-0.2-1l-1.3,0.3
			c-0.1-0.3-0.2-0.6-0.3-0.8l1.2-0.5c-0.1-0.3-0.3-0.6-0.5-0.9l-1.1,0.7c-0.1-0.2-0.3-0.5-0.5-0.7l1-0.8c-0.2-0.3-0.5-0.5-0.7-0.8
			l-0.9,1c-0.2-0.2-0.4-0.4-0.7-0.5l0.7-1.1c-0.3-0.2-0.6-0.4-0.9-0.5l-0.6,1.2c-0.3-0.1-0.5-0.2-0.8-0.3l0.4-1.3
			c-0.3-0.1-0.7-0.2-1-0.2l-0.2,1.3c-0.3,0-0.5-0.1-0.8-0.1c0,0,0,0,0,0l0-1.3c-0.3,0-0.7,0-1,0.1l0.2,1.3c-0.3,0-0.6,0.1-0.8,0.2
			l-0.4-1.3c-0.3,0.1-0.7,0.2-1,0.4l0.6,1.2c-0.3,0.1-0.5,0.3-0.8,0.5l-0.8-1.1c-0.3,0.2-0.6,0.4-0.8,0.7l0.9,0.9
			c-0.2,0.2-0.4,0.4-0.6,0.6l-1-0.8c-0.2,0.3-0.4,0.6-0.6,0.9l1.1,0.6c-0.1,0.2-0.3,0.5-0.4,0.8l-1.2-0.5c-0.1,0.3-0.2,0.7-0.3,1
			l1.2,0.3c-0.1,0.3-0.1,0.6-0.1,0.9l-1.2-0.1c0,0.3,0,0.7,0,1l1.2-0.1c0,0.3,0.1,0.6,0.1,0.9l-1.2,0.3c0.1,0.3,0.2,0.7,0.3,1
			l1.1-0.5c0.1,0.3,0.2,0.5,0.4,0.8l-1,0.6c0.2,0.3,0.4,0.6,0.6,0.9l0.9-0.8c0.2,0.2,0.4,0.4,0.6,0.6l-0.8,0.9
			c0.3,0.2,0.5,0.5,0.8,0.6l0.7-1c0.3,0.2,0.5,0.3,0.8,0.5l-0.5,1.1c0.3,0.2,0.6,0.3,1,0.4l0.3-1.1c0.3,0.1,0.6,0.1,0.9,0.2
			l-0.2,1.2l0.3,0l0.3,0c0.1,0,0.2,0,0.2,0l0.1,0l0.1,0l0.1,0l0-1.2c0.3,0,0.6,0,0.9-0.1l0.2,1.2c0.3-0.1,0.7-0.1,1-0.2l-0.4-1.1
			c0.3-0.1,0.5-0.2,0.8-0.3l0.5,1.1c0.3-0.2,0.6-0.3,0.9-0.5l-0.7-1c0.2-0.2,0.5-0.3,0.7-0.5l0.8,0.9c0.3-0.2,0.5-0.5,0.7-0.8
			l-1-0.8c0.2-0.2,0.3-0.5,0.5-0.7l1.1,0.6c0.2-0.3,0.3-0.6,0.5-0.9l-1.2-0.4c0.1-0.3,0.2-0.5,0.2-0.8l1.2,0.3
			c0-0.2,0.1-0.3,0.1-0.5l0-0.3c0-0.1,0-0.2,0-0.3L377,443.8z M371.5,447.7c-0.8,0-1.5-0.7-1.5-1.5s0.7-1.5,1.5-1.5s1.5,0.7,1.5,1.5
			S372.3,447.7,371.5,447.7z"/>
	</g>
</g>
<g class="st14">
	<path class="st15" d="M269.7,247.4c-0.4-0.2-0.8-0.1-1.1,0.2c-0.4,0.4-0.3,1,0.1,1.4c0.2,0.2,0.4,0.2,0.6,0.2
		c0.3,0,0.5-0.1,0.7-0.3c0.3-0.3,0.3-0.8,0.1-1.1l2.9-3.3c0.1,0.1,0.3,0.1,0.4,0.1c0.3,0,0.5-0.1,0.7-0.3c0.4-0.4,0.3-1-0.1-1.4
		c-0.4-0.3-1-0.3-1.4,0.1c-0.2,0.2-0.3,0.4-0.2,0.7c0,0.2,0.1,0.3,0.1,0.4L269.7,247.4z M269.6,248.6c-0.1,0.1-0.4,0.2-0.5,0
		c-0.2-0.1-0.2-0.4,0-0.5c0.1-0.1,0.2-0.1,0.3-0.1c0.1,0,0.2,0,0.2,0.1C269.7,248.2,269.7,248.4,269.6,248.6z M273.1,243.4
		c0.1-0.1,0.2-0.1,0.3-0.1c0.1,0,0.2,0,0.2,0.1c0.2,0.1,0.2,0.4,0,0.5c-0.1,0.1-0.4,0.2-0.5,0c-0.1-0.1-0.1-0.2-0.1-0.3
		C273,243.6,273.1,243.5,273.1,243.4z"/>
	<path class="st15" d="M276.2,258.7c-0.3-0.3-0.8-0.3-1.1-0.1l-7.2-6.3l-0.4,0.5h0l-3.2,3.6l0.5,0.4l0,0l1.9,1.7l0.4-0.5l0,0
		l1.1-1.2c0.1,0.1,0.3,0.1,0.4,0.1c0.3,0,0.5-0.1,0.7-0.3c0.4-0.4,0.3-1-0.1-1.4c-0.4-0.3-1-0.3-1.4,0.1c-0.2,0.2-0.3,0.4-0.2,0.7
		c0,0.2,0.1,0.3,0.1,0.4l-1.1,1.2l-1.4-1.3l2.8-3.2l6.7,5.9c-0.1,0.1-0.1,0.3-0.1,0.4c0,0.3,0.1,0.5,0.3,0.7
		c0.2,0.2,0.4,0.2,0.6,0.2c0.3,0,0.5-0.1,0.7-0.3c0.2-0.2,0.3-0.4,0.2-0.7C276.5,259.1,276.4,258.9,276.2,258.7z M268.2,255.6
		c0.1-0.1,0.2-0.1,0.3-0.1c0.1,0,0.2,0,0.2,0.1c0.2,0.1,0.2,0.4,0,0.5c-0.1,0.1-0.4,0.2-0.5,0c-0.1-0.1-0.1-0.2-0.1-0.3
		C268.1,255.8,268.1,255.7,268.2,255.6z M275.8,259.7c-0.1,0.1-0.4,0.2-0.5,0c-0.1-0.1-0.1-0.2-0.1-0.3c0-0.1,0-0.2,0.1-0.3
		c0.1-0.1,0.2-0.1,0.3-0.1c0.1,0,0.2,0,0.2,0.1c0.1,0.1,0.1,0.2,0.1,0.3C275.9,259.5,275.9,259.6,275.8,259.7z"/>
	<path class="st15" d="M269,258c-0.2,0.2-0.3,0.4-0.2,0.7s0.1,0.5,0.3,0.7c0.2,0.2,0.4,0.2,0.6,0.2c0.3,0,0.5-0.1,0.7-0.3
		c0.4-0.4,0.3-1-0.1-1.4C270,257.5,269.4,257.6,269,258z M270.1,258.9c-0.1,0.1-0.4,0.2-0.5,0c-0.1-0.1-0.1-0.2-0.1-0.3
		c0-0.1,0-0.2,0.1-0.3c0.1-0.1,0.2-0.1,0.3-0.1c0.1,0,0.2,0,0.2,0.1C270.2,258.5,270.2,258.7,270.1,258.9z"/>
	<path class="st15" d="M266.9,251.2c0.1,0.1,0.3,0.1,0.4,0.1c0.3,0,0.5-0.1,0.7-0.3c0.4-0.4,0.3-1-0.1-1.4c-0.4-0.3-1-0.3-1.4,0.1
		c-0.2,0.2-0.3,0.4-0.2,0.7c0,0.2,0.1,0.3,0.1,0.4l-6.3,7.2c-0.4-0.2-0.8-0.1-1.1,0.2c-0.2,0.2-0.3,0.4-0.2,0.7
		c0,0.3,0.1,0.5,0.3,0.7c0.2,0.2,0.4,0.2,0.6,0.2c0.3,0,0.5-0.1,0.7-0.3c0.2-0.2,0.3-0.4,0.2-0.7c0-0.2-0.1-0.3-0.1-0.4L266.9,251.2
		z M267,250c0.1-0.1,0.2-0.1,0.3-0.1c0.1,0,0.2,0,0.2,0.1c0.2,0.1,0.2,0.4,0,0.5c-0.1,0.1-0.4,0.2-0.5,0c-0.1-0.1-0.1-0.2-0.1-0.3
		C266.9,250.2,266.9,250.1,267,250z M260,259.1c-0.1,0.1-0.4,0.2-0.5,0c-0.1-0.1-0.1-0.2-0.1-0.3c0-0.1,0-0.2,0.1-0.3
		c0.1-0.1,0.2-0.1,0.3-0.1c0.1,0,0.2,0,0.2,0.1c0.1,0.1,0.1,0.2,0.1,0.3C260.1,258.9,260.1,259,260,259.1z"/>
	<path class="st15" d="M273.5,246.8c0,0.2,0.1,0.3,0.1,0.4l-1.1,1.2c-0.4-0.2-0.8-0.1-1.1,0.2c-0.4,0.4-0.3,1,0.1,1.4
		c0.2,0.2,0.4,0.2,0.6,0.2c0.3,0,0.5-0.1,0.7-0.3c0.2-0.2,0.3-0.4,0.2-0.7c0-0.2-0.1-0.3-0.1-0.4l1.1-1.2c0.1,0.1,0.3,0.1,0.4,0.1
		c0.3,0,0.5-0.1,0.7-0.3c0.4-0.4,0.3-1-0.1-1.4c-0.4-0.3-1-0.3-1.4,0.1C273.6,246.3,273.5,246.5,273.5,246.8z M272.5,249.6
		c-0.1,0.1-0.4,0.2-0.5,0c-0.2-0.1-0.2-0.4,0-0.5c0.1-0.1,0.2-0.1,0.3-0.1c0.1,0,0.2,0,0.2,0.1c0.1,0.1,0.1,0.2,0.1,0.3
		C272.5,249.4,272.5,249.5,272.5,249.6z M274.2,246.5c0.1-0.1,0.2-0.1,0.3-0.1c0.1,0,0.2,0,0.2,0.1c0.2,0.1,0.2,0.4,0,0.5
		c-0.1,0.1-0.4,0.2-0.5,0c-0.1-0.1-0.1-0.2-0.1-0.3C274.1,246.6,274.1,246.5,274.2,246.5z"/>
	<path class="st15" d="M266.8,259.4l-2.9-2.5l-0.4,0.5l0,0l-0.7,0.8c-0.4-0.2-0.8-0.1-1.1,0.2c-0.4,0.4-0.3,1,0.1,1.4
		c0.2,0.2,0.4,0.2,0.6,0.2c0.3,0,0.5-0.1,0.7-0.3c0.2-0.2,0.3-0.4,0.2-0.7c0-0.2-0.1-0.3-0.1-0.4l0.7-0.8l2.4,2.1
		c-0.1,0.1-0.1,0.3-0.1,0.4c0,0.3,0.1,0.5,0.3,0.7c0.2,0.2,0.4,0.2,0.6,0.2c0.3,0,0.5-0.1,0.7-0.3c0.4-0.4,0.3-1-0.1-1.4
		C267.6,259.2,267.1,259.2,266.8,259.4z M262.6,259.3c-0.1,0.1-0.4,0.2-0.5,0c-0.2-0.1-0.2-0.4,0-0.5c0.1-0.1,0.2-0.1,0.3-0.1
		c0.1,0,0.2,0,0.2,0.1c0.1,0.1,0.1,0.2,0.1,0.3C262.7,259.1,262.7,259.2,262.6,259.3z M267.5,260.5c-0.1,0.1-0.4,0.2-0.5,0
		c-0.1-0.1-0.1-0.2-0.1-0.3c0-0.1,0-0.2,0.1-0.3c0.1-0.1,0.2-0.1,0.3-0.1c0.1,0,0.2,0,0.2,0.1C267.6,260.1,267.7,260.3,267.5,260.5z
		"/>
	<path class="st15" d="M273.2,255.2c0.2,0.2,0.4,0.2,0.6,0.2c0.3,0,0.5-0.1,0.7-0.3c0.4-0.4,0.3-1-0.1-1.4c-0.3-0.3-0.8-0.3-1.1-0.1
		l-2.4-2.1c0.1-0.1,0.1-0.3,0.1-0.4c0-0.3-0.1-0.5-0.3-0.7c-0.4-0.3-1-0.3-1.4,0.1c-0.2,0.2-0.3,0.4-0.2,0.7c0,0.3,0.1,0.5,0.3,0.7
		c0.2,0.2,0.4,0.2,0.6,0.2c0.2,0,0.3-0.1,0.5-0.1l2.4,2.1c-0.1,0.1-0.1,0.3-0.1,0.4C272.9,254.8,273,255.1,273.2,255.2z
		 M273.9,254.1c0.1,0,0.2,0,0.2,0.1c0.2,0.1,0.2,0.4,0,0.5c-0.1,0.1-0.4,0.2-0.5,0c-0.1-0.1-0.1-0.2-0.1-0.3c0-0.1,0-0.2,0.1-0.3
		C273.7,254.2,273.8,254.1,273.9,254.1z M270.4,251.4c-0.1,0.1-0.4,0.2-0.5,0c-0.1-0.1-0.1-0.2-0.1-0.3c0-0.1,0-0.2,0.1-0.3
		c0.1-0.1,0.2-0.1,0.3-0.1c0.1,0,0.2,0,0.2,0.1c0.1,0.1,0.1,0.2,0.1,0.3C270.5,251.3,270.5,251.4,270.4,251.4z"/>
	<path class="st15" d="M265.3,250.3l0.4-0.5l0,0l3.2-3.6l-0.5-0.4l0,0l-1.9-1.7l-0.4,0.5l0,0l-1.1,1.2c-0.4-0.2-0.8-0.1-1.1,0.2
		c-0.4,0.4-0.3,1,0.1,1.4c0.2,0.2,0.4,0.2,0.6,0.2c0.3,0,0.5-0.1,0.7-0.3c0.3-0.3,0.3-0.8,0.1-1.1l1.1-1.2l1.4,1.3l-2.8,3.2
		l-6.7-5.9c0.2-0.4,0.1-0.8-0.2-1.1c-0.4-0.3-1-0.3-1.4,0.1c-0.2,0.2-0.3,0.4-0.2,0.7c0,0.3,0.1,0.5,0.3,0.7
		c0.2,0.2,0.4,0.2,0.6,0.2c0.2,0,0.3-0.1,0.5-0.1L265.3,250.3z M265,247c-0.1,0.1-0.4,0.2-0.5,0c-0.2-0.1-0.2-0.4,0-0.5
		c0.1-0.1,0.2-0.1,0.3-0.1c0.1,0,0.2,0,0.2,0.1C265.1,246.6,265.1,246.8,265,247z M257.9,243.4c-0.1,0.1-0.4,0.2-0.5,0
		c-0.1-0.1-0.1-0.2-0.1-0.3c0-0.1,0-0.2,0.1-0.3c0.1-0.1,0.2-0.1,0.3-0.1c0.1,0,0.2,0,0.2,0.1C258,243,258,243.2,257.9,243.4z"/>
	<path class="st15" d="M263.4,244.9c0.3,0,0.5-0.1,0.7-0.3c0.4-0.4,0.3-1-0.1-1.4c-0.4-0.3-1-0.3-1.4,0.1c-0.4,0.4-0.3,1,0.1,1.4
		C262.9,244.9,263.2,244.9,263.4,244.9z M263.1,243.7c0.1-0.1,0.2-0.1,0.3-0.1c0.1,0,0.2,0,0.2,0.1c0.2,0.1,0.2,0.4,0,0.5
		c-0.1,0.1-0.4,0.2-0.5,0C263,244.1,263,243.9,263.1,243.7z"/>
	<path class="st15" d="M259.6,255.4l1.1-1.2c0.1,0.1,0.3,0.1,0.4,0.1c0.3,0,0.5-0.1,0.7-0.3c0.4-0.4,0.3-1-0.1-1.4
		c-0.4-0.3-1-0.3-1.4,0.1c-0.3,0.3-0.3,0.8-0.1,1.1l-1.1,1.2c-0.4-0.2-0.8-0.1-1.1,0.2c-0.4,0.4-0.3,1,0.1,1.4
		c0.2,0.2,0.4,0.2,0.6,0.2c0.3,0,0.5-0.1,0.7-0.3C259.7,256.2,259.8,255.7,259.6,255.4z M260.7,253c0.1-0.1,0.2-0.1,0.3-0.1
		c0.1,0,0.2,0,0.2,0.1c0.2,0.1,0.2,0.4,0,0.5c-0.1,0.1-0.4,0.2-0.5,0C260.6,253.4,260.6,253.2,260.7,253z M259,256.1
		c-0.1,0.1-0.4,0.2-0.5,0c-0.2-0.1-0.2-0.4,0-0.5c0.1-0.1,0.2-0.1,0.3-0.1c0.1,0,0.2,0,0.2,0.1C259.1,255.7,259.1,255.9,259,256.1z"
		/>
	<path class="st15" d="M266,243.3c0.2,0,0.3-0.1,0.5-0.1l2.9,2.5l0.4-0.5l0,0l0.7-0.8c0.1,0.1,0.3,0.1,0.4,0.1
		c0.3,0,0.5-0.1,0.7-0.3c0.4-0.4,0.3-1-0.1-1.4c-0.4-0.3-1-0.3-1.4,0.1c-0.2,0.2-0.3,0.4-0.2,0.7c0,0.2,0.1,0.3,0.1,0.4l-0.7,0.8
		l-2.4-2.1c0.1-0.1,0.1-0.3,0.1-0.4c0-0.3-0.1-0.5-0.3-0.7c-0.4-0.3-1-0.3-1.4,0.1c-0.2,0.2-0.3,0.4-0.2,0.7s0.1,0.5,0.3,0.7
		C265.5,243.2,265.7,243.3,266,243.3z M270.6,243.3c0.1-0.1,0.2-0.1,0.3-0.1c0.1,0,0.2,0,0.2,0.1c0.2,0.1,0.2,0.4,0,0.5
		c-0.1,0.1-0.4,0.2-0.5,0c-0.1-0.1-0.1-0.2-0.1-0.3C270.5,243.5,270.5,243.4,270.6,243.3z M265.7,242.1c0.1-0.1,0.2-0.1,0.3-0.1
		c0.1,0,0.2,0,0.2,0.1c0.1,0.1,0.1,0.2,0.1,0.3c0,0.1,0,0.2-0.1,0.3c-0.1,0.1-0.4,0.2-0.5,0c-0.1-0.1-0.1-0.2-0.1-0.3
		C265.6,242.3,265.6,242.2,265.7,242.1z"/>
	<path class="st15" d="M262.4,252.1c0.2,0.2,0.4,0.2,0.6,0.2c0.3,0,0.5-0.1,0.7-0.3c0.2-0.2,0.3-0.4,0.2-0.7c0-0.3-0.1-0.5-0.3-0.7
		c-0.3-0.3-0.8-0.3-1.1-0.1l-2.4-2.1c0.1-0.1,0.1-0.3,0.1-0.4c0-0.3-0.1-0.5-0.3-0.7c-0.4-0.3-1-0.3-1.4,0.1
		c-0.2,0.2-0.3,0.4-0.2,0.7c0,0.3,0.1,0.5,0.3,0.7c0.2,0.2,0.4,0.2,0.6,0.2c0.2,0,0.3-0.1,0.5-0.1l2.4,2.1
		C262,251.4,262.1,251.8,262.4,252.1z M262.8,251.1c0.1-0.1,0.2-0.1,0.3-0.1c0.1,0,0.2,0,0.2,0.1c0.1,0.1,0.1,0.2,0.1,0.3
		c0,0.1,0,0.2-0.1,0.3c-0.1,0.1-0.4,0.2-0.5,0C262.7,251.5,262.7,251.3,262.8,251.1z M259.1,248.3c-0.1-0.1-0.1-0.2-0.1-0.3
		c0-0.1,0-0.2,0.1-0.3c0.1-0.1,0.2-0.1,0.3-0.1c0.1,0,0.2,0,0.2,0.1c0.1,0.1,0.1,0.2,0.1,0.3c0,0.1,0,0.2-0.1,0.3
		C259.5,248.5,259.2,248.5,259.1,248.3z"/>
</g>
<g class="st14">
	<path class="st20" d="M203.2,379.7c0-0.4-0.2-0.7-0.5-0.9c-0.3-0.2-0.7-0.2-1-0.1l-1,0.3c0.5,0.4,0.7,1.1,0.7,1.7v4.9
		c0,0.4,0.2,0.7,0.5,0.9c0.3,0.2,0.7,0.2,1,0.1l1-0.3c-0.5-0.4-0.7-1.1-0.7-1.7V379.7z"/>
	<g class="st27">
		<path class="st34" d="M202.3,371.1c2.2,0,4.3,0.8,5.9,2.2c1.8,1.6,2.9,3.8,3,6.1c0.1,2.4-0.6,4.7-2.2,6.5c-0.5,0.6-0.5,1.4,0.1,2
			l0.1,0.1h-2.6c-0.2,0-0.4,0-0.6,0.1c-1.2,0.5-2.4,0.8-3.6,0.8c-2.2,0-4.3-0.8-5.9-2.2c-3.7-3.3-4-8.9-0.8-12.6
			C197.3,372.2,199.7,371.1,202.3,371.1 M202.3,370.1c-2.7,0-5.5,1.1-7.4,3.4c-3.6,4.1-3.2,10.4,0.9,14c1.8,1.6,4.2,2.5,6.6,2.5
			c1.4,0,2.7-0.3,4-0.9c0.1,0,0.1,0,0.2,0h5.1l-1.8-1.8c-0.2-0.2-0.2-0.4,0-0.6c3.6-4.1,3.2-10.4-0.9-14
			C206.9,370.9,204.6,370.1,202.3,370.1L202.3,370.1z"/>
	</g>
	<circle class="st20" cx="202.3" cy="374.6" r="1.4"/>
</g>
<path class="st35" d="M209.9,185.3l-0.9-0.6c1.5-2.3,0.8-5.3-1.5-6.8l0.6-0.9C211,178.8,211.8,182.6,209.9,185.3z M207.1,184.3
	l-0.8-0.6c0.8-1.3,0.5-3-0.8-3.8l0.4-0.9C207.8,180.1,208.3,182.5,207.1,184.3z M204.5,183.2c0.5-0.8,0.3-1.8-0.5-2.3l0.4-0.5
	c1.1,0.7,1.4,2.1,0.7,3.2L204.5,183.2z M206.7,196.1c0,0.3,0.1,0.5-0.3,0.7c-0.2,0-0.3,0-0.4,0c-0.1,0-0.1,0-0.2-0.1l-3.4-2.7
	l-3.5,2.8c0,0,0,0-0.1,0c-0.1,0.1-0.3,0.1-0.5,0c-0.4-0.1-0.3-0.4-0.3-0.7l3.5-13c-0.2-0.2-0.3-0.5-0.3-0.8c0-0.6,0.5-1.1,1.1-1.1
	c0.6,0,1.1,0.5,1.1,1.1c0,0.2-0.1,0.4-0.2,0.6L206.7,196.1z M203.6,188.9l-0.8,0.7l1.3,1.1L203.6,188.9z M205.4,195.4l-0.9-3.2
	l-1.5,1.2L205.4,195.4z M199.4,195.5l2.4-2l-1.5-1.2L199.4,195.5z M202.4,193l1.8-1.5l-1.8-1.6l-1.8,1.6L202.4,193z M200.7,190.7
	l1.3-1.1l-0.8-0.7L200.7,190.7z M201.4,188.3l1,0.9l1-0.9l0-0.1l-1-1L201.4,188.3L201.4,188.3z M201.6,187.6l0.5-0.5l-0.3-0.3
	L201.6,187.6z M202.4,184.5l-0.5,1.8l0.5,0.5l0.5-0.4L202.4,184.5z M203,186.7l-0.3,0.3l0.5,0.5L203,186.7z M199.9,183.3l-0.6,0.3
	c-0.7-1.1-0.4-2.5,0.7-3.2l0.4,0.5C199.7,181.5,199.4,182.6,199.9,183.3z M198.1,183.8l-0.7,0.6c-1.2-1.8-0.7-4.2,1.1-5.3l0.4,0.9
	C197.6,180.8,197.3,182.5,198.1,183.8z M195.5,184.8l-0.9,0.6c-1.8-2.8-1-6.5,1.7-8.4l0.6,0.9C194.6,179.5,194,182.5,195.5,184.8z"
	/>
<path class="st36" d="M126.2,250.2c0.7-0.4,0.9-1.3,0.4-2c-0.4-0.7-1.3-0.9-2-0.4c-0.7,0.4-0.9,1.3-0.4,2
	C124.6,250.5,125.5,250.7,126.2,250.2z"/>
<path class="st36" d="M161.6,237c0.7-0.4,0.9-1.3,0.4-2c-0.4-0.7-1.3-0.9-2-0.4c-0.7,0.4-0.9,1.3-0.4,2
	C160.1,237.2,161,237.4,161.6,237z"/>
<path class="st36" d="M127.7,362.2c-0.4-0.7-1.3-0.9-2-0.4c-0.7,0.4-0.9,1.3-0.4,2c0.4,0.7,1.3,0.9,2,0.4
	C127.9,363.8,128.1,362.9,127.7,362.2z"/>
<path class="st36" d="M97.9,235.4c0.7-0.4,0.9-1.3,0.4-2c-0.4-0.7-1.3-0.9-2-0.4c-0.7,0.4-0.9,1.3-0.4,2
	C96.3,235.6,97.2,235.8,97.9,235.4z"/>
<path class="st36" d="M154,171c0.7-0.4,0.9-1.3,0.4-2c-0.4-0.7-1.3-0.9-2-0.4c-0.7,0.4-0.9,1.3-0.4,2
	C152.5,171.2,153.4,171.4,154,171z"/>
<path class="st36" d="M180.7,171c0.7-0.4,0.9-1.3,0.4-2c-0.4-0.7-1.3-0.9-2-0.4c-0.7,0.4-0.9,1.3-0.4,2
	C179.1,171.2,180,171.4,180.7,171z"/>
<path class="st36" d="M125.9,289.8c0.7-0.4,0.9-1.3,0.4-2c-0.4-0.7-1.3-0.9-2-0.4c-0.7,0.4-0.9,1.3-0.4,2
	C124.4,290,125.2,290.2,125.9,289.8z"/>
<path class="st36" d="M256,235.4c0.7-0.4,0.9-1.3,0.4-2c-0.4-0.7-1.3-0.9-2-0.4c-0.7,0.4-0.9,1.3-0.4,2
	C254.4,235.6,255.3,235.8,256,235.4z"/>
<path class="st36" d="M198.3,325.6c-0.7,0.4-0.9,1.3-0.4,2c0.4,0.7,1.3,0.9,2,0.4c0.7-0.4,0.9-1.3,0.4-2
	C199.9,325.4,199,325.2,198.3,325.6z"/>
<path class="st36" d="M176.3,362.2c-0.4-0.7-1.3-0.9-2-0.4c-0.7,0.4-0.9,1.3-0.4,2c0.4,0.7,1.3,0.9,2,0.4
	C176.5,363.8,176.7,362.9,176.3,362.2z"/>
<path class="st36" d="M218.8,306.4c0.7-0.4,0.9-1.3,0.4-2c-0.4-0.7-1.3-0.9-2-0.4c-0.7,0.4-0.9,1.3-0.4,2
	C217.2,306.6,218.1,306.8,218.8,306.4z"/>
<path class="st36" d="M162.3,326c-0.4-0.7-1.3-0.9-2-0.4c-0.7,0.4-0.9,1.3-0.4,2c0.4,0.7,1.3,0.9,2,0.4
	C162.6,327.5,162.8,326.7,162.3,326z"/>
<path class="st36" d="M118.8,311.4c-0.4-0.7-1.3-0.9-2-0.4c-0.7,0.4-0.9,1.3-0.4,2c0.4,0.7,1.3,0.9,2,0.4
	C119,313,119.2,312.1,118.8,311.4z"/>
<path class="st36" d="M176.8,237c0.7-0.4,0.9-1.3,0.4-2c-0.4-0.7-1.3-0.9-2-0.4c-0.7,0.4-0.9,1.3-0.4,2
	C175.2,237.2,176.1,237.4,176.8,237z"/>
<path class="st36" d="M249.5,297.4c-0.7,0.4-0.9,1.3-0.4,2c0.4,0.7,1.3,0.9,2,0.4c0.7-0.4,0.9-1.3,0.4-2
	C251,297.2,250.1,297,249.5,297.4z"/>
<path class="st36" d="M97.9,300.5c0.7-0.4,0.9-1.3,0.4-2c-0.4-0.7-1.3-0.9-2-0.4c-0.7,0.4-0.9,1.3-0.4,2
	C96.3,300.7,97.2,300.9,97.9,300.5z"/>
<polyline class="st37" points="97.1,234.2 125.4,234.2 125.4,249 "/>
<polyline class="st37" points="153.3,169.8 160.9,169.8 160.9,235.8 "/>
<polyline class="st37" points="175.1,363 161.1,363 161.1,326.8 "/>
<polyline class="st38" points="126.5,363.2 117.6,363.2 117.6,313.1 "/>
<polyline class="st37" points="125.1,288.6 125.1,299.3 97.1,299.3 "/>
<path class="st37" d="M199.1,326.8h51.1v-28.1"/>
<g class="st14">
	<polyline class="st39" points="255.2,234.2 218,234.2 218,305.2 	"/>
</g>
<polyline class="st37" points="179.9,169.8 176,169.8 176,235.9 "/>
<g id="char">
	<g>
		<path class="st12" d="M181.9,56l2.8-5.9h0.4l2.8,5.9h-0.9l-2-4.6l-2,4.6H181.9z M183.3,54.6v-0.7h3.3v0.7H183.3z"/>
	</g>
	<g>
		<path class="st12" d="M197.3,158.1c-0.2,0-0.5,0-0.8,0s-0.5,0-0.8-0.1s-0.5-0.1-0.6-0.1v-5.7c0.3-0.1,0.6-0.1,1-0.2
			s0.7-0.1,1.1-0.1c0.4,0,0.8,0.1,1.1,0.2s0.6,0.3,0.7,0.6s0.3,0.5,0.3,0.9c0,0.3-0.1,0.5-0.2,0.8s-0.4,0.4-0.6,0.5
			c0.2,0,0.3,0.1,0.5,0.2s0.3,0.3,0.4,0.5s0.2,0.4,0.2,0.7c0,0.3-0.1,0.6-0.3,0.9s-0.5,0.5-0.8,0.6S197.8,158.1,197.3,158.1z
			 M197.3,157.4c0.4,0,0.8-0.1,1.1-0.3s0.4-0.4,0.4-0.7c0-0.3-0.1-0.6-0.4-0.7s-0.6-0.2-1-0.2h-1.5v-0.7h1.5c0.4,0,0.7-0.1,0.9-0.3
			s0.3-0.4,0.3-0.7c0-0.2-0.1-0.4-0.2-0.5s-0.3-0.2-0.5-0.3s-0.4-0.1-0.7-0.1s-0.5,0-0.7,0s-0.4,0-0.6,0.1v4.4c0.1,0,0.3,0,0.5,0.1
			s0.3,0,0.5,0S197.2,157.4,197.3,157.4z"/>
	</g>
	<g>
		<path class="st12" d="M147.7,203.6c-0.4,0-0.9-0.1-1.2-0.2s-0.7-0.4-1-0.7s-0.5-0.6-0.7-1s-0.2-0.8-0.2-1.2s0.1-0.8,0.2-1.2
			s0.4-0.7,0.7-1s0.6-0.5,1-0.7s0.8-0.2,1.2-0.2c0.4,0,0.8,0.1,1.1,0.2s0.5,0.3,0.7,0.5v0.9c-0.1-0.1-0.3-0.2-0.4-0.3
			s-0.3-0.2-0.6-0.3s-0.5-0.1-0.8-0.1c-0.4,0-0.8,0.1-1.2,0.3s-0.6,0.5-0.8,0.8s-0.3,0.7-0.3,1.2s0.1,0.8,0.3,1.2s0.5,0.6,0.8,0.8
			s0.7,0.3,1.2,0.3c0.5,0,0.8-0.1,1.2-0.2s0.6-0.3,0.8-0.5v0.8c-0.2,0.2-0.5,0.3-0.8,0.5S148.1,203.6,147.7,203.6z"/>
	</g>
	<g>
		<path class="st12" d="M83.1,206.1c-0.3,0-0.5,0-0.8,0s-0.5,0-0.7-0.1s-0.5-0.1-0.7-0.1v-5.7c0.4-0.1,0.7-0.1,1-0.2
			s0.7-0.1,1.1-0.1c0.7,0,1.2,0.1,1.7,0.4s0.8,0.6,1.1,1.1s0.4,1,0.4,1.6c0,0.4-0.1,0.8-0.2,1.2s-0.3,0.7-0.6,1s-0.6,0.5-1,0.6
			S83.6,206.1,83.1,206.1z M83.1,205.3c0.5,0,0.9-0.1,1.2-0.3s0.6-0.5,0.8-0.8s0.3-0.7,0.3-1.2s-0.1-0.8-0.3-1.2s-0.4-0.6-0.8-0.8
			s-0.8-0.3-1.2-0.3c-0.2,0-0.4,0-0.7,0s-0.5,0-0.7,0.1v4.4c0.2,0,0.5,0,0.7,0.1S82.9,205.3,83.1,205.3z"/>
	</g>
	<g>
		<path class="st12" d="M36.1,173.8V168h4v0.7h-3.2v4.4h3.2v0.7H36.1z M36.6,171.2v-0.7h3.2v0.7H36.6z"/>
	</g>
	<g>
		<path d="M17.8,122.8v-5.9h3.8v0.7h-3.1v5.1H17.8z M18.5,120.4v-0.7h2.7v0.7H18.5z"/>
	</g>
	<g>
		<path d="M28.7,80.6c-0.4,0-0.9-0.1-1.2-0.2s-0.7-0.4-1-0.7s-0.5-0.6-0.7-1s-0.2-0.8-0.2-1.2s0.1-0.8,0.2-1.2s0.4-0.7,0.7-1
			s0.6-0.5,1-0.7s0.8-0.2,1.2-0.2c0.4,0,0.8,0.1,1.1,0.2s0.5,0.3,0.7,0.5V76c-0.1-0.1-0.3-0.2-0.4-0.3s-0.3-0.2-0.6-0.3
			s-0.5-0.1-0.8-0.1c-0.4,0-0.8,0.1-1.2,0.3s-0.6,0.5-0.8,0.8s-0.3,0.7-0.3,1.2s0.1,0.8,0.3,1.2s0.5,0.6,0.8,0.8s0.7,0.3,1.2,0.3
			c0.3,0,0.5,0,0.7-0.1s0.3-0.1,0.4-0.2s0.2-0.1,0.3-0.2l0.9,0.4c-0.1,0.2-0.3,0.3-0.5,0.4s-0.5,0.3-0.8,0.4S29,80.6,28.7,80.6z
			 M30.1,80.2V78h-1.7v-0.7h2.6v2.4L30.1,80.2z"/>
	</g>
	<g>
		<path d="M47.7,48.8V43h0.8v5.9H47.7z M48.4,46.2v-0.7h3.7v0.7H48.4z M51.8,48.8V43h0.8v5.9H51.8z"/>
	</g>
	<g>
		<path d="M71.7,27.9v-0.7h2.8v0.7H71.7z M71.7,33v-0.7h2.8V33H71.7z M72.7,33v-5.9h0.8V33H72.7z"/>
	</g>
	<g>
		<path d="M85.9,29.1l-0.4-0.8c1-0.4,1.5-0.9,1.5-1.6V21h0.8v5.6c0,0.5-0.1,0.9-0.2,1.2s-0.4,0.6-0.7,0.8S86.3,29,85.9,29.1z"/>
	</g>
	<g>
		<path d="M96.1,23.3v-5.9h0.8v5.9H96.1z M96.6,21.7L96.4,21l3.3-3.5h1L96.6,21.7z M99.9,23.3l-2.5-2.9l0.6-0.6l3,3.5H99.9z"/>
	</g>
	<g>
		<path d="M107.1,22.3v-5.9h0.8v5.1h3.2v0.7H107.1z"/>
	</g>
</g>
</svg>
