<?xml version="1.0" encoding="utf-8"?>
<!-- Generator: Adobe Illustrator 28.0.0, SVG Export Plug-In . SVG Version: 6.00 Build 0)  -->
<svg version="1.1" id="レイヤー_1" xmlns="http://www.w3.org/2000/svg" xmlns:xlink="http://www.w3.org/1999/xlink" x="0px"
	 y="0px" width="308.1px" height="84.6px" viewBox="0 0 308.1 84.6" style="enable-background:new 0 0 308.1 84.6;"
	 xml:space="preserve">
<style type="text/css">
	.st0{fill:#0000FF;}
</style>
<g>
	<path class="st0" d="M6.5,24.5c0.5-0.7,1.1-1.4,1.7-2c0.6-0.6,1.2-1.3,1.7-2c0.3-0.5,0.8-1,1.5-1.7c-0.5,0-0.9,0.1-1.2,0.2
		c-0.3,0.1-0.6,0.3-0.9,0.5c-0.3,0.1-0.7,0.2-1.3,0.6c-0.2,0.4-0.4,0.6-0.8,0.6s-0.7-0.1-1-0.2c-0.3-0.1-0.5-0.3-0.7-0.5
		c-0.7-0.5-1.2-1.2-1.4-2.1C4.1,17,4,16.2,4.1,15.4c0.1-0.8,0.2-1.6,0.5-2.4c0-0.3,0-0.5,0.1-0.8s0.1-0.6,0.2-0.9
		C5,10.5,5.3,10,5.7,10c0.4-0.1,0.7,0,1,0.1c0.3,0.1,0.5,0.3,0.6,0.5c0.1,0.2,0.2,0.4,0.1,0.6c-0.1,0.2-0.2,0.4-0.4,0.6
		C6.9,12,6.7,12.1,6.4,12c-0.3,0.5-0.5,1.2-0.6,1.9c-0.1,0.7-0.2,1.3-0.3,1.8c0,0.4,0,0.7,0,1c-0.1,0.2,0,0.4,0.2,0.6
		c0.1,0.3,0.2,0.5,0.3,0.7c0.1,0.1,0.1,0.2,0.2,0.4c0.1,0.1,0.2,0.2,0.3,0.2c0.1,0,0.3,0.1,0.5,0.2c0.5-0.2,0.9-0.3,1.1-0.4
		c0.3-0.1,1.1-0.4,2.5-0.9c0.1-0.4,0.2-0.7,0.3-0.9c0.1-0.2,0.3-0.8,0.5-1.9c0.2-1.1,0.4-1.9,0.5-2.6c-0.5,0.3-0.8,0.4-0.9,0.5
		c-0.1,0.1-0.4,0.3-0.9,0.5c-0.2,0.1-0.3,0.3-0.4,0.4s-0.3,0.3-0.5,0.4c-0.3,0.1-0.6,0.1-0.9-0.3C7.9,13.3,7.8,13,8,12.6
		c0.4-0.6,0.9-1,1.5-1.3c0.6-0.2,1.1-0.4,1.6-0.6c-0.3-0.2-0.4-0.5-0.3-0.9c0.1-0.4,0.3-0.6,0.6-0.8c0.3-0.2,0.5-0.3,0.9-0.5
		c0.2-0.2,0.5-0.4,0.9-0.6c0.2-0.1,0.3-0.3,0.4-0.4c0.3-0.2,0.6-0.3,0.8-0.4C14.5,7,14.7,6.8,15,6.7c0.1-0.2,0.3-0.3,0.4-0.4
		C15.6,6.1,15.8,6.1,16,6c0.2-0.1,0.3-0.2,0.4-0.4c0.4-0.3,0.9-0.6,1.5-0.8s1.1-0.6,1.6-1c0.2-0.3,0.4-0.5,0.5-0.6
		C20,3.2,20,3,19.8,2.9c-0.2-0.1-0.5-0.2-0.7-0.3c-0.3,0-0.7,0-1.1-0.1c-0.4,0-0.7-0.1-1-0.2c-0.2-0.1-0.5-0.1-0.6,0
		c-0.2,0.1-0.4,0.1-0.5,0.1s-0.3-0.1-0.4,0c-0.1,0-0.4,0-0.8-0.1l-0.7,0.2c-0.2-0.1-0.4-0.1-0.5,0c-0.1,0.1-0.3,0.1-0.4,0.1
		C12.7,2.9,12.4,3,12.3,3c-0.2,0.2-0.5,0.3-0.8,0.5c-0.3,0.1-0.6,0.2-0.9,0.3c-0.3,0.1-0.7,0-1.2-0.3C8.2,4.3,7.5,4.9,7.2,5.1
		C6.9,5.3,6.6,5.6,6.3,5.9C5.9,6.2,5.6,6.5,5.4,6.7C5.2,7,4.9,7.3,4.7,7.7C4.5,7.9,4.4,8.1,4.2,8.3C4.1,8.4,3.9,8.4,3.6,8.3
		C3.3,8.3,3,8.1,2.8,7.9C2.5,7.7,2.4,7.4,2.5,7.2C2.6,7,2.8,6.7,3,6.3c0.3-0.4,0.5-0.6,0.7-0.7C3.8,5.5,4,5.4,4.1,5.3
		C4.3,5.1,4.4,5,4.6,4.9c0.2-0.1,0.3-0.1,0.3-0.2c0-0.1,0.1-0.2,0.2-0.4C5.2,4.2,5.5,4.1,5.8,4C5.9,3.8,6,3.7,6.1,3.6
		c0.1-0.1,0.3-0.1,0.4-0.2c0.1-0.1,0.2-0.1,0.2-0.3C6.8,3,6.9,2.9,7.2,2.9c0.1-0.2,0.2-0.2,0.4-0.3c0.2,0,0.4-0.2,0.6-0.4
		C8.4,2,8.8,1.8,9.3,1.6c0.5-0.3,1.1-0.5,1.6-0.8c0.5-0.2,1-0.4,1.4-0.6C12.6,0.1,12.8,0,12.9,0c0.2,0,0.3,0,0.4,0
		C13.7,0.1,14,0.5,14.3,1c0.3-0.1,0.7-0.1,1-0.1C15.6,1,16,1,16.4,0.9c0.2-0.1,0.4-0.1,0.6,0c0.2,0.1,0.4,0.1,0.6,0.1
		c0.7,0,1.4,0.1,2.1,0.2c0.7,0.1,1.2,0.3,1.6,0.6c0.3,0.3,0.5,0.5,0.6,0.7c0.1,0.2,0.1,0.4,0.1,0.6s-0.1,0.5-0.2,0.7
		c-0.1,0.2-0.3,0.5-0.6,0.8c-0.3,0.2-0.5,0.3-0.7,0.4S20,5.3,19.6,5.5c-2.7,1.7-4.3,2.8-4.9,3.2c-0.6,0.4-1.1,0.9-1.5,1.4
		c0.6-0.1,1.4-0.3,2.3-0.5c1-0.2,1.9-0.3,2.9-0.2c1,0.1,1.7,0.3,2.2,0.6c0.5,0.3,0.8,0.7,1,1c0.1,0.4,0.2,0.7,0.1,1
		s-0.2,0.7-0.4,1.2c-0.3,0.5-0.6,1-0.9,1.5c-0.2,0.4-0.4,0.7-0.5,1.1c-0.2,0.3-0.4,0.5-0.4,0.6c0,0.1-0.2,0.4-0.4,0.7
		c-0.2,0.3-0.4,0.6-0.5,0.9c-0.1,0.3-0.3,0.6-0.5,0.7s-0.4,0.2-0.8,0.2s-0.6-0.1-0.8-0.3c-0.2-0.2-0.3-0.5-0.2-0.9
		c-0.3,0-0.7,0-1.2,0c-0.4,0-1,0.1-1.6,0.3c0.1,0.4,0,0.7-0.5,1c-0.2,0.3-0.3,0.6-0.6,0.8c-0.2,0.2-0.5,0.5-0.8,0.8
		c-1.2,1.3-2.4,2.7-3.8,4c-1.4,1.3-2.6,2.7-3.8,4.2c-0.5,0.6-0.9,1-1.1,1.2c-0.2,0.2-0.6,0.7-1.3,1.3c-0.4,0.3-0.8,0.4-1.2,0.1
		c-0.4-0.2-0.5-0.6-0.4-1.1c0.2-0.3,0.4-0.6,0.8-0.8c0.3-0.5,0.6-0.8,0.8-1c0.2-0.2,0.3-0.3,0.5-0.3c0.2-0.1,0.3-0.3,0.4-0.5
		c0.1-0.2,0.3-0.3,0.6-0.4c0.5-0.2,0.9-0.5,1.2-0.8c0.3-0.4,0.6-0.7,1-1.1c0.3-0.2,0.5-0.4,0.6-0.7C6,24.9,6.2,24.6,6.5,24.5z
		 M35.9,27.2c-0.1,0.7-0.2,1.2-0.5,1.6c-0.1,0.3-0.2,0.5-0.2,0.7c-0.1,0.2-0.2,0.4-0.4,0.5c-0.2,0.1-0.3,0.2-0.4,0.4
		c-0.1,0.1-0.3,0.4-0.6,0.6c-0.5,0.5-1.3,1-2.2,1.3c-0.9,0.3-2.3,0.6-4,0.9c-2.4,0.2-4.3,0.3-5.7,0.1s-2.7-0.5-3.9-0.9
		c-2.1-0.9-3.6-2-4.6-3.3c-0.2-0.4-0.4-0.8-0.5-1.1c-0.1-0.3-0.2-0.5-0.2-0.7c0-0.2-0.1-0.5-0.1-0.8c-0.1-0.4-0.2-0.7-0.2-1
		c0-0.3,0-0.8,0.1-1.6c0.1-0.8,0.3-1.7,0.6-2.5c0.2-0.4,0.3-0.7,0.4-0.8c0.1-0.1,0.2-0.5,0.4-1.1c0.1-0.4,0.3-0.7,0.5-0.9
		c0.2-0.2,0.5-0.3,0.8-0.2c0.3,0,0.6,0.2,0.7,0.4C16,18.8,16,19,16,19.1c0,0.1-0.1,0.4-0.3,0.8c-0.1,0.4-0.3,0.7-0.6,1
		c-0.2,0.3-0.3,0.5-0.4,0.7c-0.1,0.1-0.2,0.6-0.5,1.2c-0.3,1.1-0.4,2.2-0.4,3.3c0,1.1,0.4,2.1,1.2,3.1c0.8,1,1.8,1.6,3,2.1
		c1.2,0.4,2.4,0.7,3.6,0.9c1.7,0.3,3.8,0.2,6.2-0.2c0.7-0.1,1.5-0.4,2.5-0.7c0.7-0.3,1.3-0.5,1.6-0.8c0.4-0.2,0.7-0.5,1.1-0.9
		c0.4-0.3,0.7-0.7,0.9-1.2c0.2-0.4,0.4-1,0.5-1.6c0.1-0.7,0.1-1.3,0.2-1.6c0.1-0.4,0.1-1.3,0.1-2.7c0.1-0.7,0.2-1.1,0.4-1.2
		c0.2-0.2,0.4-0.2,0.8-0.1c0.4,0.1,0.6,0.3,0.6,0.4c0.1,0.2,0.1,0.3,0.1,0.5c0,0.2-0.1,0.4-0.1,0.7c0,0.3,0,0.5,0,0.8
		c0,0.2-0.1,0.5-0.1,1c-0.1,0.4-0.1,0.7-0.2,0.9s-0.1,0.4-0.2,0.7C36,26.5,35.9,26.9,35.9,27.2z M15.8,16.4c0.6-0.1,1.1-0.1,1.6,0
		c0.3-0.4,0.6-0.7,0.8-1.1c0.2-0.3,0.4-0.6,0.4-0.8s0.2-0.4,0.5-0.5c0.2-0.2,0.3-0.4,0.4-0.6c0-0.2,0.2-0.5,0.5-0.9
		c0.1-0.3,0.1-0.5,0.1-0.7c0-0.2-0.1-0.3-0.3-0.4c-0.2-0.1-0.4-0.2-0.5-0.3c-0.1-0.1-0.4-0.2-0.8-0.2c-0.4-0.1-0.7-0.1-0.9,0
		c-0.4-0.1-0.7,0-0.8,0.1c-0.2,0.1-0.4,0.2-0.6,0.2c-0.2,0-0.5,0-0.8,0c-0.3,0.1-0.8,0.2-1.6,0.5c0.2,0.5,0.3,0.9,0.2,1.1
		s-0.1,0.3-0.2,0.4c-0.1,0.1-0.1,0.3-0.1,0.5c0,0.2-0.1,0.5-0.3,0.9c0.1,0.3,0,0.5-0.1,0.7c-0.1,0.2-0.1,0.4-0.1,0.6
		c0,0.2-0.1,0.5-0.3,0.9c0.6-0.1,1.1-0.1,1.6-0.2C14.9,16.5,15.4,16.4,15.8,16.4z M23.5,13.1c0.4-0.2,0.7-0.3,0.9-0.4
		c0.2-0.1,0.4-0.2,0.7-0.2c0.2,0,0.5-0.1,0.8-0.3c0.3-0.2,0.6-0.2,1-0.2c0.1-0.8,0.3-1.5,0.5-2.1c0.2-0.6,0.6-1.4,1.1-2.2
		c0.2-0.6,0.3-1.1,0.4-1.4c0.1-0.3,0.4-0.5,0.7-0.6c0.3-0.1,0.6,0,0.8,0.3c0.2,0.3,0.3,0.5,0.4,0.9c0,0.3,0,0.6-0.1,0.9
		c-0.1,0.3-0.2,0.6-0.3,0.9c-0.5,1-1,2-1.6,3c0.7-0.1,1.2-0.2,1.5-0.3c0.4-0.1,0.9-0.1,1.6-0.2c0.4,0,0.9,0,1.5,0
		c0.5,0,1,0.2,1.4,0.5c0.2,0.1,0.4,0.2,0.5,0.4c0.1,0.2,0.3,0.3,0.4,0.5c0.1,0.2,0.3,0.4,0.3,0.8c0,0.3,0.1,0.5,0.1,0.7
		c0.1,0.2,0,0.6-0.1,1.1c-0.2,0.8-0.4,1.4-0.7,2c-0.2,0.2-0.4,0.6-0.6,1c-0.1,0.2-0.2,0.4-0.3,0.5c-0.1,0.2-0.3,0.4-0.5,0.6
		c-0.3,0.5-0.9,1.3-1.8,2.3c-0.9,1-1.7,1.7-2.6,2.1c-0.5,0.2-0.9,0.3-1.4,0.2c-0.5-0.1-0.8-0.4-1.2-0.8c-0.3-0.4-0.6-0.8-0.8-1.2
		c-0.2-0.4-0.4-0.9-0.4-1.4c-0.1-0.5-0.1-0.9-0.1-1.3s0-0.7,0-1.1c0-0.4,0.1-0.9,0.2-1.6c-1.1,1.5-2.1,2.9-2.9,4
		c-0.8,1.1-1.6,2.2-2.3,3.3c-0.4,0.7-0.8,1.4-1.1,2c0,0.2,0,0.4,0,0.6c0,0.2-0.1,0.5-0.3,0.7c-0.2,0.3-0.5,0.3-1,0.2
		c-0.5-0.2-0.7-0.4-0.7-0.7c0-0.3,0.1-0.5,0.2-0.6c0.1-0.1,0.2-0.3,0.3-0.6c0.1-0.2,0.3-0.6,0.6-1.1c0.3-0.5,0.6-0.9,0.9-1.2
		c0.2-0.3,0.4-0.6,0.5-0.7c0.3-0.4,0.5-0.8,0.9-1.2c0.6-0.7,1.1-1.5,1.6-2.3c0.3-0.4,0.5-0.6,0.7-0.7s0.3-0.2,0.3-0.5
		c0.4-0.6,0.6-1,0.8-1.4c0.2-0.4,0.4-0.7,0.6-0.9c0.2-0.2,0.5-0.7,0.8-1.3c-0.5,0.2-1,0.4-1.4,0.6c-0.4,0.2-0.8,0.5-1.2,0.8
		c-0.3,0.3-0.5,0.4-0.7,0.3s-0.3-0.1-0.5-0.2c-0.2-0.1-0.3-0.2-0.4-0.4c-0.1-0.2-0.1-0.4-0.1-0.6c0.1-0.2,0.2-0.4,0.5-0.7
		S22.9,13.2,23.5,13.1z M35,14.5c0-0.5-0.2-1-0.4-1.3c-0.3-0.3-0.6-0.5-1-0.6c-0.4-0.1-0.7-0.1-1.2-0.1c-0.4,0-0.9,0.1-1.4,0.1
		c-0.3,0.1-0.5,0.1-0.8,0.1c-0.3,0.2-0.6,0.3-1,0.3c-0.3,0-0.7,0.1-1,0.3c-0.2,0.2-0.3,0.5-0.3,0.8c0.1,0.2,0.1,0.3-0.1,0.5
		c-0.1,0.1-0.2,0.5-0.3,1c-0.1,0.7-0.2,1.3-0.2,1.7c-0.1,0.4-0.1,0.7-0.1,1c0,0.2,0,0.5,0.1,0.7c0,0.2,0,0.6,0.1,1.1l0.1,0.7
		c0,0.2,0.2,0.6,0.5,1.2c0.2,0.2,0.5,0.2,0.8,0.2c0.3,0,0.6-0.1,0.8-0.3c0.2-0.2,0.4-0.3,0.6-0.5c0.2-0.1,0.4-0.3,0.5-0.4
		s0.3-0.3,0.4-0.4s0.3-0.2,0.4-0.4c0.1-0.1,0.3-0.3,0.6-0.5c0.2-0.3,0.5-0.7,0.8-1.2c0.3-0.5,0.6-1,0.9-1.5c0.2-0.3,0.4-0.7,0.5-1
		S34.7,15.2,35,14.5z"/>
	<path class="st0" d="M43.5,19.5c0.5-0.1,1.2-0.2,1.9-0.4c0.8-0.2,1.4-0.4,2-0.5c0.5-0.1,1.1-0.3,1.6-0.4c0.5-0.1,1.3-0.3,2.1-0.4
		c0.4,0,0.8,0.1,1.2,0.2c0.3,0.1,0.6,0.2,0.8,0.4c0.2,0.1,0.3,0.3,0.4,0.5c0.1,0.2,0.2,0.4,0.2,0.6s0,0.5,0,0.8
		c0,0.3-0.1,0.6-0.3,0.8c0,0.4-0.1,0.7-0.3,1.1c-0.5,1.2-1.1,2.4-1.7,3.4c-0.6,1-1.2,1.9-1.8,2.5s-1.3,1.3-2.2,1.9
		c-0.5,0.2-0.9,0.3-1.2,0.3s-0.7,0-1-0.1c-0.3-0.1-0.6-0.3-0.9-0.6c-0.3-0.2-0.6-0.3-0.6-0.4c-0.1-0.1-0.3-0.2-0.5-0.4
		c-0.1-0.2-0.3-0.3-0.5-0.4c-0.2-0.1-0.4-0.2-0.5-0.4c-0.1-0.1-0.2-0.3-0.3-0.4c-0.1-0.1-0.2-0.2-0.4-0.3c-0.2-0.1-0.3-0.2-0.3-0.3
		s-0.2-0.4-0.4-0.6c-0.4-0.2-0.6-0.5-0.6-0.7c0-0.2,0-0.4,0-0.6c0-0.2,0.2-0.4,0.6-0.6c0.4-0.2,0.7-0.1,0.9,0.1
		c0.2,0.2,0.4,0.5,0.6,0.8c0.2,0.3,0.4,0.5,0.6,0.8c0.6,0.7,1.1,1.1,1.3,1.3c0.2,0.2,0.6,0.5,1.1,0.9c0.5,0.4,1,0.5,1.4,0.4
		c0.4-0.2,0.7-0.5,1.2-0.8c0.4-0.3,0.8-0.7,1.2-1.2c0.4-0.5,0.7-0.9,1-1.3c0.3-0.4,0.6-0.9,0.8-1.3c0.2-0.5,0.5-1.1,0.8-1.9
		c0.2-0.4,0.3-0.9,0.4-1.3c0.1-0.4,0.1-0.8,0-1.1c-0.2-0.2-0.4-0.3-0.6-0.4c-0.2-0.1-0.5-0.1-0.8,0c-0.3,0.1-0.6,0.2-0.8,0.2
		c-0.2,0-0.4,0.1-0.6,0.1s-0.4,0.1-0.6,0c-0.3,0.3-0.5,0.4-0.6,0.4c-0.2,0-0.4,0-0.8,0c-0.3,0.2-0.6,0.3-0.7,0.3
		c-0.2-0.1-0.3,0-0.4,0.1c-0.1,0.1-0.3,0.1-0.6,0.1c-0.2,0.2-0.4,0.3-0.7,0.3c-0.4,0.1-0.6,0.1-0.8,0.2c-0.1,0.1-0.4,0.1-0.8,0.1
		c-0.4,0-0.8-0.2-1.1-0.5c-0.3-0.3-0.5-0.7-0.4-1.1c0-0.4,0.1-0.7,0.1-1c0.1-0.3,0.3-0.5,0.6-0.8c0.3-0.4,0.5-0.6,0.6-0.8
		c0.1-0.2,0.3-0.4,0.5-0.7c0.2-0.3,0.4-0.5,0.6-0.7c-0.7-0.1-1-0.2-1.2-0.5c-0.1-0.3-0.2-0.6-0.1-0.9c0.1-0.3,0.2-0.6,0.6-0.7
		c0.3-0.2,0.6-0.3,0.9-0.4c0.4-0.1,0.7-0.2,1-0.3c0.3-0.1,1-0.2,2-0.4c1-0.2,1.9-0.3,2.6-0.4c-0.1-0.3,0-0.6,0.2-0.8
		c0.2-0.2,0.4-0.4,0.6-0.5c0.2-0.1,0.4-0.2,0.5-0.5c0.2-0.2,0.3-0.5,0.5-0.6c0.1-0.2,0.3-0.5,0.7-0.7c0.1-0.3,0.2-0.5,0.4-0.6
		C52.8,8.2,53,8,53.2,7.7c0.2-0.2,0.3-0.4,0.4-0.6c0-0.1-0.1-0.3-0.3-0.4c-0.4-0.1-0.6-0.1-0.8-0.1c-0.2,0-0.4,0-0.6,0.1
		s-0.3,0-0.4-0.1c-0.1-0.1-0.2-0.1-0.4-0.1c-0.1,0.1-0.4,0.1-0.8,0.2c-0.3,0.1-0.5,0.1-0.7,0.1c-0.1,0-0.4,0-0.6,0
		c-0.3,0-0.6,0-0.9,0.1c-0.4,0.2-0.6,0.2-0.8,0.2c-0.2,0-0.4,0-0.6,0c-0.4,0.2-0.7,0.2-0.9,0.3c-0.2,0-0.4,0.1-0.5,0.1
		c-0.2,0-0.6,0.2-1.1,0.4c-0.3,0.1-0.5,0.2-0.6,0.4c-0.2,0.2-0.3,0.3-0.5,0.4c-0.2,0.1-0.4,0.1-0.8-0.1c-0.4-0.2-0.5-0.6-0.3-1.2
		c0.2-0.6,0.6-0.9,1.2-1c0.7-0.3,1.3-0.5,2-0.6c0.7-0.1,1.4-0.3,2.3-0.4c0.9-0.2,1.6-0.3,2.3-0.3C50.8,4.9,52,4.9,53.2,5
		c0.6,0.1,1,0.2,1.3,0.3c0.2,0.1,0.4,0.3,0.5,0.4c0.1,0.2,0.2,0.4,0.4,0.8c0.1,0.3,0.1,0.6,0.1,0.8S55.2,7.8,55.1,8
		c-0.1,0.3-0.3,0.5-0.4,0.7s-0.4,0.5-0.8,1c-0.4,0.5-0.7,0.9-0.9,1.2s-0.5,0.7-0.8,1.1c0.3,0.4,0.5,0.7,0.5,0.9c0,0.2,0,0.4-0.1,0.6
		c-0.1,0.2-0.3,0.3-0.5,0.3s-0.5,0.1-0.7,0.1c-0.2,0-0.5-0.1-0.9-0.2c-0.3,0.2-0.6,0.2-0.9,0c-0.4,0.2-0.7,0.2-0.8,0.2s-0.4,0-0.6,0
		c-0.5,0.3-1,0.4-1.6,0.3c0.2,0.5,0.3,0.9,0.1,1.1s-0.4,0.4-0.6,0.6c-0.2,0.2-0.4,0.4-0.7,0.7c-0.3,0.3-0.6,0.6-0.9,1
		c-0.3,0.4-0.5,0.7-0.7,0.9C43.5,18.8,43.5,19.1,43.5,19.5z M56.6,22.3c-0.1-0.3-0.2-0.6-0.3-0.8c-0.1-0.2-0.1-0.4-0.1-0.7
		C56.1,20.4,56,20,56,19.7c0-0.4,0-0.8-0.1-1.3s0-1.1,0-1.7s0.1-1.2,0.2-1.7c0.2-0.6,0.4-1.1,0.7-1.4c0.3-0.3,0.6-0.4,0.9-0.4
		c0.3,0,0.5,0.2,0.8,0.5c0.2,0.3,0.3,0.6,0.1,0.9s-0.4,0.5-0.6,0.6c-0.2,0.3-0.2,0.5-0.3,0.7c0,0.2-0.1,0.4-0.1,0.6
		c-0.1,0.2-0.1,0.4-0.2,0.8c-0.1,0.6-0.1,1.1,0,1.4c0,0.3,0.1,0.6,0.1,0.8c0,0.2,0,0.7,0.1,1.4c0.3,0.3,0.4,0.6,0.4,0.9
		c0.2,0.3,0.3,0.6,0.4,0.9c0.3,0.3,0.5,0.5,0.7,0.7c0.3,0,0.5,0.2,0.6,0.4c0.1,0.3,0.1,0.5,0,0.7s-0.3,0.3-0.4,0.4
		c-0.2,0.1-0.5,0.1-0.9,0c-0.4-0.1-0.7-0.3-0.9-0.5c-0.2-0.2-0.3-0.5-0.5-0.7C56.9,23.2,56.7,22.8,56.6,22.3z M58.5,8.8
		c-0.3,0.5-0.5,0.8-0.5,1.1c0,0.2,0.1,0.4,0.5,0.6c0.3,0.1,1,0.1,2.1,0c1.1-0.1,2.1-0.2,3-0.3c0.9-0.1,1.5-0.3,2.1-0.4
		c1.1-0.3,2-0.5,2.7-0.7c0.7-0.2,1.4-0.7,2.1-1.3C70,7.4,69.8,7,69.9,6.6c0.1-0.4,0.3-0.6,0.7-0.7c0.4-0.1,0.8,0,1.1,0.2
		c0.3,0.2,0.5,0.5,0.5,0.8c0.1,0.3,0.1,0.6,0.3,1c1.2,0.9,1.9,1.5,2.2,1.8c0.3,0.2,0.6,0.4,0.8,0.4c0.2,0.1,0.6,0.2,1,0.4
		c0.5,0.1,0.8,0.3,0.9,0.5s0.1,0.4,0,0.8c-0.1,0.3-0.2,0.5-0.4,0.5c-0.2,0-0.4,0-0.5,0c-0.2,0-0.4-0.2-0.9-0.4
		c-0.8-0.5-1.6-1.1-2.4-1.7c-0.4-0.3-0.7-0.6-0.9-0.8c-0.2-0.2-0.4-0.4-0.7-0.6c-0.4,0.4-0.8,0.6-1.1,0.8c-0.4,0.2-0.8,0.3-1.2,0.4
		c-0.2,0-0.4,0.1-0.4,0.2c-0.1,0.1-0.2,0.2-0.4,0.1c-0.2,0-0.4,0-0.6,0.1c-0.2,0.1-0.5,0.2-1.1,0.3c0.3,0.3,0.4,0.7,0.3,1.2
		c-0.1,0.7-0.1,1.1-0.2,1.3c-0.1,0.2-0.1,0.6-0.1,1.1c1.4-0.1,2.1-0.2,2.4-0.2c0.2-0.1,0.6,0,1.2,0.1c0.5-0.1,1,0,1.5,0.1
		c0.7,0.3,1.1,0.5,1.3,0.8c0.2,0.2,0.3,0.5,0.4,0.7c0.1,0.2,0.1,0.5,0,0.8c-0.1,0.3-0.2,0.7-0.3,0.9c-0.1,0.3-0.3,0.5-0.4,0.8
		c-0.2,0.2-0.7,0.7-1.6,1.5c0.4,0.2,0.6,0.4,0.7,0.7c0.1,0.3,0,0.5-0.1,0.7c-0.1,0.2-0.4,0.3-0.9,0.5c-0.5,0.1-1,0.1-1.4,0.2
		c-0.6,0.3-1,0.4-1.3,0.5c-0.2,0.1-0.8-0.1-1.8-0.5l-1.4,0.6c-0.3,0.9-0.5,1.6-0.7,2.1c-0.1,0.4-0.2,0.7-0.4,0.8
		c-0.1,0.1-0.1,0.2-0.1,0.4s0,0.4-0.1,0.5c-0.1,0.2-0.4,0.6-0.7,1.4c1.5-0.3,2.5-0.5,3.1-0.7c0.6-0.2,1.1-0.4,1.5-0.6
		s0.9-0.4,1.2-0.6c0.1-0.7,0.1-1.1,0-1.2c-0.1-0.1-0.1-0.3,0.1-0.6c0.2-0.2,0.4-0.4,0.6-0.5c0.3-0.1,0.5,0,0.8,0.3
		c0.6,0.2,1,0.4,1.2,0.5c0.2,0.1,0.3,0.3,0.3,0.5c0,0.2-0.1,0.4-0.3,0.6c-0.2,0.2-0.3,0.5-0.3,0.8c0.4,1,0.7,1.6,0.8,1.9
		c0.2,0.3,0.4,0.6,0.8,1.1c0.4,0.5,0.9,0.9,1.4,1.2c0.4,0.3,0.6,0.5,0.6,0.9c0,0.3-0.2,0.5-0.6,0.7c-0.4,0.1-0.8,0-1.3-0.5
		c-0.3-0.5-0.5-0.8-0.7-1.1c-0.1-0.2-0.9-1.3-2.4-3.1c-0.5,0.2-0.9,0.4-1.2,0.4c-0.3,0.1-0.8,0.2-1.3,0.5c-0.5,0.2-1.1,0.5-1.8,0.7
		c-0.7,0.2-1.2,0.4-1.5,0.4c-0.3,0.1-0.8,0.1-1.3,0.3c-0.9,0.4-1.5,0.7-1.6,0.8c-0.2,0.1-0.7,0.2-1.4,0.4c-0.5,0-0.9,0.1-1.2,0.1
		c-0.5,0-0.9-0.2-1.2-0.4s-0.4-0.6-0.3-1c0.2-0.2,0.3-0.4,0.6-0.6c0.2-0.2,0.5-0.3,0.9-0.3c0.4,0,0.7-0.1,1-0.2
		c0.7-0.2,1.2-0.4,1.6-0.6c0.2-0.3,0.5-0.8,0.9-1.4c0.2-0.3,0.3-0.6,0.4-0.8c0.1-0.2,0.2-0.4,0.3-0.7c0.1-0.3,0.2-0.5,0.3-0.8
		c0.1-0.2,0.2-0.6,0.4-1.2c-0.7,0.2-1.2,0.4-1.5,0.6c-0.3,0.2-0.6,0.3-0.9,0.3s-0.5-0.1-0.6-0.3c-0.1-0.2-0.2-0.5-0.2-0.8
		c0-0.3,0.1-0.5,0.4-0.7c0.3-0.2,0.9-0.3,1.7-0.5c0.4,0,1-0.1,1.7-0.4c0.3-0.8,0.5-1.6,0.6-2.5c0.1-0.8,0.2-1.6,0.3-2.4
		c-0.9,0.1-1.5,0.2-1.9,0.4c-0.3,0.2-0.7,0.3-1.1,0.5c-0.4,0.2-0.6,0.4-0.7,0.6c-0.1,0.3-0.3,0.4-0.7,0.4c-0.4,0-0.7-0.1-0.9-0.4
		s-0.2-0.6,0-1c0.2-0.4,0.6-0.7,1.1-0.9c0.4-0.2,0.7-0.3,1-0.4c0.2-0.1,0.5-0.1,0.7-0.1c0.3-0.1,0.5-0.2,0.8-0.2
		c0.2-0.1,0.5-0.1,0.7-0.2c0.2-0.1,0.7-0.1,1.5-0.3c0-0.5,0-1,0-1.4s0-1,0-1.8c-0.4,0.1-0.7,0.2-0.8,0.2c-0.2,0.1-0.4,0.1-0.7,0.1
		c-0.3,0-0.5,0-0.8,0.1c-0.2,0.1-0.5,0.1-0.7,0c-0.3,0.2-0.6,0.2-0.9,0.3c-0.2,0-0.5,0-0.7,0c-0.2,0-0.5,0-0.9,0
		c-0.7,0.1-1.2,0.1-1.5,0c-0.4-0.1-0.8-0.2-1.4-0.5c-0.5-0.5-0.7-1.2-0.5-1.8c0.2-0.7,0.4-1.2,0.8-1.7c0.3-0.4,0.6-0.7,0.9-1
		c0.3-0.2,0.4-0.4,0.5-0.6s0.2-0.3,0.5-0.5c0.2-0.2,0.4-0.3,0.6-0.5c0.6-0.4,1.2-0.9,1.7-1.5c0.6-0.6,1.2-1,1.8-1.5
		c0.4-0.2,0.8-0.5,1.1-0.9c0.3-0.3,0.6-0.5,0.9-0.6C65.3,1,65.5,1,65.7,0.9c0.3,0,0.5,0.1,0.7,0.2c0.3,0.2,0.5,0.4,0.5,0.6
		c0.1,0.2,0,0.4,0,0.6c-0.1,0.2-0.4,0.4-1.2,0.7c-1.4,0.9-2.7,1.8-3.9,2.8C60.7,6.8,59.5,7.8,58.5,8.8z M65.7,20.7
		c0.7-0.3,1.4-0.4,1.9-0.5c0.6-0.1,1-0.3,1.5-0.5c0.3-0.3,0.6-0.4,0.8-0.5c0.2-0.1,0.4-0.2,0.5-0.5c0.1-0.2,0.3-0.4,0.6-0.6
		c0.3-0.2,0.5-0.5,0.9-1.1c0.2-0.2,0.2-0.5,0-0.7c-0.2-0.2-0.4-0.4-0.7-0.5c-0.5,0-1,0-1.4-0.1c-0.3,0.1-0.7,0.1-1,0
		c-0.3,0-1.1,0-2.3,0.2c-0.1,0.5-0.2,1-0.2,1.3c-0.1,0.3-0.1,0.5-0.2,0.7C66,18.1,66,18.3,66,18.6c0,0.3-0.1,0.5-0.1,0.6
		C65.8,19.3,65.7,19.8,65.7,20.7z"/>
	<path class="st0" d="M90,15c-0.1,0.6-0.1,1-0.2,1.1c-0.1,0.1-0.1,0.3-0.1,0.5c0,0.2,0,0.4,0,0.7c0,0.3,0,0.6-0.1,0.8
		c0,0.2-0.1,0.8-0.1,1.8c1.1-0.5,2.2-1,3.3-1.5c1.1-0.4,2.1-0.9,3.1-1.4c0.3-0.2,0.6-0.3,0.7-0.3c0.2,0,0.3,0.1,0.5,0.4
		c0.2,0.2,0.2,0.5,0.2,0.7c0,0.2-0.3,0.5-0.9,0.7c-0.5,0.3-0.9,0.5-1,0.5c-0.1,0.1-0.4,0.2-1,0.4c-0.6,0.2-1,0.3-1.1,0.3
		c-0.1,0.1-0.3,0.2-0.3,0.3c-0.1,0.1-0.3,0.2-0.5,0.3c-0.3,0.1-0.6,0.2-0.8,0.3c-0.3,0.1-0.6,0.2-0.9,0.2c-0.2,0.3-0.3,0.4-0.5,0.5
		c-0.2,0.1-0.4,0.1-0.6,0.1c-0.3,0.2-0.4,0.4-0.5,0.4c0,0.1-0.2,0.2-0.4,0.2c-0.2,0-0.5,0.1-0.7,0.3c-0.2,0.2-0.5,0.3-0.9,0.3
		c-0.2,0.1-0.3,0.2-0.4,0.4c-0.1,0.1-0.3,0.2-0.6,0.2c-0.2,0.3-0.5,0.4-0.8,0.5c-0.3,0.1-0.5,0.1-0.6,0.2c-0.1,0.1-0.4,0.2-0.8,0.4
		c-0.1,0.4-0.3,0.8-0.5,1c-0.2,0.2-0.5,0.3-0.7,0.3c-0.3,0-0.6-0.1-0.9-0.4c-0.3-0.2-0.4-0.5-0.3-1c0.1-0.4,0.3-0.7,0.7-1
		c0.3-0.1,0.6-0.2,0.8-0.4c0.2-0.1,0.6-0.3,1.3-0.6c0.7-0.3,1.3-0.5,1.8-0.7c0.5-0.2,1-0.4,1.6-0.6c-0.2-0.7-0.2-1.1-0.2-1.4
		c0.1-0.2,0.1-0.6,0.2-0.9c0.1-0.4,0.2-0.9,0.3-1.7c0.1-0.6,0.2-1.5,0.4-2.6s0.3-2.4,0.5-3.8c0.2-1.4,0.4-2.7,0.5-3.8
		c0.1-0.5,0.2-0.8,0.3-1.1C90,5.2,90.1,5.1,90.3,5c0.1-0.1,0.3-0.2,0.5-0.2s0.4,0,0.6,0c0.2,0,0.4,0.1,0.6,0.3
		c0.2,0.2,0.3,0.4,0.3,0.7c0,0.3-0.2,0.5-0.4,0.7c-0.3,0.4-0.5,0.8-0.6,1.2c-0.1,0.4-0.3,1.1-0.4,2c-0.2,0.9-0.3,1.7-0.4,2.3
		c-0.1,0.6-0.2,1.1-0.2,1.4c-0.1,0.3-0.1,0.6-0.1,0.8C90.1,14.4,90.1,14.7,90,15z M94.9,28c-0.5,0.3-0.9,0.5-1.1,0.5
		c-0.2,0-0.5-0.1-0.6-0.3c-0.2-0.2-0.3-0.4-0.3-0.7c0-0.3,0-0.6,0.1-0.8c0.1-0.2,0.3-0.3,0.5-0.5c0.2-0.1,0.5-0.3,0.7-0.4
		c0.2-0.1,0.5-0.3,0.8-0.5c0.6-0.4,1.1-0.7,1.6-1.2c0.4-0.4,0.8-0.7,1.2-1c0.4-0.3,0.7-0.5,0.9-0.9c0.7-0.5,1.2-1,1.6-1.5
		c0.4-0.4,0.8-0.7,1-0.9c0.2-0.1,0.4-0.3,0.6-0.6c0.2-0.2,0.5-0.5,0.8-0.7c0.1-0.3,0.2-0.5,0.4-0.7c0.2-0.2,0.5-0.5,0.8-1
		c1.2-1.6,2.1-3,2.7-4c0.6-1,1.1-1.8,1.4-2.3c0.3-0.5,0.7-1.3,1.1-2.5c0.2-0.6,0.4-1.2,0.7-1.8c0.3-0.6,0.5-1.1,0.6-1.4
		c0.1-0.3,0.2-0.5,0.4-0.7c0.1-0.1,0.3-0.2,0.5-0.3c0.2,0,0.5,0,0.7,0.1s0.4,0.2,0.6,0.5c0.1,0.2,0.2,0.4,0.2,0.6s0,0.3-0.1,0.4
		c-0.1,0.1-0.3,0.4-0.6,0.7c-0.2,0.4-0.3,0.7-0.3,0.8c-0.1,0.2-0.2,0.4-0.4,0.6c-0.2,0.3-0.4,0.6-0.5,1.1c-0.2,0.2-0.3,0.4-0.5,0.7
		s-0.3,0.5-0.5,0.7c-0.1,0.2-0.1,0.4-0.2,0.6c-0.1,0.2-0.2,0.4-0.3,0.5c-0.2,0.1-0.3,0.3-0.4,0.5c-0.1,0.4-0.3,0.7-0.5,0.8
		c-0.2,0.1-0.5,0.5-0.7,1c-0.2,0.3-0.3,0.5-0.4,0.8c-0.1,0.2-0.3,0.4-0.6,0.5c0,0.3-0.1,0.5-0.2,0.5c-0.2,0.1-0.3,0.2-0.3,0.4
		c-0.1,0.2-0.2,0.4-0.4,0.6c-0.2,0.2-0.4,0.5-0.5,0.8c0.8,0.8,1.4,1.3,1.6,1.6c0.2,0.2,0.5,0.5,0.9,0.9c0.3,0.4,1,0.9,2.1,1.6
		c0.3,0.2,0.4,0.4,0.5,0.5c0.1,0.1,0.1,0.2,0.3,0.3c0.1,0.1,0.3,0.2,0.6,0.4c0.2,0.2,0.4,0.3,0.5,0.4s0.3,0.2,0.6,0.6
		c0.5,0.3,0.8,0.5,0.9,0.6c0.1,0.2,0.3,0.3,0.4,0.4s0.5,0.3,1,0.7c0.6,0.2,1,0.3,1.2,0.4c0.2,0.1,0.3,0.3,0.3,0.7
		c0,0.3,0,0.7-0.2,0.9c-0.2,0.3-0.5,0.4-0.9,0.4c-0.9-0.4-1.6-0.9-1.9-1.2c-0.3-0.4-0.7-0.8-1.2-1.2c-0.5-0.4-1.1-0.9-1.8-1.6
		s-2.7-2.3-6.1-5c-1.8,2.1-3.5,3.9-5,5.3C97.7,25.5,96.3,26.8,94.9,28z M101.2,13c0.5,0.1,0.8,0.2,0.9,0.4c0.1,0.2,0.2,0.4,0.2,0.6
		c0,0.2-0.1,0.4-0.3,0.5c-0.2,0.1-0.3,0.3-0.4,0.4c-0.1,0.1-0.4,0.1-0.7,0.1c-0.3,0-0.7-0.2-1-0.4c-0.5-0.3-1-0.6-1.4-1
		c-0.4-0.4-1.1-0.9-1.9-1.5c-0.2-0.2-0.4-0.4-0.5-0.7c-0.2-0.3-0.2-0.5-0.2-0.8c0.1-0.3,0.2-0.5,0.5-0.7c0.3-0.2,0.5-0.2,0.6-0.2
		c0.2,0,0.3,0.1,0.4,0.2s0.4,0.3,0.9,0.7c0.5,0.4,0.9,0.8,1,0.9c0.1,0.2,0.4,0.4,0.7,0.6s0.6,0.4,0.8,0.6
		C100.9,12.9,101.1,13,101.2,13z"/>
	<path class="st0" d="M123.9,16.1c0.3,0.3,0.4,0.6,0.4,0.9c-0.1,0.4-0.2,0.6-0.6,0.8c-0.2,0.1-0.5,0.2-0.7,0.3
		c-0.2,0.1-0.5,0.1-0.7,0.2c-0.3,0-0.6-0.1-0.9-0.3c-0.2-0.3-0.3-0.7-0.2-0.9c0.1-0.3,0.2-0.6,0.4-0.8c0.2-0.3,0.4-0.5,0.5-0.6
		c0.2-0.1,0.3-0.2,0.3-0.3c0.1,0,0.1-0.1,0.1-0.1c0.1-0.2,0.2-0.4,0.4-0.5c0.2-0.1,0.4-0.3,0.7-0.6c0.2-0.3,0.4-0.5,0.5-0.7
		c0.1-0.2,0.2-0.3,0.4-0.3c0.2-0.1,0.4-0.3,0.8-0.6c0-0.2,0.1-0.3,0.4-0.3c0.2,0,0.4-0.1,0.4-0.3s0.2-0.3,0.3-0.3
		c0.1,0,0.3-0.2,0.5-0.4c0.3-0.1,0.4-0.2,0.4-0.4c0-0.2,0.1-0.3,0.4-0.4c0.2-0.1,0.4-0.3,0.7-0.5c0.1-0.2,0.3-0.4,0.5-0.5
		c0.2-0.1,0.4-0.3,0.6-0.4c0.2-0.1,0.4-0.3,0.5-0.4c0.4-0.3,0.8-0.6,1.2-0.8c0.2-0.2,0.5-0.4,0.8-0.6c0.2-0.2,0.4-0.4,0.6-0.6
		c0.3-0.2,0.5-0.3,0.7-0.4c0.3-0.3,0.8-0.6,1.3-0.9c0.5-0.2,0.9-0.3,1.3-0.3c0.4,0.1,0.7,0.3,0.9,0.6c0.2,0.3,0.2,0.7,0,1
		c-0.2,0.4-0.5,0.5-1,0.4c-0.4-0.1-0.7,0-1.1,0.1c-0.3,0.2-0.7,0.4-1.1,0.5c-0.4,0.2-0.8,0.4-1.1,0.7c-0.3,0.3-0.6,0.5-0.9,0.6
		c-1.6,1.2-2.8,2.2-3.5,2.8c-0.8,0.7-1.5,1.3-2.2,1.9C125.4,14.3,124.6,15.1,123.9,16.1z M138.9,15c-0.1,0.4-0.2,0.6-0.3,0.7
		c-0.1,0.1-0.2,0.2-0.3,0.3c-0.1,0.1-0.2,0.2-0.3,0.4c-0.1,0.2-0.2,0.3-0.4,0.5c-0.2,0.1-0.3,0.3-0.4,0.4c-0.1,0.2-0.2,0.3-0.4,0.4
		c-0.2,0.3-0.4,0.6-0.6,0.8c-0.3,0.3-0.5,0.5-0.7,0.7c-0.2,0.4-0.4,0.7-0.7,1.1c-1.8,2-3.1,3.4-3.9,4.2c-0.8,0.8-1.9,2.2-3.4,4.1
		c-0.4,0.5-0.8,1-1.1,1.3c-0.3,0.3-0.6,0.5-0.8,0.6c-0.2,0.1-0.4,0.1-0.6,0c-0.2,0-0.4-0.2-0.6-0.5c-0.2-0.3-0.3-0.6-0.2-0.9
		c0.1-0.2,0.2-0.4,0.4-0.5c0.2-0.1,0.5-0.2,0.9-0.4c0.7-0.6,1.5-1.3,2.2-2.1c0.2-0.3,0.3-0.6,0.5-0.7c0.3-0.4,0.5-0.6,0.7-0.7
		c0.2-0.1,0.3-0.3,0.4-0.5c0.1-0.2,0.3-0.4,0.4-0.5c0.2-0.1,0.3-0.3,0.5-0.4c0.2-0.2,0.3-0.4,0.4-0.5s0.3-0.3,0.6-0.5
		c0.1-0.3,0.3-0.5,0.4-0.7c0.2-0.2,0.4-0.4,0.7-0.6c-0.8-0.8-1.3-1.4-1.6-1.6c-0.2-0.2-0.5-0.5-0.8-0.8c-0.3-0.1-0.5-0.2-0.6-0.3
		c-0.1-0.1-0.3-0.2-0.5-0.2c-0.2,0-0.4-0.1-0.7-0.3c-0.3-0.2-0.4-0.5-0.4-0.8c0-0.4,0.2-0.6,0.4-0.7c0.3-0.1,0.6-0.1,0.8-0.1
		c0.3,0,0.5,0,0.8,0.1c0.3,0.1,0.6,0.2,0.9,0.4c0.3,0.2,0.7,0.5,1.1,0.9c0.5,0.4,1,1,1.7,1.8c0.6-0.7,0.9-1.1,1-1.2
		c0.1-0.2,0.5-0.7,1.2-1.6c0.7-0.9,1.1-1.5,1.2-1.7c0.1-0.2,0.4-0.5,0.7-0.8c0.2-0.5,0.5-1,0.9-1.6c0.1-0.4,0-0.7-0.2-0.9
		c-0.2-0.2-0.4-0.4-0.5-0.4c-0.2-0.1-0.4-0.1-0.6-0.1c-0.2,0-0.4,0-0.6,0c-0.2,0-0.4,0-0.6,0c-0.2,0.1-0.4,0.1-0.6,0.1
		s-0.4,0-0.5-0.1c-0.3,0.3-0.5,0.3-0.9,0.2c-0.3,0.3-0.5,0.5-0.6,0.4c-0.1,0-0.3,0.1-0.6,0.2c-0.2,0.2-0.6,0.4-1,0.7
		c-0.4,0.3-0.7,0.5-0.9,0.6s-0.5,0-0.8-0.1s-0.5-0.4-0.5-0.7c0-0.3,0.1-0.7,0.4-0.9c0.5-0.4,1.4-0.9,2.8-1.4
		c1.4-0.5,2.8-0.9,4.1-0.9c0.8,0.1,1.4,0.3,1.7,0.4c0.4,0.1,0.7,0.4,0.9,0.7c0.2,0.3,0.4,0.6,0.5,0.8c0.1,0.2,0.1,0.4,0.2,0.6
		c0,0.2,0,0.5,0,0.9c0,0.4-0.1,0.8-0.4,1.2c-0.3,0.4-0.5,0.6-0.6,0.8S139,14.9,138.9,15z M151.6,18.6c-0.5,0-0.8,0-1.1,0
		c-0.3,0-0.6-0.1-0.8-0.2c-0.3,0-0.6,0-0.9,0c-0.3,0-0.5-0.1-0.8-0.2c-0.2,0.2-0.4,0.2-0.6,0.1c-0.2-0.1-0.3-0.1-0.5-0.1
		c-0.2,0-0.3,0-0.5-0.1c-0.2-0.1-0.4-0.1-0.6-0.1c-0.2,0-0.4,0-0.6,0c-0.2,0-0.4,0.1-0.6,0.1c-0.2,0-0.5,0.2-0.7,0.4
		c-0.3,1.8-0.4,2.9-0.4,3.5c0,0.6,0,1,0.1,1.2c0,0.2,0,0.4-0.1,0.5c-0.1,0.2-0.1,0.4-0.1,0.6c0,0.2,0,0.4,0,0.6
		c-0.1,0.3-0.2,0.5-0.1,0.6c0.1,0.1,0.1,0.2,0.1,0.4c0,0.2,0,0.5-0.1,1c0.2,0.1,0.3,0.3,0.3,0.5c0,0.2-0.1,0.4-0.1,0.6
		c0,0.2,0,0.5,0,0.9c0.2,0.3,0.2,0.7,0.2,1c0.1,0.2,0.2,0.3,0.1,0.5c-0.1,0.2,0,0.4,0,0.5c0.1,0.2,0.1,0.3-0.1,0.5
		c-0.1,0.2-0.3,0.3-0.4,0.4c-0.2,0.1-0.4,0.1-0.8,0c-0.3-0.1-0.6-0.3-0.7-0.7c-0.1-0.4-0.2-0.8-0.1-1.2c0.1-0.4,0.1-0.8,0.1-1.2
		c0.3-8,0.7-13.8,1.1-17.6c0.4-3.8,0.6-5.9,0.6-6.4c0-0.5,0-1.3,0.1-2.3c-0.1-0.6,0.1-1,0.5-1.1c0.2,0,0.4,0,0.7,0
		c0.3,0.1,0.5,0.2,0.6,0.4c0.1,0.2,0.2,0.4,0.2,0.6c0,0.2,0,0.5-0.1,0.8c-0.1,0.3-0.2,0.7-0.2,1.3c-0.1,0.4-0.1,0.8-0.2,1
		c0,0.2-0.1,0.5-0.1,1l-0.5,2.5c-0.1,0.5-0.2,0.9-0.1,1.2c0,0.2,0,0.4-0.1,0.6c-0.1,0.4-0.1,0.7-0.1,0.9c0,0.2-0.1,0.3-0.2,0.4
		c0,0.4,0,0.7,0,1c0,0.3-0.1,0.5-0.1,0.7c-0.1,0.4-0.1,0.8-0.1,1.2c0,0.4,0,0.8-0.1,1.4c0.4-0.2,0.7-0.2,0.9-0.2s0.5,0,0.8,0.1
		c0.3,0.1,0.8,0.1,1.4,0.2c0.6,0.1,1,0.2,1.3,0.2c0.3,0,0.7,0.1,1.2,0.1c0.5,0.1,1.1,0.1,1.7,0.1c0.6,0,1.1,0.1,1.5,0.2
		c0.4,0.1,0.8,0.1,1.2,0c0.8,0,1.4,0,1.7,0c0.3,0,0.6,0,0.8,0s0.4,0.2,0.5,0.6c0.1,0.3,0.1,0.6-0.1,0.8c-0.1,0.2-0.3,0.3-0.5,0.4
		c-0.2,0.1-0.4,0.1-0.6,0.1c-0.7,0-1.3-0.1-1.6-0.1c-0.4-0.1-0.7-0.1-1.1,0C152.4,18.8,152,18.8,151.6,18.6z"/>
	<path class="st0" d="M178.7,23.7c0.3-0.5,0.7-1,1-1.5c0.4-0.5,0.7-1.1,1-1.7c0.1-0.3,0.3-0.6,0.4-0.9c0.2-0.3,0.3-0.6,0.4-1
		c0.2-0.7,0.3-1.1,0.3-1.4c0-0.3,0.1-0.5,0-0.7c0-0.2,0-0.5-0.1-0.8c-0.1-0.6-0.3-1.3-0.6-2.1c-0.4-0.8-0.7-1.4-1-1.6
		c-0.3-0.3-0.6-0.5-0.9-0.8c-0.2-0.3-0.4-0.4-0.7-0.5c-0.3-0.1-0.4-0.2-0.5-0.4c-0.3,0-0.5,0.1-0.6,0.1c-0.1,0-0.2,0-0.3,0
		c-0.1-0.1-0.4-0.1-0.7-0.2c-0.1,0.2-0.3,0.3-0.7,0.2c-0.4-0.1-0.7,0-1.1,0.1c-1.2,0.2-2.1,0.5-2.9,0.8c-0.7,0.3-1.7,0.9-2.9,1.8
		s-2.2,2-3,3.4c-0.1,0.4-0.2,0.7-0.3,0.7c-0.1,0.1-0.1,0.2-0.1,0.3c0,0.1-0.1,0.3-0.4,0.5c0,0.4-0.1,0.7-0.3,1
		c0.2,0.2,0.2,0.4,0.2,0.6c0,0.2,0,0.4-0.1,0.7c0.1,0.5,0.2,0.7,0.3,0.8s0.2,0.2,0.1,0.5c0.3,0.1,0.6,0.2,0.9,0.4
		c0.4,0,0.7,0,0.9-0.1c0.2-0.1,0.4-0.1,0.6-0.1c0.3-0.2,0.6-0.3,0.9-0.4c0.4-0.3,0.6-0.5,0.7-0.7c0.1-0.1,0.3-0.2,0.4-0.2
		c0.2,0,0.3-0.1,0.4-0.3c0.1-0.1,0.3-0.3,0.7-0.5c0.4-0.3,0.8-0.7,1.3-1.3s0.9-1,1.1-1.3c0.2-0.3,0.5-0.8,0.9-1.7
		c0.1-0.3,0.2-0.7,0.4-1c0-0.3,0-0.6,0-0.8c0-0.2-0.1-0.4-0.1-0.5s-0.1-0.4-0.1-0.7c0-0.3,0.2-0.6,0.5-0.8c0.3-0.2,0.6-0.2,1-0.1
		c0.4,0.2,0.6,0.4,0.7,0.5c0.1,0.2,0.1,0.5,0.1,1c0,0.5-0.1,1-0.2,1.6c-0.1,0.4-0.2,0.7-0.3,0.9c-0.1,0.2-0.2,0.5-0.4,0.8
		s-0.4,0.8-0.8,1.3c-0.4,0.5-0.8,1-1.2,1.4c-0.4,0.4-0.9,1-1.7,1.6c-0.8,0.7-1.5,1.3-2.4,1.9c-0.8,0.6-1.7,1-2.7,1.1
		c-0.3,0.1-0.5,0.1-0.7,0.1c-0.2,0-0.5-0.1-0.7-0.1c-0.2-0.1-0.5-0.2-0.7-0.4c-0.4-0.2-0.7-0.6-1-1c-0.3-0.4-0.5-0.9-0.5-1.5
		c0-0.6,0-1.1,0-1.7c0.1-0.4,0.1-0.7,0.1-0.8c0-0.1,0.1-0.3,0.1-0.5c0.1-0.2,0.2-0.5,0.3-0.8c0.1-0.3,0.4-0.9,0.9-1.7
		c0.2-0.4,0.4-0.7,0.6-0.8c0.2-0.2,0.3-0.4,0.3-0.5c0-0.1,0.1-0.3,0.3-0.4c0.1-0.2,0.2-0.4,0.3-0.4c0.1-0.1,0.3-0.2,0.4-0.3
		c0.1-0.1,0.3-0.3,0.5-0.3c0.2-0.3,0.3-0.4,0.5-0.5c0.2,0,0.3-0.1,0.5-0.3c0.1-0.2,0.2-0.3,0.4-0.4c0.2-0.1,0.4-0.2,0.7-0.5
		c0.3-0.2,0.7-0.4,1.2-0.7c0.5-0.3,1-0.5,1.6-0.6c0.2-0.2,0.5-0.3,0.9-0.3c0.4-0.2,1.4-0.3,2.8-0.4c0.4,0,0.8,0,1.2,0
		c0.9,0,1.5,0.1,2,0.2c0.6,0.2,1,0.4,1.2,0.5c0.2,0.1,0.5,0.3,0.8,0.7c0.3,0.2,0.5,0.4,0.6,0.5c0.1,0.2,0.4,0.5,0.8,1.1
		c0.1,0.2,0.3,0.4,0.4,0.6c0.2,0.2,0.3,0.4,0.3,0.5c0,0.1,0,0.3,0.1,0.6c0.2,0.2,0.3,0.5,0.3,0.8c0,0.3,0,0.6,0.1,0.8
		c0.2,0.2,0.2,0.4,0.1,0.8c0.1,0.3,0.2,0.6,0.1,1s-0.1,0.7-0.1,1c0.1,0.3,0,0.6-0.1,0.6c-0.1,0.1-0.2,0.3-0.3,0.5s-0.2,0.5-0.4,0.7
		c-0.1,0.3-0.1,0.5-0.1,0.6c0,0.1-0.1,0.3-0.4,0.5c-0.2,0.1-0.3,0.2-0.3,0.4c0,0.2-0.1,0.4-0.3,0.6c-0.2,0.3-0.3,0.6-0.4,0.7
		c-0.1,0.1-0.2,0.3-0.2,0.4c0,0.1-0.1,0.3-0.3,0.5c-0.1,0.3-0.2,0.5-0.4,0.6c-0.1,0.1-0.3,0.2-0.3,0.4c-0.2,0.4-0.4,0.8-0.7,1.1
		c-0.2,0.2-0.3,0.3-0.4,0.5c-0.1,0.2-0.2,0.4-0.3,0.7c-0.1,0.1-0.2,0.2-0.4,0.4c-0.1,0.1-0.2,0.2-0.4,0.4c-0.2,0.3-0.3,0.6-0.4,0.7
		c-0.1,0.1-0.3,0.2-0.7,0.2c-0.2,0.1-0.4,0.2-0.6,0.2s-0.4,0-0.6-0.2s-0.3-0.4-0.4-0.6c0-0.2,0-0.4,0-0.6c0.1-0.2,0.2-0.4,0.5-0.6
		c0.3-0.2,0.5-0.4,0.8-0.7c0.2-0.3,0.4-0.6,0.6-0.8c0.2-0.2,0.4-0.4,0.6-0.6C178.3,24,178.5,23.8,178.7,23.7z"/>
	<path class="st0" d="M195.2,23c-1.4,1.4-2.4,2.4-3.1,3.1c-0.1,0.2-0.2,0.3-0.3,0.5c-0.1,0.2-0.3,0.4-0.5,0.6
		c-0.3,0.2-0.5,0.2-0.8,0c-0.3-0.2-0.4-0.5-0.5-0.9c0-0.3,0.1-0.6,0.3-1s0.5-0.7,0.9-1c0.4-0.3,0.9-0.8,1.5-1.4c0.4-0.3,0.7-0.6,1-1
		s0.7-0.6,1.2-0.8c0.6-0.2,1.2-0.1,1.8,0.4c0.5,0.6,0.4,1.2-0.1,1.7c-0.2,0.2-0.5,0.2-0.7,0.1C195.7,23.2,195.5,23.1,195.2,23z
		 M201.2,2.5c0.6-0.4,1-0.5,1.4-0.5c0.4,0.1,0.7,0.3,0.8,0.6c0.1,0.4,0.1,0.7-0.1,0.9c-0.2,0.2-0.5,0.4-0.8,0.6
		c-0.3,0.2-0.6,0.3-1,0.5c-0.9,0.4-1.5,0.7-1.8,1c-0.3,0.2-0.7,0.5-1.3,0.9c-0.6,0.4-1.1,0.8-1.6,1.2l-1,0.8
		c-0.3,0.2-0.5,0.4-0.5,0.6s0.1,0.5,0.6,0.8c0.5,0.3,0.9,0.6,1.2,0.7c0.3,0.1,0.5,0.1,0.7,0.1c0.2,0,0.4,0.1,0.6,0.4
		c0.3-0.1,0.5-0.1,0.7,0c0.2,0,0.6,0.1,1.1,0.2c1.7-1,2.9-1.7,3.3-1.9c0.4-0.2,0.9-0.4,1.4-0.6c0.5-0.2,1-0.2,1.6,0.1
		c0.2,0.3,0.3,0.5,0.3,0.7c0,0.1,0,0.3-0.1,0.5c-0.1,0.2-0.3,0.3-0.5,0.4c-0.2,0-0.4,0.1-0.6,0.1c-0.5,0.3-0.9,0.4-1.2,0.6
		s-0.8,0.4-1.6,0.8c0.1,0.2,0,0.4-0.2,0.7c-0.2,0.3-0.4,0.5-0.6,0.6c-0.2,0.1-0.4,0.1-0.8,0.1c-0.3,0-0.7,0-1.1-0.1
		c-0.8,0.5-1.8,1.1-2.8,1.9c-1,0.7-1.9,1.5-2.8,2.3c0.1,0.3,0.3,0.4,0.6,0.5c0.3,0.1,0.6,0.1,1.1,0.1c0.4,0,0.8,0,1.1-0.1
		c0.3-0.1,0.6-0.1,0.7-0.2c0.1-0.1,0.4-0.1,0.9-0.2c0.4-0.2,0.7-0.3,1-0.4c0.2,0,0.6-0.2,1.2-0.4c0.6-0.3,1.3-0.7,2.1-1.2
		c0-0.4,0-0.8,0.1-0.9c0-0.2,0.2-0.3,0.5-0.4c0.3-0.1,0.6,0,0.9,0.2c0.2,0.2,0.5,0.4,0.8,0.6s0.7,0.4,1.2,0.6s0.8,0.3,1,0.4
		c0.2,0.1,0.4,0.2,0.6,0.2c0.2,0,0.4,0.1,0.5,0.2c0.2,0.1,0.4,0.3,0.7,0.8c0.3-0.3,0.5-0.5,0.8-0.5c0.5-0.4,0.9-0.7,1.2-1
		c0.4-0.3,0.7-0.7,1.1-1.1c0.4-0.4,0.8-0.8,1.1-1.1c0.3-0.3,0.7-0.6,1.1-1c-0.3-0.2-0.6-0.5-0.8-0.7c-0.2-0.1-0.5-0.2-0.7-0.2
		c-0.2-0.1-0.4-0.2-0.6-0.3c-0.2-0.1-0.4-0.3-0.4-0.6c-0.1-0.2,0-0.5,0.2-0.9c0.2-0.4,0.5-0.5,0.9-0.4c0.4,0.1,0.8,0.3,1.2,0.6
		c0.4,0.2,0.8,0.7,1.4,1.5c0.3-0.3,0.6-0.6,0.8-0.9c0.2-0.2,0.5-0.5,0.8-0.8c0.3-0.2,0.5-0.4,0.6-0.5c0.1-0.1,0.2-0.2,0.3-0.4
		c0.1-0.1,0.4-0.3,0.7-0.6c0.3-0.4,0.6-0.8,0.9-1.2c0.3-0.4,0.7-0.9,1.1-1.6c0.1-0.4,0.1-0.6,0-0.7c-0.2-0.1-0.7-0.1-1.7,0
		c-0.4,0.1-0.7,0.1-0.9,0.2c-0.4,0.1-1,0.2-1.6,0.4c-0.3,0.1-0.6,0.1-0.8,0.2c-0.2,0.1-0.5,0.1-0.7,0.2c-0.2,0.1-0.4,0.1-0.6,0.1
		C214.4,5.8,214.1,6,214,6s-0.4,0.1-0.8,0.3c-0.3,0.2-0.8,0.4-1.5,0.7c-0.2,0.2-0.3,0.4-0.4,0.5c0,0.2-0.2,0.4-0.6,0.7
		c-0.4,0.3-0.7,0.2-1.2-0.3c-0.4-0.5-0.5-1-0.3-1.5c0.3-0.4,0.6-0.7,0.9-0.9c0.4-0.2,0.7-0.3,1.1-0.5c0.4-0.2,0.8-0.4,1.3-0.5
		c0.4-0.2,0.7-0.3,0.9-0.4c0.2-0.1,0.4-0.1,0.8-0.2c1-0.3,2.1-0.6,3.3-0.8c1.2-0.2,2.5-0.3,3.9-0.4c0.4,0,0.8,0.2,1.1,0.5
		c0.4,0.3,0.6,0.7,0.6,1s0,0.7-0.2,1c-0.2,0.3-0.4,0.8-0.8,1.2c-0.3,0.4-0.7,0.9-1.3,1.5c-0.5,0.6-1.2,1.2-2,2
		c-0.8,0.8-1.4,1.3-2,1.8c0.7,0.7,1.5,1.4,2.3,2.1c0.8,0.7,1.6,1.2,2.4,1.6c0.8,0.4,1.4,0.7,2,0.9c0.6,0.2,1.1,0.4,1.7,0.5
		c0.5,0.2,1.1,0.4,1.7,0.5c0.4,0.1,0.7,0.2,0.8,0.2s0.3,0.2,0.5,0.5c0.2,0.2,0.1,0.5-0.2,0.8c-0.3,0.3-0.6,0.4-1,0.3
		c-0.5-0.2-1.1-0.3-1.7-0.5c-0.6-0.2-1-0.4-1.3-0.6c-0.9-0.4-1.8-0.8-2.7-1.3c-0.8-0.5-1.4-0.9-1.8-1c-0.3-0.1-0.7-0.4-1.1-0.8
		c-0.3-0.1-0.6-0.4-1-0.7c-0.4-0.4-0.6-0.6-0.8-0.7c-0.1-0.1-0.5-0.4-1.1-0.8c-0.3,0.3-0.8,0.8-1.4,1.4c-0.6,0.6-1.1,1.1-1.4,1.4
		c-0.3,0.4-0.7,0.7-1,1.1c-0.3,0.4-0.7,0.8-1,1.2c-0.3,0.3-0.7,0.6-1.1,1c-0.4,0.3-0.7,0.5-1,0.5c-0.3,0-0.6-0.2-0.8-0.5
		c-0.2-0.3-0.2-0.7,0-1.1c-0.3,0-0.6-0.2-1-0.4c-1.1-0.5-1.9-0.9-2.5-1.2l-0.3,0.3c-0.1,0.1-0.3,0.2-0.6,0.3
		c-0.3,0.1-0.5,0.3-0.6,0.4c-0.1,0.1-0.2,0.2-0.4,0.3c-0.2,0.1-0.4,0.1-0.6,0.1c-0.2,0.3-0.5,0.4-0.9,0.5c0.1,0.3,0.1,0.5,0.1,0.6
		c-0.1,0.1-0.1,0.4-0.1,0.8c0,0.4-0.1,0.7-0.2,1c0,0.4,0,0.6,0,0.7c0,0.1,0,0.3,0,0.5c0,0.2-0.1,0.4-0.3,0.7
		c0.2,0.2,0.2,0.4,0.1,0.6c-0.1,0.2-0.1,0.4-0.2,0.6c0.1,0.2,0.1,0.5,0,0.7c-0.1,0.3-0.1,0.5-0.1,0.7c0,0.2-0.1,0.4-0.3,0.7
		c0,0.3,0,0.5-0.2,0.6c0.1,0.4,0.1,0.7-0.1,0.9c0,0.2,0,0.3-0.1,0.5c-0.1,0.1-0.2,0.5-0.3,1c-0.1,0.7-0.3,1.1-0.6,1.3
		c-0.2,0.2-0.6,0.2-1,0.1c-0.5-0.1-0.7-0.3-0.8-0.7c-0.1-0.4-0.1-0.7-0.2-1c-0.1-0.3-0.1-0.7,0.1-1c0.2-0.3,0.5-0.5,1.1-0.4
		c0.5-1.3,0.8-2.7,1-4.2c0.2-1.5,0.3-2.8,0.3-4.1c-0.7,0.3-1.4,0.5-2.1,0.6c-0.7,0.1-1.4,0.2-2.2,0.1c-0.7-0.1-1.4-0.3-2.1-0.8
		c-0.4-0.4-0.6-0.8-0.6-1.1c0-0.3,0-0.6,0.1-0.9c0.1-0.3,0.2-0.5,0.5-0.6c0.3-0.3,0.6-0.5,0.9-0.6c0.1-0.3,0.3-0.4,0.5-0.5
		c0.1-0.2,0.3-0.3,0.7-0.4c0.2-0.3,0.3-0.4,0.4-0.4c0.1,0,0.7-0.4,1.8-1.2c-0.3-0.1-0.6-0.2-1-0.3c-0.4-0.2-0.9-0.5-1.7-1
		c-0.4-0.2-0.7-0.4-0.8-0.5c-0.1-0.1-0.3-0.2-0.4-0.3c-0.1-0.1-0.2-0.2-0.3-0.3s-0.2-0.3-0.2-0.6c-0.2-0.4-0.2-0.9,0-1.4
		s0.4-0.8,0.5-0.9c0.2-0.1,0.4-0.3,0.7-0.5c0.3-0.3,0.7-0.6,1.2-0.9c0.5-0.3,1.2-0.8,1.9-1.3C198.6,4.2,199.7,3.4,201.2,2.5z
		 M208.3,23.9c-0.6-0.2-1-0.3-1.3-0.5c-0.4-0.1-0.7-0.2-0.9-0.4c-0.3-0.1-0.6-0.2-0.8-0.2c-0.2,0-0.4-0.2-0.6-0.4
		c-0.3-0.1-0.6-0.1-0.7-0.2c-0.3-0.1-0.6-0.2-0.8-0.4c-0.2-0.2-0.3-0.4-0.4-0.6c-0.1-0.2-0.1-0.4,0-0.6c0.1-0.2,0.2-0.3,0.4-0.4
		c0.2-0.1,0.4-0.2,0.6-0.2c0.7,0.5,1.3,0.8,1.9,1.1s1.1,0.5,1.5,0.6c0.4,0.2,0.8,0.3,1.1,0.3s0.5,0.2,0.7,0.4c0.2,0.3,0.2,0.7,0.1,1
		C209,23.8,208.8,24,208.3,23.9z M224.8,29.9c-0.4-0.1-0.6-0.1-0.6-0.2c-0.1-0.1-0.2-0.2-0.4-0.3s-0.5-0.2-0.8-0.2
		c-0.3-0.1-0.7-0.2-0.9-0.4c-0.5-0.1-0.9-0.2-1.1-0.2c-0.2,0-0.5-0.1-0.9-0.2c-0.4,0.1-0.6,0-0.8,0c-0.2-0.1-0.3-0.1-0.5-0.1
		c-0.2,0-0.5,0-1,0c-0.5-0.1-0.8-0.1-1.1-0.1c-0.2,0-0.5,0-0.6,0.1c-0.2,0.1-0.5,0.1-1,0.1c-0.3,0.2-0.6,0.4-0.8,0.5
		c-0.2,0.2-0.5,0.2-0.8,0.3c-0.3,0-0.6-0.1-1-0.3c-1,0-1.8,0.1-2.2,0.3c-0.5,0.2-0.9,0.3-1.2,0.5c-0.3,0.2-0.6,0.3-1,0.4
		c-0.4,0-0.7-0.1-0.9-0.4c-0.2-0.3-0.3-0.7-0.2-1.1c0.1-0.4,0.4-0.6,0.8-0.7c0.5-0.1,1-0.2,1.5-0.3c0.5-0.1,1-0.1,1.7-0.2
		c0.6-0.1,1.1-0.2,1.6-0.3c0.5-0.1,0.9-0.3,1.2-0.6c0.4-0.2,0.7-0.4,0.8-0.6c0.1-0.2,0.3-0.5,0.5-1c0.2-0.4,0.5-1,0.7-1.7
		c0.1-0.3,0.2-0.7,0.3-1.2c-0.5,0.1-0.9,0.2-1.1,0.2c-0.2,0-1,0.1-2.5,0.3c-0.3,0.2-0.6,0.3-0.9,0.4s-0.6,0.1-1-0.1
		s-0.5-0.6-0.2-1.2c0.1-0.3,0.2-0.5,0.5-0.6c0.2-0.1,0.5-0.1,0.7-0.2c0.4,0,0.9,0,1.4-0.1c0.5-0.1,1.1-0.1,1.7-0.1
		c0.6,0,1.1-0.1,1.5-0.1c0.1-0.5,0-1,0-1.5c-0.1-0.5-0.1-0.9,0.1-1.4c0.1-0.2,0.3-0.4,0.5-0.4c0.2-0.1,0.4-0.1,0.7-0.1
		c0.2,0,0.4,0.2,0.5,0.3c0.1,0.2,0.2,0.4,0.2,0.7c0.1,0.3,0,0.6,0,1c0,0.4,0,0.8-0.1,1.2c0.4-0.1,0.7-0.1,1-0.2
		c0.3,0,0.8-0.1,1.4-0.1c0.4-0.1,0.7-0.1,0.9-0.2c0.2-0.1,0.4,0,0.6,0.1c0.2,0.1,0.3,0.3,0.4,0.5c0.1,0.2,0.1,0.4,0.1,0.5
		c-0.1,0.2-0.2,0.3-0.3,0.4c-0.1,0.1-0.3,0.2-0.5,0.3c-0.8,0.1-1.3,0.1-1.6,0.2c-0.3,0.1-0.6,0.1-0.8,0c-0.2,0-0.7,0-1.4,0.1
		c-0.1,0.5-0.2,0.9-0.4,1.1c0,0.4-0.1,0.8-0.4,1.3c-0.1,0.5-0.2,0.8-0.3,1s-0.2,0.4-0.3,0.7c-0.1,0.3-0.3,0.6-0.5,0.8
		c1.4,0,2.6,0.1,3.6,0.2c1,0.1,1.7,0.2,2.2,0.3c1,0.2,1.7,0.3,2.1,0.4c0.4,0.1,1,0.3,1.8,0.5c0.4,0.2,0.7,0.4,0.7,0.7
		c0,0.2-0.1,0.5-0.3,0.7c-0.2,0.2-0.5,0.4-0.7,0.4C225.1,30.1,224.9,30,224.8,29.9z"/>
	<path class="st0" d="M232.5,22.2c0.4-0.2,0.8-0.2,1-0.3c0.2,0,0.4,0.1,0.5,0.3c0.1,0.2,0.2,0.5,0.2,0.7c0,0.2-0.1,0.4-0.2,0.6
		c-0.1,0.1-0.3,0.3-0.4,0.5c-0.1,0.2-0.4,0.7-0.8,1.4c-0.4,0.7-0.8,1.5-1.1,2.5c0,0.2,0,0.4-0.1,0.6c-0.1,0.2-0.2,0.3-0.4,0.4
		c-0.2,0.1-0.4,0.2-0.6,0.2c-0.2,0-0.4-0.1-0.6-0.3c-0.2-0.2-0.4-0.5-0.4-0.7c0-0.2,0.1-0.6,0.2-0.9c0.3-0.6,0.6-1.3,1-2
		c0.4-0.8,0.6-1.3,0.9-1.7C232,23,232.2,22.6,232.5,22.2z M232.6,19.6c-0.4-0.5-0.6-1.1-0.6-1.7c-0.1-0.6,0-1.3,0.1-2.3
		c0.1-0.9,0.2-1.8,0.3-2.5c0.1-0.7,0.3-1.5,0.5-2.3s0.5-2.3,0.9-4.2c0.4-1.9,0.6-3.3,0.8-4.3c0.2-0.3,0.3-0.5,0.5-0.7
		s0.5-0.2,0.8-0.1c0.3,0.1,0.5,0.2,0.7,0.4c0.1,0.2,0.2,0.4,0.1,0.6s-0.1,0.4-0.3,0.7c-0.1,0.2-0.2,0.5-0.3,0.6
		c-0.1,0.2-0.2,0.5-0.4,0.9c-0.2,0.7-0.3,1.2-0.4,1.6c-0.1,0.3-0.2,0.6-0.2,0.9c0,0.3,0,0.6-0.1,0.9c0,0.4-0.1,0.7-0.3,0.9
		c-0.1,0.5-0.1,0.8-0.1,1c0,0.2-0.2,0.5-0.4,0.9c0.1,0.2,0.1,0.4,0.1,0.6c-0.1,0.2-0.2,0.4-0.3,0.7c0.1,0.5,0,0.8,0,1
		c-0.1,0.2-0.2,0.5-0.4,1c-0.2,1.3-0.2,2.1-0.1,2.4c0.1,0.3,0.1,0.7,0.1,1.3c0.2,0.4,0.4,0.7,0.6,0.9c0.2,0.2,0.2,0.5,0,0.8
		c-0.1,0.4-0.3,0.5-0.6,0.5C233.2,20.2,232.9,20,232.6,19.6z M241.5,29.3c0.9-0.9,1.6-1.9,2.1-3c0.5-1.1,1-2.2,1.4-3.4
		c-0.3-0.3-0.6-0.5-0.9-0.7c-0.4-0.1-0.7-0.3-1.1-0.4c-0.3-0.3-0.4-0.6-0.4-1.1s0.3-0.7,0.8-0.7c0.3,0.1,0.5,0.1,0.8,0.3
		c0.6,0.3,1.1,0.6,1.5,0.7c0.3-0.5,0.5-1,0.5-1.5c0.2-0.5,0.3-1,0.4-1.6c0-0.4-0.1-0.6-0.3-0.8c-0.2-0.2-0.4-0.2-0.6-0.2
		c-0.2,0-0.4,0.1-0.5,0.1c-0.2,0.1-0.4,0-0.7-0.2c-0.3,0.2-0.6,0.2-0.7,0.2s-0.2,0-0.4,0.1s-0.3,0.2-0.6,0.2c-0.3,0-0.7,0.1-1.2,0.3
		c-0.3,0.4-0.7,0.5-1,0.5c-0.3,0-0.6,0-0.9-0.1l-1.3,0.5c-0.4,0.2-0.7,0.3-0.9,0.3s-0.3,0.1-0.4,0.3c-0.1,0.2-0.4,0.4-0.8,0.6
		c-0.3,0.3-0.6,0.3-0.9,0.1c-0.3-0.2-0.5-0.4-0.5-0.7c0-0.3,0.1-0.7,0.4-1c0.5-0.3,1-0.5,1.4-0.6c0.4-0.1,1.2-0.4,2.3-0.7
		c0.1-1,0.2-1.7,0.3-1.9c0.1-0.3,0.2-0.8,0.4-1.5c-0.6,0.1-1,0.1-1.2,0.2c-0.2,0.1-0.4,0.1-0.5,0.2c-0.1,0.1-0.3,0.2-0.7,0.4
		c-0.2,0.3-0.4,0.6-0.6,0.6c-0.2,0.1-0.4,0.1-0.7,0c-0.3-0.1-0.5-0.3-0.6-0.7c-0.1-0.4-0.1-0.7,0-0.9c0.1-0.2,0.2-0.4,0.4-0.4
		c0.2-0.1,0.4-0.2,0.8-0.4c0.8-0.3,1.3-0.4,1.5-0.5c0.2-0.1,0.4-0.1,0.7-0.2c0.3-0.1,0.7-0.1,1.2-0.2c0.1-0.4,0.1-0.8,0.2-1.2
		c0.1-0.4,0.1-0.7,0.1-1.1c-0.4,0-0.8,0.1-1.1,0.1c-0.3,0-0.5,0.1-0.7,0.2c-0.2,0.1-0.4,0.2-0.6,0.3c-0.2,0.1-0.4,0.3-0.5,0.5
		c-0.3,0.1-0.6,0.1-0.9,0c-0.3-0.1-0.4-0.3-0.5-0.5c-0.1-0.2-0.1-0.4,0-0.7c0-0.3,0.3-0.5,0.8-0.7c0.5-0.2,0.8-0.3,1-0.4
		c0.2-0.1,0.6-0.2,1.2-0.3c0.4,0,0.9-0.1,1.6-0.2c0.1-0.4,0.2-0.8,0.3-1.2c0.1-0.4,0.1-1,0.3-1.7c-0.4,0-1,0.1-1.7,0.4
		c-0.4,0.2-0.7,0.3-0.8,0.4c-0.1,0.1-0.2,0.2-0.3,0.3c-0.1,0.1-0.4,0.3-0.9,0.5c-0.5,0-0.9-0.1-1.1-0.3c-0.2-0.1-0.3-0.4-0.4-0.7
		c0-0.3,0.2-0.6,0.5-0.9c0.8-0.4,1.3-0.7,1.7-0.8c0.4-0.1,0.9-0.2,1.4-0.3c0.5-0.1,1.4-0.2,2.5-0.3c1.1-0.1,2.3-0.1,3.3-0.2
		c0.7,0,1.1,0.2,1.2,0.5c0.2,0.4,0.2,0.7,0.2,1.1c-0.1,0.3-0.2,0.5-0.4,0.6c-0.2,0.1-0.4,0.1-0.5,0.2c-0.1,0.1-0.3,0.1-0.5-0.1
		c-0.2-0.2-0.6-0.4-1-0.5c-0.4-0.1-0.6-0.1-0.8-0.1c-0.2,0-0.4,0-0.8,0c-0.2,0.5-0.3,0.9-0.4,1c-0.1,0.2-0.1,0.4-0.2,0.8
		c-0.1,0.4-0.2,0.9-0.3,1.3c0.4,0.1,0.7,0.2,0.9,0.3c0.2,0.1,0.4,0.3,0.5,0.5C244,8.7,244,9,244,9.2c-0.1,0.3-0.3,0.5-0.6,0.6
		c-0.4,0.2-0.8,0.1-1.3-0.2c-0.2,0.8-0.3,1.5-0.4,2c0.5-0.1,0.9-0.2,1.2-0.2c0.3,0,0.7,0,1.1,0c0.3,0.2,0.5,0.3,0.7,0.5
		c0.1,0.1,0.2,0.3,0.1,0.6c0,0.3-0.2,0.5-0.3,0.6c-0.2,0.1-0.4,0.2-0.5,0.2c-0.2,0-0.5-0.1-1-0.2c-0.4,0-1,0.1-1.6,0.1
		c-0.1,0.4-0.2,0.9-0.4,1.5c-0.2,0.6-0.2,1.1-0.1,1.5c1.1-0.2,1.9-0.3,2.5-0.4c0.5-0.1,1.1-0.2,1.6-0.3c0.5-0.1,1.1,0,1.7,0.1
		c0.6,0.1,1,0.4,1.3,1c0.1,0.2,0.2,0.5,0.3,0.7c0.1,0.2,0.1,0.5,0,0.7c-0.3,1.5-0.8,2.8-1.2,3.9c0.4,0.3,0.7,0.5,0.8,0.6
		c0.1,0.1,0.3,0.3,0.4,0.4c0.1,0.2,0.1,0.4-0.1,0.5s-0.4,0.3-0.7,0.4c-0.2,0.1-0.6,0.1-1.1-0.2c-0.4,1-0.7,1.8-1,2.4
		c-0.3,0.5-0.6,1.1-1,1.8c-0.3,0.5-0.6,0.9-0.9,1.3c-0.3,0.4-0.6,0.8-1,1.1c-0.2,0.3-0.5,0.5-0.8,0.6c-0.3,0.2-0.7,0.2-1,0.1
		c-0.4-0.1-0.7-0.3-1.1-0.7c-0.4-0.3-0.8-0.7-1.3-1.2c-0.5-0.4-1-0.9-1.4-1.4c-0.3-0.2-0.5-0.5-0.5-0.7c-0.1-0.2,0-0.5,0.3-0.8
		c0.3-0.3,0.5-0.4,0.7-0.3c0.2,0.1,0.4,0.3,0.6,0.5c0.3,0.4,0.7,1,1.3,1.6c0.6,0.6,1,1,1.3,1.2C240.6,29.6,241,29.6,241.5,29.3z
		 M235,23.1c-0.1-0.3,0-0.6,0.2-0.8c0.2-0.2,0.4-0.4,0.7-0.4c0.3,0,0.5,0.1,0.7,0.3c0.3,0.2,0.6,0.4,0.9,0.7c0.3,0.1,0.6,0.3,1,0.5
		c0.4,0.2,0.8,0.4,1.4,0.5c0.3,0.3,0.4,0.7,0.3,1.1c-0.1,0.4-0.3,0.6-0.6,0.7c-0.2,0.1-0.5,0-0.7,0s-0.4-0.2-0.6-0.3
		c-0.7-0.4-1.2-0.7-1.5-0.9c-0.2-0.2-0.6-0.4-1-0.7C235.3,23.5,235,23.2,235,23.1z M239.5,20.4c0.4,0.1,0.8,0.3,1.1,0.6
		c0.3,0.3,0.6,0.5,0.9,0.6c0.2,0.1,0.4,0.3,0.6,0.5c0.1,0.2,0.2,0.5,0.2,0.7c0,0.2-0.1,0.4-0.2,0.5c-0.1,0.1-0.3,0.2-0.5,0.3
		c-0.2,0.1-0.4,0-0.7-0.3c-0.4-0.4-0.7-0.8-1.2-1c-0.4-0.2-0.7-0.3-0.8-0.4s-0.3-0.2-0.4-0.4c-0.2-0.3-0.2-0.7,0-1
		C238.8,20.4,239.1,20.3,239.5,20.4z M257.1,2.1c-0.2,0.1-0.3,0.3-0.4,0.5c-0.1,0.2-0.3,0.4-0.7,0.8c-0.5,0.7-1.1,1.4-1.5,2
		c-0.5,0.7-1,1.3-1.7,2c-0.6,0.8-1.2,1.5-1.8,2.3c-0.6,0.8-1.3,1.5-1.9,2.2c-0.3,0.4-0.5,0.8-0.8,1.3s-0.6,0.8-1,1.1
		c-0.2,0.2-0.4,0.2-0.7,0.2c-0.2,0-0.5-0.2-0.6-0.6c-0.2-0.4-0.1-0.7,0.4-1l3.9-4.4c1.3-1.5,2.6-3,3.8-4.5c0.4-0.7,0.7-1.2,1-1.6
		c0.3-0.4,0.5-0.7,0.7-0.9c0.2-0.3,0.3-0.5,0.4-0.7c0.1-0.2,0.2-0.3,0.4-0.4c0.1-0.1,0.3-0.2,0.5-0.2c0.4,0.1,0.7,0.2,0.8,0.5
		c0.1,0.3,0.2,0.5,0.1,0.7c-0.1,0.2-0.2,0.3-0.2,0.4C257.6,1.9,257.4,2,257.1,2.1z M257.6,14.2c0.7,0,1.7-0.1,2.9-0.1
		c0.4,0.1,0.7,0.1,1,0.1c0.2,0,0.5,0,0.8,0.1c0.6,0.3,1,0.6,1.1,0.9c0.3,0.5,0.3,0.9,0.2,1.4c-0.1,0.5-0.4,0.9-0.7,1.4
		c-0.3,0.5-0.8,1-1.3,1.5c0.4,0,0.7,0,0.9-0.1c0.2-0.1,0.5-0.1,0.9,0c0.4,0.1,0.6,0.3,0.6,0.7c0.1,0.4-0.1,0.7-0.4,0.8
		c-0.3,0.2-0.7,0.2-1,0.3c-1.1,0-2.3,0.1-3.4,0.2c-0.3,0.1-0.5,0.2-0.6,0.2c-0.2,0-0.4,0-0.6,0c-0.2,0-0.6,0.1-1,0.1
		c-0.1,0.4-0.2,0.6-0.1,0.8c0.1,0.2,0.1,0.5,0.2,0.9c0,0.4,0.2,1,0.6,1.7c0.2,0.4,0.4,0.7,0.4,0.9s0.2,0.4,0.5,0.8
		c0.4,0.6,0.8,1,1.1,1.2c0.4,0.3,0.7,0.5,0.9,0.6c0.3,0.3,0.6,0.5,0.8,0.7c0.2,0.2,0.4,0.3,0.6,0.3c0.2,0,0.4,0.1,0.5,0.2
		c0.2,0.1,0.4,0.3,0.6,0.5c0.3-0.1,0.5,0,0.7,0.1c0.2,0.1,0.3,0.2,0.5,0.3c0.4,0.1,0.8,0.2,1.1,0.4c0.3,0.2,0.4,0.4,0.5,0.6
		c0.1,0.2,0.1,0.4,0,0.4c-0.1,0.1-0.1,0.2-0.3,0.4s-0.3,0.2-0.6,0.2c-1.7-0.6-3.3-1.4-4.7-2.5s-2.5-2.4-3.3-3.8
		c-0.5-1-0.8-1.8-0.9-2.3c-0.2-0.5-0.3-1-0.5-1.5c-0.7,1.3-1.5,2.6-2.5,4c-1,1.4-1.5,2.2-1.7,2.4s-0.4,0.5-0.6,0.8
		c-0.2,0.3-0.5,0.7-0.9,1.1c-0.3,0.3-0.6,0.5-0.7,0.7c-0.2,0.2-0.4,0.4-0.5,0.5c-0.2,0.1-0.5,0.2-0.8,0.2c-0.4,0-0.6-0.2-0.7-0.7
		c-0.1-0.5,0.1-0.8,0.5-1.1c0.2-0.1,0.4-0.3,0.6-0.5c0.2-0.2,0.4-0.4,0.6-0.5c0.2-0.1,0.4-0.3,0.8-0.5c0.5-0.4,0.8-0.7,0.9-0.9
		c0.2-0.2,0.4-0.5,0.8-1s0.8-0.9,1.2-1.5c0.4-0.6,0.7-1.2,1-1.7c0.3-0.5,0.5-1.1,0.9-1.6c-0.4,0.2-0.8,0.3-1.2,0.4
		c-0.3,0.2-0.5,0.4-0.7,0.5c-0.2,0.1-0.4,0-0.7-0.1s-0.6-0.5-0.9-1c-0.3-0.5-0.6-1.1-0.7-1.6c-0.2-0.6-0.3-1-0.3-1.3
		c0-0.3-0.1-0.6-0.1-0.8c0-0.2-0.1-0.5-0.2-0.7c0.1-0.4,0.1-0.7,0.1-1c0-0.3,0-0.7,0.2-1c0.1-0.3,0.4-0.5,0.7-0.6
		c0.4,0,0.7,0.1,0.9,0.4c0.2,0.3,0.2,0.5,0,0.7c-0.2,0.2-0.3,0.4-0.3,0.7c0,0.2-0.1,0.6-0.1,1s0,0.7,0.1,1.1c0.1,0.3,0.2,0.7,0.2,1
		c0.1,0.4,0.2,0.7,0.4,0.9c0.2,0.2,0.4,0.4,0.8,0.3c0.4-0.1,0.8-0.1,1.2-0.3c0.4-0.1,0.9-0.3,1.3-0.4c0.3-0.6,0.4-1.2,0.6-1.8
		c0.1-0.6,0.3-1.3,0.5-2.2c-0.5,0-0.9,0.1-1.3,0.3c-0.4,0.1-0.6,0.2-0.7,0.3c-0.1,0.2-0.2,0.3-0.4,0.3c-0.2,0.1-0.3,0.2-0.5,0.3
		c-0.2,0.1-0.4,0.2-0.6,0.1c-0.3-0.1-0.4-0.4-0.5-0.9c-0.1-0.5,0.2-0.9,0.9-1.2c0.5-0.2,0.9-0.4,1.3-0.5c0.4-0.1,0.8-0.2,1.3-0.3
		l0.7-0.1c0-0.5,0-0.9,0-1.1c0-0.3,0-0.6-0.1-0.8c0-0.2,0-0.4,0.1-0.6c0.1-0.2,0.3-0.3,0.6-0.3c0.3,0,0.6,0.1,0.9,0.4
		c0.3,0.2,0.3,0.6,0.1,1C257.8,13.6,257.7,14,257.6,14.2z M253.4,10c0.8,0,1.6-0.1,2.2-0.1c0.6,0,1.4-0.1,2.4-0.1
		c1-0.1,1.9-0.1,2.8-0.1c-0.8-0.6-1.5-1.1-1.9-1.4c-0.4-0.3-1.3-1.5-2.6-3.4c-0.2-0.3-0.2-0.5-0.2-0.7c0-0.2,0.1-0.4,0.3-0.6
		c0.2-0.2,0.4-0.3,0.7-0.2c0.3,0.1,0.5,0.2,0.7,0.4c0.2,0.2,0.3,0.5,0.3,0.9c0.3,0.3,0.5,0.5,0.5,0.6c0,0.1,0.1,0.2,0.2,0.3
		c0.1,0.1,0.3,0.3,0.4,0.7c0.2,0.3,0.4,0.6,0.6,0.9c0.2,0.3,0.5,0.6,0.8,0.8c0.3,0.2,1,0.8,2,1.6c0.5,0.2,0.8,0.4,1,0.5
		c0.1,0.1,0.3,0.2,0.4,0.3s0.5,0.2,0.9,0.4c0.4,0.1,0.7,0.2,1,0.3c0.2,0.1,0.4,0.2,0.6,0.2c0.1,0.1,0.4,0.2,0.8,0.4
		c0.3,0.1,0.6,0.1,0.7,0.2c0.1,0,0.3,0.2,0.5,0.4c0.3,0.5,0.4,0.8,0.3,0.9s-0.2,0.3-0.3,0.4c-0.1,0.1-0.3,0.1-0.4,0.1
		c-0.1,0-0.4-0.1-0.9-0.3c-0.4-0.2-0.8-0.4-1.4-0.7c-0.6-0.3-1.2-0.6-1.8-1c-0.6-0.3-1.2-0.7-1.8-1.1c-0.2,0.3-0.4,0.6-0.5,0.7
		c-0.2,0.1-0.4,0.2-0.7,0.1c-0.4-0.1-0.7-0.2-0.8-0.2c-0.1,0-0.4,0-0.7,0c-0.5,0-0.9,0-1.2,0c-0.8-0.1-1.3-0.1-1.6,0
		c-0.3,0.1-0.5,0.1-0.7,0.1c-0.2,0-0.4,0-0.6,0.1c-0.2,0.1-0.5,0.1-0.7,0.1c-0.2,0-0.5,0-0.8,0.1c-0.4,0.2-0.7,0.4-0.9,0.4
		c-0.2,0.1-0.4,0.1-0.7,0c-0.3-0.1-0.4-0.3-0.5-0.7c-0.1-0.4,0-0.7,0.3-0.9c0.2-0.2,0.5-0.4,0.8-0.4S253.2,10,253.4,10z M256.4,20
		c0.5-0.1,0.8-0.2,1-0.3c0.2-0.1,0.4-0.1,0.7-0.2c0.5-0.2,1-0.5,1.4-0.8c0.5-0.3,0.9-0.5,1-0.7c0.1-0.1,0.3-0.4,0.8-0.6
		c0.3-0.4,0.5-0.9,0.6-1.2c-0.2-0.3-0.5-0.5-0.9-0.5c-0.4-0.1-0.6-0.1-0.8,0s-0.4,0-0.8-0.1c-0.3,0-0.6,0-0.9,0
		c-0.2,0-0.6,0.1-1.2,0.2c-0.2,0.8-0.3,1.4-0.4,1.8C256.9,18,256.7,18.8,256.4,20z"/>
	<path class="st0" d="M276.4,20c-0.7,0-1.3,0-1.6,0c-0.3,0-0.6-0.1-0.7-0.4s-0.3-0.5-0.3-0.8s0-0.5,0.1-0.7c0.1-0.2,0.3-0.4,0.7-0.6
		c0.5-0.2,0.9-0.4,1.4-0.6c0.5-0.2,0.8-0.4,0.9-0.5c0.2-0.1,0.4-0.2,0.6-0.3c0.2-0.1,0.4-0.1,0.6-0.2c0.2-0.1,0.4-0.2,0.5-0.2
		c0.2-0.3,0.5-0.5,0.9-0.5c0.2-0.2,0.4-0.3,0.7-0.4c0.5-1.5,0.9-2.5,1.2-3.1c0.2-0.6,0.5-1.2,0.8-1.9c-0.5-0.1-0.8-0.2-1-0.2
		c-0.2,0-0.5-0.1-0.9-0.2c-0.3,0.2-0.5,0.2-0.6,0.1c-0.1-0.1-0.3-0.1-0.6-0.1c-0.3,0-0.5,0-0.8,0s-0.6,0-1,0
		c-0.5,0.1-0.9,0.1-1.1,0.3c-0.3,0.1-0.5,0.1-0.8,0c-0.2-0.1-0.4-0.3-0.4-0.4s-0.1-0.4-0.1-0.6c0-0.2,0.1-0.5,0.2-0.7
		c0.2-0.2,0.5-0.3,0.9-0.4c0.4-0.1,0.8-0.1,1.2-0.1c0.5,0.1,0.9,0.1,1.1,0.2c0.2,0.1,0.5,0.1,0.7,0c0.2,0,0.4,0,0.7,0.1
		c0.4,0,0.9,0.1,1.7,0.2c0.5,0.1,1.1,0.2,1.6,0.2c0.2-0.3,0.4-0.7,0.5-1.2c0.2-0.5,0.4-0.9,0.6-1.2c0.2-0.6,0.3-1.1,0.6-1.5
		c0.2-0.4,0.5-0.5,0.8-0.5c0.3,0,0.5,0.2,0.8,0.4c0.4,0.4,0.6,0.7,0.5,1.1c-0.1,0.4-0.2,0.6-0.3,0.8c-0.1,0.1-0.3,0.3-0.4,0.4
		c-0.1,0.2-0.3,0.5-0.5,0.9c-0.2,0.4-0.4,0.7-0.6,1.1c0.4,0.1,0.8,0.1,1,0.2s0.4,0.1,0.6,0.2c0.2,0,0.6,0.2,1.2,0.6
		c0.3,0.3,0.4,0.6,0.5,0.7c0.1,0.2,0.1,0.5,0.1,0.9s-0.1,0.8-0.4,1.1c-0.2,0.2-0.4,0.4-0.5,0.5c-0.2,0.2-0.3,0.3-0.5,0.4
		c-0.1,0.1-0.4,0.2-0.8,0.5c-0.4,0.2-0.8,0.4-1.1,0.6c-0.2,0.2-0.4,0.3-0.6,0.4c-0.2,0.1-0.4,0.1-0.6,0.2c-0.2,0.1-0.5,0.2-0.9,0.4
		c-0.1,0.2-0.5,0.4-1,0.5c-0.2,0.7-0.4,1.1-0.5,1.4c-0.1,0.3-0.3,0.7-0.3,1.1c0.6,0,1.3-0.1,2.3-0.2c1-0.1,1.7-0.3,2.2-0.4
		c0.5-0.1,0.9-0.2,1.2-0.3c0.3-0.1,0.7-0.2,1.4-0.5c0.4-0.3,0.7-0.4,1-0.3c0.3,0.1,0.5,0.3,0.6,0.5c0.1,0.3,0.1,0.5,0,0.7
		c-0.1,0.2-0.3,0.4-0.7,0.5c-0.5,0.2-1.2,0.4-2.1,0.5c-0.8,0.2-1.5,0.3-1.9,0.4c-0.4,0.1-0.9,0.2-1.2,0.2c-0.4,0-1,0.1-1.7,0.2
		c-0.4,0.1-0.9,0.1-1.4,0.2c-0.1,0.4-0.2,0.7-0.2,1c0,0.2-0.1,0.6-0.2,1c-0.1,0.4-0.2,1.1-0.3,2c0,0.5,0.1,1,0.2,1.6
		c0.1,0.6,0.4,1.1,0.7,1.5c0.3,0.4,0.8,0.7,1.3,0.8c0.4,0.1,0.9,0.1,1.5-0.1s1.4-0.6,2.4-1.1c0.9-0.6,1.8-1.2,2.6-1.9
		c0.8-0.7,1.6-1.4,2.5-2.2c0.8-0.8,1.4-1.3,1.8-1.7c0.3-0.3,0.6-0.5,0.9-0.6c0.3-0.1,0.6-0.1,0.9,0.1c0.3,0.2,0.5,0.4,0.5,0.7
		c0,0.3-0.1,0.6-0.3,0.7c-0.2,0.2-0.4,0.4-0.8,0.6c-0.1,0.3-0.4,0.4-0.9,0.4c-0.1,0.4-0.4,0.7-0.7,0.8c-0.3,0.3-0.6,0.6-0.8,0.8
		c-0.3,0.2-0.5,0.4-0.7,0.5c-0.2,0.1-0.4,0.3-0.6,0.5c-0.2,0.2-0.5,0.4-0.8,0.6c-0.3,0.4-0.7,0.6-1.1,0.7c-0.2,0.2-0.5,0.5-0.9,0.8
		c-0.4,0.3-0.9,0.5-1.3,0.8c-0.3,0.2-0.5,0.3-0.6,0.3c-0.1,0-0.4,0.1-0.7,0.2c-0.2,0.2-0.6,0.3-1,0.3c-0.4,0.1-0.8,0.2-1.2,0.2
		c-0.4,0-0.7-0.1-1.1-0.2c-0.6-0.2-1-0.4-1.3-0.7c-0.3-0.3-0.6-0.6-0.8-1c-0.2-0.4-0.4-0.8-0.5-1.1c-0.2-0.7-0.2-1.4-0.2-2.1
		s0.1-1.3,0.2-2.1c0.1-0.7,0.3-1.4,0.4-2.1c-0.5,0-0.9,0-1.1,0S277.1,19.9,276.4,20z M276.9,18.3c0.4-0.1,0.8-0.1,1,0s0.7,0,1.2,0
		c0.1-0.5,0.3-1.1,0.4-1.5c-0.4,0.3-0.8,0.4-1,0.5C278.3,17.4,277.8,17.7,276.9,18.3z M284.8,12.3c0.5-0.3,0.9-0.6,1.4-0.9
		c0.2-0.3,0.2-0.5,0.1-0.6c-0.1-0.1-0.2-0.3-0.4-0.4c-0.2-0.1-0.4-0.2-0.6-0.3c-0.3-0.1-0.6-0.1-1.1-0.3c-0.4,0.7-0.7,1.3-0.9,1.8
		c-0.2,0.5-0.4,0.9-0.4,1.1c-0.1,0.2-0.2,0.5-0.4,0.8c0.7-0.3,1.1-0.6,1.2-0.7C283.8,12.8,284.2,12.6,284.8,12.3z"/>
	<path class="st0" d="M303.9,23.1c0.4,0.7,0.7,1.1,0.9,1.5c0.3,0.2,0.5,0.3,0.5,0.5c0.1,0.2,0.2,0.4,0.4,0.6
		c0.2,0.2,0.3,0.5,0.4,0.6c0.1,0.2,0.2,0.4,0.4,0.7c0.2,0.3,0.4,0.6,0.5,0.7c0.1,0.2,0.2,0.3,0.4,0.5c0.1,0.1,0.3,0.3,0.5,0.5
		c0.3,0.4,0.4,0.8,0.4,0.9c0,0.2-0.1,0.4-0.1,0.5c-0.1,0.2-0.2,0.3-0.4,0.4c-0.2,0.1-0.4,0.2-0.4,0.2c-0.1,0-0.3,0-0.5-0.2
		c-0.2-0.1-0.4-0.3-0.5-0.5s-0.2-0.5-0.4-0.7c-0.2-0.3-0.4-0.6-0.6-0.9s-0.4-0.6-0.6-0.9c-0.2-0.3-0.5-0.9-1.1-1.7
		c-0.5-0.8-1.1-1.4-1.7-1.9c-0.3-0.3-0.5-0.6-0.6-0.8c-0.1-0.2,0-0.4,0.1-0.7c0.1-0.3,0.4-0.5,0.9-0.6c0.2,0.1,0.4,0.1,0.5,0.2
		c0.1,0,0.2,0.1,0.4,0.3C303.3,22.5,303.5,22.8,303.9,23.1z"/>
	<path class="st0" d="M11.9,57.8c0.3-0.2,0.4-0.3,0.4-0.5c0-0.2,0.1-0.3,0.3-0.4c0.2-0.1,0.3-0.2,0.3-0.4c0-0.1,0.2-0.5,0.5-1
		c0.5-0.7,1-1.1,1.4-1.2c0.4,0,0.6,0.1,0.8,0.3c0.2,0.3,0.3,0.5,0.4,0.8c0.1,0.6-0.2,1-0.6,1.2c-0.5,0.2-0.8,0.4-1,0.8
		c-0.2,0.3-0.5,0.6-0.8,0.8c-0.4,0.5-0.6,0.9-0.7,1.1c-0.1,0.2-0.3,0.4-0.4,0.6s-0.3,0.4-0.4,0.5s-0.2,0.3-0.5,0.6
		c-0.1,0.5-0.3,0.8-0.6,0.9c-0.2,0.4-0.4,0.7-0.6,0.9c-0.5,0.8-1,1.5-1.3,2.1c-0.1,0.4-0.3,0.7-0.5,0.9c-0.3,0.3-0.5,0.6-0.7,0.9
		c0,0.4-0.1,0.7-0.3,0.9c-0.1,0.2-0.2,0.4-0.1,0.5c0.1,0.2,0.1,0.3,0,0.5c-0.1,0.2-0.1,0.3,0,0.4s0.2,0.4,0.5,0.8
		c0.1,0.3,0.2,0.5,0.3,0.8c0.1,0.2,0.1,0.5,0,0.7c-0.1,0.2-0.3,0.4-0.5,0.5c-0.3,0.1-0.5,0.1-0.8,0c-0.3-0.1-0.4-0.2-0.5-0.4
		c-0.4-0.8-0.7-1.6-0.8-2.4C5.7,67.9,5.9,67,6.5,66c0.6-1.1,1-1.8,1.3-2.2s0.6-0.9,1-1.4c0.4-0.5,0.9-1.2,1.5-2
		C10.8,59.6,11.4,58.7,11.9,57.8z M14.1,81.1c-0.2,0.1-0.4,0.1-0.6,0.1s-0.6,0-0.9,0.1c-0.4,0.2-0.7,0.2-0.9,0.2c-0.3,0-0.5,0-0.8,0
		c-0.6,0-1-0.2-1.3-0.5c-0.3-0.3-0.4-0.7-0.3-1.1c0.1-0.4,0.3-0.7,0.7-0.8c0.7-0.2,1.7-0.6,3.1-1.2c1.4-0.6,2.4-1,2.9-1.3
		c0.6-0.3,1.1-0.6,1.5-0.8c0.4-0.2,1-0.5,1.7-0.8c0.2-0.7,0.4-1.4,0.6-2.1c0.2-0.8,0.3-1.5,0.5-2.3c-0.5,0-0.9,0-1.3,0
		c-0.4,0-0.7,0-1.2,0.2c-0.3,0-0.5,0.1-0.6,0.2c-0.1,0.1-0.3,0.2-0.6,0.2c-0.3,0-0.6,0.2-1,0.5c0.1,0.3,0.1,0.6-0.2,0.8
		s-0.6,0.3-1,0.1c-0.5-0.2-0.8-0.5-0.9-1c-0.1-0.5-0.1-0.8,0.1-1c0.2-0.2,0.5-0.4,0.9-0.7c0.5-0.3,1.2-0.5,2.2-0.6
		c1-0.2,1.7-0.3,2.2-0.4c0.4,0,1-0.1,1.6-0.2c0.1-0.5,0.2-1.2,0.4-2.1c0.2-0.9,0.3-2.1,0.4-3.5c-0.5-0.1-0.8-0.1-0.9,0
		c-0.1,0.1-0.3,0.2-0.5,0.2c-0.2,0-0.4,0-0.5,0c-0.2-0.1-0.4,0-0.6,0.1c-0.2,0.1-0.4,0.1-0.6,0.1c-0.2-0.1-0.3-0.1-0.4,0
		s-0.3,0.2-0.5,0.1c-0.2,0-0.4,0-0.6,0.1c-0.3,0-0.6,0-0.8,0.2C15.8,64,15.6,64,15.4,64c-0.2,0-0.4,0-0.6,0.1
		c-0.2,0.1-0.5,0.2-1,0.4c0.4,0.2,0.5,0.4,0.4,0.6c-0.1,0.2-0.2,0.4-0.4,0.5c-0.2,0.1-0.4,0.2-0.6,0.2c-0.2,0-0.4,0-0.6-0.2
		c-0.2-0.1-0.5-0.3-0.8-0.4c-0.6-0.8-0.5-1.4,0.2-2c0.4-0.3,0.9-0.5,1.5-0.6c0.6-0.1,1.2-0.3,1.7-0.4c1-0.2,2.1-0.4,3.2-0.5
		s2.1-0.2,3.1-0.4c0-0.5,0.1-1,0.1-1.6c0.1-0.6,0.1-1.3,0.1-2.1c0-0.4,0-0.7,0-1c0-0.3,0.1-0.7,0.4-1c0.1-0.3,0.3-0.5,0.6-0.6
		c0.3,0,0.6,0,0.9,0.3c0.3,0.4,0.4,0.7,0.4,1s0,0.5-0.1,0.9c-0.1,0.3-0.2,0.7-0.3,1.1c-0.1,0.3-0.2,0.6-0.2,0.8s-0.1,0.9-0.3,2
		c0.7,0,1.4,0,1.9,0c0.6-0.1,1.4-0.1,2.6-0.2c0.4,0,0.7,0,0.9,0.1c0.2,0.1,0.4,0.2,0.5,0.4s0.2,0.4,0.1,0.7c0,0.2-0.1,0.4-0.3,0.5
		c-0.1,0.1-0.3,0.2-0.6,0.4c-0.5,0.2-0.8,0.2-1,0.1c-0.2-0.1-0.4-0.1-0.7-0.2c-0.3-0.1-0.5-0.1-0.8-0.1c-0.3,0-0.5,0-0.8,0
		s-0.6,0-1,0c-0.2,0.1-0.5,0.1-1,0c-0.2,0.7-0.2,1.2-0.3,1.5c0,0.3,0,0.6-0.1,0.9c0,0.3-0.1,0.5-0.2,0.8c-0.1,0.3-0.2,0.5-0.2,0.8
		c0.1,0.5,0,0.8-0.1,1c-0.1,0.2-0.2,0.5-0.3,1c0.8,0,1.4,0,1.8,0.1s0.9,0.2,1.5,0.3c0.4,0.1,0.8,0.3,1,0.4c0.2,0.1,0.4,0.3,0.4,0.5
		c0.1,0.2,0.2,0.4,0.2,0.6c0.1,0.2,0.1,0.4,0.1,0.6c0,0.2-0.1,0.5-0.2,0.8c-0.1,0.3-0.3,0.6-0.6,0.8c-0.2,0.2-0.5,0.4-0.7,0.5
		c-0.9,0.6-1.8,1.1-2.7,1.6c-0.3,0.2-0.6,0.3-0.8,0.4c-0.2,0.1-0.7,0.4-1.5,0.8c-0.2,0.8-0.4,1.5-0.5,1.9c-0.1,0.4-0.3,0.9-0.5,1.3
		c2.2,0,4-0.1,5.4-0.2c1.4-0.1,2.8-0.2,4.1-0.3c0.7-0.1,1.1-0.1,1.3-0.1s0.4,0.1,0.6,0.2c0.2,0.1,0.4,0.3,0.6,0.5
		c0.2,0.2,0.3,0.5,0.3,0.8c0,0.3-0.1,0.4-0.4,0.5c-0.2,0.1-0.4,0.1-0.6,0.1s-0.4,0-0.7,0c-0.4,0-0.7,0-0.9,0
		c-0.2-0.1-0.4-0.1-0.6-0.1c-0.2,0-0.5,0-1.1-0.1c-0.8-0.1-1.5,0-2,0.1c-0.3,0.1-0.6,0.1-0.8-0.1c-0.2-0.1-0.4-0.2-0.5-0.1
		c-0.2,0.1-0.3,0.1-0.5,0.1c-0.2,0-0.3,0-0.5,0c-0.4,0.1-0.9,0.1-1.7,0.1c-0.8,0-1.3,0.1-1.7,0.1C19.4,81,19.2,81,19,81.1
		c-0.2,0-0.5,0-0.7,0c-0.2,0-0.5,0-0.7,0.1c-0.2,0.1-0.5,0-0.7-0.2c-0.2,0.1-0.4,0.1-0.6,0.1c-0.2,0-0.5,0-0.7,0.1
		c-0.4,0-0.6,0-0.7,0.1C14.6,81.3,14.4,81.2,14.1,81.1z M18.7,77.2c-0.9,0.3-1.7,0.7-2.4,1.1c-0.8,0.4-1.5,0.9-2.2,1.3
		c1.3-0.1,2.5-0.1,3.7-0.1c-0.1-0.4,0-0.7,0.1-0.9S18.2,77.8,18.7,77.2z M23,70.6c-0.3,0.1-0.5,0.1-0.6,0.1c-0.1,0-0.3-0.1-0.5-0.1
		c-0.2,0.8-0.4,1.4-0.5,1.8c-0.1,0.4-0.3,1-0.5,1.8C21.3,74,22,73.6,23,73c0.7-0.4,1.1-0.7,1.2-0.8c0.1-0.1,0.3-0.2,0.4-0.4
		c0.2-0.1,0.3-0.3,0.4-0.4c0.1-0.2,0-0.3-0.1-0.3c-0.3-0.2-0.6-0.3-0.9-0.3S23.3,70.7,23,70.6z"/>
	<path class="st0" d="M54.3,61.5c-0.6-0.1-1,0-1.2,0.1c-0.2,0.1-0.4,0.2-0.5,0.2c-0.2,0-0.4,0-0.8,0c-0.3,0.2-0.6,0.3-0.9,0.2
		c-0.4,0.2-0.7,0.2-0.9,0.2c-0.1,0-0.2,0-0.4,0.1c-0.1,0.1-0.2,0.1-0.4,0.1c-0.2-0.1-0.3,0-0.4,0.1c-0.1,0.1-0.3,0.1-0.6,0.1
		c-0.3,0.1-0.6,0.2-0.9,0.2c-0.3,0-0.8,0.2-1.4,0.5c-0.6,0.4-1,0.5-1.4,0.3c-0.4-0.2-0.6-0.4-0.7-0.7c-0.1-0.3-0.1-0.5,0-0.7
		c0.1-0.2,0.3-0.3,0.5-0.4c0.2-0.1,0.5-0.2,0.9-0.2c0.5-0.1,1-0.1,1.6-0.3c1.6-0.3,2.6-0.4,3.2-0.5c0.5-0.1,0.9-0.1,1.2-0.1
		c0.3,0,0.6-0.1,0.9-0.1c0.3,0,0.9-0.1,2-0.2l-0.3-1.4c0-0.5-0.2-1-0.5-1.4c-0.3-0.4-0.4-0.8-0.4-1c0.1-0.3,0.2-0.5,0.5-0.6
		c0.3-0.2,0.6-0.3,0.7-0.3c0.2,0,0.4,0.1,0.5,0.3c0.2,0.2,0.4,0.5,0.5,0.9c0.1,0.4,0.2,0.7,0.3,1c0,0.3,0.1,0.7,0.2,1.1
		c0.1,0.6,0.1,1,0.1,1.3c0.7-0.1,1.4-0.1,2.1-0.2c1-0.1,1.9-0.2,2.7-0.2c0.3,0,0.5,0.1,0.8,0.3c0.2,0.2,0.3,0.5,0.3,0.8
		c0,0.3-0.1,0.5-0.2,0.6c-0.1,0.1-0.4,0.2-0.7,0.3c-0.3,0.1-0.6,0.1-0.7,0c-0.2-0.1-0.4-0.1-0.6-0.2c-0.7,0-1.2,0-1.4,0
		c-0.2,0-0.4,0-0.6-0.1c-0.2-0.1-0.3-0.1-0.5,0c-0.2,0.1-0.5,0.1-0.9,0.1c0.1,0.5,0.1,1,0.1,1.5c0,0.5,0,1.5,0.1,2.9
		c0.6-0.2,1.2-0.4,1.6-0.5c0.6-0.2,1.2-0.5,1.8-0.7c0.5-0.3,0.8-0.5,1-0.6c0.1-0.1,0.3-0.2,0.5-0.3c0.2-0.1,0.4-0.1,0.6,0
		s0.4,0.2,0.6,0.4c0.2,0.2,0.2,0.5,0.1,0.8c-0.1,0.3-0.3,0.5-0.6,0.6c-0.3,0.1-0.5,0.2-0.8,0.4c-0.2,0.1-0.5,0.2-0.8,0.3
		c-0.2,0.1-0.4,0.2-0.6,0.3c-0.1,0.2-0.4,0.2-0.6,0.2c-0.3,0.2-0.7,0.4-1.2,0.4c-0.2,0.2-0.9,0.3-1.9,0.5c0,0.4,0,0.8-0.1,1.1
		c0,0.5-0.1,0.9-0.1,1.2c-0.1,0.3-0.2,0.6-0.3,0.9c-0.1,0.4-0.2,0.9-0.5,1.4c-0.2,0.5-0.6,1-1,1.4c-0.4,0.4-0.8,0.7-1.1,0.9
		c-0.3,0.2-0.7,0.5-1.2,0.8c-0.5,0.3-1,0.5-1.4,0.6c-0.4,0.1-1.1,0.3-2,0.5c0.5,0.5,1.3,1,2.3,1.5c1,0.5,2.2,1,3.4,1.4
		c1.2,0.5,2.1,0.7,2.6,0.8s0.8,0.2,0.9,0.3s0.2,0.3,0.3,0.4s0.1,0.4,0.1,0.6s-0.1,0.4-0.2,0.5S57.5,82,57.3,82c-0.1,0-0.3,0-0.6-0.1
		c-0.6-0.2-1.1-0.3-1.3-0.4c-0.2-0.1-0.6-0.3-1-0.4c-0.4-0.1-0.9-0.3-1.4-0.5c-0.5-0.2-1-0.4-1.4-0.7c-0.8-0.4-1.9-0.9-3.5-1.6
		c-0.3-0.1-0.6-0.3-0.8-0.5c-0.2-0.2-0.4-0.4-0.6-0.4c-0.2-0.1-0.4-0.3-0.7-0.6c-0.2-0.3-0.3-0.5-0.3-0.8c0-0.2,0.1-0.4,0.3-0.7
		c0.2-0.2,0.3-0.4,0.5-0.6c0.2-0.2,0.4-0.2,0.7-0.3c0.3,0,0.8,0,1.4-0.1c0.7-0.1,1.2-0.2,1.6-0.3c0.4-0.1,0.6-0.2,0.8-0.3
		c0.2-0.1,0.4-0.1,0.6-0.1c0.2-0.2,0.3-0.3,0.5-0.4c0.2-0.1,0.4-0.3,0.6-0.4c0.2-0.2,0.4-0.4,0.6-0.6c0.2-0.3,0.3-0.5,0.3-0.6
		c0-0.1,0.1-0.3,0.4-0.5c0.1-0.3,0.1-0.6,0.2-0.7c0.1-0.2,0.2-0.4,0.2-0.7c0.1-0.3,0.1-0.6,0.2-0.8c0-0.2,0-0.6,0-1
		c-0.4,0.2-0.8,0.3-1.1,0.4c-0.3,0.1-0.5,0.1-0.7,0.1c-0.4,0.1-0.6,0.2-0.7,0.2c-0.1,0-0.3,0.1-0.5,0.2c-0.2,0.1-0.5,0.2-0.8,0.2
		c-0.3,0.1-0.5,0.1-0.6,0.2c-0.1,0.1-0.3,0.2-0.7,0.2c-0.3,0-0.6,0.1-0.7,0.2c-0.1,0.1-0.5,0.3-1.1,0.4c-0.5,0.1-0.8,0.1-1.1-0.1
		c-0.3-0.2-0.4-0.5-0.4-0.7c0-0.2,0.1-0.5,0.4-0.9c0.3-0.3,0.6-0.5,0.8-0.6c0.2,0,0.5,0,0.8,0.1c0.4-0.1,0.7-0.2,0.8-0.3
		c0.1-0.1,0.3-0.1,0.5-0.1s0.6,0,1.1-0.2c0.8-0.2,1.5-0.3,2.2-0.5c0.5-0.1,1.1-0.3,1.9-0.5c0-0.3-0.1-0.6-0.1-0.9
		c0-0.2,0-0.5,0.1-0.9c-0.1-0.3-0.1-0.6-0.1-0.8c0-0.2,0-0.5,0-0.8c-0.1-0.3-0.2-0.5-0.1-0.7C54.5,62,54.5,61.8,54.3,61.5z"/>
	<path class="st0" d="M72.1,80.6c-0.2-0.2-0.2-0.5-0.2-0.8c0-0.3,0.1-0.5,0.1-0.7c-0.1-0.3-0.1-0.6-0.1-0.8c0-0.2,0-0.4,0.1-0.5
		s0.1-0.5,0.2-0.8c0-0.3,0-0.6,0.1-0.8c0.1-0.3,0.1-0.6,0.1-0.8c0-0.3,0.1-0.5,0.2-0.8c0.1-0.2,0.1-0.5,0-0.8c0.3-0.5,0.5-1,0.6-1.4
		c0-0.4,0.1-0.8,0.4-1.2c0-0.2,0.1-0.4,0.3-0.7c0-0.2,0-0.4,0.1-0.6c0.3-0.6,0.6-1.3,0.9-2.1c0.3-0.8,1.1-2.3,2.2-4.4
		c0.2-0.3,0.4-0.6,0.5-0.8c0.1-0.2,0.3-0.6,0.7-1.1c0.2-0.4,0.4-0.9,0.7-1.3c0.2-0.4,0.5-0.9,0.9-1.4C79,58.9,78.4,59,78,59.1
		c-0.4,0.1-0.9,0.2-1.5,0.5c-0.3,0.1-0.5,0.1-0.8,0c-0.2-0.1-0.4-0.2-0.4-0.4c-0.1-0.2-0.1-0.4-0.1-0.6c0-0.3,0.1-0.6,0.4-0.9
		c0.2-0.1,0.5-0.2,0.7-0.2c0.3-0.2,0.6-0.3,1-0.4c0.3,0.1,0.6,0.1,1.1,0.1c0.3-0.2,0.5-0.3,0.7-0.2c0.2,0.1,0.4,0,0.5,0
		c0.1-0.1,0.3-0.1,0.6,0c0.3-0.2,0.6-0.3,0.9-0.3c0.3-0.5,0.6-0.9,1-1.2c0.1-0.4,0.3-0.7,0.5-0.9c0.2-0.2,0.5-0.5,0.7-0.9
		c0.3-0.2,0.6-0.3,0.7-0.4c0.2-0.1,0.4-0.1,0.5-0.1c0.2,0,0.4,0.1,0.6,0.2c0.4,0.1,0.6,0.4,0.6,0.7c0,0.3,0,0.6-0.1,0.7
		c-0.1,0.2-0.2,0.3-0.3,0.3c-0.1,0.1-0.3,0.2-0.5,0.3c-0.2,0.1-0.6,0.5-1.3,1.2c0.7,0,1.2,0,1.5,0c0.4,0,0.7-0.1,1-0.2
		c0.2,0,0.6,0,1,0.1c0.3-0.1,0.6-0.2,0.7-0.2c0.5-0.1,0.8-0.1,1-0.1s0.5-0.1,0.9-0.1c0.3,0,0.6,0,0.7,0c0.2,0,0.3,0.1,0.5,0.3
		s0.3,0.4,0.3,0.6c0,0.2,0,0.5-0.2,0.6c-0.2,0.2-0.3,0.3-0.4,0.4c-0.1,0.1-0.3,0.2-0.5,0.2c-0.2,0-0.5,0.1-0.9,0.1
		c-0.4-0.1-0.7,0-0.8,0s-0.4,0.1-0.6,0c-0.2-0.1-0.4,0-0.6,0.1c-0.2,0.1-0.4,0.1-0.6,0c-0.3,0.1-0.7,0.2-1.1,0.1c-0.7,0-1,0-1.2,0
		c-0.1,0-0.4,0-0.7,0c-0.3,0-0.7,0-1.1,0.2c-0.2,0.2-0.4,0.3-0.5,0.4c-0.1,0.1-0.2,0.2-0.3,0.4c0,0.2-0.2,0.3-0.6,0.5
		c-0.2,0.4-0.4,0.7-0.6,0.9c0,0.2-0.1,0.4-0.2,0.5c-0.1,0.1-0.2,0.2-0.2,0.4c0,0.2-0.2,0.4-0.5,0.7c-0.3,0.1-0.5,0.3-0.5,0.5
		s-0.1,0.4-0.3,0.5c-0.2,0.2-0.4,0.5-0.7,0.9c-0.1,0.2-0.1,0.3-0.2,0.5c-0.1,0.2-0.2,0.4-0.3,0.7c-0.1,0.3-0.2,0.5-0.4,0.5
		c-0.1,0.4-0.2,0.7-0.3,0.7c-0.1,0.1-0.1,0.2-0.1,0.3c0,0.1-0.2,0.4-0.5,0.9c-0.1,0.3-0.2,0.7-0.4,1.1c-0.2,0.1-0.3,0.3-0.3,0.5
		c0,0.2-0.1,0.4-0.2,0.5c-0.1,0.1-0.2,0.4-0.4,0.7c0,0.3-0.1,0.6-0.3,0.8c0,0.2,0,0.4-0.1,0.6c0,0.2-0.1,0.3-0.2,0.4
		c-0.1,0.1-0.2,0.4-0.1,0.7c-0.2,0.4-0.3,0.7-0.3,0.9c0,0.2,0,0.3-0.1,0.5c-0.1,0.2-0.2,0.4-0.2,0.7c0,0.3,0,0.5-0.1,0.6
		s-0.1,0.4-0.2,0.6c0,0.2,0,0.4,0,0.5c0,0.1,0,0.3,0,0.5c-0.1,0.2-0.1,0.5,0,0.9c0.1,0.3,0.1,0.6-0.1,0.9l0.2,0.7
		c0.1,0.2,0.1,0.4,0.2,0.6c0,0.2,0.1,0.4,0.3,0.6c0.2,0.2,0.4,0.4,0.6,0.6c0.3,0.2,0.4,0.4,0.4,0.6c0,0.2,0.1,0.4,0.1,0.5
		c0,0.2-0.1,0.4-0.3,0.5c-0.2,0.2-0.4,0.3-0.6,0.3c-0.2,0-0.5,0-0.7-0.2c-0.2-0.1-0.4-0.3-0.5-0.4c-0.1-0.2-0.2-0.3-0.3-0.4
		c-0.1-0.1-0.2-0.3-0.3-0.4c-0.1-0.2-0.2-0.4-0.2-0.5c0-0.2-0.1-0.4-0.1-0.6C72.2,81,72.2,80.8,72.1,80.6z M88.9,75.4
		c0.3,0.2,0.7,0.4,1,0.7c0.4,0.3,0.7,0.5,1.2,0.7c0.4,0.2,1,0.4,1.6,0.5c0.7,0.1,1.3,0.2,2,0.1c0.3,0,0.6,0,0.8,0
		c0.2,0,0.5,0,0.9,0.1c0.4,0.2,0.5,0.5,0.5,1c-0.1,0.4-0.2,0.7-0.5,0.7c-0.2,0.1-0.5,0.1-0.9,0.1c-0.7-0.1-1.2-0.1-1.4-0.1
		c-0.2,0-0.5,0-0.9-0.1c-0.2,0-0.8-0.1-1.6-0.3c-0.3-0.1-0.6-0.2-0.8-0.2c-0.2-0.1-0.6-0.2-1-0.5c-0.3,0-0.5-0.1-0.7-0.2
		c-0.3-0.3-0.6-0.5-0.9-0.7c-0.3-0.1-0.6-0.3-0.8-0.5c-0.3-0.3-0.5-0.5-0.6-0.7c-0.1-0.2-0.1-0.3-0.1-0.5c0-0.2,0.1-0.4,0.2-0.6
		c0.1-0.2,0.2-0.3,0.3-0.5c0.1-0.1,0.3-0.2,0.6-0.3c0.3,0,0.6,0.1,0.8,0.3C88.8,74.8,88.9,75.1,88.9,75.4z M90.2,67.8
		c-0.6,0.1-1.1,0.3-1.4,0.6c-0.2,0.2-0.4,0.3-0.6,0.3c-0.2,0.1-0.4,0.1-0.5,0c-0.2-0.1-0.3-0.2-0.4-0.3c-0.1-0.1-0.2-0.2-0.3-0.4
		c-0.1-0.1-0.1-0.4,0.1-0.6s0.3-0.5,0.5-0.7c0.2-0.2,0.5-0.4,0.9-0.5c0.4-0.1,1-0.2,2-0.3s1.8-0.2,2.5-0.2c0.8,0,1.3,0,1.7,0.1
		c0.4,0,0.7,0.1,0.9,0.3c0.2,0.1,0.4,0.3,0.7,0.6c0.2,0.3,0.4,0.6,0.4,0.9c-0.1,0.3-0.2,0.5-0.4,0.6c-0.2,0.1-0.4,0.2-0.6,0.2
		c-0.2,0-0.4,0-0.6-0.1c-0.2-0.1-0.3-0.2-0.4-0.3c-0.1-0.1-0.2-0.2-0.4-0.3c-0.2-0.1-0.4-0.1-0.6-0.1c-0.3,0-0.6-0.1-0.9-0.2
		c-0.4,0.2-0.7,0.2-0.9,0.1c-0.2-0.1-0.4-0.1-0.6,0C90.9,67.6,90.6,67.7,90.2,67.8z"/>
	<path class="st0" d="M112,59c-0.4,0.5-0.8,1-1,1.3c-0.2,0.3-0.3,0.6-0.4,0.8c-0.1,0.2-0.2,0.3-0.3,0.4c0,0.2-0.1,0.4-0.2,0.6
		c-0.1,0.2-0.3,0.4-0.4,0.6c-0.1,0.4-0.3,0.9-0.6,1.4c-0.1,0.4-0.1,0.7-0.2,1c0,0.4-0.1,0.7-0.2,0.9c-0.2,0.4-0.2,0.8-0.1,1.1
		c0.3,0.5,0.5,0.8,0.7,0.9s0.3,0.2,0.4,0.4c0.1,0.2,0.1,0.5-0.1,0.7c-0.2,0.3-0.5,0.4-0.9,0.3c-0.5-0.1-0.8-0.3-1-0.6
		c-0.4-0.4-0.6-0.9-0.6-1.5c-0.1-0.6,0-1.2,0.2-2c0.2-1.1,0.7-2.4,1.5-4.1c0.8-1.6,1.5-2.8,2.1-3.6c0.2-0.3,0.5-0.5,0.7-0.5
		c0.3-0.1,0.6,0,0.8,0.1c0.3,0.2,0.4,0.4,0.5,0.7C112.8,58.2,112.6,58.6,112,59z M121.3,75.4c-0.5,0-0.8,0.1-1.1,0.1
		c-0.2,0.1-0.6,0.1-1,0c-0.4,0.1-0.6,0.1-0.8,0.1c-0.1,0-0.4,0-0.7,0c-0.3,0-0.6,0.1-1,0.1c-0.3,0-0.7,0-1.2-0.1
		c-0.4,0.1-0.7,0.2-0.9,0.2c-0.2,0-0.6,0.1-1,0.1c-0.4,0-0.7,0.2-0.8,0.4c-0.1,0.3-0.1,0.5-0.1,0.7c0,0.2-0.2,0.4-0.6,0.6
		c-0.4,0.2-0.9,0-1.4-0.6c-0.2-0.3-0.3-0.6-0.3-0.7c0-0.2,0-0.4,0-0.7c0.3-0.4,0.7-0.7,1-0.8c0.4-0.1,0.8-0.2,1.2-0.3
		s1.2-0.1,2.3-0.2c1-0.1,2.3-0.1,3.8-0.2l3.5-0.2c-0.2-0.4-0.4-0.8-0.8-1.1c-0.4-0.3-1-0.6-1.9-0.9c-0.4-0.2-0.6-0.5-0.6-0.9
		s0.2-0.7,0.5-1c0.3-0.2,0.6-0.3,0.9-0.5c0.3-0.2,0.6-0.4,1-0.6c0.4-0.2,0.7-0.5,1-0.8c0.4-0.3,0.7-0.5,0.8-0.6
		c0.2-0.1,0.6-0.4,1.2-0.9c0.1-0.4,0-0.6-0.3-0.6c-0.2,0-0.7-0.1-1.4-0.3c-0.6,0.1-1.1,0.2-1.4,0.2c-0.4,0.1-0.9,0.1-1.4,0.3
		c-0.5,0.1-0.9,0.3-1.2,0.4c-0.3,0.1-0.6,0.3-0.9,0.6c-0.1,0.5-0.2,0.8-0.4,0.9c-0.2,0.1-0.4,0.2-0.7,0.3c-0.3,0.1-0.6-0.1-0.9-0.5
		c-0.3-0.4-0.4-0.8-0.2-1.2c0-0.2,0.1-0.4,0.4-0.5c0.3-0.2,0.7-0.5,1.3-0.8c0.6-0.2,1.2-0.4,1.9-0.5s1.3-0.3,2-0.4
		c0.7-0.1,1.2-0.1,1.6-0.1c0.4,0,0.8,0,1.4,0.1c0.6,0.1,1.1,0.2,1.5,0.5c0.6,0.5,0.7,1.1,0.5,1.7c-0.1,0.5-0.4,0.9-0.8,1.2
		c-0.4,0.3-1,0.8-1.9,1.4c-0.8,0.6-1.4,1.1-1.9,1.5c0.4,0.3,0.8,0.7,1.1,0.9c0.3,0.3,0.7,0.8,1,1.4c0.1,0.2,0.2,0.5,0.3,0.9
		c1.1-0.1,1.9-0.1,2.5-0.2c0.7,0,1.5-0.1,2.4-0.2c0.7-0.1,1.5-0.2,2.3-0.3c0.3,0,0.6,0.1,0.8,0.3s0.4,0.4,0.3,0.7
		c-0.1,0.3-0.2,0.5-0.5,0.5s-0.5,0.1-0.8,0.2c-0.3-0.1-0.7-0.1-1.2,0c-0.5,0.1-1.1,0.1-1.9,0.1c-0.8,0-1.4,0-2,0s-1.1,0-1.8,0.1
		c-0.1,0.4-0.1,0.8,0,1c0,0.2,0,0.6-0.2,1.1c0,0.3-0.1,0.6-0.4,1c0,0.4-0.1,0.7-0.2,0.9c-0.1,0.2-0.2,0.4-0.3,0.5
		c-0.1,0.4-0.3,0.8-0.5,1.4c-0.3,0.4-0.4,0.7-0.4,0.8c0,0.1-0.2,0.4-0.4,0.7s-0.6,0.7-1.1,1.2c-0.5,0.4-1,0.7-1.4,0.9
		c-0.4,0.1-0.9,0.1-1.3-0.1c-0.5-0.2-0.8-0.4-1-0.6c-0.3-0.2-0.6-0.4-0.9-0.6c-0.3-0.2-0.5-0.4-0.7-0.5c-0.2-0.1-0.4-0.3-0.5-0.4
		c-0.4-0.3-0.6-0.4-0.7-0.5s-0.3-0.3-0.7-0.7c-0.3-0.3-0.3-0.7-0.1-1c0.2-0.4,0.5-0.5,0.8-0.5c0.3,0,0.7,0.2,1,0.6
		c0.4,0.4,0.7,0.7,1,1c0.3,0.3,0.6,0.5,0.8,0.7c0.3,0.2,0.7,0.5,1.2,1c0.4,0.2,0.7,0.2,0.9,0.1c0.2-0.1,0.5-0.3,0.9-0.6
		c0.9-0.9,1.5-1.8,1.8-2.6c0.3-0.8,0.6-1.6,0.7-2.3c0.2-0.8,0.2-1.5,0.1-2.1C122.3,75.3,121.8,75.3,121.3,75.4z M125.2,57.3
		c0.3-0.3,0.6-0.5,0.7-0.5c0.2-0.1,0.3-0.1,0.5-0.2c0.2-0.1,0.4-0.3,0.7-0.5c0.3-0.2,0.8-0.6,1.6-1.2c0.8-0.5,1.4-1,1.9-1.3
		c0.5-0.4,0.9-0.7,1.3-1.1c0.3-0.3,0.7-0.5,1-0.6c0.4-0.1,0.7,0,0.9,0.4c0.2,0.4,0.3,0.7,0.3,0.9c0,0.2-0.1,0.4-0.2,0.5
		c-0.1,0.1-0.3,0.3-0.5,0.3c-0.2,0.1-0.6,0.3-1,0.5c-0.5,0.3-1.4,0.9-2.6,1.8c-1.2,0.9-2,1.4-2.4,1.6c-0.4,0.2-0.8,0.4-1.3,0.8
		c0.5,0,1.4,0.1,2.7,0.2c1.5,0.2,2.7,0.4,3.4,0.7c0.5,0.2,1.1,0.4,1.6,0.7s1,0.6,1.3,1.1c0.3,0.5,0.5,0.9,0.5,1.3
		c0,0.4-0.1,0.8-0.4,1.2c-0.4,0.3-0.7,0.6-0.9,0.9s-0.6,0.5-1.1,0.9c-0.5,0.3-1.3,0.9-2.4,1.7c-0.4,0.2-0.7,0.3-0.9,0.4
		c-0.2,0.1-0.4,0.2-0.7,0.1c-0.3,0-0.5-0.2-0.6-0.6c-0.1-0.4-0.1-0.7,0-0.9c0.1-0.2,0.3-0.4,0.5-0.5c0.2-0.1,0.5-0.2,0.8-0.3
		c0.4-0.2,0.7-0.4,0.9-0.5c0.2-0.1,0.4-0.2,0.6-0.4c0.2-0.1,0.4-0.3,0.7-0.5c0.3-0.2,0.6-0.4,0.9-0.7c0.3-0.3,0.6-0.5,0.7-0.5
		c0.1-0.1,0.1-0.3,0.1-0.6c-0.1-0.3-0.4-0.5-0.7-0.7c-0.3-0.2-0.7-0.4-1-0.6c-0.4-0.2-0.9-0.4-1.6-0.5c-1.2-0.2-2.2-0.3-3.1-0.4
		c-0.8-0.1-1.8-0.1-3,0c-1.2,0-1.9,0.1-2.2,0.1c-0.3,0-0.6,0.1-1.1,0.1c-0.5,0-0.9,0.2-1.3,0.3c-0.2,0.1-0.5,0.2-0.8,0.1
		c-0.3,0.1-0.5,0.1-0.6,0.3c-0.1,0.1-0.4,0.2-0.7,0.2c-0.5,0.1-1.2,0.3-2,0.7c-0.8,0.3-1.3,0.6-1.6,0.8s-0.6,0.4-0.8,0.7
		c-0.6,0.3-1.1,0.4-1.4,0.3s-0.5-0.4-0.5-0.9c0-0.5,0.2-0.9,0.7-1.1c0.5-0.2,1-0.4,1.4-0.6c0.3-0.2,0.7-0.4,1.1-0.4
		c1.1-0.3,2.2-0.7,3.5-1c1.3-0.3,2.5-0.5,3.7-0.7c1.1-0.1,1.8-0.2,2.3-0.2c0-0.6,0.1-1,0.3-1.1C124.8,57.6,125,57.4,125.2,57.3z
		 M115.9,55c0.2,0.2,0.3,0.3,0.3,0.5c0,0.2,0.1,0.4,0.3,0.6c0.2,0.2,0.4,0.4,0.6,0.6c0.3,0.2,0.5,0.4,0.8,0.6
		c0.3,0.2,0.5,0.4,0.5,0.6c0,0.2,0,0.4-0.1,0.6c-0.1,0.2-0.3,0.3-0.5,0.4c-0.2,0.1-0.5,0.2-0.8,0.1c-0.3-0.1-0.5-0.2-0.8-0.5
		c-0.2-0.3-0.3-0.5-0.6-0.6c-0.2-0.1-0.4-0.4-0.6-0.7c-0.1-0.2-0.2-0.4-0.3-0.7s-0.3-0.8-0.6-1.5c-0.2-0.7-0.5-1.5-0.8-2.3
		c-0.1-0.5,0-0.8,0.1-1.1c0.1-0.2,0.3-0.4,0.6-0.4c0.4-0.1,0.6-0.1,0.8,0c0.2,0,0.3,0.2,0.4,0.4c0.1,0.2,0.2,0.6,0.2,1
		c0.1,0.9,0.2,1.4,0.2,1.6C115.6,54.2,115.7,54.6,115.9,55z M121.7,54.5c0.3,0.4,0.5,0.7,0.8,0.9c0.4,0.1,0.6,0.2,0.8,0.4
		c0.1,0.2,0.2,0.5,0.2,0.7c0,0.3-0.1,0.5-0.3,0.7c-0.2,0.2-0.4,0.2-0.7,0.2s-0.5-0.1-0.8-0.3c-0.4-0.2-0.7-0.4-1-0.6
		c-0.3-0.2-0.5-0.3-0.6-0.6c-0.1-0.2-0.2-0.5-0.4-0.8c-0.2-0.3-0.3-0.9-0.5-1.6c-0.1-0.5,0.1-0.9,0.5-1.1c0.4-0.2,0.8-0.2,1.1,0
		s0.5,0.4,0.5,0.6c0,0.2,0,0.5,0.1,0.7C121.5,53.9,121.6,54.2,121.7,54.5z"/>
	<path class="st0" d="M155.8,76.4c-0.5,0.5-0.9,0.9-1.3,1.3c-0.4,0.4-0.9,0.7-1.5,1.1s-1.2,0.6-1.8,0.5c-0.5,0-1-0.2-1.5-0.5
		c-0.5-0.3-0.8-0.8-0.9-1.4c-0.1-0.6-0.2-1.1-0.3-1.6c0-0.5,0-0.9,0.1-1.2c0.1-0.3,0.1-0.5,0.1-0.7c0-0.1,0-0.3,0.1-0.4
		c0.1-0.1,0.2-0.3,0.3-0.5c0-0.3,0.1-0.5,0.2-0.7c0.1-0.2,0.2-0.4,0.4-0.5c0-0.4,0.1-0.7,0.2-0.9c0.1-0.2,0.2-0.4,0.3-0.6
		c0.2-0.5,0.5-1.1,0.8-1.6c0.3-0.5,0.6-1.1,0.9-1.6c0.1-0.2,0.1-0.4,0.2-0.5c0.1-0.1,0.2-0.3,0.4-0.5c0.1-0.3,0.2-0.5,0.3-0.6
		c0.1-0.1,0.3-0.4,0.5-0.8c0.4-0.6,0.7-1.1,0.8-1.4c0.1-0.3,0.4-0.8,0.7-1.3c0-0.3,0-0.5-0.2-0.5c-0.1-0.1-0.3-0.1-0.5-0.2
		c-0.2-0.1-0.4,0-0.7,0.1c-0.3,0.1-0.7,0.2-1,0.2c-0.3,0-0.5,0.1-0.6,0.2c-0.1,0.1-0.2,0.2-0.4,0.2c-0.2,0-0.4,0-0.6,0.1
		c-0.2,0.1-0.5,0.2-0.9,0.3c-0.1,0.2-0.3,0.3-0.5,0.3c-0.2,0.2-0.4,0.3-0.5,0.3c-0.2,0-0.3,0-0.4,0.2c-0.1,0.1-0.2,0.2-0.4,0.2
		c-0.4,0.1-0.7,0.3-1,0.5c-0.2,0.2-0.4,0.4-0.6,0.7c0.3,0.5,0.3,0.9,0.1,1.2c-0.2,0.3-0.5,0.5-1,0.4c-0.5-0.1-0.9-0.3-1.1-0.7
		c-0.3-0.4-0.4-0.8-0.3-1.2c0-0.3,0.1-0.5,0.3-0.8c0.2-0.2,0.3-0.4,0.4-0.5s0.3-0.3,0.6-0.4c0.2-0.2,0.4-0.4,0.6-0.5
		s0.4-0.1,0.6-0.1c0.2-0.3,0.5-0.4,0.9-0.5c0.3-0.2,0.5-0.3,0.7-0.4s0.4-0.2,0.7-0.2c0.6-0.2,1.4-0.4,2.5-0.8
		c1.1-0.3,2.1-0.5,2.9-0.5c0.4,0,0.8,0,1.1,0.1c0.3,0.1,0.5,0.3,0.7,0.5c0.2,0.2,0.3,0.4,0.5,0.7c0.1,0.3,0.2,0.5,0.1,0.8
		c-0.1,0.3-0.2,0.5-0.3,0.9c-0.2,0.4-0.3,0.7-0.5,0.9c-0.1,0.2-0.3,0.4-0.4,0.7c-0.1,0.2-0.3,0.5-0.4,0.8c-0.8,1.4-1.6,2.6-2.5,3.8
		c-0.1,0.3-0.3,0.5-0.4,0.8c-0.2,0.2-0.3,0.5-0.4,0.8c-0.2,0.3-0.3,0.5-0.4,0.6c0,0.1-0.1,0.3-0.2,0.4c-0.1,0.1-0.2,0.2-0.2,0.4
		c0,0.1-0.1,0.4-0.3,0.7c-0.1,0.5-0.2,0.9-0.3,1.1s-0.1,0.4-0.2,0.6c-0.1,0.2-0.1,0.4-0.1,0.5c0,0.2,0,0.4-0.1,0.8
		c0,0.5,0.1,0.8,0.2,0.9c0.1,0.1,0.1,0.4,0.1,0.7c0.2,0.2,0.3,0.3,0.5,0.4c0.1,0.1,0.4,0.2,0.6,0.1c0.3-0.1,0.6-0.2,0.9-0.3
		c0.3-0.2,0.6-0.3,0.9-0.6c0.3-0.2,0.5-0.4,0.8-0.6c0.2-0.2,0.3-0.3,0.4-0.4c0.1-0.1,0.3-0.2,0.5-0.5c0.1-0.2,0.3-0.4,0.4-0.4
		c0.1-0.1,0.2-0.2,0.2-0.3c0-0.1,0.2-0.2,0.5-0.4c0.1-0.2,0.2-0.4,0.3-0.5c0.1-0.1,0.3-0.2,0.6-0.4c0.2-0.4,0.3-0.6,0.4-0.7
		c0.1-0.1,0.3-0.2,0.6-0.3c0.1-0.3,0.3-0.5,0.4-0.7c0.2-0.1,0.3-0.2,0.4-0.4c0.2-0.1,0.4-0.3,0.5-0.5s0.2-0.4,0.5-0.4
		c0-0.4,0.1-0.6,0.3-0.8s0.3-0.3,0.4-0.4c0.1-0.2,0.2-0.3,0.5-0.4c0.1-0.4,0.2-0.6,0.5-0.9c-0.1-0.3-0.1-0.6-0.1-0.7
		c0-0.2,0-0.4,0-0.7c0-0.4,0-0.8,0-1.1c0-0.3,0.2-0.5,0.5-0.7c0.3-0.2,0.6-0.3,0.8-0.2c0.2,0.1,0.4,0.2,0.5,0.3
		c0.1,0.1,0.2,0.3,0.3,0.6c0.2,0.4,0.4,0.7,0.4,0.9c0,0.3,0,0.5-0.1,0.8c-0.1,0.2-0.2,0.6-0.3,1c0.2,0.4,0.4,0.7,0.5,0.9
		s0.2,0.3,0.3,0.4s0.2,0.3,0.3,0.4c0.1,0.2,0.3,0.3,0.4,0.4c0.1,0.1,0.2,0.2,0.4,0.5c0.3,0.1,0.5,0.3,0.7,0.4s0.3,0.2,0.5,0.3
		c0.2,0,0.4,0.1,0.5,0.2c0.1,0.1,0.3,0.3,0.6,0.5c0.2,0,0.3,0,0.5,0.1c0.1,0.1,0.3,0.2,0.4,0.2c0.1,0,0.3,0,0.5,0.1
		c0.2,0,0.4,0.1,0.6,0.3c0.3,0,0.6,0,1,0c0.3,0,0.7,0.1,1,0.1c0.3-0.1,0.6-0.1,0.7,0c0.1,0,0.3,0.1,0.6,0.1c0.1,0.1,0.2,0.2,0.4,0.3
		c0.1,0.1,0.2,0.2,0.4,0.4c0.1,0.2,0.1,0.4,0.1,0.6c-0.1,0.2-0.2,0.4-0.4,0.5c-0.2,0.1-0.5,0.1-0.9,0.1c-0.6-0.1-1-0.2-1.4-0.3
		c-0.3-0.1-0.6-0.2-0.9-0.3c-0.3-0.1-0.6-0.2-0.9-0.2c-0.3-0.1-0.8-0.3-1.3-0.5c-0.5-0.2-1.1-0.5-1.8-0.9s-1.2-0.7-1.6-1.2
		c-0.4-0.4-0.8-0.7-1-1s-0.5-0.6-0.9-1.2c-1.1,1.2-2,2.2-2.6,2.8c-0.6,0.7-1.3,1.4-2.2,2.4C156.9,75.4,156.3,76,155.8,76.4z
		 M167.3,60.1l0.3,0.5c0.1,0.1,0.2,0.2,0.3,0.4c0.1,0.1,0.3,0.2,0.5,0.4c0.4,0.1,0.7,0.3,0.8,0.4c0.1,0.2,0.1,0.4,0.2,0.6
		c0,0.2,0,0.4-0.2,0.6c-0.2,0.1-0.3,0.3-0.5,0.3s-0.4,0.1-0.7,0.1c-0.3,0-0.6-0.2-1-0.6c-0.4-0.5-0.7-0.8-0.8-1.1s-0.4-0.7-0.7-1.2
		c-0.3-0.6-0.5-1.1-0.6-1.4c-0.1-0.3-0.2-0.6-0.2-0.9c0-0.3,0.1-0.5,0.2-0.7c0.1-0.2,0.3-0.3,0.4-0.4c0.1-0.1,0.3-0.2,0.4-0.3
		c0.1-0.1,0.3-0.1,0.5-0.1c0.2,0,0.4,0.2,0.6,0.4c0.2,0.2,0.2,0.6,0.1,1.1c0,0.4,0.1,0.6,0.2,0.7c0.1,0.1,0.2,0.2,0.1,0.4
		S167.2,59.9,167.3,60.1z M172.8,57.9c0.3,0.5,0.6,0.9,0.8,1.2c0.2,0.2,0.4,0.5,0.7,0.7c0.3,0.3,0.4,0.4,0.5,0.5
		c0.1,0.1,0.2,0.2,0.3,0.3s0.2,0.3,0.2,0.5c0,0.2,0,0.3-0.2,0.5c-0.1,0.2-0.3,0.3-0.6,0.4s-0.5,0.1-0.7,0c-0.2-0.1-0.4-0.2-0.6-0.4
		c-0.2-0.2-0.4-0.5-0.8-0.9c-0.4-0.4-0.7-0.8-0.9-1.1c-0.2-0.3-0.4-0.7-0.5-1c-0.2-0.3-0.3-0.7-0.3-1.1c-0.1-0.4,0-0.6,0.3-0.8
		s0.4-0.3,0.6-0.4c0.3,0,0.4,0,0.6,0c0.1,0,0.3,0.1,0.4,0.3c0.2,0.2,0.3,0.4,0.2,0.5C172.7,57.1,172.7,57.5,172.8,57.9z"/>
	<path class="st0" d="M182.9,70.2c-0.1,0.3-0.1,0.6-0.2,0.7s-0.1,0.4-0.2,0.6c0,0.4,0,0.7-0.2,0.9c0.1,0.3,0,0.6-0.1,0.7
		c-0.1,0.1-0.1,0.3-0.1,0.4c0,0.1,0,0.3,0,0.5c-0.1,0.2-0.1,0.5,0,0.9c-0.1,0.3-0.1,0.7,0,1c0,0.3,0,0.5,0,0.8c0,0.2,0,0.5,0,0.9
		c0,0.4,0,0.9,0.2,1.4c0.1,0.6,0.4,1,0.7,1.3c0.5,0,0.9-0.1,1.3-0.2c0.4-0.1,0.7-0.1,1-0.1s0.5,0.1,0.6,0.3s0.2,0.4,0.3,0.5
		c0,0.2,0,0.4-0.1,0.7c-0.1,0.3-0.2,0.5-0.4,0.5c-0.2,0.1-0.4,0.1-0.6,0.2c-0.2,0.1-0.5,0.2-0.9,0.3c-0.4,0.1-0.8,0.2-1.2,0.2
		c-0.4-0.1-0.7-0.2-1.1-0.5s-0.6-0.6-0.7-1c0-0.1,0-0.3-0.1-0.4s-0.1-0.4-0.2-0.6c0-0.2-0.1-0.5-0.1-0.8c0-0.2,0-0.4,0-0.5
		c-0.1-0.2-0.1-0.5,0-0.9c0.1-0.3,0.1-0.5,0-0.7c-0.1-0.2-0.1-0.4-0.1-0.7c0-0.3,0.1-0.8,0.2-1.5c0.1-1.7,0.3-3.1,0.6-4.3
		c0.2-1.2,0.6-2.5,0.9-3.9c0.4-1.4,0.7-2.6,1-3.6c0.3-0.9,0.6-1.8,0.9-2.6c0.3-0.8,0.5-1.4,0.7-1.8c0.4-0.9,0.7-1.5,0.8-1.7
		c0.1-0.2,0.3-0.6,0.6-1.1c0.3-0.4,0.6-0.6,1-0.7c0.2,0,0.4,0,0.5,0s0.3,0,0.5,0.1c0.2,0,0.3,0.2,0.4,0.5c0.1,0.3,0.1,0.6,0,0.8
		c-0.1,0.2-0.2,0.4-0.4,0.5c-0.2,0.1-0.4,0.3-0.7,0.6c-0.3,0.3-0.4,0.5-0.4,0.7c0,0.1-0.1,0.3-0.3,0.4c-0.1,0.4-0.2,0.7-0.3,0.8
		c-0.1,0.1-0.1,0.3-0.3,0.4c-0.1,0.2-0.2,0.3-0.4,0.4c0,0.4-0.1,0.6-0.2,0.7c-0.1,0.1-0.2,0.4-0.4,0.7c-0.1,0.4-0.2,0.7-0.4,0.8
		c0,0.4,0,0.7-0.1,0.9c-0.1,0.2-0.2,0.5-0.3,0.9c-0.1,0.3-0.2,0.5-0.2,0.7c0,0.2-0.1,0.3-0.2,0.5c-0.1,0.2-0.2,0.4-0.3,0.6
		c-0.1,0.2-0.1,0.4-0.1,0.5c0,0.2,0,0.3-0.2,0.4c-0.1,0.3-0.2,0.6-0.1,0.7c0,0.1-0.1,0.3-0.3,0.5c0,0.3-0.1,0.5-0.2,0.7
		C183.1,69.6,183,69.9,182.9,70.2z M196.1,73.1c0.4,0.3,0.8,0.5,1.3,0.6c0.5,0.2,0.9,0.3,1.3,0.4c0.4,0.1,0.8,0.2,1.2,0.3
		c0.7,0,1.2,0.1,1.5,0.1c0.3,0,0.5,0,0.7,0c0.2,0,0.5,0,0.8,0c0.4-0.1,0.6-0.1,0.8-0.1c0.2,0,0.4,0.1,0.5,0.1
		c0.2,0.1,0.3,0.2,0.4,0.4s0.1,0.4,0.1,0.6c0,0.2-0.1,0.4-0.3,0.6c-0.2,0.2-0.4,0.3-0.8,0.4c-0.6-0.1-1.1-0.1-1.5-0.1
		s-0.9-0.1-1.3-0.1c-0.8-0.1-1.3-0.2-1.5-0.3c-0.3-0.1-0.6-0.1-0.9-0.2c-0.3-0.2-0.6-0.2-0.9-0.3c-0.3,0-0.5-0.1-0.7-0.2
		c-0.2-0.1-0.4-0.1-0.6-0.1c-0.2,0.1-0.5-0.1-1-0.4c-0.3,0-0.6-0.2-0.9-0.5c-0.3,0-0.6-0.2-0.8-0.6c-0.2-0.4-0.2-0.7-0.1-1
		s0.4-0.5,0.7-0.6c0.3-0.1,0.6-0.1,0.7,0s0.3,0.1,0.6,0.1C195.9,72.5,196,72.7,196.1,73.1z M195.7,63.9c0.5-0.2,0.9-0.3,1.2-0.3
		c0.3-0.1,0.7-0.1,1.3-0.2c0.6-0.1,1.2-0.1,1.7-0.1c0.4,0,0.8,0,1.2,0c0.4,0,0.8,0,1.1,0.1c0.3,0.1,0.7,0.3,1,0.4
		c0.2,0.3,0.4,0.6,0.5,0.8c0.1,0.3,0.1,0.5,0,0.7c-0.1,0.2-0.3,0.4-0.5,0.5s-0.5,0.1-0.9-0.1c-0.2-0.1-0.3-0.2-0.4-0.2
		c-0.1,0-0.4-0.1-0.8-0.3c-0.3,0.2-0.5,0.3-0.7,0.2c-0.2-0.1-0.4-0.1-0.8-0.1c-0.3-0.1-0.6-0.1-0.7,0c-0.1,0.1-0.4,0.1-0.9,0
		c-0.3,0.2-0.5,0.3-0.7,0.2c-0.2,0.2-0.4,0.3-0.5,0.2s-0.4,0-0.6,0.2c-0.1,0.1-0.2,0.2-0.3,0.3c-0.1,0.1-0.3,0.2-0.4,0.3
		s-0.3,0.1-0.5,0c-0.2-0.1-0.4-0.2-0.5-0.4c-0.1-0.2-0.2-0.4-0.3-0.6c0.1-0.4,0.2-0.8,0.5-1.1C195,64.2,195.3,64,195.7,63.9z"/>
	<path class="st0" d="M221.9,60.5c-0.2,0-0.5,0-0.7,0.1c-0.2,0.1-0.5,0.1-0.9-0.1c-0.2,0.1-0.5,0.2-0.9,0.2
		c-0.3,0.1-0.6,0.2-0.8,0.3c-0.2,0.1-0.4,0.1-0.6,0.1c-0.2,0-0.4,0.1-0.8,0.4c-0.3,0.1-0.5,0.2-0.7,0.3c-0.1,0.1-0.3,0.1-0.5,0
		c-0.2-0.1-0.4-0.2-0.5-0.3c-0.2-0.1-0.3-0.3-0.4-0.5c-0.1-0.2-0.2-0.4-0.1-0.6c0.1-0.2,0.2-0.4,0.3-0.6c0.1-0.2,0.4-0.3,1-0.4
		c0.8-0.1,1.8-0.2,2.9-0.3l1.9-0.2c0.6-0.1,1.2-0.2,1.7-0.2c0.2-0.1,0.4-0.2,0.6-0.2c0.2,0,0.4-0.1,0.5-0.2c0.4-0.4,0.8-0.8,1.2-1.2
		c0.4-0.4,0.9-0.7,1.6-1c0.2-0.1,0.5-0.2,0.7-0.2c0.3-0.1,0.4-0.1,0.6,0s0.3,0.1,0.6,0.1c0.3,0,0.6,0.1,0.8,0.2
		c0.3,0.1,0.4,0.3,0.5,0.6c0.1,0.3,0.1,0.6,0,0.9c-0.2,0.3-0.4,0.6-0.5,0.7c-0.2,0.1-0.4,0.2-0.8,0.2c-0.2,0.2-0.4,0.2-0.6,0.3
		c-0.1,0-0.4,0.1-0.7,0.2c-0.3,0.2-0.6,0.3-0.7,0.3c-0.2,0-0.3,0-0.4,0.1c-0.1,0.1-0.3,0.1-0.4,0.1c-0.1,0-0.2,0.1-0.3,0.2
		c-0.1,0.1-0.3,0.1-0.6,0.1c-0.2,0.1-0.4,0.2-0.5,0.2c-0.1,0.1-0.2,0.2-0.3,0.3c-0.1,0.2-0.2,0.3-0.4,0.3c-0.2,0-0.3,0.2-0.3,0.3
		c-0.1,0.2-0.2,0.3-0.4,0.4c-0.1,0.3-0.4,0.6-0.7,1c-0.4,0.4-0.7,0.8-1.1,1.4c-0.5,0.5-0.9,1.1-1.3,1.5c-0.4,0.5-0.7,0.9-0.8,1.1
		c-0.2,0.3-0.4,0.5-0.7,0.6c-0.2,0.3-0.4,0.5-0.7,0.8c-0.1,0.3-0.2,0.5-0.2,0.7c-0.1,0.2-0.2,0.3-0.3,0.3c-0.1,0-0.2,0.2-0.3,0.4
		s-0.2,0.6-0.6,0.8c-0.3,0.4-0.5,0.6-0.6,0.8c-0.1,0.2-0.3,0.5-0.5,1c-0.2,0.5-0.2,0.9-0.2,1.3c0.3,0.1,0.6,0.3,0.8,0.5
		c0.3,0,0.5,0.1,0.6,0.3c0.2,0.2,0.2,0.4,0.2,0.7c-0.1,0.2-0.2,0.4-0.4,0.6s-0.4,0.2-0.5,0.3c-0.2,0-0.4,0-0.6-0.1
		c-0.2-0.1-0.5-0.2-0.8-0.3c-0.3-0.3-0.5-0.5-0.7-0.6c-0.2-0.1-0.3-0.3-0.4-0.6c0-0.3,0-0.6,0-0.9c0-0.2,0-0.3,0-0.5
		c0-0.2,0.2-0.4,0.4-0.7c0.1-0.2,0.1-0.4,0.2-0.6c0.1-0.2,0.2-0.3,0.3-0.5c0.1-0.2,0.4-0.6,0.8-1.2c1.1-1.6,2.3-3.1,3.5-4.5
		C219.5,63.4,220.7,62,221.9,60.5z M233.3,68.6c-0.1,0.3-0.2,0.6-0.4,0.8c-0.1,0.2-0.3,0.4-0.4,0.6c0.1,0.4-0.1,0.8-0.3,1.1
		c0.1,0.4,0.1,0.7,0,0.9c-0.1,0.1-0.2,0.3-0.2,0.6c0,0.2-0.1,0.5-0.2,0.7c0,0.4-0.1,0.9-0.4,1.4c0.7,0.1,1.1,0.2,1.2,0.2
		c0.2,0,0.3,0,0.5,0c0.2,0.1,0.3,0.1,0.5,0.1c0.2,0,0.5,0,0.9,0c0.4,0,0.7,0,1.1,0.1c0.8,0,1.3,0,1.6,0.1c0.3,0.1,0.5,0.1,0.7,0.1
		s0.4,0.1,0.8,0.2c0.3,0,0.7,0,1.1,0c0.4,0,0.7,0.1,1,0.3c0.3,0.2,0.4,0.4,0.4,0.6c0,0.2,0,0.4-0.1,0.6c-0.1,0.2-0.3,0.3-0.4,0.4
		c-0.2,0.1-0.5,0.1-0.9,0.1c-0.4-0.1-0.8-0.1-1.2-0.2c-0.4-0.1-0.9-0.1-1.6-0.2c-0.2,0-0.4,0-0.6,0c-0.2-0.1-0.4-0.1-0.5,0
		c-0.1,0-0.3,0-0.6-0.1c-0.2-0.1-0.6-0.1-1.2-0.1c-0.2-0.1-0.5-0.1-0.7-0.1c-0.2,0-0.4,0-0.5-0.1c-0.1-0.1-0.2-0.1-0.4-0.1
		s-0.4,0.1-0.6,0c-0.2,0-0.5-0.1-0.8-0.1c-0.5,0.9-1,1.7-1.4,2.3c-0.4,0.7-0.9,1.3-1.4,1.9c-0.3,0.2-0.7,0.4-1.2,0.6
		c-0.4,0.2-0.9,0.3-1.3,0.2c-0.4,0-0.7-0.1-1-0.3c-0.4-0.2-0.7-0.4-0.9-0.7c-0.3-0.4-0.5-0.6-0.5-0.8c-0.1-0.2-0.1-0.5-0.2-0.9
		c-0.1-0.4-0.1-0.7-0.1-0.9s0.2-0.5,0.4-1c0.3-0.5,0.8-0.9,1.6-1.2c0.8-0.3,1.6-0.5,2.4-0.6c0.8-0.1,1.6-0.1,2.3-0.2
		c0.1-0.4,0.2-0.7,0.3-1.1c0.1-0.3,0.1-0.8,0.2-1.2c0.1-0.4,0.2-0.9,0.3-1.3c0.1-0.4,0.2-1.3,0.5-2.6c0.1-0.4,0.1-0.7,0.3-1
		c0.1-0.3,0.3-0.5,0.7-0.6c0.3-0.1,0.6-0.2,0.9-0.2s0.5,0.1,0.7,0.2c0.2,0.1,0.3,0.3,0.3,0.6c0,0.3-0.1,0.5-0.2,0.8
		C233.6,68.3,233.5,68.5,233.3,68.6z M225.2,77.4c-0.2,0.4-0.2,0.8-0.2,1.1s0.1,0.6,0.3,0.8c0.3,0.1,0.6,0.2,0.9,0.2
		c0.3,0,0.6-0.1,0.8-0.2c0.2-0.1,0.6-0.4,1-0.8c0.2-0.3,0.3-0.6,0.5-0.7c0.1-0.2,0.3-0.4,0.4-0.5c0.1-0.2,0.2-0.4,0.2-0.8
		c-0.3-0.1-0.6-0.1-0.8,0c-0.2,0.1-0.5,0.1-0.7,0.1c-0.2,0-0.4,0.1-0.6,0.2c-0.1,0.1-0.3,0.2-0.5,0.2c-0.2,0-0.4,0.1-0.5,0.2
		C225.8,77.1,225.6,77.2,225.2,77.4z M238.3,64.2c0.4,0.2,0.8,0.4,1.3,0.6c0.5,0.2,1,0.4,1.3,0.6c0.4,0.2,0.7,0.4,0.9,0.6
		c0.2,0.2,0.3,0.3,0.4,0.5c0.1,0.2,0,0.4-0.1,0.7c-0.1,0.3-0.3,0.5-0.5,0.6c-0.2,0.1-0.4,0.1-0.7,0c-0.3-0.1-0.6-0.3-1-0.6
		c-0.2-0.1-0.4-0.2-0.5-0.4c-0.1-0.2-0.3-0.2-0.5-0.2c-0.2,0-0.4-0.1-0.5-0.3c-0.3,0-0.6-0.1-1-0.4c-0.3-0.2-0.5-0.4-0.8-0.6
		c-0.2,0-0.4-0.1-0.6-0.2c-0.2-0.1-0.9-0.4-2-0.9c-0.4,0.1-0.6,0.2-0.7,0.2c-0.1,0.1-0.2,0.1-0.4,0.2c-0.2,0.1-0.4,0-0.7-0.1
		c-0.3-0.1-0.4-0.4-0.5-0.8c-0.1-0.4,0-0.7,0.2-0.9c0.2-0.2,0.5-0.4,0.8-0.5s0.7-0.2,1-0.1c0.3,0,0.7,0.1,1.1,0.3l1.3,0.4
		c0.2,0.1,0.3,0.2,0.5,0.3c0.2,0.1,0.3,0.2,0.5,0.3c0.2,0.1,0.4,0.2,0.6,0.3C237.9,64,238.1,64.1,238.3,64.2z"/>
	<path class="st0" d="M265.8,76.1c-0.6,0-1.1,0-1.3,0c-0.3,0-0.7,0-1.4-0.1c-0.2,0.5-0.3,0.9-0.4,1c-0.1,0.1-0.3,0.3-0.5,0.6
		c-0.2,0.2-0.5,0.5-0.8,0.7c-0.1,0.3-0.3,0.5-0.4,0.5c-0.2,0-0.3,0.1-0.4,0.3c-0.1,0.2-0.3,0.3-0.5,0.5c-0.2,0.2-0.6,0.4-1.1,0.5
		c-0.5,0.3-0.9,0.5-1.4,0.6c-0.3,0.2-0.5,0.3-0.7,0.2s-0.4,0-0.5,0.1c-0.2,0.1-0.3,0.2-0.5,0.2c-0.2,0.1-0.4,0.1-0.7,0
		c-0.2-0.1-0.5-0.1-0.6-0.2c-0.2-0.1-0.4,0-0.7,0.1c-0.5-0.1-0.9-0.3-1.4-0.7c-0.5-0.4-0.8-1-1-1.6c-0.1-0.6-0.1-1,0-1.3
		s0.2-0.6,0.4-0.9c0.2-0.3,0.5-0.6,1-1c0.7-0.4,1.5-0.8,2.6-1c1.1-0.2,2.1-0.4,3.2-0.4c1.1,0,2.1-0.1,3.1-0.2c0-0.4,0-0.9-0.1-1.4
		c-0.1-0.5-0.2-1-0.4-1.4c-0.2-0.4-0.5-0.8-0.8-1.1c-0.3-0.3-0.6-0.5-1.1-0.7c-0.4-0.2-0.8-0.4-1.2-0.5s-0.8-0.2-1.2-0.3
		c-0.3,0-0.6-0.1-0.9-0.1c-0.3,0-0.5-0.1-0.8-0.3c-0.3-0.2-0.5-0.3-0.6-0.5c-0.1-0.2-0.1-0.5,0-0.9c0.1-0.4,0.3-0.6,0.4-0.8
		c0.2-0.2,0.3-0.3,0.5-0.4c0.2-0.1,0.4-0.2,0.7-0.4c0.3-0.2,0.7-0.3,1-0.4c0.3-0.2,0.5-0.3,0.6-0.3c0.2,0,0.4,0,0.7-0.2
		c0.2-0.2,0.4-0.4,0.7-0.6c0.3-0.2,0.6-0.4,0.9-0.5c0.1-0.2,0.3-0.3,0.6-0.5c0.3-0.2,0.6-0.4,0.8-0.6c0.2-0.3,0.4-0.5,0.6-0.7
		c0.1-0.2,0.3-0.4,0.3-0.7c0.1-0.4,0.1-0.7,0-0.9c-0.1-0.2-0.3-0.4-0.7-0.6c-0.2-0.1-0.5-0.2-0.8-0.4c-0.3-0.1-0.6-0.2-0.9-0.3
		c-0.3-0.1-0.9-0.1-1.6-0.2c-0.8-0.1-1.5-0.1-2.2,0.2c-0.5,0.2-0.8,0.4-0.9,0.6c-0.1,0.2-0.3,0.4-0.5,0.6c-0.2,0.2-0.4,0.2-0.6,0.2
		c-0.2-0.1-0.4-0.1-0.6-0.3c-0.2-0.1-0.3-0.4-0.3-0.7s0.2-0.6,0.5-0.9c0.3-0.3,0.6-0.5,0.9-0.7c0.4-0.2,0.8-0.4,1.4-0.5
		c0.6-0.1,1-0.2,1.3-0.1c0.3,0.1,0.8,0,1.4-0.1c0.3,0,0.5,0.1,0.8,0.3c0.3,0,0.5,0,0.8,0c0.2,0,0.5,0.1,0.8,0.3c0.4,0,0.8,0,1,0.2
		c0.2,0.2,0.4,0.3,0.6,0.4c0.2,0.1,0.4,0.3,0.7,0.5c0.3,0.2,0.5,0.5,0.6,1c0.1,0.4,0.2,0.7,0.2,0.9c0.1,0.2,0,0.5-0.1,0.9
		c-0.1,0.4-0.2,0.7-0.4,1c-0.2,0.2-0.5,0.5-0.9,0.9c-0.8,0.7-1.4,1.1-1.7,1.3c-0.3,0.2-0.6,0.5-1.1,0.8c-0.5,0.3-1.4,0.9-2.7,1.7
		c0.4,0.1,0.7,0.1,0.9,0.3c0.2,0.1,0.4,0.2,0.6,0.3c0.2,0.1,0.4,0.2,0.6,0.5c0.4,0.1,0.7,0.2,0.8,0.4c0.1,0.1,0.3,0.3,0.4,0.4
		c0.2,0.1,0.4,0.3,0.5,0.6s0.3,0.5,0.4,0.7c0.4,0.4,0.6,0.7,0.6,0.8c0,0.1,0.1,0.3,0.3,0.5c0.2,0.4,0.4,0.8,0.4,1.1
		c0.1,0.3,0.1,0.6,0.1,0.8s0,0.6,0,1c0.6,0,1.1,0.1,1.4,0.1c0.3,0.1,0.8,0.1,1.5,0c0.4,0,0.8,0.1,1.1,0.2c0.4,0.1,0.7,0.3,0.9,0.6
		c0.2,0.3,0.3,0.6,0.1,0.8c-0.2,0.2-0.4,0.4-0.6,0.5c-0.2,0.1-0.4,0.1-0.7,0c-0.3-0.1-0.4-0.2-0.6-0.2
		C266.5,76.2,266.2,76.1,265.8,76.1z M254,79.5c1.4,0.3,2.6,0.2,3.6-0.3c1-0.5,1.9-1.2,2.8-1.9c0.2-0.4,0.4-0.7,0.5-0.8
		c0.1-0.2,0.2-0.4,0.3-0.7c-0.4-0.1-0.7-0.1-0.9-0.1c-0.2,0-0.4,0-0.7,0c-0.3-0.1-0.6,0-1,0c-0.2,0.1-0.4,0.1-0.6,0.1
		c-0.2,0-0.3,0-0.4,0.1s-0.3,0.1-0.4,0.1c-0.2,0-0.4,0-0.7,0c-0.3,0.1-0.6,0.1-0.8,0.2c-0.3,0.3-0.5,0.4-0.6,0.4
		c-0.1,0-0.3,0.1-0.7,0.4c-0.3,0.2-0.6,0.5-0.9,0.7c-0.3,0.2-0.4,0.6-0.3,1C253.3,79,253.5,79.3,254,79.5z"/>
</g>
</svg>
