<?xml version="1.0" encoding="utf-8"?>
<!-- Generator: Adobe Illustrator 28.0.0, SVG Export Plug-In . SVG Version: 6.00 Build 0)  -->
<svg version="1.1" id="レイヤー_1" xmlns="http://www.w3.org/2000/svg" xmlns:xlink="http://www.w3.org/1999/xlink" x="0px"
	 y="0px" width="307.8px" height="87.4px" viewBox="0 0 307.8 87.4" style="enable-background:new 0 0 307.8 87.4;"
	 xml:space="preserve">
<style type="text/css">
	.st0{fill:#0000FF;}
</style>
<g>
	<path class="st0" d="M9.6,7.9c-0.4,0.5-0.8,1-1,1.3C8.5,9.5,8.3,9.7,8.2,9.9c-0.1,0.2-0.2,0.3-0.3,0.4c0,0.2-0.1,0.4-0.2,0.6
		c-0.1,0.2-0.3,0.4-0.4,0.6c-0.1,0.4-0.3,0.9-0.6,1.4c-0.1,0.4-0.1,0.7-0.2,1c0,0.4-0.1,0.7-0.2,0.9C6.1,15.2,6,15.6,6.1,16
		c0.3,0.5,0.5,0.8,0.7,0.9s0.3,0.2,0.4,0.4c0.1,0.2,0.1,0.5-0.1,0.7c-0.2,0.3-0.5,0.4-0.9,0.3c-0.5-0.1-0.8-0.3-1-0.6
		c-0.4-0.4-0.6-1-0.6-1.5c-0.1-0.6,0-1.3,0.2-2c0.2-1.1,0.7-2.4,1.5-4.1C7,8.5,7.7,7.3,8.3,6.5C8.6,6.2,8.8,6.1,9.1,6
		c0.3-0.1,0.6,0,0.8,0.1c0.3,0.2,0.4,0.4,0.5,0.7C10.4,7.2,10.2,7.5,9.6,7.9z M18.9,24.3c-0.5,0-0.8,0.1-1.1,0.1
		c-0.2,0.1-0.6,0.1-1,0c-0.4,0.1-0.6,0.1-0.8,0.1c-0.1,0-0.4,0-0.7,0c-0.3,0-0.6,0.1-1,0.1c-0.3,0-0.7,0-1.2-0.1
		c-0.4,0.1-0.7,0.2-0.9,0.2c-0.2,0-0.6,0.1-1,0.1c-0.4,0-0.7,0.2-0.8,0.4c-0.1,0.3-0.1,0.5-0.1,0.7c0,0.2-0.2,0.4-0.6,0.6
		c-0.4,0.2-0.9,0-1.4-0.6c-0.2-0.3-0.3-0.6-0.3-0.7c0-0.2,0-0.4,0-0.7c0.3-0.4,0.7-0.7,1-0.8c0.4-0.1,0.8-0.2,1.2-0.3
		s1.2-0.1,2.3-0.2c1-0.1,2.3-0.1,3.8-0.2l3.5-0.2c-0.2-0.4-0.4-0.8-0.8-1.1c-0.4-0.3-1-0.6-1.9-0.9c-0.4-0.2-0.6-0.5-0.6-0.9
		s0.2-0.7,0.5-1c0.3-0.2,0.6-0.3,0.9-0.5c0.3-0.2,0.6-0.4,1-0.6c0.4-0.2,0.7-0.5,1-0.8c0.4-0.3,0.7-0.5,0.8-0.6
		c0.2-0.1,0.6-0.4,1.2-0.9c0.1-0.4,0-0.6-0.3-0.6c-0.2,0-0.7-0.1-1.4-0.3c-0.6,0.1-1.1,0.2-1.4,0.2c-0.4,0.1-0.9,0.1-1.4,0.3
		c-0.5,0.1-0.9,0.3-1.2,0.4c-0.3,0.1-0.6,0.3-0.9,0.6c-0.1,0.5-0.2,0.8-0.4,0.9c-0.2,0.1-0.4,0.2-0.7,0.3c-0.3,0.1-0.6-0.1-0.9-0.5
		c-0.3-0.4-0.4-0.8-0.2-1.2c0-0.2,0.1-0.4,0.4-0.5c0.3-0.2,0.7-0.5,1.3-0.8c0.6-0.2,1.2-0.4,1.9-0.5s1.3-0.3,2-0.4
		c0.7-0.1,1.2-0.1,1.6-0.1c0.4,0,0.8,0,1.4,0.1c0.6,0.1,1.1,0.2,1.5,0.5c0.6,0.5,0.7,1.1,0.5,1.7c-0.1,0.5-0.4,0.9-0.8,1.3
		c-0.4,0.3-1,0.8-1.9,1.4c-0.8,0.6-1.4,1.1-1.9,1.5c0.4,0.3,0.8,0.7,1.1,0.9c0.3,0.3,0.7,0.8,1,1.4c0.1,0.2,0.2,0.5,0.3,0.9
		c1.1-0.1,1.9-0.1,2.5-0.2c0.7,0,1.5-0.1,2.4-0.2c0.7-0.1,1.5-0.2,2.3-0.3c0.3,0,0.6,0.1,0.8,0.3s0.4,0.4,0.3,0.7
		c-0.1,0.3-0.2,0.5-0.5,0.5s-0.5,0.1-0.8,0.2c-0.3-0.1-0.7-0.1-1.2,0C27.1,24,26.5,24,25.7,24c-0.8,0-1.4,0-2,0
		c-0.5,0-1.1,0-1.8,0.1c-0.1,0.4-0.1,0.8,0,1c0,0.2,0,0.6-0.2,1.1c0,0.3-0.1,0.6-0.4,1c0,0.4-0.1,0.7-0.2,0.9
		c-0.1,0.2-0.2,0.4-0.3,0.5c-0.1,0.4-0.3,0.8-0.5,1.4c-0.3,0.4-0.4,0.7-0.4,0.8c0,0.1-0.2,0.4-0.4,0.7s-0.6,0.7-1.1,1.2
		c-0.5,0.4-1,0.7-1.4,0.9c-0.4,0.1-0.9,0.1-1.3-0.1c-0.5-0.2-0.8-0.4-1-0.6c-0.3-0.2-0.6-0.4-0.9-0.6c-0.3-0.2-0.5-0.4-0.7-0.5
		c-0.2-0.1-0.4-0.3-0.5-0.4c-0.4-0.3-0.6-0.4-0.7-0.5s-0.3-0.3-0.7-0.7c-0.3-0.3-0.3-0.7-0.1-1c0.2-0.4,0.5-0.5,0.8-0.5
		c0.3,0,0.7,0.2,1,0.6c0.4,0.4,0.7,0.7,1,1c0.3,0.3,0.6,0.5,0.8,0.7c0.3,0.2,0.7,0.5,1.3,1c0.4,0.2,0.7,0.2,0.9,0.1
		c0.2-0.1,0.5-0.3,0.9-0.6c0.9-0.9,1.5-1.8,1.8-2.6c0.3-0.8,0.6-1.6,0.7-2.3c0.2-0.8,0.2-1.5,0.1-2.1C19.9,24.3,19.4,24.3,18.9,24.3
		z M22.8,6.3c0.3-0.3,0.6-0.5,0.7-0.5c0.2-0.1,0.3-0.1,0.5-0.2c0.2-0.1,0.4-0.3,0.7-0.5c0.3-0.2,0.8-0.6,1.6-1.2
		c0.8-0.5,1.4-1,1.9-1.3c0.5-0.4,0.9-0.7,1.3-1.1c0.3-0.3,0.7-0.5,1-0.6c0.4-0.1,0.7,0,0.9,0.4c0.2,0.4,0.3,0.7,0.3,0.9
		c0,0.2-0.1,0.4-0.2,0.5c-0.1,0.1-0.3,0.3-0.5,0.3c-0.2,0.1-0.6,0.3-1,0.5c-0.5,0.3-1.4,0.9-2.6,1.8c-1.2,0.9-2,1.4-2.4,1.6
		c-0.4,0.2-0.8,0.4-1.3,0.8c0.5,0,1.4,0.1,2.7,0.2c1.5,0.2,2.7,0.4,3.4,0.7c0.5,0.2,1.1,0.4,1.6,0.7s1,0.6,1.3,1.1
		c0.3,0.5,0.5,0.9,0.5,1.3c0,0.4-0.1,0.8-0.4,1.3c-0.4,0.3-0.7,0.6-0.9,0.9s-0.6,0.5-1.1,0.9c-0.5,0.3-1.3,0.9-2.4,1.7
		c-0.4,0.2-0.7,0.3-0.9,0.4c-0.2,0.1-0.4,0.2-0.7,0.1c-0.3,0-0.5-0.2-0.6-0.6c-0.1-0.4-0.1-0.7,0-0.9c0.1-0.2,0.3-0.4,0.5-0.5
		c0.2-0.1,0.5-0.2,0.8-0.3c0.4-0.2,0.7-0.4,0.9-0.5c0.2-0.1,0.4-0.2,0.6-0.4c0.2-0.1,0.4-0.3,0.7-0.5c0.3-0.2,0.6-0.4,0.9-0.7
		c0.3-0.3,0.6-0.5,0.7-0.5c0.1-0.1,0.1-0.3,0.1-0.6c-0.1-0.3-0.4-0.5-0.7-0.7c-0.3-0.2-0.7-0.4-1-0.6c-0.4-0.2-0.9-0.4-1.6-0.5
		c-1.2-0.2-2.2-0.3-3.1-0.4c-0.8-0.1-1.8-0.1-3,0c-1.2,0-1.9,0.1-2.2,0.1c-0.3,0-0.6,0.1-1.1,0.1c-0.5,0-0.9,0.2-1.3,0.3
		c-0.2,0.1-0.5,0.2-0.8,0.1c-0.3,0.1-0.5,0.1-0.6,0.3c-0.1,0.1-0.4,0.2-0.7,0.2c-0.5,0.1-1.2,0.3-2,0.7c-0.8,0.3-1.3,0.6-1.6,0.8
		S11.2,12,11,12.3c-0.6,0.3-1.1,0.4-1.4,0.3c-0.3-0.1-0.5-0.4-0.5-0.9c0-0.5,0.2-0.9,0.7-1.1c0.5-0.2,1-0.4,1.4-0.6
		c0.3-0.2,0.7-0.4,1.1-0.4c1.1-0.3,2.2-0.7,3.5-1c1.3-0.3,2.5-0.5,3.7-0.7c1.1-0.1,1.8-0.2,2.3-0.2c0-0.6,0.1-1,0.3-1.1
		C22.4,6.5,22.6,6.4,22.8,6.3z M13.5,4c0.2,0.2,0.3,0.3,0.3,0.5c0,0.2,0.1,0.4,0.3,0.6c0.2,0.2,0.4,0.4,0.6,0.6
		c0.3,0.2,0.5,0.4,0.8,0.6C15.8,6.5,16,6.7,16,6.9c0,0.2,0,0.4-0.1,0.6c-0.1,0.2-0.3,0.3-0.5,0.4C15.1,8,14.8,8,14.6,8
		c-0.3-0.1-0.5-0.2-0.8-0.5c-0.2-0.3-0.3-0.5-0.6-0.6c-0.2-0.1-0.4-0.4-0.6-0.7c-0.1-0.2-0.2-0.4-0.3-0.7c-0.2-0.3-0.3-0.8-0.6-1.5
		c-0.2-0.7-0.5-1.5-0.8-2.3c-0.1-0.5,0-0.8,0.1-1.1c0.1-0.2,0.3-0.4,0.6-0.4C11.9,0,12.2,0,12.3,0c0.2,0,0.3,0.2,0.4,0.4
		c0.1,0.2,0.2,0.6,0.2,1C13,2.3,13.1,2.8,13.2,3C13.2,3.2,13.3,3.5,13.5,4z M19.3,3.5c0.3,0.4,0.5,0.7,0.8,0.9
		c0.4,0.1,0.6,0.2,0.8,0.4c0.1,0.2,0.2,0.5,0.2,0.7c0,0.3-0.1,0.5-0.3,0.7c-0.2,0.2-0.4,0.2-0.7,0.2S19.5,6.2,19.3,6
		c-0.4-0.2-0.7-0.4-1-0.6c-0.3-0.2-0.5-0.3-0.6-0.6c-0.1-0.2-0.2-0.5-0.4-0.8c-0.2-0.3-0.3-0.9-0.5-1.6c-0.1-0.5,0.1-0.9,0.5-1.1
		c0.4-0.2,0.8-0.2,1.1,0S19,1.7,19,2c0,0.2,0,0.5,0.1,0.7C19.1,2.9,19.2,3.1,19.3,3.5z"/>
	<path class="st0" d="M51.6,6.8c0.3-0.2,0.4-0.3,0.4-0.5c0-0.2,0.1-0.3,0.3-0.4c0.2-0.1,0.3-0.2,0.3-0.4c0-0.1,0.2-0.5,0.5-1
		c0.5-0.7,1-1.1,1.4-1.2c0.4,0,0.6,0.1,0.8,0.3c0.2,0.3,0.3,0.5,0.4,0.8c0.1,0.6-0.2,1-0.6,1.2c-0.5,0.2-0.8,0.4-1,0.8
		c-0.2,0.3-0.5,0.6-0.8,0.8c-0.4,0.5-0.6,0.9-0.7,1.1c-0.1,0.2-0.3,0.4-0.4,0.6S52,9.2,51.9,9.3s-0.2,0.3-0.5,0.6
		c-0.1,0.5-0.3,0.8-0.6,0.9c-0.2,0.4-0.4,0.7-0.6,0.9c-0.5,0.8-1,1.5-1.3,2.1c-0.1,0.4-0.3,0.7-0.5,0.9c-0.3,0.3-0.5,0.6-0.7,0.9
		c0,0.4-0.1,0.7-0.3,0.9c-0.1,0.2-0.2,0.4-0.1,0.5c0.1,0.2,0.1,0.3,0,0.5c-0.1,0.2-0.1,0.3,0,0.4s0.2,0.4,0.5,0.8
		c0.1,0.3,0.2,0.5,0.3,0.8c0.1,0.2,0.1,0.5,0,0.7c-0.1,0.2-0.3,0.4-0.5,0.5c-0.3,0.1-0.5,0.1-0.8,0c-0.3-0.1-0.4-0.2-0.5-0.4
		c-0.4-0.8-0.7-1.6-0.8-2.4c-0.1-0.9,0.1-1.8,0.7-2.8c0.6-1.1,1-1.8,1.3-2.2c0.3-0.4,0.6-0.9,1-1.4c0.4-0.5,0.9-1.2,1.5-2
		C50.5,8.5,51.1,7.7,51.6,6.8z M53.8,30.1c-0.2,0.1-0.4,0.1-0.6,0.1s-0.6,0-0.9,0.1c-0.4,0.2-0.7,0.2-0.9,0.2c-0.3,0-0.5,0-0.8,0
		c-0.6,0-1-0.2-1.3-0.5c-0.3-0.3-0.4-0.7-0.3-1.1c0.1-0.4,0.3-0.7,0.7-0.8c0.7-0.2,1.7-0.6,3.1-1.2c1.4-0.6,2.4-1,2.9-1.3
		c0.6-0.3,1.1-0.6,1.5-0.8c0.4-0.2,1-0.5,1.7-0.8c0.2-0.7,0.4-1.4,0.6-2.1c0.2-0.8,0.3-1.5,0.5-2.3c-0.5,0-0.9,0-1.3,0
		c-0.4,0-0.7,0-1.2,0.2c-0.3,0-0.5,0.1-0.6,0.2c-0.1,0.1-0.3,0.2-0.6,0.2c-0.3,0-0.6,0.2-1,0.5c0.1,0.3,0.1,0.6-0.2,0.8
		s-0.6,0.3-1,0.1c-0.5-0.2-0.8-0.5-0.9-1c-0.1-0.5-0.1-0.8,0.1-1c0.2-0.2,0.5-0.4,0.9-0.7c0.5-0.3,1.2-0.5,2.2-0.6
		c1-0.2,1.7-0.3,2.2-0.4c0.4,0,1-0.1,1.6-0.2c0.1-0.5,0.2-1.2,0.4-2.1c0.2-0.9,0.3-2.1,0.4-3.5c-0.5-0.1-0.8-0.1-0.9,0
		c-0.1,0.1-0.3,0.2-0.5,0.2c-0.2,0-0.4,0-0.5,0c-0.2-0.1-0.4,0-0.6,0.1c-0.2,0.1-0.4,0.1-0.6,0.1c-0.2-0.1-0.3-0.1-0.4,0
		s-0.3,0.2-0.5,0.1c-0.2,0-0.4,0-0.6,0.1c-0.3,0-0.6,0-0.8,0.2c-0.2,0.1-0.4,0.2-0.6,0.2c-0.2,0-0.4,0-0.6,0.1
		c-0.2,0.1-0.5,0.2-1,0.4c0.4,0.2,0.5,0.4,0.4,0.6c-0.1,0.2-0.2,0.4-0.4,0.5c-0.2,0.1-0.4,0.2-0.6,0.2c-0.2,0-0.4,0-0.6-0.2
		c-0.2-0.1-0.5-0.3-0.8-0.4c-0.6-0.8-0.5-1.4,0.2-2c0.4-0.3,0.9-0.5,1.5-0.6c0.6-0.1,1.2-0.3,1.7-0.4c1-0.2,2.1-0.4,3.2-0.5
		s2.1-0.2,3.1-0.4c0-0.5,0.1-1,0.1-1.6c0.1-0.6,0.1-1.3,0.1-2.1c0-0.4,0-0.7,0-1c0-0.3,0.1-0.7,0.4-1c0.1-0.3,0.3-0.5,0.6-0.6
		c0.3,0,0.6,0,0.9,0.3c0.3,0.4,0.4,0.7,0.4,1c0,0.2,0,0.5-0.1,0.9c-0.1,0.3-0.2,0.7-0.3,1.1c-0.1,0.3-0.2,0.6-0.2,0.8
		c0,0.2-0.1,0.9-0.3,2c0.7,0,1.4,0,1.9,0c0.6-0.1,1.4-0.1,2.6-0.2c0.4,0,0.7,0,0.9,0.1c0.2,0.1,0.4,0.2,0.5,0.4s0.2,0.4,0.1,0.7
		c0,0.2-0.1,0.4-0.3,0.5c-0.1,0.1-0.3,0.2-0.6,0.4c-0.5,0.2-0.8,0.2-1,0.1c-0.2-0.1-0.4-0.1-0.7-0.2c-0.3-0.1-0.5-0.1-0.8-0.1
		c-0.3,0-0.5,0-0.8,0s-0.6,0-1,0c-0.2,0.1-0.5,0.1-1,0c-0.2,0.7-0.2,1.2-0.3,1.5c0,0.3,0,0.6-0.1,0.9c0,0.3-0.1,0.5-0.2,0.8
		c-0.1,0.3-0.2,0.5-0.2,0.8c0.1,0.5,0,0.8-0.1,1c-0.1,0.2-0.2,0.5-0.3,1c0.8,0,1.4,0,1.8,0.1c0.4,0.1,0.9,0.2,1.5,0.3
		c0.4,0.1,0.8,0.3,1,0.4c0.2,0.1,0.4,0.3,0.4,0.5c0.1,0.2,0.2,0.4,0.2,0.6c0.1,0.2,0.1,0.4,0.1,0.6c0,0.2-0.1,0.5-0.2,0.8
		c-0.1,0.3-0.3,0.6-0.6,0.8c-0.2,0.2-0.5,0.4-0.7,0.5c-0.9,0.6-1.8,1.1-2.7,1.6c-0.3,0.2-0.6,0.3-0.8,0.4c-0.2,0.1-0.7,0.4-1.5,0.8
		c-0.2,0.8-0.4,1.5-0.5,1.9c-0.1,0.4-0.3,0.9-0.5,1.3c2.2,0,4-0.1,5.4-0.2c1.4-0.1,2.8-0.2,4.1-0.3c0.7-0.1,1.1-0.1,1.3-0.1
		s0.4,0.1,0.6,0.2c0.2,0.1,0.4,0.3,0.6,0.5c0.2,0.2,0.3,0.5,0.3,0.8c0,0.3-0.1,0.4-0.4,0.5c-0.2,0.1-0.4,0.1-0.6,0.1s-0.4,0-0.7,0
		c-0.4,0-0.7,0-0.9,0c-0.2-0.1-0.4-0.1-0.6-0.1c-0.2,0-0.5,0-1.1-0.1c-0.8-0.1-1.5,0-2,0.1c-0.3,0.1-0.6,0.1-0.8-0.1
		c-0.2-0.1-0.4-0.2-0.5-0.1c-0.2,0.1-0.3,0.1-0.5,0.1c-0.2,0-0.3,0-0.5,0c-0.4,0.1-0.9,0.1-1.7,0.1c-0.8,0-1.3,0.1-1.7,0.1
		c-0.3,0.1-0.6,0.1-0.8,0.1c-0.2,0-0.5,0-0.7,0c-0.2,0-0.5,0-0.7,0.1c-0.2,0.1-0.5,0-0.7-0.2c-0.2,0.1-0.4,0.1-0.6,0.1
		c-0.2,0-0.5,0-0.7,0.1c-0.4,0-0.6,0-0.7,0.1C54.3,30.2,54.1,30.2,53.8,30.1z M58.3,26.1c-0.9,0.3-1.7,0.7-2.4,1.1
		c-0.8,0.4-1.5,0.9-2.2,1.3c1.3-0.1,2.5-0.1,3.8-0.1c-0.1-0.4,0-0.7,0.1-0.9S57.9,26.8,58.3,26.1z M62.7,19.5
		c-0.3,0.1-0.5,0.1-0.6,0.1c-0.1,0-0.3-0.1-0.5-0.1c-0.2,0.8-0.4,1.4-0.5,1.8c-0.1,0.4-0.3,1-0.5,1.8c0.4-0.2,1.1-0.5,2.1-1.1
		c0.7-0.4,1.1-0.7,1.2-0.8c0.1-0.1,0.3-0.2,0.4-0.4c0.2-0.1,0.3-0.3,0.4-0.4c0.1-0.2,0-0.3-0.1-0.3c-0.3-0.2-0.6-0.3-0.9-0.3
		C63.3,19.7,63,19.6,62.7,19.5z"/>
	<path class="st0" d="M84.9,10.3c-0.4,0.8-0.6,1.2-0.7,1.4c-0.1,0.2-0.3,0.9-0.6,2.1c-0.3,1.2-0.6,2.1-0.7,2.8
		c-0.1,0.6-0.1,1.2-0.2,2s-0.2,1.6-0.3,2.4c-0.1,0.7,0,1.5,0.2,2.2c0.2,0.8,0.4,1.4,0.6,2c0.3,0.4,0.5,0.6,0.7,0.8
		c0.2,0.2,0.3,0.4,0.3,0.7c0,0.3-0.1,0.6-0.4,0.7c-0.3,0.1-0.6,0.2-1,0.1s-0.7-0.3-0.9-0.9c-0.1-0.2-0.2-0.5-0.4-0.9
		c-0.3-0.2-0.5-0.4-0.5-0.6c0-0.2,0-0.6-0.1-1.2c0-0.4,0-0.6-0.1-0.8c-0.1-0.2-0.1-0.3,0-0.5c0.1-2.3,0.3-4.6,0.6-6.8
		c0.2-0.8,0.3-1.5,0.4-1.9c0.1-0.6,0.2-1.1,0.4-1.7c0.1-0.6,0.3-1.1,0.4-1.4c0-0.2,0.1-0.4,0.1-0.7c0-0.2,0.1-0.5,0.2-0.7
		c0.1-0.2,0.2-0.4,0.3-0.5c0.1-0.1,0.3-0.3,0.8-0.5c0.3-0.1,0.6,0,0.8,0.2c0.2,0.2,0.4,0.4,0.4,0.7C85.3,9.6,85.2,9.9,84.9,10.3z
		 M88,12.6c-0.1,0.2-0.3,0.4-0.5,0.6c-0.2,0.2-0.4,0.3-0.7,0.2c-0.5-0.1-0.8-0.3-1-0.7c-0.2-0.4-0.2-0.8,0.1-1.2
		c0.2-0.2,0.4-0.3,0.7-0.4c0.3-0.1,0.5-0.1,0.8-0.2c1.2-0.4,2.1-0.7,2.7-0.8c0.5-0.1,1.3-0.2,2.3-0.4c0.6,0,1,0,1.2,0.1
		c0.2,0.1,0.5,0.2,0.7,0.5c0.2,0.3,0.4,0.6,0.4,0.9c0,0.3,0,0.7-0.1,1.1c-0.3,1.8-0.6,3.7-1,5.6c-0.4,1.9-0.6,4-0.7,6.2
		c0.2,0.7,0.2,1.2,0,1.5c-0.2,0.3-0.5,0.5-0.7,0.7c-0.2,0.1-0.5,0.2-0.8,0c-0.3-0.1-0.5-0.5-0.5-1.2c-0.5,0.1-1,0.2-1.5,0.4
		c-0.5,0.2-1,0.3-1.6,0.4c-0.5,0.2-0.9,0.3-1.1,0.3c-0.3,0-0.5,0-0.7,0c-0.5,0-0.9-0.3-1-0.7s0-0.9,0.4-1.4c0.2-0.4,0.4-0.7,0.6-0.8
		c0.2-0.3,0.4-0.6,0.7-0.9c0.1-0.4,0.2-0.6,0.4-0.7c0.2-0.1,0.4-0.3,0.8-0.7c0.1-0.3,0.2-0.5,0.3-0.7c0.2-0.2,0.4-0.4,0.6-0.7
		c0.2-0.2,0.6-0.8,1.1-1.6c-0.6,0.1-1.1,0.1-1.4,0.2c-0.3,0.1-0.7,0.1-1,0.2c-0.3,0.1-0.8,0.2-1.2,0.5c-0.2,0.3-0.4,0.4-0.6,0.4
		c-0.2,0-0.4,0-0.7,0c-0.3,0-0.5-0.2-0.6-0.5c-0.1-0.3-0.2-0.6-0.1-0.9c0.1-0.2,0.3-0.4,0.7-0.6c0.3-0.1,0.8-0.3,1.5-0.4
		c0.7-0.2,1.2-0.3,1.4-0.3c0.2-0.1,0.5-0.1,0.7-0.1c0.2,0,0.4,0,0.6,0c0.4-0.1,0.9-0.2,1.3-0.2c0.6,0.2,0.9,0.3,1,0.4
		c0.1,0.1,0.1,0.3,0.3,0.5c0.1,0.2,0.1,0.5,0.1,1c0,0.3-0.1,0.6-0.3,0.9c-0.2,0.3-0.8,1-1.6,2.1c-0.9,1.1-1.5,1.8-1.8,2.2
		c-0.3,0.4-0.6,0.7-0.8,1c0.6-0.1,1.1-0.2,1.3-0.3c0.2,0,0.6-0.1,1-0.3c0.4-0.1,0.8-0.3,1-0.4c0.3-0.1,0.5-0.2,0.8-0.4
		c0.2-0.1,0.4-0.3,0.4-0.6c0.2-1.2,0.3-2.4,0.6-3.5c0.2-1.2,0.4-2.5,0.6-4.1c0.2-1.6,0.3-2.7,0.4-3.4c-0.4-0.1-0.8-0.2-1.2-0.2
		s-0.7,0.1-1.1,0.2c-0.2,0.2-0.4,0.2-0.5,0.2c-0.2,0-0.3,0-0.5,0.1c-0.1,0.1-0.4,0.2-0.7,0.3C88.7,12.2,88.4,12.4,88,12.6z
		 M104.9,11c0.2-0.5,0.3-0.9,0.4-1.2c0.1-0.3,0.2-0.6,0.2-1c0-0.2,0.1-0.4,0.2-0.7c0.1-0.3,0.1-0.8,0.1-1.5c-0.6,0.1-1,0.2-1.4,0.2
		c-0.3,0.1-0.7,0.2-1,0.2c-0.3,0.1-0.8,0.2-1.3,0.3c-0.2,0.1-0.4,0.2-0.6,0.4c-0.2,0.2-0.4,0.3-0.6,0.4c-0.1,0.3-0.2,0.5-0.4,0.6
		c-0.2,0.1-0.5,0.1-0.8,0.1c-0.3,0-0.6-0.3-0.8-0.8C98.7,7.6,98.7,7.3,99,7c0.2-0.3,0.4-0.4,0.6-0.5c0.2-0.1,0.4-0.1,0.8-0.3
		c0.3-0.1,1.4-0.4,3.3-0.8c0.7-0.1,1.4-0.3,2.2-0.4c-0.1-0.7-0.2-1.2-0.2-1.7c-0.1-0.5,0-0.9,0-1.2c0.1-0.3,0.4-0.5,0.9-0.6
		c0.4,0,0.6,0.1,0.8,0.3c0.2,0.2,0.3,0.5,0.4,0.9c0.1,0.5,0.1,0.8,0.1,1c0,0.2,0,0.5-0.1,0.9c0.6-0.1,1.2-0.1,1.8-0.1
		c0.6,0,1.2,0,1.8,0.2c0.2,0.2,0.4,0.3,0.5,0.4c0.1,0.1,0.2,0.3,0.3,0.5c0.1,0.2,0,0.4-0.2,0.6c-0.2,0.2-0.4,0.3-0.5,0.4
		c-0.2,0-0.3,0-0.5-0.1c-0.2-0.1-0.4-0.1-0.5-0.3c-0.3,0.2-0.6,0.1-0.9,0c-0.8,0.1-1.3,0.1-1.8,0.2c0,0.7-0.1,1.2-0.2,1.6
		c-0.1,0.4-0.2,0.7-0.2,1c0,0.2,0,0.4-0.1,0.6c-0.1,0.2-0.1,0.6-0.3,1.1c-0.1,0.5-0.3,0.9-0.5,1.3c0.6,0,1.6-0.1,3-0.2
		c1.4-0.1,2.3-0.2,2.7-0.2c0.5,0,1,0,1.6,0c0.2,0,0.6,0,1.1,0c0.4,0.1,0.7,0.1,0.9,0.2c0.2,0.1,0.4,0.1,0.6,0.2
		c0.2,0.1,0.4,0.3,0.5,0.5c0.1,0.2,0.1,0.5,0,0.6c-0.1,0.2-0.2,0.3-0.4,0.4s-0.3,0.1-0.4,0.1c-0.1,0-0.2-0.1-0.3-0.1
		s-0.4-0.1-0.8-0.2c-0.1,0.2-0.4,0.1-0.7-0.1c-0.4,0.1-0.7,0.1-1.1,0s-0.6-0.1-0.8-0.1s-0.4,0-0.6,0c-0.2,0-0.6,0-1,0
		c-0.3,0.1-0.6,0.1-0.8,0.1c-0.2,0-0.4-0.1-0.6-0.2c-0.3,0.1-0.7,0.2-1.3,0.2c-0.4-0.1-0.7-0.1-0.9,0c-0.2,0.1-0.6,0.1-1.3,0.2
		c-0.5,0.3-0.8,0.6-1,0.7c-0.2,0.1-0.4,0.2-0.7,0.2c-0.3,0-0.5-0.2-0.6-0.4c-0.6,0.2-1,0.3-1.2,0.2c-0.2,0-0.5,0-0.9,0.1
		c-0.4,0.1-0.7,0.2-0.9,0.3c-0.2,0.1-0.5,0.2-1,0.3c-0.4,0.1-1.1,0.3-1.9,0.6c-0.1,0.2-0.2,0.4-0.3,0.6c-0.1,0.2-0.2,0.4-0.5,0.5
		c-0.3,0.2-0.6,0.2-0.9,0.1c-0.3-0.1-0.5-0.2-0.7-0.4c-0.1-0.2-0.2-0.4-0.1-0.6c0-0.5,0.1-0.9,0.4-1.1c0.2-0.2,0.7-0.4,1.3-0.6
		c0.8-0.3,1.5-0.5,2.3-0.6c0.7-0.2,1.6-0.3,2.5-0.4c0.9-0.1,1.6-0.2,2.1-0.4c0.1-0.4,0.3-0.6,0.4-0.8
		C104.5,11.7,104.7,11.4,104.9,11z M105.7,31.7c0.3,0.1,0.5,0,0.6-0.3c0.1-0.3,0.3-0.5,0.4-0.8c0.2-0.2,0.4-0.7,0.5-1.3
		c0.2-0.6,0.3-1.4,0.4-2.3c0.1-0.9,0.2-1.7,0.3-2.4c0.1-0.6,0.1-1,0-1.3c0.1-0.6,0.1-1.2,0.2-1.8c0-0.6,0.1-1.2,0.1-1.9
		c-0.4,0-1,0.1-1.7,0.2c-0.7,0.1-1.2,0.2-1.5,0.2c-0.4,0-0.9,0.1-1.2,0.2c-0.6,0.2-1.1,0.3-1.6,0.2c-0.1,0.1-0.3,0.2-0.7,0.3
		c-0.2,0.1-0.6,0.2-1.2,0.3c-0.4,0.1-0.7,0.2-0.9,0.3c-0.2,0.1-0.3,0.1-0.5,0.2c-0.1,0-0.4,0.2-0.6,0.4c-0.1,0.3-0.2,0.5-0.4,0.7
		c-0.2,0.2-0.3,0.3-0.5,0.4s-0.3,0.2-0.5,0.1c-0.2,0-0.3-0.1-0.5-0.1c-0.4-0.1-0.6-0.3-0.8-0.6c-0.1-0.3-0.1-0.6,0-0.9
		c0.1-0.3,0.2-0.5,0.4-0.6c0.2-0.1,0.4-0.2,0.6-0.4c0.4-0.2,0.6-0.3,0.8-0.4c0.2-0.1,0.5-0.1,0.9-0.1c0.4-0.2,0.7-0.3,1-0.3
		c0.2,0,0.3,0,0.4-0.1c0.1-0.1,0.4-0.1,0.8-0.2c0.4-0.1,1.2-0.2,2.3-0.4c1.1-0.2,2.9-0.4,5.3-0.6c0-0.4,0-0.7,0-1.1
		c0-0.3,0-0.7,0-1.1c0-0.4,0.1-0.8,0.3-1.2c0.2-0.4,0.5-0.5,1-0.3c0.3,0.1,0.5,0.2,0.6,0.5c0.1,0.2,0.2,0.4,0.1,0.6
		s-0.1,0.3-0.1,0.4c0,0.1,0,0.4,0,0.7c-0.1,0.3-0.2,0.7-0.3,1.1c0.4,0,0.9,0,1.4-0.1c0.5-0.1,1-0.1,1.2-0.1c0.3,0,0.6,0,1-0.1
		c0.5,0.1,0.9,0.1,1.2,0c0.3,0,0.6,0.1,0.9,0.3c0.1,0.2,0.2,0.4,0.3,0.6c0.1,0.2,0.1,0.3,0.1,0.5c0,0.1-0.1,0.3-0.2,0.4
		c-0.1,0.1-0.2,0.2-0.4,0.2c-0.2,0-0.3,0.1-0.5,0.2c-0.2,0.1-0.4,0.1-0.6,0.1c-0.2,0-0.4,0-0.6,0c-0.2,0-0.4-0.1-0.4-0.2
		c-0.1-0.1-0.2-0.3-0.3-0.5c-0.6,0-1.1,0-1.5,0.1c-0.4,0-1,0-1.6,0.1c0,0.7-0.1,1.1-0.2,1.2c-0.1,0.2-0.1,0.4-0.1,0.6
		c0.1,0.2,0,0.4,0,0.4s-0.1,0.2-0.1,0.4c0,0.2,0,0.3,0,0.5s-0.1,0.4-0.1,0.6c0,0.4-0.1,0.8-0.1,1.2c-0.1,0.6-0.1,1.1-0.2,1.5
		c-0.1,0.4-0.1,0.7-0.2,0.9c-0.1,0.2-0.2,0.6-0.4,1.3c-0.1,0.4-0.1,0.6-0.1,0.8c0,0.2,0,0.4-0.2,0.5c-0.1,0.1-0.2,0.3-0.2,0.4
		c0,0.1-0.1,0.5-0.3,1.1c-0.2,0.5-0.4,0.9-0.6,1.3c-0.2,0.6-0.5,0.9-1,1c-0.5,0.1-1,0-1.4-0.2c-0.4-0.2-1.1-0.7-2.1-1.3
		c-0.3-0.3-0.6-0.5-1-0.8s-0.6-0.5-0.8-0.6c-0.2-0.3-0.2-0.6-0.2-0.8c0-0.2,0.1-0.4,0.3-0.6c0.2-0.1,0.4-0.2,0.6-0.2
		s0.4,0.1,0.5,0.3c0.2,0.1,0.6,0.3,1.1,0.9c0.5,0.5,1,0.9,1.3,1.2C105,31.4,105.4,31.6,105.7,31.7z M102.5,24.5
		c0.4,0.3,0.7,0.5,0.9,0.5c0.2,0,0.4,0,0.5,0.1c0.4,0.1,0.6,0.2,0.8,0.4c0.2,0.2,0.2,0.4,0.3,0.6c0,0.2-0.1,0.5-0.3,0.8
		c-0.2,0.3-0.6,0.3-1,0.2c-0.4-0.1-0.8-0.3-1-0.5c-0.3-0.2-0.6-0.4-1-0.7s-0.9-0.6-1.4-1.1c-0.2-0.2-0.4-0.4-0.5-0.6
		c-0.1-0.2-0.1-0.5-0.1-0.7c0-0.2,0.2-0.4,0.5-0.7c0.2-0.1,0.5-0.2,0.7-0.2c0.2,0,0.4,0.1,0.4,0.3c0.1,0.2,0.2,0.3,0.3,0.5
		c0.1,0.2,0.2,0.3,0.4,0.4C102.2,24.2,102.4,24.4,102.5,24.5z"/>
	<path class="st0" d="M125.2,13.8c0.1-0.3,0.2-0.5,0.4-0.7c0.2-0.2,0.4-0.4,0.5-0.6c0.3-0.3,0.6-0.6,0.8-0.8
		c0.2-0.2,0.3-0.4,0.4-0.5c0.1-0.1,0.3-0.4,0.6-0.7c0.3-0.4,0.5-0.6,0.7-0.7c0.2-0.1,0.4-0.2,0.4-0.4c0.1-0.2,0.2-0.3,0.4-0.3
		c0.2-0.3,0.4-0.6,0.5-0.7c0.3-0.2,0.5-0.4,0.5-0.5c0.1-0.2,0.2-0.3,0.4-0.5c0.2-0.1,0.4-0.3,0.6-0.4c0.2-0.3,0.3-0.5,0.5-0.6
		c0.1-0.1,0.3-0.3,0.4-0.4c0.3-0.1,0.5-0.3,0.6-0.5c0.2-0.2,0.5-0.5,1.1-1c0.3-0.4,0.5-0.6,0.9-0.7c0.2-0.1,0.4-0.1,0.6-0.1
		c0.5,0.1,0.9,0.2,1.2,0.4c0.2,0.2,0.3,0.4,0.2,0.7c-0.1,0.3-0.2,0.5-0.4,0.7c-0.2,0.1-0.4,0.1-0.5,0.1c-0.1-0.1-0.3,0-0.5,0.1
		c-0.3,0.3-0.6,0.5-1,0.7c-0.3,0.4-0.5,0.6-0.6,0.8c-0.1,0.1-0.3,0.3-0.7,0.3c-0.2,0.4-0.5,0.6-0.8,0.8c-0.4,0.4-1,0.9-1.7,1.7
		c-0.7,0.8-1.8,2-3.3,3.7c-1.5,1.7-2.8,3.4-3.9,5.3c-0.1,0.3-0.1,0.6,0,0.8c0.1,0.3-0.1,0.5-0.3,0.8c-0.3,0.2-0.5,0.3-0.7,0.3
		c-0.2-0.1-0.4-0.1-0.7-0.2c-0.3-0.5-0.5-1-0.4-1.3c0.1-0.4,0.2-0.7,0.4-0.9c0.2-0.2,0.3-0.4,0.4-0.6c0.1-0.2,0.4-0.5,0.7-0.8
		c0.4-0.5,0.8-1,1.2-1.5C124.3,14.8,124.7,14.3,125.2,13.8z M128.5,31c-0.8,0.1-1.2-0.2-1.4-0.8c-0.2-0.6-0.3-1.1-0.2-1.7
		s0.2-1.1,0.3-1.6c0.1-0.5,0.2-1.1,0.4-1.6c0.4-1.7,0.8-3.6,1.2-5.5c0.3-2,0.5-4.1,0.6-6.3c-0.1-0.3-0.2-0.6-0.1-0.8
		c0.1-0.2,0.2-0.4,0.3-0.6c0.1-0.2,0.3-0.3,0.7-0.3s0.7,0,0.8,0.2c0.2,0.1,0.3,0.3,0.3,0.5c0.1,0.2,0.1,0.4,0,0.7
		c-0.1,0.2-0.1,0.6-0.2,1.1c-0.1,0.5-0.2,0.8-0.3,1c-0.1,0.2-0.1,0.4,0,0.5c0.1,0.1,0,0.3,0,0.4c-0.1,0.1-0.2,0.3-0.3,0.6
		c0.1,0.4,0,0.7-0.1,0.9c-0.1,0.3-0.2,0.6-0.2,0.7c-0.1,0.2-0.1,0.6-0.3,1.1c0.1,0.2,0,0.5-0.1,0.7c-0.2,1.2-0.4,2.1-0.5,2.8
		c-0.2,0.7-0.3,1.6-0.5,2.8c-0.2,0.4-0.3,0.9-0.3,1.4c-0.2,0.5-0.2,0.8-0.1,0.9c0.1,0.1,0.1,0.3,0.1,0.5c-0.1,0.2-0.1,0.4,0,0.5
		c0.4-0.1,0.8-0.1,1.1-0.1c0.3,0.1,0.4,0.3,0.4,0.7c-0.1,0.4-0.1,0.7-0.2,0.9c-0.1,0.2-0.3,0.3-0.6,0.4
		C129,30.9,128.7,30.9,128.5,31z M142.5,12.5c-0.1-1.5-0.1-2.7-0.1-3.4s0-1.7,0-2.9c-0.1-0.8-0.1-1.4,0.2-1.8
		c0.3-0.4,0.7-0.5,1.3-0.2c0.3,0.1,0.5,0.3,0.6,0.5c0.1,0.2,0.1,0.5,0.1,0.7c0,0.2,0,0.5-0.1,0.7c0,0.2-0.1,0.5-0.3,0.8
		c-0.1,0.3-0.2,0.7-0.2,1.4c0,0.7,0,1.2,0,1.5c0,0.4,0,1.2,0,2.4c0.5-0.1,1-0.1,1.4-0.2c0.4-0.1,0.8-0.1,1.2-0.2s0.9-0.1,1.5-0.1
		c0.5,0,0.9,0.1,1.1,0.4c0.2,0.3,0.3,0.5,0.3,0.8s-0.1,0.5-0.2,0.7c-0.2,0.2-0.4,0.4-0.8,0.4c-0.4,0.1-0.7,0-0.9-0.3
		c-0.4-0.2-0.8-0.3-1.1-0.3c-0.3,0-0.5,0-0.8,0.1c-0.2,0.1-0.5,0.1-0.8,0.2c-0.3,0-0.6,0.1-0.9,0.1c0,0.4,0,0.7,0.1,0.9
		c0.1,0.2,0.1,0.5,0.1,0.8c0.1,0.5,0.1,1.1,0.1,1.8c0.2,0.3,0.3,0.6,0.3,1c0,0.3,0,0.7,0,1.1c0.2,0.5,0.2,1,0.3,1.4
		c0.3,1.5,0.8,2.9,1.3,4.1c0.5,1.2,1.4,2.5,2.5,4c0.2,0.1,0.4,0.3,0.5,0.6c0.2,0.2,0.4,0.3,0.6,0.3c0.3-0.4,0.6-1,0.8-1.8
		c0.2-0.8,0.4-1.6,0.6-2.5c0.2-0.9,0.3-1.6,0.4-2.1c0.1-0.5,0.1-1.1,0.1-1.7c0.2-0.5,0.3-0.7,0.4-0.8c0.1-0.1,0.3-0.1,0.5-0.1
		c0.2,0,0.4,0.1,0.5,0.3c0.1,0.2,0.3,0.4,0.4,0.7c0.2,0.3,0.1,0.9-0.2,1.8c0,0.3-0.1,0.6-0.2,0.8c-0.1,0.2-0.2,0.5-0.2,0.9
		c-0.1,0.8-0.3,1.4-0.5,1.7c-0.1,0.4-0.3,0.8-0.4,1.3c-0.1,0.5-0.3,0.9-0.4,1.3c-0.1,0.4-0.4,0.9-0.8,1.3c-0.4,0.5-0.8,0.6-1.3,0.5
		c-0.8-0.3-1.4-0.7-1.7-1.2c-0.4-0.5-0.8-1-1.3-1.7c-0.5-0.7-1-1.6-1.4-2.6c-0.5-1-0.9-2.2-1.3-3.5c-0.4-1.3-0.9-4.1-1.3-8.2
		c-0.7,0.2-1.2,0.4-1.7,0.4c-0.4,0.2-0.7,0.3-0.9,0.2c-0.2,0-0.4,0-0.5,0.2c-0.3,0.2-0.6,0.3-0.9,0.4c-0.3,0.1-0.6,0.2-0.8,0.2
		c-0.2,0-0.5,0.2-0.8,0.4c-0.4,0.1-0.7,0.2-0.8,0.4s-0.3,0.3-0.5,0.3c-0.2,0-0.5-0.1-0.9-0.2s-0.6-0.4-0.5-0.8
		c0.1-0.4,0.2-0.7,0.4-0.8c0.2-0.1,0.4-0.3,0.7-0.4c0.6-0.2,1.1-0.4,1.6-0.5c0.4-0.1,1.4-0.4,2.8-0.7C141,12.9,142,12.7,142.5,12.5z
		 M152.1,8.3c0.2,0.2,0.5,0.6,0.7,1.1c0.4,0.4,0.7,0.7,0.9,0.9c0.2,0.2,0.2,0.4,0.2,0.7c0,0.2-0.1,0.4-0.3,0.6
		c-0.2,0.2-0.4,0.3-0.7,0.3s-0.5-0.1-0.7-0.2c-0.2-0.1-0.4-0.4-0.6-0.7c-0.2-0.3-0.4-0.7-0.6-1c-0.2-0.3-0.4-0.7-0.6-1.2
		s-0.4-1.1-0.8-1.8c-0.5-0.8-0.7-1.3-0.7-1.5c0-0.2,0-0.5,0.1-0.7c0.1-0.2,0.3-0.4,0.7-0.4c0.4-0.1,0.7,0,0.9,0.1
		c0.2,0.1,0.3,0.4,0.4,0.9c0.3,0.7,0.5,1.1,0.5,1.3c0.1,0.2,0.1,0.4,0.2,0.6C151.8,7.4,151.9,7.7,152.1,8.3z"/>
	<path class="st0" d="M178.4,24.7c0.3-0.5,0.7-1,1-1.5c0.4-0.5,0.7-1.1,1-1.7c0.1-0.3,0.3-0.6,0.4-0.9c0.2-0.3,0.3-0.6,0.4-1
		c0.2-0.7,0.3-1.1,0.3-1.4c0-0.3,0.1-0.5,0-0.7c0-0.2,0-0.5-0.1-0.8c-0.1-0.6-0.3-1.3-0.6-2.1c-0.4-0.8-0.7-1.4-1-1.6
		c-0.3-0.3-0.6-0.5-0.9-0.8c-0.2-0.3-0.4-0.4-0.7-0.5c-0.3-0.1-0.4-0.2-0.5-0.4c-0.3,0-0.5,0.1-0.6,0.1c-0.1,0-0.2,0-0.3,0
		c-0.1-0.1-0.4-0.1-0.7-0.2c-0.1,0.2-0.3,0.3-0.7,0.2c-0.4-0.1-0.7,0-1.1,0.1c-1.2,0.2-2.1,0.5-2.9,0.8c-0.7,0.3-1.7,0.9-2.9,1.8
		s-2.2,2-3,3.4c-0.1,0.4-0.2,0.7-0.3,0.7c-0.1,0.1-0.1,0.2-0.1,0.3c0,0.1-0.1,0.3-0.4,0.5c0,0.4-0.1,0.7-0.3,1
		c0.2,0.2,0.2,0.4,0.2,0.6c0,0.2,0,0.4-0.1,0.7c0.1,0.5,0.2,0.7,0.3,0.8s0.2,0.2,0.1,0.5c0.3,0.1,0.6,0.2,0.9,0.4
		c0.4,0,0.7,0,0.9-0.1c0.2-0.1,0.4-0.1,0.6-0.1c0.3-0.2,0.6-0.3,0.9-0.4c0.4-0.3,0.6-0.5,0.7-0.7c0.1-0.1,0.3-0.2,0.4-0.2
		c0.2,0,0.3-0.1,0.4-0.3c0.1-0.1,0.3-0.3,0.7-0.5c0.4-0.3,0.8-0.7,1.3-1.3s0.9-1,1.1-1.3c0.2-0.3,0.5-0.8,0.9-1.7
		c0.1-0.3,0.2-0.7,0.4-1c0-0.3,0-0.6,0-0.8c0-0.2-0.1-0.4-0.1-0.5s-0.1-0.4-0.1-0.7c0-0.3,0.2-0.6,0.5-0.8c0.3-0.2,0.6-0.2,1-0.1
		c0.4,0.2,0.6,0.4,0.7,0.5c0.1,0.2,0.1,0.5,0.1,1c0,0.5-0.1,1-0.2,1.6c-0.1,0.4-0.2,0.7-0.3,0.9c-0.1,0.2-0.2,0.5-0.4,0.8
		s-0.4,0.8-0.8,1.3c-0.4,0.5-0.8,1-1.2,1.4c-0.4,0.4-0.9,1-1.7,1.6c-0.8,0.7-1.5,1.3-2.4,1.9c-0.8,0.6-1.7,1-2.7,1.1
		c-0.3,0.1-0.5,0.1-0.7,0.1c-0.2,0-0.5-0.1-0.7-0.1c-0.2-0.1-0.5-0.2-0.7-0.4c-0.4-0.2-0.7-0.6-1-1c-0.3-0.4-0.5-0.9-0.5-1.5
		c0-0.6,0-1.1,0-1.7c0.1-0.4,0.1-0.7,0.1-0.8c0-0.1,0.1-0.3,0.1-0.5c0.1-0.2,0.2-0.5,0.3-0.8c0.1-0.3,0.4-0.9,0.9-1.7
		c0.2-0.4,0.4-0.7,0.6-0.8c0.2-0.2,0.3-0.4,0.3-0.5c0-0.1,0.1-0.3,0.3-0.4c0.1-0.2,0.2-0.4,0.3-0.4c0.1-0.1,0.3-0.2,0.4-0.3
		c0.1-0.1,0.3-0.3,0.5-0.3c0.2-0.3,0.3-0.4,0.5-0.5c0.2,0,0.3-0.1,0.5-0.3c0.1-0.2,0.2-0.3,0.4-0.4c0.2-0.1,0.4-0.2,0.7-0.5
		c0.3-0.2,0.7-0.4,1.2-0.7c0.5-0.3,1-0.5,1.6-0.6c0.2-0.2,0.5-0.3,0.9-0.3c0.4-0.2,1.4-0.3,2.8-0.4c0.4,0,0.8,0,1.2,0
		c0.9,0,1.5,0.1,2,0.2c0.6,0.2,1,0.4,1.2,0.5c0.2,0.1,0.5,0.3,0.8,0.7c0.3,0.2,0.5,0.4,0.6,0.5c0.1,0.2,0.4,0.5,0.8,1.1
		c0.1,0.2,0.3,0.4,0.4,0.6c0.2,0.2,0.3,0.4,0.3,0.5c0,0.1,0,0.3,0.1,0.6c0.2,0.2,0.3,0.5,0.3,0.8c0,0.3,0,0.6,0.1,0.8
		c0.2,0.2,0.2,0.4,0.1,0.8c0.1,0.3,0.2,0.6,0.1,1s-0.1,0.7-0.1,1c0.1,0.3,0,0.6-0.1,0.6c-0.1,0.1-0.2,0.3-0.3,0.5s-0.2,0.5-0.4,0.7
		c-0.1,0.3-0.1,0.5-0.1,0.6c0,0.1-0.1,0.3-0.4,0.5c-0.2,0.1-0.3,0.2-0.3,0.4c0,0.2-0.1,0.4-0.3,0.6c-0.2,0.3-0.3,0.6-0.4,0.7
		c-0.1,0.1-0.2,0.3-0.2,0.4c0,0.1-0.1,0.3-0.3,0.5c-0.1,0.3-0.2,0.5-0.4,0.6c-0.1,0.1-0.3,0.2-0.3,0.4c-0.2,0.4-0.4,0.8-0.7,1.1
		c-0.2,0.2-0.3,0.3-0.4,0.5c-0.1,0.2-0.2,0.4-0.3,0.7c-0.1,0.1-0.2,0.2-0.4,0.4c-0.1,0.1-0.2,0.2-0.4,0.4c-0.2,0.3-0.3,0.6-0.4,0.7
		c-0.1,0.1-0.3,0.2-0.7,0.2c-0.2,0.1-0.4,0.2-0.6,0.2s-0.4,0-0.6-0.2s-0.3-0.4-0.4-0.6c0-0.2,0-0.4,0-0.6c0.1-0.2,0.2-0.4,0.5-0.6
		c0.3-0.2,0.5-0.4,0.8-0.7c0.2-0.3,0.4-0.6,0.6-0.8c0.2-0.2,0.4-0.4,0.6-0.6C178,24.9,178.2,24.8,178.4,24.7z"/>
	<path class="st0" d="M204,20c-0.3,0.2-0.6,0.4-0.8,0.5c-0.2,0.1-0.5,0.3-1,0.6c-0.5,0.3-1.1,0.7-1.9,1.3c-0.8,0.6-1.7,1.2-2.7,2
		s-1.7,1.3-2.1,1.6c-0.4,0.3-0.9,0.7-1.4,1.3c-0.1,0.4-0.2,0.7-0.4,0.9c-0.2,0.2-0.4,0.3-0.6,0.4c-0.2,0.1-0.5,0.2-0.7,0.2
		c-0.3,0-0.5-0.1-0.8-0.4c-0.3-0.3-0.3-0.6-0.1-0.9c0.2-0.4,0.4-0.6,0.5-0.8c0.2-0.2,0.6-0.5,1.1-0.9c0.4-0.2,0.9-0.5,1.3-0.8
		c0.5-0.3,1.3-0.9,2.6-1.9c1.3-1,2.1-1.6,2.6-1.8c0.4-0.2,0.8-0.5,1.4-0.9c0.3-0.3,0.5-0.6,0.9-0.7c0.3-0.1,0.4-0.2,0.5-0.3
		c0.1-0.1,0.3-0.2,0.8-0.3c0.3-0.1,0.5-0.1,0.8,0.1c0.3,0.1,0.4,0.3,0.5,0.5C204.4,19.6,204.3,19.8,204,20z M198.2,18.1
		c-0.4,0-0.7-0.1-1-0.3c-0.3-0.2-0.7-0.4-1.3-0.7c-0.6-0.3-1-0.4-1.3-0.5c-0.3-0.1-0.5-0.2-0.8-0.3c-0.2-0.1-0.4-0.3-0.5-0.5
		c-0.1-0.2-0.2-0.5-0.1-0.7c0.1-0.2,0.3-0.4,0.5-0.5c0.2-0.1,0.4-0.1,0.6,0c0.2,0.1,0.4,0.1,0.7,0.2c0.3,0.3,0.6,0.4,0.8,0.4
		c0.2,0,0.4,0.1,0.6,0.2c0.2,0.1,0.4,0.3,0.6,0.5c0.4-0.1,0.6,0,0.7,0.1c0.1,0.1,0.3,0.2,0.4,0.3c0.2,0,0.4,0.1,0.6,0.3
		c0.2,0.2,0.3,0.4,0.3,0.6c0,0.2-0.1,0.4-0.3,0.6C198.7,17.9,198.5,18,198.2,18.1z M197.7,8c0.4,0.2,0.8,0.4,1.2,0.8
		c0.4,0.3,0.7,0.7,1.2,1.3c0.3,0.3,0.6,0.6,0.7,0.8s0.2,0.6,0.3,1c0.1,0.4,0.1,0.7-0.1,0.9c-0.1,0.2-0.3,0.3-0.5,0.4
		c-0.2,0.1-0.5,0.1-0.8-0.1c-0.3-0.1-0.5-0.4-0.5-0.8c-0.2-0.3-0.3-0.6-0.3-0.9c-0.1-0.2-0.2-0.5-0.4-0.7c-0.3-0.2-0.5-0.4-0.7-0.5
		c-0.2-0.1-0.4-0.2-0.7-0.4c-0.3-0.2-0.6-0.3-0.8-0.4c-0.2-0.1-0.6-0.2-1.1-0.3c-0.4,0.3-0.8,0.3-1.1,0.2c-0.3-0.1-0.5-0.3-0.6-0.4
		c-0.1-0.2-0.1-0.4,0-0.9c0.1-0.4,0.4-0.7,0.8-0.8c0.4-0.1,0.8-0.1,1.1,0c0.5,0,0.9,0.1,1.1,0.2c0.2,0.1,0.4,0.2,0.7,0.3
		C197.3,7.7,197.5,7.8,197.7,8z M215.5,14.2c0.2-0.6,0.3-1.1,0.4-1.6c0.1-0.5,0.1-1.1,0.1-1.8c-0.1-0.4-0.1-0.7-0.2-1
		c-0.1-0.2-0.1-0.5,0-0.8c0.1-0.3,0.2-0.5,0.4-0.6c0.2-0.2,0.5-0.2,0.9,0c0.3,0.2,0.5,0.4,0.6,0.6c0.1,0.2,0.1,0.5,0.2,0.6
		c0.1,0.2,0,0.5-0.1,0.8c0.1,0.3,0.1,0.6-0.1,0.9c0.1,0.3,0.2,0.5,0.1,0.7c-0.1,0.1-0.1,0.3-0.1,0.4c0,0.2,0,0.3-0.1,0.5
		s-0.1,0.5-0.1,1.2c2,0,3.2,0,3.7,0s1,0,1.6,0c0.5,0,1.1,0.1,1.6,0.1c0.2,0.1,0.5,0.1,0.7,0c0.3-0.1,0.5-0.1,0.9,0
		c0.3,0.1,0.5,0.3,0.6,0.7s0.1,0.7,0,0.9c-0.1,0.2-0.3,0.3-0.5,0.4c-0.2,0.1-0.5,0.1-0.8,0.2c-0.6-0.2-1.1-0.4-1.5-0.5
		c-0.4-0.1-0.7-0.2-1-0.3c-0.4,0.1-0.8,0-1.1-0.1c-0.4,0-0.7,0.1-0.8,0.1c-0.2,0-0.3,0-0.5-0.2c-0.3,0.2-0.6,0.2-0.8,0.1
		c-0.2-0.1-0.5-0.2-0.9-0.2c-0.4,0-0.9,0-1.5,0c-0.2,0.5-0.3,0.9-0.3,1.1c0,0.2-0.1,0.4-0.3,0.5c0,0.3,0,0.6-0.1,0.8
		c0,0.2-0.1,0.4-0.2,0.5c-0.1,0.1-0.2,0.3-0.2,0.5s-0.1,0.4-0.2,0.6c-0.1,0.2-0.2,0.5-0.4,1c-0.2,0.3-0.3,0.7-0.5,1
		c0.4-0.1,0.7-0.1,0.9-0.1c0.2,0,0.4,0,0.8,0s0.8,0,1.2-0.1c0.4-0.1,0.8,0,1.4,0.1l1,0.1c0.2,0,0.5,0.2,0.9,0.4
		c0.3,0.2,0.6,0.5,0.7,0.7c0.2,0.2,0.3,0.5,0.4,0.7c0.1,0.2,0.2,0.5,0.2,0.8s0,0.7-0.2,1.2c-0.2,0.5-0.4,0.8-0.4,0.9
		s-0.2,0.3-0.4,0.5c-0.2,0.2-0.3,0.4-0.6,0.8c-0.2,0.4-0.6,0.8-1.2,1.2c0.7,0,1.3,0,1.8,0c0.5,0,0.8,0,1,0c0.2,0,0.4,0.1,0.5,0.3
		c0.2,0.2,0.3,0.4,0.3,0.7c0,0.3-0.1,0.5-0.2,0.6c-0.1,0.2-0.3,0.2-0.6,0.2c-0.2,0-0.5,0-0.7,0c-0.2,0-0.4-0.1-0.7-0.3
		c-0.4,0.1-0.8,0-1.3-0.1c0-0.1-0.1,0-0.2,0c-0.1,0.1-0.4,0-0.9-0.1c-0.4,0.1-0.8,0.2-1.2,0.4c-0.2,0.2-0.5,0.3-0.8,0.4
		s-0.6,0.2-0.8,0.3c-0.2,0.1-0.4,0.2-0.7,0.2c-0.2,0.1-0.5,0.1-0.6,0.2c-0.2,0.1-0.4,0-0.6-0.1c-0.2-0.1-0.4-0.4-0.6-0.8
		c-0.4,0.1-0.8,0.2-0.9,0.3c-0.2,0.1-0.5,0.1-1.1,0c-0.2-0.1-0.4-0.3-0.6-0.5c-0.2-0.2-0.3-0.4-0.2-0.7c0-0.3,0.1-0.5,0.3-0.6
		c0.1-0.1,0.4-0.2,0.6-0.3c0.4-0.2,0.8-0.2,1.3-0.2c0.5,0,1.4,0,2.6,0.1c0.5,0,0.9,0,1.2-0.2c0.3-0.1,0.7-0.3,1.1-0.5
		c0.6-0.4,1.2-0.8,1.6-1.3c0.4-0.5,0.8-0.9,1-1.2c0.2-0.3,0.4-0.7,0.4-1.2c-0.1-0.5-0.2-0.8-0.4-0.9c-0.2-0.1-0.6-0.3-1.4-0.4
		c-0.3-0.1-0.6-0.1-0.8-0.1s-0.6,0-1.2-0.1c-0.4,0.2-0.7,0.3-0.9,0.2c-0.2-0.1-0.5-0.1-0.8,0c-0.3,0.1-0.6,0.2-1.1,0.3
		s-0.9,0.3-1.3,0.6c-0.3,0.4-0.7,0.7-1,0.7c-0.4,0.1-0.7-0.1-0.8-0.4c-0.2-0.3-0.3-0.6-0.2-0.8c0-0.2,0.1-0.4,0.3-0.7
		c0.2-0.3,0.4-0.4,0.7-0.5c0.2-0.2,0.5-0.3,0.8-0.4c-0.1-0.2,0-0.5,0.1-0.8c0.4-0.4,0.6-0.8,0.7-1c0.1-0.2,0.3-0.5,0.4-0.8
		c0.2-0.3,0.4-0.9,0.7-1.8c0.3-0.9,0.5-1.6,0.6-2.2c-0.3,0-0.7,0.1-1.1,0.1c-0.4,0-0.9,0-1.4,0c-0.5,0.1-1.2,0.1-2,0.1
		c-0.4,0.1-0.7,0.2-0.9,0.2c-0.2,0-0.4,0.1-0.6,0.1c-0.2,0.1-0.4,0.1-0.7,0.1c-0.4,0.1-0.7,0.1-0.8,0.2c-0.1,0.1-0.3,0.1-0.6,0
		c-0.4,0.3-0.8,0.5-1.2,0.7c0.1,0.6,0.1,0.9-0.2,1.1c-0.3,0.1-0.6,0.2-0.9,0.1c-0.3-0.1-0.6-0.2-0.7-0.4c-0.3-0.5-0.3-0.9-0.1-1.3
		c0.2-0.4,0.5-0.7,0.9-0.8c0.4-0.2,0.9-0.3,1.4-0.5c0.5-0.1,1.4-0.3,2.6-0.5c1.3-0.2,2.1-0.3,2.5-0.3c0.4,0,1.1-0.1,2-0.1
		C214.5,14.2,215.1,14.2,215.5,14.2z M209,23.6c-0.1,0.4-0.2,0.7-0.2,0.9c-0.1,0.2-0.1,0.5-0.2,0.9s-0.1,0.7-0.1,1c0,0.3,0,0.6,0,1
		s0,0.6,0.1,0.8c0.1,0.2,0.1,0.5,0,0.9c0.1,0.2,0.3,0.4,0.5,0.5c0.2,0.1,0.4,0.3,0.7,0.5c0.4,0.3,0.6,0.6,0.6,0.9
		c0,0.3-0.1,0.5-0.4,0.7c-0.3,0.2-0.7,0.2-1.3,0.1c-0.3-0.3-0.7-0.7-1-1.2c-0.3-0.5-0.5-1-0.6-1.4c-0.1-0.5-0.1-1-0.2-1.5
		c0.1-0.6,0.1-1.1,0.2-1.5c0-0.4,0.1-1,0.1-1.8c0.1-0.5,0.2-1,0.2-1.4c0.1-0.4,0.2-0.9,0.4-1.4c0.1-0.5,0.2-0.8,0.3-1.1
		c0.1-0.2,0.3-0.5,0.6-0.6c0.3-0.2,0.6-0.2,1-0.1c0.4,0.1,0.6,0.3,0.7,0.6c0.1,0.3,0,0.6-0.3,0.9c-0.3,0.3-0.5,0.6-0.7,1.1
		C209.2,22.9,209.1,23.3,209,23.6z M218.9,4.4c-0.4,0.2-0.7,0.3-1,0.3c-0.3,0-0.5,0.1-0.8,0.3c-0.3,0.3-0.6,0.5-0.9,0.6
		c-0.3,0.1-0.8,0.4-1.3,0.8c-0.5,0.4-1,0.7-1.3,0.8c-0.3,0.4-0.5,0.6-0.7,0.6s-0.3,0.1-0.4,0.3c-0.1,0.1-0.2,0.3-0.3,0.4
		c-0.1,0.1-0.3,0.2-0.6,0.3c-0.2,0.4-0.5,0.6-0.9,0.7c-0.2,0.3-0.4,0.5-0.5,0.6c-0.2,0.2-0.4,0.3-0.6,0.4c-0.3,0.3-0.6,0.6-0.7,0.8
		c-0.1,0.2-0.3,0.3-0.4,0.4c-0.2,0.1-0.4,0.2-0.5,0.2c-0.2,0-0.4-0.1-0.6-0.3c-0.3-0.2-0.4-0.4-0.4-0.6s0.1-0.4,0.2-0.6
		c0.1-0.2,0.4-0.5,0.6-0.7c0.3-0.3,0.9-0.8,1.9-1.6s2.1-1.6,3.3-2.3s2.4-1.6,3.5-2.4c0.4-0.2,0.8-0.3,1.1-0.5c0.6-0.3,1-0.5,1.3-0.5
		c0.4,0,0.6,0,0.8,0.1c0.2,0.1,0.4,0.3,0.5,0.4c0.1,0.2,0.2,0.5,0.2,0.8c0,0.4-0.1,0.6-0.4,0.7C219.8,4.7,219.4,4.7,218.9,4.4z"/>
	<path class="st0" d="M242.8,9.1c0-1.1,0.1-1.8,0.1-2.3c0-0.4,0.1-0.7,0.4-0.8c0.3-0.1,0.6-0.1,0.9,0.1c0.3,0.2,0.4,0.4,0.5,0.6
		c0,0.2,0,0.4,0,0.5c-0.1,0.1-0.1,0.7-0.3,1.7c0.7-0.1,1.1-0.1,1.4-0.1s0.7,0,1.2,0c0.5,0,1,0,1.5,0c0.5,0,1,0,1.5,0.1
		c0.5,0.1,0.8,0.4,1,0.9c0.2,0.3,0.2,0.6-0.1,0.8c-0.3,0.2-0.6,0.3-0.9,0.3c-0.2,0-0.4,0-0.5,0.1c-0.2,0.1-0.3,0.1-0.5,0.2
		c-0.2,0-0.4,0-0.6-0.1c-0.4,0.2-0.7,0.2-0.9-0.1c-0.2-0.2-0.3-0.6-0.3-0.9c-0.5,0-1-0.1-1.4-0.1c-0.4,0-0.9,0-1.5,0.2
		c0,0.3-0.1,0.8-0.2,1.4c-0.1,0.6-0.2,1.1-0.2,1.5c0.5-0.1,1-0.2,1.6-0.2c0.5,0,0.9,0.1,1.1,0.1s0.4,0.1,0.7,0.1
		c0.3,0.1,0.6,0.2,0.8,0.5c0.4,0.2,0.7,0.4,0.8,0.8c0.1,0.4,0.2,0.8,0.3,1.3c0,0.7-0.1,1-0.2,1.2c-0.1,0.1-0.2,0.3-0.2,0.5
		c-0.1,0.2-0.1,0.4-0.2,0.5c-0.1,0.2-0.2,0.3-0.3,0.5c-0.1,0.4-0.2,0.7-0.4,1c-0.2,0.3-0.4,0.6-0.6,1c-0.2,0.4-0.4,0.8-0.6,1.2
		c-0.3,0.7-0.5,1.1-0.7,1.2c-0.2,0.2-0.3,0.3-0.4,0.5c-0.2,0.2-0.4,0.3-0.6,0.4c-0.2,0.1-0.4,0-0.7,0c-0.2-0.1-0.4-0.2-0.4-0.5
		c-0.1-0.2,0-0.5,0.1-0.7c0.2-0.2,0.3-0.4,0.4-0.7c-0.3,0.1-0.7,0.2-1,0.3c-0.3,0.1-0.6,0.3-1,0.3c-0.1,0.6-0.3,1.4-0.4,2.3
		c0.4,0,0.6,0,0.8-0.1c0.2,0,0.5,0,0.9,0c0.3,0,0.5,0.1,0.7,0.1c0.1,0,0.3,0.1,0.6,0.2c0.2,0.1,0.4,0.3,0.5,0.5
		c0.1,0.2,0.1,0.5-0.1,0.8c-0.2,0.3-0.4,0.5-0.6,0.5c-0.2,0-0.4-0.1-0.5-0.2s-0.3-0.2-0.7-0.1c-0.2-0.1-0.5-0.1-0.8-0.1
		c-0.3,0-0.7,0.1-1.2,0.2c-0.1,0.5-0.2,0.8-0.2,1.1c0,0.3,0,0.6-0.1,1c0.4-0.1,1.4-0.4,3-0.7l0.9-0.2c0.2-0.1,0.5-0.1,1-0.2
		c0.3-0.2,0.6-0.4,1-0.4c0.3-0.1,0.6,0,0.9,0.3c0.2,0.2,0.3,0.5,0.3,0.6c-0.1,0.2-0.2,0.3-0.4,0.5c-0.2,0.1-0.5,0.3-0.9,0.4
		c-0.4,0.2-1.2,0.4-2.5,0.6s-2.2,0.5-2.8,0.7c-0.3-0.1-0.6,0-0.7,0.1c-0.1,0.1-0.3,0.2-0.6,0.3c-0.3,0.1-1,0.2-1.9,0.5
		c-0.9,0.2-1.4,0.4-1.7,0.6c-0.3,0.2-0.5,0.4-0.7,0.6c-0.3,0.3-0.6,0.4-0.8,0.2c-0.3-0.2-0.5-0.4-0.7-0.6c-0.2-0.3-0.2-0.5-0.2-0.7
		c0.3-0.3,0.6-0.6,1-0.8c0.4-0.2,0.8-0.3,1.2-0.4c0.4-0.1,0.8-0.2,1.3-0.3c0.5-0.1,1-0.3,1.4-0.5c0.2-0.2,0.3-0.5,0.3-0.9
		c0.1-0.4,0.1-0.9,0.3-1.5c-0.5,0.1-0.9,0.3-1,0.5c-0.2,0.2-0.3,0.3-0.5,0.4c-0.2,0.1-0.4,0.1-0.6-0.1c-0.2-0.1-0.4-0.3-0.4-0.5
		c-0.1-0.2,0-0.5,0.1-0.8c0.3-0.3,0.5-0.5,0.8-0.6c0.2-0.1,0.5-0.2,0.9-0.3c0.3-0.1,0.7-0.1,1.2-0.2c0.2-0.7,0.3-1.4,0.4-2.1
		c-0.7,0.3-1.4,0.5-2.2,0.7c-0.2,0.1-0.3,0.2-0.4,0.3s-0.3,0.2-0.5,0.1c-0.2,0-0.6-0.1-0.9-0.3c-0.4-0.1-0.7-0.4-0.9-0.7
		c-0.4-0.5-0.6-1-0.8-1.5c-0.2-0.5-0.3-1.1-0.3-1.6c-0.1-0.6-0.1-1.1-0.1-1.7c0-0.8,0-1.6,0.1-2.4c0.1-0.8,0.3-1.6,0.6-2.4
		c0.2-0.3,0.4-0.5,0.5-0.5c0.2-0.1,0.4-0.1,0.7-0.1c0.3,0,0.5,0.1,0.6,0.4c0.1,0.2,0.2,0.5,0.2,0.7c0,0.2-0.2,0.4-0.4,0.5
		c-0.2,0.1-0.4,0.3-0.5,0.6c0,0.1-0.1,0.3-0.2,0.4c-0.1,0.1-0.1,0.3-0.1,0.4c-0.1,0.3-0.2,0.7-0.2,1s0,0.6,0.1,0.9
		c-0.1,0.4-0.1,1,0,1.6c0.1,0.3,0.1,0.5,0.2,0.7c0,0.2,0.1,0.4,0.1,0.6c0.1,0.2,0.2,0.5,0.4,0.9l0.8,0.7c0.2-0.2,0.5-0.4,1.1-0.5
		c0.7-0.1,1.2-0.2,1.4-0.3c0.3-0.1,0.6-0.2,1.1-0.4c0.1-0.5,0.2-0.9,0.2-1c0-0.1,0-0.5,0.1-1c-0.5-0.1-1.1,0-1.6,0.1
		c-0.3,0.5-0.6,0.8-0.8,0.9c-0.2,0.1-0.6-0.1-1.1-0.4c-0.5-0.3-0.5-0.8,0.1-1.4c0.1-0.2,0.3-0.3,0.5-0.4c0.2,0,0.4-0.1,0.6-0.1
		c0.3-0.1,0.7-0.2,1-0.2c0.4,0,0.9-0.1,1.4-0.2c0.1-0.3,0.2-0.6,0.2-1c0-0.4,0.1-0.8,0.3-1.4c-0.5,0-0.9,0-1.1,0.1
		c-0.2,0.1-0.4,0.1-0.5,0.2c-0.2,0-0.4,0.1-0.7,0.2c-0.3,0.1-0.5,0.3-0.6,0.4c-0.1,0.2-0.2,0.4-0.4,0.6c-0.5,0.3-0.9,0.3-1.2,0
		c-0.3-0.3-0.5-0.5-0.4-0.8c0.1-0.3,0.3-0.6,0.5-0.8c0.2-0.2,0.4-0.4,0.7-0.4c0.2-0.2,0.5-0.3,0.7-0.4c0.2-0.1,0.5-0.2,0.8-0.3
		c0.3-0.1,1.1-0.2,2.2-0.4l0.3-1.4c0.1-0.3,0.1-0.9,0.2-1.7c-0.9,0-1.8,0.1-2.7,0.3c-0.9,0.2-1.7,0.3-2.3,0.4
		c-0.4,0.2-0.7,0.3-1.1,0.3c-0.2,0.1-0.3,0.1-0.5,0.1c-0.2,0-0.3,0-0.4,0.1c-0.1,0.1-0.3,0.1-0.7,0.1c-0.2,0.2-0.4,0.3-0.7,0.3
		c-0.2,0.1-0.4,0.2-0.6,0.3c-0.2,0.1-0.4,0.2-0.5,0.2c-0.1,0.1-0.4,0.1-0.7,0.3s-0.5,0.3-0.7,0.4c-0.1,0.2-0.3,0.3-0.6,0.5
		c-0.3,0.3-0.5,0.5-0.8,0.4c-0.3-0.1-0.5-0.3-0.7-0.6c-0.2-0.4-0.2-0.7,0-0.9c0.2-0.2,0.5-0.5,0.9-0.7c0.4-0.2,0.9-0.4,1.5-0.6
		c0.6-0.2,1.2-0.4,1.8-0.6c1.4-0.4,2.9-0.7,4.3-0.9S241.3,9.3,242.8,9.1z M244,3.8c-1.5,0.7-3,1.6-4.4,2.7c-1.4,1.1-2.6,1.9-3.6,2.6
		c-0.5,0.3-0.8,0.4-1,0.3c-0.2-0.1-0.3-0.3-0.4-0.6c-0.1-0.3,0-0.6,0.4-0.9c0.7-0.5,1.3-0.9,1.6-1.1c0.1-0.2,0.2-0.4,0.4-0.4
		c0.2-0.1,0.4-0.1,0.5-0.3c0.1-0.1,0.3-0.2,0.6-0.4c0.3-0.3,0.6-0.5,1-0.7c0.3-0.3,0.6-0.6,0.9-0.7c0.2-0.1,0.5-0.3,0.8-0.5
		c0.2-0.2,0.4-0.4,0.7-0.5c0.3-0.1,0.5-0.2,0.6-0.3c0.1-0.1,0.4-0.2,0.8-0.4c0.4-0.2,1-0.6,1.6-1c0.4-0.3,0.9-0.4,1.4-0.4
		c0.4,0,0.6,0.1,0.8,0.2c0.2,0.1,0.3,0.3,0.4,0.5c0.1,0.3,0.1,0.5-0.1,0.7c-0.2,0.2-0.3,0.3-0.5,0.4c-0.2,0.1-0.4,0.1-0.5,0.1
		s-0.5,0-1,0.2C244.6,3.5,244.2,3.6,244,3.8z M246.1,14.8c-0.3-0.1-0.6-0.2-1-0.2c-0.4,0-0.9,0-1.5,0.1c-0.1,0.4-0.1,0.9-0.2,1.3
		c-0.1,0.5-0.2,1-0.3,1.5c0.5,0.1,1,0,1.6-0.1c0.4,0.2,0.7,0.3,0.9,0.5c0.1,0.2,0.1,0.4,0,0.7c-0.1,0.3-0.2,0.4-0.4,0.5
		c-0.1,0.1-0.3,0.1-0.5,0.1c-0.2,0-0.5,0-0.8-0.1c-0.3,0-0.6,0-1,0.1c0.1,0.2,0,0.5-0.1,0.8c-0.1,0.3-0.2,0.6-0.3,0.8
		c0.7-0.1,1.1-0.3,1.3-0.4c0.3-0.2,0.5-0.2,0.8-0.3c0.3,0,0.6,0.1,0.8,0.3c0.3-0.3,0.6-0.7,0.7-1s0.3-0.6,0.4-0.8
		c0.1-0.2,0.3-0.4,0.4-0.8c0.2-0.4,0.3-0.8,0.4-1.1c0.1-0.4,0.1-0.7,0-1c-0.1-0.3-0.2-0.5-0.5-0.7C246.7,14.9,246.4,14.8,246.1,14.8
		z M257.2,14.4l0.7-1.4c0.1-0.3,0.5-1.5,1.2-3.6c0.1-0.3,0.1-0.5,0.1-0.8c0-0.2,0.1-0.5,0.1-0.8c0-0.3,0.1-0.5,0.2-0.8
		c0.1-0.3,0.2-0.5,0.4-0.6c0.2-0.1,0.3-0.1,0.5-0.1c0.2,0,0.4,0.1,0.5,0.2c0.2,0.2,0.3,0.3,0.4,0.4c0.1,0.1,0.1,0.4,0.2,0.8
		c-0.1,0.5-0.2,0.8-0.2,1c0,0.2-0.1,0.4-0.4,0.8c-0.2,0.4-0.4,0.7-0.4,0.9c0,0.2-0.2,0.5-0.3,0.9c-0.2,0.5-0.4,0.9-0.5,1.1
		c-0.1,0.2-0.3,0.8-0.6,1.6c1.4-0.2,2.5-0.4,3.3-0.5c0.8-0.1,1.7-0.1,2.6-0.1c1.1,0.2,1.7,0.6,2,1.2s0.4,1.1,0.4,1.6
		c-0.1,0.5-0.2,0.9-0.3,1.2c-0.1,0.2-0.3,0.5-0.4,0.9c-0.2,0.3-0.4,0.7-0.5,1.1c-0.2,0.4-0.8,1.4-2,3.1c-1.2,1.7-2.5,3.2-3.9,4.5
		c-0.4,0.3-0.8,0.6-1.2,0.9c-0.4,0.3-0.8,0.5-1.2,0.7c-0.4,0.2-0.8,0.3-1.2,0.3c-0.4,0-0.8-0.1-1-0.3c-0.2-0.2-0.5-0.4-0.7-0.8
		c-0.2-0.4-0.4-0.9-0.6-1.4l-0.7-2.3c-2.2,2.9-4.3,6-6.3,9.1c-0.1,0.3-0.3,0.4-0.5,0.4c-0.3,0-0.5,0-0.8-0.2
		c-0.2-0.1-0.4-0.3-0.4-0.5s0-0.4,0.2-0.6c0.1-0.2,0.3-0.4,0.4-0.6c0.2-0.3,0.3-0.6,0.5-0.6c0.2-0.1,0.4-0.3,0.7-0.7
		c1.7-2.1,3-3.9,4-5.3c1-1.4,1.6-2.3,1.8-2.7c-0.2-0.7-0.3-1.1-0.3-1.3c0-0.2,0-0.4,0.1-0.6c0.1-0.2,0.3-0.3,0.6-0.3
		c0.3,0,0.5,0.1,0.7,0.2c0.5-0.8,0.9-1.5,1.2-2.1s0.6-1.3,0.8-2c-0.4,0-0.7,0-1,0.1c-0.3,0.1-0.5,0.2-0.8,0.3
		c-0.2,0.1-0.4,0.1-0.6,0.2c-0.2,0.2-0.4,0.3-0.6,0.3c-0.2,0-0.4,0-0.5,0.1c-0.1,0.1-0.3,0.2-0.6,0.3c0,0.4-0.1,0.6-0.2,0.6
		c-0.1,0-0.3,0.1-0.4,0.3c-0.2,0.1-0.4,0.1-0.7,0c-0.3-0.1-0.5-0.3-0.6-0.5c-0.2-0.3-0.2-0.5-0.2-0.8c0-0.2,0-0.4,0.2-0.5
		c0.2-0.2,0.5-0.4,0.9-0.6c0.6-0.2,1.1-0.4,1.7-0.5c0.6-0.2,1.3-0.4,2.1-0.5C256,14.7,256.7,14.6,257.2,14.4z M258.2,26.8
		c0.1-0.2,0.4-0.4,0.9-0.5c0.5-0.4,1.3-1.2,2.1-2.2c0.9-1.1,1.8-2.4,2.8-4c0.2-0.2,0.3-0.3,0.4-0.5c0.1-0.2,0.3-0.5,0.5-0.9
		c0-0.4,0.1-0.7,0.3-0.8c0.2-0.4,0.3-0.6,0.4-0.8c0.1-0.2,0.1-0.4,0.2-0.7c0.1-0.3,0-0.5-0.1-0.8c-0.1-0.3-0.4-0.4-0.9-0.5
		c-0.3,0.1-0.5,0.1-0.8-0.1c-0.3,0.2-0.6,0.3-0.7,0.2c-0.2-0.1-0.5-0.1-1,0c-0.2,0.1-0.4,0.2-0.5,0.1c-0.2-0.1-0.4-0.1-0.9,0
		c-0.1,0.2-0.3,0.2-0.4,0.2c-0.2-0.1-0.4,0-0.6,0c-0.2,0.1-0.4,0.2-0.7,0.2c-0.3,0-0.6,0.1-0.8,0.2c-0.3,0.4-0.6,0.9-1,1.7
		c-0.4,0.8-0.8,1.6-1.2,2.3c-0.4,0.8-0.8,1.4-1.1,2c0.2,0.7,0.3,1.4,0.4,2c0.1,0.7,0.2,1.3,0.4,1.8c0,0.4,0.1,0.6,0.2,0.7
		c0.1,0.1,0.2,0.3,0.3,0.7c0.1,0.2,0.3,0.3,0.6,0.3C257.1,27.5,257.6,27.3,258.2,26.8z"/>
	<path class="st0" d="M276.1,20.9c-0.7,0-1.3,0-1.6,0c-0.3,0-0.6-0.1-0.7-0.4s-0.3-0.5-0.3-0.8s0-0.5,0.1-0.7
		c0.1-0.2,0.3-0.4,0.7-0.6c0.5-0.2,0.9-0.4,1.4-0.6c0.5-0.2,0.8-0.4,0.9-0.5c0.2-0.1,0.4-0.2,0.6-0.3c0.2-0.1,0.4-0.1,0.6-0.2
		c0.2-0.1,0.4-0.2,0.5-0.2c0.2-0.3,0.5-0.5,0.9-0.5c0.2-0.2,0.4-0.3,0.7-0.4c0.5-1.5,0.9-2.5,1.2-3.1c0.2-0.6,0.5-1.2,0.8-1.9
		c-0.5-0.1-0.8-0.2-1-0.2c-0.2,0-0.5-0.1-0.9-0.2c-0.3,0.2-0.5,0.2-0.6,0.1c-0.1-0.1-0.3-0.1-0.6-0.1c-0.3,0-0.5,0-0.8,0s-0.6,0-1,0
		c-0.5,0.1-0.9,0.1-1.1,0.3c-0.3,0.1-0.5,0.1-0.8,0c-0.2-0.1-0.4-0.3-0.4-0.4s-0.1-0.4-0.1-0.6c0-0.2,0.1-0.5,0.2-0.7
		c0.2-0.2,0.5-0.3,0.9-0.4c0.4-0.1,0.8-0.1,1.2-0.1c0.5,0.1,0.9,0.1,1.1,0.2c0.2,0.1,0.5,0.1,0.7,0c0.2,0,0.4,0,0.7,0.1
		c0.4,0,0.9,0.1,1.7,0.2c0.5,0.1,1.1,0.2,1.6,0.2c0.2-0.3,0.4-0.7,0.5-1.2c0.2-0.5,0.4-0.9,0.6-1.2c0.2-0.6,0.3-1.1,0.6-1.5
		c0.2-0.4,0.5-0.5,0.8-0.5c0.3,0,0.5,0.2,0.8,0.4c0.4,0.4,0.6,0.7,0.5,1.1c-0.1,0.4-0.2,0.6-0.3,0.8c-0.1,0.1-0.3,0.3-0.4,0.4
		c-0.1,0.2-0.3,0.5-0.5,0.9c-0.2,0.4-0.4,0.7-0.6,1.1c0.4,0.1,0.8,0.1,1,0.2s0.4,0.1,0.6,0.2c0.2,0,0.6,0.2,1.2,0.6
		c0.3,0.3,0.4,0.6,0.5,0.7c0.1,0.2,0.1,0.5,0.1,0.9s-0.1,0.8-0.4,1.1c-0.2,0.2-0.4,0.4-0.5,0.5c-0.2,0.2-0.3,0.3-0.5,0.4
		c-0.1,0.1-0.4,0.2-0.8,0.5c-0.4,0.2-0.8,0.4-1.1,0.6c-0.2,0.2-0.4,0.3-0.6,0.4c-0.2,0.1-0.4,0.1-0.6,0.2c-0.2,0.1-0.5,0.2-0.9,0.4
		c-0.1,0.2-0.5,0.4-1,0.5c-0.2,0.7-0.4,1.1-0.5,1.4c-0.1,0.3-0.3,0.7-0.3,1.1c0.6,0,1.3-0.1,2.3-0.2c1-0.1,1.7-0.3,2.2-0.4
		c0.5-0.1,0.9-0.2,1.2-0.3c0.3-0.1,0.7-0.2,1.4-0.5c0.4-0.3,0.7-0.4,1-0.3c0.3,0.1,0.5,0.3,0.6,0.5c0.1,0.3,0.1,0.5,0,0.7
		c-0.1,0.2-0.3,0.4-0.7,0.5c-0.5,0.2-1.2,0.4-2.1,0.5c-0.8,0.2-1.5,0.3-1.9,0.4c-0.4,0.1-0.9,0.2-1.2,0.2c-0.4,0-1,0.1-1.7,0.2
		c-0.4,0.1-0.9,0.1-1.4,0.2c-0.1,0.4-0.2,0.7-0.2,1c0,0.2-0.1,0.6-0.2,1c-0.1,0.4-0.2,1.1-0.3,2c0,0.5,0.1,1,0.2,1.6
		c0.1,0.6,0.4,1.1,0.7,1.5c0.3,0.4,0.8,0.7,1.3,0.8c0.4,0.1,0.9,0.1,1.5-0.1s1.4-0.6,2.4-1.1c0.9-0.6,1.8-1.2,2.6-1.9
		c0.8-0.7,1.6-1.4,2.5-2.2c0.8-0.8,1.4-1.3,1.8-1.7c0.3-0.3,0.6-0.5,0.9-0.6c0.3-0.1,0.6-0.1,0.9,0.1c0.3,0.2,0.5,0.4,0.5,0.7
		c0,0.3-0.1,0.6-0.3,0.7c-0.2,0.2-0.4,0.4-0.8,0.6c-0.1,0.3-0.4,0.4-0.9,0.4c-0.1,0.4-0.4,0.7-0.7,0.8c-0.3,0.3-0.6,0.6-0.8,0.8
		c-0.3,0.2-0.5,0.4-0.7,0.5c-0.2,0.1-0.4,0.3-0.6,0.5c-0.2,0.2-0.5,0.4-0.8,0.6c-0.3,0.4-0.7,0.6-1.1,0.7c-0.2,0.2-0.5,0.5-0.9,0.8
		c-0.4,0.3-0.9,0.5-1.3,0.8c-0.3,0.2-0.5,0.3-0.6,0.3c-0.1,0-0.4,0.1-0.7,0.2c-0.2,0.2-0.6,0.3-1,0.3c-0.4,0.1-0.8,0.2-1.2,0.2
		c-0.4,0-0.7-0.1-1.1-0.2c-0.6-0.2-1-0.4-1.3-0.7c-0.3-0.3-0.6-0.6-0.8-1c-0.2-0.4-0.4-0.8-0.5-1.1c-0.2-0.7-0.2-1.4-0.2-2.1
		s0.1-1.3,0.2-2.1c0.1-0.7,0.3-1.4,0.4-2.1c-0.5,0-0.9,0-1.1,0S276.7,20.9,276.1,20.9z M276.6,19.2c0.4-0.1,0.8-0.1,1,0s0.7,0,1.2,0
		c0.1-0.5,0.3-1.1,0.4-1.5c-0.4,0.3-0.8,0.4-1,0.5C278,18.3,277.5,18.7,276.6,19.2z M284.4,13.3c0.5-0.3,0.9-0.6,1.4-0.9
		c0.2-0.3,0.2-0.5,0.1-0.6c-0.1-0.1-0.2-0.3-0.4-0.4c-0.2-0.1-0.4-0.2-0.6-0.3c-0.3-0.1-0.6-0.1-1.1-0.3c-0.4,0.7-0.7,1.3-0.9,1.8
		c-0.2,0.5-0.4,0.9-0.4,1.1c-0.1,0.2-0.2,0.5-0.4,0.8c0.7-0.3,1.1-0.6,1.2-0.7C283.5,13.7,283.9,13.5,284.4,13.3z"/>
	<path class="st0" d="M303.5,24.1c0.4,0.7,0.7,1.1,0.9,1.5c0.3,0.2,0.5,0.3,0.5,0.5c0.1,0.2,0.2,0.4,0.4,0.6
		c0.2,0.2,0.3,0.5,0.4,0.6c0.1,0.2,0.2,0.4,0.4,0.7c0.2,0.3,0.4,0.6,0.5,0.7c0.1,0.2,0.2,0.3,0.4,0.5c0.1,0.1,0.3,0.3,0.5,0.5
		c0.3,0.4,0.4,0.8,0.4,0.9c0,0.2-0.1,0.4-0.1,0.5c-0.1,0.2-0.2,0.3-0.4,0.4c-0.2,0.1-0.4,0.2-0.4,0.2c-0.1,0-0.3,0-0.5-0.2
		c-0.2-0.1-0.4-0.3-0.5-0.5s-0.2-0.5-0.4-0.7c-0.2-0.3-0.4-0.6-0.6-0.9s-0.4-0.6-0.6-0.9c-0.2-0.3-0.5-0.9-1.1-1.7
		c-0.5-0.8-1.1-1.4-1.7-1.9c-0.3-0.3-0.5-0.6-0.6-0.8c-0.1-0.2,0-0.4,0.1-0.7c0.1-0.3,0.4-0.5,0.9-0.6c0.2,0.1,0.4,0.1,0.5,0.2
		c0.1,0,0.2,0.1,0.4,0.3C303,23.5,303.2,23.7,303.5,24.1z"/>
	<path class="st0" d="M13.5,58.8c0,0.4-0.1,0.8-0.2,1C13.1,60,13,60.3,13,60.6s-0.2,0.7-0.4,1.1c-0.1,0.5-0.1,0.8-0.1,1
		c0,0.2,0,0.4-0.1,0.6c-0.1,0.2-0.1,0.4-0.2,0.6c-0.1,0.2-0.2,0.4-0.3,0.7c0,0.6-0.1,1.3-0.2,2c-0.1,0.4-0.2,0.7-0.3,1
		c0.3,0,0.5,0.2,0.7,0.4c0.2,0.3,0.2,0.5,0.1,0.8c-0.1,0.3-0.4,0.5-0.9,0.9c-0.2,0.4-0.3,0.8-0.4,1.1c0,0.6,0,1-0.1,1.3
		s-0.2,0.8-0.5,1.6c0,0.2-0.1,0.4-0.1,0.7c0,0.3-0.2,0.5-0.3,0.8c0,0.2,0,0.4,0,0.6c0,0.2,0,0.4-0.1,0.7c-0.1,0.2-0.1,0.5-0.1,0.8
		c-0.1,0.7-0.2,1.5-0.3,2.2c-0.1,0.9-0.1,1.6,0,2.1c0.1,0.5,0.1,1.2,0.1,1.9c0.2,0.3,0.3,0.6,0.4,0.7c0.1,0.1,0.2,0.4,0.2,0.7
		c0,0.3,0,0.7-0.2,1c-0.2,0.5-0.5,0.8-0.8,0.8c-0.4,0-0.7-0.1-0.9-0.3c-0.2-0.4-0.3-0.8-0.3-1.2c-0.1-0.4-0.1-0.9-0.1-1.7
		c0-0.8,0.1-2,0.4-3.6c0.2-1.6,0.4-3.2,0.6-4.7c0.2-1.4,0.5-2.9,0.7-4.3c-0.4,0.2-0.9,0.6-1.7,1.1C7.1,72.4,6.2,73.1,5,74
		c-1.1,0.9-2.1,1.6-2.9,2.3c-0.4,0.3-0.6,0.4-0.8,0.5c-0.2,0.1-0.4,0-0.7-0.1c-0.3-0.2-0.5-0.4-0.6-0.8s0-0.7,0.3-1
		c0.5-0.4,0.9-0.6,1.2-0.7c0.4-0.1,0.8-0.3,1.2-0.6c0.4-0.3,0.8-0.6,1.3-0.8c0.6-0.5,1.5-1.1,2.5-1.8c1-0.7,2.2-1.5,3.5-2.6
		c0.2-1.2,0.5-2.6,0.7-4.3c0.5-2.8,1.2-5.9,2.2-9.1c0.2-0.9,0.6-1.7,1.2-2.5c0.2-0.1,0.4-0.2,0.6-0.2c0.3,0.1,0.5,0.1,0.6,0.2
		c0.1,0.1,0.3,0.3,0.4,0.5s0.2,0.5,0,0.8c-0.1,0.3-0.3,0.4-0.4,0.6s-0.3,0.3-0.5,0.5c-0.1,0.2-0.2,0.5-0.2,0.7
		c0,0.2-0.1,0.4-0.3,0.5c-0.2,0.1-0.3,0.3-0.3,0.5c0,0.2-0.1,0.4-0.3,0.7c-0.1,0.3-0.2,0.6-0.2,0.7C13.8,58.2,13.7,58.5,13.5,58.8z
		 M6.3,60.9c0.2,0.3,0.5,0.6,0.8,0.8c0.3,0.2,0.5,0.4,0.6,0.6c0.1,0.2,0.4,0.6,0.9,1.2C9,64.2,9.2,64.7,9.2,65c0,0.3,0,0.6-0.2,0.9
		c-0.2,0.3-0.4,0.4-0.8,0.5c-0.3,0.1-0.6,0-0.8-0.1c-0.2-0.1-0.3-0.4-0.4-0.7C7,65.3,6.9,65,6.8,64.7c-0.3-0.5-0.5-0.9-0.8-1.3
		c-0.1-0.2-0.4-0.5-0.8-1c-0.2-0.2-0.5-0.3-0.8-0.2c-0.4,0.1-0.7,0.1-0.9-0.1c-0.2-0.2-0.4-0.4-0.5-0.6S2.9,61,3.2,60.5
		C3.3,60.2,3.6,60,4.1,60c0.4-0.1,0.8,0,1.1,0.1C5.5,60.1,5.8,60.4,6.3,60.9z M30,70.3c0.4,0,0.8,0,1.1,0.1c0.3,0,0.5,0,0.7,0
		c0.3-0.1,0.6-0.1,1,0c0.4,0.1,0.7,0,1,0c0.2,0,0.4,0,0.7-0.1c0.2-0.1,0.5-0.1,0.8,0c0.3,0.1,0.5,0.1,0.8,0.3
		c0.2,0.1,0.4,0.3,0.4,0.6c0,0.3,0,0.5-0.1,0.8c-0.1,0.3-0.3,0.4-0.6,0.4c-0.3,0-0.5,0-0.7-0.1c-0.4-0.1-0.7-0.1-0.8-0.2
		c-0.2-0.1-0.3-0.1-0.5-0.1c-0.2,0-0.4-0.1-0.5-0.2c-0.4,0.1-0.7,0.1-1-0.1c-0.4,0-0.7,0-1,0c-0.3,0-0.7,0-1.4-0.1
		c0,0.9-0.1,2-0.3,3.3s-0.3,2.4-0.4,3.1c-0.1,0.7-0.2,1.3-0.3,1.7c-0.1,0.4-0.2,1-0.5,2c-0.2,1-0.5,1.9-0.9,2.6
		c-0.4,0.6-0.7,1-1,1.2c-0.3,0.2-0.6,0.3-0.9,0.2c-0.3-0.1-0.9-0.2-1.7-0.5c-0.8-0.5-1.6-1-2.3-1.5c-0.7-0.5-1.3-0.9-1.7-1.2
		c-0.2-0.3-0.3-0.5-0.3-0.7c0-0.2,0.1-0.4,0.2-0.7c0.1-0.2,0.3-0.4,0.6-0.4c0.3-0.1,0.7,0,0.9,0.2c0.3,0.5,0.8,1,1.6,1.5
		c0.7,0.5,1.4,1,1.9,1.4c0.4,0.3,0.8,0.2,1.2,0c0.5-0.8,0.9-1.8,1.3-3.3c0.4-1.4,0.6-2.9,0.8-4.3c0.2-1.5,0.2-3,0.1-4.5
		c-1.9,0-3.6,0.1-5.2,0.3c-1.6,0.2-3.1,0.5-4.5,0.9c-0.5,0.2-0.9,0.4-1.2,0.4c-0.3,0.1-0.5,0.2-0.9,0.3c-0.3,0.2-0.6,0.4-0.9,0.4
		c-0.2,0.1-0.4,0.2-0.6,0.4c-0.2,0.2-0.4,0.4-0.5,0.6c-0.2,0.2-0.4,0.3-0.7,0.3c-0.3,0-0.5-0.1-0.7-0.4s-0.2-0.6-0.1-1
		c0.1-0.4,0.3-0.7,0.5-0.9c0.3-0.2,0.7-0.4,1.2-0.6c0.4-0.2,1.1-0.4,2.1-0.6c1.1-0.3,1.8-0.4,2.2-0.4c0.4,0,0.8-0.1,1.3-0.2
		c0.9-0.2,2-0.3,3.4-0.5c1.4-0.1,2.9-0.2,4.5-0.4c0-0.9-0.1-1.9-0.3-3c0.2-0.6,0.6-0.8,1.2-0.6c0.3,0,0.5,0.1,0.6,0.4
		c0.2,0.3,0.2,0.6,0.2,0.9c0,0.4,0,0.6,0,0.8C30,69.2,30,69.7,30,70.3z M28.4,55.3c-1.3,0.3-2.9,1.1-4.8,2.3s-3.5,2.4-4.7,3.6
		c-0.2,0.2-0.4,0.4-0.6,0.6c-0.2,0.2-0.4,0.4-0.7,0.6c-0.3,0.2-0.6,0.1-0.8-0.2c-0.3-0.3-0.4-0.7-0.3-1c0.1-0.4,0.3-0.6,0.6-0.8
		c0.2-0.3,0.5-0.6,0.8-0.8c0.3-0.2,0.6-0.4,1-0.8c0.4-0.3,0.7-0.6,0.9-0.8c0.2-0.1,0.5-0.3,0.8-0.5c0.3-0.2,0.6-0.4,0.9-0.6
		c0.4-0.1,0.8-0.3,1-0.5c0.3-0.2,0.5-0.4,0.5-0.5c0.1-0.1,0.2-0.2,0.4-0.2c0.2,0,0.3-0.1,0.4-0.2c0.5-0.3,0.9-0.5,1-0.6
		c0.2-0.1,0.3-0.2,0.5-0.3c0.2,0,0.3-0.1,0.4-0.3c0.1-0.2,0.4-0.3,0.9-0.4c0.3-0.2,0.6-0.4,1-0.5c0.3-0.2,0.7-0.2,1-0.1
		c0.4,0.1,0.6,0.3,0.9,0.6c0.2,0.3,0.2,0.6-0.1,0.8C29.1,55.1,28.8,55.3,28.4,55.3z M22.3,66.1c0.2,0.3,0.3,0.5,0.2,0.7
		c-0.1,0.2-0.3,0.4-0.6,0.6c-0.3,0.2-0.6,0.2-0.9,0c-0.3-0.2-0.6-0.5-0.7-0.8c-0.3-0.1-0.5-0.3-0.5-0.6c-0.4-0.3-0.7-0.4-1-0.5
		c-0.2-0.1-0.4-0.2-0.6-0.2c-0.1,0-0.4-0.1-0.6-0.1s-0.5-0.3-0.6-0.6c-0.1-0.4,0-0.8,0.3-1.2c0.3-0.4,0.6-0.5,0.8-0.4
		c0.3,0.1,0.6,0.2,1.1,0.4c0.5,0.4,0.9,0.7,1.2,0.8c0.3,0.2,0.6,0.3,0.9,0.6c0.3,0.2,0.5,0.4,0.6,0.6C22,65.6,22.1,65.8,22.3,66.1z
		 M22.3,78.8c-0.9-0.4-1.6-0.8-2.1-1.2c-0.4-0.3-0.9-0.6-1.2-0.8c-0.4-0.2-0.5-0.6-0.5-1.1c-0.1-0.3,0.1-0.5,0.3-0.6
		s0.5-0.1,0.7-0.1s0.4,0.1,0.7,0.4c0.7,0.7,1.4,1.2,2,1.5c0.6,0.3,1.2,0.6,1.8,0.8c0.8,0.2,1.1,0.5,1,0.8c-0.1,0.3-0.3,0.6-0.7,0.7
		c-0.4,0.1-0.8,0.2-1.1,0.1c-0.3-0.1-0.6-0.2-0.7-0.3C22.6,79,22.4,78.9,22.3,78.8z M27.3,63.6c-0.2,0.1-0.4,0.1-0.5,0
		c-0.1-0.1-0.3-0.2-0.6-0.3c-0.2-0.1-0.5-0.2-0.7-0.2c-0.2-0.1-0.5-0.2-0.8-0.3c-0.4,0.1-0.8,0.1-1,0c-0.2-0.1-0.4-0.2-0.6-0.3
		c-0.2-0.1-0.4-0.3-0.5-0.7c-0.1-0.3,0-0.6,0.2-0.9c0.2-0.3,0.5-0.4,0.9-0.4c0.3,0.1,0.6,0.1,0.9,0.2c0.2,0.1,0.5,0.2,0.9,0.2
		s1,0.3,1.9,0.7c0.4,0.2,0.7,0.4,0.8,0.6c0.1,0.2,0.1,0.5-0.1,0.7C27.8,63.3,27.6,63.5,27.3,63.6z M26.8,64.7
		c0.2-0.2,0.4-0.4,0.6-0.4c0.2-0.1,0.4-0.2,0.6-0.3c0.2-0.2,0.5-0.4,1-0.6c0.3-0.2,0.6-0.4,0.9-0.7c0.6-0.4,0.9-0.7,1-0.7
		s0.2-0.2,0.5-0.4c0.2-0.2,0.5-0.4,0.8-0.7c0.2-0.1,0.4-0.3,0.6-0.5c0.2-0.2,0.5-0.3,0.8-0.2c0.3,0,0.5,0.1,0.7,0.3
		c0.2,0.1,0.3,0.3,0.4,0.6s-0.1,0.6-0.5,1c-0.9,0.6-1.6,1-2,1.4c-0.5,0.3-1,0.7-1.6,1.1c-0.6,0.4-1.3,0.8-2,1.3
		c-0.8,0.5-1.6,1.1-2.6,1.7c-0.6,0.4-1,0.6-1.2,0.7c-0.2,0.1-0.4,0.2-0.6,0.1c-0.2-0.1-0.4-0.2-0.5-0.4c-0.1-0.2-0.1-0.4-0.1-0.6
		c0.1-0.2,0.1-0.4,0.3-0.6c0.2-0.1,0.4-0.2,0.8-0.4c0.1-0.3,0.3-0.4,0.6-0.4c0.2,0,0.4-0.1,0.5-0.2C25.7,65.4,26.1,65.1,26.8,64.7z"
		/>
	<path class="st0" d="M47.5,72.4c-0.4,0.2-0.7,0.4-0.9,0.6c-0.3,0.4-0.6,0.7-0.8,0.8c-0.2,0.1-0.4,0.1-0.6,0
		c-0.2-0.1-0.4-0.3-0.6-0.5c-0.2-0.3-0.3-0.6-0.3-1c0.1-0.4,0.2-0.6,0.5-0.8c0.8-0.3,1.4-0.6,1.9-0.7c0.5-0.2,1.3-0.4,2.3-0.6
		c0.3-0.1,0.5-0.2,0.8-0.2c0.2,0,0.7-0.1,1.4-0.3c0.7-0.1,1.7-0.3,3.1-0.5c1.3-0.2,2.4-0.4,3.1-0.4c0-0.6,0-1.1,0.1-1.5
		c0-0.4,0.1-0.7,0.1-0.8c0-0.1,0.1-0.3,0.1-0.6s0-0.5,0-0.8c0.1-0.6,0.2-1.2,0.2-1.8c0-0.8,0.1-1.5,0.2-2.3c0.1-0.8,0.2-1.5,0.3-2.1
		c-0.4,0.1-0.7,0.1-0.9,0c-0.2,0-0.6,0-1.2,0.1c-0.3,0.2-0.7,0.2-1.2,0.2c-0.6,0.2-1.4,0.4-2.3,0.5c-0.5,0.2-0.8,0.3-0.9,0.4
		c-0.1,0.1-0.3,0.2-0.5,0.2c-0.2,0-0.3,0.1-0.5,0.4c-0.1,0.2-0.3,0.4-0.5,0.5c-0.3,0.1-0.5,0.1-0.7,0c-0.2-0.1-0.4-0.2-0.6-0.3
		c-0.2-0.1-0.3-0.3-0.4-0.7c0-0.3,0.1-0.6,0.2-0.7s0.3-0.3,0.5-0.5c0.4-0.1,1.1-0.3,1.9-0.5s1.6-0.4,2.4-0.5
		c0.8-0.1,1.6-0.2,2.5-0.3c0.9-0.1,1.6-0.2,2.1-0.2c0.2-2,0.3-3.1,0.3-3.3c0-0.2,0.1-0.5,0.1-0.7c0-0.2,0.1-0.5,0.1-0.7
		c-0.1-0.4,0-0.8,0.1-1s0.3-0.5,0.7-0.6c0.4,0,0.8,0.1,1.2,0.4c0.2,0.2,0.3,0.4,0.3,0.6c0,0.2,0,0.3-0.1,0.5
		c-0.1,0.1-0.2,0.4-0.4,0.8c-0.1,0.3-0.2,0.6-0.2,0.8c0,0.2-0.2,1.2-0.3,3.1c1.2-0.1,2.1-0.1,2.7,0c0.6,0,1.2,0,1.8,0
		c0.6,0,1.3,0.2,1.9,0.5c0.4,0.4,0.6,0.8,0.6,1c0.1,0.3,0,0.5,0,0.7c-0.1,0.2-0.2,0.3-0.5,0.4c-0.3,0.1-0.5,0.1-0.7,0
		s-0.4-0.2-0.4-0.4c0-0.2-0.2-0.3-0.4-0.4c-0.2-0.1-0.4-0.2-0.6-0.4c-0.6,0-1.1-0.1-1.4-0.2c-0.5,0-0.8,0-1.1,0c-0.2,0-0.5,0-0.8,0
		c-0.3,0-0.8,0-1.5,0.1c-0.1,0.3-0.1,0.9-0.2,1.7c-0.1,0.4-0.1,0.8-0.1,0.9c0,0.2-0.1,0.5-0.1,1.1c-0.1,0.5-0.1,0.9-0.2,1.2
		c-0.1,0.3-0.1,0.6-0.1,0.9c0.1,0.3,0.1,0.5,0.1,0.8c-0.1,0.3-0.1,0.6-0.1,1.2c0,0.5-0.1,1.2-0.1,2.1c0.9-0.1,1.9-0.2,2.9-0.2
		c1.1-0.1,2-0.1,2.9-0.1c0.8-0.1,1.4-0.1,1.9,0c0.4-0.2,0.7-0.3,0.9-0.2c0.6-0.1,1.1-0.2,1.5-0.2c0.4-0.2,0.8-0.3,1.2-0.2
		c0.2,0,0.4,0.1,0.6,0.2c0.2,0.1,0.4,0.3,0.6,0.6s0.2,0.5,0.1,0.8s-0.2,0.4-0.4,0.5C70.7,70,70.4,70,70,70c-0.7-0.1-1.1-0.1-1.4-0.1
		s-0.6,0-0.9-0.1c-0.3,0-0.6-0.1-0.9-0.1c-0.3,0-0.7,0-1.1-0.1c-0.4,0-1,0-1.7,0c-0.4,0-0.9,0.1-1.3,0.1c-0.4,0-0.9,0.1-1.3,0.1
		c-0.4,0-0.9,0.1-1.2,0.1s-0.8,0.1-1.4,0.1c0,0.4-0.1,0.8-0.2,1.3c-0.1,0.2-0.2,1-0.4,2.5c-0.2,1.4-0.3,2.5-0.4,3.2
		c0,0.4,0,0.7-0.1,0.8c-0.1,0.2-0.1,0.4,0,0.9c0,0.4,0,0.7,0,1.1c-0.1,0.4-0.2,0.8-0.2,1.3c0,0.8-0.1,1.4-0.1,1.6
		c0,0.2-0.1,0.7-0.1,1.3c-0.1,0.7-0.1,1.1-0.2,1.4c-0.1,0.3-0.3,0.5-0.7,0.7c-0.4,0.2-0.9,0-1.6-0.6c-0.3-0.3-0.4-0.7-0.2-1.1
		c0.1-0.4,0.4-0.6,0.7-0.7c0.2-0.2,0.4-0.5,0.4-0.8c0.1-0.3,0.1-0.7,0.1-1c0.2-0.9,0.3-1.9,0.4-2.8c0.1-1,0.3-1.9,0.4-2.8
		c0.1-0.9,0.3-2.3,0.6-4.1c-0.6,0.5-1.3,1.2-2.1,1.9s-1.7,1.6-2.8,2.5c-1,1-1.9,1.7-2.6,2.3c-0.7,0.6-1.3,1-1.7,1.3
		c-0.4,0.3-0.9,0.8-1.7,1.4c-0.7,0.6-1.4,1.3-2.1,1.9c-0.2,0.1-0.3,0.1-0.5,0c-0.1,0-0.4-0.1-0.7-0.3c-0.3-0.2-0.4-0.5-0.3-0.9
		c0.1-0.4,0.3-0.6,0.7-0.7c0.2-0.3,0.5-0.5,0.8-0.6c0.7-0.6,1.2-0.9,1.5-1c0.2-0.2,0.3-0.3,0.5-0.4c0.5-0.4,1-0.8,1.2-0.9
		c0.3-0.4,0.7-0.7,1.2-0.9c0.1-0.3,0.2-0.5,0.3-0.5c0.2-0.1,0.4-0.2,0.8-0.5c0.2-0.2,0.3-0.4,0.5-0.6c0.2-0.1,0.5-0.4,1-0.8
		c0.2-0.2,0.4-0.3,0.5-0.4c0.2-0.1,0.4-0.4,0.8-0.7c0.2-0.3,0.3-0.6,0.5-0.8c0.2-0.2,0.4-0.3,0.5-0.4c0.2-0.1,0.4-0.3,0.6-0.4
		c0.1-0.2,0.2-0.4,0.4-0.5c0.2-0.2,0.4-0.3,0.6-0.5c0.1-0.3,0.3-0.5,0.4-0.6c0.1-0.2,0.3-0.3,0.5-0.4c0.2-0.1,0.6-0.1,1.1,0.1
		l0.1-0.7c-0.6,0-1.2,0-1.6,0.1c-0.4,0.1-1,0.2-1.6,0.3c-0.6,0.1-1.3,0.2-2.2,0.4c-0.6,0.2-1.3,0.4-2.1,0.6
		c-0.3,0.2-0.6,0.3-0.9,0.3c-0.2,0.1-0.4,0.2-0.7,0.4C47.9,72.3,47.7,72.4,47.5,72.4z M51.9,65.5c0.3,0.1,0.5,0.3,0.7,0.4
		c0.2,0.1,0.6,0.3,1,0.3c0.3-0.1,0.6-0.1,0.7-0.1c0.2,0,0.3,0.1,0.6,0.1c0.2,0.1,0.4,0.2,0.5,0.4c0.1,0.2,0.2,0.5,0.1,0.8
		c0,0.3-0.2,0.5-0.5,0.6c-0.3,0.1-0.6,0.2-0.8,0.1c-0.2-0.1-0.8-0.2-1.7-0.4c-0.7-0.3-1.2-0.5-1.6-0.8s-0.7-0.4-0.8-0.6
		c-0.1-0.2-0.3-0.3-0.4-0.5c-0.1-0.2-0.3-0.5-0.5-0.9c-0.4-0.6-0.5-1.1-0.3-1.5c0.3-0.4,0.6-0.6,1-0.6c0.4,0,0.7,0.1,0.8,0.3
		c0.1,0.2,0.2,0.5,0.2,0.9c0.1,0.4,0.2,0.6,0.3,0.7C51.5,65,51.7,65.2,51.9,65.5z M70.8,80.8c0.7,0.2,1.5,0.3,2.3,0.4
		c0.8,0.1,1.5,0.2,2,0.2c0.2,0.1,0.3,0.1,0.5,0.3c0.2,0.1,0.3,0.3,0.4,0.6c0.1,0.3,0,0.6-0.2,0.8s-0.5,0.4-0.8,0.3
		c-0.4-0.2-0.8-0.3-1.1-0.4c-0.3,0-0.6-0.1-0.8-0.3c-0.2,0.1-0.5,0-0.9-0.1c-0.6-0.2-1-0.3-1.3-0.4c-0.7-0.3-1.2-0.5-1.5-0.6
		c-0.3-0.1-0.8-0.3-1.4-0.6c-0.6-0.3-1.5-0.9-2.8-1.7c-0.3-0.2-0.5-0.4-0.8-0.7c-0.4-0.1-0.6-0.3-0.7-0.4c-0.1-0.1-0.2-0.2-0.4-0.4
		l-0.6-0.4c-0.2-0.2-0.4-0.4-0.5-0.6c-0.1-0.2-0.3-0.4-0.5-0.6c-0.2-0.2-0.4-0.4-0.6-0.7c-0.4-0.4-0.7-0.7-0.9-0.8s-0.4-0.3-0.6-0.6
		c-0.2-0.3-0.4-0.7-0.4-1.2c0.1-0.5,0.3-0.8,0.7-0.9s0.8,0.1,1.4,0.8c0.1,0.4,0.2,0.7,0.3,0.9c0.1,0.2,0.4,0.6,0.7,1.2
		c1.2,1.4,2.3,2.5,3.3,3.2c1,0.7,2,1.2,2.8,1.7C69.1,80.3,70,80.6,70.8,80.8z M67.9,62.7c-0.4,0.3-1.1,0.8-2.1,1.6
		c-1,0.8-1.7,1.4-2.1,1.7c-0.4,0.3-1,0.8-1.6,1.5c-0.2,0.2-0.4,0.4-0.6,0.5c-0.2,0.2-0.4,0.2-0.8,0.1s-0.6-0.3-0.7-0.6
		c-0.1-0.4,0-0.6,0.2-0.8c0.2-0.2,0.5-0.4,0.9-0.7c0.3-0.2,0.5-0.4,0.5-0.5c0.1-0.1,0.3-0.2,0.6-0.4c0.4-0.3,0.7-0.5,0.8-0.7
		c0.1-0.2,0.3-0.3,0.5-0.4c0.2-0.4,0.4-0.6,0.8-0.7c0.2-0.3,0.4-0.5,0.8-0.6c0.2-0.3,0.4-0.4,0.7-0.4c0.2-0.3,0.5-0.6,0.8-0.9
		c0.3-0.2,0.6-0.5,0.9-0.7c0.2-0.3,0.5-0.4,0.8-0.4c0.3,0,0.6,0,0.8,0.1c0.2,0.1,0.4,0.3,0.5,0.5s0.1,0.6,0,0.9
		c-0.1,0.3-0.4,0.5-0.7,0.6C68.6,62.4,68.3,62.5,67.9,62.7z"/>
	<path class="st0" d="M85.1,71.2c-0.1,0.3-0.1,0.6-0.2,0.7s-0.1,0.4-0.2,0.6c0,0.4,0,0.7-0.2,0.9c0.1,0.3,0,0.6-0.1,0.7
		c-0.1,0.1-0.1,0.3-0.1,0.4c0,0.1,0,0.3,0,0.5c-0.1,0.2-0.1,0.5,0,0.9c-0.1,0.3-0.1,0.7,0,1c0,0.3,0,0.5,0,0.8c0,0.2,0,0.5,0,0.9
		c0,0.4,0,0.9,0.2,1.4c0.1,0.6,0.4,1,0.7,1.3c0.5,0,0.9-0.1,1.3-0.2c0.4-0.1,0.7-0.1,1-0.1s0.5,0.1,0.6,0.3s0.2,0.4,0.3,0.5
		c0,0.2,0,0.4-0.1,0.7c-0.1,0.3-0.2,0.5-0.4,0.5c-0.2,0.1-0.4,0.1-0.6,0.2c-0.2,0.1-0.5,0.2-0.9,0.3c-0.4,0.1-0.8,0.2-1.2,0.2
		c-0.4-0.1-0.7-0.2-1.1-0.5s-0.6-0.6-0.7-1c0-0.1,0-0.3-0.1-0.4s-0.1-0.4-0.2-0.6c0-0.2-0.1-0.5-0.1-0.8c0-0.2,0-0.4,0-0.5
		c-0.1-0.2-0.1-0.5,0-0.9c0.1-0.3,0.1-0.5,0-0.7c-0.1-0.2-0.1-0.4-0.1-0.7c0-0.3,0.1-0.8,0.2-1.5c0.1-1.7,0.3-3.1,0.6-4.3
		c0.2-1.2,0.6-2.5,0.9-3.9c0.4-1.4,0.7-2.6,1-3.6c0.3-0.9,0.6-1.8,0.9-2.6c0.3-0.8,0.5-1.4,0.7-1.8c0.4-0.9,0.7-1.5,0.8-1.7
		c0.1-0.2,0.3-0.6,0.6-1.1c0.3-0.4,0.6-0.6,1-0.7c0.2,0,0.4,0,0.5,0s0.3,0,0.5,0.1c0.2,0,0.3,0.2,0.4,0.5c0.1,0.3,0.1,0.6,0,0.8
		c-0.1,0.2-0.2,0.4-0.4,0.5c-0.2,0.1-0.4,0.3-0.7,0.6c-0.3,0.3-0.4,0.5-0.4,0.7c0,0.1-0.1,0.3-0.3,0.4c-0.1,0.4-0.2,0.7-0.3,0.8
		c-0.1,0.1-0.1,0.3-0.3,0.4c-0.1,0.2-0.2,0.3-0.4,0.4c0,0.4-0.1,0.6-0.2,0.7c-0.1,0.1-0.2,0.4-0.4,0.7c-0.1,0.4-0.2,0.7-0.4,0.8
		c0,0.4,0,0.7-0.1,0.9c-0.1,0.2-0.2,0.5-0.3,0.9c-0.1,0.3-0.2,0.5-0.2,0.7c0,0.2-0.1,0.3-0.2,0.5c-0.1,0.2-0.2,0.4-0.3,0.6
		C86,67.5,86,67.7,86,67.9c0,0.2,0,0.3-0.2,0.4c-0.1,0.3-0.2,0.6-0.1,0.7c0,0.1-0.1,0.3-0.3,0.5c0,0.3-0.1,0.5-0.2,0.7
		C85.3,70.5,85.3,70.8,85.1,71.2z M98.3,74c0.4,0.3,0.8,0.5,1.3,0.6c0.5,0.2,0.9,0.3,1.3,0.4c0.4,0.1,0.8,0.2,1.2,0.3
		c0.7,0,1.2,0.1,1.5,0.1c0.3,0,0.5,0,0.7,0c0.2,0,0.5,0,0.8,0c0.4-0.1,0.6-0.1,0.8-0.1c0.2,0,0.4,0.1,0.5,0.1
		c0.2,0.1,0.3,0.2,0.4,0.4s0.1,0.4,0.1,0.6c0,0.2-0.1,0.4-0.3,0.6c-0.2,0.2-0.4,0.3-0.8,0.4c-0.6-0.1-1.1-0.1-1.5-0.1
		s-0.9-0.1-1.3-0.1c-0.8-0.1-1.3-0.2-1.5-0.3c-0.3-0.1-0.6-0.1-0.9-0.2c-0.3-0.2-0.6-0.2-0.9-0.3c-0.3,0-0.5-0.1-0.7-0.2
		c-0.2-0.1-0.4-0.1-0.6-0.1c-0.2,0.1-0.5-0.1-1-0.4c-0.3,0-0.6-0.2-0.9-0.5c-0.3,0-0.6-0.2-0.8-0.6c-0.2-0.4-0.2-0.7-0.1-1
		s0.4-0.5,0.7-0.6c0.3-0.1,0.6-0.1,0.7,0s0.3,0.1,0.6,0.1C98.1,73.4,98.3,73.7,98.3,74z M98,64.8c0.5-0.2,0.9-0.3,1.2-0.3
		c0.3-0.1,0.7-0.1,1.3-0.2c0.6-0.1,1.2-0.1,1.7-0.1c0.4,0,0.8,0,1.2,0c0.4,0,0.8,0,1.1,0.1c0.3,0.1,0.7,0.3,1,0.4
		c0.2,0.3,0.4,0.6,0.5,0.8c0.1,0.3,0.1,0.5,0,0.7c-0.1,0.2-0.3,0.4-0.5,0.5s-0.5,0.1-0.9-0.1c-0.2-0.1-0.3-0.2-0.4-0.2
		c-0.1,0-0.4-0.1-0.8-0.3c-0.3,0.2-0.5,0.3-0.7,0.2c-0.2-0.1-0.4-0.1-0.8-0.1c-0.3-0.1-0.6-0.1-0.7,0c-0.1,0.1-0.4,0.1-0.9,0
		c-0.3,0.2-0.5,0.3-0.7,0.2c-0.2,0.2-0.4,0.3-0.5,0.2s-0.4,0-0.6,0.2c-0.1,0.1-0.2,0.2-0.3,0.3c-0.1,0.1-0.3,0.2-0.4,0.3
		s-0.3,0.1-0.5,0c-0.2-0.1-0.4-0.2-0.5-0.4c-0.1-0.2-0.2-0.4-0.3-0.6c0.1-0.4,0.2-0.8,0.5-1.1C97.3,65.2,97.6,65,98,64.8z"/>
	<path class="st0" d="M122.6,67.6c0.1-1.1,0.3-1.8,0.5-2.3c-0.3,0.1-0.6,0.1-0.9,0.3c-0.4,0-0.7,0-1-0.2c-0.3-0.2-0.4-0.4-0.4-0.7
		c0-0.3,0.1-0.5,0.2-0.6c0.1-0.1,0.4-0.1,0.9-0.3c0.4-0.2,0.9-0.3,1.4-0.4c0.1-0.5,0.2-1.1,0.3-1.8c-0.3,0.1-0.5,0.2-0.7,0.2
		c-0.2,0-0.4,0.2-0.6,0.4c-0.2,0.2-0.4,0.4-0.6,0.5s-0.4,0-0.8-0.3c-0.3-0.3-0.4-0.6-0.4-1c0.1-0.4,0.4-0.7,0.9-0.8
		c0.3-0.1,0.5-0.1,0.7-0.2c0.2-0.1,0.4-0.1,0.7-0.2s0.6-0.1,0.9-0.2c0.1-0.2,0.2-0.9,0.3-2c-0.5,0.1-0.8,0.2-0.9,0.3
		c-0.1,0.1-0.4,0.2-0.8,0.4c-0.3,0.6-0.5,0.8-0.8,0.7c-0.3-0.1-0.5-0.2-0.7-0.4c-0.2-0.2-0.3-0.4-0.2-0.7c0.1-0.3,0.2-0.5,0.5-0.8
		c0.4-0.2,0.8-0.4,1.3-0.5c0.4-0.1,1-0.4,1.9-0.7c0.1-0.7,0.2-1.4,0.3-2.1c-0.4,0.1-0.7,0.1-0.9,0.1c-0.2,0-0.5,0-0.9,0
		c-0.4,0-0.9,0.1-1.5,0.2c-0.6,0.1-1,0.2-1.1,0.3c-0.1,0.1-0.4,0.1-0.8,0.1c-0.5,0.2-1,0.4-1.4,0.4c-0.5,0.3-0.9,0.6-1,0.8
		c-0.1,0.2-0.3,0.4-0.6,0.5c-0.7,0-1.1-0.3-1.2-0.7c-0.2-0.4-0.1-0.8,0.3-1c0.3-0.3,0.6-0.4,0.7-0.5c0.1-0.1,0.3-0.1,0.5-0.2
		c0.2,0,0.3-0.1,0.4-0.2c0.3-0.1,0.6-0.1,0.8-0.1c0.2,0,0.4-0.1,0.6-0.2c0.4-0.1,0.7-0.2,1.1-0.2c0.4-0.1,1.3-0.2,2.7-0.4
		c1.4-0.2,2.3-0.3,2.6-0.4c0.1-0.2,0.2-0.5,0.1-1c-0.1-0.6-0.1-1.1,0.2-1.5c0.2-0.3,0.4-0.4,0.7-0.4c0.3,0,0.6,0,0.8,0.1
		c0.2,0.1,0.3,0.2,0.4,0.3c0,0.1,0,0.5-0.1,1c-0.1,0.5-0.2,1-0.3,1.2c0.3,0.1,0.8,0.1,1.4,0c0.6-0.1,1.5,0,2.6,0.1
		c0.2,0,0.4,0.1,0.6,0.2c0.2,0.1,0.4,0.3,0.5,0.5c0.1,0.2,0.1,0.4,0.1,0.6c0,0.2,0,0.4-0.1,0.6c-0.1,0.2-0.2,0.3-0.4,0.4
		c-0.2,0.1-0.5,0.2-0.8,0.1c-0.4,0-0.6-0.1-0.6-0.3c0-0.1-0.1-0.4-0.2-0.7c-0.2-0.1-0.4-0.2-0.6-0.2c-0.2,0-0.4-0.1-0.8-0.2
		c-0.2,0.1-0.5,0.2-0.9,0.1c-0.5,0.1-0.9,0.1-1.2,0.2c-0.1,0.4-0.2,0.7-0.2,1c-0.1,0.3-0.1,0.7-0.1,1c0.6,0,1.2-0.1,1.7-0.1
		c0.5,0,1,0,1.4,0.1c0.4,0.1,0.8,0.2,1.2,0.4c0.4,0.2,0.6,0.5,0.8,1c0.1,0.5,0.2,0.8,0.2,1c0,0.2-0.1,0.6-0.2,1.3
		c-0.1,0.2-0.2,0.4-0.3,0.6c-0.1,0.2-0.2,0.4-0.3,0.6c-0.1,0.2-0.2,0.5-0.5,0.9c-0.2,0.4-0.3,0.7-0.5,0.9c-0.1,0.2-0.3,0.7-0.6,1.3
		c-0.3,0.6-0.6,1-0.8,1.1c-0.2,0.1-0.5,0.2-1,0c-0.5-0.1-0.7-0.4-0.5-0.9c-0.3,0-0.5,0-0.9,0.1c-0.3,0.1-0.7,0.1-1.2,0.2
		c-0.1,0.3-0.2,0.7-0.3,1.2c-0.1,0.4-0.1,0.9-0.2,1.3c1.1-0.1,2.2-0.3,3.3-0.5c1.1-0.2,2-0.3,2.7-0.4c0.4,0.1,0.6,0.1,0.7,0.3
		s0.2,0.3,0.3,0.5s0,0.4-0.1,0.6c-0.1,0.2-0.4,0.3-0.9,0.4c-0.5-0.1-1-0.1-1.5-0.2c-0.3,0-0.6,0-0.8,0.1c-0.2,0.1-0.4,0.1-0.7,0
		c-0.5,0.1-1,0.2-1.6,0.3c-0.6,0.1-1.2,0.2-1.8,0.3c-0.1,0.5-0.1,0.9-0.3,1.1c-0.1,0.2-0.1,0.6,0.1,0.9c0.1,0.3,0.1,0.6,0.1,0.7
		c0,0.1-0.1,0.3-0.2,0.5c-0.1,0.2-0.3,0.3-0.6,0.3c-0.3,0-0.5,0-0.7-0.1c-0.2-0.1-0.3-0.2-0.3-0.4c-0.1-0.2-0.1-0.5-0.1-0.8
		c0-0.3,0.1-0.6,0.1-0.9c0.1-0.3,0.1-0.7,0.2-1.1c-0.7,0.1-1.2,0.2-1.6,0.3c-0.4,0.1-0.9,0.3-1.4,0.5c-0.6,0.2-1,0.3-1.2,0.4
		c-0.4,0.3-0.7,0.5-0.9,0.7c-0.2,0.1-0.4,0.2-0.5,0.2c-0.1,0-0.4-0.1-0.7-0.1c-0.3-0.1-0.5-0.3-0.6-0.6c-0.1-0.4,0-0.7,0.4-1
		c0.3-0.1,0.6-0.2,1.1-0.3c0.4-0.1,1.3-0.3,2.6-0.6C120.5,68,121.6,67.8,122.6,67.6z M117.9,57.1c0.3-0.3,0.6-0.4,0.7-0.4
		c0.2,0,0.4,0.1,0.7,0.3c0.3,0.2,0.4,0.4,0.3,0.5c-0.1,0.2-0.1,0.3-0.2,0.5c-0.1,0.1-0.2,0.4-0.4,0.7c-0.1,0.4-0.1,0.7-0.2,0.9
		c-0.1,0.2-0.1,0.4-0.1,0.7c0,0.2,0,0.7,0,1.3c0.1,0.6,0.1,1.1,0.1,1.5c0.1,0.2,0.2,0.5,0.3,0.7c0.2,0.3,0.4,0.6,0.6,0.8
		c0.3,0.3,0.5,0.4,0.7,0.6s0.3,0.3,0.3,0.6c0,0.3-0.2,0.5-0.4,0.6c-0.3,0.1-0.6,0.1-1,0c-0.4-0.3-0.7-0.5-0.9-0.7
		c-0.2-0.2-0.3-0.4-0.4-0.6s-0.2-0.4-0.2-0.6c0-0.1-0.1-0.4-0.2-0.7c-0.1-0.3-0.2-0.7-0.2-1.1c0-0.3-0.1-0.6-0.1-0.9s0-0.4,0-0.6
		c-0.1-0.5-0.1-1-0.1-1.3c0-0.4,0-0.7,0.1-1.2s0.1-0.8,0.2-1C117.6,57.6,117.7,57.3,117.9,57.1z M125,82.1c0.4-0.3,0.7-0.4,0.9-0.5
		c0.3,0,0.5,0,0.7,0c0.2,0,0.4,0.1,0.5,0.3c0.1,0.1,0.2,0.3,0.4,0.6c0.1,0.2,0.1,0.5,0,0.7c-0.1,0.2-0.2,0.4-0.4,0.4
		c-0.2,0.1-0.4,0-0.5,0c-0.2-0.1-0.4,0-0.6,0.1c-0.2,0.1-0.6,0.3-1.1,0.5c-0.5,0.2-1,0.5-1.6,0.9c-0.5,0.4-1.3,0.8-2.3,1.4
		c-0.5,0.3-1,0.2-1.3-0.1c-0.3-0.3-0.4-0.7-0.1-1.1c0.2-0.4,0.6-0.7,1-0.9c0.3-0.1,0.6-0.2,0.8-0.3c0.2-0.1,0.6-0.3,1.2-0.6
		c0.6-0.3,1-0.5,1.2-0.7C123.9,82.6,124.4,82.4,125,82.1z M139.3,79.8c-1.1-0.6-1.8-1-2.1-1.1c-0.3-0.1-0.7-0.2-1.2-0.4
		c-0.3,0.3-0.5,0.5-0.7,0.6c-0.2,0.1-0.6,0.3-1,0.4s-1,0.3-1.6,0.5c0.1,0.4,0.1,0.8,0,1.2c-0.1,0.4-0.1,0.9-0.3,1.6
		s-0.2,1.2-0.3,1.6c-0.1,0.4-0.1,0.9-0.2,1.5c-0.1,0.5-0.2,0.9-0.5,1.2c-0.3,0.4-0.7,0.6-1.2,0.5c-0.5-0.1-0.7-0.3-0.7-0.7
		s0.2-0.9,0.7-1.5c0.1-0.3,0.2-0.7,0.3-1c0.1-0.3,0.2-0.7,0.3-1c0-0.5,0-1,0.1-1.5c0.1-0.5,0.1-0.9,0-1.3c-0.7,0.2-1.2,0.3-1.5,0.3
		c-0.4,0.1-0.7,0.1-1.1,0.1c-0.4,0-0.6,0.1-0.8,0c-0.2,0-0.4,0-0.7,0.1c-0.3,0.1-0.6,0.1-0.9,0.1c-0.3,0-0.6,0-1,0.1
		c-0.3,0-0.8,0-1.3-0.2c-0.5-0.2-0.8-0.4-1-0.6c-0.1-0.2-0.2-0.6-0.1-1.2c0.2-0.4,0.6-0.8,1.1-1.2c0.5-0.4,1-0.7,1.6-1.1
		c0.6-0.3,1.5-0.8,2.7-1.5c-0.2-0.2-0.5-0.4-0.7-0.5c-0.3-0.1-0.6-0.1-0.7-0.3c-0.2-0.1-0.5-0.3-0.9-0.4c-0.3-0.2-0.5-0.4-0.7-0.6
		c-0.2-0.2-0.2-0.6-0.2-1.1c0-0.5,0.1-0.8,0.3-1c0.2-0.2,0.4-0.3,0.8-0.5c0.6-0.4,1.2-0.8,1.8-1.1c0.6-0.3,1.5-0.6,2.6-1.1
		c0.3-0.1,0.5-0.2,0.7-0.4c0.2-0.1,0.5-0.2,0.8-0.2c0.3,0,0.5,0.1,0.6,0.5c0.2,0.3,0.2,0.6,0.1,0.7c-0.1,0.2-0.2,0.3-0.4,0.5
		c-0.1,0.1-0.4,0.2-0.8,0.3c-0.4,0.1-0.7,0.2-1,0.2c-0.3,0.1-0.7,0.2-1.1,0.4c-0.4,0.2-0.8,0.4-1.1,0.5c-0.3,0.1-0.5,0.3-0.8,0.4
		c-0.2,0.2-0.3,0.3-0.5,0.4s-0.2,0.3,0,0.7l0.7,0.4c0.2,0.1,0.4,0.1,0.7,0.2c0.3,0,0.5,0.1,0.8,0.3c0.5,0.1,0.9,0.1,1.2,0.2
		c0.3,0,0.6,0.1,1,0.2c0.4-0.2,1-0.5,1.7-0.8c0.8-0.3,1.5-0.6,2.1-0.9c0.3-0.1,0.6-0.2,0.8-0.3c0.3-0.1,0.5-0.1,0.8,0
		c0.3,0.1,0.4,0.3,0.5,0.6c0.1,0.3,0.1,0.6-0.1,0.9c-0.1,0.3-0.5,0.5-1.1,0.4c-0.4,0.1-0.8,0.2-1.2,0.4c-0.4,0.1-1,0.4-1.8,0.7
		c-0.4,0.6-0.7,0.9-1,0.9c-0.3,0-0.7,0-1.3,0.1c-1,0.3-1.9,0.7-2.8,1.2c-0.9,0.5-1.5,0.8-1.9,1.1c-0.4,0.3-0.7,0.6-0.8,0.9
		c0.4,0.1,0.9,0.2,1.4,0.2c0.5,0,1.4-0.1,2.4-0.2c1.1-0.1,2-0.3,2.7-0.5c0.2-0.1,0.5-0.2,0.8-0.3c0.3,0,0.6-0.1,0.8-0.1
		c0.2-0.1,0.5-0.2,0.8-0.3c0.4-0.2,0.7-0.4,1-0.8c0-0.3,0.1-0.5,0.4-0.6c0.3-0.1,0.6-0.2,1-0.2c0.4,0,0.7,0.3,0.8,0.9
		c1.2,0.6,1.9,0.9,2.2,1.1c0.3,0.1,0.6,0.3,1,0.4c0.4,0,0.7,0,0.9,0.2c0.2,0.1,0.4,0.4,0.5,0.6c0.1,0.3,0.1,0.5-0.1,0.7
		c-0.2,0.2-0.4,0.3-0.6,0.3c-0.2,0-0.5,0-0.7-0.1C140.1,80.3,139.8,80.1,139.3,79.8z M127.8,57.6c-0.8,0.1-1.5,0.2-2.1,0.3
		c-0.2,0.6-0.3,1.3-0.5,2c0.3,0,0.6-0.1,1-0.1c0.3,0,0.7,0,1.1,0.1c0.5,0.1,0.8,0.3,0.9,0.6c0.1,0.3,0.1,0.6-0.1,0.9
		c-0.2,0.3-0.4,0.4-0.6,0.4s-0.4-0.1-0.6-0.3c-0.3-0.1-0.5-0.2-0.7-0.1c-0.2,0-0.6,0.1-1,0.1l-0.4,1.8c0.5,0,0.8,0,1.1-0.1
		c0.3-0.1,0.5-0.1,0.8-0.1c0.2,0,0.4,0.1,0.6,0.1c0.1,0.1,0.3,0.2,0.5,0.2c0.4-0.6,0.7-1.1,0.9-1.6c0.2-0.5,0.5-1,0.7-1.6
		c0.3-0.5,0.4-0.9,0.4-1.2c0-0.2,0-0.4-0.1-0.6c-0.1-0.2-0.3-0.3-0.6-0.5c-0.3-0.2-0.5-0.3-0.7-0.3
		C128.4,57.8,128.1,57.7,127.8,57.6z M132.4,59.9c0.4-0.5,0.8-1.2,1.3-2c0.4-0.8,0.8-1.5,1-2c0.2-0.5,0.4-1,0.6-1.6
		c0.2-0.6,0.2-1,0.1-1.3c0-0.4-0.1-0.7-0.1-1c0-0.2,0-0.4,0.1-0.5c0.1-0.1,0.2-0.2,0.3-0.3c0.1-0.1,0.3-0.1,0.5,0
		c0.2,0,0.4,0.2,0.5,0.4c0.3,0.1,0.4,0.4,0.4,0.8c0,0.4,0,0.7,0,0.9c0,0.2-0.2,0.6-0.4,1.2s-0.4,1.1-0.5,1.3
		c-0.1,0.3-0.2,0.6-0.4,1.1c-0.2,0.6-0.4,1-0.6,1.3c-0.2,0.3-0.3,0.5-0.4,0.7c-0.1,0.2-0.2,0.4-0.3,0.6c-0.1,0.2-0.2,0.5-0.4,0.8
		c-0.2,0.4-0.4,0.8-0.6,1c-0.1,0.3-0.3,0.5-0.5,0.8c-0.2,0.3-0.5,0.3-0.9,0.1c-0.4-0.2-0.6-0.5-0.5-0.8c0.1-0.4,0.2-0.6,0.3-0.8
		C132,60.5,132.2,60.2,132.4,59.9z M143.6,52.4c0.2,0.2,0.4,0.4,0.5,0.8c0.1,0.3,0.2,0.6,0.2,0.8c0,0.2,0,0.5-0.1,0.9
		c-0.2,0.3-0.4,0.6-0.6,0.9s-0.4,0.6-0.5,0.8c-0.1,0.3-0.3,0.7-0.4,1.2c0.1,0.3,0,0.6-0.2,0.8c0.1,0.5,0.1,0.9,0,1.2
		c0.2,0.5,0.4,0.8,0.5,0.9c0.2,0.2,0.4,0.3,0.8,0.3c0.4,0.1,0.8-0.1,1.4-0.5c0.6-0.4,1.2-1,1.9-2c0.2-0.4,0.4-0.8,0.6-1.2
		s0.3-0.7,0.5-0.9c0.2-0.2,0.4-0.2,0.7,0c0.3,0.2,0.4,0.4,0.5,0.7c0.1,0.2,0.1,0.5,0.1,0.6c0,0.2-0.2,0.6-0.5,1.1
		c-0.4,0.6-0.9,1.2-1.5,1.8c-0.5,0.5-1.1,0.9-1.5,1.1c-0.5,0.2-0.8,0.3-1,0.4c-0.2,0.1-0.6,0.1-1.2,0.1c0.2,0.4,0.2,0.7,0.2,1
		c0,0.3-0.1,0.6-0.3,1c-0.5,0.8-1,1.4-1.4,1.8c-0.4,0.4-1,1-2,1.9c0.4,0.5,0.8,0.8,1,1c0.2,0.2,0.6,0.4,1.1,0.7
		c0.2,0.2,0.4,0.4,0.7,0.5c0.3,0.1,0.7,0.3,1.3,0.6c0.6,0.3,1.2,0.5,1.9,0.7c0.3,0.2,0.7,0.3,1.1,0.3c0.2-0.1,0.4,0,0.6,0.1
		c0.2,0.1,0.3,0.1,0.4,0.1c0.1,0,0.3,0,0.5,0.1s0.4,0.3,0.5,0.6c0.1,0.3,0.1,0.6,0,0.7c-0.2,0.1-0.3,0.3-0.5,0.4
		c-0.2,0.1-0.5,0.1-0.9,0.1c-1.5-0.5-3.1-1.3-4.7-2.1c-1.6-0.9-3-1.8-4-2.8c-0.7,0.5-1.2,0.9-1.6,1.1c-0.4,0.2-0.9,0.6-1.6,1
		c-0.3,0.3-0.7,0.5-1,0.7c-0.3,0.2-0.7,0.3-1.1,0.4c-0.4,0-0.6-0.1-0.8-0.4c-0.2-0.3-0.2-0.6,0-0.9c0.2-0.3,0.6-0.5,1.2-0.6
		c0.4-0.2,0.7-0.4,1-0.5c0.2-0.1,0.6-0.3,1.2-0.6c0.5-0.3,1-0.7,1.5-1.1c-0.3-0.2-0.5-0.4-0.7-0.5c-0.1-0.1-0.3-0.3-0.5-0.5
		c-0.2-0.2-0.3-0.4-0.2-0.6c0-0.2,0.2-0.4,0.5-0.6c0.3-0.2,0.6-0.3,0.9-0.3c0.3,0.2,0.5,0.4,0.6,0.6c0.1,0.3,0.3,0.5,0.6,0.9
		c0.5-0.3,0.9-0.6,1.2-0.9c0.2-0.3,0.5-0.6,0.7-0.8c0.2-0.2,0.4-0.5,0.7-0.8c0-0.2,0.2-0.5,0.5-0.7c0-0.3-0.1-0.6-0.2-0.6
		c-0.2-0.1-0.5-0.1-0.9-0.1c-0.5,0.1-0.9,0.2-1.1,0.2c-0.2,0-0.5,0.1-1,0.2c-0.4,0.2-0.8,0.3-1.4,0.4c-0.6,0.2-0.9,0.4-1.1,0.5
		c-0.1,0.1-0.4,0.2-0.7,0.2c-0.3,0.3-0.5,0.5-0.9,0.7c0.1,0.5-0.1,0.8-0.5,0.9c-0.4,0.1-0.7,0.1-0.9,0s-0.4-0.3-0.6-0.6
		c-0.2-0.3-0.2-0.6-0.1-0.8c0.1-0.3,0.2-0.5,0.4-0.7c0.2-0.2,0.7-0.5,1.6-0.8c0.9-0.3,1.7-0.5,2.1-0.7c0.5-0.2,1.7-0.5,3.7-0.8
		c0.4-0.1,0.8-0.1,1.1-0.1c-0.4-0.5-0.6-1.2-0.7-2c0-1,0.1-1.8,0.4-2.6c0.3-0.8,0.6-1.5,1-2.1c0.2-0.4,0.2-0.7,0.2-0.9
		c-0.1-0.2-0.2-0.3-0.4-0.3s-0.5,0-1,0.1c-0.5,0.1-0.9,0.2-1,0.3c-0.1,0.1-0.5,0.3-1.1,0.5c-0.2,0.2-0.4,0.4-0.4,0.6
		s-0.2,0.3-0.6,0.3c-0.4,0-0.6-0.1-0.8-0.4c-0.2-0.3-0.2-0.6-0.2-0.9c0.1-0.3,0.6-0.7,1.6-1.2s1.9-0.7,2.5-0.8
		C142.3,52,142.9,52.1,143.6,52.4z M141.6,84.8c0.4,0.3,0.8,0.6,1,0.7c0.2,0.1,0.4,0.3,0.4,0.5c0.1,0.2,0,0.4-0.2,0.7
		c-0.2,0.3-0.4,0.4-0.8,0.3s-0.6-0.2-0.8-0.4c-0.2-0.3-0.4-0.4-0.6-0.5c-0.2,0-0.3-0.1-0.4-0.2c-0.2-0.2-0.5-0.5-0.8-0.7
		c-0.4-0.3-0.8-0.5-1.1-0.9c-0.3-0.1-0.6-0.2-0.7-0.4c-0.3-0.1-0.7-0.3-1-0.5c-0.3-0.2-0.6-0.4-0.9-0.7c-0.2-0.4-0.2-0.9,0-1.3
		c0.3-0.4,0.6-0.5,1.1-0.3c0.3,0.1,0.6,0.3,0.7,0.5c0.1,0.2,0.3,0.4,0.4,0.7c0.2,0.2,0.5,0.5,0.9,0.8c0.4,0.3,0.8,0.5,1.1,0.8
		C140.3,84.1,140.8,84.4,141.6,84.8z"/>
	<path class="st0" d="M169.9,60.6c-0.3,0.3-0.6,0.7-1,1.2c-0.3,0.4-0.6,0.8-0.8,1.1c-0.2,0.3-0.5,0.7-0.9,1.3
		c-0.4,0.5-0.7,1-1.1,1.5c0.5,0.1,0.8,0.1,1.1,0.1c0.3,0,0.6,0,0.9,0.1c0.3,0,0.7,0.1,1.1,0.3c0.4,0.2,0.7,0.3,0.8,0.4
		c0.1,0.1,0.3,0.3,0.4,0.4c0.1,0.1,0.3,0.4,0.6,0.9c0.1,0.2,0.2,0.5,0.2,0.8s0.1,0.6,0.1,0.8s-0.1,0.6-0.2,1.1
		c-0.2,0.6-0.4,1-0.5,1.3s-0.3,0.6-0.4,1c-0.2,0.4-0.5,0.9-1,1.6c-0.5,0.7-0.9,1.2-1.1,1.4c-0.2,0.2-0.5,0.5-0.7,0.7
		c-0.2,0.2-0.5,0.4-0.7,0.6c-0.4,0.3-0.7,0.5-1,0.6c-0.3,0.1-0.6,0.1-0.8,0.2s-0.5,0-0.8,0c-0.3,0-0.6-0.2-1-0.5
		c-0.5-0.5-0.9-0.9-1.2-1.3c-0.3-0.4-0.4-0.7-0.4-0.9c0-0.2,0.1-0.5,0.4-0.8c0.3-0.3,0.7-0.2,1.3,0.1c0.2,0.3,0.4,0.6,0.6,0.8
		c0.2,0.2,0.4,0.4,0.4,0.5c0.1,0.1,0.3,0.2,0.5,0.2c0.3,0,0.6-0.1,1.1-0.4c0.3-0.3,0.5-0.5,0.7-0.6c0.2-0.1,0.3-0.3,0.4-0.4
		s0.3-0.3,0.5-0.3c0-0.3,0.2-0.6,0.5-0.8c0.2-0.4,0.4-0.6,0.5-0.8c0.1-0.2,0.2-0.4,0.4-0.6c0.1-0.2,0.2-0.5,0.3-0.8
		c0.1-0.3,0.2-0.5,0.3-0.8c0.1-0.3,0.2-0.6,0.3-1.1c0-0.8-0.2-1.2-0.4-1.3c-0.2-0.1-0.6-0.3-0.9-0.6c-0.4,0-0.7-0.1-1-0.2
		c-0.3,0.1-0.5,0.1-0.7,0c-0.2-0.1-0.4-0.1-0.7-0.1c-0.3,0-0.7,0.1-1.3,0.1c-0.8,1.1-1.3,1.9-1.6,2.4c-0.2,0.2-0.4,0.4-0.6,0.8
		s-0.4,0.7-0.6,1c-0.7,1.1-1.2,2-1.8,2.7c-0.5,0.7-1,1.4-1.5,2c-0.5,0.6-0.8,1.1-1,1.5c-0.2,0.4-0.6,0.8-1,1.4
		c-0.2,0.5-0.4,0.8-0.7,1c-0.2,0.1-0.5,0.2-0.9,0.2c-0.4,0-0.6-0.3-0.7-0.8c-0.1-0.5,0-0.9,0.2-1.1c0.2-0.2,0.4-0.5,0.6-0.6
		c0.2-0.2,0.4-0.3,0.5-0.5c0.2-0.3,0.4-0.6,0.7-0.9c0.2-0.3,0.4-0.6,0.7-0.7c0.3-0.4,0.6-0.8,0.9-1.1c0.1-0.3,0.2-0.4,0.3-0.5
		c0.1-0.1,0.2-0.2,0.3-0.4c0.1-0.2,0.3-0.4,0.6-0.5c0-0.2,0.1-0.3,0.2-0.5s0.2-0.3,0.3-0.4c0.1-0.1,0.2-0.3,0.3-0.6
		c0.2-0.2,0.3-0.4,0.4-0.4c0.1-0.1,0.1-0.2,0.2-0.3c0-0.1,0.1-0.2,0.3-0.3c0.2-0.1,0.3-0.1,0.4-0.3c0.1-0.1,0.1-0.3,0.3-0.6
		c0.2-0.1,0.3-0.3,0.4-0.5c0.1-0.2,0.2-0.3,0.2-0.5c0-0.1,0.4-0.7,1.1-1.6c-0.6,0.1-1,0.1-1.3,0.2c-0.3,0.1-0.6,0.1-1.1,0.2
		c-0.3,0.2-0.6,0.2-0.9,0.2c-0.2,0.2-0.5,0.3-0.8,0.2c-0.2,0.2-0.5,0.3-0.9,0.3c-0.4,0.3-0.7,0.5-0.9,0.6s-0.4,0.2-0.6,0.4
		c0.1,0.4,0.1,0.7,0,0.8c-0.1,0.1-0.3,0.3-0.5,0.4c-0.2,0.2-0.4,0.2-0.5,0.1c-0.1-0.1-0.3-0.1-0.5-0.2c-0.5-0.3-0.7-0.8-0.7-1.4
		c0-0.6,0.2-1,0.6-1.2c1-0.5,1.8-0.8,2.2-1c0.5-0.1,0.9-0.3,1.4-0.4c0.5-0.1,1.2-0.3,2-0.4c0.8-0.2,2-0.3,3.5-0.5
		c0.2-0.3,0.3-0.6,0.5-0.9c0.2-0.3,0.3-0.5,0.3-0.6c0-0.1,0.1-0.3,0.3-0.5c0.2-0.3,0.4-0.6,0.6-0.9c0-0.2,0.1-0.4,0.2-0.5
		c0.1-0.2,0.3-0.5,0.6-0.8c0.1-0.3,0.2-0.6,0.5-0.8c0.1-0.2,0.1-0.3,0.2-0.4c0.1-0.1,0.2-0.4,0.4-0.9c0.1-0.3,0.2-0.4,0.4-0.6
		c0.2-0.1,0.5-0.2,1-0.3c0.4,0.1,0.7,0.2,1,0.5c0.3,0.3,0.4,0.6,0.2,0.8C170.4,60.2,170.2,60.4,169.9,60.6z M184.6,75.2
		c0.4,0.1,0.7,0.2,0.9,0.4c0.2,0.2,0.4,0.3,0.6,0.3c0.2,0.1,0.4,0.2,0.6,0.3c0.3,0.2,0.6,0.3,1,0.4s0.7,0.2,1,0.4
		c0.3,0.1,0.5,0.3,0.6,0.7c0.1,0.3,0.1,0.6-0.1,0.8s-0.4,0.3-0.6,0.4c-0.2,0.1-0.4,0.1-0.6,0.1c-0.1,0-0.3-0.1-0.4-0.2
		c-0.1-0.1-0.4-0.3-0.9-0.4c-0.8-0.5-1.4-0.8-1.7-1c-0.4-0.2-0.7-0.4-0.9-0.6c-0.4-0.3-0.8-0.5-1-0.8c-0.2-0.2-0.5-0.5-0.8-0.8
		c-0.3-0.1-0.5-0.3-0.7-0.8c-0.1-0.3-0.3-0.6-0.5-0.7c-0.2-0.1-0.3-0.3-0.5-0.6c-0.2-0.1-0.4-0.3-0.4-0.4c-0.1-0.1-0.1-0.3-0.3-0.4
		c-0.1-0.1-0.3-0.4-0.5-0.7c-0.3-0.6-0.7-1.2-1-1.7c-0.4-0.5-0.7-1-0.9-1.6c-0.1-0.3-0.2-0.5-0.3-0.6s-0.2-0.3-0.3-0.4
		c-0.1-0.2-0.2-0.4-0.3-0.7c-0.2-0.2-0.4-0.3-0.4-0.6c-0.1-0.2-0.2-0.4-0.3-0.6c-0.3-0.4-0.3-0.8-0.1-1.1c0.2-0.3,0.4-0.4,0.6-0.4
		c0.2,0,0.4,0,0.6,0.1c0.2,0,0.4,0.1,0.7,0.3c0.2,0.2,0.3,0.4,0.4,0.8c0.3,0.5,0.4,0.8,0.5,1c0,0.2,0.1,0.4,0.3,0.6
		c0.2,0.4,0.5,0.9,0.8,1.6c0.4,0.6,0.8,1.4,1.4,2.4c0.5,1,1,1.6,1.3,2c0.3,0.4,0.7,0.8,0.9,1.2c0.3,0.2,0.5,0.4,0.7,0.7
		c0.2,0.1,0.3,0.2,0.4,0.3C184.2,74.8,184.3,75,184.6,75.2z M181.6,65.6c-0.2-0.4-0.3-0.7-0.5-1c-0.1-0.3-0.3-0.8-0.4-1.4
		c-0.2-0.6-0.3-1.1-0.3-1.4c-0.1-0.3,0-0.7,0.1-1c0.1-0.3,0.2-0.5,0.4-0.8c0.2-0.3,0.4-0.4,0.6-0.4c0.2,0,0.4,0,0.6,0
		c0.2,0,0.3,0.1,0.4,0.3c0.1,0.2,0.2,0.3,0.2,0.5c0,0.1,0,0.4-0.1,0.7c-0.1,0.4-0.2,0.6-0.2,0.7c-0.1,0.1,0,0.4,0.1,0.9
		c0.2,0.4,0.3,0.7,0.2,1.1c0.1,0.2,0.2,0.4,0.3,0.6c0.1,0.2,0.2,0.4,0.4,0.8c0.2,0.3,0.5,0.6,0.7,0.7c0.2,0.1,0.3,0.3,0.3,0.6
		c0,0.3-0.1,0.5-0.4,0.8c-0.2,0.3-0.6,0.3-1,0.1c-0.4-0.2-0.7-0.4-0.9-0.7C182,66.2,181.8,65.9,181.6,65.6z M186.7,65.7
		c0-0.4,0-0.7-0.1-1s0-0.5,0-0.8c0-0.2,0-0.5,0-0.9c-0.1-0.4,0-0.8,0-1.2c-0.1-0.4,0-0.7,0.2-1s0.5-0.4,0.9-0.4
		c0.4,0.1,0.7,0.2,0.8,0.4c0.2,0.2,0.3,0.3,0.3,0.5s0,0.5-0.1,0.8c0,0.3,0,0.6-0.1,1c-0.1,0.3-0.1,0.6-0.1,0.8c0,0.2,0,0.6,0,1.2
		c0.2,0.4,0.3,0.7,0.3,1c-0.1,0.3-0.2,0.5-0.3,0.6c-0.1,0.1-0.3,0.2-0.5,0.2c-0.2,0-0.4,0-0.5,0c-0.1-0.1-0.3-0.2-0.5-0.4
		C186.8,66.2,186.7,66,186.7,65.7z"/>
	<path class="st0" d="M211.5,68.9c0.5,0.3,0.8,0.6,1,0.9c0.2,0.3,0.4,0.6,0.5,1c0.1,0.4,0.1,0.7,0.1,1c0,0.3,0,0.5-0.1,0.8
		c0,0.2-0.1,0.5-0.4,0.8c-0.2,0.3-0.4,0.7-0.7,1c-0.3,0.4-0.9,1-1.8,1.7c-0.9,0.8-1.8,1.5-2.9,2.2c-1.1,0.7-2.2,1.5-3.3,2.2
		c-1,0.5-1.7,1-2.3,1.2c-0.8,0.5-1.4,0.7-1.8,0.6c-0.3-0.1-0.6-0.2-0.8-0.4c-0.2-0.2-0.2-0.4-0.2-0.6c0.1-0.2,0.1-0.4,0.3-0.5
		c0.1-0.1,0.2-0.3,0.4-0.4c0.2-0.2,0.4-0.3,0.8-0.4c0.3-0.1,0.8-0.2,1.3-0.3c0.3-0.2,0.6-0.4,1.1-0.5c0.2-0.2,0.4-0.3,0.6-0.4
		s0.4-0.2,0.7-0.3c0.3-0.3,0.5-0.5,0.8-0.6c0.2-0.1,0.7-0.3,1.3-0.6l1.6-1.2c0.3-0.3,0.6-0.6,0.9-0.7c0.3-0.2,0.5-0.3,0.5-0.4
		c0.1-0.1,0.3-0.3,0.7-0.6c0.1-0.3,0.3-0.6,0.6-0.7c0.2-0.2,0.3-0.3,0.4-0.5c0.1-0.2,0.2-0.4,0.3-0.6c0.1-0.2,0.1-0.6,0-1.2
		c-0.3-0.4-0.5-0.7-0.6-0.7c-0.1-0.1-0.2-0.1-0.3-0.3c-0.1-0.1-0.2-0.2-0.4-0.2c-0.2,0-0.4-0.1-0.5-0.1s-0.4-0.2-0.7-0.4
		c-0.4-0.1-0.7-0.1-1-0.1c-0.3,0-0.6,0-0.8-0.1c-0.2-0.1-0.8-0.1-1.8,0c-1,0.1-2.1,0.2-3.5,0.4c-0.3,0.3-0.7,0.4-1.1,0.4
		c-0.2,0.2-0.5,0.4-0.9,0.4c-0.3,0.2-0.6,0.3-1,0.4c-0.4,0.1-0.7,0.3-1,0.6c-0.1,0.4-0.3,0.7-0.5,0.9c-0.2,0.2-0.5,0.3-0.8,0.4
		c-0.3,0.1-0.6,0.1-0.9-0.1c-0.3-0.2-0.4-0.4-0.4-0.8c-0.1-0.4,0-0.7,0.3-1c0.2-0.3,0.5-0.5,0.8-0.7c0.3-0.2,0.8-0.5,1.6-0.8
		s2.1-0.6,3.9-1c1.6-0.3,2.6-0.5,3.2-0.5c0.5,0,1,0,1.4,0c1.2,0.1,2.3,0.2,3.2,0.4C210.4,68.5,211.1,68.7,211.5,68.9z"/>
	<path class="st0" d="M234.4,66.7c0.2-0.4,0.5-0.5,0.8-0.5c0.1-0.3,0.2-0.4,0.4-0.4c0.1,0,0.3-0.1,0.3-0.2c0.1-0.1,0.2-0.3,0.5-0.4
		c0.2-0.1,0.4-0.2,0.5-0.4c0.1-0.2,0.2-0.3,0.4-0.4c0.1,0,0.3-0.3,0.5-0.6c0.1-0.2,0-0.4-0.4-0.6s-1-0.2-2.2-0.3
		c-0.3,0-0.5-0.1-0.7-0.1c-0.2,0-0.4,0-0.6,0c-0.2,0-0.4,0.1-0.5,0.1c-0.1,0-0.3,0-0.5,0c-0.2-0.1-0.3,0-0.5,0
		c-0.1,0.1-0.4,0-0.7-0.1c-0.1,0.2-0.3,0.2-0.4,0.1c-0.2-0.1-0.3-0.1-0.4,0c-0.1,0.1-0.3,0.1-0.4,0.1c-0.2,0.1-0.3,0.2-0.5,0.2
		c-0.2,0-0.4,0-0.7-0.1c-0.3,0.2-0.5,0.2-0.7,0.2c-0.3,0.1-0.6,0.1-0.7,0.2c-0.1,0.1-0.3,0.1-0.4,0c-0.5,0-0.9,0.1-1.3,0.2
		c-0.2,0.1-0.4,0.1-0.6,0.2c-0.2,0-0.4,0.1-0.7,0.1c-0.2,0-0.6,0.2-1.1,0.4c-0.2,0.5-0.3,0.8-0.5,1c-0.1,0.1-0.3,0.2-0.4,0.4
		c-0.2,0.1-0.4,0.1-0.7,0s-0.6-0.3-0.9-0.6c-0.3-0.3-0.4-0.7-0.3-1.1c0.1-0.4,0.3-0.7,0.6-1c0.4-0.2,0.8-0.4,1.3-0.4
		c0.6-0.2,1.4-0.3,2.2-0.5c0.8-0.1,1.6-0.3,2.1-0.3c0.4-0.1,0.7-0.2,0.9-0.1s0.4,0,0.5,0c0.2-0.1,0.4-0.1,0.6-0.1c0.2,0,0.5,0,0.7,0
		c0.2,0,0.4,0,0.5-0.1c0.1-0.1,0.3-0.1,0.6-0.1c0.3,0,0.7,0.1,1.1,0.2c0.3-0.1,0.7-0.2,1.3-0.3c0.4,0.1,0.8,0.1,1.2,0
		c1.3,0.1,2.5,0.2,3.7,0.5c0.4,0.2,0.7,0.4,1,0.6c0.3,0.3,0.4,0.6,0.4,1c0,0.4-0.1,0.8-0.3,1.1c-0.2,0.3-0.3,0.6-0.4,0.8
		s-0.4,0.5-0.9,0.8c-0.4,0.2-0.9,0.5-1.5,1c-0.6,0.4-1.3,0.9-2,1.5c-0.7,0.5-1.5,1.1-2.3,1.8c-0.8,0.7-1.6,1.3-2.4,2
		c-0.4,0.5-0.9,1-1.2,1.5c-0.4,0.5-0.6,0.9-0.7,1.2c-0.1,0.3-0.2,0.6-0.2,1.1c0,0.4,0.2,0.8,0.6,1.2c0.3,0.2,0.6,0.4,0.9,0.7
		c0.3,0,0.6,0.1,0.8,0.2c0.2,0.1,0.4,0.2,0.7,0.3s0.9,0.3,1.8,0.6c0.2,0.1,0.4,0.1,0.7,0.1c0.3,0,0.6,0.1,0.9,0.3
		c0.5,0,0.9,0.1,1.2,0.3c0.2,0.1,0.4,0.3,0.6,0.4c0.2,0.1,0.2,0.3,0.2,0.5c0,0.2-0.1,0.4-0.2,0.6c-0.1,0.2-0.3,0.4-0.5,0.4
		c-0.2,0.1-0.4,0.1-0.6,0.1c-0.2,0-0.6-0.1-1.1-0.3c-0.4-0.1-0.8-0.3-1-0.4c-0.4-0.2-1-0.4-1.7-0.7c-0.8-0.3-1.4-0.6-1.9-0.9
		c-0.4-0.2-0.8-0.3-1.1-0.5c-0.3-0.2-0.6-0.5-0.9-0.8c-0.6-0.4-1-0.9-1.1-1.5c-0.1-0.6,0-1.3,0.2-1.9c0.3-0.6,0.6-1.2,1-1.7
		s0.8-1,1.2-1.4c0.1-0.3,0.4-0.4,0.7-0.5c0.1-0.3,0.2-0.5,0.3-0.6c0.1-0.1,0.3-0.3,0.8-0.5c0.4-0.4,1-0.9,1.5-1.3
		c0.6-0.5,1-0.8,1.4-1c0.1-0.2,0.2-0.4,0.4-0.5C234.1,66.9,234.3,66.8,234.4,66.7z"/>
	<path class="st0" d="M252.5,67.4c-0.1,0.7-0.1,1.2,0.1,1.6c0.1,0.4,0.2,0.6,0.1,0.8c0,0.1,0,0.4,0.2,0.9c0.1,0.3,0.3,0.8,0.5,1.5
		c0.2,0.7,0.4,1.3,0.7,2c0.3,0.6,0.6,1.2,0.9,1.7c0.2,0.3,0.5,0.6,0.7,1c0.3,0.3,0.6,0.5,0.8,0.6c0.2,0.1,0.6,0,1.1-0.3
		c0.4-0.5,0.8-0.8,1.1-1c0.2-0.3,0.3-0.6,0.4-0.7s0.3-0.3,0.6-0.6c0.1-0.3,0.2-0.5,0.5-0.7c0.2-0.3,0.4-0.5,0.5-0.6
		c0.1-0.1,0.2-0.3,0.3-0.5c0.1-0.2,0.2-0.3,0.4-0.4c0.2-0.3,0.5-0.7,0.7-1c0.3-0.3,0.5-0.6,0.7-0.9c0.2-0.3,0.4-0.5,0.7-0.7
		c0.2-0.2,0.5-0.2,0.7-0.1c0.2,0.1,0.4,0.3,0.6,0.5s0.2,0.5,0.1,0.8c-0.1,0.2-0.2,0.4-0.4,0.6c-0.1,0.2-0.4,0.4-0.8,0.9
		c-0.5,0.6-1.2,1.3-2,2.2c-0.8,0.8-1.4,1.5-1.9,2.1s-0.9,1.1-1.4,1.6c-0.4,0.2-0.8,0.4-1.1,0.5c-0.4,0.1-0.9,0-1.6-0.2
		c-0.3-0.3-0.6-0.6-0.9-0.7c-0.3-0.2-0.5-0.4-0.7-0.7c-0.3-0.4-0.6-0.9-0.9-1.2c-0.2-0.4-0.4-0.8-0.5-1.2c-0.2-0.4-0.4-0.6-0.5-0.7
		c-0.1-0.1-0.2-0.3-0.1-0.7c0-0.2-0.1-0.4-0.2-0.5c-0.1-0.2-0.2-0.4-0.2-0.7c-0.2-0.2-0.3-0.4-0.3-0.6c0-0.2,0-0.4-0.2-0.6
		c0-0.3,0-0.5,0-0.7c0-0.2,0-0.4,0-0.5c0-0.1,0-0.3-0.1-0.5c-0.1-0.2-0.2-0.3-0.2-0.5c0-0.1,0-0.4,0-0.8c-0.1-0.3-0.2-0.6-0.2-1
		c0-0.4,0-0.6,0-0.9c0-0.2,0-0.4,0-0.6c0-0.3,0-0.6,0-1.1c0-0.4,0-0.8,0.1-1c0.1-0.2,0.1-0.4,0.2-0.6c0.1-0.2,0.3-0.3,0.6-0.4
		c0.3-0.1,0.6-0.2,0.9-0.1c0.3,0.1,0.5,0.3,0.6,0.5c0.1,0.3,0,0.6-0.2,1c-0.1,0.3-0.2,0.7-0.2,1.4C252.4,66.2,252.4,66.8,252.5,67.4
		z M270.9,63.7c-0.1-0.3,0-0.5,0-0.7c0.1-0.2,0.2-0.4,0.4-0.5c0.2-0.1,0.4-0.2,0.6-0.2c0.3,0,0.5,0,0.7,0.1c0.1,0.1,0.2,0.2,0.4,0.6
		c0.2,0.3,0.3,0.8,0.4,1.5c0.1,0.7,0.1,1.6,0.1,2.7c0,1.1,0,2.2,0,3.4c0,0.5,0,1-0.1,1.5c-0.1,0.5-0.1,1-0.1,1.5
		c0.1,0.5,0.2,0.9,0.1,1.2c0,0.2-0.1,0.4-0.3,0.5c-0.1,0.1-0.4,0.2-0.7,0.2c-0.3,0-0.6,0-0.9-0.2c-0.3-0.2-0.5-0.4-0.5-0.7
		c0-0.3,0-0.5,0.1-0.7c0.1-0.2,0.2-0.5,0.2-0.9c0-0.4,0.1-0.8,0.3-1.4c0-0.8,0-1.3,0-1.5c0-0.2,0.1-0.4,0.2-0.5
		c0.1-0.2,0.1-0.4,0-0.5c-0.1-0.2-0.1-0.4-0.1-0.8c0-0.4,0-0.8-0.1-1.2c0-0.3,0-0.7-0.2-1.2c-0.1-0.5-0.2-0.9-0.3-1.3
		C271.1,64.2,271,63.9,270.9,63.7z"/>
	<path class="st0" d="M297.3,79.1c-0.4-0.3-1.2-0.6-2.2-0.9c-0.3-0.1-0.8-0.3-1.5-0.6c-0.7-0.3-1.2-0.5-1.6-0.7
		c-0.4-0.2-0.7-0.3-0.9-0.3c-0.2,0-0.4-0.2-0.7-0.4c-0.3,0-0.6-0.1-0.8-0.4c-0.4,0.1-0.6,0-0.8-0.3c-0.9-0.4-1.5-0.7-1.7-0.9
		c-0.2-0.2-0.6-0.4-1-0.7c-0.4-0.3-0.8-0.7-1.3-1.4c-0.2-0.3-0.4-0.6-0.6-0.9c-0.1-0.3-0.2-0.7-0.3-1.1c-0.1-0.4,0.1-0.8,0.4-1.2
		c0.3-0.5,0.5-0.8,0.8-1c0.2-0.2,0.6-0.5,1.2-0.8c0.4-0.3,0.7-0.6,1.1-0.8c0.4-0.3,1-0.6,1.9-1.2c0.9-0.5,1.6-0.9,2.2-1.2
		c0.5-0.3,1.3-0.6,2.1-1c0.7-0.3,1.2-0.6,1.5-0.7c0.3-0.1,0.5-0.3,0.7-0.4c0.1-0.1,0.3-0.2,0.6-0.3c0.3-0.1,0.6-0.2,1.1-0.3
		c0.4,0,0.7,0,1,0.2c0.3,0.1,0.4,0.3,0.4,0.6c0,0.3,0,0.5-0.2,0.8c-0.1,0.2-0.4,0.3-0.8,0.4c-0.4,0.2-0.8,0.3-1.1,0.4
		c-0.3,0.1-0.6,0.2-0.9,0.3s-0.4,0.2-0.6,0.3c-0.2,0.1-0.5,0.2-1,0.4c-0.5,0.2-1.3,0.6-2.5,1.2c-1.2,0.6-2.2,1.1-3,1.6
		c-0.3,0.3-0.6,0.6-1,0.8s-0.7,0.5-1,0.8c-0.2,0.2-0.4,0.4-0.7,0.6c-0.2,0.4-0.4,0.7-0.4,0.9c0,0.2,0.1,0.5,0.2,0.8
		c0.2,0.3,0.5,0.5,0.7,0.8c0.2,0.3,0.5,0.5,0.9,0.7c0.4,0.2,0.8,0.5,1.4,0.8c0.6,0.3,1,0.5,1.3,0.6c0.2,0.1,0.5,0.2,0.7,0.3
		c0.2,0.1,0.9,0.4,2.2,0.9c0.4,0.3,0.7,0.4,0.8,0.4s0.4,0.1,0.7,0.2c0.4,0.1,0.7,0.3,1,0.5c0.2-0.1,0.4-0.1,0.6,0s0.3,0.2,0.5,0.2
		c0.2,0,0.4,0,0.5,0.1c0.1,0,0.3,0.1,0.5,0.3c0.3,0.1,0.7,0.1,1,0.2c0.5,0.1,0.9,0.2,1.1,0.4s0.3,0.4,0.4,0.6c0.1,0.1,0,0.3,0,0.5
		c-0.1,0.2-0.2,0.3-0.5,0.5c-0.2,0.1-0.5,0.2-0.8,0.2c-0.3,0-0.6-0.1-0.9-0.2C297.9,79.3,297.6,79.2,297.3,79.1z"/>
</g>
</svg>
