<?xml version="1.0" encoding="utf-8"?>
<!-- Generator: Adobe Illustrator 27.9.0, SVG Export Plug-In . SVG Version: 6.00 Build 0)  -->
<svg version="1.1" id="レイヤー_1" xmlns="http://www.w3.org/2000/svg" xmlns:xlink="http://www.w3.org/1999/xlink" x="0px"
	 y="0px" width="290.4px" height="86.1px" viewBox="0 0 290.4 86.1" style="enable-background:new 0 0 290.4 86.1;"
	 xml:space="preserve">
<style type="text/css">
	.st0{fill:#0000FF;}
</style>
<g>
	<path class="st0" d="M9.3,12.7c-0.1,0.2-0.1,0.4-0.1,0.6c0,0.2-0.1,0.4-0.3,0.6c0.1,0.3,0,0.7-0.1,1c-0.2,0.6-0.3,1.2-0.4,1.9
		c0,0.2,0,0.4-0.1,0.6c-0.1,0.2-0.1,0.4-0.1,0.6c-0.1,0.3-0.2,0.6-0.1,0.8c0,0.3,0,0.5-0.1,0.7c-0.1,0.6-0.1,1.2-0.3,1.7
		c0.1,0.2,0.1,0.5,0,0.7c-0.1,0.2,0,0.5,0.1,0.7c-0.2,0.3-0.2,0.7-0.2,1c0,0.3,0,0.5,0,0.7c0,0.2,0,0.4,0,0.5c0,0.2,0,0.4,0,0.7
		c0.1,0.5,0.1,0.8,0.2,1c0,0.3,0.1,0.5,0.3,0.6c0.2,0.1,0.3,0.4,0.4,0.7c0.2,0.4,0.5,0.6,0.7,0.6s0.4,0.2,0.6,0.3
		c0.1,0.2,0.1,0.5,0,0.9s-0.5,0.6-1,0.6c-0.5,0-0.8-0.2-1-0.5c-0.3-0.2-0.6-0.5-0.8-0.8c-0.1-0.3-0.3-0.6-0.5-0.9
		c-0.2-0.3-0.3-0.6-0.3-0.9c0-0.3-0.1-0.7-0.2-1.3c0-0.6,0-1.1,0-1.4c0-0.9,0-1.4,0.1-1.7c0.1-0.3,0.1-0.6,0.1-1
		c0.3-2.2,0.5-3.8,0.6-4.7c0.1-1,0.3-1.9,0.5-2.9c0.2-1,0.4-2,0.7-3c0.3-1,0.4-1.7,0.5-1.9C8.8,8.7,8.9,8.3,9,8
		c0.1-0.2,0.2-0.4,0.5-0.4c0.2-0.1,0.5-0.1,0.7,0c0.2,0.1,0.4,0.3,0.6,0.5C11,8.4,11,8.6,10.8,9c-0.2,0.4-0.4,0.7-0.5,0.9
		c-0.1,0.2-0.2,0.3-0.2,0.5c0,0.2-0.1,0.4-0.1,0.6C10,11.2,9.7,11.7,9.3,12.7z M18.5,16.7c-0.7,0-1.5,0-2.4,0s-1.4,0.1-1.6,0.1
		C14.3,16.9,14,17,13.7,17c-0.3,0-0.7,0.1-1.1,0.2c-0.2,0.5-0.4,0.7-0.6,0.8c-0.2,0.1-0.4,0.1-0.7,0.1c-0.3,0-0.6-0.3-0.9-0.8
		c-0.3-0.5-0.2-1,0.3-1.4c0.2-0.2,0.4-0.3,0.7-0.3c0.3,0,0.5-0.1,0.8-0.2c0.3-0.1,0.7-0.2,1.2-0.1c0.5-0.1,1.5-0.1,3-0.2
		c1.5-0.1,2.5-0.1,3.1,0s1.2,0.2,1.8,0.2c0.3,0.2,0.5,0.3,0.8,0.5c0.2,0.2,0.4,0.4,0.5,0.7c0.1,0.3,0.1,0.6,0.2,0.7
		c0,0.1-0.1,0.3-0.3,0.5c-0.2,0.2-0.4,0.4-0.7,0.6c-0.4,0.4-0.8,0.7-1.2,1c-0.4,0.2-0.7,0.4-1,0.5c-0.2,0.1-0.5,0-0.8-0.3
		c-0.3-0.3-0.5-0.6-0.4-0.8c0.1-0.2,0.1-0.4,0.3-0.4c0.1-0.1,0.3-0.2,0.6-0.4c0.4-0.2,0.7-0.5,1-0.7c-0.3-0.1-0.5-0.1-0.7-0.2
		C19.1,16.8,18.9,16.8,18.5,16.7z M23.8,26.1c0.6-0.1,0.9,0,1,0.2c0.1,0.2,0.2,0.4,0.2,0.6c0,0.2-0.2,0.5-0.5,1
		c-0.3,0.1-0.7,0.1-1.1,0.2c-0.3,0.6-0.6,1.1-0.9,1.4c-0.3,0.3-0.6,0.5-1,0.5c-0.4,0-0.7-0.2-0.9-0.6c-0.2-0.4,0-0.9,0.6-1.4
		c-0.4,0.1-0.6,0.1-0.8,0c-0.2,0-0.4,0-0.7,0.1c-0.2,0.1-0.4,0.1-0.6,0.1c-0.2,0-0.4,0-0.5,0.1s-0.3,0-0.4,0c-0.1-0.1-0.3,0-0.4,0
		c-0.1,0.1-0.3,0.1-0.5,0.1c-0.2,0.1-0.3,0.2-0.4,0.1c-0.1-0.1-0.3-0.1-0.6,0c-0.5,0.2-1,0.4-1.5,0.4c-0.2-0.1-0.4-0.1-0.5,0
		c-0.2,0.1-0.3,0.2-0.5,0.1c-0.5-0.1-0.8,0-1,0.1c-0.1,0.1-0.3,0.2-0.6,0.1c-0.1,0.2-0.3,0.3-0.6,0.3c-0.3-0.1-0.5-0.2-0.7-0.5
		c-0.2-0.4-0.2-0.8,0-1.1c0.1-0.3,0.6-0.5,1.4-0.6c1,0,2.1,0,3.1-0.1c1-0.1,2.1-0.2,3.1-0.3s1.8-0.2,2.1-0.2c0.3,0,0.6-0.1,1-0.1
		c0.2,0,0.6-0.1,1-0.2c0.2-0.6,0.5-2,0.9-4c-0.5,0.2-0.8,0.2-1,0.2c-0.2,0-0.3,0-0.5-0.1c-0.2-0.1-0.3,0-0.5,0.1
		c-0.2,0.1-0.4,0.1-0.7,0.1c-0.3,0.1-0.6,0.1-0.8,0.1l-1.1,0.1c-0.2,0-0.4,0.1-0.5,0.1c-0.2,0.1-0.4,0.1-0.7,0
		c-0.3,0.2-0.6,0.2-0.9,0.2s-0.7,0-1.1,0.1c-0.3,0-0.6,0-0.7,0.1c-0.1,0.1-0.3,0.1-0.5,0c-0.2-0.1-0.5-0.1-0.7,0
		c-0.4,0.2-0.6,0.2-0.8,0.3c-0.2,0-0.6,0-1.2,0c-0.4,0-0.7-0.2-0.8-0.6c-0.1-0.4,0-0.7,0.2-0.9c0.2-0.2,0.6-0.4,1.3-0.4
		c0.8-0.1,1.7-0.2,2.5-0.2c0.9-0.1,2.1-0.2,3.7-0.4c1.6-0.2,2.8-0.4,3.5-0.4c0.4-0.1,0.7-0.1,1.1-0.2c0.3,0,0.5,0,0.7,0.1
		c0.3-0.9,0.5-2,0.6-3.2c0.2-1.3,0.3-2.6,0.4-3.9c0-0.5,0-0.9,0-1.2c0-0.4,0-0.7-0.1-1.2c-0.1-0.5-0.2-0.8-0.5-1
		c-0.3-0.2-0.9-0.3-1.7-0.2c-0.4-0.1-0.8-0.1-1.2,0c-0.4,0-0.8,0.1-1.1,0.1c-0.4,0.1-0.8,0.2-1.3,0.2c-0.3,0-0.6,0-0.8,0.2
		c-0.2,0.2-0.3,0.2-0.5,0.2s-0.3,0-0.4,0c-0.1,0.1-0.4,0.1-0.9,0.2c-0.2,0.2-0.5,0.4-0.7,0.5c-0.2,0.2-0.5,0.3-0.7,0.4
		c-0.2,0.1-0.5,0.1-0.7,0.1c-0.2-0.1-0.4-0.2-0.6-0.5c-0.2-0.3-0.2-0.6-0.2-0.9c0-0.3,0.3-0.6,0.8-0.8c1.4-0.5,2.9-0.9,4.6-1.1
		c1.2-0.2,2.1-0.2,2.5-0.3C21.3,8,21.7,8,22.3,8c0.6,0,1,0,1.4,0.2c0.4,0.1,0.7,0.3,0.9,0.5C24.8,8.8,25,9,25.2,9.1
		c0.1,0.2,0.3,0.4,0.3,0.7c0.1,0.3,0.2,0.6,0.3,0.8c0.1,0.2,0.1,0.6,0.1,1.1c-0.1,0.9-0.1,1.6-0.2,2.2c-0.1,0.6-0.2,1.4-0.3,2.6
		c-0.1,1.2-0.3,2.6-0.6,4.1C24.5,22.2,24.2,24,23.8,26.1z M14.9,3.4c0.3-0.2,0.5-0.4,0.6-0.6c0.2-0.1,0.4-0.3,0.7-0.4
		C16.4,2.2,16.6,2,16.7,2c0.2,0,0.3-0.1,0.5-0.2c0.3-0.2,0.5-0.3,0.7-0.4s0.4-0.2,0.6-0.3c0.5-0.4,1.2-0.7,2.1-0.9
		C20.9,0.1,21.3,0,21.7,0s0.7,0.2,0.9,0.4c0.2,0.3,0.3,0.6,0.2,1c0,0.4-0.2,0.6-0.4,0.8c-0.2,0.1-0.5,0.2-0.6,0.1
		c-0.2-0.1-0.6-0.1-1.2-0.2c-0.4,0-0.6,0.1-0.8,0.2c-0.2,0.1-0.3,0.2-0.4,0.3c-0.1,0.1-0.3,0.1-0.8,0.2c-0.4,0.3-0.8,0.5-1.2,0.7
		c-1.4,0.9-2.8,1.9-4.2,3.2c-0.4,0.2-0.7,0.3-1,0.2c-0.2,0-0.4-0.2-0.5-0.5c-0.1-0.3-0.1-0.6,0-0.8c0.1-0.2,0.2-0.4,0.4-0.5
		c0.1-0.1,0.2-0.2,0.4-0.4c0.1-0.1,0.3-0.3,0.6-0.5c0.3-0.2,0.5-0.4,0.7-0.4c0.2-0.1,0.4-0.2,0.5-0.3C14.3,3.5,14.6,3.3,14.9,3.4z"
		/>
	<path class="st0" d="M41.1,14.7c0.3-0.2,0.5-0.4,0.7-0.5s0.5-0.4,0.9-0.8c0.2-0.3,0.5-0.6,1.2-1.1c0.6-0.4,1-0.8,1.3-1.1
		c0.3-0.3,0.7-0.7,1.3-1.1c0.1-0.3,0.3-0.5,0.5-0.5c0.2-0.4,0.4-0.6,0.6-0.7c0.2-0.3,0.4-0.5,0.5-0.6c0.1-0.1,0.4-0.3,0.7-0.6
		C49,7.5,49.2,7.2,49.6,7c0-0.4,0.2-0.7,0.6-0.8c0.1-0.3,0.4-0.8,0.7-1.3c0.2-0.4,0.3-0.7,0.4-0.9c0.1-0.2,0.3-0.3,0.5-0.4
		c0.2-0.1,0.4-0.1,0.6-0.1c0.3,0.1,0.5,0.3,0.7,0.5c0.2,0.2,0.3,0.5,0.2,0.8c-0.1,0.3-0.2,0.5-0.4,0.7c-0.2,0.2-0.4,0.4-0.6,0.7
		C52.2,6.5,52,6.8,51.6,7c-0.4,0.6-0.7,1-1,1.2c-1.2,1.1-1.9,1.9-2.1,2.2c-0.2,0.3-0.7,0.7-1.5,1.2c-0.4,0.3-0.9,0.8-1.7,1.5
		c-0.8,0.8-1.6,1.5-2.3,2.1c-0.8,0.7-2.2,2.2-4.3,4.5c-0.2,0.1-0.4,0.2-0.7,0.3c-0.3,0.1-0.5,0.1-0.7,0c-0.2-0.1-0.3-0.2-0.4-0.4
		c-0.1-0.2-0.1-0.4,0-0.6c0.1-0.2,0.1-0.4,0.3-0.7c0.2-0.2,0.4-0.4,0.5-0.6c0.3-0.3,0.5-0.5,0.6-0.6c0.1-0.1,0.3-0.3,0.5-0.6
		c0.6-0.5,1.2-1,1.8-1.5C40.9,15.1,41,14.9,41.1,14.7z M58.7,25.7c-0.2,0.4-0.5,0.7-0.7,0.9c-0.2,0.1-0.4,0.3-0.4,0.4
		c-0.1,0.1-0.3,0.4-0.7,0.7c-0.4,0.4-0.9,0.7-1.4,1C55,29,54.6,29.1,54.2,29c-0.4-0.1-0.7-0.3-1-0.5c-0.3-0.2-0.5-0.5-0.7-0.8
		c-0.4-0.6-0.7-1.3-0.7-2.1s-0.1-1.4-0.2-1.9c0-0.5,0-1.4,0-2.5c-0.4,0.5-1,1.1-1.6,1.8c-0.7,0.7-1.3,1.4-2,2.1
		c-0.7,0.7-1.5,1.6-2.6,2.8c-0.2,0.3-0.4,0.6-0.8,0.9c-0.2,0.2-0.3,0.3-0.4,0.4c-0.1,0.1-0.3,0.2-0.5,0.2s-0.4,0-0.8-0.2
		c-0.3-0.1-0.4-0.4-0.4-0.7c0.1-0.3,0.2-0.6,0.4-0.8c0.2-0.2,0.5-0.4,0.7-0.6c0.3-0.2,0.5-0.3,0.8-0.5c0.1-0.3,0.3-0.4,0.5-0.5
		c0.2-0.1,0.5-0.3,0.9-0.7c0.4-0.4,0.8-0.7,1.3-1c0.1-0.3,0.2-0.5,0.4-0.6c0.2-0.2,0.4-0.3,0.5-0.5c0.1-0.2,0.3-0.4,0.6-0.6
		c0.3-0.2,0.5-0.5,0.8-0.8c0.2-0.2,0.4-0.4,0.5-0.6c0.1-0.2,0.2-0.4,0.3-0.5c0.1-0.1,0.3-0.3,0.4-0.5c0.2-0.2,0.4-0.5,0.7-1
		c0.1-0.7,0.3-1.2,0.5-1.7c-0.7,0.2-1.2,0.3-1.3,0.3c-0.1,0-0.3,0.1-0.5,0.2C50,18,49.7,18,49.4,18c-0.3,0.2-0.7,0.4-1,0.5
		c-0.3,0.1-0.8,0.3-1.5,0.6c-0.3,0.2-0.5,0.4-0.7,0.6c-0.2,0.1-0.3,0.3-0.5,0.4c-0.2,0.1-0.4,0.1-0.5,0s-0.4-0.3-0.5-0.6
		c-0.2-0.3-0.2-0.6,0-1c0.1-0.3,0.4-0.6,0.9-0.9c0.5-0.3,1-0.5,1.5-0.6c0.5-0.1,1.4-0.3,2.6-0.6c1.2-0.3,2.7-0.5,4.5-0.7
		c1.8-0.2,2.9-0.3,3.2-0.3c0.3,0,0.6,0,0.9,0c0.3,0,0.6,0,0.9,0c0.3,0,0.6,0,0.8,0c0.2,0,0.5,0,0.9,0.2c0.5,0.1,0.9,0.2,1.2,0.5
		c0.3,0.3,0.5,0.5,0.6,0.8c0.2,0.2,0.3,0.5,0.3,0.9c0,0.3,0,0.6,0,1c-0.1,0.4-0.2,0.8-0.3,1c-0.1,0.2-0.2,0.4-0.3,0.6
		c-0.1,0.2-0.2,0.4-0.2,0.7c0,0.2-0.1,0.4-0.4,0.5c-0.2,0.5-0.4,0.8-0.5,1.1c-0.3,0.3-0.6,0.5-0.6,0.7c-0.1,0.2-0.2,0.4-0.4,0.5
		c-0.1,0.3-0.1,0.6-0.2,0.7c-0.1,0.1-0.3,0.2-0.5,0.4C59.1,25.3,58.9,25.6,58.7,25.7z M58.7,16.8c-0.3,0.1-0.6,0.1-0.8,0
		c-0.2-0.1-0.4,0-0.6,0.1c-0.4,0.1-0.7,0.1-0.8,0c-0.1-0.1-0.3-0.1-0.5,0c-0.2,0.1-0.4,0.1-0.8,0.1c-0.5,0-0.9,0-1.2,0
		c0.1,0.3,0.1,0.6,0,0.9c-0.1,0.3-0.3,0.8-0.6,1.3v0.7c-0.2,0.3-0.2,0.5-0.2,0.8c0,0.3,0.1,0.5,0,0.8c0,0.2-0.1,0.6-0.1,1.1
		c0.1,0.8,0.2,1.6,0.3,2.2c0.1,0.6,0.2,1,0.3,1.3s0.3,0.5,0.4,0.8c0.2,0.3,0.4,0.4,0.7,0.2c0.3-0.2,0.5-0.4,0.8-0.6
		c0.3-0.2,0.6-0.5,0.9-0.8c0.3-0.3,0.5-0.5,0.6-0.7c0.1-0.2,0.4-0.4,0.7-0.8c0.2-0.3,0.4-0.5,0.5-0.9l0.6-0.6
		c0.1-0.4,0.2-0.8,0.4-1.1c0.2-0.3,0.5-0.7,0.7-1.2c0.3-0.5,0.5-1,0.7-1.4c0.2-0.4,0.3-0.8,0.3-1c0-0.3,0-0.5-0.2-0.8
		c-0.1-0.2-0.4-0.4-0.9-0.4C59.8,17,59.3,16.9,58.7,16.8z M62.4,9.1c0.1,0.4,0.2,0.7,0.4,0.9c0.2,0.2,0.3,0.4,0.4,0.6
		c0.1,0.2,0.4,0.6,0.8,1.3c0.4,0.6,1.3,1.7,2.5,3.1c0.3,0.2,0.6,0.5,0.9,0.8c0.4,0.2,0.7,0.4,1,0.7c0.3,0.3,0.7,0.6,1.2,0.9
		c0.4,0.3,0.8,0.5,1.1,0.7s0.5,0.2,0.7,0.3c0.3,0.1,0.6,0.2,1,0.3c0.2,0.2,0.4,0.3,0.8,0.3c0.3,0.2,0.7,0.4,1.1,0.5
		c0.5,0.1,0.8,0.3,0.9,0.6c0.1,0.4,0.2,0.7,0.1,1c-0.1,0.3-0.3,0.5-0.6,0.5c-0.3,0.1-0.6,0-0.8-0.1c-0.2-0.1-0.5-0.3-0.8-0.6
		c-0.5-0.2-0.9-0.3-1.1-0.5c-0.2-0.2-0.6-0.3-1-0.4c-0.7-0.5-1.8-1.3-3.4-2.3c-1.2-1.1-2.4-2.2-3.5-3.4c-0.2-0.3-0.4-0.5-0.6-0.6
		s-0.2-0.4-0.2-0.8c-0.5-0.3-0.8-0.6-0.9-1c-0.3-0.2-0.5-0.6-0.5-1.1c-0.4-0.1-0.6-0.3-0.6-0.5c-0.1-0.3-0.1-0.5-0.2-0.8
		C60.6,9,60.4,8.5,60.3,8c-0.2-0.3-0.4-0.6-0.5-0.8c-0.1-0.3-0.2-0.6-0.2-0.9c-0.2-0.4-0.4-0.8-0.5-1.2c-0.1-0.4,0-0.7,0.3-1
		c0.3-0.2,0.7-0.3,1-0.3c0.3,0.1,0.5,0.2,0.7,0.4c0.2,0.2,0.3,0.4,0.5,0.6c0.2,0.3,0.2,0.5,0.1,0.6c-0.1,0.2-0.2,0.4-0.3,0.8
		c0.1,0.3,0.1,0.6,0.2,0.9c0.1,0.3,0.2,0.5,0.3,0.8C62.1,8,62.2,8.5,62.4,9.1z"/>
	<path class="st0" d="M88.5,8.1c-0.2,0-0.5,0-0.7,0.1c-0.2,0.1-0.5,0.1-0.9-0.1c-0.2,0.1-0.5,0.2-0.9,0.2c-0.3,0.1-0.6,0.2-0.8,0.3
		c-0.2,0.1-0.4,0.1-0.6,0.1c-0.2,0-0.4,0.1-0.8,0.4c-0.3,0.1-0.5,0.2-0.7,0.3c-0.1,0.1-0.3,0.1-0.5,0c-0.2-0.1-0.4-0.2-0.5-0.3
		c-0.2-0.1-0.3-0.3-0.4-0.5c-0.1-0.2-0.2-0.4-0.1-0.6c0.1-0.2,0.2-0.4,0.3-0.6c0.1-0.2,0.4-0.3,1-0.4c0.8-0.1,1.8-0.2,2.9-0.3
		l1.9-0.2c0.6-0.1,1.2-0.2,1.7-0.2c0.2-0.1,0.4-0.2,0.6-0.2c0.2,0,0.4-0.1,0.5-0.2c0.4-0.4,0.8-0.8,1.2-1.2c0.4-0.4,0.9-0.7,1.6-1
		c0.2-0.1,0.5-0.2,0.7-0.2c0.3-0.1,0.4-0.1,0.6,0s0.3,0.1,0.6,0.1c0.3,0,0.6,0.1,0.8,0.2c0.3,0.1,0.4,0.3,0.5,0.6
		c0.1,0.3,0.1,0.6,0,0.9c-0.2,0.3-0.4,0.6-0.5,0.7c-0.2,0.1-0.4,0.2-0.8,0.2c-0.2,0.2-0.4,0.2-0.6,0.3c-0.1,0-0.4,0.1-0.7,0.2
		C93.7,6.9,93.5,7,93.3,7c-0.2,0-0.3,0-0.4,0.1c-0.1,0.1-0.3,0.1-0.4,0.1c-0.1,0-0.2,0.1-0.3,0.2c-0.1,0.1-0.3,0.1-0.6,0.1
		c-0.2,0.1-0.4,0.2-0.5,0.2c-0.1,0.1-0.2,0.2-0.3,0.3c-0.1,0.2-0.2,0.3-0.4,0.3c-0.2,0-0.3,0.2-0.3,0.3c-0.1,0.2-0.2,0.3-0.4,0.4
		c-0.1,0.3-0.4,0.6-0.7,1c-0.4,0.4-0.7,0.8-1.1,1.4c-0.5,0.5-0.9,1.1-1.3,1.5c-0.4,0.5-0.7,0.9-0.8,1.1c-0.2,0.3-0.4,0.5-0.7,0.6
		c-0.2,0.3-0.4,0.5-0.7,0.8c-0.1,0.3-0.2,0.5-0.2,0.7c-0.1,0.2-0.2,0.3-0.3,0.3c-0.1,0-0.2,0.2-0.3,0.4c0,0.3-0.2,0.6-0.6,0.8
		c-0.3,0.4-0.5,0.6-0.6,0.8c-0.1,0.2-0.3,0.5-0.5,1c-0.2,0.5-0.2,0.9-0.2,1.3c0.3,0.1,0.6,0.3,0.8,0.5c0.3,0,0.5,0.1,0.6,0.3
		c0.2,0.2,0.2,0.4,0.2,0.7c-0.1,0.2-0.2,0.4-0.4,0.6s-0.4,0.2-0.5,0.3c-0.2,0-0.4,0-0.6-0.1c-0.2-0.1-0.5-0.2-0.8-0.3
		c-0.3-0.3-0.5-0.5-0.7-0.6c-0.2-0.1-0.3-0.3-0.4-0.6c0-0.3,0-0.6,0-0.9c0-0.2,0-0.3,0-0.5c0-0.2,0.2-0.4,0.4-0.7
		c0.1-0.2,0.1-0.4,0.2-0.6c0.1-0.2,0.2-0.3,0.3-0.5c0.1-0.2,0.4-0.6,0.8-1.2c1.1-1.6,2.3-3.1,3.5-4.5C86,11,87.2,9.6,88.5,8.1z
		 M99.8,16.2c-0.1,0.3-0.2,0.6-0.4,0.8c-0.1,0.2-0.3,0.4-0.4,0.6c0.1,0.4-0.1,0.8-0.3,1.1c0.1,0.4,0.1,0.7,0,0.9
		c-0.1,0.1-0.2,0.3-0.2,0.6c0,0.2-0.1,0.5-0.2,0.7c0,0.4-0.1,0.9-0.4,1.4c0.7,0.1,1.1,0.2,1.2,0.2c0.2,0,0.3,0,0.5,0
		c0.2,0.1,0.3,0.1,0.5,0.1c0.2,0,0.5,0,0.9,0c0.4,0,0.7,0,1.1,0.1c0.8,0,1.3,0,1.6,0.1c0.3,0.1,0.5,0.1,0.7,0.1s0.4,0.1,0.8,0.2
		c0.3,0,0.7,0,1.1,0c0.4,0,0.7,0.1,1,0.3c0.3,0.2,0.4,0.4,0.4,0.6c0,0.2,0,0.4-0.1,0.6c-0.1,0.2-0.3,0.3-0.4,0.4
		c-0.2,0.1-0.5,0.1-0.9,0.1c-0.4-0.1-0.8-0.1-1.2-0.2c-0.4-0.1-0.9-0.1-1.6-0.2c-0.2,0-0.4,0-0.6,0c-0.2-0.1-0.4-0.1-0.5,0
		c-0.1,0-0.3,0-0.6-0.1c-0.2-0.1-0.6-0.1-1.2-0.1c-0.2-0.1-0.5-0.1-0.7-0.1c-0.2,0-0.4,0-0.5-0.1c-0.1-0.1-0.2-0.1-0.4-0.1
		s-0.4,0.1-0.6,0c-0.2,0-0.5-0.1-0.8-0.1c-0.5,0.9-1,1.7-1.4,2.3c-0.4,0.7-0.9,1.3-1.4,1.9c-0.3,0.2-0.7,0.4-1.2,0.6
		c-0.4,0.2-0.9,0.3-1.3,0.2c-0.4,0-0.7-0.1-1-0.3c-0.4-0.2-0.7-0.4-0.9-0.7C90.2,27.5,90,27.2,90,27c-0.1-0.2-0.1-0.5-0.2-0.9
		c-0.1-0.4-0.1-0.7-0.1-0.9s0.2-0.5,0.4-1c0.3-0.5,0.8-0.9,1.6-1.2c0.8-0.3,1.6-0.5,2.4-0.6c0.8-0.1,1.6-0.1,2.3-0.2
		c0.1-0.4,0.2-0.7,0.3-1.1c0.1-0.3,0.1-0.8,0.2-1.2c0.1-0.4,0.2-0.9,0.3-1.3c0.1-0.4,0.2-1.3,0.5-2.6c0.1-0.4,0.1-0.7,0.3-1
		c0.1-0.3,0.3-0.5,0.7-0.6c0.3-0.1,0.6-0.2,0.9-0.2s0.5,0.1,0.7,0.2c0.2,0.1,0.3,0.3,0.3,0.6c0,0.3-0.1,0.5-0.2,0.8
		C100.1,15.9,100,16.1,99.8,16.2z M91.8,25c-0.2,0.4-0.2,0.8-0.2,1.1s0.1,0.6,0.3,0.8c0.3,0.1,0.6,0.2,0.9,0.2
		c0.3,0,0.6-0.1,0.8-0.2c0.2-0.1,0.6-0.4,1-0.8c0.2-0.3,0.3-0.6,0.5-0.7c0.1-0.2,0.3-0.4,0.4-0.5c0.1-0.2,0.2-0.4,0.2-0.8
		c-0.3-0.1-0.6-0.1-0.8,0c-0.2,0.1-0.5,0.1-0.7,0.1c-0.2,0-0.4,0.1-0.6,0.2c-0.1,0.1-0.3,0.2-0.5,0.2c-0.2,0-0.4,0.1-0.5,0.2
		C92.4,24.7,92.1,24.9,91.8,25z M104.8,11.8c0.4,0.2,0.8,0.4,1.3,0.6c0.5,0.2,1,0.4,1.3,0.6c0.4,0.2,0.7,0.4,0.9,0.6
		c0.2,0.2,0.3,0.3,0.4,0.5c0.1,0.2,0,0.4-0.1,0.7c-0.1,0.3-0.3,0.5-0.5,0.6c-0.2,0.1-0.4,0.1-0.7,0c-0.3-0.1-0.6-0.3-1-0.6
		c-0.2-0.1-0.4-0.2-0.5-0.4c-0.1-0.2-0.3-0.2-0.5-0.2c-0.2,0-0.4-0.1-0.5-0.3c-0.3,0-0.6-0.1-1-0.4c-0.3-0.2-0.5-0.4-0.8-0.6
		c-0.2,0-0.4-0.1-0.6-0.2c-0.2-0.1-0.9-0.4-2-0.9c-0.4,0.1-0.6,0.2-0.7,0.2c-0.1,0.1-0.2,0.1-0.4,0.2c-0.2,0.1-0.4,0-0.7-0.1
		c-0.3-0.1-0.4-0.4-0.5-0.8c-0.1-0.4,0-0.7,0.2-0.9c0.2-0.2,0.5-0.4,0.8-0.5c0.4-0.1,0.7-0.2,1-0.1c0.3,0,0.7,0.1,1.1,0.3l1.3,0.4
		c0.2,0.1,0.3,0.2,0.5,0.3c0.2,0.1,0.3,0.2,0.5,0.3c0.2,0.1,0.4,0.2,0.6,0.3C104.4,11.6,104.6,11.7,104.8,11.8z"/>
	<path class="st0" d="M121.3,7.8C121.1,8.5,121,9,121,9.1c-0.1,0.1-0.3,0.9-0.7,2.3c-0.1,0.8-0.2,1.6-0.3,2.4
		c-0.1,0.8,0,1.6,0.3,2.4c0.5,0.1,0.8,0.1,1,0c0.2-0.1,0.5-0.2,0.7-0.4c0.2-0.2,0.5-0.4,1-0.5c0.5-0.2,0.8-0.3,0.9-0.4
		c0.1-0.1,0.4-0.2,0.7-0.3c0.3-0.1,0.6,0,0.7,0.1c0.2,0.1,0.3,0.4,0.3,0.7c0,0.3,0,0.5-0.1,0.7c-0.1,0.1-0.4,0.3-0.7,0.5
		c-0.1,0.1-0.3,0.2-0.5,0.3c-0.2,0.1-0.4,0.2-0.7,0.2c-0.3,0.3-0.6,0.4-0.8,0.5c-0.2,0.1-0.4,0.1-0.5,0.1s-0.3,0.1-0.4,0.2
		c-0.4,0.1-0.7,0.1-0.9,0.1c-0.2,0-0.4-0.1-0.6-0.1c-0.2,0-0.5-0.1-0.9-0.4c-0.3-0.2-0.5-0.4-0.7-0.5c-0.2-0.1-0.4-0.6-0.4-1.4
		c-0.1-0.2-0.1-0.5,0-0.9c-0.1-0.2-0.1-0.4-0.1-0.6s0-0.3,0-0.5c0-0.2,0-0.4,0.2-0.7c-0.1-0.4,0-0.8,0.1-1.2
		c0.1-0.2,0.1-0.5,0.1-0.9s0.2-0.6,0.4-0.7c0.1-0.3,0.2-0.6,0.2-0.9c0-0.3,0.1-0.6,0.2-0.9c0.5-1.3,0.7-2.1,0.8-2.5
		c0-0.3,0.1-0.6,0.3-0.9c0.2-0.3,0.3-0.5,0.3-0.7c0.1-0.2,0.2-0.4,0.3-0.7c0-0.2,0.1-0.3,0.3-0.4c0.2-0.1,0.4-0.2,0.6-0.3
		c0.2-0.1,0.5,0,0.8,0.2c0.3,0.2,0.4,0.4,0.4,0.6c0,0.2,0,0.4-0.2,0.6c-0.1,0.2-0.3,0.4-0.4,0.6c-0.2,0.2-0.3,0.4-0.4,0.5
		c-0.1,0.4-0.2,0.7-0.3,0.9c-0.1,0.2-0.2,0.4-0.2,0.7C121.6,7.3,121.5,7.6,121.3,7.8z M133.6,4.7c0,0.4,0,0.7,0,0.9
		c0,0.2,0,0.4,0,0.5c0,0.2-0.1,0.4-0.3,0.7c0.1,0.2,0.2,0.3,0.1,0.5c-0.1,0.1-0.1,0.3,0,0.5c0,0.2-0.1,0.4-0.2,0.6
		c0.1,0.2,0.1,0.5,0.1,0.7c0,0.2-0.1,0.5-0.3,0.6c0.2,0.4,0.2,0.6,0.1,0.8s-0.1,0.4-0.2,0.7c0,0.3-0.1,0.8-0.2,1.4
		c-0.1,0.6-0.2,1.1-0.3,1.3c0.1,0.2,0.1,0.4,0,0.5c-0.1,0.1-0.1,0.3-0.1,0.4c0,0.1,0,0.4-0.2,0.8c0,0.4,0,0.6-0.1,0.8
		c-0.1,0.2-0.1,0.3-0.1,0.5c-0.1,0.5-0.2,0.9-0.3,1.1c-0.4,1.5-0.7,2.6-0.9,3.2s-0.5,1.3-0.9,2.2c-0.4,0.9-0.8,1.8-1.2,2.5
		s-0.8,1.5-1.2,2.1c-0.4,0.6-0.7,1.1-1,1.4c-0.1,0.3-0.3,0.6-0.5,0.8c-0.2,0.2-0.3,0.5-0.4,0.7c-0.1,0.2-0.2,0.4-0.5,0.5
		c-0.1,0.3-0.1,0.4-0.3,0.5c-0.1,0.1-0.2,0.2-0.3,0.4c-0.1,0.2-0.2,0.4-0.4,0.6c-0.2,0.3-0.4,0.4-0.7,0.5c-0.3,0.1-0.6,0-1-0.1
		c-0.4-0.1-0.5-0.4-0.5-0.8c0-0.4,0.1-0.8,0.4-1.1c0.3-0.3,0.5-0.5,0.7-0.6c0.2-0.1,0.3-0.3,0.4-0.5c0.1-0.2,0.3-0.4,0.5-0.5
		c0.3-0.2,0.6-0.5,0.7-0.7c0.3-0.2,0.4-0.4,0.4-0.5c0-0.1,0.2-0.3,0.5-0.6c0-0.2,0.2-0.4,0.5-0.5c0.1-0.2,0.1-0.4,0.1-0.6
		c0-0.2,0.2-0.4,0.4-0.5s0.3-0.4,0.4-0.6c0.4-0.8,0.8-1.6,1.2-2.2c0.3-0.6,0.6-1.2,0.9-1.9s0.6-1.6,1-2.9c0.4-1.3,0.7-2.6,0.9-3.8
		c0.2-1.2,0.3-2,0.4-2.5c0.1-0.9,0.2-1.4,0.2-1.6c0.1-0.2,0.1-0.7,0-1.4c0.1-1.4,0.1-2.4,0.1-3.1c0-0.7,0-1.1-0.1-1.4
		c-0.1-0.3-0.1-0.7-0.1-1.1c-0.1-0.4-0.1-0.7,0-0.8c0.1-0.2,0.1-0.3,0.2-0.5c0.1-0.2,0.2-0.3,0.5-0.4c0.3,0.1,0.6,0.2,0.9,0.4
		c0.3,0.2,0.4,0.4,0.4,0.6c0,0.2,0,0.4,0.1,0.6C133.7,4,133.7,4.3,133.6,4.7z"/>
	<path class="st0" d="M146.3,17.8c-0.1,0.3-0.1,0.6-0.2,0.7s-0.1,0.4-0.2,0.6c0,0.4,0,0.7-0.2,0.9c0.1,0.3,0,0.6-0.1,0.7
		c-0.1,0.1-0.1,0.3-0.1,0.4c0,0.1,0,0.3,0,0.5c-0.1,0.2-0.1,0.5,0,0.9c-0.1,0.3-0.1,0.7,0,1c0,0.3,0,0.5,0,0.8c0,0.2,0,0.5,0,0.9
		c0,0.4,0,0.9,0.2,1.4c0.1,0.6,0.4,1,0.7,1.3c0.5,0,0.9-0.1,1.3-0.2c0.4-0.1,0.7-0.1,1-0.1s0.5,0.1,0.6,0.3s0.2,0.4,0.3,0.5
		c0,0.2,0,0.4-0.1,0.7c-0.1,0.3-0.2,0.5-0.4,0.5c-0.2,0.1-0.4,0.1-0.6,0.2c-0.2,0.1-0.5,0.2-0.9,0.3c-0.4,0.1-0.8,0.2-1.2,0.2
		c-0.4-0.1-0.7-0.2-1.1-0.5s-0.6-0.6-0.7-1c0-0.1,0-0.3-0.1-0.4s-0.1-0.4-0.2-0.6c0-0.2-0.1-0.5-0.1-0.8c0-0.2,0-0.4,0-0.5
		c-0.1-0.2-0.1-0.5,0-0.9c0.1-0.3,0.1-0.5,0-0.7c-0.1-0.2-0.1-0.4-0.1-0.7c0-0.3,0.1-0.8,0.2-1.5c0.1-1.7,0.3-3.1,0.6-4.3
		c0.2-1.2,0.6-2.5,0.9-3.9c0.4-1.4,0.7-2.6,1-3.6c0.3-0.9,0.6-1.8,0.9-2.6c0.3-0.8,0.5-1.4,0.7-1.8c0.4-0.9,0.7-1.5,0.8-1.7
		c0.1-0.2,0.3-0.6,0.6-1.1c0.3-0.4,0.6-0.6,1-0.7c0.2,0,0.4,0,0.5,0s0.3,0,0.5,0.1c0.2,0,0.3,0.2,0.4,0.5c0.1,0.3,0.1,0.6,0,0.8
		c-0.1,0.2-0.2,0.4-0.4,0.5c-0.2,0.1-0.4,0.3-0.7,0.6c-0.3,0.3-0.4,0.5-0.4,0.7c0,0.1-0.1,0.3-0.3,0.4c-0.1,0.4-0.2,0.7-0.3,0.8
		c-0.1,0.1-0.1,0.3-0.3,0.4c-0.1,0.2-0.2,0.3-0.4,0.4c0,0.4-0.1,0.6-0.2,0.7c-0.1,0.1-0.2,0.4-0.4,0.7c-0.1,0.4-0.2,0.7-0.4,0.8
		c0,0.4,0,0.7-0.1,0.9c-0.1,0.2-0.2,0.5-0.3,0.9c-0.1,0.3-0.2,0.5-0.2,0.7c0,0.2-0.1,0.3-0.2,0.5c-0.1,0.2-0.2,0.4-0.3,0.6
		c-0.1,0.2-0.1,0.4-0.1,0.5c0,0.2,0,0.3-0.2,0.4c-0.1,0.3-0.2,0.6-0.1,0.7c0,0.1-0.1,0.3-0.3,0.5c0,0.3-0.1,0.5-0.2,0.7
		C146.5,17.2,146.4,17.5,146.3,17.8z M159.5,20.7c0.4,0.3,0.8,0.5,1.3,0.6c0.5,0.2,0.9,0.3,1.3,0.4s0.8,0.2,1.2,0.3
		c0.7,0,1.2,0.1,1.5,0.1s0.5,0,0.7,0c0.2,0,0.5,0,0.8,0c0.4-0.1,0.6-0.1,0.8-0.1c0.2,0,0.4,0.1,0.5,0.1c0.2,0.1,0.3,0.2,0.4,0.4
		s0.1,0.4,0.1,0.6c0,0.2-0.1,0.4-0.3,0.6c-0.2,0.2-0.4,0.3-0.8,0.4c-0.6-0.1-1.1-0.1-1.5-0.1s-0.9-0.1-1.3-0.1
		c-0.8-0.1-1.3-0.2-1.5-0.3c-0.3-0.1-0.6-0.1-0.9-0.2c-0.3-0.2-0.6-0.2-0.9-0.3c-0.3,0-0.5-0.1-0.7-0.2S160,23,159.8,23
		c-0.2,0.1-0.5-0.1-1-0.4c-0.3,0-0.6-0.2-0.9-0.5c-0.3,0-0.6-0.2-0.8-0.6c-0.2-0.4-0.2-0.7-0.1-1c0.2-0.3,0.4-0.5,0.7-0.6
		c0.3-0.1,0.6-0.1,0.7,0s0.3,0.1,0.6,0.1S159.4,20.3,159.5,20.7z M159.1,11.5c0.5-0.2,0.9-0.3,1.2-0.3c0.3-0.1,0.7-0.1,1.3-0.2
		c0.6-0.1,1.2-0.1,1.7-0.1c0.4,0,0.8,0,1.2,0s0.8,0,1.1,0.1s0.7,0.3,1,0.4c0.2,0.3,0.4,0.6,0.5,0.8c0.1,0.3,0.1,0.5,0,0.7
		c-0.1,0.2-0.3,0.4-0.5,0.5s-0.5,0.1-0.9-0.1c-0.2-0.1-0.3-0.2-0.4-0.2c-0.1,0-0.4-0.1-0.8-0.3c-0.3,0.2-0.5,0.3-0.7,0.2
		c-0.2-0.1-0.4-0.1-0.8-0.1c-0.3-0.1-0.6-0.1-0.7,0c-0.1,0.1-0.4,0.1-0.9,0c-0.3,0.2-0.5,0.3-0.7,0.2c-0.2,0.2-0.4,0.3-0.5,0.2
		s-0.4,0-0.6,0.2c-0.1,0.1-0.2,0.2-0.3,0.3c-0.1,0.1-0.3,0.2-0.4,0.3s-0.3,0.1-0.5,0c-0.2-0.1-0.4-0.2-0.5-0.4
		c-0.1-0.2-0.2-0.4-0.3-0.6c0.1-0.4,0.2-0.8,0.5-1.1C158.4,11.8,158.7,11.6,159.1,11.5z"/>
	<path class="st0" d="M178.4,22.7c0.4,0.7,0.7,1.1,0.9,1.5c0.3,0.2,0.5,0.3,0.5,0.5s0.2,0.4,0.4,0.6c0.2,0.2,0.3,0.5,0.4,0.6
		c0.1,0.2,0.2,0.4,0.4,0.7c0.2,0.3,0.4,0.6,0.5,0.7c0.1,0.2,0.2,0.3,0.4,0.5c0.1,0.1,0.3,0.3,0.5,0.5c0.3,0.4,0.4,0.8,0.4,0.9
		c0,0.2-0.1,0.4-0.1,0.5c-0.1,0.2-0.2,0.3-0.4,0.4s-0.4,0.2-0.4,0.2c-0.1,0-0.3,0-0.5-0.2c-0.2-0.1-0.4-0.3-0.5-0.5
		s-0.2-0.5-0.4-0.7c-0.2-0.3-0.4-0.6-0.6-0.9s-0.4-0.6-0.6-0.9s-0.5-0.9-1.1-1.7c-0.5-0.8-1.1-1.4-1.7-1.9c-0.3-0.3-0.5-0.6-0.6-0.8
		c-0.1-0.2,0-0.4,0.1-0.7s0.4-0.5,0.9-0.6c0.2,0.1,0.4,0.1,0.5,0.2s0.2,0.1,0.4,0.3C177.8,22.1,178.1,22.4,178.4,22.7z"/>
	<path class="st0" d="M30.8,77.5c-0.4,0.4-0.9,0.5-1.5,0.5c-0.6-0.1-0.9-0.4-0.9-1.1c-0.5-0.1-0.9-0.2-1.1-0.3
		c-0.2-0.1-0.5-0.2-1.1-0.3c-0.7,0.1-1.2,0-1.4-0.1c-0.3,0.2-0.5,0.2-0.6,0.1c-0.1-0.1-0.4-0.2-0.7-0.3c-0.8,0-1.8,0.1-3.1,0.1
		c-1.2,0-2.8,0.1-4.6,0.2c-1.8,0.1-3.5,0.2-5.2,0.4C9,76.8,8,77,7.7,77.1c-0.3,0.1-0.6,0.2-0.9,0.2c-0.3,0.2-0.6,0.2-0.8,0.3
		c-0.2,0-0.4,0-0.6,0c-0.2,0-0.5,0.1-0.7,0.2C4.4,77.9,4.2,78,3.9,78c-0.3,0-0.7,0.2-1.2,0.4c-0.3,0.4-0.6,0.6-0.8,0.7
		c-0.3,0.1-0.6,0.1-1,0c-0.4-0.1-0.7-0.2-0.8-0.4C0,78.6,0,78.4,0,78.1c0-0.3,0.2-0.5,0.5-0.7c0.4-0.2,0.7-0.3,1-0.3
		c1.6-0.4,3.2-0.8,4.7-1.1c1.6-0.3,3.1-0.5,4.5-0.7l5.4-0.4c1.2-0.1,4.2-0.2,9-0.2c1.7,0.1,3.1,0.2,4.3,0.4c0.5,0.2,0.9,0.4,1.2,0.7
		c0.2,0.3,0.4,0.6,0.4,0.8C31,77,30.9,77.2,30.8,77.5z M6.3,81.6c0.2-0.1,0.4-0.2,0.7-0.3c0.3-0.1,0.6-0.2,1-0.5
		c0.1-0.2,0.3-0.4,0.5-0.4c0.2-0.1,0.4-0.2,0.6-0.4s0.5-0.4,0.9-0.7c0.4-0.3,0.8-0.5,1.2-0.7c0.2-0.3,0.5-0.6,0.8-0.8
		c0.3-0.2,0.6-0.1,0.9,0.1c0.3,0.2,0.4,0.4,0.6,0.6s0.1,0.4,0,0.6c-0.1,0.2-0.2,0.4-0.4,0.4c-0.2,0.1-0.3,0.2-0.5,0.3
		c-0.6,0.4-1.1,0.7-1.4,0.9c-0.3,0.2-0.7,0.4-1.2,0.7c-0.5,0.3-1.2,0.9-2.1,1.7c-0.4,0.3-0.7,0.5-0.9,0.6c-0.2,0.2-0.5,0.4-0.8,0.6
		c-0.3,0.2-0.6,0.3-0.7,0.3c-0.2,0-0.4-0.1-0.7-0.2c-0.3-0.1-0.4-0.4-0.4-0.7c0-0.3,0.1-0.6,0.2-0.8c0.1-0.2,0.3-0.4,0.7-0.6
		C5.6,82,6,81.8,6.3,81.6z M17,54.2c0.2-0.4,0.2-0.8,0.2-1.1c0-0.3,0-0.7,0-1c0.1-0.4,0-0.7-0.1-0.9C17,50.9,17,50.5,17.1,50
		c0.1-0.2,0.3-0.3,0.5-0.4c0.3,0,0.5,0,0.7,0c0.2,0,0.4,0.2,0.5,0.4c0.2,0.3,0.3,0.5,0.3,0.6c0,0.2,0,0.4,0,0.6c0,0.3,0,0.5,0,0.9
		S19,53.1,18.8,54c0.5-0.1,0.9-0.1,1.3-0.1c0.4,0,1.1,0,2.1,0c0.8,0,1.4,0.1,1.7,0.1c0.4,0.1,0.7,0.2,0.9,0.3
		c0.2,0.1,0.4,0.3,0.6,0.5c0.2,0.2,0.2,0.4,0.2,0.7c0,0.3-0.2,0.5-0.5,0.6c-0.3,0.1-0.6,0.2-0.8,0.1c-0.2-0.1-0.4-0.2-0.6-0.4
		c-0.4-0.1-0.6-0.2-0.8-0.3c-0.3,0-0.6,0-0.8,0c-0.2-0.1-0.7-0.1-1.3,0c-0.4,0-1.1,0-2.1,0c-0.2,0.6-0.4,1.2-0.7,1.8
		c-0.2,0.6-0.4,1-0.4,1.3c-0.1,0.3-0.2,0.6-0.3,1.1c0.3-0.1,0.6-0.1,0.9-0.2c0.9-0.2,1.5-0.3,1.7-0.3s0.6,0,1.2,0
		c0.9,0.1,1.5,0.3,1.8,0.7c0.3,0.3,0.5,0.7,0.6,1.1c0.1,0.4,0.1,0.7,0.2,0.9c0,0.3,0,0.5,0,0.6c0,0.2-0.1,0.4-0.1,0.7
		c0,0.3-0.1,0.9-0.2,1.8c-0.1,0.8-0.3,1.9-0.5,3.2c-0.2,1.3-0.4,2.2-0.5,2.7s-0.3,1.3-0.6,2.3c-0.2,0.7-0.5,1-1,0.9
		c-0.5-0.1-0.8-0.2-1.1-0.4c-0.2-0.2-0.2-0.6,0.1-1.1c-0.6,0-1,0-1.3,0s-0.5,0-0.8,0.1c-0.2,0.1-0.5,0.1-0.9,0
		c-0.4,0.2-0.8,0.2-1.2,0.2c-0.4,0-0.8,0-1.3,0.1c-0.5,0.1-1.1,0.2-1.8,0.3c-0.4,0.2-0.8,0-1-0.4c-0.2-0.4-0.2-0.8,0-1
		c0.3-0.2,0.6-0.4,0.9-0.4c0.3,0,0.6-0.1,0.9-0.1s0.6,0,1.1,0c1.1-0.1,2-0.2,2.6-0.3c0.6-0.1,1.8-0.1,3.8-0.1
		c0.1-0.3,0.2-0.7,0.3-1.2c-0.4-0.2-0.9-0.3-1.4-0.5c-0.7-0.1-1.6-0.2-2.7-0.2c-0.7,0.1-1.1,0.1-1.3,0.2c-0.2,0.1-0.5,0.1-0.9,0.3
		c-0.5,0.2-0.8,0.3-0.9,0.4c-0.2,0.1-0.4,0.3-0.7,0.3c-0.5,0.2-0.9,0.1-1.2-0.3s-0.4-0.8-0.2-1.2c0.2-0.2,0.3-0.3,0.5-0.4
		c0.2-0.1,0.4-0.1,0.6-0.3c0.2-0.1,0.6-0.3,1.1-0.4c0.5-0.2,0.9-0.3,1.2-0.5c0.2-0.2,0.6-0.4,1.1-0.7c0.5-0.3,0.9-0.5,1.2-0.8
		c0.3-0.2,0.7-0.6,1.1-1.1c-0.5,0-0.9-0.1-1.1-0.1c-0.2,0-0.7,0-1.2,0.3c-0.6,0-1,0.1-1.3,0.2s-0.5,0.3-0.8,0.4s-0.5,0.3-0.8,0.5
		c-0.3,0.3-0.5,0.4-0.7,0.4c-0.2,0-0.4-0.1-0.6-0.2c-0.2-0.1-0.4-0.2-0.4-0.5c-0.1-0.3-0.1-0.5,0-0.7c0.2-0.4,0.6-0.7,1.2-0.9
		c0.9-0.3,2-0.7,3.3-0.9c1.3-0.3,2.4-0.3,3.5,0.1c0.5,0.2,0.8,0.5,0.9,0.8c0.2,0.3,0.2,0.5,0,0.7c-0.1,0.2-0.2,0.4-0.3,0.6
		s-0.2,0.3-0.4,0.5c-0.5,0.4-0.8,0.7-1,0.9c-0.2,0.2-0.6,0.5-1.2,0.8c1.9,0,3.2,0.1,3.8,0.3c0.2-1.6,0.4-2.9,0.5-3.8
		c0.1-0.9,0.1-1.6,0-1.9c-0.1-0.5-0.2-0.9-0.5-1c-0.2-0.2-0.7-0.2-1.2-0.3c-0.6,0-1.5,0.1-2.7,0.4c-1.2,0.2-2,0.5-2.5,0.9
		c-0.2,0.4-0.4,0.7-0.8,0.7c-0.4,0.1-0.7,0-0.9-0.1c-0.2-0.1-0.3-0.5-0.3-1c0-0.3,0.1-0.6,0.3-0.7c0.1-0.2,0.7-0.4,1.6-0.8
		c-0.1-0.3-0.1-0.5,0-0.8c0.1-0.2,0.2-0.4,0.4-0.6c0.3-0.7,0.5-1.2,0.8-1.8c0.2-0.5,0.3-1,0.4-1.4c-1,0.1-1.6,0.2-1.7,0.2
		c-0.2,0.1-0.3,0.1-0.4,0c-0.1-0.1-0.4,0-0.8,0.2s-1,0.2-1.8,0.3c-0.2,0.2-0.4,0.2-0.7,0.2c-0.2,0-0.5,0-0.6,0.2
		c-0.2,0.3-0.4,0.4-0.7,0.4c-0.3,0-0.6,0.1-0.7,0.2c-0.1,0.1-0.3,0.1-0.5,0.1c-0.3,0.2-0.5,0.3-0.9,0.4c-0.3,0-0.6,0.2-0.8,0.4
		c-0.2,0.1-0.4,0.3-0.6,0.5c-0.2,0.2-0.5,0.2-0.7,0.2C5.1,58.4,4.8,58,5,57.5c0.1-0.6,0.5-0.9,1-1.1c1.3-0.4,2.8-0.8,4.3-1.1
		C11.9,54.9,14.1,54.6,17,54.2z M12,61.1c-0.2,0.7-0.3,1.1-0.4,1.2c-0.1,0.2-0.2,0.3-0.3,0.5s-0.1,0.3-0.2,0.5s-0.1,0.3-0.1,0.5
		c0,0.2-0.1,0.4-0.4,0.8c-0.1,0.4-0.1,0.8-0.2,1.1c0,0.5-0.1,0.8-0.2,1.1c0.1,0.3,0.1,0.5,0,0.6c-0.1,0.1-0.1,0.3-0.1,0.5
		c0,0.2-0.1,0.3-0.2,0.3l0.1,0.3c0.1,0.2,0,0.5,0,0.7c0,0.2,0,0.4,0,0.6c0,0.2,0,0.4,0,0.6c0,0.3,0,0.7,0.2,1.1c0,0.2,0,0.3,0.2,0.5
		c0.2,0.1,0.3,0.3,0.4,0.4c0.1,0.1,0.3,0.2,0.4,0.4c0.2,0.1,0.3,0.4,0.3,0.8c0,0.4-0.1,0.6-0.4,0.7s-0.5,0.1-0.9,0
		c-0.3-0.1-0.6-0.3-0.9-0.5c-0.3-0.2-0.5-0.6-0.7-1.1c-0.2-0.5-0.3-1.1-0.2-1.6c0.2-1.7,0.3-3,0.4-3.8c0.1-0.9,0.6-3.2,1.5-6.9
		c0.2-0.5,0.3-0.9,0.4-1.1c0.1-0.3,0.4-0.4,0.8-0.3c0.4,0,0.7,0.2,0.9,0.4s0.3,0.4,0.2,0.6c-0.1,0.2-0.2,0.4-0.3,0.6
		C12.2,60.7,12.1,60.9,12,61.1z M20.5,78.4c0,0.3,0.1,0.7,0.4,1c0.3,0.4,0.8,0.8,1.5,1.3c0.7,0.5,1.2,0.9,1.5,1.1s0.5,0.3,0.6,0.4
		c0.1,0.1,0.3,0.2,0.4,0.3c0.2,0.1,0.4,0.2,0.7,0.2c0.3,0,0.5,0.1,0.5,0.4c0.2,0.2,0.4,0.3,0.6,0.4c0.2,0.1,0.3,0.2,0.4,0.5
		c0.2,0.3,0.2,0.5,0.1,0.7c-0.1,0.2-0.2,0.3-0.3,0.4c-0.1,0.1-0.3,0.1-0.5,0.2c-0.2,0-0.4,0-0.6-0.1c-1-0.6-1.9-1.3-2.8-2
		c-0.9-0.7-1.9-1.5-3.1-2.4c-0.3-0.3-0.5-0.6-0.8-0.9c-0.3-0.4-0.5-0.7-0.5-1.1c-0.1-0.4,0.1-0.7,0.4-0.9c0.3-0.2,0.6-0.3,0.8-0.3
		c0.2,0,0.4,0.1,0.5,0.3S20.5,78.3,20.5,78.4z"/>
	<path class="st0" d="M45.6,59.1c0.3-0.4,0.6-0.6,0.8-0.8c0.3-0.1,0.5-0.3,0.6-0.6c0.1-0.2,0.2-0.3,0.4-0.4c0.2-0.1,0.3-0.2,0.4-0.4
		c0.3-0.3,0.6-0.6,0.8-0.9c0.2-0.3,0.5-0.6,0.7-0.7c0.2-0.2,0.4-0.3,0.5-0.4c0.1-0.1,0.3-0.3,0.7-0.5c0.1-0.2,0.2-0.4,0.4-0.6
		c0.2-0.2,0.3-0.3,0.5-0.3c0.1-0.1,0.3-0.2,0.3-0.4c0.1-0.2,0.2-0.3,0.3-0.4c0.1-0.1,0.3-0.2,0.5-0.5c0.1-0.3,0.2-0.5,0.4-0.6
		c0.1-0.1,0.3-0.2,0.5-0.3c0.2-0.1,0.4-0.1,0.6-0.1s0.4,0.1,0.6,0.3c0.2,0.2,0.3,0.4,0.3,0.5c0,0.1-0.1,0.4-0.3,0.7
		c-2.8,2.3-4.9,4.2-6.5,5.6c-1.5,1.4-3.5,3.3-5.8,5.6c-2.3,2.3-3.6,3.5-3.8,3.8c-0.2,0.2-0.5,0.4-0.8,0.6c-0.3,0.2-0.6,0.3-0.9,0.3
		s-0.5-0.1-0.6-0.4c-0.1-0.2-0.2-0.5-0.1-0.9c0.1-0.3,0.4-0.7,0.9-1.1c0.5-0.4,1.1-0.8,1.6-1.1c0.3-0.3,0.5-0.5,0.7-0.6
		c0.2-0.1,0.3-0.2,0.4-0.4c0.1-0.1,0.3-0.3,0.7-0.4c0.1-0.2,0.3-0.4,0.5-0.6c0.3-0.2,0.5-0.4,0.6-0.6c0.1-0.2,0.3-0.3,0.5-0.4
		c0.2-0.1,0.4-0.3,0.5-0.5c0.1-0.2,0.3-0.4,0.5-0.5C43.5,61.1,44.3,60.4,45.6,59.1z M48.1,76.5c-0.1,0.3-0.2,0.5-0.4,0.7
		c-0.2,0.4-0.4,0.8-0.8,1.1c-0.3,0.4-0.5,0.8-0.7,1.1c-0.2,0.3-0.5,0.7-0.9,1.1c-0.4,0.4-0.8,0.9-1.2,1.4c-0.4,0.5-0.8,0.9-1,1.2
		c-0.2,0.3-0.6,0.5-1.1,0.7c-0.4,0.1-0.8,0-1-0.1c-0.2-0.2-0.4-0.4-0.4-0.6c0-0.2,0.1-0.4,0.2-0.6s0.3-0.3,0.7-0.5
		c1-0.6,1.9-1.3,2.7-2.2c0.8-0.9,1.4-1.6,1.9-2.3c0.3-0.3,0.5-0.6,0.6-0.8c0.1-0.2,0.2-0.4,0.4-0.6c0.2-0.2,0.3-0.4,0.3-0.5
		c0-0.2,0.2-0.5,0.5-1.1c-0.9,0.2-1.5,0.3-1.9,0.5c-0.4,0.7-0.8,0.9-1.3,0.7c-0.4-0.2-0.8-0.5-1.2-0.8c-0.3-0.3-0.6-0.7-0.8-1.3
		c-0.2-0.5-0.3-1-0.4-1.4c0-0.4,0-0.8-0.1-1.3c0-0.5,0-1.2,0.2-1.9c0.1-0.8,0.3-1.5,0.5-2c0.2-0.5,0.5-0.7,0.9-0.7
		c0.3,0,0.6,0.1,0.8,0.3c0.2,0.2,0.3,0.4,0.3,0.5c-0.1,0.2-0.2,0.6-0.5,1.2c-0.4,0.9-0.6,1.7-0.6,2.3c0,0.6,0,1.2,0,1.7
		c0.3,0.7,0.5,1.1,0.7,1.3c0.2,0.2,0.5,0.3,0.9,0.3c0.1-0.2,0.3-0.4,0.5-0.5c0.2-0.1,0.4-0.2,0.7-0.2c0.4,0,0.8,0,1-0.1
		c0.2-0.1,0.6-0.1,1-0.2c0.3-0.6,0.6-1.1,0.7-1.6c0.2-0.5,0.3-1,0.5-1.4c0.2-0.4,0.3-0.9,0.4-1.4c-0.6,0.1-1.1,0.1-1.4,0.3
		c-0.3,0.1-0.7,0.3-1,0.5c-0.1,0.7-0.3,1-0.9,1c-0.5,0-0.9-0.3-1.1-0.8c-0.1-0.7,0.1-1.2,0.6-1.5c0.5-0.3,1-0.5,1.6-0.5
		c0.3-0.1,0.7-0.1,1-0.2c0.3-0.1,0.9-0.1,1.7-0.2l0.4-1.5c0-0.3,0.1-0.6,0.2-0.8c0.1-0.2,0.3-0.4,0.6-0.5c0.3-0.1,0.5,0,0.7,0
		c0.2,0.1,0.3,0.2,0.4,0.5s0.2,0.5,0.2,0.8c0,0.3-0.2,0.7-0.4,1.2c0.7,0,1.3,0,1.8,0c0.5,0,0.9,0.1,1.3,0.2c0.4,0.1,0.7,0.2,0.9,0.3
		c0.2,0.1,0.4,0.2,0.6,0.4c0.2,0.1,0.3,0.4,0.5,0.7c0.1,0.4,0.2,0.7,0.1,1.1c-0.1,0.4-0.2,0.7-0.4,1.1c-0.2,0.4-0.4,0.6-0.6,0.8
		c-0.2,0.2-0.4,0.5-0.6,0.7c0.3,0,0.6,0,0.8,0.1c0.2,0.1,0.4,0.2,0.6,0.4c0.1,0.2,0.2,0.5,0.2,0.7c0,0.3-0.1,0.5-0.3,0.6
		c-0.2,0.1-0.4,0.1-0.8,0.1c-0.3,0.1-0.5,0.2-0.7,0.1c-0.2-0.1-0.4-0.1-0.6-0.1c-0.2,0-0.5,0.1-0.9,0.2c-0.3-0.1-0.7-0.2-1.2-0.2
		c-0.3,0.3-0.5,0.3-0.7,0.2s-0.3-0.1-0.5,0c-0.2,0.1-0.3,0.2-0.5,0.1c-0.1-0.1-0.3-0.1-0.4-0.1c-0.1,0-0.4,0-0.9,0L49.7,74
		c-0.3,0.3-0.4,0.6-0.5,0.9c-0.3,0.4-0.4,0.7-0.5,0.9C48.7,75.9,48.5,76.2,48.1,76.5z M55.3,63.4c-0.2,0-0.3,0-0.4,0
		c-0.1-0.1-0.4-0.1-0.7-0.2c-0.5,0.1-1,0.2-1.7,0.2c-0.6,0-1.1,0-1.4,0.1c-0.3,0.1-0.6,0.1-1.1,0c-0.9,0.1-1.7,0.2-2.3,0.3
		c-0.6,0.1-1.2,0.2-1.8,0.4c-0.4,0.3-0.9,0.2-1.2-0.2c-0.4-0.4-0.4-0.7,0.1-1.1c0.3-0.3,0.6-0.4,0.9-0.4c0.3,0,1.1-0.1,2.4-0.3
		c1.3-0.1,2.3-0.2,2.9-0.3c1-0.2,2.3-0.3,4.1-0.3c0.3,0,0.6,0,0.8,0.1s0.5,0.2,0.8,0.4c0.2,0.2,0.3,0.5,0.1,0.7
		c-0.2,0.3-0.4,0.5-0.7,0.6C55.8,63.6,55.5,63.6,55.3,63.4z M54.1,79c0.4,0.1,0.6,0.3,0.8,0.5c0.4,0.1,0.6,0.3,0.7,0.5
		c0.1,0.2,0.3,0.4,0.5,0.4c0.3,0,0.5,0.1,0.8,0.3c0.3,0,0.6,0.1,0.8,0.2c0.2,0.1,0.3,0.5,0.3,0.9c0,0.5-0.4,0.7-1.3,0.8
		c-0.9-0.6-1.5-1-2-1.3c-0.4-0.3-0.9-0.6-1.3-1c-0.5-0.4-1.3-1.1-2.6-2.2c-0.5-0.5-0.8-0.8-1-1c-0.2-0.2-0.2-0.4-0.1-0.7
		c0.1-0.3,0.3-0.5,0.6-0.7c0.3-0.1,0.7,0.1,1.1,0.7c0.2,0.3,0.6,0.8,1.2,1.3C53.3,78.3,53.7,78.7,54.1,79z M52.8,71.8
		c1.1-0.6,1.9-1,2.3-1.2s0.8-0.6,1.1-1.1c0.2-0.6,0.1-0.9-0.1-1.1c-0.2-0.2-0.6-0.3-1.2-0.5c-0.5,0-0.9,0-1.1,0s-0.4,0-0.6,0
		c-0.2,0-0.6,0.1-1,0.2c-0.1,0.4-0.3,0.7-0.4,0.9s-0.3,0.8-0.6,1.6c-0.3,0.8-0.6,1.3-0.7,1.7c0.4,0.1,0.8,0,1-0.1
		C52,71.9,52.4,71.8,52.8,71.8z M56.6,58.9c0.4,0.3,0.7,0.6,0.9,0.7c0.2,0.1,0.4,0.3,0.6,0.4c0.2,0.1,0.3,0.3,0.5,0.5
		c0.2,0.2,0.4,0.3,0.5,0.3s0.4,0.1,0.6,0.2c0.2,0.3,0.5,0.5,0.7,0.5c0.3,0.1,0.4,0.3,0.4,0.6c0,0.4-0.1,0.7-0.3,0.9
		c-0.2,0.2-0.5,0.3-0.8,0.2c-0.3-0.1-0.6-0.3-0.8-0.5c-0.3-0.3-0.6-0.5-0.9-0.7c-1.6-1.4-2.7-2.4-3.2-2.8c-0.5-0.5-0.9-0.9-1.2-1.2
		c-0.3-0.3-0.6-0.8-0.8-1.3c-0.3-0.4-0.3-0.9-0.3-1.3c0.1-0.5,0.4-0.6,1-0.4c0.4,0.1,0.7,0.3,0.8,0.5c0.1,0.2,0.1,0.5,0.2,0.7
		c0,0.2,0.2,0.5,0.4,0.9c0.3,0.3,0.5,0.7,0.8,1S56.3,58.6,56.6,58.9z M62.4,67.5c0-0.5,0-0.9,0.2-1.1c0.1-0.4,0.2-0.7,0.2-0.9
		c0-0.2,0.1-0.6,0.2-1.1c0-0.4,0.1-0.7,0.1-0.9c0-0.2,0.1-0.5,0.1-0.8c0-0.3,0.1-0.5,0.2-0.6c0.1-0.1,0.1-0.2,0.1-0.4
		c0-0.2,0.1-0.4,0.2-0.7c0.2-0.4,0.4-0.6,0.8-0.7c0.4-0.1,0.7,0,1,0.2c0.3,0.2,0.4,0.5,0.3,0.8c-0.1,0.3-0.3,0.6-0.3,0.8
		s-0.2,0.5-0.4,0.7c-0.1,0.5-0.2,0.8-0.2,1c-0.1,0.2-0.1,0.5-0.2,1.1c-0.2,0.4-0.3,0.9-0.4,1.4c0,0.5-0.1,1-0.4,1.4
		c0.1,0.2,0.1,0.6,0,1.1c0,0.4,0,0.8,0,1c0,0.2,0.1,0.5,0.2,0.7c0.4,0.2,0.7,0.5,1,0.9c0.3,0.4,0.2,0.8-0.3,1.2
		c-0.2,0.2-0.3,0.3-0.5,0.2c-0.2-0.1-0.4-0.2-0.6-0.3c-0.2-0.1-0.4-0.2-0.5-0.4c-0.4-0.2-0.6-0.5-0.8-0.9c-0.1-0.4-0.2-0.7-0.3-1.1
		c0-0.4,0-0.8,0.1-1.3C62.3,68.5,62.4,68,62.4,67.5z M73.1,65.7c0.1,0.7,0,1.2-0.2,1.5c-0.1,0.4-0.1,0.8-0.1,1.1s-0.1,0.7-0.1,1.1
		c0,0.4-0.1,1-0.1,1.7c0,0.7-0.1,1.4-0.2,2c-0.1,0.3-0.1,0.6,0,0.8s0,0.4,0,0.6c-0.1,0.2-0.1,0.5-0.2,0.8c0.1,0.5,0,0.9-0.1,1.2
		c-0.1,1.4-0.4,2.8-1.1,4.3c-0.1,0.5-0.4,1.1-0.7,1.7c-0.3,0.6-0.8,0.9-1.4,1c-0.6,0.1-1.2,0-1.9-0.4c-0.7-0.4-1.6-0.9-2.8-1.7
		c-0.4-0.3-0.7-0.5-0.9-0.8c-0.2-0.3-0.2-0.6,0.1-0.9c0.2-0.3,0.5-0.4,0.8-0.4c0.3,0,0.6,0.2,0.8,0.4c0.4,0.3,0.6,0.4,0.7,0.5
		c0.1,0.1,0.2,0.3,0.4,0.5c0.3,0.1,0.6,0.3,0.8,0.4c0.2,0.2,0.5,0.4,1.1,0.8c0.3,0.1,0.6,0,0.9-0.2c0.2-0.2,0.4-0.4,0.6-0.7
		c0.2-0.2,0.3-0.5,0.5-0.8c0.4-1.2,0.7-2.4,0.9-3.6s0.4-2.4,0.5-3.7c0.5-4.6,0.7-9.1,0.6-13.7c-0.2-0.5-0.2-1,0-1.6
		c0.3-0.6,0.6-0.9,0.9-0.8c0.3,0.1,0.6,0.4,0.9,0.7c0.1,0.3,0.1,0.6,0.1,0.8c0,0.2,0,0.5-0.1,0.8c0,0.5,0,0.9,0,1.2
		c0,0.3-0.1,0.5-0.1,0.7c0,0.2-0.1,0.5-0.1,0.8c0.1,0.3,0,0.5-0.1,0.8c0,0.3,0,0.6,0,0.8c0,0.2,0,0.5-0.1,0.8
		C73.2,64.9,73.1,65.3,73.1,65.7z"/>
	<path class="st0" d="M82.3,69.8c-0.1,0.3-0.1,0.6-0.2,0.7s-0.1,0.4-0.2,0.6c0,0.4,0,0.7-0.2,0.9c0.1,0.3,0,0.6-0.1,0.7
		c-0.1,0.1-0.1,0.3-0.1,0.4c0,0.1,0,0.3,0,0.5c-0.1,0.2-0.1,0.5,0,0.9c-0.1,0.3-0.1,0.7,0,1c0,0.3,0,0.5,0,0.8c0,0.2,0,0.5,0,0.9
		c0,0.4,0,0.9,0.2,1.4c0.1,0.6,0.4,1,0.7,1.3c0.5,0,0.9-0.1,1.3-0.2c0.4-0.1,0.7-0.1,1-0.1s0.5,0.1,0.6,0.3s0.2,0.4,0.3,0.5
		c0,0.2,0,0.4-0.1,0.7c-0.1,0.3-0.2,0.5-0.4,0.5c-0.2,0.1-0.4,0.1-0.6,0.2c-0.2,0.1-0.5,0.2-0.9,0.3c-0.4,0.1-0.8,0.2-1.2,0.2
		c-0.4-0.1-0.7-0.2-1.1-0.5s-0.6-0.6-0.7-1c0-0.1,0-0.3-0.1-0.4s-0.1-0.4-0.2-0.6c0-0.2-0.1-0.5-0.1-0.8c0-0.2,0-0.4,0-0.5
		c-0.1-0.2-0.1-0.5,0-0.9c0.1-0.3,0.1-0.5,0-0.7c-0.1-0.2-0.1-0.4-0.1-0.7c0-0.3,0.1-0.8,0.2-1.5c0.1-1.7,0.3-3.1,0.6-4.3
		c0.2-1.2,0.6-2.5,0.9-3.9c0.4-1.4,0.7-2.6,1-3.6c0.3-0.9,0.6-1.8,0.9-2.6c0.3-0.8,0.5-1.4,0.7-1.8c0.4-0.9,0.7-1.5,0.8-1.7
		c0.1-0.2,0.3-0.6,0.6-1.1c0.3-0.4,0.6-0.6,1-0.7c0.2,0,0.4,0,0.5,0s0.3,0,0.5,0.1c0.2,0,0.3,0.2,0.4,0.5c0.1,0.3,0.1,0.6,0,0.8
		c-0.1,0.2-0.2,0.4-0.4,0.5c-0.2,0.1-0.4,0.3-0.7,0.6c-0.3,0.3-0.4,0.5-0.4,0.7c0,0.1-0.1,0.3-0.3,0.4c-0.1,0.4-0.2,0.7-0.3,0.8
		c-0.1,0.1-0.1,0.3-0.3,0.4c-0.1,0.2-0.2,0.3-0.4,0.4c0,0.4-0.1,0.6-0.2,0.7c-0.1,0.1-0.2,0.4-0.4,0.7c-0.1,0.4-0.2,0.7-0.4,0.8
		c0,0.4,0,0.7-0.1,0.9c-0.1,0.2-0.2,0.5-0.3,0.9c-0.1,0.3-0.2,0.5-0.2,0.7c0,0.2-0.1,0.3-0.2,0.5c-0.1,0.2-0.2,0.4-0.3,0.6
		c-0.1,0.2-0.1,0.4-0.1,0.5c0,0.2,0,0.3-0.2,0.4c-0.1,0.3-0.2,0.6-0.1,0.7c0,0.1-0.1,0.3-0.3,0.5c0,0.3-0.1,0.5-0.2,0.7
		C82.5,69.2,82.5,69.5,82.3,69.8z M95.5,72.7c0.4,0.3,0.8,0.5,1.3,0.6c0.5,0.2,0.9,0.3,1.3,0.4c0.4,0.1,0.8,0.2,1.2,0.3
		c0.7,0,1.2,0.1,1.5,0.1c0.3,0,0.5,0,0.7,0c0.2,0,0.5,0,0.8,0c0.4-0.1,0.6-0.1,0.8-0.1c0.2,0,0.4,0.1,0.5,0.1
		c0.2,0.1,0.3,0.2,0.4,0.4s0.1,0.4,0.1,0.6c0,0.2-0.1,0.4-0.3,0.6c-0.2,0.2-0.4,0.3-0.8,0.4c-0.6-0.1-1.1-0.1-1.5-0.1
		s-0.9-0.1-1.3-0.1c-0.8-0.1-1.3-0.2-1.5-0.3c-0.3-0.1-0.6-0.1-0.9-0.2c-0.3-0.2-0.6-0.2-0.9-0.3c-0.3,0-0.5-0.1-0.7-0.2
		C96.2,75,96,75,95.8,75c-0.2,0.1-0.5-0.1-1-0.4c-0.3,0-0.6-0.2-0.9-0.5c-0.3,0-0.6-0.2-0.8-0.6c-0.2-0.4-0.2-0.7-0.1-1
		s0.4-0.5,0.7-0.6c0.3-0.1,0.6-0.1,0.7,0s0.3,0.1,0.6,0.1C95.3,72.1,95.5,72.3,95.5,72.7z M95.2,63.5c0.5-0.2,0.9-0.3,1.2-0.3
		c0.3-0.1,0.7-0.1,1.3-0.2c0.6-0.1,1.2-0.1,1.7-0.1c0.4,0,0.8,0,1.2,0c0.4,0,0.8,0,1.1,0.1c0.3,0.1,0.7,0.3,1,0.4
		c0.2,0.3,0.4,0.6,0.5,0.8c0.1,0.3,0.1,0.5,0,0.7c-0.1,0.2-0.3,0.4-0.5,0.5s-0.5,0.1-0.9-0.1c-0.2-0.1-0.3-0.2-0.4-0.2
		c-0.1,0-0.4-0.1-0.8-0.3c-0.3,0.2-0.5,0.3-0.7,0.2c-0.2-0.1-0.4-0.1-0.8-0.1c-0.3-0.1-0.6-0.1-0.7,0c-0.1,0.1-0.4,0.1-0.9,0
		c-0.3,0.2-0.5,0.3-0.7,0.2c-0.2,0.2-0.4,0.3-0.5,0.2s-0.4,0-0.6,0.2c-0.1,0.1-0.2,0.2-0.3,0.3c-0.1,0.1-0.3,0.2-0.4,0.3
		c-0.2,0.1-0.3,0.1-0.5,0c-0.2-0.1-0.4-0.2-0.5-0.4c-0.1-0.2-0.2-0.4-0.3-0.6c0.1-0.4,0.2-0.8,0.5-1.1
		C94.4,63.8,94.8,63.6,95.2,63.5z"/>
	<path class="st0" d="M142.4,65.2c-0.3,0.1-0.5,0.1-0.7-0.1c-0.4-0.1-0.7-0.2-1.1-0.3c-0.4,0-0.6,0-0.8-0.1c-0.1-0.1-0.5-0.2-1-0.2
		c-0.2,0.1-0.4,0.1-0.6,0c-0.2-0.1-0.4-0.1-0.6-0.1c-0.4,0-0.7,0-1.1-0.2c-0.3,0-0.5,0.1-0.8,0.1c-0.2,0-0.5,0-0.7-0.1
		c-0.2,0-0.4,0-0.5,0c-0.2,0.1-0.3,0-0.5-0.1c-0.3,0.1-0.7,0.1-1.1,0.1s-1.5,0-3.3,0.1c-0.3,0.3-1.4,1.1-3.1,2.5
		c0.4,0.1,0.7,0.2,0.8,0.5c0.2,0.3,0.2,0.7,0,1.4c-0.1,0.4-0.3,1-0.6,2l0.4-0.2c0.3-0.2,0.6-0.3,0.8-0.4c0.2-0.1,0.4-0.1,0.5-0.3
		c0.1-0.1,0.3-0.2,0.6-0.2c0.3-0.1,0.6-0.2,0.8-0.3c0.2-0.1,0.3-0.2,0.5-0.4c0.2-0.1,0.3-0.2,0.5-0.2c0.1,0,0.2-0.1,0.3-0.2
		c0.1-0.1,0.3-0.1,0.6-0.1c0.3-0.2,0.5-0.3,0.7-0.3c0.4-0.3,0.6-0.5,0.8-0.6c0.2-0.1,0.4-0.2,0.5-0.3c0.1-0.1,0.3-0.1,0.4-0.1
		c0.3-0.3,0.6-0.4,0.8-0.4c0.2,0,0.4,0.1,0.7,0.2c0.2,0.2,0.3,0.5,0.4,0.7c0.1,0.2,0.1,0.5,0,0.8c-0.1,0.3-0.2,0.5-0.5,0.5
		c-0.2,0.1-0.5,0.1-0.7,0.1c-0.2,0-0.5,0.1-0.9,0.1c-0.3,0.2-0.6,0.3-0.7,0.3c-0.2,0-0.3,0.1-0.5,0.3c-1.2,0.5-2.2,0.9-2.7,1.1
		c-0.6,0.2-2,0.9-4.3,1.9c0,0.3,0,0.5-0.1,0.7c-0.1,0.2-0.1,0.4,0,0.5c0,0.2,0.2,0.3,0.4,0.3s0.5,0,1,0c1.5-0.2,2.4-0.4,2.7-0.5
		c0.3-0.1,0.5-0.1,0.7-0.1c0.2,0,0.3,0,0.4-0.1s0.3-0.1,0.5-0.1c0.2,0,0.6,0,1.1-0.1c0.3-0.1,0.5-0.2,0.7-0.1c0.2,0,0.5,0,0.9,0h0.6
		c0.2,0,0.4,0.1,0.7,0.3c0.3,0.2,0.5,0.4,0.6,0.7c0.1,0.3,0.2,0.5,0.2,0.7c0,0.2,0,0.4-0.1,0.6c-0.1,0.4-0.3,0.8-0.5,1.2
		c-0.4,0.8-0.9,1.6-1.6,2.7c-0.7,1-1.3,1.7-1.7,2.1c-0.4,0.3-0.7,0.7-1.2,1.1c-0.4,0.4-0.9,0.7-1.6,0.8c-0.7,0.1-1.2,0.1-1.5,0
		c-0.4-0.2-0.9-0.4-1.5-0.9c-0.7-0.4-1.1-0.7-1.3-0.9c-0.2-0.2-0.5-0.4-1-0.7c-0.4-0.3-0.6-0.6-0.7-0.8s0-0.5,0.3-0.9
		c0.2-0.4,0.7-0.5,1.3-0.1c0.4,0.4,0.8,0.9,1.2,1.4c0.7,0.7,1.3,1.1,1.8,1.4c0.2,0.3,0.4,0.4,0.8,0.4c0.3,0,0.6-0.1,0.9-0.4
		c0.3-0.2,0.7-0.5,1.1-0.9c0.4-0.4,0.8-0.8,1.2-1.3c0.4-0.5,0.7-0.9,0.9-1.2c0.2-0.3,0.5-0.8,0.9-1.5c0.1-0.3,0.2-0.5,0.3-0.8
		s0.2-0.5,0.2-0.7c0-0.2,0-0.3-0.1-0.4c-0.2-0.3-0.4-0.4-0.6-0.3c-0.2,0.1-0.5,0.1-0.8,0c-0.3,0-0.5,0-0.7,0.1
		c-0.2,0.1-0.4,0.1-0.7,0c-0.3,0.1-0.6,0.2-0.8,0.3c-0.2,0.1-0.4,0-0.7,0c-0.2,0.2-0.4,0.3-0.6,0.3c-0.2,0-0.5,0-0.8,0.1
		c-0.3,0.1-0.6,0.2-1,0.3c-0.4,0.1-0.7,0.1-0.9,0.2c-0.3,0-0.7,0-1.4-0.1c-0.5-0.2-0.9-0.5-1.1-0.7c-0.3-0.2-0.4-0.5-0.5-0.8
		c-0.1-0.3,0-0.7,0.1-1c0.1-0.4,0.2-0.9,0.4-1.3c0.2-0.5,0.4-1,0.6-1.7c0.2-0.6,0.4-1.2,0.4-1.7c0.1-0.5,0.1-1,0.1-1.3
		c-2,1.6-3.8,3-5.4,4.5c-1.7,1.5-3.1,2.5-4,3.2c-0.4,0.4-0.6,0.6-0.8,0.6c-0.1,0.1-0.3,0.2-0.4,0.3c-0.1,0.1-0.3,0.3-0.7,0.4
		c-0.2,0.3-0.4,0.5-0.7,0.6c-0.2,0.1-0.5,0.2-0.7,0.4c-0.2,0.1-0.5,0.2-0.8,0.3c-0.3,0-0.6,0-0.9-0.2c-0.3-0.1-0.4-0.5-0.2-1
		c0.1-0.5,0.4-0.8,0.7-0.8c0.3-0.1,0.5-0.2,0.7-0.3c0.1-0.1,0.4-0.2,0.8-0.4c0.5-0.2,1.2-0.6,2-1.1c1.1-0.7,2.3-1.5,3.5-2.5
		c1.3-1,4.1-3.4,8.5-7.1l-0.4-0.1c-0.3,0.3-0.6,0.5-0.9,0.5c-0.3,0.1-0.7,0-1.4-0.3c-0.2,0.1-0.5,0.1-0.9,0.2
		c-0.1,0.1-0.3,0.2-0.4,0.1c-0.1-0.1-0.2-0.1-0.4,0c-0.1,0.1-0.4,0.1-0.7,0c-0.2,0.2-0.6,0.4-1.1,0.4c-0.2,0.1-0.4,0.2-0.6,0.3
		c-0.2,0.1-0.4,0.1-0.6,0.1c-0.2,0.1-0.3,0.2-0.5,0.2c-0.2,0-0.5,0.1-0.9,0.3c-0.3,0.2-0.5,0.2-0.9,0.3c-0.3,0.2-0.6,0.3-0.7,0.4
		c-0.1,0.1-0.4,0.3-0.8,0.5c-0.2,0.3-0.3,0.5-0.4,0.7s-0.3,0.3-0.5,0.4c-0.3,0.1-0.6,0.1-1-0.1c-0.4-0.4-0.5-0.9-0.4-1.4
		c0.1-0.5,0.4-0.8,0.9-1c1-0.5,2.4-1,4.1-1.4c1.7-0.4,3.5-0.8,5.4-1.1c1.2-0.8,1.9-1.4,2.2-1.7c0.3-0.3,0.7-0.8,1.1-1.6
		c0.5-1,0.8-2.3,1.1-3.9c-0.8,0.1-1.6,0.2-2.4,0.4c-0.8,0.2-1.8,0.5-2.8,0.9c-0.4,0.8-0.8,1.2-1.4,1.1c-0.6-0.1-0.9-0.3-1-0.7
		c-0.1-0.4-0.1-0.8,0.2-1.1c0.3-0.3,0.5-0.5,0.7-0.6c0.2-0.1,0.5-0.2,1.1-0.5c0.3-0.1,0.7-0.1,1.1-0.3c0.4-0.1,0.7-0.2,0.9-0.1
		c0.1,0.1,0.4,0,0.8-0.2c0.2-0.1,0.4-0.1,0.6,0c0.2-0.2,0.5-0.2,0.9-0.2c0.3-0.2,0.6-0.3,0.9-0.3c0.3,0,0.5,0,0.7-0.1
		c0-0.3,0-0.8,0-1.3c0-0.6,0-1.1,0-1.4c0-0.3,0.1-0.6,0.3-0.7c0.2-0.1,0.4-0.2,0.6-0.2c0.3,0,0.5,0.1,0.6,0.1c0.1,0,0.3,0.2,0.4,0.4
		c0.1,0.2,0.2,0.4,0.2,0.6s-0.1,0.7-0.2,1.4c0,0.3,0,0.6,0,0.9c0.4-0.1,0.8-0.1,1.2-0.2c0.4-0.1,0.9-0.1,1.7-0.2
		c0.5-0.1,0.9-0.1,1.1-0.1c0.2,0.1,0.3,0.3,0.4,0.6c0.1,0.3,0.1,0.5-0.1,0.8c-0.2,0.2-0.4,0.4-0.5,0.4c-0.2,0.1-0.4,0.1-0.5,0.1
		c-0.2,0-0.4,0-0.7-0.1c-0.3,0-0.5,0-0.8,0c-0.2,0-0.4,0-0.5,0.1c-0.1,0-0.6,0.1-1.3,0.2c0,0.7-0.1,1.1-0.1,1.3s-0.1,0.4-0.3,0.6
		c-0.1,0.2-0.2,0.5-0.2,1c-0.1,0.2-0.1,0.5-0.2,0.7c-0.1,0.2-0.2,0.4-0.2,0.6c0,0.2-0.1,0.4-0.2,0.5c-0.1,0.1-0.2,0.3-0.4,0.4
		c-0.2,0.2-0.3,0.4-0.3,0.6s-0.3,0.6-0.6,1c0.2,0.1,0.5,0.1,0.9,0.1c1.1-1,1.8-1.7,2.3-2.2c0.5-0.5,1.3-1.3,2.4-2.6
		c1.1-1.2,1.9-2.1,2.4-2.6s0.7-0.9,1-1.2c0.2-0.3,0.4-0.5,0.7-0.7c0.2-0.4,0.4-0.6,0.8-0.5s0.6,0.2,0.7,0.4c0.1,0.2,0.2,0.5,0.2,0.7
		c0,0.3-0.1,0.5-0.3,0.7c-0.2,0.2-0.4,0.3-0.5,0.5c-0.2,0.1-0.3,0.3-0.5,0.5c-0.6,0.7-1.2,1.2-1.9,1.8c-0.1,0.2-0.2,0.3-0.4,0.4
		c-0.2,0.1-0.3,0.2-0.4,0.3c-0.1,0.2-0.3,0.4-0.5,0.5c-0.2,0.1-0.3,0.2-0.4,0.4c-0.4,0.4-0.7,0.7-0.9,0.9c-0.2,0.2-0.4,0.5-0.6,0.7
		c-0.6,0.5-1,0.9-1.2,1.2c-0.3,0.3-0.6,0.6-1,0.8c0.8,0,1.5,0,2.1,0c0.6,0,1.6,0,2.9,0s2.7,0,4.2,0.1c0.2,0.1,0.5,0.1,0.7,0
		c0.2-0.1,0.6,0,1.1,0c0.2-0.1,0.4,0,0.6,0c0.2,0.1,0.4,0.1,0.5,0.1c0.4,0,0.7,0.1,1.1,0.4c0.2,0.2,0.3,0.3,0.4,0.6
		c0.1,0.2,0,0.4-0.2,0.6c-0.2,0.2-0.5,0.3-0.7,0.4C142.8,65.4,142.6,65.4,142.4,65.2z"/>
	<path class="st0" d="M160.9,73.2c0.7-0.3,1.2-0.5,1.6-0.6c0.4-0.1,0.8-0.2,1.3-0.2c0.5,0,0.8,0.2,1.1,0.6c0.2,0.2,0.3,0.5,0.4,0.8
		s0.1,0.7,0.1,1.3c0,0.3,0,0.6,0,0.8c0,0.2,0,0.4-0.1,0.6s0,0.7,0.1,1.4c0.5,1.1,1.1,1.7,1.7,1.9c0.6,0.2,1.4,0.2,2.4,0.2
		c0.7,0,1.2-0.1,1.8-0.3c0.5-0.2,1.5-0.6,3-1.3c0.5-0.2,1-0.4,1.5-0.7c0.3-0.2,0.5-0.4,0.8-0.4c0.2-0.1,0.5-0.1,0.7,0
		c0.2,0.1,0.4,0.1,0.6,0.2c0.2,0.1,0.4,0.3,0.4,0.5s0,0.5-0.2,0.7c-0.2,0.2-0.5,0.3-0.8,0.4c-0.3,0.1-0.6,0.2-0.9,0.3
		c-0.2,0.3-0.5,0.4-0.9,0.4c-0.3,0.1-0.5,0.2-0.7,0.3s-0.4,0.1-0.6,0.1c-0.2,0-0.4,0.1-0.6,0.3c-0.2,0.1-0.4,0.2-0.7,0.1
		c-0.4,0.3-0.7,0.5-1,0.5c-0.2,0-0.5,0-0.8,0.1c-0.3,0.1-0.5,0.2-0.7,0.2c-0.2,0-0.3,0-0.5,0.1c-0.2,0.1-0.5,0.1-0.9,0.1
		c-0.7,0.1-1.4-0.1-2.1-0.4c-0.7-0.3-1.3-0.6-1.7-0.9s-0.8-0.8-1-1.5c-0.3-0.7-0.4-1.3-0.5-1.7c-0.1-0.5-0.2-1.1-0.3-1.9
		c-0.1-0.4-0.2-0.7-0.3-0.7s-0.3-0.1-0.5,0c-0.2,0-0.3,0-0.5,0c-0.2,0-0.3,0.1-0.4,0.3c-0.1,0.2-0.2,0.3-0.3,0.3
		c-0.1,0-0.3,0.1-0.4,0.2c-0.1,0.1-0.3,0.2-0.6,0.1c-0.3,0.4-0.6,0.6-1.1,0.7c-0.5,0.2-0.8,0.4-0.9,0.6s-0.5,0.4-0.9,0.8
		c-0.4,0.2-0.8,0.4-1.1,0.6c-0.3,0.1-0.5,0.3-0.6,0.5c-0.1,0.2-0.3,0.4-0.6,0.6c-0.3,0.4-0.6,0.6-1,0.6c-0.3,0-0.6,0-0.9-0.1
		c-0.3-0.1-0.4-0.3-0.5-0.6c-0.1-0.3-0.1-0.6,0.1-0.9c0.1-0.3,0.4-0.5,0.6-0.7c1.3-1.2,2.6-2.3,3.9-3.3s2.7-2.3,4.2-3.7
		c0.3-0.4,0.6-0.7,0.9-0.7c0.1-0.3,0.2-0.5,0.4-0.6c0.1-0.1,0.2-0.2,0.4-0.3c0.3-0.2,0.5-0.5,0.8-0.8c0.2-0.3,0.5-0.6,0.7-0.9
		c0.2-0.3,0.4-0.7,0.7-1c0.3-0.3,0.5-0.7,0.6-1.1c0.1-0.3,0-0.6-0.2-0.7c-0.2-0.1-0.4-0.2-0.5-0.2c-0.4,0-0.7-0.1-0.9-0.3
		c-0.3,0.3-0.5,0.4-0.6,0.3c-0.1-0.1-0.3,0-0.4,0.1c-0.1,0.1-0.4,0.1-0.7,0c-0.2,0.1-0.5,0.1-0.7,0c-0.2,0.2-0.5,0.3-0.9,0.3
		c-0.2,0.2-0.5,0.3-0.9,0.4c-0.2,0.2-0.5,0.3-0.7,0.3s-0.4,0-0.7,0.1c-0.1,0.2-0.4,0.4-0.9,0.4c-0.1,0.2-0.3,0.2-0.4,0.3
		c-0.2,0-0.3,0.1-0.5,0.4c-0.1,0.3-0.3,0.6-0.4,1s-0.4,0.6-0.7,0.6c-0.4,0.1-0.7,0-1-0.3c-0.3-0.3-0.4-0.8-0.3-1.5
		c0.2-0.5,0.6-1,1.2-1.4c0.6-0.4,1-0.6,1.2-0.6c0.2-0.1,0.5-0.2,0.7-0.3s0.6-0.2,0.9-0.4c0.6-0.2,1.1-0.3,1.4-0.4
		c0.3-0.1,1-0.2,2-0.4c1-0.2,2.1-0.3,3.3-0.3c0.5,0,0.9,0.1,1.2,0.2s0.6,0.2,0.8,0.5c0.2,0.3,0.4,0.5,0.4,0.8
		c0.1,0.3,0.1,0.5,0.2,0.7c0.1,0.2,0.1,0.4,0.1,0.6c0,0.2-0.2,0.5-0.5,0.8c0,0.3-0.1,0.6-0.3,0.7c-0.1,0.5-0.3,0.8-0.5,0.9
		c-0.2,0.1-0.4,0.3-0.6,0.6c-1.2,1.2-2.1,2.2-2.8,2.9C162.6,71.5,161.8,72.3,160.9,73.2z M164.6,54.3c-0.4-0.2-0.7-0.4-0.9-0.5
		c-0.2-0.2-0.3-0.4-0.2-0.8s0.2-0.7,0.5-0.9c0.2-0.1,0.4-0.2,0.7-0.2c0.3,0,0.5,0,0.7,0.1s0.4,0.3,0.6,0.6c0.2,0.3,0.4,0.5,0.4,0.8
		c0.1,0.2,0.1,0.5,0.1,0.8c0.1,0.4,0.1,0.7,0.1,0.9c0,0.2-0.1,0.4-0.2,0.7c0.2,0.4,0.2,0.6,0.1,0.8c-0.1,0.1-0.1,0.3-0.1,0.6
		c-0.1,0.4-0.1,0.7-0.2,0.9s-0.1,0.4-0.1,0.5s0,0.3-0.2,0.5c0,0.4-0.1,0.7-0.4,0.9c-0.2,0.4-0.4,0.5-0.7,0.5s-0.6-0.1-0.9-0.2
		c-0.3-0.1-0.4-0.3-0.4-0.5c0-0.2,0.1-0.5,0.2-0.8c0.3-0.5,0.6-1,0.7-1.4c0.1-0.4,0.2-0.8,0.3-1.2s0.1-0.8,0.1-1.1
		C164.9,55.1,164.8,54.7,164.6,54.3z"/>
	<path class="st0" d="M197.2,65.4c0.2-0.4,0.5-0.5,0.8-0.5c0.1-0.3,0.2-0.4,0.4-0.4s0.3-0.1,0.3-0.2c0.1-0.1,0.2-0.3,0.5-0.4
		c0.2-0.1,0.4-0.2,0.5-0.4s0.2-0.3,0.4-0.4s0.3-0.3,0.5-0.6c0.1-0.2,0-0.4-0.4-0.6s-1-0.2-2.2-0.3c-0.3,0-0.5-0.1-0.7-0.1
		s-0.4,0-0.6,0s-0.4,0.1-0.5,0.1c-0.1,0-0.3,0-0.5,0c-0.2-0.1-0.3,0-0.5,0c-0.1,0.1-0.4,0-0.7-0.1c-0.1,0.2-0.3,0.2-0.4,0.1
		s-0.3-0.1-0.4,0c-0.1,0.1-0.3,0.1-0.4,0.1c-0.2,0.1-0.3,0.2-0.5,0.2c-0.2,0-0.4,0-0.7-0.1c-0.3,0.2-0.5,0.2-0.7,0.2
		c-0.3,0.1-0.6,0.1-0.7,0.2c-0.1,0.1-0.3,0.1-0.4,0c-0.5,0-0.9,0.1-1.3,0.2c-0.2,0.1-0.4,0.1-0.6,0.2c-0.2,0-0.4,0.1-0.7,0.1
		c-0.2,0-0.6,0.2-1.1,0.4c-0.2,0.5-0.3,0.8-0.5,1c-0.1,0.1-0.3,0.2-0.4,0.4c-0.2,0.1-0.4,0.1-0.7,0s-0.6-0.3-0.9-0.6
		c-0.3-0.3-0.4-0.7-0.3-1.1c0.1-0.4,0.3-0.7,0.6-1c0.4-0.2,0.8-0.4,1.3-0.4c0.6-0.2,1.4-0.3,2.2-0.5c0.8-0.1,1.6-0.3,2.1-0.3
		c0.4-0.1,0.7-0.2,0.9-0.1s0.4,0,0.5,0c0.2-0.1,0.4-0.1,0.6-0.1c0.2,0,0.5,0,0.7,0s0.4,0,0.5-0.1c0.1-0.1,0.3-0.1,0.6-0.1
		s0.7,0.1,1.1,0.2c0.3-0.1,0.7-0.2,1.3-0.3c0.4,0.1,0.8,0.1,1.2,0c1.3,0.1,2.5,0.2,3.7,0.5c0.4,0.2,0.7,0.4,1,0.6s0.4,0.6,0.4,1
		c0,0.4-0.1,0.8-0.3,1.1c-0.2,0.3-0.3,0.6-0.4,0.8c-0.1,0.2-0.4,0.5-0.9,0.8c-0.4,0.2-0.9,0.5-1.5,1c-0.6,0.4-1.3,0.9-2,1.5
		c-0.7,0.5-1.5,1.1-2.3,1.8c-0.8,0.7-1.6,1.3-2.4,2c-0.4,0.5-0.9,1-1.2,1.5c-0.4,0.5-0.6,0.9-0.7,1.2c-0.1,0.3-0.2,0.6-0.2,1.1
		c0,0.4,0.2,0.8,0.6,1.2c0.3,0.2,0.6,0.4,0.9,0.7c0.3,0,0.6,0.1,0.8,0.2c0.2,0.1,0.4,0.2,0.7,0.3s0.9,0.3,1.8,0.6
		c0.2,0.1,0.4,0.1,0.7,0.1c0.3,0,0.6,0.1,0.9,0.3c0.5,0,0.9,0.1,1.2,0.3c0.2,0.1,0.4,0.3,0.6,0.4c0.2,0.1,0.2,0.3,0.2,0.5
		c0,0.2-0.1,0.4-0.2,0.6c-0.1,0.2-0.3,0.4-0.5,0.4c-0.2,0.1-0.4,0.1-0.6,0.1c-0.2,0-0.6-0.1-1.1-0.3c-0.4-0.1-0.8-0.3-1-0.4
		c-0.4-0.2-1-0.4-1.7-0.7c-0.8-0.3-1.4-0.6-1.9-0.9c-0.4-0.2-0.8-0.3-1.1-0.5c-0.3-0.2-0.6-0.5-0.9-0.8c-0.6-0.4-1-0.9-1.1-1.5
		c-0.1-0.6,0-1.3,0.2-1.9c0.3-0.6,0.6-1.2,1-1.7s0.8-1,1.2-1.4c0.1-0.3,0.4-0.4,0.7-0.5c0.1-0.3,0.2-0.5,0.3-0.6
		c0.1-0.1,0.3-0.3,0.8-0.5c0.4-0.4,1-0.9,1.5-1.3c0.6-0.5,1-0.8,1.4-1c0.1-0.2,0.2-0.4,0.4-0.5S197,65.5,197.2,65.4z"/>
	<path class="st0" d="M220.5,59.9c0.2,0.2,0.4,0.3,0.5,0.5c0.1,0.2,0.3,0.3,0.4,0.5c0.1,0.1,0.2,0.4,0.2,0.8
		c0.3,0.3,0.4,0.6,0.5,0.9c0.2,0.3,0.3,0.5,0.3,0.9c0.2,0.3,0.2,0.7,0.1,1c0.1,0.3,0.1,0.5,0,0.8c0,0.3,0,0.7,0,1
		c-0.1,0.3-0.2,0.9-0.3,1.6c0.8-0.1,1.5,0,2.3,0c0.8,0.1,1.5,0.1,2.1,0.1s1.3,0,2.1,0c0.8,0,1.7,0.1,2.7,0.2
		c0.4-0.8,0.7-1.5,0.9-2.3c0.2-0.8,0.4-1.3,0.5-1.7c0.1-0.4,0.2-0.7,0.3-1c0.1-0.3,0.2-0.7,0.2-1.3c0.1-0.4,0.1-0.8,0.2-1
		c-0.1-0.3-0.1-0.5-0.1-0.7s0-0.5-0.1-1c-0.2-0.4-0.3-0.8-0.2-1.1c0.1-0.3,0.2-0.5,0.4-0.8c0.2-0.2,0.4-0.4,0.7-0.4
		c0.2,0,0.5,0.1,0.7,0.3c0.3,0.2,0.5,0.5,0.5,0.9c0.1,0.4,0.1,0.9,0.1,1.5c0,0.4,0,0.6,0,0.7c0,0.1-0.1,0.4-0.1,0.7
		s-0.1,0.6-0.1,0.7c0,0.2-0.1,0.4-0.3,0.5c0,0.3,0,0.5,0,0.7c0,0.1-0.1,0.4-0.3,0.7c0.1,0.2-0.1,0.5-0.4,0.8
		c0.1,0.4,0.1,0.7-0.1,0.9s-0.3,0.4-0.4,0.6c-0.1,0.2-0.2,0.5-0.3,0.8c-0.1,0.3-0.3,0.7-0.5,1.3c1,0.1,2.2,0.2,3.3,0.3
		c1.2,0.1,2,0.2,2.6,0.4c0.5,0.1,0.8,0.2,1.1,0.4c0.3,0.2,0.4,0.4,0.4,0.6s-0.1,0.5-0.3,0.8s-0.4,0.4-0.7,0.5
		c-0.3,0.1-0.5,0-0.8-0.1c-0.3-0.1-0.5-0.2-0.7-0.4c-0.4-0.2-0.7-0.4-1.1-0.5c-0.3,0.1-0.5,0-0.6-0.1s-0.3-0.1-0.4-0.1
		c-0.1,0.1-0.3,0.1-0.5,0c-0.2-0.1-0.4-0.1-0.5,0c-0.1,0.1-0.4,0-0.7-0.2c-0.3,0.2-0.6,0.2-0.8,0.1c-0.2-0.1-0.5-0.1-0.9,0
		c-0.1,0.5-0.3,0.9-0.6,1c0,0.3-0.1,0.6-0.2,0.7c-0.1,0.1-0.3,0.3-0.4,0.7c-0.2,0.3-0.4,0.8-0.7,1.3c-0.1,0.3-0.2,0.5-0.3,0.8
		c-0.1,0.2-0.3,0.5-0.5,0.8c-0.1,0.4-0.2,0.7-0.4,0.9s-0.3,0.4-0.4,0.7c-0.1,0.3-0.2,0.6-0.4,0.7c-0.1,0.3-0.2,0.4-0.4,0.5
		c0,0.3-0.1,0.5-0.2,0.7s-0.3,0.4-0.4,0.6s-0.4,0.6-0.6,1.1s-0.4,0.8-0.6,1.1s-0.3,0.5-0.4,0.6s-0.2,0.3-0.2,0.6
		c0,0.2-0.2,0.5-0.4,0.8c-0.1,0.3-0.2,0.6-0.4,0.9c-0.2,0.4-0.3,0.6-0.5,0.7c-0.2,0.1-0.3,0.3-0.4,0.5s-0.3,0.5-0.4,0.6
		c-0.1,0.1-0.3,0.2-0.5,0.2c-0.3,0-0.5,0-0.8-0.1c-0.2-0.1-0.4-0.2-0.4-0.5c0-0.3,0-0.5,0.1-0.7c0.1-0.2,0.2-0.4,0.3-0.6
		s0.2-0.4,0.3-0.5c0.2-0.2,0.3-0.4,0.5-0.6s0.3-0.3,0.4-0.4s0.2-0.2,0.2-0.4s0.1-0.3,0.2-0.4s0.3-0.3,0.4-0.5
		c0.2-0.1,0.2-0.2,0.2-0.3s0.1-0.3,0.3-0.5c0.1-0.3,0.2-0.5,0.4-0.7c0.2-0.2,0.4-0.5,0.6-0.9c0.2-0.3,0.9-1.5,2-3.5
		c1.2-2,2.1-3.9,2.9-5.8c-1-0.1-1.7-0.1-2.2-0.2c-0.5-0.1-0.8-0.1-1,0c-0.2,0.1-0.4,0-0.7-0.1c-0.2,0.1-0.4,0.1-0.5,0s-0.3,0-0.4,0
		c-0.1,0.1-0.2,0-0.4,0s-0.4-0.1-0.5,0c-0.2,0.1-0.4,0-0.6-0.2c-0.3,0.1-0.5,0.2-0.8,0.2c-0.2,0.1-0.4,0-0.6-0.1
		c-0.2-0.1-0.3-0.1-0.5-0.1s-0.5,0.1-0.8,0.1c-0.2,0.4-0.4,0.7-0.6,0.9c0,0.4-0.1,0.7-0.3,0.8c-0.2,0.1-0.3,0.2-0.3,0.4
		s-0.2,0.3-0.5,0.5c0,0.3-0.1,0.6-0.3,0.7c-0.2,0.1-0.4,0.3-0.6,0.5c-0.2,0.2-0.6,0.5-1.1,0.8s-0.9,0.5-1.2,0.6
		c-0.4,0.2-0.8,0.4-1.1,0.6c-0.3,0.1-0.6,0.2-1,0.3c-0.3,0-0.7,0-1,0s-0.7-0.2-1-0.4c-0.3-0.2-0.5-0.5-0.8-0.9
		c-0.3-0.4-0.5-1-0.6-1.7s0-1.3,0.2-2c0.3-0.7,0.7-1.2,1.3-1.5c0.6-0.3,1.3-0.5,2.1-0.6c0.8-0.2,1.5-0.2,1.9-0.3c0.4,0,0.9,0,1.3,0
		s1.1,0,1.9,0c0.2-0.8,0.4-1.5,0.4-2c0.1-0.5,0-1-0.1-1.4c-0.1-0.4-0.2-0.8-0.4-1.2c-0.1-0.3-0.3-0.6-0.6-0.9
		c-0.2-0.3-0.4-0.5-0.6-0.7c-0.2-0.1-0.4-0.3-0.6-0.3c-0.4-0.1-0.8-0.3-1-0.5c-0.2-0.2-0.3-0.6-0.2-1.1s0.3-0.8,0.8-0.8
		c0.4,0,0.7,0,0.8,0.1c0.1,0.1,0.3,0.1,0.6,0.3S220.2,59.5,220.5,59.9z M215.4,73.3c0.3-0.1,0.7-0.2,1.1-0.5
		c0.4-0.2,0.8-0.5,1.1-0.6c0.3-0.3,0.5-0.6,0.8-0.8c0.3-0.4,0.6-0.7,0.7-0.9c0.1-0.2,0.3-0.5,0.5-1.1c-0.3-0.1-0.5-0.1-0.7,0
		s-0.3,0-0.5-0.1c-0.1-0.1-0.3-0.1-0.5-0.1c-0.2,0.1-0.4,0.1-0.6,0.1c-0.2,0-0.3,0-0.5,0.1c-0.1,0.1-0.3,0.1-0.6,0
		c-0.3,0.2-0.6,0.3-1.1,0.3c-0.3,0.3-0.6,0.4-0.8,0.5s-0.4,0.2-0.7,0.5c-0.1,0.2-0.2,0.3-0.3,0.5s-0.1,0.3-0.1,0.5
		c0,0.2,0.1,0.4,0.2,0.6c0.1,0.2,0.2,0.4,0.4,0.6c0.3,0.3,0.6,0.4,0.8,0.4C214.7,73.4,215,73.4,215.4,73.3z"/>
	<path class="st0" d="M255,63.8c-0.5-0.3-0.7-0.6-0.8-0.9c-0.1-0.3,0-0.6,0.1-0.9c0.1-0.3,0.4-0.5,0.8-0.6c0.1-0.4,0.1-0.7,0-0.9
		c-0.1-0.2-0.1-0.5,0-0.9c0-0.4,0-0.6,0-0.8s-0.1-0.3-0.2-0.5c-0.1-0.2-0.2-0.4-0.3-0.6c-0.1-0.2-0.1-0.5-0.2-0.7
		c-0.4-0.1-0.7-0.3-0.8-0.6c-0.1-0.3-0.2-0.5-0.1-0.7c0.1-0.1,0.1-0.3,0.2-0.4c0.1-0.1,0.2-0.2,0.4-0.4c0.2-0.2,0.4-0.2,0.7-0.2
		s0.6,0.1,0.8,0.4c0.2,0.3,0.4,0.6,0.5,0.9s0.3,0.6,0.4,0.9c0.1,0.6,0.2,1,0.2,1.3c0,0.3,0,0.6,0.1,0.9c0,0.3,0,0.5,0.1,0.8
		c0,0.2,0,0.4,0,0.6c0,0.1,0,0.5,0,1c0.8,0.2,1.6,0.3,2.7,0.4s2.1,0.1,3.2,0.1c1.1,0,2.5-0.2,4.3-0.5c0.3-0.1,0.6,0,0.8,0
		s0.4,0.3,0.4,0.6c0,0.4,0,0.6-0.2,0.8c-0.1,0.2-0.3,0.3-0.5,0.3c-0.2,0-0.4,0-0.5,0s-0.4,0.1-0.8,0.2c-0.6,0.1-1.1,0-1.4-0.1
		c-0.3,0.2-0.5,0.2-0.7,0.2s-0.4-0.1-0.6,0s-0.4,0.1-0.5,0c-0.1-0.1-0.4,0-0.7,0.1c-0.3-0.1-0.5-0.1-0.6-0.1c-0.1,0.1-0.3,0-0.6-0.1
		c-0.5,0.2-1,0.1-1.6-0.1c-0.3,0.2-0.6,0.2-0.9,0.2s-0.5-0.1-0.8-0.2c-0.2-0.1-0.6-0.1-1.1-0.1c0,0.5,0,0.8,0,1.1c0,0.5,0,0.8,0,1
		s-0.1,0.5,0,0.8c0,0.4,0,0.7-0.1,1c-0.1,0.2-0.1,0.6,0,1c-0.2,2.3-0.5,4.2-0.8,5.7c1.2,0.1,2.5,0.1,3.9,0.2s2.5,0.2,3.4,0.3
		c0.6,0.1,1.2,0.1,1.8,0.1c0.6,0,1,0.1,1.3,0.3s0.5,0.3,0.6,0.6c0.1,0.2,0.1,0.4,0.1,0.6c0,0.2-0.1,0.3-0.3,0.4s-0.3,0.2-0.4,0.3
		s-0.4,0.1-0.7,0.1c-0.3,0-0.6-0.2-1-0.4c-0.7-0.1-1.2-0.2-1.6-0.4c-0.4-0.1-0.9-0.2-1.5-0.2c-0.5,0-1.3-0.1-2.4-0.3
		c-0.3,0-0.7,0-1,0c-0.4,0-0.7,0-1,0c-0.4-0.1-0.6-0.1-0.8,0c-0.1,0.1-0.4,0.1-0.8,0c-0.2,0.4-0.3,0.8-0.4,1.2s-0.3,0.8-0.5,1.1
		s-0.4,0.7-0.6,1c-0.2,0.3-0.7,0.8-1.7,1.5c-0.4,0.2-0.8,0.3-1.2,0.4c-0.4,0.1-0.8,0-1.3-0.1c-0.4,0.1-0.7,0.1-1-0.1
		s-0.6-0.3-0.9-0.4c-0.5-0.2-0.8-0.4-1.1-0.8c-0.2-0.4-0.4-0.7-0.5-0.8c-0.1-0.2-0.2-0.4-0.2-0.6c0-0.2,0-0.6,0.2-1
		c0.1-0.4,0.4-0.8,0.9-1.1c0.4-0.3,0.8-0.6,1.2-0.7c0.4-0.1,0.7-0.3,1.1-0.4c0.4-0.1,1.2-0.3,2.4-0.5c0.7-0.1,1.1-0.1,1.3-0.1
		c0.2,0,0.6,0,1.2,0c0.2-0.5,0.2-0.8,0.3-1.1c0.1-0.6,0.2-1.1,0.3-1.3s0.1-0.7,0.2-1.3c0.1-0.3,0.1-0.6,0.1-0.9c0-0.3,0-0.6,0.1-0.8
		c0.1-0.3,0.1-0.5,0-0.8c0.1-0.7,0.2-1.1,0.2-1.4c0-0.3,0-0.6,0-0.8c0-0.2,0-0.5,0-0.8C255.1,64.7,255,64.3,255,63.8z M248.9,78.9
		c0.4,0,0.9,0.1,1.4,0.1c0.5,0,1-0.1,1.5-0.4c0.4-0.3,0.8-0.7,1.1-1.2c0.3-0.5,0.5-1,0.6-1.6c-0.4,0-0.7,0-0.9,0s-0.5,0-0.9,0
		c-0.3,0.2-0.6,0.3-0.8,0.3c-0.2,0-0.4,0-0.6,0.1s-0.4,0.2-0.7,0.3c-0.3,0.1-0.6,0.3-1.1,0.6c-0.3,0.3-0.4,0.6-0.4,0.8
		c0,0.2,0.1,0.4,0.2,0.5C248.4,78.4,248.6,78.6,248.9,78.9z"/>
	<path class="st0" d="M277.8,63.2c0.3-0.3,0.6-0.5,1.1-0.7c0.4-0.2,1.1-0.4,2.1-0.7c1-0.3,2.3-0.4,3.6-0.4c1.4,0,2.4,0.2,2.9,0.4
		s1,0.5,1.4,0.8c0.3,0.3,0.6,0.5,0.8,0.8c0.1,0.2,0.3,0.4,0.4,0.6c0.1,0.2,0.2,0.5,0.2,1c0.1,0.6,0.2,1,0.1,1.3
		c-0.1,0.3-0.1,0.6-0.1,0.8s-0.1,0.8-0.4,1.5c-0.3,0.6-0.5,1.1-0.7,1.4s-0.6,1-1.3,2c-0.7,1-1.6,2.1-2.6,3.3c-1,1.1-1.7,2-2.2,2.5
		c-0.4,0.5-0.9,1-1.3,1.4c-0.4,0.4-0.8,0.8-1.1,1.2c-0.3,0.2-0.5,0.4-0.6,0.6c-0.1,0.2-0.2,0.3-0.4,0.4s-0.3,0.3-0.4,0.5
		c-0.3,0.2-0.6,0.5-0.8,0.9c-0.3,0.3-0.5,0.5-0.6,0.5c-0.1,0-0.3,0.1-0.4,0.2s-0.3,0.1-0.5,0c-0.2-0.1-0.4-0.3-0.5-0.6
		c-0.1-0.3-0.1-0.6,0-0.9s0.3-0.6,0.5-0.8c0.2-0.2,0.4-0.3,0.5-0.4c0.2-0.1,0.4-0.2,0.6-0.3c0.2-0.4,0.4-0.6,0.6-0.6
		s0.3-0.1,0.4-0.2c0.1-0.1,0.2-0.2,0.3-0.3s0.3-0.2,0.4-0.4s0.3-0.3,0.5-0.5c0.2-0.1,0.4-0.2,0.4-0.4s0.2-0.3,0.3-0.4
		c0.4-0.3,0.7-0.6,1-0.7c0.1-0.2,0.2-0.4,0.3-0.5s0.2-0.2,0.4-0.3c0.2-0.3,0.4-0.5,0.6-0.6c0.2-0.3,0.4-0.6,0.7-0.9
		c0.2-0.2,0.4-0.4,0.6-0.6c0.3-0.4,0.6-0.7,0.9-1c0.2-0.4,0.4-0.8,0.7-1.1c0.2-0.2,0.3-0.5,0.5-0.7c0.3-0.5,0.6-0.9,0.9-1.4
		s0.5-1,0.7-1.6c0.2-0.2,0.2-0.4,0.2-0.6s0.1-0.4,0.3-0.6c0-0.4,0-0.7,0.1-1.1c-0.2-0.3-0.2-0.5-0.2-0.7c0-0.2-0.1-0.3-0.2-0.5
		c-0.1-0.2-0.3-0.4-0.4-0.5c-0.3-0.3-0.6-0.5-0.9-0.7c-0.3-0.1-0.6-0.2-0.9-0.3c-0.3,0-0.5,0-0.7-0.1c-0.2-0.2-0.4-0.2-0.6-0.1
		c-0.2,0.1-0.4,0-0.7-0.1c-0.3,0.2-0.7,0.2-1.2,0.2c-0.3,0-0.5,0-0.7,0.1c-0.5,0.2-1,0.3-1.5,0.3c-0.3,0.2-0.6,0.3-0.9,0.3
		c-0.1,0.2-0.3,0.3-0.4,0.4c-0.2,0.1-0.3,0.2-0.5,0.2c-0.4,0.2-0.7,0.4-0.8,0.6s-0.3,0.4-0.5,0.7c0.2,0.4,0.3,0.8,0.2,1.1
		s-0.2,0.6-0.4,0.7c-0.2,0.1-0.5,0.1-1,0c-0.4-0.2-0.7-0.5-0.9-0.8c-0.2-0.3-0.3-0.6-0.2-0.9c0.1-0.3,0.2-0.6,0.5-1
		c0.2-0.4,0.4-0.7,0.7-0.9c0.2-0.2,0.5-0.3,0.6-0.4C277.2,63.5,277.4,63.3,277.8,63.2z M282.2,52.6c-0.1,0.4-0.3,0.7-0.6,0.8
		c-0.3,0.1-0.5,0-0.7-0.1c-0.1-0.1-0.3-0.3-0.4-0.4c-0.2-0.2-0.3-0.4-0.2-0.8s0.2-0.7,0.6-1c0.4-0.3,0.8-0.5,1.2-0.5
		c0.5,0,0.9,0.1,1.1,0.2c0.2,0.1,0.5,0.3,0.7,0.5c0.2,0.2,0.5,0.5,0.8,0.9c0.2,0.1,0.4,0.4,0.5,0.7c0.2,0.4,0.3,0.8,0.4,1.2
		c0.2,0.2,0.2,0.4,0.3,0.7c0,0.3,0,0.7,0.1,1.4c0,0.7,0,1.3,0,1.7c0.1,0.5,0,1-0.2,1.4c-0.2,0.2-0.3,0.3-0.6,0.5s-0.5,0.2-0.7,0
		s-0.4-0.4-0.5-0.6c-0.1-0.4-0.1-0.7,0-1c0-0.2,0-0.5,0-0.7c0-0.5,0-0.9,0-1.2c0-0.3,0-0.6,0-0.7c0-0.1-0.1-0.3-0.1-0.6
		c-0.2-0.3-0.3-0.6-0.3-0.8c-0.2-0.3-0.5-0.6-0.7-0.9C282.8,53,282.5,52.8,282.2,52.6z"/>
</g>
</svg>
