<?xml version="1.0" encoding="utf-8"?>
<!-- Generator: Adobe Illustrator 28.0.0, SVG Export Plug-In . SVG Version: 6.00 Build 0)  -->
<svg version="1.1" id="レイヤー_1" xmlns="http://www.w3.org/2000/svg" xmlns:xlink="http://www.w3.org/1999/xlink" x="0px"
	 y="0px" width="361.4px" height="88.4px" viewBox="0 0 361.4 88.4" style="enable-background:new 0 0 361.4 88.4;"
	 xml:space="preserve">
<style type="text/css">
	.st0{fill:#0000FF;}
</style>
<g>
	<path class="st0" d="M12.3,27.2c-0.1,0.3-0.1,0.6-0.2,1c0,0.4-0.1,0.7-0.1,1.1c-0.1,0.2-0.1,0.4-0.1,0.5c0,0.1,0,0.2-0.1,0.4
		c0.1,0.3,0.1,0.6,0.1,0.9c-0.2,0.3-0.3,0.5-0.2,0.6c0,0.2,0,0.4,0,0.8c0,0.4-0.1,0.7-0.3,1.1c-0.2,0.4-0.5,0.7-0.7,0.8
		c-0.4,0.1-0.8,0-1-0.3c-0.2-0.2-0.3-0.5-0.3-0.9c0-0.4,0.1-0.6,0.3-0.8c0.2-0.2,0.3-0.4,0.4-0.7s0.2-0.6,0.3-0.9
		c0.2-1,0.4-1.7,0.4-2.1c0.1-0.5,0.1-1,0.2-1.7c-0.3,0.2-0.6,0.4-1,0.6C9.6,27.7,9,28,8.2,28.4c-1.4,1-2.3,1.5-2.6,1.7
		c-0.3,0.2-0.6,0.4-1.1,0.7c-0.5,0.4-0.9,0.5-1.3,0.2c-0.4-0.2-0.6-0.5-0.5-0.8c0-0.3,0.1-0.5,0.3-0.6c0.2-0.1,0.3-0.2,0.5-0.3
		C3.8,29.2,4,29.1,4.2,29c0.2-0.1,0.5-0.3,0.7-0.4c0.2-0.1,0.3-0.1,0.4-0.1c0.1,0,0.3-0.1,0.4-0.2C5.9,28.1,6,28,6.1,27.8
		c0.1-0.1,0.2-0.2,0.4-0.2c0.2,0,0.4-0.1,0.5-0.2c0.1-0.2,0.4-0.3,0.7-0.4c0.2,0,0.4-0.1,0.7-0.4c0.2-0.2,0.4-0.3,0.6-0.4
		c0.2-0.2,0.4-0.3,0.5-0.3c0.1-0.1,0.2-0.1,0.3-0.2c0.1-0.1,0.2-0.3,0.4-0.5c0.2-0.2,0.5-0.4,1-0.6c0.1-0.5,0.1-1,0.2-1.6
		c-0.3,0.2-0.6,0.2-0.8,0.2c-0.2-0.1-0.4,0-0.5,0.1c-0.1,0.1-0.3,0.2-0.5,0.2c-0.2,0.1-0.4,0.1-0.8,0.1s-0.6,0.1-0.7,0.3
		c-0.4,0.2-0.9,0.3-1.3,0.3c-0.3,0.1-0.5,0.2-0.9,0.2c-0.3,0.3-0.6,0.4-1.1,0.4c-0.2,0.2-0.4,0.4-0.6,0.4c-0.2,0-0.3,0.1-0.5,0.2
		c-0.2,0.2-0.4,0.2-0.6,0.2c-0.4,0.3-0.7,0.5-0.9,0.6c-0.1,0.3-0.3,0.5-0.5,0.7C1.5,27,1.3,27.1,1.1,27c-0.2-0.1-0.4-0.2-0.6-0.4
		c-0.2-0.1-0.4-0.3-0.4-0.6c-0.1-0.5,0.1-0.8,0.4-1c0.3-0.2,0.6-0.3,1-0.4c0.3-0.1,0.6-0.2,0.9-0.4c1.4-0.5,2.8-1,4.1-1.3
		c1.3-0.4,3-0.8,5-1.2c-0.1-0.3-0.1-0.7-0.1-1.1c0-0.4,0-0.8,0-1.3c0.1-0.3,0.3-0.5,0.5-0.5s0.5-0.1,0.7,0c0.2,0.1,0.4,0.2,0.5,0.4
		c0.1,0.1,0.1,0.3,0.1,0.4c0,0.1,0,0.3,0,0.4C13.1,20.5,13,21,13,21.5c0.7-0.1,1.3-0.1,1.9-0.2c1-0.1,1.6-0.1,1.9-0.1
		c0.3,0,0.7,0.1,1.3,0.2c0.6,0.1,1,0.3,1.2,0.6c0.2,0.4,0.2,0.7,0,1c-0.2,0.2-0.4,0.4-0.5,0.5c-0.3,0.2-0.5,0.2-0.8,0.2
		c-0.3,0-0.5-0.1-0.7-0.3C17.2,23.1,17,23,16.8,23c-0.4-0.1-0.7-0.2-1-0.3c-0.3,0.2-0.6,0.1-0.8-0.1c-0.5,0.1-0.9,0.1-1.1,0.1
		c-0.2,0-0.5,0.1-0.9,0.1c-0.1,0.3-0.2,0.6-0.2,1c0,0.4-0.1,0.8-0.2,1.2c0.3,0.1,0.5,0.2,0.5,0.4c0,0.1,0.1,0.3,0.2,0.4
		c0.1,0.1,0.3,0.3,0.5,0.4c0.2,0,0.4,0.1,0.5,0.2c0.1,0.1,0.2,0.2,0.5,0.3s0.4,0.1,0.5,0.2s0.3,0.3,0.7,0.4c0.3,0.1,0.6,0.2,1,0.4
		c0.4,0.1,0.6,0.2,0.8,0.4c0.2,0.1,0.3,0.1,0.5,0.1c0.2,0,0.3,0.1,0.4,0.2c0.2,0,0.4,0.1,0.5,0.3c0.1,0.1,0.2,0.4,0.1,0.6
		s-0.2,0.5-0.5,0.6c-0.2,0.1-0.5,0.1-0.9-0.1c-0.5-0.2-1-0.4-1.5-0.5c-0.5-0.2-1.1-0.5-1.8-0.9C13.8,27.8,13.1,27.5,12.3,27.2z
		 M11.6,16.3c0.4-0.3,0.7-0.6,0.8-0.8c0.2-0.3,0.4-0.6,0.7-1c0.3-0.4,0.6-0.8,0.9-1.3s0.8-1.5,1.7-3.2c0-0.3,0.1-0.5,0.3-0.9
		c-0.2-0.1-0.4-0.1-0.6,0c-0.2,0-0.5,0-0.8,0c-0.4,0-0.7,0-1.1,0.1c-0.4-0.1-0.7-0.1-1.1,0c-0.4,0.1-0.7,0.1-1.1,0.1
		c-0.2-0.1-0.4-0.1-0.7,0c-0.2,0.1-0.4,0.1-0.6,0.1s-0.3,0-0.4,0.1S9.4,9.5,9.2,9.5c-0.2,0-0.4,0-0.7,0.2C8.3,9.8,8,9.8,7.7,9.8
		C7.4,9.9,7.1,10,7,10.1s-0.3,0.1-0.5,0.1c-0.2,0-0.4,0.1-0.5,0.3c-0.1,0.2-0.4,0.4-0.8,0.6c-0.7-0.1-1-0.3-1.2-0.6
		c-0.1-0.3-0.1-0.6,0.1-1c0.2-0.4,0.4-0.6,0.7-0.7c0.3-0.1,0.6-0.2,0.8-0.2c0.7-0.2,1.5-0.3,2.2-0.4c0.7-0.1,1.3-0.1,1.7-0.2
		c0.4-0.1,1.1-0.2,1.9-0.4C11.8,7.3,12,7,12.1,6.8c0.1-0.2,0.2-0.4,0.3-0.6c0.1-0.2,0.2-0.5,0.3-0.9c0.1-0.4,0.2-0.8,0.3-1.3
		c0-0.2,0-0.3-0.1-0.5c-0.1-0.2-0.1-0.4-0.2-0.5c-0.1-0.2-0.1-0.4-0.2-0.5c-0.1-0.2-0.1-0.4,0-0.6c0.1-0.2,0.4-0.4,1-0.5
		c0.3,0.1,0.5,0.2,0.6,0.3c0.1,0.1,0.2,0.3,0.3,0.5c0.1,0.2,0.2,0.3,0.2,0.5c0.1,0.1,0,0.4-0.1,0.7c0,0.2,0,0.3,0.1,0.5
		s0,0.4-0.1,0.7l-0.1,0.7c-0.2,0.3-0.3,0.6-0.3,0.8c0,0.2-0.1,0.4-0.1,0.6c-0.1,0.2-0.1,0.5-0.2,1.1c0.8,0,1.6,0,2.2,0
		c0.6,0,1.2,0,1.7,0.1c0.4,0,0.8,0,1.2,0c0.4,0,0.8,0.1,1.1,0.3c0.2,0.2,0.3,0.3,0.4,0.5c0.1,0.2,0.1,0.4,0.1,0.7
		c0,0.3-0.1,0.5-0.3,0.7C20.1,10,19.8,10,19.5,10c-0.3,0-0.5-0.1-0.7-0.2c-0.2-0.1-0.6-0.2-1.3-0.4c0.2,0.5,0.2,0.8,0.1,1.1
		c-0.1,0.2-0.3,0.5-0.6,0.8c-0.2,0.3-0.4,0.6-0.5,0.8c-0.1,0.2-0.3,0.4-0.4,0.6c-0.2,0.4-0.4,0.7-0.6,0.8c-0.1,0.3-0.2,0.6-0.4,1
		c-0.2,0.4-0.4,0.6-0.6,0.8c-0.2,0.2-0.4,0.4-0.5,0.8c1.7-0.2,3.2-0.3,4.5-0.4c0.5,0.1,0.9,0.2,1.2,0.4c0.3,0.2,0.5,0.4,0.5,0.9
		c0,0.4-0.3,0.8-0.8,1.2c-0.1,0.3-0.4,0.5-0.8,0.5c-0.4,0-0.7-0.1-0.9-0.5s-0.2-0.6,0-0.8c-0.4-0.1-0.8-0.2-1-0.2
		c-0.2,0-0.6,0-1.1,0c-0.5,0-0.9,0-1.2,0s-0.8,0.1-1.6,0.3c-0.6,0.5-1,0.8-1.2,0.9c-0.2,0-0.5,0-0.8,0c-0.3-0.1-0.6-0.2-0.8-0.5
		c-0.5,0.2-1.2,0.3-2.1,0.4c-0.9,0.1-1.6,0.3-2.1,0.5C5.5,19,5.2,19.1,5,19.2c-0.2,0-0.4,0.1-0.6,0.2c-0.2,0.1-0.4,0.2-0.6,0.3
		C3.5,19.9,3.2,20,2.9,20c-0.3-0.1-0.5-0.2-0.7-0.4c-0.2-0.2-0.3-0.4-0.3-0.6c0-0.2,0.1-0.4,0.4-0.6c0.2-0.2,0.5-0.4,0.8-0.5
		c0.3-0.1,0.5-0.1,0.8-0.2c0.3-0.2,0.7-0.3,1.1-0.4c0.4-0.1,0.9-0.1,1.4-0.2c0.5-0.1,1.4-0.2,2.5-0.4c-0.3-0.4-0.5-0.7-0.6-1.1
		C8.1,15.4,8,15,8,14.6c-0.1-0.4-0.1-1.1-0.2-2.2c0-0.4,0-0.9,0.2-1.3c0.1-0.4,0.4-0.6,0.9-0.5c0.5,0.2,0.8,0.3,0.9,0.5
		c0.1,0.2,0.1,0.4-0.1,0.8c0,0.2,0,0.4-0.1,0.7c-0.1,0.3-0.1,0.5,0,0.6c0.1,0.1,0.1,0.3,0,0.5c-0.1,0.2-0.1,0.4,0,0.5
		c0.1,0.2,0.1,0.4,0,0.6c0,0.2,0.1,0.3,0.3,0.5c0.2,0.2,0.3,0.4,0.5,0.5c0.2,0.1,0.4,0.3,0.7,0.5L11.6,16.3z M22.6,28.1
		c0.4,0.2,0.7,0.5,0.7,0.8c0.2,0.1,0.3,0.2,0.3,0.4c0,0.2-0.1,0.4-0.2,0.6c-0.1,0.2-0.2,0.3-0.3,0.4c-0.1,0.1-0.4,0.2-0.7,0.2
		c-0.2,0-0.4-0.1-0.5-0.3c-0.1-0.1-0.3-0.3-0.5-0.4c-0.2-0.1-0.3-0.3-0.4-0.5c-0.1-0.2-0.2-0.4-0.2-0.6c-0.1-0.2-0.1-0.5-0.2-0.8
		c-0.1-0.3-0.1-0.6,0-1c0-0.2,0-0.5,0-0.7c0-0.2,0.1-0.5,0.2-0.8c0.1-0.7,0.3-1.6,0.6-2.8c0.3-1.2,0.6-2.6,1-4.1
		c0.1-0.4,0.2-0.7,0.2-1c0.1-0.2,0.1-0.5,0.1-0.7c0-0.3,0.1-0.7,0.3-1.4c0.1-0.4,0.2-0.8,0.3-1.1c0.1-0.3,0.3-0.5,0.6-0.6
		c0.3-0.1,0.6,0,0.9,0.2c0.3,0.3,0.5,0.5,0.5,0.8c0.1,0.3,0,0.5-0.1,0.7c-0.1,0.2-0.3,0.4-0.5,0.6c0,0.3-0.1,0.7-0.4,1.1
		c-0.3,1.1-0.6,2-0.8,2.6c-0.2,0.6-0.4,1.3-0.6,2.1c-0.2,0.8-0.4,1.3-0.5,1.7c0.1,0.3,0,0.6-0.2,1c0.1,0.2,0,0.5,0,0.7
		c-0.1,0.2-0.2,0.5-0.3,0.6c0.1,0.3,0.1,0.6,0,0.7c-0.1,0.1,0,0.3,0,0.5c0.1,0.2,0.1,0.4,0.2,0.5C22.4,27.7,22.5,27.9,22.6,28.1z
		 M26.6,12.4c-0.3,0.4-0.7,0.6-1,0.5c-0.3-0.1-0.5-0.2-0.7-0.4c-0.2-0.2-0.2-0.5-0.1-0.7c0.1-0.2,0.3-0.4,0.6-0.6
		c0.2-0.2,0.3-0.4,0.5-0.5c0.1-0.1,0.2-0.2,0.3-0.4c0.1-0.1,0.2-0.2,0.5-0.3c0.2-0.2,0.4-0.4,0.4-0.5c0.1-0.1,0.2-0.2,0.4-0.3
		s0.4-0.3,0.5-0.6c0.2-0.1,0.4-0.3,0.7-0.5C28.8,8,29,7.9,29.4,7.7c0.2-0.2,0.3-0.4,0.5-0.6C30,7,30.2,6.9,30.3,6.8
		c0.1-0.2,0.3-0.4,0.6-0.5c0.2-0.2,0.5-0.4,0.8-0.6c0.3-0.2,0.6-0.3,0.9-0.3c0.3,0,0.5,0.1,0.8,0.3c0.3,0.2,0.4,0.5,0.4,0.7
		c0,0.2,0,0.4-0.1,0.6c-0.1,0.2-0.3,0.3-0.5,0.4C32.6,7.5,32,7.7,31.4,8c-0.6,0.4-1.2,0.9-1.9,1.5c-0.3,0.3-0.6,0.6-0.9,0.9
		L26.6,12.4z M31.1,21.4c-0.1-0.8-0.1-1.4-0.2-1.9c-0.1-0.5-0.2-1.1-0.2-1.8c-0.5,0-1,0.1-1.4,0.3c-0.4,0.2-0.7,0.3-1.1,0.5
		c-0.2,0-0.3,0.1-0.4,0.2c-0.1,0.1-0.2,0.2-0.4,0.2c-0.1,0.3-0.2,0.6-0.5,0.8c-0.2,0.2-0.5,0.4-0.9,0.4c-0.3,0-0.6-0.1-0.8-0.4
		c-0.3-0.3-0.4-0.6-0.4-0.9s0.2-0.6,0.5-0.8c0.3-0.2,0.6-0.4,0.8-0.5c0.3-0.2,0.7-0.3,1-0.4c0.4-0.1,0.7-0.2,1.1-0.4
		c0.4-0.1,0.8-0.3,1.3-0.4c0.5-0.1,2-0.4,4.6-1c0.5-0.1,0.9-0.2,1.2-0.4c0.3-0.1,0.6-0.2,0.8-0.2s0.5,0,0.7,0.2
		c0.3,0.4,0.5,0.7,0.4,1c-0.1,0.2-0.3,0.4-0.6,0.6c-0.3,0.2-0.6,0.4-0.9,0.4c-0.3,0-0.7,0-1.1-0.1c-0.4,0.2-0.8,0.2-1.1,0.1
		c-0.2,0.2-0.4,0.3-0.5,0.3c-0.1,0-0.3,0-0.5,0.1c-0.2,0.1-0.5,0.1-0.8,0.2c0.5,0.3,0.8,0.6,0.8,0.9c0,0.3,0,0.5,0,0.8
		c0,0.3,0,0.5,0,0.6c0.1,0.2,0.1,0.4,0,0.8c-0.1,0.3-0.1,0.5-0.1,0.6c0,0.1,0,0.4,0,0.7s-0.1,0.7-0.1,1.2s-0.1,0.9-0.2,1.3
		c-0.1,0.4-0.2,0.7-0.2,0.9C32,25.5,32,25.7,32,25.8c0,0.1,0,0.2,0,0.3c-0.1,0.1-0.1,0.2-0.1,0.4c0,0.2,0,0.5-0.1,0.8
		c-0.1,0.3-0.2,0.6-0.2,0.9c0,0.3-0.1,0.8-0.3,1.4c-0.1,0.7-0.4,1.5-0.6,2.5c-0.1,0.2-0.1,0.4-0.1,0.5c0,0.2,0,0.4-0.2,0.9
		c-0.1,0.6-0.3,1.2-0.4,1.9c-0.1,0.7-0.2,1.2-0.3,1.5c-0.2,0.5-0.3,0.7-0.4,0.7c-0.1,0-0.3,0-0.5,0.1c-0.2,0-0.4-0.1-0.6-0.3
		c-0.2-0.2-0.3-0.5-0.3-0.8c0-0.2,0.1-0.4,0.2-0.6c0.1-0.2,0.1-0.4,0.1-0.5c0-0.2,0-0.3,0.1-0.5c0.1-0.2,0.2-0.3,0.3-0.5
		c0.1-0.1,0.2-0.3,0.2-0.5c0-0.2,0-0.4,0.1-0.6c0.1-0.3,0.1-0.6,0.2-0.8c0.1-0.3,0.2-0.5,0.4-0.7c0-0.3,0.1-0.6,0.2-0.8
		c0.1-0.3,0.2-0.7,0.4-1.1c0.3-1,0.5-2,0.6-3.1c0.1-1.1,0.2-1.8,0.3-2.4c0.1-0.5,0.1-1,0.2-1.5S31.1,22,31.1,21.4z"/>
	<path class="st0" d="M58,24.6c0-0.3-0.1-0.5-0.1-0.9c-0.1-0.3-0.1-0.7-0.1-1.3c0-0.5,0.2-0.8,0.6-0.9c0.4-0.1,0.7,0,0.9,0.1
		c0.2,0.1,0.4,0.4,0.6,1c0.1,0.7,0,1.3-0.2,1.9c2.5,0,4.2-0.1,5.2-0.1c1,0,1.7,0,2.1,0c0.4,0,0.9,0.1,1.6,0.1
		c0.5-0.1,0.8-0.2,1.1-0.2c0.3,0,0.5,0,0.7,0.1c0.2,0.1,0.5,0.1,0.9,0.1c0.6,0.1,1,0.1,1.3,0.1c0.3,0,0.5,0.1,0.8,0.3
		c0.3,0.4,0.4,0.8,0.4,1c0,0.2-0.1,0.4-0.3,0.5c-0.2,0.1-0.3,0.2-0.5,0.3c-0.2,0-0.3,0-0.4-0.1c-0.1-0.1-0.4-0.2-0.9-0.3
		c-0.5-0.1-1-0.2-1.7-0.3c-0.7-0.1-1.1-0.1-1.3-0.2c-0.2-0.1-0.6-0.1-1.1-0.1c-0.5,0.1-1.1,0-1.6-0.1c-0.2,0-0.3,0-0.4,0
		c-0.1,0-0.3,0-0.4-0.1c-0.3,0.1-0.6,0.1-0.9,0c-0.2,0.1-0.4,0.1-0.6,0.1c-0.2,0-0.7-0.1-1.6,0c-0.9,0-1.6,0-2.1,0.1
		c0,0.5,0,0.8-0.1,1c-0.1,0.3-0.1,0.5,0,0.6c0.1,0.1,0,0.3-0.1,0.5c-0.1,0.2-0.2,0.6-0.2,1.1c-0.1,0.5-0.2,1.2-0.3,2
		c-0.1,0.8-0.2,1.4-0.3,1.8c-0.1,0.4-0.1,0.7,0,0.8c0.1,0.1,0.1,0.4-0.1,0.7c0.1,0.2,0.1,0.5,0.1,0.9c0,0.4-0.1,0.8-0.4,1.4
		c-0.4,0.3-0.8,0.4-1.3,0.2c-0.5-0.1-0.6-0.7-0.3-1.5c0.3-1.6,0.6-3.1,0.9-4.7s0.4-3.2,0.5-4.7c-1,0.1-1.6,0.1-1.9,0.1
		c-0.3,0-0.6,0.1-0.9,0.2c-0.3,0.1-0.7,0.1-1,0c-0.1,0.2-0.3,0.2-0.5,0.2c-0.2-0.1-0.4-0.1-0.5,0c-0.2,0-0.4,0.1-0.8,0.2
		s-0.6,0.2-0.8,0.2c-0.2,0.1-0.4,0.1-0.6,0c-0.4,0.1-0.6,0.2-0.8,0.3s-0.3,0.1-0.4,0c-0.2,0.2-0.3,0.3-0.5,0.2c-0.2,0-0.4,0-0.6,0.2
		c-0.2,0.1-0.4,0.2-0.7,0.2c-0.3,0-0.6,0.1-0.9,0.2c-0.3,0.1-0.6,0.3-1,0.5c-0.4,0.2-0.8,0.4-1.2,0.4c-0.3,0-0.5-0.1-0.8-0.2
		c-0.2-0.1-0.3-0.3-0.3-0.6c0-0.3,0.1-0.5,0.4-0.7c0.2-0.2,0.5-0.3,0.8-0.4c1.5-0.5,3.3-1,5.4-1.3C52.5,25.1,55.1,24.8,58,24.6z
		 M49.5,20c-0.5,0.9-1.1,1.7-1.8,2.4c-0.4,0.4-0.8,0.5-1.2,0.4c-0.3-0.1-0.5-0.3-0.6-0.4s-0.1-0.4-0.1-0.6c0-0.3,0.3-0.5,0.8-0.8
		c0.2-0.3,0.5-0.7,1-1.2c0.4-0.4,1-1.1,1.6-1.9c0.6-0.8,1.1-1.4,1.3-1.7c0.2-0.3,0.5-0.7,0.8-1.2c0.9-1.3,1.4-2.1,1.5-2.5
		c0.1-0.4,0.2-0.7,0.3-1c0.2-0.2,0.4-0.4,0.7-0.5c0.3-0.1,0.5-0.1,0.7,0s0.3,0.2,0.4,0.4c0.1,0.1,0.2,0.5,0.1,1
		c-0.2,0.4-0.6,1-1,1.7c-0.4,0.7-0.8,1.2-1,1.5c-0.3,0.3-0.5,0.6-0.7,0.8c0.2,0.2,0.5,0.3,0.8,0.5c0.6,0.4,1.2,0.7,1.8,1.1
		c0.6,0.4,1.2,0.8,1.8,1.3c0.3,0.2,0.5,0.4,0.5,0.6c0,0.2-0.1,0.5-0.4,0.8c-0.3,0.3-0.7,0.4-1.2,0c-0.2-0.1-0.3-0.3-0.5-0.5
		c-0.1-0.2-0.4-0.4-0.7-0.7c-0.4-0.3-0.7-0.5-1-0.7c-0.3-0.2-0.5-0.3-0.8-0.4c-0.2-0.1-0.5-0.3-0.9-0.4c-0.2-0.1-0.3-0.2-0.5-0.4
		c-0.3,0.4-0.7,0.8-1,1.2C50,19.3,49.8,19.7,49.5,20z M58.7,7.1c-0.2-0.4-0.2-0.7-0.2-0.9c0-0.2,0.1-0.4,0.2-0.5s0.2-0.5,0.3-1
		c0.1-0.5,0.3-1.2,0.6-2.1c0.1-0.7,0.1-1.1,0-1.3c-0.1-0.2,0-0.5,0.2-0.8C60,0.1,60.2,0,60.5,0c0.5,0.1,0.8,0.2,0.9,0.4
		c0.1,0.2,0.2,0.6,0.4,1.1c-0.1,0.5-0.2,0.9-0.4,1.3c-0.1,0.4-0.2,0.8-0.3,1.3c-0.1,0.5-0.3,1-0.5,1.4c-0.1,0.5-0.1,1-0.2,1.4
		c0.8,0,2.1,0,3.7,0c1.7,0,3.1,0.1,4.3,0.3c0.9,0.2,1.5,0.4,1.8,0.5c0.3,0.2,0.4,0.4,0.4,0.6c0,0.2-0.1,0.5-0.2,0.9
		c-0.1,0.3-0.3,0.5-0.6,0.5c-0.3,0-0.7,0.1-1.3,0.2c-0.4,0.1-0.8,0.1-1.2,0c-0.4-0.1-0.6-0.3-0.7-0.5c-0.1-0.2,0-0.5,0.1-0.8
		c-0.4-0.1-0.9-0.2-1.3-0.2c-0.4,0-0.7,0-0.9,0c-0.2,0-0.5-0.1-1.1-0.1c-0.2,0.1-0.4,0.2-0.6,0.1c-0.2,0-0.3-0.1-0.5-0.1
		c-0.1,0-0.3,0-0.5-0.1c-0.2,0-0.4,0-0.6,0.1c-0.2,0.1-0.4,0.1-0.7,0.1c-0.3,0-0.5,0-0.8,0s-0.5,0-0.7,0c-0.2,0.1-0.5,0.1-0.9,0
		c-0.3,0.1-0.5,0.1-0.8,0.1c-0.3,0.1-0.5,0.2-0.8,0.2c-0.2,0-0.5,0-0.8,0.1c-0.3,0.1-0.8,0.1-1.6,0.2c-0.4,0-0.7,0-0.9,0.1
		c-0.2,0.1-0.4,0.1-0.6,0.1c-0.3,0-0.5,0-0.7,0.1c-0.2,0.1-0.5,0.2-0.8,0.2l-0.5,0.4c-0.6,0.3-0.9,0.5-1,0.7
		c-0.1,0.2-0.3,0.3-0.5,0.5c-0.3,0.1-0.6,0.1-1.1-0.1c-0.4-0.2-0.6-0.5-0.6-0.8c0-0.3,0.1-0.6,0.3-0.9c0.2-0.2,0.5-0.4,0.8-0.6
		c0.3-0.1,0.8-0.3,1.5-0.5c0.7-0.2,1.9-0.4,3.6-0.6C55.4,7.3,57.1,7.2,58.7,7.1z M67.1,12.1c-0.2,0.3-0.4,0.4-0.6,0.5
		c-0.1,0.1-0.2,0.2-0.3,0.4s-0.1,0.4-0.3,0.6c-0.4,0.5-0.7,0.8-0.9,1.1c0.4,0.3,0.7,0.5,0.9,0.7c0.2,0.2,0.5,0.4,0.9,0.8
		c0.5,0.3,0.8,0.6,0.9,0.8c0.1,0.2,0.3,0.4,0.4,0.4s0.3,0.2,0.3,0.4c0.3,0.2,0.6,0.3,0.8,0.6c0.2,0.2,0.5,0.4,0.7,0.6
		c0.2,0.2,0.4,0.4,0.7,0.6c0.3,0.2,0.6,0.5,0.8,0.9c0.2,0.4,0.1,0.7-0.1,1c-0.2,0.3-0.4,0.4-0.6,0.4c-0.2,0-0.4,0-0.7,0
		c-0.3-0.1-0.4-0.2-0.5-0.4c-0.1-0.2-0.2-0.6-0.4-1c-0.7-0.8-1.2-1.3-1.7-1.7c-0.5-0.4-0.9-0.8-1.4-1.1c-0.5-0.4-1.2-0.9-2.2-1.6
		c-0.1,0.3-0.3,0.5-0.4,0.5c-0.1,0-0.3,0.2-0.4,0.6c-0.2,0.1-0.4,0.3-0.5,0.5s-0.3,0.5-0.5,0.7c-0.3,0.4-0.6,0.7-0.8,0.9
		c-0.2,0.2-0.4,0.5-0.5,0.7c-0.3,0.3-0.5,0.5-0.6,0.7s-0.4,0.2-0.8,0.1c-0.4-0.1-0.6-0.3-0.7-0.7c-0.1-0.4,0-0.7,0.1-0.9
		c0.1-0.2,0.3-0.4,0.6-0.5c0.3-0.2,0.5-0.4,0.7-0.6c0.2-0.2,0.4-0.4,0.7-0.6c0.3-0.3,0.5-0.6,0.8-0.9c0.3-0.4,0.8-1.1,1.6-2.1
		c0.8-1,1.2-1.7,1.3-1.9c0.1-0.2,0.3-0.7,0.7-1.3c0.2-0.4,0.5-0.6,0.8-0.7c0.4-0.1,0.7,0,0.9,0.5C67.3,11.5,67.3,11.9,67.1,12.1z"/>
	<path class="st0" d="M86.2,22.7c-0.7,0-1.3,0-1.6,0c-0.3,0-0.6-0.1-0.7-0.4s-0.3-0.5-0.3-0.8s0-0.5,0.1-0.7
		c0.1-0.2,0.3-0.4,0.7-0.6c0.5-0.2,0.9-0.4,1.4-0.6c0.5-0.2,0.8-0.4,0.9-0.5c0.2-0.1,0.4-0.2,0.6-0.3c0.2-0.1,0.4-0.1,0.6-0.2
		c0.2-0.1,0.4-0.2,0.5-0.2c0.2-0.3,0.5-0.5,0.9-0.5c0.2-0.2,0.4-0.3,0.7-0.4c0.5-1.5,0.9-2.5,1.2-3.1c0.2-0.6,0.5-1.2,0.8-1.9
		c-0.5-0.1-0.8-0.2-1-0.2c-0.2,0-0.5-0.1-0.9-0.2c-0.3,0.2-0.5,0.2-0.6,0.1c-0.1-0.1-0.3-0.1-0.6-0.1c-0.3,0-0.5,0-0.8,0s-0.6,0-1,0
		c-0.5,0.1-0.9,0.1-1.1,0.3c-0.3,0.1-0.5,0.1-0.8,0c-0.2-0.1-0.4-0.3-0.4-0.4c0-0.2-0.1-0.4-0.1-0.6c0-0.2,0.1-0.5,0.2-0.7
		c0.2-0.2,0.5-0.3,0.9-0.4c0.4-0.1,0.8-0.1,1.2-0.1c0.5,0.1,0.9,0.1,1.1,0.2c0.2,0.1,0.5,0.1,0.7,0c0.2,0,0.4,0,0.7,0.1
		c0.4,0,0.9,0.1,1.7,0.2c0.5,0.1,1.1,0.2,1.6,0.2c0.2-0.3,0.4-0.7,0.5-1.2c0.2-0.5,0.4-0.9,0.6-1.2C94,7.8,94.1,7.3,94.4,7
		c0.2-0.4,0.5-0.5,0.8-0.5c0.3,0,0.5,0.2,0.8,0.4c0.4,0.4,0.6,0.7,0.5,1.1c-0.1,0.4-0.2,0.6-0.3,0.8c-0.1,0.1-0.3,0.3-0.4,0.4
		c-0.1,0.2-0.3,0.5-0.5,0.9c-0.2,0.4-0.4,0.7-0.6,1.1c0.4,0.1,0.8,0.1,1,0.2c0.2,0.1,0.4,0.1,0.6,0.2c0.2,0,0.6,0.2,1.2,0.6
		c0.3,0.3,0.4,0.6,0.5,0.7c0.1,0.2,0.1,0.5,0.1,0.9s-0.1,0.8-0.4,1.1c-0.2,0.2-0.4,0.4-0.5,0.5c-0.2,0.2-0.3,0.3-0.5,0.4
		c-0.1,0.1-0.4,0.2-0.8,0.5c-0.4,0.2-0.8,0.4-1.1,0.6c-0.2,0.2-0.4,0.3-0.6,0.4c-0.2,0.1-0.4,0.1-0.6,0.2c-0.2,0.1-0.5,0.2-0.9,0.4
		c-0.1,0.2-0.5,0.4-1,0.5c-0.2,0.7-0.4,1.1-0.5,1.4c-0.1,0.3-0.3,0.7-0.3,1.1c0.6,0,1.3-0.1,2.3-0.2c1-0.1,1.7-0.3,2.2-0.4
		c0.5-0.1,0.9-0.2,1.2-0.3c0.3-0.1,0.7-0.2,1.4-0.5c0.4-0.3,0.7-0.4,1-0.3c0.3,0.1,0.5,0.3,0.6,0.5c0.1,0.3,0.1,0.5,0,0.7
		c-0.1,0.2-0.3,0.4-0.7,0.5c-0.5,0.2-1.2,0.4-2.1,0.5c-0.8,0.2-1.5,0.3-1.9,0.4c-0.4,0.1-0.9,0.2-1.2,0.2c-0.4,0-1,0.1-1.7,0.2
		c-0.4,0.1-0.9,0.1-1.4,0.2c-0.1,0.4-0.2,0.7-0.2,1c0,0.2-0.1,0.6-0.2,1c-0.1,0.4-0.2,1.1-0.3,2c0,0.5,0.1,1,0.2,1.6
		c0.1,0.6,0.4,1.1,0.7,1.5c0.3,0.4,0.8,0.7,1.3,0.8c0.4,0.1,0.9,0.1,1.5-0.1s1.4-0.6,2.4-1.1c0.9-0.6,1.8-1.2,2.6-1.9
		c0.8-0.7,1.6-1.4,2.5-2.2c0.8-0.8,1.4-1.3,1.8-1.7c0.3-0.3,0.6-0.5,0.9-0.6c0.3-0.1,0.6-0.1,0.9,0.1c0.3,0.2,0.5,0.4,0.5,0.7
		c0,0.3-0.1,0.6-0.3,0.7c-0.2,0.2-0.4,0.4-0.8,0.6c-0.1,0.3-0.4,0.4-0.9,0.4c-0.1,0.4-0.4,0.7-0.7,0.8c-0.3,0.3-0.6,0.6-0.8,0.8
		c-0.3,0.2-0.5,0.4-0.7,0.5c-0.2,0.1-0.4,0.3-0.6,0.5c-0.2,0.2-0.5,0.4-0.8,0.6c-0.3,0.4-0.7,0.6-1.1,0.7c-0.2,0.2-0.5,0.5-0.9,0.8
		c-0.4,0.3-0.9,0.5-1.3,0.8c-0.3,0.2-0.5,0.3-0.6,0.3c-0.1,0-0.4,0.1-0.7,0.2c-0.2,0.2-0.6,0.3-1,0.3c-0.4,0.1-0.8,0.2-1.2,0.2
		c-0.4,0-0.7-0.1-1.1-0.2c-0.6-0.2-1-0.4-1.3-0.7c-0.3-0.3-0.6-0.6-0.8-1c-0.2-0.4-0.4-0.8-0.5-1.1c-0.2-0.7-0.2-1.4-0.2-2.1
		s0.1-1.3,0.2-2.1c0.1-0.7,0.3-1.4,0.4-2.1c-0.5,0-0.9,0-1.1,0S86.9,22.7,86.2,22.7z M86.8,21c0.4-0.1,0.8-0.1,1,0s0.7,0,1.2,0
		c0.1-0.5,0.3-1.1,0.4-1.5c-0.4,0.3-0.8,0.4-1,0.5C88.1,20.1,87.6,20.4,86.8,21z M94.6,15c0.5-0.3,0.9-0.6,1.4-0.9
		c0.2-0.3,0.2-0.5,0.1-0.6c-0.1-0.1-0.2-0.3-0.4-0.4c-0.2-0.1-0.4-0.2-0.6-0.3c-0.3-0.1-0.6-0.1-1.1-0.3c-0.4,0.7-0.7,1.3-0.9,1.8
		c-0.2,0.5-0.4,0.9-0.4,1.1c-0.1,0.2-0.2,0.5-0.4,0.8c0.7-0.3,1.1-0.6,1.2-0.7C93.6,15.5,94,15.3,94.6,15z"/>
	<path class="st0" d="M117.1,12.6c0,0.4,0,0.7,0,0.9c0,0.2,0,0.4,0.1,0.5c0.1,0.2,0,0.3-0.1,0.5c0.2,0.5,0.2,0.9,0.1,1.2
		c0.2,0.2,0.2,0.5,0,0.7c0.3,0.3,0.4,0.6,0.4,0.8c0,0.2,0,0.3,0.2,0.5c0.2,0.7,0.3,1.1,0.4,1.3c0.1,0.2,0.4,0.5,0.7,0.9
		c0.5,0.1,0.7,0.2,0.8,0.4c0.1,0.2,0.3,0.4,0.7,0.7c0.3,0.2,0.5,0.5,0.6,0.7c0.2,0.3,0.2,0.5,0.1,0.8c-0.1,0.3-0.4,0.4-0.8,0.5
		c-0.4-0.1-0.8-0.2-1.2-0.5c-0.1-0.1-0.2-0.2-0.4-0.3c-0.1-0.1-0.3-0.3-0.5-0.4c-0.2-0.1-0.6-0.6-1.1-1.3c-0.5-0.8-0.9-1.9-1.2-3.3
		c-0.3-1.5-0.5-3.5-0.5-6c0-0.8,0-1.8,0.2-2.9c0.3-0.4,0.6-0.6,1-0.6c0.4-0.1,0.8,0.1,1.2,0.5c0.4,0.4,0.2,0.9-0.4,1.5
		c-0.1,0.3-0.2,0.6-0.1,0.8c0,0.2,0,0.5,0,1C117,11.7,117,12.1,117.1,12.6z M127.5,25.7c0,0.5-0.1,1-0.2,1.5c0,0.7-0.1,1.2-0.2,1.5
		c0.1,0.2,0,0.4,0,0.7c-0.1,0.3-0.1,0.5-0.1,0.7c0,0.2,0,0.4,0,0.6c0,0.3,0.1,0.5,0.1,0.7c0,0.2-0.1,0.5-0.2,0.8
		c-0.1,0.6,0,0.9,0.1,1.1c0.1,0.2,0.1,0.3,0,0.5c0,0.4,0,0.7,0.1,0.9c0.1,0.2,0.2,0.5,0.3,0.8c0.1,0.3,0.1,0.5,0,0.8
		c-0.2,0.3-0.5,0.5-0.9,0.5c-0.4,0.1-0.7-0.1-1-0.5c-0.2-0.4-0.4-0.7-0.4-1c0-0.3,0-0.6,0.1-1c0.1-0.9,0.3-2.6,0.7-5.2
		c0.3-2.2,0.6-4.6,0.9-7.4c-0.3,0.1-0.6,0.1-0.9,0.3c-0.3,0.2-0.6,0.3-0.8,0.4c-0.2,0.1-0.4,0.2-0.6,0.2c-0.2,0-0.5,0-0.7-0.1
		c-0.2-0.1-0.5-0.3-0.6-0.6c-0.2-0.3-0.2-0.6-0.1-0.9c0.1-0.3,0.4-0.4,0.8-0.6c0.4-0.1,1-0.3,1.7-0.4c0.4-0.1,1-0.2,1.5-0.3
		c0.4-2.9,0.7-5.4,0.9-7.5c0-0.4,0.1-0.7,0.1-1.1c-0.4,0-0.8,0.1-1.2,0.2c-0.2,0.2-0.5,0.3-0.7,0.2c-0.2-0.1-0.4,0-0.6,0.1
		c-0.1,0.1-0.3,0.2-0.5,0.2c-0.2,0-0.4,0-0.6,0.1c-0.2,0.1-0.4,0.2-0.8,0.3c-0.4,0.2-0.7,0.3-1,0.5c-0.2,0.1-0.5,0.3-0.8,0.6
		c0.1,0.5,0,0.8-0.4,1.1c-0.3,0.2-0.7,0.3-1.1,0.2c-0.4-0.1-0.7-0.4-0.8-0.8c-0.1-0.4-0.1-0.8,0-1.2c0.1-0.4,0.6-0.8,1.6-1.2
		c0.3-0.1,0.6-0.2,0.9-0.3c0.2-0.1,0.6-0.2,1-0.4c0.4-0.1,0.8-0.2,1.2-0.3c0.4-0.1,0.8-0.1,1.2-0.3c0.4-0.1,0.7-0.2,1-0.2
		c0.3,0,0.6-0.1,0.9-0.2c0.3,0,0.5-0.1,0.8-0.1c0.1-0.8,0.2-1.4,0.2-1.8c0.1-0.7,0.2-1.2,0.3-1.6c0.1-0.4,0.1-0.8,0.2-1.1
		c0-0.3,0-0.7,0.1-1.1c0.2-0.5,0.3-1,0.3-1.3c0-0.3,0.1-0.6,0.2-0.9c0.1-0.3,0.4-0.4,0.7-0.5c0.4,0,0.7,0.1,0.9,0.3
		c0.3,0.2,0.4,0.5,0.4,0.9c0,0.4-0.1,0.6-0.2,0.8c-0.1,0.1-0.3,0.5-0.4,1c-0.1,0.4-0.2,0.6-0.3,0.7s-0.1,0.3-0.1,0.5
		c0,0.2-0.1,0.4-0.3,0.6c-0.1,0.7-0.1,1.1-0.2,1.4c-0.1,0.3-0.1,0.5-0.2,0.8c-0.1,0.3-0.1,0.6-0.2,1.1c0.4,0,0.7-0.1,1.1-0.1
		c1.3-0.1,2.4-0.1,3.4-0.1c1,0,1.7,0.1,2.1,0.2c0.4,0.1,0.9,0.2,1.5,0.3c0.6,0.1,1.2,0.4,1.7,0.9c0.4,0.5,0.7,1,0.8,1.5
		c0.1,0.6,0,1.1-0.3,1.6c-0.5,1-1.2,1.9-2.1,2.7c-0.8,0.8-1.5,1.3-2,1.7c0.5,0,0.8-0.1,0.9-0.2s0.4-0.2,0.9-0.2
		c0.4,0.3,0.6,0.6,0.7,0.9c0.1,0.4,0,0.6-0.2,0.8c-0.2,0.2-0.4,0.3-0.7,0.4c-0.4,0.2-0.9,0.2-1.4,0.2c-0.3-0.1-0.5,0-0.6,0.1
		c-0.1,0.1-0.3,0.1-0.6,0.1c-0.3,0-0.7,0-1.3,0.1c-0.3,0.2-0.5,0.2-0.7,0.2c-0.2-0.1-0.4-0.1-0.6,0c-0.2,0.1-0.5,0.1-0.7,0.1
		c-0.4,0.1-0.8,0.2-1,0.2c-0.2,0-0.6,0-1,0.1c-0.5,0.1-1,0.2-1.5,0.3C127.7,23.8,127.5,25.2,127.5,25.7z M129.2,13.5
		c-0.3,2.2-0.6,4.2-0.9,6.1c0.8-0.1,1.4-0.2,1.7-0.2c0.3,0,0.6-0.1,0.8-0.2c0.2-0.1,0.5-0.2,0.8-0.2c0.4-0.3,0.8-0.7,1.3-1.1
		l0.5-0.3c0.2-0.2,0.4-0.3,0.7-0.4c0.3-0.1,0.5-0.2,0.6-0.3c0.1-0.1,0.2-0.2,0.3-0.3c0.1-0.1,0.4-0.3,0.9-0.6
		c0.4-0.4,0.9-0.8,1.4-1.3c0.5-0.5,0.9-1.1,1.3-1.8c0-0.3-0.1-0.5-0.3-0.7c-0.2-0.2-0.4-0.4-0.5-0.4c-0.2-0.1-0.5-0.2-0.9-0.4
		c-0.2,0.1-0.4,0-0.5-0.1c-0.1-0.1-0.3-0.2-0.5-0.2s-0.5-0.1-0.8-0.2c-0.3,0.2-0.6,0.2-0.9,0.2s-0.7-0.1-1.2-0.1
		c-0.4,0-0.7,0-0.9,0.1c-0.2,0-0.4,0-0.5,0c-0.2-0.1-0.3-0.1-0.5,0c-0.2,0.1-0.5,0.1-1,0.1h-0.7C129.4,11.8,129.3,12.6,129.2,13.5z"
		/>
	<path class="st0" d="M184.2,33.2c-0.6,0.2-1.3,0.4-2.1,0.5c-0.8,0.1-1.4,0.2-1.7,0.3s-0.6,0.2-1,0.1c-0.2,0.2-0.4,0.2-0.6,0.3
		c-0.2,0-0.4,0-0.9,0c-0.2,0.1-0.4,0.2-0.6,0.2c-0.2,0-0.4,0.1-0.5,0.2c-0.2,0.1-0.4,0.1-0.8-0.1c-0.2,0.2-0.5,0.3-0.7,0.4
		c-0.2,0-0.5,0-0.7-0.1c-0.4-0.1-0.8-0.1-1.1,0.1c-0.3,0.1-0.5,0.1-0.8,0c-0.2-0.1-0.6-0.1-1.1,0c-0.3,0.2-0.7,0.2-1.1,0
		c-0.4,0.1-1.6,0-3.8-0.3c-2.2-0.3-3.7-0.5-4.4-0.7s-1.5-0.4-2.3-0.6c-0.8-0.2-1.8-0.6-3.1-1c-1.3-0.4-2.2-0.8-2.7-1.2
		c-0.2-0.1-0.4-0.1-0.6,0.1c-0.2,0.1-0.4,0.2-0.7,0.2c-0.4,0.1-0.6,0.2-0.8,0.2c-0.2,0-0.3,0-0.4,0.1c-0.1,0.1-0.5,0-1,0
		c-0.4,0-0.7-0.1-1-0.4c-0.3-0.2-0.4-0.5-0.4-1c0-0.3,0.1-0.5,0.3-0.6c0.2-0.2,0.4-0.3,0.7-0.4s0.7-0.1,1.1-0.1
		c0.4,0,0.9,0.1,1.3,0.1c0.2-0.1,0.4-0.1,0.6,0c0.2,0.1,0.4,0,0.6-0.1c0.5-0.3,0.9-0.5,1.2-0.7c0.3-0.2,0.6-0.4,1-0.6
		s0.8-0.6,1.2-1.1c0.2-0.3,0.3-0.5,0.3-0.7c0-0.2,0-0.4-0.2-0.7c-0.1-0.3-0.4-0.6-0.7-0.8c-0.3-0.2-0.7-0.5-1.1-0.7
		c-0.2-0.1-0.5-0.1-0.7-0.3c-0.2-0.1-0.4-0.3-0.6-0.4c-0.2-0.2-0.3-0.4-0.3-0.6c0.1-0.6,0.2-1,0.4-1.2c0.2-0.2,0.5-0.5,0.9-0.9
		c0.4-0.4,0.8-0.8,1.2-1.2c0.4-0.4,0.7-0.8,1.1-1.2c0.4-0.4,0.6-0.8,0.7-1.3c-0.4-0.1-0.9-0.1-1.4,0c-0.6,0.1-1,0.2-1.3,0.2
		c-0.3,0.1-0.6,0.1-0.8,0.2c-0.3,0.1-0.6,0.2-1,0.4c-0.4,0.2-0.8,0.5-1.2,0.8c-0.2,0.4-0.3,0.6-0.4,0.7c-0.1,0.1-0.4,0.2-0.9,0.3
		c-0.5,0-0.8-0.1-1-0.4c-0.2-0.3-0.3-0.6-0.1-0.9c0.3-0.4,0.6-0.7,0.9-0.9c0.3-0.2,0.8-0.4,1.4-0.6c1.4-0.5,2.5-0.8,3.3-0.9
		c0.8-0.2,1.5-0.3,2-0.3s1,0,1.3,0.1c0.4,0.1,0.7,0.4,0.8,0.7c0.2,0.4,0.2,0.9,0,1.6c-0.2,0.7-0.7,1.2-1.2,1.7
		c-0.6,0.5-1.1,1-1.6,1.5c-0.5,0.5-0.9,0.9-1.1,1.2c0.2,0.3,0.4,0.5,0.6,0.6c0.2,0.1,0.5,0.3,0.8,0.5c0.4,0.2,0.7,0.5,1,0.7
		c0.2,0.2,0.4,0.4,0.6,0.6s0.2,0.6,0.3,1c0,0.4-0.1,0.8-0.3,1.3s-0.4,0.8-0.7,1s-0.6,0.5-0.9,0.9c-0.7,0.6-1.2,1.1-1.6,1.6
		c0.6,0.3,1.2,0.6,1.8,0.9s1.7,0.7,3.4,1.3c1.7,0.6,3.6,1,5.8,1.3c2.2,0.3,4.1,0.3,5.6,0.2s3.2-0.4,4.9-0.7c1.8-0.4,3.5-0.9,5.2-1.5
		c1-0.5,1.7-0.7,2-0.5c0.3,0.2,0.5,0.5,0.6,0.8c0.1,0.4,0,0.6-0.2,0.7C185,32.9,184.6,33.1,184.2,33.2z M155.6,7.6
		c-0.2-0.5-0.5-1-1-1.4c-0.3-0.2-0.4-0.5-0.3-0.9c0.1-0.4,0.2-0.6,0.5-0.6c0.3-0.1,0.5-0.1,0.7-0.1c0.2,0,0.4,0.1,0.5,0.3
		c0.2,0.2,0.3,0.3,0.4,0.5c0.1,0.2,0.2,0.4,0.2,0.6c0.2,0.3,0.4,0.6,0.5,1.1c0.1,0.4,0.3,0.8,0.3,1.1c0.1,0.3,0.2,0.8,0.3,1.3
		c0.1,0.5,0.2,1.1,0.3,1.6c0,0.4,0,0.7,0.1,0.9c0,0.2,0,0.5,0,0.7c-0.1,0.2-0.3,0.4-0.6,0.6s-0.7,0.2-1-0.1
		c-0.3-0.3-0.3-0.8-0.2-1.5c-0.1-0.6-0.1-1.1-0.1-1.6c0-0.4-0.1-0.9-0.3-1.3C155.9,8.3,155.8,8,155.6,7.6z M184.9,16.2
		c0.4,0,0.7,0.1,0.8,0.3c0.2,0.2,0.4,0.3,0.8,0.4c0.3,0.1,0.6,0.3,0.7,0.5s0.2,0.5,0.1,0.7s-0.3,0.3-0.5,0.4
		c-0.2,0.1-0.4,0.1-0.7,0.1c-0.2-0.1-0.5-0.1-0.7-0.3c-0.2-0.1-0.5-0.3-0.9-0.5c-0.7-0.4-1.5-0.9-2.5-1.5c-1-0.6-2-1.3-3-2.1
		c-1-0.8-1.7-1.4-2.1-1.8c-0.4-0.4-0.7-0.8-1-1.1c-0.5-0.6-0.8-1.1-1-1.3c-0.2-0.3-0.3-0.5-0.5-0.8c-0.1-0.3-0.3-0.7-0.6-1.4
		c-0.2-0.2-0.4-0.6-0.6-1.1c-0.8,0.9-1.7,1.9-2.7,2.8c-1.7,1.6-3.3,3.3-4.8,4.9c-1.5,1.6-2.5,2.9-3.2,3.9c-0.2,0.6-0.4,1-0.4,1.3
		c0,0.3-0.2,0.5-0.4,0.6c-0.2,0.1-0.4,0.1-0.7,0.1c-0.3,0-0.5-0.1-0.7-0.4c-0.2-0.2-0.3-0.5-0.2-0.8c0.1-0.3,0.2-0.6,0.4-0.9
		c0.2-0.3,0.5-0.6,0.7-1c0.4-0.4,0.6-0.7,0.8-0.9c0.1-0.2,0.3-0.4,0.6-0.4c0.2-0.2,0.3-0.4,0.5-0.7c0.1-0.3,0.3-0.5,0.6-0.6
		c3.2-3.3,5.1-5.3,5.7-6s1-1.2,1.2-1.4c0.4-0.4,0.6-0.7,0.8-0.9c0.2-0.2,0.4-0.5,0.7-0.9c0.2-0.4,0.4-0.7,0.5-0.7
		c0.1-0.1,0.2-0.2,0.3-0.3s0.2-0.3,0.3-0.4c0.1-0.1,0.3-0.3,0.5-0.6c0.1-0.3,0.3-0.4,0.4-0.4c0.1,0,0.4,0,0.7,0
		c0.2,0.1,0.4,0.2,0.6,0.4s0.2,0.4,0.1,0.7c-0.2,0.3-0.4,0.7-0.7,1c0.2,0.5,0.3,0.8,0.3,1.1c0,0.2,0.1,0.6,0.1,1.1
		c0.1,0.2,0.2,0.6,0.4,1.2c0.2,0.4,0.3,0.7,0.4,0.8c0.1,0.1,0.2,0.3,0.4,0.6c0.2,0.3,0.4,0.6,0.6,0.9c0.2,0.3,0.5,0.7,0.9,1.1
		c0.5,0.4,1,0.9,1.5,1.4c0.3,0.3,1,0.7,2,1.4c1.1,0.7,1.7,1,1.9,1.2s0.4,0.2,0.6,0.3S184.6,16.1,184.9,16.2z M166.7,25.1
		c-0.6,0.7-1.2,1.4-1.8,2.2c-0.6,0.7-1.1,1.4-1.4,2.1c-0.2,0.6-0.5,0.9-0.8,0.8c-0.3-0.1-0.6-0.3-0.7-0.6c-0.1-0.3-0.1-0.6,0.1-0.9
		c0.1-0.3,0.2-0.5,0.4-0.7c0.2-0.2,0.3-0.4,0.5-0.7c0.2-0.2,0.4-0.5,0.6-0.7c0.2-0.2,0.3-0.4,0.5-0.6c0.1-0.2,0.3-0.4,0.4-0.5
		c0.1-0.1,0.2-0.3,0.4-0.5c0.2-0.2,0.5-0.5,0.9-0.9c0.4-0.3,0.8-0.5,1.3-0.6c0.4-0.1,0.7,0,1,0.3c0.3,0.2,0.4,0.5,0.5,0.8
		c0,0.3-0.1,0.6-0.4,0.8c-0.3,0.2-0.5,0.2-0.7,0.1C167,25.3,166.8,25.2,166.7,25.1z M171.1,29.6c0.6-1.6,1-3.1,1.2-4.5
		c0.2-1.4,0.4-2.9,0.4-4.5c-0.8,0-1.4,0.1-1.6,0.2c-0.3,0.1-0.5,0.2-0.7,0.2c-0.2,0-0.4,0-0.6,0.1s-0.4,0.1-0.6,0
		c-0.4,0.2-0.8,0.3-1.1,0.4c-0.3,0.1-0.6,0.1-0.9,0.2c-0.3,0.1-0.7,0.2-1.2,0.4c-0.3,0.2-0.5,0.3-0.6,0.4c-0.1,0-0.3,0.2-0.5,0.3
		c-0.2,0.2-0.5,0.2-0.8,0.1c-0.3-0.1-0.5-0.3-0.5-0.6c-0.1-0.3,0-0.6,0.2-0.8c0.2-0.2,0.4-0.4,0.5-0.5s0.5-0.2,0.8-0.3
		c0.4-0.1,0.9-0.2,1.5-0.3s1.3-0.3,2.1-0.4c0.8-0.2,1.6-0.3,2.3-0.4c0.7-0.1,1.3-0.2,1.8-0.3l0-0.5c0-0.4,0-0.8-0.1-1.1
		c-0.1-0.3-0.1-0.7-0.1-1c0-0.3,0.1-0.5,0.4-0.6c0.3,0,0.5,0,0.8,0.2c0.3,0.1,0.4,0.3,0.5,0.6c0,0.2,0,0.4,0,0.7
		c0,0.3,0,0.8-0.1,1.6c0.7-0.1,1.3-0.1,1.7-0.1c0.4,0,0.8-0.1,1.2-0.2c0.6-0.1,1.1-0.1,1.5-0.1c0.4,0,0.8,0,1.1,0
		c0.3,0,0.6,0.1,0.9,0.2c0.3,0.1,0.4,0.4,0.4,0.7c-0.1,0.3-0.1,0.6-0.2,0.7c-0.1,0.2-0.3,0.3-0.6,0.4c-0.3,0.1-0.6,0.1-0.9,0.1
		c-0.3,0-0.7-0.2-1.2-0.5c-0.7-0.1-1.4-0.1-2,0s-1.2,0.2-1.9,0.3c-0.2,0.6-0.2,1-0.2,1.2c0,0.2-0.1,0.9-0.2,1.9
		c-0.2,1.1-0.3,2-0.4,2.8c-0.1,0.8-0.2,1.4-0.4,1.8c-0.1,0.4-0.2,0.8-0.3,1.1c0,0.3-0.1,0.6-0.2,0.8c-0.1,0.2-0.3,0.5-0.5,0.7
		c-0.2,0.2-0.5,0.4-0.9,0.4c-0.4,0-0.7,0-0.9-0.2s-0.4-0.3-0.5-0.5c-0.2-0.4-0.3-0.7-0.5-0.9c-0.2-0.3-0.3-0.5-0.5-0.7
		c-0.2-0.4-0.5-0.9-0.9-1.7c-0.2-0.6-0.1-1,0.1-1.2c0.2-0.2,0.4-0.3,0.7-0.3s0.5,0.1,0.6,0.2c0.1,0.1,0.3,0.3,0.3,0.6
		c0.1,0.2,0.2,0.5,0.3,0.8c0.1,0.3,0.3,0.7,0.5,1.2C170.6,29.2,170.8,29.5,171.1,29.6z M177.1,13.9c0.4,0.4,0.6,0.8,0.5,1.1
		c-0.1,0.3-0.3,0.5-0.8,0.5c-0.5,0.1-0.8,0.1-1-0.1c-0.2-0.1-0.5-0.2-0.9-0.2c-0.3,0-0.6,0-0.7-0.1c-0.5,0-1,0-1.4,0
		c-0.4,0.2-0.7,0.2-1,0.2c-0.3,0-0.6,0-1,0.1c-0.4,0.1-0.9,0.2-1.3,0.3c-0.4,0.3-0.7,0.5-1,0.6c-0.2,0.1-0.4,0.2-0.5,0.1
		c-0.1,0-0.3-0.1-0.5-0.2s-0.3-0.2-0.3-0.4c0-0.2,0-0.4,0-0.7c0-0.2,0.1-0.4,0.4-0.6c0.2-0.2,0.5-0.3,0.7-0.4
		c0.2-0.1,0.7-0.1,1.5-0.2c0.7-0.1,1.4-0.2,2.1-0.3c0.7-0.1,1.4-0.1,2.2-0.1c0.8-0.1,1.4-0.1,1.8-0.2
		C176.3,13.4,176.7,13.6,177.1,13.9z M181.6,28.2c0.2,0.3,0.4,0.6,0.6,0.7c0.1,0.2,0.2,0.4,0.3,0.7s-0.2,0.5-0.7,0.7
		c-0.5,0.1-0.8-0.1-1.1-0.6c-0.3-0.2-0.4-0.3-0.5-0.4c-0.3-0.3-0.5-0.5-0.5-0.7c-0.3-0.3-0.5-0.6-0.7-0.9c-0.2-0.1-0.3-0.2-0.4-0.4
		c-0.1-0.2-0.2-0.4-0.3-0.5c-0.3-0.3-0.5-0.6-0.7-0.9c-0.3-0.2-0.6-0.4-0.7-0.7c-0.4-0.2-0.7-0.5-0.8-0.7c-0.1-0.2-0.2-0.5-0.2-0.8
		c0-0.3,0.1-0.5,0.5-0.7c0.3-0.2,0.7-0.1,1,0.2c0.4,0.3,0.6,0.6,0.8,0.8c0.3,0.5,0.6,0.9,1,1.3c0.4,0.4,0.7,0.8,1,1.2
		C180.4,27.2,180.9,27.7,181.6,28.2z"/>
	<path class="st0" d="M195,22.7c-0.7,0-1.3,0-1.6,0c-0.3,0-0.6-0.1-0.7-0.4s-0.3-0.5-0.3-0.8s0-0.5,0.1-0.7c0.1-0.2,0.3-0.4,0.7-0.6
		c0.5-0.2,0.9-0.4,1.4-0.6c0.5-0.2,0.8-0.4,0.9-0.5c0.2-0.1,0.4-0.2,0.6-0.3c0.2-0.1,0.4-0.1,0.6-0.2c0.2-0.1,0.4-0.2,0.5-0.2
		c0.2-0.3,0.5-0.5,0.9-0.5c0.2-0.2,0.4-0.3,0.7-0.4c0.5-1.5,0.9-2.5,1.2-3.1c0.2-0.6,0.5-1.2,0.8-1.9c-0.5-0.1-0.8-0.2-1-0.2
		c-0.2,0-0.5-0.1-0.9-0.2c-0.3,0.2-0.5,0.2-0.6,0.1c-0.1-0.1-0.3-0.1-0.6-0.1c-0.3,0-0.5,0-0.8,0s-0.6,0-1,0
		c-0.5,0.1-0.9,0.1-1.1,0.3c-0.3,0.1-0.5,0.1-0.8,0c-0.2-0.1-0.4-0.3-0.4-0.4c0-0.2-0.1-0.4-0.1-0.6c0-0.2,0.1-0.5,0.2-0.7
		c0.2-0.2,0.5-0.3,0.9-0.4c0.4-0.1,0.8-0.1,1.2-0.1c0.5,0.1,0.9,0.1,1.1,0.2c0.2,0.1,0.5,0.1,0.7,0c0.2,0,0.4,0,0.7,0.1
		c0.4,0,0.9,0.1,1.7,0.2c0.5,0.1,1.1,0.2,1.6,0.2c0.2-0.3,0.4-0.7,0.5-1.2c0.2-0.5,0.4-0.9,0.6-1.2c0.2-0.6,0.3-1.1,0.6-1.5
		c0.2-0.4,0.5-0.5,0.8-0.5c0.3,0,0.5,0.2,0.8,0.4c0.4,0.4,0.6,0.7,0.5,1.1c-0.1,0.4-0.2,0.6-0.3,0.8c-0.1,0.1-0.3,0.3-0.4,0.4
		c-0.1,0.2-0.3,0.5-0.5,0.9c-0.2,0.4-0.4,0.7-0.6,1.1c0.4,0.1,0.8,0.1,1,0.2s0.4,0.1,0.6,0.2c0.2,0,0.6,0.2,1.2,0.6
		c0.3,0.3,0.4,0.6,0.5,0.7c0.1,0.2,0.1,0.5,0.1,0.9s-0.1,0.8-0.4,1.1c-0.2,0.2-0.4,0.4-0.5,0.5c-0.2,0.2-0.3,0.3-0.5,0.4
		c-0.1,0.1-0.4,0.2-0.8,0.5c-0.4,0.2-0.8,0.4-1.1,0.6c-0.2,0.2-0.4,0.3-0.6,0.4c-0.2,0.1-0.4,0.1-0.6,0.2c-0.2,0.1-0.5,0.2-0.9,0.4
		c-0.1,0.2-0.5,0.4-1,0.5c-0.2,0.7-0.4,1.1-0.5,1.4c-0.1,0.3-0.3,0.7-0.3,1.1c0.6,0,1.3-0.1,2.3-0.2c1-0.1,1.7-0.3,2.2-0.4
		c0.5-0.1,0.9-0.2,1.2-0.3c0.3-0.1,0.7-0.2,1.4-0.5c0.4-0.3,0.7-0.4,1-0.3c0.3,0.1,0.5,0.3,0.6,0.5c0.1,0.3,0.1,0.5,0,0.7
		c-0.1,0.2-0.3,0.4-0.7,0.5c-0.5,0.2-1.2,0.4-2.1,0.5c-0.8,0.2-1.5,0.3-1.9,0.4c-0.4,0.1-0.9,0.2-1.2,0.2c-0.4,0-1,0.1-1.7,0.2
		c-0.4,0.1-0.9,0.1-1.4,0.2c-0.1,0.4-0.2,0.7-0.2,1c0,0.2-0.1,0.6-0.2,1c-0.1,0.4-0.2,1.1-0.3,2c0,0.5,0.1,1,0.2,1.6
		c0.1,0.6,0.4,1.1,0.7,1.5c0.3,0.4,0.8,0.7,1.3,0.8c0.4,0.1,0.9,0.1,1.5-0.1s1.4-0.6,2.4-1.1c0.9-0.6,1.8-1.2,2.6-1.9
		c0.8-0.7,1.6-1.4,2.5-2.2c0.8-0.8,1.4-1.3,1.8-1.7c0.3-0.3,0.6-0.5,0.9-0.6c0.3-0.1,0.6-0.1,0.9,0.1c0.3,0.2,0.5,0.4,0.5,0.7
		c0,0.3-0.1,0.6-0.3,0.7c-0.2,0.2-0.4,0.4-0.8,0.6c-0.1,0.3-0.4,0.4-0.9,0.4c-0.1,0.4-0.4,0.7-0.7,0.8c-0.3,0.3-0.6,0.6-0.8,0.8
		c-0.3,0.2-0.5,0.4-0.7,0.5c-0.2,0.1-0.4,0.3-0.6,0.5c-0.2,0.2-0.5,0.4-0.8,0.6c-0.3,0.4-0.7,0.6-1.1,0.7c-0.2,0.2-0.5,0.5-0.9,0.8
		c-0.4,0.3-0.9,0.5-1.3,0.8c-0.3,0.2-0.5,0.3-0.6,0.3c-0.1,0-0.4,0.1-0.7,0.2c-0.2,0.2-0.6,0.3-1,0.3c-0.4,0.1-0.8,0.2-1.2,0.2
		c-0.4,0-0.7-0.1-1.1-0.2c-0.6-0.2-1-0.4-1.3-0.7c-0.3-0.3-0.6-0.6-0.8-1c-0.2-0.4-0.4-0.8-0.5-1.1c-0.2-0.7-0.2-1.4-0.2-2.1
		s0.1-1.3,0.2-2.1c0.1-0.7,0.3-1.4,0.4-2.1c-0.5,0-0.9,0-1.1,0S195.7,22.7,195,22.7z M195.6,21c0.4-0.1,0.8-0.1,1,0s0.7,0,1.2,0
		c0.1-0.5,0.3-1.1,0.4-1.5c-0.4,0.3-0.8,0.4-1,0.5C196.9,20.1,196.4,20.4,195.6,21z M203.4,15c0.5-0.3,0.9-0.6,1.4-0.9
		c0.2-0.3,0.2-0.5,0.1-0.6c-0.1-0.1-0.2-0.3-0.4-0.4c-0.2-0.1-0.4-0.2-0.6-0.3c-0.3-0.1-0.6-0.1-1.1-0.3c-0.4,0.7-0.7,1.3-0.9,1.8
		c-0.2,0.5-0.4,0.9-0.4,1.1c-0.1,0.2-0.2,0.5-0.4,0.8c0.7-0.3,1.1-0.6,1.2-0.7C202.4,15.5,202.8,15.3,203.4,15z"/>
	<path class="st0" d="M233.5,9.8c0.1-0.6,0.2-1,0.4-1.2c-0.1-0.3,0-0.7,0.1-1.1c0-0.3,0-0.6-0.1-0.7s-0.2-0.3-0.5-0.3
		c-0.4-0.1-0.8-0.2-1.1-0.2c-0.3,0-0.7,0.1-1.2,0.1c-0.6,0.1-1,0.2-1.3,0.3c-0.3,0.1-0.5,0.3-0.7,0.4c-0.2,0.1-0.4,0.2-0.7,0.2
		c-0.4,0.4-0.7,0.7-0.8,0.8c-0.2,0.2-0.6,0.3-1.2,0.3c-0.2,0.5-0.3,0.9-0.3,1.2c-0.1,0.4-0.2,1.1-0.5,2.1c-0.2,1.1-0.5,2-0.6,2.9
		c-0.2,0.9-0.3,1.5-0.3,1.9c-0.1,0.4-0.2,0.7-0.4,0.9c0.1,0.4,0.1,0.6,0.1,0.8s-0.1,0.4-0.3,0.6c-0.1,0.6-0.1,1-0.2,1.2
		c-0.1,0.1-0.1,0.3,0,0.5c0.1,0.2,0.1,0.4,0,0.7c-0.1,0.3-0.1,0.5-0.1,0.7c0,0.2,0,0.4,0,0.5c-0.1,0.2-0.1,0.4-0.2,0.5
		c-0.1,0.1-0.1,0.3,0,0.5s0,0.4-0.1,0.5c-0.1,0.2-0.1,0.4-0.2,0.6c-0.1,0.3-0.2,0.5-0.2,0.7s-0.1,0.4-0.2,0.8c0.1,0.3,0.1,0.5,0,0.6
		c0,0.1,0,0.4,0,0.6s-0.1,0.7-0.2,1.3c0.2,0.3,0.2,0.6,0.1,0.8c-0.1,0.2-0.1,0.5,0,1c0.1,0.5,0.2,0.9,0.3,1.3c0.2,0.4,0.5,0.8,1,1.2
		c0.5,0.1,0.8,0.3,0.9,0.4c0.1,0.2,0.2,0.3,0.3,0.5c0.1,0.2,0.1,0.4,0,0.6c-0.1,0.2-0.3,0.3-0.5,0.4c-0.2,0.1-0.5,0.1-0.8,0
		c-0.3-0.1-0.6-0.3-0.8-0.5c-0.2-0.1-0.4-0.3-0.6-0.4c-0.1-0.2-0.3-0.5-0.6-0.8c-0.3-0.4-0.4-0.7-0.5-0.9c-0.1-0.3-0.2-0.5-0.2-0.8
		c0-0.3-0.1-0.6-0.1-1s0-0.7,0-1.1c0-0.4,0.1-0.7,0.1-1.1c0.1-0.4,0.2-1.1,0.3-2.3c0.2-1.2,0.6-3.6,1.2-7.2c0.6-3.6,1-5.6,1.1-6.1
		c0-0.5,0.1-0.9,0.3-1.1c0-0.4,0-0.8,0-1c0.1-0.2,0.1-0.6,0.1-1c0-0.4,0.1-0.8,0.2-1.4c0.1-0.3,0.1-0.6,0.2-0.9
		c0.1-0.3,0.1-0.6,0.1-1c0.2-0.5,0.3-1,0.3-1.4c0.1-0.4,0.2-0.8,0.4-1.1c0.2-0.1,0.5-0.2,0.9-0.2c0.3,0.1,0.5,0.2,0.7,0.4
		c0.1,0.2,0.2,0.4,0.2,0.7c0,0.3-0.1,0.7-0.4,1.4c0.7-0.3,1.4-0.6,2.1-0.7c0.7-0.2,1.4-0.3,2.2-0.4c0.7-0.1,1.4-0.2,2-0.2
		c0.6,0,1,0,1.3,0.2c0.2,0.2,0.5,0.4,0.7,0.5c0.2,0.2,0.3,0.4,0.3,0.6c0,0.2,0,0.4,0.1,0.6c0.1,0.2,0,0.7-0.1,1.3
		c-0.1,0.3-0.2,0.8-0.3,1.4c-0.1,0.4-0.2,0.8-0.3,1.2c0.1,0.4,0.1,0.9-0.1,1.2c-0.1,0.4-0.3,0.8-0.5,1.3c0.4,0.1,0.7,0.4,0.7,0.8
		c0,0.4,0,0.6-0.2,0.7c-0.2,0.1-0.5,0.2-1,0.4c-0.2,0.3-0.4,0.6-0.5,0.7c-0.1,0.2-0.4,0.3-0.7,0.4c-0.3,0.1-0.6,0.1-0.8,0
		c-0.2-0.1-0.3-0.3-0.5-0.5c-0.4,0.1-1,0.2-1.8,0.3c-0.3,0.2-0.6,0.3-0.8,0.3c-0.2,0.1-0.4,0.1-0.5,0.2c-0.1,0.1-0.3,0.2-0.7,0.4
		c-0.3,0.2-0.7,0.3-1,0.1c-0.4-0.1-0.6-0.4-0.7-0.7c-0.1-0.3-0.1-0.6,0-0.8c0.1-0.2,0.3-0.3,0.7-0.4c0.3-0.2,0.5-0.2,0.7-0.3
		c0.2,0,0.4-0.1,0.7-0.2c0.3-0.1,0.6-0.2,1.1-0.2c1.1-0.2,2.1-0.4,3.1-0.5c0.3-0.5,0.5-0.9,0.6-1.2c0.1-0.4,0.2-0.8,0.4-1.2
		c-0.4-0.1-0.9-0.2-1.4-0.2c-0.5,0-0.9,0.1-1.1,0.2c-0.2,0.1-0.4,0.1-0.5,0c-0.1-0.1-0.4,0-0.7,0.2c-0.6,0.3-1,0.4-1.1,0.6
		c-0.1,0.1-0.2,0.2-0.3,0.4c-0.1,0.1-0.2,0.2-0.4,0.2c-0.2,0-0.4,0-0.6-0.1c-0.2-0.1-0.4-0.3-0.4-0.5c-0.1-0.2-0.1-0.5-0.1-0.7
		c0-0.2,0.2-0.4,0.4-0.6c0.5-0.2,1.2-0.5,2.1-0.7c0.8-0.3,1.5-0.4,1.9-0.4s0.9-0.1,1.2,0c0.3,0,0.6,0,0.8,0.1
		C232.7,9.7,233.1,9.7,233.5,9.8z M239.5,18.5c-1,0.8-1.7,1.5-2.1,2c1-0.1,2-0.2,2.9-0.3c0.6,0,1,0,1.2,0c0.2,0,0.5,0.2,1,0.4
		c0.3,0.2,0.4,0.3,0.4,0.6c0,0.2,0,0.4-0.1,0.7c-0.1,0.2-0.3,0.3-0.6,0.3c-0.2,0-0.6-0.2-1-0.5c-0.7-0.1-1.4-0.1-2.1-0.1
		c-0.4,0-0.9,0.1-1.4,0.1c-0.1,0.5-0.2,0.8-0.3,1.1c-0.1,0.3-0.2,0.6-0.3,0.9c-0.1,0.3-0.3,0.8-0.5,1.3c0.6-0.1,1.3-0.2,2-0.4
		c0.7-0.2,1.2-0.3,1.5-0.4s0.6-0.2,1-0.4c0.6-0.2,1-0.2,1.2-0.2c0.2,0,0.4,0.1,0.6,0.3c0.2,0.2,0.3,0.4,0.3,0.8
		c0,0.3-0.2,0.5-0.5,0.5c-0.3,0-0.8,0.1-1.4,0.3c-0.6,0.1-1.1,0.2-1.5,0.3c-0.4,0.1-0.9,0.2-1.5,0.3c-0.6,0.2-1.1,0.3-1.5,0.4
		c-0.4,0.1-0.7,0.2-1,0.2c-0.3,0.5-0.5,0.9-0.8,1.2c-0.3,0.3-0.5,0.6-0.7,0.9c-0.2,0.2-0.4,0.5-0.7,0.8c-0.2,0.3-0.4,0.6-0.7,0.7
		c-0.3,0.3-0.5,0.5-0.6,0.8c-0.1,0.3-0.3,0.4-0.4,0.5c-0.1,0.1-0.5,0.4-1.1,0.9c-0.2,0.4-0.3,0.6-0.5,0.7c-0.1,0.1-0.3,0.2-0.3,0.4
		s-0.2,0.2-0.4,0.2c-0.2,0-0.4-0.1-0.7-0.2c-0.3-0.1-0.4-0.3-0.4-0.5s0-0.4,0-0.5c0-0.1,0.2-0.3,0.4-0.6c0.4-0.3,1-0.8,1.6-1.4
		c0.7-0.6,1.8-1.9,3.4-3.7c-0.8,0.2-1.5,0.3-1.9,0.4c-0.4,0.1-1.1,0.3-2.1,0.5c-0.5,0.2-0.9,0.2-1.2,0c-0.3-0.1-0.5-0.4-0.5-0.7
		c-0.1-0.4,0-0.6,0.2-0.7s0.3-0.2,0.5-0.2c0.2,0,0.4-0.1,0.6-0.1c0.5-0.1,0.9-0.1,1.1-0.2c0.3,0,0.7-0.1,1.4-0.2
		c0.7-0.1,1.5-0.3,2.5-0.6c0.2-0.5,0.4-0.9,0.4-1.1c0.1-0.3,0.2-0.5,0.3-0.7c0.1-0.4,0.2-0.9,0.3-1.4c-1.2,0.1-2.2,0.3-2.8,0.5
		c-0.7,0.2-1.2,0.4-1.6,0.5c-0.4,0.2-0.7,0.3-1.1,0.5c-0.3,0.2-0.6,0.1-0.9-0.3c-0.2-0.4-0.3-0.7-0.1-1c0.2-0.2,0.4-0.4,0.7-0.5
		c0.6-0.2,1.6-0.4,2.9-0.7c-0.2-0.2-0.4-0.4-0.5-0.7s-0.3-0.4-0.4-0.6c-0.1-0.2-0.3-0.4-0.4-0.6c-0.1-0.3-0.2-0.5-0.3-0.8
		s-0.1-0.6,0.1-1s0.6-0.6,1.1-0.6c0.5,0.1,0.8,0.3,0.9,0.7s0,0.8-0.2,1.1c0.2,0.3,0.4,0.7,0.8,1c0.3,0.3,0.6,0.7,0.9,1.2
		c0.6-0.6,1-1,1.2-1.3c0.2-0.3,0.6-0.7,1.2-1.2c0.3-0.2,0.5-0.5,0.8-0.7c0.3-0.2,0.5-0.4,0.8-0.6c0.3-0.2,0.6-0.4,0.9-0.5
		c0.3-0.1,0.7-0.2,1-0.2c0.4,0.2,0.6,0.5,0.6,0.8c0.1,0.3,0,0.5-0.2,0.6c-0.2,0.1-0.4,0.2-0.8,0.4C240.1,18.3,239.8,18.4,239.5,18.5
		z M242,32.3c0.3,0.4,0.3,0.7,0.1,1c-0.2,0.3-0.5,0.4-0.8,0.4c-0.3,0-0.5-0.1-0.7-0.3s-0.3-0.5-0.4-0.8c-0.2-0.1-0.5-0.3-0.7-0.6
		c-0.2-0.3-0.6-0.7-1.1-1.3c-0.5-0.6-0.9-1.1-1.3-1.3c-0.3-0.3-0.7-0.5-0.9-0.5c-0.3-0.4-0.4-0.8-0.2-1.1c0.2-0.3,0.4-0.4,0.7-0.5
		c0.3,0,0.6,0.1,0.9,0.4c0.4,0.3,0.7,0.6,0.9,0.9c0.2,0.3,0.6,0.7,1.2,1.3c0.6,0.6,1,1.1,1.4,1.4C241.4,31.6,241.7,31.9,242,32.3z
		 M251.3,24.8c0.2,0.4,0.2,0.7,0.2,0.8s-0.2,0.4-0.3,0.7c0,0.6,0,1.2,0,1.8c0,0.6,0,1.3-0.1,2.1c-0.1,0.7-0.2,1.9-0.6,3.6
		c-0.2,0.6-0.4,1.1-0.5,1.3c-0.1,0.2-0.3,0.4-0.5,0.6s-0.6,0.3-1,0.2c-0.4,0-0.8-0.1-1.1-0.2c-0.7-0.4-1.6-0.9-2.6-1.6
		c-0.6-0.4-1-0.7-1.3-0.9c-0.4-0.2-0.7-0.5-0.8-1c-0.1-0.5,0-0.8,0.4-1c0.3-0.2,0.6-0.3,0.8-0.2c0.2,0.1,0.4,0.3,0.6,0.5
		c0.3,0.3,0.5,0.5,0.7,0.6c0.2,0.1,0.4,0.3,0.6,0.6c0.4,0.2,0.7,0.3,0.9,0.5s0.6,0.4,1.1,0.7c0.5,0.2,0.8,0.2,0.9,0.1
		c0.1-0.1,0.3-0.3,0.4-0.7c0.1-0.4,0.3-0.8,0.4-1.3c0.2-0.5,0.3-1.2,0.4-2.2s0.2-2.7,0.4-5c0.2-2.3,0.2-5.6,0.1-10
		c-0.9,0.1-1.5,0.1-1.9,0.1c-0.4,0-0.7,0.1-0.9,0.2c-0.2,0.1-0.6,0.2-1.2,0.2c-0.5,0.1-0.9,0.1-1.1,0.2c-0.2,0.1-0.6,0.2-1,0.2
		c-0.1,0.3-0.3,0.5-0.6,0.6c-0.3,0.1-0.6,0.2-1,0.1c-0.4,0-0.7-0.1-1-0.4c-0.3-0.3-0.5-0.5-0.7-0.7c-0.2-0.2-0.3-0.5-0.5-0.8
		c-0.2-0.3-0.2-0.8-0.3-1.3c-0.1-0.4-0.2-0.7-0.1-0.9c0.1-0.2,0.1-0.5,0.1-0.8c0-0.3,0-0.6,0-1c0-0.6,0-1.1,0.1-1.6
		c0-0.4,0-0.7,0.1-1c0.1-0.3,0.1-0.6,0.1-0.8c0-0.3,0.1-0.8,0.2-1.6c0-0.3,0-0.5,0.1-0.7c0-0.2,0.1-0.4,0.3-0.6
		c0.2-0.2,0.4-0.2,0.8-0.2c0.4,0.1,0.6,0.2,0.8,0.5c0.1,0.2,0.2,0.5,0.3,0.8c1-0.4,1.9-0.7,2.9-1.1c1-0.3,1.6-0.5,2.1-0.6
		c0.4-0.1,0.8-0.1,1.3-0.1c0.5,0,0.8,0.1,1.1,0.2c0.3,0.2,0.5,0.3,0.7,0.5c0.2,0.2,0.4,0.4,0.5,0.8c0.1,0.4,0.2,0.7,0.2,1
		c0,0.3,0,0.8,0.1,1.5c0,0.7,0,1.2,0,1.7c-0.1,0.7-0.1,1.6-0.1,2.7c0,1.1,0,1.9-0.1,2.6c0,0.6,0,1.5,0.1,2.7c-0.1,0.5-0.2,1-0.2,1.4
		c0.1,0.4,0.1,0.8,0.1,1c0,0.2-0.1,0.5-0.2,0.9c0.2,0.2,0.2,0.3,0.2,0.5c0,0.2-0.1,0.4-0.2,0.6c0.1,0.5,0.1,1,0,1.4
		c-0.1,0.4,0,0.7,0,0.9C251.5,24.3,251.5,24.6,251.3,24.8z M241.6,13.2c0.1,0.5,0.3,0.8,0.4,1.1c0.2,0.2,0.4,0.3,0.7,0.4
		c0.4-0.2,0.7-0.2,1-0.2c0.2,0,0.5,0,0.7-0.1c0.2-0.1,0.5-0.1,0.7-0.2c0.2-0.1,0.6-0.1,1.1-0.2c0.2-0.1,0.6-0.2,1-0.2
		c0.5-0.1,0.8-0.1,1-0.1c0.2,0,0.5,0,0.9-0.1s0.7-0.1,1.2,0.1c0.1-0.6,0.1-1.1,0-1.5c0-0.4-0.1-0.8-0.1-1.3
		c-0.3,0.2-0.5,0.4-0.6,0.5c-0.1,0.1-0.5,0-1.1-0.3c-0.7-0.2-1.2-0.3-1.5-0.2c-0.3,0.2-0.5,0.3-0.6,0.2c-0.1,0-0.3,0-0.7,0
		c-0.3,0.2-0.7,0.4-1.1,0.4c-0.3,0.2-0.6,0.3-0.8,0.4c-0.2,0.1-0.4,0.2-0.8,0.2c-0.3,0.1-0.6-0.1-0.7-0.7c-0.1-0.5,0-0.9,0.3-1.1
		c0.3-0.2,0.9-0.3,1.6-0.5c0.5-0.1,1.1-0.2,1.7-0.4c0.6-0.1,1.4-0.2,2.5-0.3c0.4,0,0.7,0,0.9,0c0.2,0,0.4,0.1,0.8,0.3
		c0-1.1,0-1.9,0.1-2.4c-0.1-0.5-0.2-0.8-0.3-1c-0.1-0.2-0.3-0.4-0.6-0.5c-0.4-0.1-0.8-0.1-1.1,0c-0.2-0.1-0.4-0.1-0.6,0
		c-0.1,0.1-0.3,0.1-0.4,0.2s-0.4,0.1-0.7,0.2c-0.3,0.2-0.6,0.3-1,0.3c-0.3,0.3-0.5,0.4-0.6,0.4s-0.4,0.1-0.7,0.2
		c-0.1,0.3-0.3,0.6-0.6,0.6c-0.3,0.1-0.8,0.1-1.5-0.1c-0.1,0.6-0.2,1.1-0.3,1.4c-0.1,0.3-0.1,0.9-0.2,1.8
		C241.6,11.5,241.6,12.4,241.6,13.2z"/>
	<path class="st0" d="M258.3,20.4c0.2-0.4,0.3-0.7,0.5-1c0.2-0.2,0.5-0.6,0.9-1c0.6-0.6,1.3-1.3,2.1-2.1c0.8-0.8,1.9-1.9,3.3-3.4
		c1.4-1.4,2.6-2.6,3.5-3.5c0.9-0.9,1.6-1.5,2-1.8c0.4-0.3,0.8-0.7,1.2-1.1c0.4-0.4,0.8-0.7,1.3-0.9c0.4-0.1,0.6,0,0.8,0.3
		c0.2,0.3,0.2,0.6,0.3,0.9c0,0.3-0.1,0.6-0.3,1c-0.3,0.2-0.6,0.3-0.8,0.5c-0.5,0.2-0.8,0.4-0.9,0.5c-0.1,0.2-0.3,0.3-0.6,0.4
		c-0.1,0.2-0.2,0.3-0.5,0.4c-0.2,0.2-0.4,0.4-0.6,0.5s-0.4,0.3-0.7,0.5c-0.3,0.2-0.4,0.4-0.5,0.5c-0.1,0.1-0.2,0.2-0.4,0.2
		c-0.1,0.2-0.3,0.5-0.5,0.8c-0.2,0-0.4,0.1-0.4,0.3c-0.1,0.1-0.2,0.3-0.3,0.4c-0.1,0.1-0.2,0.2-0.4,0.2c-0.2,0.2-0.3,0.4-0.3,0.5
		s-0.3,0.2-0.6,0.4c-0.1,0.2-0.2,0.4-0.4,0.5c-0.2,0.1-0.4,0.3-0.5,0.5c-0.1,0.2-0.3,0.4-0.4,0.6c-0.3,0.1-0.4,0.2-0.5,0.3
		s-0.2,0.2-0.3,0.4c-0.1,0.1-0.3,0.3-0.5,0.3c-0.1,0.3-0.3,0.5-0.4,0.7c-0.2,0.3-0.4,0.5-0.7,0.6c-0.1,0.3-0.2,0.5-0.5,0.5
		c-0.1,0.3-0.3,0.5-0.5,0.6c0,0.4-0.1,0.8-0.2,1.1c-0.1,0.3-0.3,0.5-0.6,0.6c-0.2,0.4-0.4,0.7-0.7,1c-0.3,0.2-0.6,0.3-0.8,0.3
		s-0.5-0.2-0.7-0.5C258.1,21,258.1,20.7,258.3,20.4z M266.8,14.9c0.2-0.7,0.5-1.1,0.8-1.2c0.4-0.1,0.7,0,1,0.4
		c0.3,0.4,0.4,0.8,0.3,1.1s-0.2,0.6-0.3,0.8c-0.1,0.2-0.2,0.4-0.4,0.6c-0.1,0.4-0.2,0.9-0.3,1.4c-0.5,2-0.9,3.4-1.1,4.3
		c-0.2,0.9-0.3,1.5-0.4,1.8c-0.1,0.3-0.2,0.7-0.3,1.1c0,0.6-0.1,1-0.3,1.2c0,0.5-0.1,0.9-0.3,1.2c0.1,0.3,0.1,0.5,0,0.7
		c-0.1,0.1-0.1,0.3-0.1,0.5c0,0.2,0,0.4,0,0.6c0,0.2,0,0.6-0.1,1.1c0.3,0.3,0.5,0.5,0.8,0.5c0.2,0.1,0.4,0.2,0.5,0.4
		c0.1,0.2,0.1,0.5,0,0.9c-0.1,0.4-0.3,0.7-0.6,0.7c-0.3,0.1-0.6,0.1-0.9,0c-0.4-0.1-0.7-0.2-0.9-0.5c-0.2-0.3-0.4-0.6-0.5-1.1
		c-0.1-0.5-0.1-1.3,0.1-2.5c0.2-1.2,0.4-2.2,0.6-3.2c0.2-0.8,0.5-2.1,0.9-3.8c0.4-1.7,0.7-3,0.8-3.8c0.1-0.8,0.2-1.4,0.3-1.8
		C266.8,15.9,266.8,15.4,266.8,14.9z M273.6,28.8c0.3-0.3,0.5-0.5,0.7-0.5c0.2-0.1,0.3-0.3,0.5-0.6c0.6-0.5,1-0.9,1.2-1.2
		c0.2-0.2,0.5-0.5,0.9-0.8c0.4-0.3,0.9-0.4,1.5-0.3c0.5,0.2,0.9,0.3,1,0.4c0.2,0.1,0.3,0.3,0.3,0.6c0,0.3-0.1,0.5-0.2,0.7
		c-0.2,0.2-0.3,0.4-0.6,0.4c-0.2,0.1-0.5,0-0.8-0.1c-0.3-0.2-0.6-0.1-0.8,0.1c-0.2,0.2-0.4,0.4-0.6,0.5c-0.7,0.6-1.4,1.2-2,1.8
		c-0.6,0.7-1.2,1.2-1.8,1.8c-0.4,0.4-0.7,0.8-1,0.9c-0.2,0.2-0.5,0.2-0.8,0.2c-0.3-0.1-0.5-0.2-0.6-0.5c-0.1-0.2-0.2-0.5-0.1-0.7
		c0.1-0.2,0.2-0.4,0.3-0.6s0.5-0.4,0.9-0.6c0.7-0.6,1.1-1,1.3-1.1C273.1,29.2,273.4,29,273.6,28.8z M286,4.3
		c0.4-0.1,0.7-0.2,1.1-0.3c0.1,0,0.3,0,0.4,0c0.1,0,0.3,0,0.5,0.1s0.4,0.1,0.6,0.2c0.2,0.1,0.4,0.3,0.5,0.7c0.1,0.4,0,0.7-0.3,1
		c-0.3,0.3-0.6,0.3-0.9,0.2c-0.3-0.1-0.7-0.2-1.3-0.2c-0.5,0-1.2,0.1-2.2,0.4c-1,0.3-2.1,0.8-3.4,1.4s-2.2,1.1-2.8,1.4
		c-0.6,0.3-1.4,0.8-2.4,1.5c-0.2,0.4-0.5,0.7-0.7,1c-0.2,0.2-0.5,0.3-0.8,0.1c-0.3-0.2-0.5-0.4-0.6-0.6c-0.1-0.2-0.1-0.4-0.1-0.6
		c0.1-0.2,0.3-0.4,0.6-0.7c0.6-0.4,1.5-1,2.7-1.7c1.2-0.7,2.5-1.3,3.9-2c1.4-0.6,2.4-1,2.9-1.2C284.3,4.9,285,4.6,286,4.3z
		 M279.3,13.6c0.5,0.2,1,0.3,1.4,0.3c0.4,0.1,0.8,0.1,1.2,0c0.3-0.1,0.8-0.1,1.5,0.1c0.6-0.3,1-0.6,1.2-0.7c0.2-0.2,0.4-0.3,0.7-0.5
		c0.2-0.2,0.5-0.3,1-0.5c0.3-0.3,0.5-0.4,0.8-0.5c0.3-0.1,0.6-0.1,1-0.1c0.4,0,0.7,0.2,0.9,0.5c0.2,0.4,0.3,0.6,0.3,0.7
		c-0.1,0.1-0.4,0.4-1,0.7c-0.8,0.2-1.5,0.5-2.3,0.9c-0.8,0.4-1.6,1-2.6,1.6c-0.9,0.7-1.7,1.2-2.3,1.7c-0.6,0.5-1.2,1-2,1.7
		c-0.8,0.7-1.3,1.4-1.5,2.1c0.3,0.1,0.7,0.1,1.1,0c0.4-0.1,0.7-0.2,1-0.2c0.3-0.1,0.7-0.2,1.2-0.2c0.4-0.2,0.8-0.3,1.2-0.4
		c0.3-0.2,0.6-0.3,0.9-0.4c0.2-0.1,0.7-0.2,1.4-0.5c0.7-0.3,1.4-0.6,2.2-1c0.4-0.2,0.6-0.3,0.8-0.5c0.2-0.1,0.3-0.3,0.4-0.6
		c0.1-0.2,0.2-0.4,0.4-0.5c0.2-0.2,0.5-0.2,0.7-0.1c0.2,0.1,0.5,0.2,0.7,0.5c0.2,0.2,0.3,0.4,0.4,0.6c0.9,0.8,1.6,1.4,2.1,1.7
		c0.5,0.4,0.9,0.7,1.2,0.9c0.3,0.2,0.3,0.6,0.1,1.1c-0.1,0.2-0.3,0.4-0.6,0.5s-0.5,0-0.8-0.2c-0.2-0.2-0.4-0.4-0.4-0.7
		c-0.4-0.3-0.7-0.6-1-0.8c-0.3-0.2-0.8-0.7-1.6-1.4c-0.4,0.3-0.7,0.5-1,0.7s-0.6,0.3-1.1,0.3c-0.3,0.3-0.6,0.5-0.9,0.5
		c-0.4,0.1-0.9,0.3-1.3,0.5c0,0.4,0,0.8,0,1.1c0,0.3,0,0.5-0.1,0.7c-0.1,0.2-0.1,0.5-0.2,0.9c0,0.4,0,0.8,0,1.1c0,0.4,0,0.7-0.1,0.9
		c-0.1,0.2-0.1,0.4-0.2,0.7c0.1,0.3,0.1,0.6,0,0.9c-0.1,0.5-0.2,0.9-0.2,1.4c0,0.2,0,0.4,0,0.6c0,0.2-0.1,0.5-0.1,0.8
		c-0.1,0.3-0.1,0.7-0.2,1.1c-0.1,0.6-0.2,1-0.3,1.2c-0.1,0.2-0.3,0.5-0.6,0.7c-0.3,0.4-0.6,0.5-1,0.4c-0.4-0.1-0.7-0.3-0.9-0.6
		c-0.2-0.4-0.4-0.8-0.5-1.2c-0.1-0.4,0-0.8,0.4-1c0.4-0.3,0.8-0.3,1.3-0.2c0.3-0.6,0.5-1.7,0.7-3.4c0.2-1.6,0.3-2.8,0.3-3.5
		c0-0.7,0-1.4,0-2c-0.8,0.2-1.3,0.3-1.6,0.4c-0.3,0.1-0.6,0.2-0.9,0.3c-0.3,0.1-0.6,0.2-0.7,0.2c-0.1,0-0.4,0.1-0.9,0.2
		c-0.4,0.1-0.7,0.2-0.9,0.2c-0.2,0-0.5,0-0.9,0c-0.4,0-0.8-0.1-1.2-0.3c-0.3-0.2-0.4-0.4-0.6-0.7c-0.1-0.3-0.1-0.6,0-1
		c0.1-0.5,0.3-0.8,0.5-1.1c0.3-0.3,0.8-0.7,1.5-1.4c0.8-0.7,1.5-1.3,2.1-1.8c0.7-0.5,1.3-1,1.8-1.3c-1.1-0.1-2-0.2-2.6-0.4
		c-0.6-0.2-1.1-0.5-1.4-0.9c-0.2-0.4-0.2-0.8-0.1-1.2c0.2-0.4,0.4-0.7,0.6-1c0.3-0.3,0.6-0.6,0.9-0.8c0.1-0.2,0.3-0.3,0.5-0.4
		c0.2-0.1,0.4-0.3,0.4-0.4c0.1-0.2,0.7-0.7,1.9-1.5c0.2-0.3,0.6-0.6,1-0.8c0.5-0.2,0.9-0.4,1.2-0.4c0.3-0.1,0.6,0,0.9,0.3
		c0.3,0.2,0.3,0.6,0.2,1c-0.1,0.4-0.5,0.6-1.1,0.6c-0.5,0.3-1.4,0.9-2.4,1.8C280.4,12.3,279.7,13,279.3,13.6z M288.1,26.5
		c0.3,0.2,0.4,0.3,0.5,0.3c0.1,0.1,0.3,0.3,0.6,0.6c0.4,0.3,0.7,0.5,0.9,0.7c0.2,0.2,0.5,0.4,0.9,0.7c0.4,0.1,0.7,0.2,1,0.5
		c0.3,0.3,0.6,0.5,0.8,0.7c0.2,0.2,0.6,0.4,1,0.5c0.2,0.2,0.4,0.4,0.6,0.4c0.2,0.1,0.4,0.2,0.5,0.5c0.2,0.2,0.2,0.5-0.1,0.8
		c-0.2,0.3-0.5,0.5-0.9,0.5c-0.4,0-0.7-0.1-0.9-0.3c-1.1-1-2.3-2-3.5-2.8c-1.2-0.9-2.4-1.8-3.7-2.6c-0.1-0.2-0.2-0.3-0.2-0.4
		c0-0.1,0.1-0.3,0.2-0.6c0.2-0.3,0.4-0.4,0.6-0.4c0.3,0,0.5,0,0.8,0.1c0.3,0.1,0.4,0.2,0.5,0.3C287.9,26.1,288,26.3,288.1,26.5z"/>
	<path class="st0" d="M309.4,11.2c-0.2,0-0.5,0-0.7,0.1c-0.2,0.1-0.5,0.1-0.9-0.1c-0.2,0.1-0.5,0.2-0.9,0.2
		c-0.3,0.1-0.6,0.2-0.8,0.3c-0.2,0.1-0.4,0.1-0.6,0.1c-0.2,0-0.4,0.1-0.8,0.4c-0.3,0.1-0.5,0.2-0.7,0.3c-0.1,0.1-0.3,0.1-0.5,0
		c-0.2-0.1-0.4-0.2-0.5-0.3c-0.2-0.1-0.3-0.3-0.4-0.5c-0.1-0.2-0.2-0.4-0.1-0.6c0.1-0.2,0.2-0.4,0.3-0.6c0.1-0.2,0.4-0.3,1-0.4
		c0.8-0.1,1.8-0.2,2.9-0.3l1.9-0.2c0.6-0.1,1.2-0.2,1.7-0.2c0.2-0.1,0.4-0.2,0.6-0.2c0.2,0,0.4-0.1,0.5-0.2c0.4-0.4,0.8-0.8,1.2-1.2
		c0.4-0.4,0.9-0.7,1.6-1c0.2-0.1,0.5-0.2,0.7-0.2c0.3-0.1,0.4-0.1,0.6,0s0.3,0.1,0.6,0.1c0.3,0,0.6,0.1,0.8,0.2
		c0.3,0.1,0.4,0.3,0.5,0.6c0.1,0.3,0.1,0.6,0,0.9c-0.2,0.3-0.4,0.6-0.5,0.7c-0.2,0.1-0.4,0.2-0.8,0.2c-0.2,0.2-0.4,0.2-0.6,0.3
		c-0.1,0-0.4,0.1-0.7,0.2c-0.3,0.2-0.6,0.3-0.7,0.3c-0.2,0-0.3,0-0.4,0.1c-0.1,0.1-0.3,0.1-0.4,0.1c-0.1,0-0.2,0.1-0.3,0.2
		c-0.1,0.1-0.3,0.1-0.6,0.1c-0.2,0.1-0.4,0.2-0.5,0.2c-0.1,0.1-0.2,0.2-0.3,0.3c-0.1,0.2-0.2,0.3-0.4,0.3c-0.2,0-0.3,0.2-0.3,0.3
		c-0.1,0.2-0.2,0.3-0.4,0.4c-0.1,0.3-0.4,0.6-0.7,1c-0.4,0.4-0.7,0.8-1.1,1.4c-0.5,0.5-0.9,1.1-1.3,1.5c-0.4,0.5-0.7,0.9-0.8,1.1
		c-0.2,0.3-0.4,0.5-0.7,0.6c-0.2,0.3-0.4,0.5-0.7,0.8c-0.1,0.3-0.2,0.5-0.2,0.7c-0.1,0.2-0.2,0.3-0.3,0.3c-0.1,0-0.2,0.2-0.3,0.4
		c0,0.3-0.2,0.6-0.6,0.8c-0.3,0.4-0.5,0.6-0.6,0.8c-0.1,0.2-0.3,0.5-0.5,1c-0.2,0.5-0.2,0.9-0.2,1.3c0.3,0.1,0.6,0.3,0.8,0.5
		c0.3,0,0.5,0.1,0.6,0.3c0.2,0.2,0.2,0.4,0.2,0.7c-0.1,0.2-0.2,0.4-0.4,0.6s-0.4,0.2-0.5,0.3c-0.2,0-0.4,0-0.6-0.1
		c-0.2-0.1-0.5-0.2-0.8-0.3c-0.3-0.3-0.5-0.5-0.7-0.6c-0.2-0.1-0.3-0.3-0.4-0.6c0-0.3,0-0.6,0-0.9c0-0.2,0-0.3,0-0.5
		c0-0.2,0.2-0.4,0.4-0.7c0.1-0.2,0.1-0.4,0.2-0.6c0.1-0.2,0.2-0.3,0.3-0.5c0.1-0.2,0.4-0.6,0.8-1.2c1.1-1.6,2.3-3.1,3.5-4.5
		C306.9,14.2,308.2,12.7,309.4,11.2z M320.8,19.3c-0.1,0.3-0.2,0.6-0.4,0.8c-0.1,0.2-0.3,0.4-0.4,0.6c0.1,0.4-0.1,0.8-0.3,1.1
		c0.1,0.4,0.1,0.7,0,0.9c-0.1,0.1-0.2,0.3-0.2,0.6c0,0.2-0.1,0.5-0.2,0.7c0,0.4-0.1,0.9-0.4,1.4c0.7,0.1,1.1,0.2,1.2,0.2
		c0.2,0,0.3,0,0.5,0c0.2,0.1,0.3,0.1,0.5,0.1c0.2,0,0.5,0,0.9,0c0.4,0,0.7,0,1.1,0.1c0.8,0,1.3,0,1.6,0.1c0.3,0.1,0.5,0.1,0.7,0.1
		s0.4,0.1,0.8,0.2c0.3,0,0.7,0,1.1,0c0.4,0,0.7,0.1,1,0.3c0.3,0.2,0.4,0.4,0.4,0.6c0,0.2,0,0.4-0.1,0.6c-0.1,0.2-0.3,0.3-0.4,0.4
		c-0.2,0.1-0.5,0.1-0.9,0.1c-0.4-0.1-0.8-0.1-1.2-0.2c-0.4-0.1-0.9-0.1-1.6-0.2c-0.2,0-0.4,0-0.6,0c-0.2-0.1-0.4-0.1-0.5,0
		c-0.1,0-0.3,0-0.6-0.1c-0.2-0.1-0.6-0.1-1.2-0.1c-0.2-0.1-0.5-0.1-0.7-0.1c-0.2,0-0.4,0-0.5-0.1c-0.1-0.1-0.2-0.1-0.4-0.1
		s-0.4,0.1-0.6,0c-0.2,0-0.5-0.1-0.8-0.1c-0.5,0.9-1,1.7-1.4,2.3c-0.4,0.7-0.9,1.3-1.4,1.9c-0.3,0.2-0.7,0.4-1.2,0.6
		c-0.4,0.2-0.9,0.3-1.3,0.2c-0.4,0-0.7-0.1-1-0.3c-0.4-0.2-0.7-0.4-0.9-0.7c-0.3-0.4-0.5-0.6-0.5-0.8c-0.1-0.2-0.1-0.5-0.2-0.9
		c-0.1-0.4-0.1-0.7-0.1-0.9c0-0.2,0.2-0.5,0.4-1c0.3-0.5,0.8-0.9,1.6-1.2c0.8-0.3,1.6-0.5,2.4-0.6c0.8-0.1,1.6-0.1,2.3-0.2
		c0.1-0.4,0.2-0.7,0.3-1.1c0.1-0.3,0.1-0.8,0.2-1.2c0.1-0.4,0.2-0.9,0.3-1.3c0.1-0.4,0.2-1.3,0.5-2.6c0.1-0.4,0.1-0.7,0.3-1
		c0.1-0.3,0.3-0.5,0.7-0.6c0.3-0.1,0.6-0.2,0.9-0.2s0.5,0.1,0.7,0.2c0.2,0.1,0.3,0.3,0.3,0.6c0,0.3-0.1,0.5-0.2,0.8
		C321.1,19.1,320.9,19.2,320.8,19.3z M312.7,28.2c-0.2,0.4-0.2,0.8-0.2,1.1s0.1,0.6,0.3,0.8c0.3,0.1,0.6,0.2,0.9,0.2
		c0.3,0,0.6-0.1,0.8-0.2c0.2-0.1,0.6-0.4,1-0.8c0.2-0.3,0.3-0.6,0.5-0.7c0.1-0.2,0.3-0.4,0.4-0.5c0.1-0.2,0.2-0.4,0.2-0.8
		c-0.3-0.1-0.6-0.1-0.8,0c-0.2,0.1-0.5,0.1-0.7,0.1c-0.2,0-0.4,0.1-0.6,0.2c-0.1,0.1-0.3,0.2-0.5,0.2c-0.2,0-0.4,0.1-0.5,0.2
		C313.3,27.8,313,28,312.7,28.2z M325.8,15c0.4,0.2,0.8,0.4,1.3,0.6c0.5,0.2,1,0.4,1.3,0.6c0.4,0.2,0.7,0.4,0.9,0.6
		c0.2,0.2,0.3,0.3,0.4,0.5c0.1,0.2,0,0.4-0.1,0.7c-0.1,0.3-0.3,0.5-0.5,0.6c-0.2,0.1-0.4,0.1-0.7,0c-0.3-0.1-0.6-0.3-1-0.6
		c-0.2-0.1-0.4-0.2-0.5-0.4c-0.1-0.2-0.3-0.2-0.5-0.2c-0.2,0-0.4-0.1-0.5-0.3c-0.3,0-0.6-0.1-1-0.4c-0.3-0.2-0.5-0.4-0.8-0.6
		c-0.2,0-0.4-0.1-0.6-0.2c-0.2-0.1-0.9-0.4-2-0.9c-0.4,0.1-0.6,0.2-0.7,0.2c-0.1,0.1-0.2,0.1-0.4,0.2c-0.2,0.1-0.4,0-0.7-0.1
		c-0.3-0.1-0.4-0.4-0.5-0.8c-0.1-0.4,0-0.7,0.2-0.9c0.2-0.2,0.5-0.4,0.8-0.5s0.7-0.2,1-0.1c0.3,0,0.7,0.1,1.1,0.3l1.3,0.4
		c0.2,0.1,0.3,0.2,0.5,0.3c0.2,0.1,0.3,0.2,0.5,0.3c0.2,0.1,0.4,0.2,0.6,0.3C325.4,14.7,325.6,14.9,325.8,15z"/>
	<path class="st0" d="M340.4,17.1c-0.1,0.7-0.1,1.2,0.1,1.6c0.1,0.4,0.2,0.6,0.1,0.8c0,0.1,0,0.4,0.2,0.9c0.1,0.3,0.3,0.8,0.5,1.5
		c0.2,0.7,0.4,1.3,0.7,2c0.3,0.6,0.6,1.2,0.9,1.7c0.2,0.3,0.5,0.6,0.7,1c0.3,0.3,0.6,0.5,0.8,0.6c0.2,0.1,0.6,0,1.1-0.3
		c0.4-0.5,0.8-0.8,1.1-1c0.2-0.3,0.3-0.6,0.4-0.7s0.3-0.3,0.6-0.6c0.1-0.3,0.2-0.5,0.5-0.7c0.2-0.3,0.4-0.5,0.5-0.6
		c0.1-0.1,0.2-0.3,0.3-0.5c0.1-0.2,0.2-0.3,0.4-0.4c0.2-0.3,0.5-0.7,0.7-1c0.3-0.3,0.5-0.6,0.7-0.9c0.2-0.3,0.4-0.5,0.7-0.7
		c0.2-0.2,0.5-0.2,0.7-0.1c0.2,0.1,0.4,0.3,0.6,0.5s0.2,0.5,0.1,0.8c-0.1,0.2-0.2,0.4-0.4,0.6c-0.1,0.2-0.4,0.4-0.8,0.9
		c-0.5,0.6-1.2,1.3-2,2.2c-0.8,0.8-1.4,1.5-1.9,2.1s-0.9,1.1-1.4,1.6c-0.4,0.2-0.8,0.4-1.1,0.5c-0.4,0.1-0.9,0-1.6-0.2
		c-0.3-0.3-0.6-0.6-0.9-0.7c-0.3-0.2-0.5-0.4-0.7-0.7c-0.3-0.4-0.6-0.9-0.9-1.2c-0.2-0.4-0.4-0.8-0.5-1.2c-0.2-0.4-0.4-0.6-0.5-0.7
		c-0.1-0.1-0.2-0.3-0.1-0.7c0-0.2-0.1-0.4-0.2-0.5c-0.1-0.2-0.2-0.4-0.2-0.7c-0.2-0.2-0.3-0.4-0.3-0.6c0-0.2,0-0.4-0.2-0.6
		c0-0.3,0-0.5,0-0.7c0-0.2,0-0.4,0-0.5c0-0.1,0-0.3-0.1-0.5c-0.1-0.2-0.2-0.3-0.2-0.5c0-0.1,0-0.4,0-0.8c-0.1-0.3-0.2-0.6-0.2-1
		c0-0.4,0-0.6,0-0.9c0-0.2,0-0.4,0-0.6c0-0.3,0-0.6,0-1.1c0-0.4,0-0.8,0.1-1c0.1-0.2,0.1-0.4,0.2-0.6c0.1-0.2,0.3-0.3,0.6-0.4
		c0.3-0.1,0.6-0.2,0.9-0.1c0.3,0.1,0.5,0.3,0.6,0.5c0.1,0.3,0,0.6-0.2,1c-0.1,0.3-0.2,0.7-0.2,1.4C340.3,15.9,340.3,16.6,340.4,17.1
		z M358.8,13.5c-0.1-0.3,0-0.5,0-0.7c0.1-0.2,0.2-0.4,0.4-0.5c0.2-0.1,0.4-0.2,0.6-0.2c0.3,0,0.5,0,0.7,0.1c0.1,0.1,0.2,0.2,0.4,0.6
		c0.2,0.3,0.3,0.8,0.4,1.5c0.1,0.7,0.1,1.6,0.1,2.7c0,1.1,0,2.2,0,3.4c0,0.5,0,1-0.1,1.5c-0.1,0.5-0.1,1-0.1,1.5
		c0.1,0.5,0.2,0.9,0.1,1.2c0,0.2-0.1,0.4-0.3,0.5c-0.1,0.1-0.4,0.2-0.7,0.2c-0.3,0-0.6,0-0.9-0.2c-0.3-0.2-0.5-0.4-0.5-0.7
		c0-0.3,0-0.5,0.1-0.7c0.1-0.2,0.2-0.5,0.2-0.9c0-0.4,0.1-0.8,0.3-1.4c0-0.8,0-1.3,0-1.5c0-0.2,0.1-0.4,0.2-0.5
		c0.1-0.2,0.1-0.4,0-0.5c-0.1-0.2-0.1-0.4-0.1-0.8c0-0.4,0-0.8-0.1-1.2c0-0.3,0-0.7-0.2-1.2c-0.1-0.5-0.2-0.9-0.3-1.3
		C359,14,358.9,13.7,358.8,13.5z"/>
	<path class="st0" d="M24.3,67.7c-1.1,1.5-2.3,2.7-3.7,3.9c-1.2,1.1-2.5,2.2-3.8,3.3c-1.3,1-2.7,2.1-4,3.1c-0.8,0.7-1.7,1.4-2.5,2.2
		c-0.8,0.7-1.6,1.5-2.5,2.2c-0.2,0.2-0.3,0.4-0.4,0.6c-0.1,0.2-0.3,0.4-0.5,0.6s-0.4,0.3-0.8,0.3c-0.3-0.1-0.5-0.2-0.6-0.4
		c-0.1-0.2-0.2-0.5-0.1-0.7c0.1-0.2,0.1-0.5,0.2-0.7c0.1-0.2,0.2-0.4,0.4-0.7c0.2-0.1,0.4-0.2,0.5-0.4c0.2-0.2,0.4-0.4,0.6-0.5
		c0.3-0.1,0.5-0.2,0.7-0.4c0.2-0.3,0.4-0.4,0.7-0.6c0.3-0.1,0.6-0.3,0.8-0.5c0.3-0.3,0.6-0.5,0.9-0.7c0.4-0.2,0.7-0.5,1-0.8
		c0.3-0.2,0.6-0.5,1-0.7s0.6-0.5,0.8-0.7c0.5-0.4,1-0.8,1.6-1.2c0.5-0.4,1-0.7,1.4-1.2c1-0.8,2-1.6,2.8-2.4c0.1-0.2,0.2-0.4,0.4-0.5
		c0.2-0.2,0.4-0.3,0.6-0.4c0.2-0.1,0.3-0.2,0.3-0.4c0-0.1,0.1-0.3,0.3-0.4c0.2-0.1,0.4-0.3,0.6-0.5c0.2-0.3,0.5-0.6,0.9-0.9
		c0.1-0.4,0.4-0.7,0.7-0.9c0.1-0.3,0.1-0.5,0.3-0.5c0.1-0.1,0.2-0.2,0.3-0.3c0.1-0.2,0.2-0.4,0.5-0.8c0.1-0.5,0.2-0.9,0.1-1.1
		s-0.2-0.4-0.5-0.6c-0.3-0.1-0.5-0.2-0.6-0.3c-0.1-0.1-0.3-0.2-0.6-0.4c-0.3,0-0.5,0-0.6,0s-0.4,0-0.6,0c-0.3-0.2-0.5-0.3-0.7-0.2
		c-0.2,0.1-0.4,0.1-0.7,0c-0.3-0.1-0.7-0.1-1.3-0.1c-0.6,0-1.9,0.1-3.7,0.1c-0.2-0.1-0.4,0-0.5,0.1c-0.2,0.1-0.4,0.1-0.6,0
		c-0.3,0.2-0.6,0.2-1,0.2c-0.3,0-0.7,0-1.1,0.1c-0.4,0.2-0.8,0.3-1.2,0.3c-0.4,0.1-0.7,0.1-1.1,0C8.6,63.9,8.3,64,8.2,64
		c-0.1,0-0.3,0-0.5,0c-0.2,0-0.4,0.1-0.6,0.2c-0.2,0.1-0.5,0.3-0.9,0.5c0.1,0.5,0.1,0.8-0.1,1S5.5,66,4.9,66.1
		c-0.6,0.1-1.1-0.2-1.4-0.8c-0.3-0.6-0.3-1.1-0.1-1.4c0.2-0.4,0.6-0.6,1-0.6c0.2-0.2,0.4-0.3,0.6-0.4c0.2-0.1,0.5-0.1,0.7-0.1
		c0.6-0.3,1-0.4,1.2-0.4c0.5-0.2,0.9-0.3,1.4-0.3c0.5,0,1-0.1,1.5-0.2c0.5-0.1,1.1-0.2,1.6-0.2c0.5,0,1-0.1,1.6-0.2
		c0.7,0,1.6-0.1,2.9-0.2c0.6-0.1,1.3-0.1,2.1-0.1c0.8,0,1.6,0,2.5,0.1c0.8,0,1.5,0.1,2.2,0.3c0.7,0.2,1.3,0.5,1.9,0.8
		c0.5,0.4,0.9,0.7,1,1.2c0.1,0.4,0.2,0.8,0.2,1.1c0,0.3-0.1,0.8-0.4,1.4C25,66.7,24.6,67.2,24.3,67.7z"/>
	<path class="st0" d="M41.7,69.1c-0.9,0.2-1.5,0.3-1.8,0.3c-0.2,0.2-0.4,0.2-0.7,0.2c-0.3,0-0.5,0-0.7,0.1c-0.3,0.1-0.6,0.2-0.8,0.3
		c-0.2,0.1-0.4,0.3-0.7,0.4c-0.3,0.3-0.8,0.5-1.4,0.9c-0.6,0-0.9-0.2-1-0.6c-0.1-0.4,0-0.9,0.2-1.2c0.2-0.4,0.6-0.6,1-0.6
		c0.1-0.2,0.3-0.3,0.6-0.3c0.3,0,0.6-0.1,0.9-0.2c0.3-0.1,0.6-0.2,1-0.3c0.4,0,0.8-0.1,1.1-0.2c0.4-0.1,0.7-0.1,0.8-0.2
		c0.2-0.1,0.5-0.1,0.8,0c0.3-0.1,0.6-0.2,1-0.2c0.3-0.1,1.3-0.1,2.8-0.3c1.5-0.1,2.8-0.1,3.7,0c1,0.1,1.7,0.2,2.3,0.4
		c0.3,0.2,0.6,0.2,0.8,0.3c0.2,0,0.3,0.1,0.4,0.2c0.1,0.1,0.2,0.2,0.4,0.3c0.2,0.1,0.3,0.2,0.5,0.4c0.2,0.2,0.3,0.6,0.5,1.1
		c0.1,0.5,0.1,0.8,0.1,1.1c0,0.3-0.1,0.5-0.2,0.6c-0.1,0.1-0.2,0.3-0.3,0.5c-0.1,0.2-0.2,0.4-0.3,0.5c-0.1,0.1-0.2,0.3-0.3,0.4
		c0,0.1-0.2,0.2-0.4,0.2c-0.2,0.4-0.5,0.6-0.9,0.7c-0.1,0.3-0.2,0.4-0.4,0.5c-0.2,0.1-0.3,0.2-0.5,0.4c-0.1,0.2-0.3,0.3-0.5,0.3
		c-0.2,0-0.4,0.2-0.8,0.5c-1.1,0.9-2.4,1.9-3.9,3c-1.5,1.1-2.5,1.8-3,2.2c-0.5,0.3-0.8,0.6-0.9,0.8c-0.1,0.2-0.3,0.3-0.7,0.5
		c-0.2,0.3-0.4,0.5-0.6,0.6c-0.2,0.1-0.4,0.3-0.5,0.5c-0.2,0.3-0.4,0.5-0.7,0.6c-0.3,0.1-0.7,0-1-0.4c-0.3-0.3-0.4-0.7-0.4-1
		c0.1-0.3,0.3-0.6,0.6-0.9c0.3-0.2,0.7-0.4,1-0.6c0.2-0.2,0.4-0.4,0.6-0.5c0.1-0.1,0.4-0.2,0.8-0.3c0.2-0.2,0.5-0.4,0.7-0.5
		c0.7-0.5,1.4-0.9,2-1.3c0.6-0.4,1.1-0.8,1.5-1c0.4-0.2,0.8-0.5,1.2-0.9c0.4-0.3,1-0.8,1.8-1.4c0.8-0.6,1.6-1.3,2.3-2.1
		c0.4-0.3,0.8-0.7,1.1-1.1c0.3-0.4,0.6-0.7,0.7-1c0.1-0.3,0-0.6-0.2-0.9c-0.2-0.3-0.3-0.4-0.4-0.4c-0.1,0-0.3-0.1-0.5-0.2
		c-0.3,0-0.6,0-0.6-0.1c-0.1-0.1-0.2-0.2-0.4-0.3c-0.2-0.1-0.4-0.1-0.5,0s-0.3,0-0.4-0.1c-0.1-0.1-0.3-0.1-0.6,0
		c-0.2,0.1-0.5,0-0.9-0.2c-0.3,0.1-0.5,0.1-0.8,0c-0.2,0.1-0.5,0.1-0.7,0.1c-0.2,0-0.5,0-0.7-0.1c-0.3,0.1-0.5,0.1-0.6,0.1
		c-0.1,0-0.2,0-0.4,0.1c-0.2,0.1-0.3,0.1-0.5,0.1c-0.2,0-0.3,0-0.5,0c-0.3,0-0.6,0.1-0.6,0.2C42.2,69.1,42,69.1,41.7,69.1z
		 M51.2,60.3c0.4,0.1,0.7,0.3,0.9,0.5c0.2,0.3,0.1,0.6,0,0.9c-0.2,0.3-0.4,0.5-0.8,0.5c-0.3,0-0.6-0.1-0.8-0.2
		c-0.2-0.1-0.5-0.3-0.9-0.3c-0.3,0.1-0.5,0.1-0.8,0c-0.2-0.1-0.4-0.1-0.6,0c-0.2,0-0.3,0-0.5-0.1c-0.4,0-0.6,0-0.8,0.1
		c-0.2,0-0.3,0-0.4-0.1c-0.1-0.1-0.2-0.1-0.3-0.1c-0.1,0.1-0.3,0.1-0.4,0.1c-0.1,0-0.2,0-0.4,0c-0.1,0-0.3,0-0.4-0.1
		c-0.1-0.1-0.5-0.1-1-0.1c-0.3,0.2-0.5,0.3-0.6,0.1c-0.1-0.1-0.2-0.1-0.4-0.1c-0.1,0.1-0.3,0.1-0.5,0.2c-0.2,0.1-0.4,0.1-0.6,0.1
		c-0.2,0-0.5,0-1-0.1c-0.3,0.2-0.6,0.2-1.1,0.1c-0.4,0.1-0.7,0.2-0.9,0.3c-0.5,0.3-0.8,0.4-1,0.5c-0.2,0.1-0.4,0.1-0.8,0
		c-0.4-0.1-0.6-0.4-0.6-0.9c0-0.5,0.2-0.9,0.6-1.1s1-0.4,1.6-0.4c0.7-0.1,1.4-0.1,2.1-0.2c0.8-0.1,1.9-0.1,3.3-0.2c1.1,0,2,0,2.9,0
		c0.3,0,0.5,0,0.8,0c1,0.1,1.7,0.1,2.1,0.2C50.5,60.1,50.9,60.2,51.2,60.3z"/>
	<path class="st0" d="M64.3,75.4c-0.9-0.3-1.5-0.7-1.9-1c-0.4-0.4-0.7-0.9-0.9-1.5c-0.2-0.6-0.4-1.2-0.6-1.8c-0.1-0.4-0.1-0.7-0.1-1
		s0-0.7,0.2-1.1c0.1-0.4,0.3-0.7,0.6-0.8c0.2-0.1,0.4-0.2,0.7-0.2c0.3,0.1,0.5,0.1,0.7,0.3c0.2,0.1,0.3,0.3,0.3,0.6
		c0,0.3-0.1,0.5-0.4,0.9c0,0.4,0,0.7-0.1,0.7c-0.1,0,0,0.1,0.1,0.3c0.1,0.1,0.1,0.3,0.1,0.5c0,0.2,0,0.4,0.1,0.8
		c0.2,0.3,0.3,0.5,0.4,0.7c0.1,0.2,0.3,0.4,0.5,0.7c0.3,0.1,0.6,0.3,1,0.5c0.3,0,0.8,0,1.4,0.2c0.3,0,0.5,0,0.8,0.1
		c0.2,0.1,0.4,0.2,0.5,0.5c0.1,0.2,0.1,0.5,0,0.7c-0.1,0.2-0.2,0.4-0.4,0.5c-0.2,0.1-0.3,0.2-0.5,0.1c-0.1,0-0.3,0-0.5,0
		c-0.2,0-0.3,0-0.5,0c-0.1,0-0.3-0.1-0.5-0.2C64.9,75.6,64.7,75.5,64.3,75.4z M73.9,78.2c-1,1.1-2.1,2.4-3.4,3.9
		c-0.4,0.6-0.9,1.2-1.5,2c-0.1,0.1-0.2,0.3-0.3,0.5c-0.1,0.2-0.3,0.4-0.4,0.5s-0.4,0.2-0.8,0.1c-0.3,0-0.5-0.2-0.7-0.5
		c-0.2-0.3-0.2-0.6-0.1-0.8c0.1-0.2,0.3-0.5,0.7-0.8c0.1-0.3,0.2-0.6,0.4-0.7c0.2-0.1,0.3-0.2,0.4-0.3c0.1-0.1,0.2-0.2,0.4-0.5
		c0.2-0.3,0.4-0.5,0.6-0.6c0.2-0.1,0.3-0.3,0.4-0.5c0.1-0.2,0.4-0.4,0.7-0.5c0.1-0.3,0.3-0.5,0.7-0.7c0.2-0.4,0.4-0.7,0.6-0.8
		c0.2-0.1,0.3-0.2,0.4-0.4c0.1-0.2,0.3-0.4,0.6-0.6c0.2-0.4,0.5-0.8,0.9-1.2c0.2-0.2,0.4-0.4,0.6-0.7c0.2-0.2,0.4-0.5,0.6-0.6
		c0.2-0.2,0.4-0.3,0.4-0.4c0.1-0.1,0.3-0.3,0.5-0.7c0.4-0.4,0.8-0.9,1.4-1.6s1.1-1.3,1.6-2c0.5-0.4,0.9-0.8,1.2-1.1
		c0.4-0.3,0.7-0.5,0.8-0.5c0.2-0.1,0.4-0.1,0.6,0c0.2,0.1,0.4,0.3,0.5,0.7c0.1,0.3,0.2,0.5,0.2,0.7c0,0.2-0.1,0.4-0.3,0.6
		s-0.5,0.3-1.1,0.4c-0.4,0.2-0.6,0.4-0.7,0.6c-0.1,0.2-0.3,0.3-0.7,0.5c-0.3,0.4-0.7,0.8-1.2,1.2c-0.5,0.5-1.2,1.2-2.1,2.2
		C75.2,76.8,74.5,77.6,73.9,78.2z M70.1,74.3c-0.2-0.1-0.4-0.2-0.5-0.4c-0.1-0.1-0.2-0.2-0.3-0.3c-0.1-0.1-0.2-0.2-0.3-0.4
		c-0.3-0.4-0.6-0.8-0.8-1.2c-0.2-0.4-0.2-1-0.1-1.9c0.3-0.9,0.7-1.4,1-1.4c0.3-0.1,0.6-0.1,0.8,0c0.3,0,0.5,0.2,0.6,0.4
		c0.2,0.3,0.2,0.5,0.1,0.7c-0.1,0.2-0.2,0.4-0.4,0.4c-0.2,0.1-0.3,0.3-0.5,0.6c0.1,0.4,0.2,0.7,0.4,0.9c0.1,0.2,0.2,0.4,0.4,0.5
		c0.1,0.1,0.3,0.2,0.4,0.3c0.1,0.1,0.3,0.2,0.6,0.4c0.2,0.1,0.4,0.1,0.5,0.2c0.2,0.1,0.2,0.3,0.3,0.6c0,0.3,0,0.5-0.2,0.7
		c-0.1,0.2-0.3,0.3-0.4,0.4C71.6,75,71.5,75,71.3,75c-0.2,0-0.4-0.1-0.7-0.2C70.4,74.7,70.2,74.6,70.1,74.3z"/>
	<path class="st0" d="M93.1,82.5c0.1,0.3,0.2,0.6,0.1,0.8s0,0.4,0.1,0.5c0.1,0.1,0.1,0.3,0.2,0.6c0.2,0.4,0.3,0.7,0.4,0.9
		c0.1,0.2,0.2,0.4,0.2,0.6c0,0.2-0.1,0.4-0.3,0.7C93.5,86.8,93.2,87,93,87c-0.3,0-0.5,0-0.6-0.1c-0.2-0.1-0.3-0.3-0.4-0.6
		c-0.1-0.3-0.2-0.7-0.3-1.1c-0.1-0.7-0.2-1.2-0.3-1.6c-0.1-0.4-0.1-0.9-0.1-1.3c0-0.5,0-1,0-1.5c0.2-1.4,0.3-2.5,0.4-3.2
		c0.1-0.7,0.3-1.8,0.5-3.2c0.1-0.3,0.2-1.3,0.5-2.8c-0.2-0.1-0.5-0.2-0.7-0.3c-0.2-0.1-0.3-0.3-0.3-0.6c0-0.3,0.1-0.5,0.2-0.6
		c0.1-0.2,0.5-0.3,1.1-0.5c0.1-0.4,0.1-0.7,0.2-0.9c0.1-0.4,0.2-0.9,0.2-1.6c-0.1-0.2,0-0.4,0.2-0.6c0.1-0.3,0.1-0.7,0.2-1
		c0.1-0.3,0.1-0.6,0.1-0.9c0.1-0.3,0.2-0.7,0.2-1c0-0.3,0.1-0.7,0.3-0.9c-0.1-0.5,0.1-0.9,0.3-1.2c0-0.3,0.1-0.7,0.1-1
		c0-0.3,0-0.5,0.1-0.6c0.1-0.1,0.2-0.4,0.3-0.9c0.1-0.3,0.2-0.7,0.3-1.1l0.2-1c0.2-0.5,0.3-0.8,0.4-1.1c0.1-0.3,0.3-0.5,0.4-0.5
		s0.4-0.1,0.7-0.1c0.3,0.1,0.6,0.2,0.8,0.4s0.3,0.4,0.2,0.9c-0.1,0.4-0.2,0.7-0.4,0.9c-0.2,0.1-0.3,0.3-0.4,0.4
		c0,0.2-0.1,0.3-0.2,0.5c0,0.2,0,0.4-0.1,0.5c-0.1,0.2-0.2,0.3-0.3,0.5c-0.1,0.2-0.1,0.4-0.1,0.5c0.1,0.2,0,0.4-0.2,0.6
		c-0.2,0.2-0.2,0.5-0.2,0.7c0,0.2,0,0.4-0.1,0.7c-0.1,0.2-0.2,0.4-0.3,0.6c-0.1,0.5-0.1,0.9-0.3,1.2c-0.1,0.7-0.3,1.2-0.4,1.5
		c-0.1,0.4-0.3,1-0.4,1.9c-0.2,0.9-0.3,1.8-0.5,2.6c1.2,0.1,2.1,0.2,2.6,0.2c0.6,0,1,0,1.3,0s0.9,0,1.6-0.1c0.8-0.1,2-0.2,3.7-0.4
		l1-0.2c0.5-0.1,0.8-0.1,1.1-0.2s0.5-0.2,0.8-0.3c0.2-0.1,0.5-0.1,0.7,0c0.2,0.1,0.5,0.3,0.6,0.4c0.2,0.2,0.2,0.4,0.1,0.7
		c-0.1,0.3-0.2,0.4-0.4,0.5c-0.1,0.1-0.3,0.2-0.5,0.2c-0.2,0.1-0.5,0.1-0.9,0.1c-0.3,0.2-0.6,0.3-0.7,0.3c-0.2,0-0.5,0-0.8-0.1
		c-0.5,0.3-1,0.3-1.2,0.2c-0.3,0.2-0.5,0.3-0.6,0.2c-0.1-0.1-0.3-0.1-0.5-0.1c-0.3,0.2-0.7,0.2-1.1,0.2c-0.4,0-0.7,0-0.8,0
		c-0.1,0-0.4,0-0.8,0c-0.3,0.1-0.7,0.1-1.2,0c-0.4,0.2-0.6,0.3-0.7,0.1c-0.1-0.1-0.2-0.1-0.4-0.1c-0.1,0.1-0.3,0.1-0.5,0.1
		s-0.4,0-0.7,0c-0.3,0-1,0-2.1,0c-0.1,0.4-0.1,0.7-0.1,0.8c0,0.2,0,0.3-0.1,0.3c-0.1,0.1-0.1,0.2-0.2,0.4c0,0.2-0.1,0.4-0.2,0.6
		s-0.1,0.3,0,0.5c0.1,0.2,0,0.6-0.3,1.2c-0.2,1.5-0.4,2.6-0.5,3.3c-0.1,0.7-0.1,1.3-0.1,1.7c0,0.4,0.1,0.8,0.1,1.2
		C93,81.8,93,82.2,93.1,82.5z"/>
	<path class="st0" d="M124.2,63.2c-0.2,0-0.5,0-0.7,0.1c-0.2,0.1-0.5,0.1-0.9-0.1c-0.2,0.1-0.5,0.2-0.9,0.2
		c-0.3,0.1-0.6,0.2-0.8,0.3c-0.2,0.1-0.4,0.1-0.6,0.1c-0.2,0-0.4,0.1-0.8,0.4c-0.3,0.1-0.5,0.2-0.7,0.3c-0.1,0.1-0.3,0.1-0.5,0
		c-0.2-0.1-0.4-0.2-0.5-0.3c-0.2-0.1-0.3-0.3-0.4-0.5c-0.1-0.2-0.2-0.4-0.1-0.6c0.1-0.2,0.2-0.4,0.3-0.6c0.1-0.2,0.4-0.3,1-0.4
		c0.8-0.1,1.8-0.2,2.9-0.3l1.9-0.2c0.6-0.1,1.2-0.2,1.7-0.2c0.2-0.1,0.4-0.2,0.6-0.2c0.2,0,0.4-0.1,0.5-0.2c0.4-0.4,0.8-0.8,1.2-1.2
		c0.4-0.4,0.9-0.7,1.6-1c0.2-0.1,0.5-0.2,0.7-0.2c0.3-0.1,0.4-0.1,0.6,0s0.3,0.1,0.6,0.1c0.3,0,0.6,0.1,0.8,0.2
		c0.3,0.1,0.4,0.3,0.5,0.6c0.1,0.3,0.1,0.6,0,0.9c-0.2,0.3-0.4,0.6-0.5,0.7c-0.2,0.1-0.4,0.2-0.8,0.2c-0.2,0.2-0.4,0.2-0.6,0.3
		c-0.1,0-0.4,0.1-0.7,0.2c-0.3,0.2-0.6,0.3-0.7,0.3c-0.2,0-0.3,0-0.4,0.1c-0.1,0.1-0.3,0.1-0.4,0.1c-0.1,0-0.2,0.1-0.3,0.2
		c-0.1,0.1-0.3,0.1-0.6,0.1c-0.2,0.1-0.4,0.2-0.5,0.2c-0.1,0.1-0.2,0.2-0.3,0.3c-0.1,0.2-0.2,0.3-0.4,0.3c-0.2,0-0.3,0.2-0.3,0.3
		c-0.1,0.2-0.2,0.3-0.4,0.4c-0.1,0.3-0.4,0.6-0.7,1c-0.4,0.4-0.7,0.8-1.1,1.4c-0.5,0.5-0.9,1.1-1.3,1.5c-0.4,0.5-0.7,0.9-0.8,1.1
		c-0.2,0.3-0.4,0.5-0.7,0.6c-0.2,0.3-0.4,0.5-0.7,0.8c-0.1,0.3-0.2,0.5-0.2,0.7c-0.1,0.2-0.2,0.3-0.3,0.3c-0.1,0-0.2,0.2-0.3,0.4
		s-0.2,0.6-0.6,0.8c-0.3,0.4-0.5,0.6-0.6,0.8c-0.1,0.2-0.3,0.5-0.5,1c-0.2,0.5-0.2,0.9-0.2,1.3c0.3,0.1,0.6,0.3,0.8,0.5
		c0.3,0,0.5,0.1,0.6,0.3c0.2,0.2,0.2,0.4,0.2,0.7c-0.1,0.2-0.2,0.4-0.4,0.6s-0.4,0.2-0.5,0.3c-0.2,0-0.4,0-0.6-0.1
		c-0.2-0.1-0.5-0.2-0.8-0.3c-0.3-0.3-0.5-0.5-0.7-0.6c-0.2-0.1-0.3-0.3-0.4-0.6c0-0.3,0-0.6,0-0.9c0-0.2,0-0.3,0-0.5
		c0-0.2,0.2-0.4,0.4-0.7c0.1-0.2,0.1-0.4,0.2-0.6c0.1-0.2,0.2-0.3,0.3-0.5c0.1-0.2,0.4-0.6,0.8-1.2c1.1-1.6,2.3-3.1,3.5-4.5
		C121.7,66.2,122.9,64.7,124.2,63.2z M135.5,71.3c-0.1,0.3-0.2,0.6-0.4,0.8c-0.1,0.2-0.3,0.4-0.4,0.6c0.1,0.4-0.1,0.8-0.3,1.1
		c0.1,0.4,0.1,0.7,0,0.9c-0.1,0.1-0.2,0.3-0.2,0.6c0,0.2-0.1,0.5-0.2,0.7c0,0.4-0.1,0.9-0.4,1.4c0.7,0.1,1.1,0.2,1.2,0.2
		c0.2,0,0.3,0,0.5,0c0.2,0.1,0.3,0.1,0.5,0.1c0.2,0,0.5,0,0.9,0c0.4,0,0.7,0,1.1,0.1c0.8,0,1.3,0,1.6,0.1c0.3,0.1,0.5,0.1,0.7,0.1
		s0.4,0.1,0.8,0.2c0.3,0,0.7,0,1.1,0c0.4,0,0.7,0.1,1,0.3c0.3,0.2,0.4,0.4,0.4,0.6c0,0.2,0,0.4-0.1,0.6c-0.1,0.2-0.3,0.3-0.4,0.4
		c-0.2,0.1-0.5,0.1-0.9,0.1c-0.4-0.1-0.8-0.1-1.2-0.2c-0.4-0.1-0.9-0.1-1.6-0.2c-0.2,0-0.4,0-0.6,0c-0.2-0.1-0.4-0.1-0.5,0
		c-0.1,0-0.3,0-0.6-0.1c-0.2-0.1-0.6-0.1-1.2-0.1c-0.2-0.1-0.5-0.1-0.7-0.1c-0.2,0-0.4,0-0.5-0.1c-0.1-0.1-0.2-0.1-0.4-0.1
		s-0.4,0.1-0.6,0c-0.2,0-0.5-0.1-0.8-0.1c-0.5,0.9-1,1.7-1.4,2.3c-0.4,0.7-0.9,1.3-1.4,1.9c-0.3,0.2-0.7,0.4-1.2,0.6
		c-0.4,0.2-0.9,0.3-1.3,0.2c-0.4,0-0.7-0.1-1-0.3c-0.4-0.2-0.7-0.4-0.9-0.7c-0.3-0.4-0.5-0.6-0.5-0.8c-0.1-0.2-0.1-0.5-0.2-0.9
		c-0.1-0.4-0.1-0.7-0.1-0.9s0.2-0.5,0.4-1c0.3-0.5,0.8-0.9,1.6-1.2c0.8-0.3,1.6-0.5,2.4-0.6c0.8-0.1,1.6-0.1,2.3-0.2
		c0.1-0.4,0.2-0.7,0.3-1.1c0.1-0.3,0.1-0.8,0.2-1.2c0.1-0.4,0.2-0.9,0.3-1.3c0.1-0.4,0.2-1.3,0.5-2.6c0.1-0.4,0.1-0.7,0.3-1
		c0.1-0.3,0.3-0.5,0.7-0.6c0.3-0.1,0.6-0.2,0.9-0.2s0.5,0.1,0.7,0.2c0.2,0.1,0.3,0.3,0.3,0.6c0,0.3-0.1,0.5-0.2,0.8
		C135.8,71.1,135.7,71.2,135.5,71.3z M127.5,80.2c-0.2,0.4-0.2,0.8-0.2,1.1s0.1,0.6,0.3,0.8c0.3,0.1,0.6,0.2,0.9,0.2
		c0.3,0,0.6-0.1,0.8-0.2c0.2-0.1,0.6-0.4,1-0.8c0.2-0.3,0.3-0.6,0.5-0.7c0.1-0.2,0.3-0.4,0.4-0.5c0.1-0.2,0.2-0.4,0.2-0.8
		c-0.3-0.1-0.6-0.1-0.8,0c-0.2,0.1-0.5,0.1-0.7,0.1c-0.2,0-0.4,0.1-0.6,0.2c-0.1,0.1-0.3,0.2-0.5,0.2c-0.2,0-0.4,0.1-0.5,0.2
		C128.1,79.8,127.8,80,127.5,80.2z M140.5,67c0.4,0.2,0.8,0.4,1.3,0.6c0.5,0.2,1,0.4,1.3,0.6c0.4,0.2,0.7,0.4,0.9,0.6
		c0.2,0.2,0.3,0.3,0.4,0.5c0.1,0.2,0,0.4-0.1,0.7c-0.1,0.3-0.3,0.5-0.5,0.6c-0.2,0.1-0.4,0.1-0.7,0c-0.3-0.1-0.6-0.3-1-0.6
		c-0.2-0.1-0.4-0.2-0.5-0.4c-0.1-0.2-0.3-0.2-0.5-0.2c-0.2,0-0.4-0.1-0.5-0.3c-0.3,0-0.6-0.1-1-0.4c-0.3-0.2-0.5-0.4-0.8-0.6
		c-0.2,0-0.4-0.1-0.6-0.2c-0.2-0.1-0.9-0.4-2-0.9c-0.4,0.1-0.6,0.2-0.7,0.2c-0.1,0.1-0.2,0.1-0.4,0.2c-0.2,0.1-0.4,0-0.7-0.1
		c-0.3-0.1-0.4-0.4-0.5-0.8c-0.1-0.4,0-0.7,0.2-0.9c0.2-0.2,0.5-0.4,0.8-0.5s0.7-0.2,1-0.1c0.3,0,0.7,0.1,1.1,0.3l1.3,0.4
		c0.2,0.1,0.3,0.2,0.5,0.3c0.2,0.1,0.3,0.2,0.5,0.3c0.2,0.1,0.4,0.2,0.6,0.3C140.1,66.7,140.3,66.9,140.5,67z"/>
	<path class="st0" d="M159.5,58.4c1.3,0,2.2,0,2.5,0c0.3,0,0.7,0.1,1.1,0.2c0.4,0,0.7,0.2,0.9,0.6c0.2,0.3,0.2,0.6,0.1,0.9
		c-0.1,0.3-0.4,0.4-0.7,0.4c-0.3,0.1-0.6,0.2-0.8,0.2c-0.2,0-0.5,0-0.7,0c-0.2,0-0.5,0-0.8-0.1c-0.3-0.1-0.4-0.4-0.4-0.8
		c-0.5-0.1-0.9-0.2-1.2-0.2c-0.3,0.1-0.6,0.1-0.8,0.1c-0.2,0-0.5,0-0.8,0c-0.2,0-0.5,0-0.9,0l-0.9,0.1c-0.3,0-0.6,0.1-1.1,0.2
		c-0.5,0.1-0.9,0.2-1.4,0.3c-0.5,0.1-1,0.2-1.5,0.4c-0.4,0.2-0.7,0.3-0.9,0.3c-0.2,0.1-0.3,0.1-0.5,0.2c-0.2,0.1-0.5,0.3-0.8,0.6
		c-0.4,0.4-0.7,0.6-1,0.5c-0.2-0.1-0.5-0.2-0.6-0.5c-0.2-0.3-0.1-0.7,0.2-1.2c0.3-0.4,0.7-0.6,1-0.7c0.4-0.1,0.9-0.2,1.7-0.4
		c0.8-0.2,1.9-0.5,3.5-0.7c1.5-0.2,2.6-0.4,3.1-0.4C158.4,58.4,158.9,58.4,159.5,58.4z M152.4,70.2c-0.1,0.6-0.2,1.1-0.3,1.4
		s-0.1,0.7-0.2,1.2c0.1,0.4,0.1,0.7,0.1,1c0,0.3,0,0.6,0.1,0.9c0.2,0.2,0.4,0.4,0.6,0.6c0.4,0.2,0.7,0.3,0.8,0.5s0.2,0.4,0.2,0.6
		s-0.1,0.4-0.4,0.6c-0.3,0.2-0.5,0.3-0.6,0.2c-0.2,0-0.4-0.1-0.7-0.3s-0.6-0.4-0.9-0.8c-0.3-0.4-0.5-1-0.5-1.7c-0.1-0.7-0.1-1.4,0-2
		c0.1-0.6,0.2-1.2,0.4-1.8c0.2-1.3,0.5-2.7,0.9-4.1c0.4-1.4,0.8-2.8,1.2-4.1c0.2-0.4,0.4-0.7,0.5-0.8c0.2-0.1,0.4-0.1,0.6-0.1
		c0.2,0.1,0.4,0.2,0.6,0.3c0.2,0.1,0.3,0.3,0.3,0.6s-0.1,0.6-0.2,1.2c-0.4,0.5-0.7,1-0.7,1.3c-0.1,0.3-0.2,0.7-0.4,1
		c-0.1,0.4-0.2,0.7-0.2,1.1c0.4-0.1,0.7-0.2,1.1-0.4c0.4-0.1,0.9-0.2,1.7-0.3c0.7-0.1,1.4-0.2,1.9-0.2c0.5,0,1,0,1.4,0.1
		c0-1.2,0.1-2.2,0.2-2.9c0-0.5,0-0.8,0.1-1c0.1-0.2,0.3-0.3,0.5-0.3s0.4,0,0.6,0.1c0.2,0.1,0.3,0.2,0.4,0.4c0.1,0.2,0.2,0.4,0.3,0.5
		c0.1,0.2,0.1,0.4,0.1,0.5c-0.1,0.2-0.1,0.5-0.3,1c-0.1,0.3-0.1,0.7-0.2,1.2c-0.1,0.5-0.2,1.1-0.2,1.8c-0.1,0.7-0.1,1.1-0.1,1.3
		c0,0.2,0,0.6,0,1.2c0.2,0.2,0.3,0.6,0.3,1c0,0.5-0.2,0.8-0.5,0.8c-0.1,0.6-0.2,1.3-0.2,2c-0.1,0.7-0.1,1.3-0.2,1.7
		c0.2-0.1,0.4-0.1,0.7-0.2c0.3-0.1,0.6-0.1,0.7,0.1c0.2,0.2,0.3,0.4,0.4,0.8c0.1,0.4-0.2,0.6-0.8,0.7c-0.4,0.1-0.8,0.1-1,0.2
		c-0.2,1-0.3,1.8-0.3,2.3c-0.1,0.5-0.1,0.8-0.2,0.9c-0.1,0.1-0.1,0.3,0,0.5c0.1,0.2,0,0.5-0.2,0.8c-0.1,0.4-0.1,0.7-0.1,1.1
		c-0.2,0.6-0.3,1.1-0.5,1.6c-0.2,0.7-0.4,1.3-0.5,1.7c-0.2,0.4-0.6,0.6-1.4,0.5c-0.5-0.2-0.9-0.4-1.1-0.6c-0.2-0.2-0.2-0.5-0.1-0.9
		s0.3-0.6,0.5-0.7c0.2,0,0.6-0.1,1-0.2c0.3-0.5,0.5-1.1,0.5-1.6c0.1-0.5,0.2-1.1,0.3-1.6c0.1-0.5,0.2-1.1,0.3-1.6
		c0.1-0.6,0.2-1.2,0.3-1.9c-0.5,0.2-0.9,0.2-1.4,0.3c-0.4,0.1-0.8,0.2-1,0.4c-0.2,0.1-0.5,0.1-0.8,0.1c-0.2,0.2-0.5,0.3-0.7,0.4
		c-0.2,0.1-0.6,0.3-1.2,0.4c-0.2,0.2-0.4,0.3-0.7,0.2c-0.3,0.1-0.6,0.2-0.8,0.4c-0.2,0.2-0.4,0.3-0.5,0.3c-0.1,0.1-0.3,0.1-0.5,0.2
		c0.2,0.4,0.3,0.7,0.3,0.9s-0.1,0.4-0.4,0.5s-0.8,0.2-1.6,0.3c-0.4-0.2-0.7-0.4-0.9-0.6c-0.2-0.2-0.2-0.5-0.1-0.8
		c0.1-0.3,0.3-0.6,0.5-0.9c0.3-0.3,0.8-0.5,1.3-0.8c0.6-0.2,1.6-0.6,3.2-1.2c1.6-0.6,2.6-0.9,3.2-1.1c0.7-0.3,1.4-0.5,2.1-0.6
		c0.2-1.1,0.3-1.9,0.3-2.5c0-0.3,0-0.9,0-1.7c-0.4,0-0.7,0-1,0c-0.3,0-1.2,0.2-2.5,0.6c-0.5,0.2-0.9,0.4-1.3,0.6
		c-0.4,0.2-0.8,0.2-1,0.1c-0.3-0.1-0.4-0.3-0.5-0.7c-0.1-0.4,0-0.7,0.1-0.8c0.2-0.2,0.5-0.4,0.9-0.5c0.4-0.1,1.1-0.2,1.9-0.3
		c1.1-0.3,2.3-0.5,3.5-0.7c0.1-0.5,0.1-0.9,0.1-1.1c0-0.2,0-0.6,0-1.2c-0.2,0.1-0.5,0.2-0.8,0.2c-0.3,0-0.6,0-0.8-0.1
		c-0.2-0.1-0.6-0.1-1.1,0.1c-0.5,0.1-0.9,0.2-1.1,0.3c-0.3,0.1-0.6,0.2-0.9,0.3c-0.3,0.2-0.5,0.3-0.8,0.3s-0.6-0.1-1-0.4
		c-0.1,0.4-0.2,0.7-0.3,1.1C152.6,69.5,152.5,69.9,152.4,70.2z M182.7,85.3c0.3,0.2,0.4,0.4,0.5,0.6c0.1,0.2,0.2,0.4,0.4,0.5
		c0.2,0.2,0.4,0.1,0.6-0.2c0.2-0.4,0.4-0.8,0.5-1.1c0.1-0.3,0.2-0.6,0.3-1c0.1-0.3,0.2-0.6,0.2-0.9c0-0.2,0.1-0.6,0.3-1.1
		c0.1-0.5,0.1-1,0.2-1.4c0.1-0.5,0.1-0.9,0.2-1.2c0-0.3,0.2-0.5,0.4-0.8c0.2-0.2,0.6-0.3,0.9-0.1c0.4,0.1,0.5,0.4,0.5,0.7
		c0,0.3-0.1,0.7-0.2,1c-0.1,0.7-0.2,1.4-0.4,1.9s-0.3,1.1-0.4,1.5c-0.1,0.5-0.3,1-0.5,1.5c-0.2,0.5-0.4,1-0.7,1.4
		c-0.3,0.5-0.5,0.7-0.9,0.8c-0.3,0.1-0.5,0.1-0.8,0.1c-0.3,0-0.6-0.2-1-0.7c-0.4-0.4-0.7-0.9-1-1.3c-0.3-0.5-0.5-1.1-0.8-1.9
		c-0.3-0.8-0.6-1.8-1-3.2c-0.7,0.8-1.1,1.3-1.5,1.7c-0.4,0.4-0.9,1-1.7,1.9c-0.8,0.9-1.4,1.6-1.9,2.1c-0.5,0.5-1,1-1.6,1.7
		c-0.6,0.4-1,0.3-1.3-0.1c-0.3-0.4-0.3-0.8-0.1-1c0.2-0.3,0.3-0.5,0.5-0.6c0.1-0.1,0.3-0.3,0.5-0.4c0.2-0.1,0.5-0.3,0.7-0.5
		c0.2-0.2,0.6-0.6,1.2-1.1c0.5-0.5,0.9-0.9,1.1-1.1c0.2-0.2,0.4-0.4,0.7-0.5c0.1-0.4,0.4-0.6,0.7-0.7c0.1-0.3,0.3-0.6,0.6-0.9
		c0.3-0.2,0.5-0.5,0.8-0.8c0.2-0.2,0.5-0.6,0.9-1.1c-0.1-0.4-0.2-1-0.3-1.8c-0.2-1.2-0.4-2.5-0.6-3.9c-0.2-1.1-0.3-2.1-0.3-2.9
		c-0.6,0-1.1,0-1.4,0s-1,0-1.9,0.1c-0.9,0-2.3,0.2-4.1,0.4c-0.5,0.5-0.9,0.8-1.2,0.9c-0.3,0.1-0.7-0.1-1.2-0.3
		c-0.8,0.2-1.3,0.3-1.6,0.4c-0.2,0.1-0.4,0.2-0.6,0.3c-0.2,0-0.5,0.1-0.6,0.2c-0.5,0.2-0.9,0.3-1.2,0.5c-0.3,0.1-0.6,0.3-0.9,0.4
		c-0.3,0.4-0.7,0.6-1.1,0.7s-0.7-0.1-0.9-0.7c-0.2-0.5-0.1-0.9,0.4-1.2c0.5-0.2,1-0.4,1.7-0.5c0.5-0.2,0.8-0.3,1.1-0.3
		c0.3-0.1,0.6-0.1,1.1-0.3c-0.4-0.6-0.6-1.1-0.7-1.5c-0.1-0.4-0.2-0.9-0.2-1.4c0-0.5,0.1-1.2,0.3-2.1c0.2-0.5,0.3-0.8,0.5-1.1
		c0.2-0.2,0.3-0.3,0.6-0.4c0.2-0.1,0.4-0.1,0.7-0.1c0.2,0,0.4,0.1,0.7,0.4c0.2,0.3,0.3,0.5,0.1,0.7s-0.3,0.4-0.5,0.6
		c-0.2,0.2-0.3,0.4-0.5,0.7c-0.2,0.3-0.3,0.7-0.3,1.1c0,0.5,0.1,0.9,0.3,1.3c0.2,0.4,0.6,0.9,1,1.4c0.2-0.1,0.4-0.2,0.5-0.2
		c0.1,0,0.4-0.1,0.8-0.2c0.6-0.8,1-1.2,1.2-1.4c0.2-0.2,0.3-0.4,0.4-0.6s0.2-0.3,0.3-0.4c0.1-0.1,0.2-0.2,0.2-0.4
		c0.1-0.1,0.1-0.3,0.2-0.5c0.1-0.2,0.3-0.4,0.6-0.7c0.1-0.3,0.1-0.5,0.2-0.7c0.1-0.2,0.2-0.4,0.4-0.6c0-0.5,0.2-0.9,0.5-1.1
		c0.3-0.2,0.7-0.1,1.1,0.2c0.4,0.4,0.4,0.8,0.1,1.2c-0.3,0.4-0.5,0.7-0.7,1.1s-0.5,0.8-0.7,1.2c-0.2,0.4-0.5,0.8-0.7,1.2
		s-0.5,0.8-0.8,1.2c1.4-0.1,2.6-0.2,3.5-0.3c0.9-0.1,2-0.1,3.4-0.1c0-0.5-0.1-0.8-0.1-1.1c-0.1-0.4-0.1-0.8,0-1.3
		c-0.2-1.8-0.3-4-0.4-6.4c0-0.3,0-0.6-0.1-0.9c-0.1-0.3-0.1-0.6-0.1-1c0-0.4,0.1-0.7,0.2-0.9c0.1-0.2,0.2-0.4,0.3-0.6
		c0.1-0.2,0.3-0.3,0.6-0.3c0.3,0,0.6,0.1,0.8,0.2s0.4,0.3,0.4,0.5c0,0.2,0,0.5,0,0.9c-0.2,0.5-0.3,1.1-0.2,1.6s0,1,0,1.5
		c0,0.5-0.1,0.9-0.2,1.2c0.1,0.5,0.2,0.8,0.1,1c-0.1,0.2-0.1,0.3,0,0.5c0.1,0.2,0,0.3-0.2,0.5c0.1,0.4,0.1,0.7,0.1,1.1
		c0,0.3,0,0.7,0.1,1.2s0.1,0.8,0.1,1.1c0,0.3,0.1,0.7,0.1,1.3c0.6,0,1.2,0,1.6,0.1c0.4,0,0.8,0.1,1.1,0.1c0.3,0,0.8,0.1,1.5,0.2
		c0.3,0.1,0.6,0.1,0.9,0.2c0.3,0,0.6,0.2,1,0.4c0.4,0.3,0.6,0.5,0.6,0.7c0.1,0.2,0,0.4-0.1,0.6c-0.1,0.2-0.2,0.4-0.5,0.4
		c-0.2,0.1-0.4,0.1-0.6,0.2c-0.2,0-0.4,0-0.6-0.1c-0.2-0.1-0.4-0.4-0.5-0.8c-0.5-0.2-0.8-0.3-1.1-0.3c-0.3,0-0.5,0-0.8-0.1
		c-0.3-0.1-0.6-0.1-1.1-0.2c-0.4-0.1-0.9-0.1-1.4-0.1c0,1.2,0.1,2,0.1,2.5c0.1,0.5,0.1,1,0.2,1.5c0.1,0.5,0.1,1.1,0.2,1.8
		c0.1,0.7,0.1,1.2,0.2,1.6c0.3-0.4,0.4-0.6,0.5-0.8c0.2-0.4,0.3-0.7,0.4-0.8c0.1-0.1,0.3-0.4,0.4-0.9c0.2-0.3,0.4-0.6,0.4-1
		c0-0.4,0.1-0.7,0.3-1c0.2-0.3,0.4-0.4,0.7-0.5c0.3,0,0.5,0.1,0.7,0.3c0.2,0.2,0.3,0.5,0.4,0.9c0.1,0.3,0,0.6-0.1,0.8
		c-0.1,0.2-0.3,0.5-0.5,0.7c-0.2,0.3-0.4,0.7-0.6,1c-0.2,0.3-0.4,0.6-0.7,0.9c-0.2,0.3-0.4,0.7-0.8,1c-0.2,0.2-0.4,0.5-0.7,0.9
		c0.2,0.9,0.3,1.5,0.4,2c0.1,0.4,0.3,0.9,0.5,1.5c0.2,0.5,0.4,1,0.5,1.3C182.4,84.7,182.5,85,182.7,85.3z M163.8,62.8
		c0.7-0.2,1.2-0.4,1.7-0.5c0.4-0.1,1-0.2,1.9-0.3c0.1-0.6,0.3-1,0.6-1.2c0.1-0.3,0.3-0.6,0.4-0.8c0.1-0.2,0.3-0.5,0.5-0.7
		c0.2-0.4,0.4-0.8,0.4-1c0.1-0.2,0.1-0.4,0.2-0.6c0-0.2,0-0.4-0.1-0.7c-0.1-0.3-0.2-0.6-0.2-0.8c-0.1-0.3,0-0.5,0.3-0.7
		c0.2-0.1,0.4-0.2,0.6-0.2c0.5,0.1,0.8,0.2,0.9,0.6c0.1,0.3,0.2,0.6,0.3,0.9c0,0.2,0.1,0.5,0.1,0.7c0,0.2-0.1,0.7-0.4,1.4
		c-0.1,0.3-0.2,0.6-0.3,0.8c-0.1,0.2-0.2,0.4-0.3,0.6c-0.1,0.2-0.1,0.4-0.2,0.6s-0.2,0.5-0.4,1c0.5-0.1,1-0.1,1.4-0.1
		c0.4,0,1.1,0,2,0c0.6,0.1,1.2,0.1,1.7,0.2c0.5,0.1,0.9,0.2,1.2,0.3c0.3,0.1,0.5,0.4,0.5,0.7c0,0.3-0.1,0.6-0.4,0.8
		c-0.4,0.2-0.8,0.3-1.2,0.3c-0.3,0-0.6,0-0.7-0.1c-0.2-0.1-0.3-0.3-0.4-0.6c-0.2-0.1-0.5-0.1-0.8-0.1c-0.3,0-0.7,0-1,0
		c-0.3,0-0.7,0-1.2,0c-0.3,0.1-0.6,0.1-0.8,0.1s-0.4,0-0.5,0c-0.1,0-0.3,0-0.5,0.1c-0.2,0.1-0.5,0.1-0.9,0c-0.7,0.2-1.1,0.3-1.2,0.3
		c-0.2,0.1-0.5,0.2-0.9,0.3c-0.4,0.1-0.9,0.3-1.2,0.6c-0.3,0.2-0.6,0.2-0.8,0.2c-0.3-0.1-0.5-0.2-0.6-0.5c-0.1-0.2-0.1-0.5,0-0.7
		C163.3,63.1,163.5,62.9,163.8,62.8z M165.1,73.9c0.2-0.4,0.4-0.6,0.6-0.8c0.2-0.2,0.5-0.2,0.8-0.1c0.3,0.1,0.5,0.3,0.5,0.6
		s0,0.5-0.1,0.7c-0.1,0.1-0.3,0.3-0.5,0.6c-0.2,0.3-0.3,0.5-0.3,0.7c0,0.2-0.1,0.4-0.3,0.5c-0.1,0.4-0.1,0.7-0.1,0.9
		c0,0.2-0.1,0.3-0.1,0.5c-0.1,0.1-0.1,0.3-0.1,0.4c0,0.1,0,0.4-0.2,0.8c0,0.3,0,0.7-0.1,1c-0.1,0.4-0.1,0.8-0.1,1c0,0.2,0,0.5,0,0.8
		s0,0.6,0,0.9c0,0.3,0.2,0.5,0.7,0.6c0.4,0,0.7-0.1,0.9-0.1c0.2-0.1,0.4-0.1,0.7-0.1c0.3,0,0.6,0,0.9,0c0.2-0.2,0.6-0.2,1.1-0.2
		c0.3-0.1,0.6-0.2,0.7-0.2c0.2,0,0.3,0,0.5,0c0.2,0,0.4,0,0.6,0s0.5-0.1,0.8-0.1c0.3-0.5,0.5-0.9,0.6-1.3c0.1-0.4,0.2-0.9,0.4-1.6
		c0.1-0.7,0.2-1.3,0.3-1.8c0.1-0.5,0.1-0.9,0-1.1c0-0.2-0.1-0.4-0.2-0.8c-0.2-0.3-0.4-0.4-0.6-0.4c-0.2,0-0.4,0-0.6,0
		c-0.2-0.1-0.4-0.1-0.8-0.1c-0.3,0.2-0.6,0.2-1.1,0.3c-0.2,0.2-0.5,0.4-0.8,0.4c-0.3,0.1-0.5,0.2-0.7,0.3c0,0.4-0.1,0.7-0.4,0.8
		c-0.3,0.2-0.6,0.2-1,0c-0.4-0.2-0.6-0.5-0.5-1c0.2-0.6,0.5-1,0.8-1.2c0.3-0.2,0.6-0.3,1-0.4c0.3-0.1,0.7-0.2,1.1-0.3
		c0.4-0.1,0.9-0.1,1.6-0.3c0.7-0.1,1.3-0.1,1.7-0.1c0.5,0.1,0.8,0.2,1.2,0.4c0.3,0.2,0.5,0.5,0.6,0.8c0.1,0.3,0.2,0.8,0.3,1.4
		c0,0.3,0,0.7-0.1,1.1c0.1,0.3,0,0.5-0.1,0.7c-0.1,0.2-0.2,0.4-0.1,0.6c0,0.2-0.1,0.4-0.2,0.6c0,0.4-0.1,0.8-0.1,1
		c-0.1,0.2-0.2,0.5-0.3,0.8c-0.1,0.3-0.2,0.6-0.2,0.8c0,0.2-0.2,0.6-0.4,1.1c0,0.4-0.1,0.8-0.3,1c-0.2,0.3-0.4,0.4-0.6,0.4
		c-0.2,0-0.5,0-0.9-0.1c-0.4-0.1-0.5-0.4-0.5-0.9c-1.2,0.2-2.1,0.3-2.6,0.4c-0.5,0.1-1.1,0.2-1.7,0.3c-0.3,0.3-0.6,0.5-1,0.6
		s-0.8,0-1.1-0.4c-0.4-0.3-0.6-0.7-0.7-1.2c-0.1-0.4-0.2-0.9-0.2-1.4c0-0.5,0-1.3,0.1-2.3C164.1,77.6,164.5,75.6,165.1,73.9z
		 M171.1,80c-0.2-0.1-0.4-0.2-0.5-0.2s-0.3,0-0.6,0c-0.3,0-0.5,0-0.9,0.1c-0.3,0-0.5,0.1-0.7,0.1c-0.2,0.1-0.4,0.2-0.7,0.3
		c-0.1,0.4-0.2,0.6-0.3,0.8c-0.1,0.2-0.4,0.2-0.9,0.1s-0.7-0.4-0.7-0.8c0-0.4,0.1-0.7,0.3-1c0.2-0.2,0.5-0.4,1-0.6
		c0.3-0.1,0.5-0.1,0.8-0.2c0.5-0.1,0.9-0.2,1.1-0.2c0.2,0,0.6-0.1,1.1-0.2c0.5-0.1,0.9-0.1,1.3,0.1c0.4,0,0.6,0.1,0.7,0.3
		c0.1,0.2,0.2,0.4,0.3,0.5c0.1,0.1,0.1,0.3,0.1,0.5s-0.2,0.4-0.5,0.5C171.7,80.3,171.4,80.3,171.1,80z M181.8,61.3
		c-0.3-0.2-0.4-0.5-0.5-0.8c0-0.3,0.1-0.6,0.4-0.8c0.3-0.2,0.6-0.3,0.8-0.2c0.3,0.1,0.5,0.3,0.7,0.7c0.2,0.3,0.4,0.6,0.4,0.8
		c0.1,0.2,0.2,0.4,0.4,0.7c0.4,0.1,0.6,0.4,0.7,0.9c0.3,0,0.5,0.2,0.6,0.4c0.1,0.2,0.3,0.4,0.6,0.6c0.2,0.2,0.4,0.4,0.5,0.7
		c0.2,0.2,0.1,0.6-0.1,0.9c-0.2,0.4-0.5,0.5-0.9,0.5c-0.4-0.1-0.7-0.3-0.9-0.8c-0.5-0.7-1-1.3-1.5-1.9
		C182.8,62.4,182.3,61.8,181.8,61.3z"/>
	<path class="st0" d="M204.8,75.7c-0.3,0-0.6,0-0.8,0.1c-0.2,0.1-0.4,0.1-0.5,0.1c-0.2,0.2-0.4,0.2-0.5,0.3c-0.1,0-0.4,0-0.7-0.1
		c-0.4,0.4-0.9,0.6-1.2,0.6c-0.3-0.1-0.5-0.1-0.7,0c-0.1,0.1-0.3,0.2-0.6,0.3c-0.4,0.3-0.8,0.4-1.1,0.4c-0.3,0.1-0.6,0.1-0.9,0.2
		c-0.2,0.1-0.5,0.1-0.7,0.1c-0.5,0.1-0.8,0.2-0.9,0.3c-0.1,0.1-0.2,0.1-0.4,0c-0.3,0.3-0.7,0.4-1,0.4c-0.1,0.2-0.2,0.2-0.3,0.2
		c-0.1,0-0.4,0-0.7,0.2c-0.3,0.1-0.6,0.3-0.8,0.5c-0.2,0.1-0.6,0.3-1,0.5c-0.6,0.6-1.1,0.8-1.4,0.8c-0.4-0.1-0.6-0.3-0.7-0.6
		c-0.1-0.4-0.1-0.6,0-0.8c0.1-0.2,0.2-0.4,0.4-0.6c0.2-0.2,0.4-0.3,0.7-0.4c0.3-0.1,0.6-0.2,1-0.3c0.4-0.1,0.7-0.2,0.9-0.3
		c0.2-0.1,0.8-0.3,1.8-0.7c0-0.3,0-0.6,0.2-0.8c0.2-0.3,0.3-0.5,0.5-0.8c0.2-0.3,0.4-0.9,0.7-1.8c0.2-0.9,0.4-1.7,0.5-2.3
		c0.1-0.6,0.3-1.7,0.4-3.2c-0.4,0-0.6,0.1-0.8,0.2c-0.1,0.1-0.4,0.2-0.7,0.1c-0.4,0.2-0.7,0.2-0.9,0.2c-0.2,0-0.4,0-0.4,0.2
		c-0.1,0.1-0.2,0.2-0.5,0.1c-0.2,0.1-0.5,0.2-0.8,0.3c-0.1,0.4-0.2,0.7-0.3,0.8c-0.1,0.1-0.2,0.2-0.3,0.3c-0.2,0.1-0.4,0.1-0.7,0
		c-0.3-0.1-0.6-0.4-0.8-0.9c-0.2-0.5-0.1-0.9,0.4-1.2c0.9-0.4,1.7-0.7,2.6-0.9c0.8-0.2,1.5-0.3,2-0.4c0.5-0.1,1-0.2,1.4-0.3
		c0-0.9,0-1.5,0-1.7c0-0.2,0-0.5,0-1c-0.1-0.5-0.1-1-0.2-1.5c-0.3-0.4-0.3-0.7-0.1-1c0.2-0.3,0.4-0.4,0.7-0.5s0.5,0,0.7,0.1
		c0.2,0.1,0.4,0.3,0.5,0.6s0.1,0.5,0.2,0.7c0.1,0.2,0,0.5-0.1,0.8c-0.1,0.5-0.1,0.9-0.1,1.1c0,0.2,0,1,0,2.2c0.4-0.1,0.7-0.1,1-0.1
		c0.3,0,0.6-0.1,1-0.2c0.2-0.1,0.4-0.1,0.6-0.1s0.4,0,0.6,0c0.2,0,0.4,0,0.6,0.1c0.2,0.1,0.4,0.3,0.5,0.6c0.1,0.3,0.1,0.5,0.1,0.7
		s-0.1,0.3-0.3,0.4c-0.2,0.1-0.6,0.1-1.2,0c-0.2,0.1-0.3,0.1-0.5,0.1s-0.3-0.1-0.6-0.1c-0.2,0-0.4,0-0.7,0c-0.2,0-0.6,0.1-1.3,0.1
		c-0.2,1.8-0.4,3-0.5,3.8c-0.1,0.7-0.3,1.4-0.4,2.1c-0.2,0.6-0.3,1.1-0.4,1.5s-0.3,0.8-0.4,1.2c1.8-0.5,3.4-0.9,4.9-1.4
		c1.5-0.4,2.6-0.8,3.3-0.9c0.4-0.2,0.7,0,0.8,0.5c0.1,0.5,0.1,0.8-0.1,0.9C205.4,75.4,205.2,75.6,204.8,75.7z M207,72.6
		c-0.3,0.4-0.6,0.7-1,0.7s-0.6,0-0.8-0.1c-0.2-0.1-0.3-0.2-0.5-0.4c-0.1-0.2-0.1-0.5,0-0.8c0.2-0.3,0.4-0.6,0.7-0.7
		c0.2,0,0.4-0.1,0.6-0.2c0.2-0.1,0.4-0.2,0.7-0.2s0.6-0.1,0.9-0.1c0.3-0.1,0.9-0.1,1.7-0.2c0.8-0.1,1.3-0.2,1.7-0.4
		c0.3,0,0.6-0.1,0.8-0.1c0.2-0.1,0.6-0.1,1.2-0.1c0.3,0,0.6-0.1,1-0.1s0.8,0,1.4,0c0.2-0.1,0.4-0.1,0.6-0.1s0.4,0,0.6,0.1
		c0.2-0.1,0.4-0.1,0.6,0c0.4-0.2,0.7-0.2,0.9,0c0.5-0.1,1.3-0.2,2.3-0.2c1,0,2,0,3.1,0.1c0.4,0,0.7,0,0.9,0.1
		c0.1,0.1,0.3,0.1,0.5,0.1c0.2,0,0.4,0.1,0.6,0.2c0.2,0.1,0.4,0.3,0.5,0.7c0.1,0.4,0.1,0.6,0,0.8c-0.1,0.2-0.2,0.3-0.4,0.4
		c-0.1,0.1-0.4,0.1-0.7,0c-0.4,0.1-0.8,0.2-1.1,0.3c-0.3,0.1-0.5,0.1-0.6,0c-0.1-0.1-0.2-0.3-0.4-0.4c-0.1-0.1-0.3-0.4-0.3-0.8
		c-1.6-0.2-3.1-0.3-4.7-0.2c-0.7,0.1-1.7,0.1-3,0.1c0.1,0.6,0,1-0.3,1.2c-0.3,0.2-0.6,0.3-0.8,0.3c-0.2,0-0.4,0.1-0.7,0.3
		c-0.5,0.3-0.8,0.6-0.9,0.7c-0.1,0.2-0.3,0.3-0.4,0.4c-0.3,0.1-0.5,0.2-0.6,0.4c-0.1,0.2-0.2,0.3-0.4,0.3c-0.2,0-0.3,0.2-0.5,0.4
		c-0.3,0.2-0.5,0.4-0.7,0.5c-0.2,0.3-0.6,0.6-1.1,0.8c0,0.3-0.2,0.5-0.4,0.7c-0.3,0.2-0.5,0.4-0.7,0.6s-0.4,0.4-0.6,0.6
		c-0.2,0.2-0.6,0.6-1.2,1.1c-0.6,0.5-1,1.1-1.3,1.7c-0.2,0.6-0.4,1-0.6,1.2c-0.2,0.2-0.5,0.3-0.7,0.4s-0.5,0-0.7-0.2
		c-0.3-0.1-0.4-0.3-0.5-0.4c-0.1-0.1-0.1-0.4,0-0.7c0.1-0.2,0.2-0.3,0.3-0.5c0.1-0.1,0.5-0.5,1.1-1.2c0.6-0.6,1.8-1.7,3.4-3.3
		s2.9-2.6,3.5-3.2c0.7-0.6,1.2-1.1,1.7-1.6C209.1,71.7,207.6,72.2,207,72.6z M222.7,75.3c0.3,0,0.5,0.1,0.7,0.2
		c0.1,0.1,0.3,0.2,0.5,0.2c0.4,0.2,0.8,0.4,1,0.8c0.2,0.4,0.4,0.9,0.3,1.4c0,0.5-0.2,1.1-0.4,1.8c-0.3,0.7-0.6,1.2-1,1.6
		c-0.4,0.4-0.6,0.8-0.9,1.1c-0.2,0.3-0.6,0.8-1.1,1.4c-0.5,0.6-0.9,1-1.1,1.2c-0.2,0.2-0.5,0.4-0.9,0.6c-0.2,0.1-0.3,0.3-0.5,0.5
		c-0.2,0.2-0.4,0.4-0.7,0.5c-0.6,0.4-1.2,0.8-1.7,1.1s-1.1,0.4-1.8,0.3c-0.7-0.1-1.2-0.3-1.5-0.7c-0.3-0.4-0.5-0.8-0.7-1.1
		c-0.2-0.4-0.5-0.9-0.9-1.6c-0.2,0.3-0.4,0.6-0.7,0.8c-0.3,0.2-0.5,0.2-0.8,0.1c-0.3-0.1-0.5-0.3-0.5-0.6s0.1-0.6,0.4-1
		c0.3-0.3,0.7-0.7,1.3-1.2c0.2-0.2,0.4-0.3,0.5-0.5c0.2-0.2,0.4-0.4,0.8-0.7c0.1-0.3,0.3-0.4,0.5-0.5c0.3-0.4,0.9-1.1,1.7-2
		c0.8-0.9,1.5-1.8,2.1-2.6c-1.2,0-2,0.2-2.5,0.5c-0.3,0.2-0.5,0.4-0.5,0.5s-0.3,0.3-0.7,0.5c-0.3,0.2-0.6,0.4-0.9,0.7
		c-0.3,0.3-0.5,0.5-0.7,0.7c-0.2,0.2-0.4,0.4-0.6,0.6c-0.2,0.2-0.5,0.6-1,1c-0.5,0.5-0.8,0.9-1,1.2s-0.5,0.7-0.9,1
		c-0.3,0.3-0.5,0.5-0.8,0.6c-0.2,0.1-0.5,0-0.7-0.2s-0.4-0.4-0.4-0.6c-0.1-0.2,0.1-0.6,0.4-1.1c1.6-1.3,3-2.6,4.1-3.9
		c-0.4,0.2-0.7,0.3-0.9,0.3c-0.2,0-0.4-0.2-0.5-0.5c-0.1-0.3-0.2-0.6,0-0.7c0.1-0.1,0.3-0.3,0.4-0.5c0.2-0.2,0.5-0.4,1.1-0.5
		c0.3-0.1,0.6-0.2,0.9-0.3c0.2-0.1,0.5-0.1,0.7-0.1c0.4-0.2,0.7-0.3,0.9-0.3c0.2,0,0.3,0,0.5-0.1c0.6-0.1,1-0.2,1.2-0.3
		c0.2,0,1-0.1,2.4-0.2c1.4-0.1,2.4-0.1,3,0C221.4,75.1,222.1,75.2,222.7,75.3z M209.2,62c0.1,0.3,0.1,0.6,0,0.9
		c-0.1,0.3-0.1,0.6-0.1,0.7c0,0.2,0.1,0.6,0.3,1.4c0.1,0.5,0.2,0.7,0.3,0.8c0.1,0.1,0.3,0.3,0.5,0.8c0.2-0.3,0.4-0.5,0.7-0.5
		c0.4-0.1,0.7-0.2,1.1-0.2c1.8-0.3,3-0.4,3.4-0.5c0.4,0,0.8-0.1,1.2-0.1c0.4,0,0.8,0,1.3,0c0.3-0.1,0.6-0.1,0.8-0.1
		c0.2,0,0.4,0,0.6-0.1c0.3,0,0.7,0,1,0c0.6-0.9,1-1.5,1.3-2s0.6-1.1,0.8-1.8c0.1-0.3,0.2-0.6,0.3-1c0.1-0.4,0.1-0.7,0-0.9
		c-0.1-0.2-0.2-0.4-0.4-0.7s-0.4-0.4-0.6-0.4c-0.2,0-0.6-0.1-1-0.2c-0.5-0.1-0.9-0.2-1.4-0.2c-0.2,0.1-0.4,0.1-0.6,0s-0.5,0-0.9,0
		c-0.4,0.1-0.8,0.1-1.4,0c-0.3,0.1-0.6,0.1-0.9,0.2c-0.3,0.1-0.5,0.1-0.7,0.1c-0.3,0.1-0.6,0.2-0.8,0.2c-0.2,0-0.4,0.1-0.5,0.2
		c-0.1,0.1-0.3,0.2-0.6,0.4c0,0.3-0.2,0.5-0.4,0.7c-0.2,0.2-0.5,0.3-0.9,0.2c-0.3-0.1-0.6-0.3-0.7-0.7c-0.1-0.3-0.1-0.7,0-1.1
		c0.2-0.4,0.5-0.7,1.1-0.9c0.6-0.2,1-0.3,1.3-0.3c0.3,0,0.7-0.1,1.3-0.3c1.7-0.2,2.9-0.3,3.4-0.3c0.6,0,1.2,0,1.8,0
		c0.6,0,1.5,0.1,2.4,0.3c0.3,0.1,0.6,0.2,0.9,0.4c0.3,0.1,0.5,0.4,0.7,0.6c0.2,0.3,0.3,0.6,0.4,1c0.1,0.3,0.1,1.1-0.2,2.2
		c0,0.3-0.1,0.7-0.2,1.1c-0.3,0.2-0.4,0.5-0.5,0.8c-0.1,0.3-0.2,0.6-0.3,0.9c-0.2,0.4-0.3,0.6-0.4,0.8c-0.1,0.1-0.2,0.3-0.2,0.4
		c0,0.2-0.1,0.3-0.2,0.5c-0.1,0.1-0.3,0.4-0.4,0.7c-0.1,0.2-0.3,0.5-0.4,0.7c-0.2,0.2-0.7,0.5-1.4,0.9c-0.5,0.2-1-0.2-1.5-1
		c-0.2-0.2-0.4-0.2-0.6-0.1c-0.2,0.1-0.4,0.1-0.8,0c-0.7,0.1-1.1,0.1-1.3,0.2c-0.4-0.1-0.7,0-0.8,0.1c-0.2,0.1-0.4,0.1-0.7,0.1
		c-0.1,0.2-0.4,0.2-0.7,0c-0.6,0.1-1.1,0.2-1.6,0.3c0,0.3-0.1,0.5-0.3,0.7c-0.2,0.2-0.4,0.4-0.8,0.4c-0.3,0-0.5,0-0.6,0
		c-0.1,0-0.3-0.1-0.5-0.2c-0.2-0.1-0.4-0.2-0.6-0.3c-0.2-0.1-0.4-0.2-0.5-0.5c-0.1-0.2-0.2-0.5-0.4-0.8c-0.2-0.8-0.4-1.5-0.5-2.1
		c-0.1-0.6-0.2-1.5-0.1-2.7s0.1-2.1,0.1-2.8c0.1-0.7,0.1-1.4,0.3-2.1c0.2-0.5,0.5-0.8,1-0.8c0.7,0.2,1.1,0.4,1.1,0.6
		c0,0.2,0,0.4-0.1,0.6c-0.1,0.2-0.2,0.4-0.4,0.8c-0.1,0.4-0.2,0.7-0.2,1s0,0.4-0.1,0.6c0,0.1-0.1,0.3-0.2,0.6
		c-0.1,0.2-0.1,0.5-0.1,0.8C209.3,61.4,209.3,61.7,209.2,62z M220.2,61.4c0.5,0.1,0.9,0.4,1,0.8c0.1,0.4,0.1,0.7,0,0.9
		c-0.1,0.2-0.3,0.3-0.5,0.4s-0.4,0-0.6,0c-0.2-0.1-0.4-0.1-0.6-0.2c-0.2-0.1-0.5-0.2-0.7-0.3c-0.3-0.1-0.5-0.1-0.7-0.1
		c-0.2,0.1-0.4,0.1-0.6,0c-0.2-0.1-0.5-0.1-0.9,0c-0.4,0.1-0.8,0.1-1.3,0.1c-0.2,0.2-0.4,0.2-0.5,0.1c-0.4,0.1-0.7,0.1-0.9,0.1
		c-0.2,0-0.5,0.1-0.9,0.2c-0.1,0.4-0.2,0.7-0.4,0.9c-0.2,0.2-0.5,0.2-0.8,0c-0.3-0.2-0.5-0.4-0.7-0.8c-0.2-0.3-0.2-0.7,0-1
		s0.4-0.5,0.9-0.6c0.4-0.1,1-0.2,1.9-0.3c0.9-0.1,1.5-0.1,2-0.2c0.5,0,1.2,0,2.3,0C219.1,61.3,219.8,61.3,220.2,61.4z M213.6,83.1
		c0.4,0.9,0.6,1.5,0.6,1.8c0.1,0.3,0.2,0.7,0.3,1c0.1,0.3,0.3,0.5,0.5,0.7c0.4,0,0.7,0,1.2-0.2c0.4-0.2,0.9-0.4,1.6-0.8
		c0.6-0.4,1.2-0.9,1.8-1.4c0.5-0.6,1-1.1,1.5-1.6c0.1-0.2,0.3-0.4,0.6-0.5c0.1-0.3,0.3-0.6,0.5-0.8c0.3-0.1,0.4-0.3,0.5-0.5
		s0.2-0.5,0.3-0.5c0.1-0.1,0.2-0.2,0.2-0.4c0.1-0.2,0.2-0.3,0.3-0.4s0.2-0.4,0.3-0.7c0.2-0.4,0.2-0.7,0.1-0.9
		c-0.1-0.2-0.3-0.4-0.5-0.7c-0.4-0.2-0.9-0.3-1.5-0.4c-0.6-0.1-1.2-0.1-2.1,0c-0.1,0.5-0.2,0.8-0.4,1c-0.2,0.2-0.4,0.3-0.6,0.4
		c-0.3,0.3-0.5,0.6-0.9,0.8c-0.1,0.3-0.3,0.5-0.6,0.7s-0.7,0.6-1.2,1.2c-0.5,0.6-0.9,1-1.2,1.3C214.5,82.1,214.1,82.5,213.6,83.1z"
		/>
</g>
</svg>
