<?xml version="1.0" encoding="utf-8"?>
<!-- Generator: Adobe Illustrator 27.9.0, SVG Export Plug-In . SVG Version: 6.00 Build 0)  -->
<svg version="1.1" id="レイヤー_1" xmlns="http://www.w3.org/2000/svg" xmlns:xlink="http://www.w3.org/1999/xlink" x="0px"
	 y="0px" width="295.7px" height="85px" viewBox="0 0 295.7 85" style="enable-background:new 0 0 295.7 85;" xml:space="preserve">
<style type="text/css">
	.st0{fill:#0000FF;}
</style>
<g>
	<path class="st0" d="M8.2,8.7C8.3,8.4,8.6,8.2,8.9,8c0.3-0.2,0.6-0.5,0.7-0.7C9.7,7,10,6.8,10.4,6.6c0.3-0.4,0.5-0.6,0.6-0.7
		s0.3-0.2,0.4-0.4c0.1-0.2,0.4-0.5,0.7-0.7c0.4-0.2,0.6-0.6,0.8-0.9c0.3-0.3,0.5-0.5,0.7-0.7c0.2-0.2,0.4-0.3,0.6-0.5
		c0.2-0.2,0.5-0.2,0.7-0.2c0.2,0,0.5,0.1,0.6,0.2c0.2,0.1,0.4,0.3,0.6,0.5c0.2,0.2,0.2,0.4,0.1,0.7C16.4,4,16,4.2,15.4,4.5
		c-1.5,1.3-3,2.5-4.5,3.7C9.5,9.4,8.1,10.7,6.7,12c-0.7,0.6-1.3,1.3-2.1,2.2c-0.7,0.9-1.3,1.7-1.7,2.4C2.4,17.3,2.2,18.1,2,19
		c-0.4,0.6-0.8,0.7-1.3,0.4C0.2,19.1,0,18.7,0,18.3c0.1-0.4,0.1-0.8,0.3-1c0.1-0.2,0.3-0.5,0.5-0.7c0.2-0.2,0.3-0.4,0.4-0.6
		c0.1-0.1,0.3-0.3,0.6-0.5c0.1-0.3,0.3-0.5,0.5-0.7c0.3-0.2,0.5-0.4,0.6-0.7c1.4-1.6,2.3-2.5,2.7-2.8c0.3-0.3,0.6-0.5,0.8-0.7
		c0.2-0.1,0.4-0.3,0.4-0.5c0.1-0.2,0.3-0.4,0.6-0.5C7.7,9.3,7.9,9,8.2,8.7z M11.6,11.4c-0.1,0.4-0.1,0.7-0.2,0.9s-0.1,0.4-0.3,0.7
		c-0.1,0.3-0.2,0.5-0.1,0.6c0.1,0.1,0,0.2-0.1,0.4c-0.1,0.2-0.1,0.4-0.1,0.6c0.1,0.2,0,0.4-0.2,0.6c0,0.4-0.1,0.7-0.2,1.1
		c-0.1,0.3-0.3,0.7-0.4,1.1c0.1,0.3,0,0.6-0.2,0.9c0,0.5,0,0.8,0,0.9c0,0.1-0.1,0.4-0.2,0.8c0,0.3,0,0.6-0.1,0.8
		c-0.1,0.2-0.1,0.4-0.1,0.7c0,0.3-0.1,0.9-0.2,1.9c0.1,0.2,0.1,0.4,0.1,0.6c-0.1,0.2-0.1,0.4,0,0.7c0.1,0.3,0.1,0.6,0.1,1
		c0,0.3,0.1,0.6,0.2,0.9c0.1,0.3,0.3,0.5,0.5,0.7c0.5,0.6,0.7,1.1,0.5,1.3c-0.2,0.3-0.4,0.4-0.7,0.5c-0.3,0.1-0.6,0-0.8-0.1
		c-0.3-0.1-0.5-0.4-0.6-0.7c-0.4-0.9-0.7-1.8-0.6-2.8c0-1,0.1-2,0.2-3c0.1-1,0.2-1.9,0.4-2.8C8.7,18,9,16.5,9.3,15
		c0.3-1.5,0.6-2.9,0.8-4.5c0.1-0.8,0.2-1.3,0.4-1.4c0.2-0.2,0.4-0.3,0.5-0.3s0.3,0,0.5,0c0.2,0,0.3,0.2,0.6,0.6
		c0.2,0.4,0.3,0.7,0.2,0.9C12.2,10.5,12,10.9,11.6,11.4z M32.3,7c-1.3,0-2.6,0.2-3.8,0.5c0.1,0.4,0,0.7-0.2,1.1
		c-0.1,0.5-0.2,0.9-0.2,1.3c0,0.4-0.1,0.7-0.1,1c-0.2,1.1-0.2,1.8-0.3,2.1c1.1-0.2,1.9-0.3,2.5-0.2c0.6,0,1,0,1.3,0s0.5,0,0.8,0
		c0.3,0,0.6,0,0.9,0.1c0.4,0.5,0.6,0.9,0.4,1.1c-0.1,0.2-0.3,0.4-0.5,0.4c-0.2,0-0.4,0-0.6,0.1c-0.4,0-0.9,0-1.3,0c-0.4,0-0.8,0-1,0
		c-0.2,0-0.6,0-1,0.1c-0.3,0.1-0.6,0.1-0.9,0.2c-0.3,0-0.6,0.1-0.8,0.3c-0.3,1.6-0.4,2.8-0.5,3.8c0.5-0.3,0.9-0.3,1.2-0.2
		c0.3,0.2,0.5,0.5,0.5,1c0.3-0.1,0.6-0.1,0.9-0.1c0.2,0,0.4,0,0.5-0.1c0.1-0.1,0.3-0.1,0.4,0c0.1,0.1,0.4,0.1,0.9,0
		c0.3-0.1,0.5-0.1,0.8-0.1c0.2,0,0.5-0.1,0.7-0.2c0.7,0,1.3-0.1,1.7-0.2c0.4-0.2,0.8-0.3,1-0.3c0.3-0.1,0.5-0.1,0.7-0.1
		c0.2-0.1,0.5-0.1,0.7,0c0.3,0.1,0.4,0.3,0.5,0.8c0.1,0.4-0.1,0.7-0.5,0.9c-0.7,0.1-1.2,0.2-1.5,0.2c-0.4,0-0.6,0.1-0.8,0.2
		c-1.2,0.2-2.3,0.4-3.2,0.6c-1,0.1-1.8,0.3-2.6,0.4s-1.5,0.1-2.2-0.1c-0.2,1-0.3,1.8-0.4,2.3c-0.1,0.5-0.2,1.8-0.5,3.9
		c0.1,0.2,0,0.4,0,0.6c-0.1,0.2-0.1,0.4-0.1,0.7c0,0.3-0.1,0.7-0.3,1.1c-0.1,0.3-0.3,0.5-0.5,0.6c-0.3,0.1-0.6,0.2-0.8,0.1
		s-0.5-0.2-0.6-0.4c-0.1-0.2-0.1-0.4-0.1-0.6c0.1-0.2,0.1-0.4,0.1-0.6c0-0.2,0.1-0.4,0.4-0.8c0.2-0.7,0.3-1.2,0.5-1.5
		c0.2-0.3,0.3-0.6,0.3-0.9c0.1-0.3,0.1-0.5,0-0.7c-0.1-0.2,0-0.4,0.1-0.7c0.1-0.3,0.2-1,0.3-2.2c-0.1-0.2,0-0.5,0.2-0.8
		c0-0.4,0-0.8,0-1.1c0-0.3,0-0.6,0.1-0.9c0-0.3,0-0.5,0.1-0.8c0.1-0.3,0.1-0.7,0.1-1c0-0.4,0.1-0.7,0.1-1.1c-0.3-0.2-0.4-0.5-0.5-1
		c0-0.2,0.1-0.4,0.2-0.6c0.1-0.2,0.3-0.5,0.6-0.9c0-0.2,0-0.4,0.1-0.5c0.1-0.2,0.1-0.3,0-0.5c0-0.2,0-0.4,0.1-0.5
		c0.1-0.2,0.2-0.4,0.2-0.6c0-0.3,0-0.4,0-0.5c0.2-0.7,0.2-1.1,0.2-1.4c0-0.3,0-0.5,0-0.7c0-0.2,0.1-0.5,0.1-1.1
		c-0.3,0.1-0.8,0.2-1.2,0.3c-0.5,0.1-1.2,0.4-2.1,0.7c-0.9,0.3-1.6,0.6-2.1,0.8c-0.5,0.2-0.9,0.3-1.1,0.5c-0.2,0.1-0.5,0.3-0.8,0.3
		s-0.6,0.1-0.9,0c-0.2-0.1-0.4-0.2-0.6-0.4c-0.2-0.1-0.5-0.3-0.7-0.5c-0.2-0.4-0.3-0.8-0.2-1.2c0-0.4,0.1-0.8,0.4-1.3
		c0.2-0.5,0.5-1,0.8-1.7c0.3-0.7,0.7-1.4,1.1-2.2c0.4-0.8,0.9-1.6,1.3-2.2c0.2-0.2,0.4-0.4,0.6-0.5s0.4-0.1,0.6-0.2c0,0,0.1,0,0.1,0
		c0.2,0,0.4,0.1,0.5,0.2c0.2,0.1,0.3,0.3,0.4,0.5c0.1,0.2,0.1,0.4,0,0.6c-0.1,0.2-0.3,0.4-0.4,0.5c-0.2,0.1-0.4,0.3-0.5,0.5
		c-0.2,0.3-0.4,0.5-0.6,0.7c0,0.3-0.2,0.5-0.5,0.8c-0.4,0.6-0.6,1.1-0.7,1.3c-0.1,0.3-0.3,0.7-0.6,1.3c-0.3,0.6-0.5,1.1-0.6,1.7
		c0.1,0.3,0.2,0.3,0.5,0.2c0.3-0.1,0.6-0.3,0.9-0.4c0.3-0.1,0.8-0.3,1.4-0.4s1.1-0.4,1.4-0.5c0.2-0.2,0.5-0.2,0.7-0.2
		c0.2,0,0.4,0,0.5-0.1c0.6-0.2,1.2-0.3,1.8-0.4c0.4-0.2,0.7-0.3,1.1-0.4c0.4-0.1,0.8-0.2,1.1-0.3c0.2-0.1,0.5-0.2,0.7-0.2
		c0.2,0,0.4,0,0.6,0c0.6-0.2,1.2-0.3,1.8-0.3c0.2-0.2,0.4-0.3,0.6-0.3s0.4,0,0.5,0.1c0.2,0,0.3,0.1,0.5,0c0.2,0,0.3,0,0.5,0.1
		c0.2,0.1,0.3,0.2,0.5,0.4c0.1,0.2,0.2,0.4,0.2,0.6c0,0.3-0.1,0.5-0.3,0.7c-0.2,0.2-0.4,0.3-0.6,0.3C32.6,7.4,32.4,7.3,32.3,7z"/>
	<path class="st0" d="M47.9,7.3c-0.2,0.7-0.3,1.2-0.4,1.3c-0.1,0.1-0.3,0.9-0.7,2.3c-0.1,0.8-0.2,1.6-0.3,2.4
		c-0.1,0.8,0,1.6,0.3,2.4c0.5,0.1,0.8,0.1,1,0c0.2-0.1,0.5-0.2,0.7-0.4c0.2-0.2,0.5-0.4,1-0.5c0.5-0.2,0.8-0.3,0.9-0.4
		c0.1-0.1,0.4-0.2,0.7-0.3c0.3-0.1,0.6,0,0.7,0.1c0.2,0.1,0.3,0.4,0.3,0.7c0,0.3,0,0.5-0.1,0.7c-0.1,0.1-0.4,0.3-0.7,0.5
		c-0.1,0.1-0.3,0.2-0.5,0.3c-0.2,0.1-0.4,0.2-0.7,0.2c-0.3,0.3-0.6,0.4-0.8,0.5c-0.2,0.1-0.4,0.1-0.5,0.1s-0.3,0.1-0.4,0.2
		c-0.4,0.1-0.7,0.1-0.9,0.1c-0.2,0-0.4-0.1-0.6-0.1c-0.2,0-0.5-0.1-0.9-0.4c-0.3-0.2-0.5-0.4-0.7-0.5c-0.2-0.1-0.4-0.6-0.4-1.4
		c-0.1-0.2-0.1-0.5,0-0.9c-0.1-0.2-0.1-0.4-0.1-0.6s0-0.3,0-0.5c0-0.2,0-0.4,0.2-0.7c-0.1-0.4,0-0.8,0.1-1.2
		c0.1-0.2,0.1-0.5,0.1-0.9s0.2-0.6,0.4-0.7c0.1-0.3,0.2-0.6,0.2-0.9c0-0.3,0.1-0.6,0.2-0.9c0.5-1.3,0.7-2.1,0.8-2.5
		c0-0.3,0.1-0.6,0.3-0.9c0.2-0.3,0.3-0.5,0.3-0.7c0.1-0.2,0.2-0.4,0.3-0.7c0-0.2,0.1-0.3,0.3-0.4c0.2-0.1,0.4-0.2,0.6-0.3
		c0.2-0.1,0.5,0,0.8,0.2c0.3,0.2,0.4,0.4,0.4,0.6c0,0.2,0,0.4-0.2,0.6c-0.1,0.2-0.3,0.4-0.4,0.6C49,4.7,48.8,4.9,48.7,5
		c-0.1,0.4-0.2,0.7-0.3,0.9c-0.1,0.2-0.2,0.4-0.2,0.7C48.2,6.8,48.1,7.1,47.9,7.3z M60.1,4.2c0,0.4,0,0.7,0,0.9c0,0.2,0,0.4,0,0.5
		c0,0.2-0.1,0.4-0.3,0.7C60,6.5,60.1,6.7,60,6.8C60,7,59.9,7.1,60,7.3c0,0.2-0.1,0.4-0.2,0.6c0.1,0.2,0.1,0.5,0.1,0.7
		c0,0.2-0.1,0.5-0.3,0.6c0.2,0.4,0.2,0.6,0.1,0.8s-0.1,0.4-0.2,0.7c0,0.3-0.1,0.8-0.2,1.4c-0.1,0.6-0.2,1.1-0.3,1.3
		c0.1,0.2,0.1,0.4,0,0.5c-0.1,0.1-0.1,0.3-0.1,0.4c0,0.1,0,0.4-0.2,0.8c0,0.4,0,0.6-0.1,0.8c-0.1,0.2-0.1,0.3-0.1,0.5
		c-0.1,0.5-0.2,0.9-0.3,1.1c-0.4,1.5-0.7,2.6-0.9,3.2s-0.5,1.3-0.9,2.2c-0.4,0.9-0.8,1.8-1.2,2.5s-0.8,1.5-1.2,2.1
		c-0.4,0.6-0.7,1.1-1,1.4c-0.1,0.3-0.3,0.6-0.5,0.8c-0.2,0.2-0.3,0.5-0.4,0.7c-0.1,0.2-0.2,0.4-0.5,0.5c-0.1,0.3-0.1,0.4-0.3,0.5
		s-0.2,0.2-0.3,0.4c-0.1,0.2-0.2,0.4-0.4,0.6c-0.2,0.3-0.4,0.4-0.7,0.5c-0.3,0.1-0.6,0-1-0.1c-0.4-0.1-0.5-0.4-0.5-0.8
		c0-0.4,0.1-0.8,0.4-1.1c0.3-0.3,0.5-0.5,0.7-0.6c0.2-0.1,0.3-0.3,0.4-0.5c0.1-0.2,0.3-0.4,0.5-0.5c0.3-0.2,0.6-0.5,0.7-0.7
		c0.3-0.2,0.4-0.4,0.4-0.5c0-0.1,0.2-0.3,0.5-0.6c0-0.2,0.2-0.4,0.5-0.5c0.1-0.2,0.1-0.4,0.1-0.6c0-0.2,0.2-0.4,0.4-0.5
		s0.3-0.4,0.4-0.6c0.4-0.8,0.8-1.6,1.2-2.2c0.3-0.6,0.6-1.3,0.9-1.9s0.6-1.6,1-2.9c0.4-1.3,0.7-2.6,0.9-3.8c0.2-1.2,0.3-2,0.4-2.5
		c0.1-0.9,0.2-1.4,0.2-1.6c0.1-0.2,0.1-0.7,0-1.4c0.1-1.4,0.1-2.4,0.1-3.1c0-0.7,0-1.1-0.1-1.4c-0.1-0.3-0.1-0.7-0.1-1.1
		c-0.1-0.4-0.1-0.7,0-0.8c0.1-0.2,0.1-0.3,0.2-0.5c0.1-0.2,0.2-0.3,0.5-0.4c0.3,0.1,0.6,0.2,0.9,0.4c0.3,0.2,0.4,0.4,0.4,0.6
		c0,0.2,0,0.4,0.1,0.6C60.2,3.5,60.2,3.8,60.1,4.2z"/>
	<path class="st0" d="M102.5,29c-0.6,0.2-1.3,0.4-2.1,0.4c-0.8,0.1-1.4,0.2-1.7,0.3s-0.6,0.2-1,0.1c-0.2,0.1-0.4,0.2-0.6,0.2
		c-0.2,0-0.4,0-0.9,0c-0.2,0.1-0.4,0.2-0.6,0.2c-0.2,0-0.4,0.1-0.5,0.1c-0.2,0.1-0.4,0.1-0.8-0.1c-0.2,0.2-0.5,0.3-0.7,0.3
		c-0.2,0-0.5,0-0.7-0.1c-0.4-0.1-0.8-0.1-1.1,0c-0.3,0.1-0.5,0.1-0.8,0c-0.2-0.1-0.6-0.1-1.1-0.1c-0.3,0.2-0.7,0.2-1.1,0
		c-0.4,0.1-1.5,0-3.5-0.4c-1.9-0.3-3.3-0.6-4-0.8s-1.5-0.4-2.3-0.7c-0.8-0.2-1.8-0.6-3.1-1.1s-2.1-0.9-2.7-1.2
		c-0.2-0.1-0.4-0.1-0.6,0.1c-0.2,0.1-0.4,0.2-0.7,0.1c-0.4,0.1-0.6,0.2-0.8,0.2c-0.2,0-0.3,0-0.4,0c-0.1,0-0.5,0-1-0.1
		c-0.4,0-0.7-0.2-1-0.4c-0.3-0.2-0.4-0.6-0.4-1c0.1-0.3,0.2-0.5,0.3-0.6c0.2-0.2,0.4-0.3,0.7-0.4c0.3-0.1,0.7-0.1,1.1,0
		c0.4,0.1,0.9,0.1,1.3,0.2c0.2-0.1,0.4-0.1,0.6,0c0.2,0.1,0.4,0,0.6-0.1c0.5-0.3,0.9-0.5,1.2-0.7c0.3-0.1,0.6-0.4,1-0.6
		c0.4-0.3,0.8-0.6,1.3-1.1c0.2-0.3,0.3-0.5,0.4-0.7c0-0.2,0-0.4-0.2-0.7c-0.1-0.3-0.4-0.6-0.7-0.8c-0.3-0.3-0.7-0.5-1-0.7
		c-0.2-0.1-0.5-0.1-0.7-0.3c-0.2-0.1-0.4-0.3-0.6-0.4c-0.2-0.2-0.3-0.4-0.3-0.6c0.1-0.6,0.3-1,0.5-1.2c0.2-0.2,0.5-0.5,0.9-0.9
		c0.4-0.4,0.8-0.8,1.2-1.2c0.4-0.4,0.8-0.8,1.2-1.2c0.4-0.4,0.7-0.8,0.8-1.3c-0.4-0.1-0.9-0.1-1.4,0c-0.6,0.1-1,0.2-1.3,0.2
		c-0.3,0.1-0.6,0.1-0.9,0.2s-0.6,0.2-1,0.3c-0.4,0.2-0.8,0.4-1.2,0.8c-0.2,0.4-0.3,0.6-0.5,0.7c-0.2,0.1-0.5,0.2-0.9,0.2
		c-0.5,0-0.8-0.1-1-0.4c-0.2-0.3-0.2-0.6-0.1-0.9c0.3-0.4,0.6-0.7,1-0.9s0.8-0.4,1.4-0.6c1.4-0.4,2.5-0.7,3.3-0.9
		c0.8-0.1,1.5-0.2,2.1-0.3c0.5,0,1,0,1.3,0.2c0.4,0.1,0.6,0.4,0.8,0.8c0.2,0.4,0.2,0.9,0,1.6c-0.3,0.7-0.7,1.2-1.2,1.7
		c-0.6,0.5-1.1,1-1.7,1.5c-0.5,0.5-0.9,0.9-1.1,1.2c0.2,0.3,0.4,0.5,0.6,0.6c0.2,0.1,0.5,0.3,0.8,0.5c0.4,0.2,0.7,0.5,1,0.7
		c0.2,0.2,0.4,0.4,0.6,0.7c0.1,0.2,0.2,0.6,0.3,1c0,0.4-0.1,0.8-0.3,1.2c-0.2,0.4-0.5,0.7-0.7,1c-0.3,0.2-0.6,0.5-0.9,0.9
		c-0.7,0.6-1.2,1.1-1.7,1.5c0.6,0.3,1.2,0.7,1.8,0.9c0.6,0.3,1.7,0.7,3.3,1.4s3.4,1.1,5.4,1.4s3.7,0.4,5.2,0.3
		c1.5-0.1,3.2-0.3,5-0.6c1.8-0.3,3.5-0.8,5.2-1.4c1.1-0.5,1.8-0.6,2.1-0.4c0.3,0.2,0.5,0.5,0.5,0.9c0.1,0.4,0,0.6-0.2,0.7
		C103.3,28.8,103,28.9,102.5,29z M74.9,3c-0.2-0.5-0.5-1-1-1.4c-0.3-0.2-0.4-0.5-0.3-0.9c0.1-0.4,0.3-0.6,0.6-0.7
		C74.4,0,74.7,0,74.9,0c0.2,0,0.4,0.1,0.5,0.3c0.2,0.2,0.3,0.3,0.4,0.5C75.9,0.9,76,1.1,76,1.4c0.2,0.3,0.4,0.6,0.5,1.1
		c0.1,0.4,0.3,0.8,0.3,1.1c0.1,0.3,0.2,0.8,0.3,1.3c0.1,0.5,0.2,1.1,0.3,1.6c0,0.4,0,0.7,0.1,0.9c0,0.2,0,0.5,0,0.7
		c-0.1,0.2-0.3,0.4-0.6,0.6s-0.7,0.2-1-0.1c-0.3-0.3-0.3-0.8-0.2-1.5c-0.1-0.6-0.1-1.1-0.1-1.6c0-0.4-0.1-0.9-0.3-1.3
		C75.2,3.8,75,3.4,74.9,3z M82.9,21.6c-0.1,0.3-0.3,0.6-0.6,0.8c-0.3,0.2-0.5,0.4-0.7,0.5C81.2,23,81,23.1,80.7,23
		c-0.2-0.1-0.4-0.2-0.5-0.4c-0.1-0.2-0.1-0.4-0.1-0.7s0.2-0.5,0.4-0.8c0.2-0.2,0.6-0.6,1.1-1c0.5-0.4,1-1,1.5-1.6
		c0.2-0.2,0.5-0.4,0.8-0.6c0.2-0.4,0.4-0.7,0.8-0.9c0.7-1,1.3-1.6,1.7-1.9c0.1-0.4,0.2-0.6,0.4-0.8c0.2-0.2,0.4-0.3,0.6-0.3
		c0.2-0.4,0.3-0.6,0.5-0.8c0.2-0.1,0.4-0.3,0.5-0.6c0.2-0.3,0.4-0.6,0.7-0.9c0.2-0.4,0.4-0.8,0.6-1.2c0.2-0.3,0.6-0.6,1.2-0.7
		c-0.4-1.3-0.8-2.3-1.2-3c-0.4-0.7-0.7-1.3-1-1.6C88.7,5,88.4,4.7,88,4.6c-0.4-0.3-0.8-0.5-1-0.6c-0.2-0.1-0.4-0.4-0.5-0.8
		c-0.1-0.4-0.1-0.7,0.1-1c0.2-0.3,0.5-0.4,0.8-0.4c0.3,0,0.6,0.1,0.8,0.2c0.2,0.1,0.4,0.3,0.6,0.5C89,2.7,89.2,2.9,89.3,3
		c0.1,0.1,0.3,0.4,0.6,0.7c0.3,0.5,0.6,0.8,0.6,1.1c0.1,0.3,0.2,0.4,0.2,0.6c0.1,0.1,0.2,0.3,0.4,0.6c0.2,0.3,0.3,0.6,0.5,1.1
		c0.2,0.5,0.4,1,0.6,1.5C92.7,8.9,93,9.2,93,9.4c0.1,0.2,0.1,0.4,0.1,0.7s0.1,0.6,0.4,1.1c0.2,0.5,0.7,1.3,1.3,2.6
		c0.6,1.3,1.2,2.3,1.7,3.1c0.5,0.8,1,1.4,1.4,2c0.4,0.5,0.8,0.9,1.2,1c0.4,0.3,0.7,0.6,0.9,0.8c0.2,0.2,0.6,0.5,1.2,0.8
		c0.5,0.1,0.9,0.2,1.2,0.4c0.3,0.2,0.5,0.3,0.6,0.4c0.1,0.1,0.2,0.2,0.3,0.4c0.1,0.2,0.1,0.4,0,0.6c-0.1,0.2-0.3,0.4-0.5,0.5
		c-0.7,0-1.2,0-1.4-0.1c-0.3-0.1-0.7-0.4-1.3-1c-0.7-0.5-1.5-1.3-2.4-2.3c-1-1-2-2.5-3.1-4.5c-1.1-2-1.9-3.5-2.5-4.5
		c-0.5,0.4-0.8,0.8-1,1c-0.2,0.2-0.5,0.5-0.8,0.9c-0.3,0.4-1.3,1.4-3,3.2c-1.6,1.8-2.6,2.9-3,3.3C83.9,20.3,83.5,20.9,82.9,21.6z"/>
	<path class="st0" d="M123.2,17c0,0.5-0.1,1-0.2,1.4c-0.1,0.5-0.2,0.8-0.2,1c0,0.1,0,0.3-0.1,0.5c-0.1,0.2-0.1,0.4-0.1,0.6
		c0,0.2-0.1,0.5-0.2,0.9c1-0.1,2,0,3.1,0.1c1.1,0.1,2.4,0.2,3.8,0.3c0.6,0.1,1.1,0.2,1.5,0.3c0.4,0.1,0.7,0.1,0.9,0.1
		c0.2,0,0.4,0.1,0.6,0.2c0.2,0.1,0.4,0.2,0.5,0.3c0.1,0.1,0.1,0.4,0,0.8c-0.1,0.4-0.2,0.6-0.4,0.7c-0.1,0.1-0.4,0.2-0.6,0.2
		c-0.3,0.1-0.5,0-0.7-0.1c-0.2-0.1-0.4-0.2-0.8-0.3c-0.4-0.2-0.6-0.3-0.8-0.2c-0.2,0.1-0.3,0-0.5-0.1c-0.2-0.1-0.4-0.2-0.5-0.3
		c-0.2,0-0.5-0.1-0.9-0.2c-0.3,0-0.7,0-1.1-0.1c-0.3-0.2-0.6-0.3-0.8-0.2s-0.5,0-0.9,0c-0.6,0-1,0-1.2,0c-0.2,0.1-0.4,0-0.6,0
		c-0.2-0.1-0.5-0.1-1,0c-0.2,0.8-0.4,1.3-0.6,1.7c-0.2,0.3-0.4,0.7-0.5,1c-0.2,0.3-0.4,0.7-0.7,1c-0.4,0.5-0.7,0.9-0.9,1.1
		c-0.2,0.2-0.4,0.4-0.7,0.5s-0.5,0.2-0.8,0.2s-0.6,0.1-0.9,0.1c-0.3,0-0.6,0-1.1-0.1c-0.4-0.1-0.9-0.3-1.3-0.7
		c-0.4-0.4-0.7-0.9-0.9-1.4c-0.1-0.5-0.1-0.9,0-1.4s0.3-0.8,0.5-1.2c0.3-0.4,0.6-0.7,1.1-1c0.6-0.3,1.2-0.5,1.8-0.7
		c0.6-0.2,1.2-0.3,1.9-0.4s1.2-0.2,1.7-0.2c0.2-0.5,0.4-0.9,0.5-1.2c0.1-0.3,0.1-0.6,0.2-0.7c0-0.2,0.1-0.4,0.1-0.6
		c0-0.2,0.1-0.8,0.2-1.6c0.1-0.4,0.1-0.7,0.1-1c0-0.2,0-0.6,0.1-1.2c-0.7,0.1-1,0.2-1.1,0.3c-0.1,0.1-0.3,0.1-0.7,0
		c-0.2,0.2-0.5,0.3-0.8,0.2c-0.2,0-0.5,0.1-0.7,0.3c-0.2,0.1-0.5,0.2-0.7,0.2c-0.5,0.1-0.9,0.2-1.3,0.4c-0.4,0.2-0.8,0.2-1.3,0.2
		c-0.4,0.2-0.7,0.3-0.9,0.3c-0.2,0-0.5,0.1-0.7,0c-0.2,0-0.6-0.1-1-0.1c-0.4-0.1-0.7-0.2-1-0.5c-0.3-0.3-0.3-0.6-0.1-0.9
		c0.2-0.4,0.4-0.6,0.6-0.6c0.2-0.1,0.5-0.1,0.7-0.1c0.2,0,0.4,0.1,0.6,0.3c0.4,0,0.7,0,1,0c0.3,0,0.5,0,0.7-0.1c0.2,0,0.4,0,0.5-0.1
		c0.5,0,1.2-0.1,1.9-0.3c0.8-0.2,1.2-0.3,1.5-0.4s0.5-0.2,0.8-0.2c0.3-0.1,0.6-0.2,0.8-0.2c0.2-0.1,0.7-0.2,1.4-0.5
		c0-0.6,0.1-1.1,0.1-1.5c0-0.4,0.1-0.8,0.1-1.2c0-0.4,0-0.8,0-1.3c0-0.4-0.1-0.9-0.2-1.3c-0.4,0-0.7,0-0.8,0c-0.2,0-0.4-0.1-0.8-0.1
		c-0.3,0.1-0.7,0.1-1,0.1c-0.3,0-0.6,0-0.8-0.1c-0.2,0-0.4,0-0.6,0.1c-0.2,0.1-0.4,0.1-0.6-0.1C116.9,8,116.7,8,116.5,8
		c-0.1-0.1-0.3-0.1-0.4,0.1c-0.2,0.1-0.4,0.2-0.7,0.3c-0.3,0.1-0.6,0.2-0.7,0.3c-0.1,0.2-0.4,0.2-0.6,0.2c-0.3,0-0.6-0.1-0.8-0.4
		c-0.3-0.2-0.4-0.6-0.3-1c0.1-0.4,0.3-0.7,0.6-0.8c0.3-0.2,0.6-0.3,0.9-0.3c0.3,0,0.6,0,1.1-0.1c0.5-0.1,1.1-0.1,1.8-0.1
		c0.8,0,1.4,0,2,0c0.5,0,1,0.1,1.4,0.1c0.4,0,0.9,0,1.5-0.1c0.1-0.3,0.1-0.7,0.2-1.2c0-0.4,0-0.8,0.1-1.2c0.1-0.3,0.1-0.6,0.2-0.8
		c0.1-0.2,0.4-0.4,0.9-0.5c0.3,0.1,0.6,0.1,0.8,0.2c0.2,0.1,0.4,0.2,0.5,0.4c0.1,0.1,0.2,0.4,0.1,0.7s-0.2,0.7-0.4,1
		c-0.2,0.6-0.3,1.2-0.3,1.6c0.3,0.1,0.7,0.1,1.1,0.2c0.4,0.1,0.7,0.1,1,0.3c0.2,0.1,0.5,0.3,0.6,0.6c0.2,0.3,0.2,0.5,0.1,0.8
		c-0.1,0.2-0.3,0.4-0.5,0.5c-0.2,0.1-0.5,0.2-0.9,0.2c-0.6-0.2-1.1-0.4-1.6-0.4c-0.1,0.8-0.2,1.3-0.1,1.6c0,0.3,0,0.7-0.2,1.2
		c0.1,0.5,0,1-0.2,1.6c0.7-0.2,1.3-0.4,1.9-0.6c0.6-0.3,1.1-0.5,1.5-0.7c0.3-0.2,0.7-0.4,1.1-0.7c0.3-0.2,0.6-0.3,0.8-0.2
		c0.3,0.1,0.5,0.2,0.7,0.5c0.2,0.3,0.3,0.5,0.3,0.7c0,0.2-0.2,0.3-0.5,0.5c-0.3,0.2-0.6,0.3-1,0.5c-0.4,0.2-0.7,0.3-0.8,0.4
		c-0.1,0.1-0.4,0.1-0.8,0.1c-0.2,0.3-0.5,0.4-1,0.5c-0.3,0.1-0.6,0.2-0.9,0.4c-0.3,0.1-0.7,0.3-1.4,0.5c-0.1,0.5-0.1,0.8-0.1,0.9
		c0,0.1,0,0.3-0.1,0.7C123.4,16.6,123.4,16.9,123.2,17z M118.7,26.3c0.4-0.5,0.7-1,0.9-1.4c0.2-0.4,0.5-1,0.8-1.9
		c-0.4,0.1-0.7,0.1-0.9,0.1c-0.3,0.2-0.7,0.3-1.1,0.2c-0.4,0.2-0.6,0.3-0.8,0.3s-0.3,0-0.5,0.1c-0.2,0.1-0.4,0.2-0.7,0.3
		c-0.3,0.3-0.6,0.6-0.8,0.8s-0.3,0.4-0.2,0.5c0,0.1,0.1,0.3,0.1,0.5c0,0.2,0.2,0.5,0.5,0.8c0.4,0.2,0.7,0.3,0.9,0.4
		c0.2,0,0.4,0,0.8,0C117.9,26.9,118.2,26.7,118.7,26.3z"/>
	<path class="st0" d="M158.9,1c0.2,0.3,0.2,0.7,0.2,1.1c0,0.4,0,0.8,0,1c0,0.3,0,0.5,0,0.6c0,0.1-0.1,0.4-0.1,0.8
		c0,0.4,0,1.1-0.1,1.9c0.6,0,1.2,0,2,0c0.8,0,1.6,0,2.6,0.1c0.7,0.1,1.2,0.1,1.4,0.1c0.2,0,0.4,0.1,0.6,0.1c0.2,0,0.5,0,0.8,0.1
		c-0.1-1-0.1-1.6-0.2-1.9c-0.1-0.3-0.1-0.7-0.1-1.1c0-0.4,0-0.8,0-1c0-0.6,0.1-0.9,0.3-1.1c0.1-0.2,0.4-0.3,0.7-0.4
		c0.3-0.1,0.6-0.1,0.8,0c0.2,0.1,0.4,0.3,0.4,0.6s0,0.5-0.1,0.7C168,2.8,168,3.2,168,3.8c0,0.7,0,1.3,0,1.7c0,0.4,0.1,0.9,0.3,1.6
		c0.2,0.2,0.4,0.4,0.5,0.6c0.1,0.3,0.1,0.5,0.1,0.7c0,0.2,0,0.4-0.1,0.6c0.2,0.4,0.2,0.7,0.2,0.9c0,0.2-0.1,0.3-0.3,0.4
		c-0.2,0.1-0.3,0.1-0.5,0.2c-0.2,0.1-0.5-0.1-0.9-0.4c-0.1-0.4-0.3-0.8-0.4-1.2c-0.4-0.1-0.7-0.1-0.9-0.2c-0.2-0.1-0.4-0.1-0.6-0.1
		s-0.4-0.1-0.6-0.3c-0.4,0.1-0.8,0-1.3-0.2c-0.9-0.1-1.4-0.1-1.6-0.1c-0.2,0-0.6,0-1-0.1c-0.5-0.1-1.1,0-2,0.1
		c-0.1,0.8-0.1,1.5-0.2,2.1c-0.1,0.6-0.3,1.3-0.4,2c0.1,0.5,0.1,0.8,0.1,1.1c0,0.3,0,0.5-0.1,0.7c0,0.2-0.1,0.6-0.1,1
		c-0.1,0.4-0.1,0.7-0.2,0.9c-0.1,0.2-0.2,0.5-0.4,0.7c0.1,0.4,0,0.7,0,1s-0.1,0.4-0.2,0.6c-0.1,0.1-0.1,0.4-0.2,0.6
		c0,0.5-0.2,0.9-0.5,1.1c-0.1,0.4-0.2,0.7-0.2,1c-0.1,0.3-0.2,0.5-0.3,0.8c-0.1,0.2-0.2,0.4-0.3,0.6c0,0.2-0.2,0.6-0.5,1.3
		c-0.3,0.7-0.5,1.1-0.6,1.2c-0.1,0.2-0.2,0.4-0.2,0.6c-0.1,0.2-0.2,0.5-0.3,0.8c-0.1,0.4-0.2,0.7-0.3,0.8c-0.1,0.1-0.2,0.4-0.3,0.7
		c-0.1,0.3-0.2,0.6-0.3,0.7s-0.2,0.3-0.3,0.5c-0.1,0.2-0.2,0.6-0.5,1c-0.1,0.4-0.1,0.7-0.3,0.8c-0.1,0.2-0.2,0.4-0.4,0.5
		c-0.1,0.2-0.3,0.3-0.6,0.4c-0.3,0.1-0.5,0.1-0.7-0.1c-0.2-0.2-0.3-0.3-0.5-0.5c-0.1-0.2-0.2-0.4-0.1-0.8c0.1-0.3,0.2-0.6,0.5-0.8
		c0.2-0.2,0.4-0.4,0.6-0.6c0.2-0.2,0.5-0.6,0.9-1.3c0.3-0.6,0.5-1,0.6-1.2c0.1-0.2,0.3-0.7,0.6-1.3s0.5-1.1,0.7-1.4
		c0.1-0.3,0.4-1,0.9-2.3c-0.6,0.2-0.9,0.2-1.1,0.2c-0.2-0.1-0.4-0.1-0.6-0.2c-0.2-0.1-0.5-0.3-0.8-0.6c-0.2-0.2-0.4-0.4-0.6-0.7
		c-0.1-0.3-0.3-0.4-0.4-0.5c-0.1-0.1-0.2-0.3-0.2-0.7c-0.2-0.1-0.3-0.3-0.3-0.5c0-0.2,0-0.4-0.1-0.6c-0.1-0.2-0.1-0.4,0.1-0.8
		c-0.1-0.4-0.1-0.6,0-0.7c0.1-0.1,0-0.3,0-0.5c-0.1-0.2-0.1-0.4,0-0.5c0.1-0.2,0.2-0.4,0.3-0.8c0.2-0.4,0.3-0.8,0.5-1.1
		c0.2-0.3,0.4-0.6,0.7-0.8c0.1-0.3,0.3-0.5,0.5-0.5c0.2-0.1,0.4-0.2,0.5-0.4c0.2-0.2,0.4-0.3,0.6-0.4c0.4-0.1,0.8-0.1,1.2-0.1
		s0.7,0,0.9,0c0.2,0.1,0.5,0.3,1,0.7c0.2-0.8,0.3-1.3,0.3-1.5c0-0.2,0-0.4,0.1-0.7c0.1-0.2,0.1-0.4,0-0.6c0-0.2,0-0.5,0-1
		c-0.6-0.1-1-0.1-1.4,0c-0.3,0-0.8,0.1-1.3,0.1c-0.5,0-1,0.1-1.5,0.1c-0.3,0.2-0.7,0.1-1.1,0c-0.5,0.2-0.8,0.3-1,0.4
		s-0.3,0.1-0.5-0.1c-0.2-0.1-0.4-0.1-0.7-0.1s-0.5,0.2-0.7,0.2c-0.2,0.1-0.4,0.1-0.6,0.2c-0.2,0-0.4,0-0.5-0.1
		c-0.5,0.1-1,0.2-1.5,0.3c-0.1,0.2-0.3,0.3-0.5,0.3c-0.2,0-0.4,0-0.6,0c-0.2,0-0.5,0.1-0.7,0.1c-0.3,0.3-0.5,0.4-0.7,0.4
		c-0.2,0-0.5-0.1-0.8-0.1c-0.1,0.2-0.3,0.3-0.6,0.3c-0.1,0.2-0.3,0.3-0.5,0.2s-0.3,0-0.4,0.1c0,0.1-0.2,0.1-0.4,0.2
		c-0.2,0-0.4,0.1-0.5,0.2c-0.2,0.1-0.4,0.1-0.6,0.1c-0.2,0.2-0.3,0.3-0.4,0.3s-0.2,0.1-0.4,0.2c-0.1,0.1-0.4,0.3-0.7,0.5
		c-0.3,0.2-0.6,0.3-0.7,0.4c-0.1,0.1-0.3,0.2-0.4,0.2c-0.2,0-0.4-0.1-0.6-0.4c-0.2-0.3-0.3-0.5-0.2-0.8c0.1-0.3,0.3-0.6,0.7-1
		c0.3-0.3,0.6-0.4,0.8-0.5c0.2,0,0.4-0.1,0.5-0.2c0.1-0.1,0.5-0.2,1.1-0.3c0.6-0.1,1.2-0.3,1.8-0.4c2.2-0.5,4.1-0.9,5.7-1.1
		c1.6-0.2,3.5-0.4,5.6-0.6c2.1-0.2,3.6-0.2,4.5-0.2c0-0.4,0.1-0.8,0.2-1.1c-0.1-0.3-0.1-0.5-0.1-0.6c0-0.2,0-0.3-0.1-0.4
		c-0.1-0.1-0.1-0.4,0.1-0.7c-0.2-0.3-0.2-0.5-0.2-0.6c0-0.2,0-0.4,0-0.9c-0.1-0.4-0.2-0.8-0.1-1c0.1-0.2,0.2-0.4,0.5-0.6
		c0.2-0.2,0.5-0.2,0.9-0.2C158.7,0.4,158.9,0.7,158.9,1z M153.7,19.5c0.4,0.1,0.6,0,0.7-0.2c0.1-0.2,0.3-0.4,0.6-0.7
		c0.1-0.4,0.3-0.8,0.5-1.3c0.2-0.3,0.3-0.7,0.3-1c0.2-0.6,0.3-1.1,0.4-1.4c0.1-0.3,0.1-0.8,0-1.3c-0.2-0.3-0.3-0.6-0.4-0.7
		c-0.1-0.1-0.3-0.2-0.5-0.2c-0.2,0-0.6,0-1.1,0.1c-0.4,0.2-0.7,0.3-0.8,0.4c-0.2,0.1-0.3,0.3-0.5,0.5c-0.3,0.4-0.4,0.7-0.4,1.1
		c-0.1,0.3-0.2,0.7-0.3,0.9c-0.1,0.3-0.1,0.6-0.1,0.9c0,0.3,0,0.6,0.1,0.8c0.1,0.2,0.1,0.5,0.2,0.9c0.2,0.3,0.4,0.5,0.5,0.7
		C153.1,19.4,153.3,19.5,153.7,19.5z M174.2,7.3c0.4,0.4,0.5,0.8,0.5,1.1c-0.1,0.3-0.3,0.4-0.5,0.6c-0.3,0.1-0.5,0.2-0.7,0.2
		c-0.2,0-0.3-0.1-0.5-0.3c-0.1-0.2-0.3-0.4-0.5-0.6c-0.2-0.4-0.3-0.7-0.4-0.9c-0.1-0.2-0.2-0.6-0.4-1.2s-0.3-1.2-0.4-1.8
		c-0.1-0.5-0.2-0.9-0.2-1.1c0-0.2,0.1-0.5,0.4-0.8c0.2-0.3,0.6-0.4,0.9-0.2c0.4,0.1,0.6,0.3,0.7,0.5c0.1,0.2,0.2,0.4,0.2,0.6
		c0,0.2,0,0.5-0.1,1.1c0.1,0.5,0.1,0.9,0.2,1.2c0.1,0.3,0.2,0.6,0.4,0.8C174,6.7,174.1,7,174.2,7.3z"/>
	<path class="st0" d="M182,17.3c-0.1,0.3-0.1,0.6-0.2,0.7s-0.1,0.4-0.2,0.6c0,0.4,0,0.7-0.2,0.9c0.1,0.3,0,0.6-0.1,0.7
		c-0.1,0.1-0.1,0.3-0.1,0.4c0,0.1,0,0.3,0,0.5c-0.1,0.2-0.1,0.5,0,0.9c-0.1,0.3-0.1,0.7,0,1c0,0.3,0,0.5,0,0.8c0,0.2,0,0.5,0,0.9
		c0,0.4,0,0.9,0.2,1.4c0.1,0.6,0.4,1,0.7,1.3c0.5,0,0.9-0.1,1.3-0.2c0.4-0.1,0.7-0.1,1-0.1s0.5,0.1,0.6,0.3s0.2,0.4,0.3,0.5
		c0,0.2,0,0.4-0.1,0.7c-0.1,0.3-0.2,0.5-0.4,0.5c-0.2,0.1-0.4,0.1-0.6,0.2c-0.2,0.1-0.5,0.2-0.9,0.3c-0.4,0.1-0.8,0.2-1.2,0.2
		c-0.4-0.1-0.7-0.2-1.1-0.5s-0.6-0.6-0.7-1c0-0.1,0-0.3-0.1-0.4s-0.1-0.4-0.2-0.6c0-0.2-0.1-0.5-0.1-0.8c0-0.2,0-0.4,0-0.5
		c-0.1-0.2-0.1-0.5,0-0.9c0.1-0.3,0.1-0.5,0-0.7c-0.1-0.2-0.1-0.4-0.1-0.7c0-0.3,0.1-0.8,0.2-1.5c0.1-1.7,0.3-3.1,0.6-4.3
		c0.2-1.2,0.6-2.5,0.9-3.9c0.4-1.4,0.7-2.6,1-3.6c0.3-0.9,0.6-1.8,0.9-2.6c0.3-0.8,0.5-1.4,0.7-1.8c0.4-0.9,0.7-1.5,0.8-1.7
		c0.1-0.2,0.3-0.6,0.6-1.1c0.3-0.4,0.6-0.6,1-0.7c0.2,0,0.4,0,0.5,0s0.3,0,0.5,0.1c0.2,0,0.3,0.2,0.4,0.5c0.1,0.3,0.1,0.6,0,0.8
		c-0.1,0.2-0.2,0.4-0.4,0.5c-0.2,0.1-0.4,0.3-0.7,0.6c-0.3,0.3-0.4,0.5-0.4,0.7c0,0.1-0.1,0.3-0.3,0.4c-0.1,0.4-0.2,0.7-0.3,0.8
		c-0.1,0.1-0.1,0.3-0.3,0.4c-0.1,0.2-0.2,0.3-0.4,0.4c0,0.4-0.1,0.6-0.2,0.7c-0.1,0.1-0.2,0.4-0.4,0.7c-0.1,0.4-0.2,0.7-0.4,0.8
		c0,0.4,0,0.7-0.1,0.9c-0.1,0.2-0.2,0.5-0.3,0.9c-0.1,0.3-0.2,0.5-0.2,0.7c0,0.2-0.1,0.3-0.2,0.5c-0.1,0.2-0.2,0.4-0.3,0.6
		c-0.1,0.2-0.1,0.4-0.1,0.5c0,0.2,0,0.3-0.2,0.4c-0.1,0.3-0.2,0.6-0.1,0.7c0,0.1-0.1,0.3-0.3,0.5c0,0.3-0.1,0.5-0.2,0.7
		C182.2,16.7,182.2,17,182,17.3z M195.2,20.2c0.4,0.3,0.8,0.5,1.3,0.6c0.5,0.2,0.9,0.3,1.3,0.4c0.4,0.1,0.8,0.2,1.2,0.3
		c0.7,0,1.2,0.1,1.5,0.1c0.3,0,0.5,0,0.7,0c0.2,0,0.5,0,0.8,0c0.4-0.1,0.6-0.1,0.8-0.1c0.2,0,0.4,0.1,0.5,0.1
		c0.2,0.1,0.3,0.2,0.4,0.4s0.1,0.4,0.1,0.6c0,0.2-0.1,0.4-0.3,0.6c-0.2,0.2-0.4,0.3-0.8,0.4c-0.6-0.1-1.1-0.1-1.5-0.1
		s-0.9-0.1-1.3-0.1c-0.8-0.1-1.3-0.2-1.5-0.3c-0.3-0.1-0.6-0.1-0.9-0.2c-0.3-0.2-0.6-0.2-0.9-0.3c-0.3,0-0.5-0.1-0.7-0.2
		c-0.2-0.1-0.4-0.1-0.6-0.1c-0.2,0.1-0.5-0.1-1-0.4c-0.3,0-0.6-0.2-0.9-0.5c-0.3,0-0.6-0.2-0.8-0.6c-0.2-0.4-0.2-0.7-0.1-1
		s0.4-0.5,0.7-0.6c0.3-0.1,0.6-0.1,0.7,0s0.3,0.1,0.6,0.1C195,19.6,195.2,19.8,195.2,20.2z M194.9,11c0.5-0.2,0.9-0.3,1.2-0.3
		c0.3-0.1,0.7-0.1,1.3-0.2c0.6-0.1,1.2-0.1,1.7-0.1c0.4,0,0.8,0,1.2,0c0.4,0,0.8,0,1.1,0.1c0.3,0.1,0.7,0.3,1,0.4
		c0.2,0.3,0.4,0.6,0.5,0.8c0.1,0.3,0.1,0.5,0,0.7c-0.1,0.2-0.3,0.4-0.5,0.5s-0.5,0.1-0.9-0.1c-0.2-0.1-0.3-0.2-0.4-0.2
		c-0.1,0-0.4-0.1-0.8-0.3c-0.3,0.2-0.5,0.3-0.7,0.2c-0.2-0.1-0.4-0.1-0.8-0.1c-0.3-0.1-0.6-0.1-0.7,0c-0.1,0.1-0.4,0.1-0.9,0
		c-0.3,0.2-0.5,0.3-0.7,0.2c-0.2,0.2-0.4,0.3-0.5,0.2s-0.4,0-0.6,0.2c-0.1,0.1-0.2,0.2-0.3,0.3c-0.1,0.1-0.3,0.2-0.4,0.3
		s-0.3,0.1-0.5,0c-0.2-0.1-0.4-0.2-0.5-0.4c-0.1-0.2-0.2-0.4-0.3-0.6c0.1-0.4,0.2-0.8,0.5-1.1C194.2,11.3,194.5,11.1,194.9,11z"/>
	<path class="st0" d="M214.1,22.2c0.4,0.7,0.7,1.1,0.9,1.5c0.3,0.2,0.5,0.3,0.5,0.5c0.1,0.2,0.2,0.4,0.4,0.6
		c0.2,0.2,0.3,0.5,0.4,0.6c0.1,0.2,0.2,0.4,0.4,0.7c0.2,0.3,0.4,0.6,0.5,0.7c0.1,0.2,0.2,0.3,0.4,0.5c0.1,0.1,0.3,0.3,0.5,0.5
		c0.3,0.4,0.4,0.8,0.4,0.9c0,0.2-0.1,0.4-0.1,0.5c-0.1,0.2-0.2,0.3-0.4,0.4c-0.2,0.1-0.4,0.2-0.4,0.2c-0.1,0-0.3,0-0.5-0.2
		c-0.2-0.1-0.4-0.3-0.5-0.5s-0.2-0.5-0.4-0.7c-0.2-0.3-0.4-0.6-0.6-0.9s-0.4-0.6-0.6-0.9c-0.2-0.3-0.5-0.9-1.1-1.7
		c-0.5-0.8-1.1-1.4-1.7-1.9c-0.3-0.3-0.5-0.6-0.6-0.8c-0.1-0.2,0-0.4,0.1-0.7c0.1-0.3,0.4-0.5,0.9-0.6c0.2,0.1,0.4,0.1,0.5,0.2
		c0.1,0,0.2,0.1,0.4,0.3C213.6,21.6,213.8,21.9,214.1,22.2z"/>
	<path class="st0" d="M16.9,61.5c0.2-0.7,0.4-1.5,0.8-2.5c-0.4-0.1-0.7-0.1-1-0.1c-0.3,0-0.7,0.1-1.3,0.2c-0.2,0.1-0.3,0.2-0.5,0.2
		c-0.2,0-0.4,0-0.5,0.1c-0.2,0.3-0.3,0.5-0.4,0.6c-0.1,0.1-0.2,0.3-0.4,0.4c-0.2,0.1-0.4,0.1-0.6,0c-0.2-0.1-0.4-0.2-0.6-0.3
		c-0.2-0.1-0.2-0.4-0.3-0.6c0-0.7,0.2-1.1,0.8-1.4c0.6-0.2,1.1-0.4,1.5-0.4c0.5-0.1,0.8-0.1,1-0.1s0.5,0,0.9-0.1
		c0.4-0.1,0.9-0.1,1.6-0.1c0.1-1.2,0.2-1.9,0.2-2.1c0.1-0.2,0.1-0.5,0-0.9c-0.7,0.1-1.1,0.1-1.3,0.1c-0.2,0-0.5,0.1-0.9,0.1
		c-0.4,0.1-1.1,0.2-2.1,0.4c-1,0.2-1.7,0.4-2,0.5c-0.3,0.1-0.6,0.3-1.1,0.5c-0.3,0.5-0.5,0.9-0.8,1.1c-0.3,0.2-0.5,0.3-0.7,0.2
		c-0.2-0.1-0.4-0.2-0.7-0.5c-0.3-0.3-0.3-0.7,0-1.3c0.7-0.6,1.5-1,2.2-1.2c0.8-0.2,1.6-0.4,2.4-0.5c0.8-0.2,2.5-0.4,5.1-0.7
		c0.1-0.6,0.1-1,0.1-1.2c0-0.2,0-0.5-0.1-0.9c-0.2-0.4-0.4-0.8-0.4-1.2c0.1-0.4,0.2-0.6,0.4-0.8c0.2-0.1,0.5-0.2,0.7-0.2
		c0.3,0.1,0.5,0.2,0.7,0.3c0.1,0.1,0.2,0.3,0.4,0.4c0.1,0.2,0.2,0.5,0.2,1.1c0,0.6,0,1,0,1.3c0,0.3,0,0.6-0.1,0.8
		c1-0.1,1.7-0.1,2.2-0.1s1.2,0,2.2,0c0.7,0,1.2,0.1,1.6,0.3c0.4,0.1,0.7,0.4,0.8,0.6c0.2,0.3,0.2,0.5,0.2,0.8c0,0.2-0.2,0.4-0.4,0.5
		c-0.2,0.1-0.4,0.2-0.6,0.3c-0.2,0.1-0.4,0-0.5-0.1c-0.2-0.1-0.3-0.3-0.4-0.4c-0.1-0.1-0.3-0.2-0.6-0.3c-0.6-0.1-1-0.1-1.2-0.2
		c-0.5,0.1-1,0.1-1.4,0.1c-0.4,0-1.1,0-2.1,0.1c-0.1,0.3-0.2,0.5-0.3,0.8c0,0.2-0.1,0.9-0.2,2.1c0.2,0.1,0.4,0.2,0.8,0.3
		s0.7,0.1,1.1,0.3s0.6,0.4,0.8,0.8c0.3,0.8,0.2,1.5-0.3,2.1c-0.3,0.2-0.8,0.5-1.3,0.8c-0.5,0.4-1.1,0.7-1.7,1
		c-0.4,0.2-0.7,0.4-0.9,0.5c1-0.1,2.3-0.1,3.8-0.1c1.5,0,3.1,0,4.9,0.2s3.1,0.2,4,0.3c0.4,0.1,0.8,0.1,1,0.1c0.2,0,0.5,0.1,0.8,0.3
		c0.3,0.2,0.5,0.7,0.6,1.3c0,0.4-0.1,0.6-0.3,0.8c-0.2,0.1-0.4,0.2-0.7,0.2c-0.2,0-0.5,0-0.7-0.1c-0.2-0.1-0.4-0.2-0.4-0.4
		c-0.1-0.2-0.2-0.4-0.4-0.7c-0.4-0.1-0.7-0.2-1-0.2s-0.5,0-0.8-0.1c-0.3-0.1-0.5-0.1-0.8-0.1c-0.2,0-0.5,0-0.7,0
		c-0.2,0-0.4,0-0.6-0.1c-0.3,0.1-0.5,0-0.9-0.1c-0.3,0-0.7-0.1-1.1-0.2c-0.3,0.1-0.6,0.1-0.7,0c-0.2-0.1-0.3-0.1-0.5,0s-0.4,0-0.6,0
		c-0.2-0.1-0.4-0.1-0.5,0c-0.2,0.1-0.4,0.1-0.8,0c-0.9,0-1.8,0-2.7,0.1c-0.1,0.4-0.3,0.7-0.4,0.8c-0.1,0.2-0.4,0.3-0.8,0.3
		c-0.4,0.1-0.8,0.2-1.1,0.3c-0.3,0.1-0.7,0.2-1.2,0.5c-0.4,0.2-0.8,0.4-1.1,0.6s-0.5,0.3-0.8,0.4c-0.2,0.2-0.3,0.3-0.5,0.4
		c-0.2,0.1-0.2,0.3,0,0.6l0.7,0.4c0.2,0.1,0.5,0.1,0.8,0.2c0.3,0,0.5,0.1,0.8,0.3c0.5,0.1,0.9,0.1,1.2,0.1c0.3,0,0.7,0.1,1,0.2
		c0.4-0.2,1-0.5,1.8-0.9s1.5-0.7,2.1-1c0.3-0.1,0.6-0.2,0.9-0.4c0.3-0.1,0.5-0.2,0.8-0.1c0.3,0.1,0.5,0.3,0.5,0.6
		c0.1,0.3,0.1,0.6,0,0.9s-0.5,0.5-1.1,0.5c-0.4,0.1-0.8,0.3-1.2,0.4c-0.4,0.2-1,0.4-1.8,0.8c-0.4,0.6-0.7,0.9-1,0.9
		c-0.3,0-0.7,0.1-1.4,0.1c-1,0.4-1.9,0.8-2.8,1.3c-0.9,0.5-1.6,0.9-1.9,1.2c-0.4,0.3-0.7,0.6-0.9,1c0.4,0.1,0.9,0.2,1.5,0.1
		c0.6,0,1.6-0.1,3-0.4c0.3-0.3,0.7-0.4,0.9-0.3c0.5-0.2,0.9-0.3,1.3-0.3c0.2-0.1,0.5-0.2,0.8-0.3c0.3-0.1,0.6-0.1,0.8-0.2
		c0.2-0.1,0.5-0.2,0.9-0.3c0.4-0.2,0.7-0.4,1-0.8c0-0.4,0.2-0.6,0.5-0.7c0.3-0.1,0.6-0.2,1-0.2c0.4-0.1,0.7,0.3,0.9,0.9
		c1.2,0.5,2,0.9,2.3,1c0.3,0.1,0.6,0.3,1.1,0.4c0.4,0,0.7,0,1,0.2c0.2,0.2,0.4,0.4,0.6,0.7c0.1,0.2,0.1,0.4-0.1,0.6
		c-0.2,0.2-0.4,0.3-0.6,0.4c-0.2,0.1-0.5,0-0.7-0.1c-0.2-0.1-0.6-0.4-1.1-0.7c-1.1-0.7-1.8-1-2.2-1.1c-0.3-0.1-0.8-0.2-1.3-0.4
		c-0.3,0.3-0.5,0.5-0.7,0.6c-0.2,0.1-0.6,0.3-1.1,0.6c-0.4,0.1-1,0.2-1.6,0.4c0.1,0.4,0,0.7,0,0.9c-0.1,0.2-0.1,0.6-0.2,1.2
		c0,0.3,0,0.6-0.1,0.9c-0.1,1.1-0.1,2-0.3,2.6s-0.2,1.2-0.3,1.8c-0.1,0.5-0.2,1-0.4,1.4c-0.3,0.4-0.6,0.6-1.2,0.5s-0.8-0.4-0.8-0.9
		c0-0.3,0.3-0.8,0.8-1.4c0.1-0.3,0.2-0.7,0.3-1c0.1-0.4,0.2-0.8,0.2-1.2c0-0.4,0.1-0.8,0.2-1.2c0-0.5,0-1,0-1.5
		c0.1-0.5,0-1.1-0.2-1.7c-0.2,0.1-0.4,0.2-0.8,0.3c-0.3,0.1-0.6,0.2-0.8,0.2c-0.2,0-0.4,0-0.7,0c-0.3,0-0.5,0.1-0.6,0.2
		c-0.1,0.1-0.3,0.2-0.5,0.2c-0.2,0-0.3,0-0.5,0c-0.2,0-0.5,0-1,0.1c-0.5,0.1-0.9,0.2-1.2,0.1c-0.3,0.1-0.8,0.1-1.4,0
		c-0.5-0.2-0.9-0.4-1-0.6C9.1,75.6,9,75.2,9,74.6c0.3-0.4,0.6-0.9,1.1-1.3c0.5-0.4,1.1-0.8,1.7-1.1c0.6-0.4,1.5-0.9,2.7-1.6
		c-0.3-0.2-0.6-0.4-0.8-0.5c-0.3-0.1-0.6-0.2-0.7-0.3c-0.2-0.1-0.5-0.3-0.9-0.5c-0.4-0.2-0.7-0.4-1-0.8c-0.3-0.4-0.3-0.8-0.1-1.3
		c0.1-0.2,0.2-0.4,0.4-0.6c0.2-0.2,0.5-0.3,0.8-0.5c0.6-0.4,1.4-1,2.5-1.6l-0.8,0.1c-1,0.2-1.9,0.3-2.8,0.5c-0.5,0.1-0.9,0.2-1,0.3
		c-0.1,0.1-0.5,0.2-1,0.2c-0.3,0.2-0.4,0.3-0.6,0.3s-0.3,0-0.4,0.1c-0.2,0.1-0.4,0.2-0.6,0.2c-0.3,0.1-0.7,0.3-1.4,0.7
		c0.3,0.1,0.4,0.3,0.3,0.5c-0.1,0.3-0.2,0.5-0.4,0.6c-0.2,0.1-0.5,0.2-0.8,0.2c-0.3,0-0.6-0.1-1-0.3c-0.3-0.2-0.5-0.5-0.4-0.9
		c0.1-0.4,0.2-0.7,0.4-1c0.3-0.2,0.5-0.3,0.7-0.4c0.2-0.1,0.8-0.4,1.7-0.7c0.9-0.3,1.8-0.5,2.6-0.7c0.8-0.2,2.9-0.5,6.4-1.1
		c0.1-0.7,0.3-1.1,0.6-1.2C16.5,61.7,16.7,61.6,16.9,61.5z M11.6,78.2c0.3-0.3,0.6-0.6,0.9-0.6c0.3-0.1,0.5-0.1,0.7-0.1
		c0.2,0,0.4,0.1,0.5,0.2c0.2,0.1,0.3,0.3,0.4,0.5c0.1,0.2,0.2,0.5,0.1,0.7c-0.1,0.3-0.2,0.4-0.4,0.5c-0.2,0.1-0.4,0.1-0.5,0
		c-0.2-0.1-0.4,0-0.6,0.1c-0.2,0.1-0.6,0.3-1.1,0.6c-0.5,0.3-1,0.7-1.5,1.1c-0.5,0.4-1.3,1-2.2,1.8c-0.5,0.3-1,0.4-1.2,0.3
		c-0.3-0.2-0.5-0.3-0.6-0.5C6,82.7,6.1,82.4,6.3,82c0.2-0.4,0.6-0.7,1.1-0.9C7.6,81,7.8,80.8,8,80.7c0.2-0.1,0.6-0.4,1.2-0.8
		c0.6-0.4,1-0.7,1.2-0.8C10.5,78.9,10.9,78.6,11.6,78.2z M20.5,59.4c-0.5-0.2-1-0.3-1.5-0.3c-0.1,0.3-0.2,0.9-0.4,1.8
		c0.7-0.4,1.2-0.7,1.4-0.9S20.4,59.6,20.5,59.4z M28.9,80.1c0.5,0.3,0.9,0.5,1.1,0.7c0.2,0.1,0.4,0.3,0.4,0.5c0.1,0.2,0,0.5-0.2,0.8
		c-0.2,0.3-0.5,0.4-0.8,0.4c-0.3,0-0.6-0.2-0.8-0.5c-0.3-0.3-0.5-0.5-0.6-0.5c-0.2,0-0.3-0.1-0.4-0.2c-0.2-0.2-0.5-0.4-0.9-0.6
		c-0.4-0.3-0.8-0.5-1.2-0.8c-0.3-0.1-0.6-0.2-0.8-0.5c-0.4-0.1-0.7-0.3-1-0.5c-0.3-0.2-0.6-0.4-1-0.7c-0.3-0.4-0.3-0.9,0-1.3
		c0.3-0.5,0.6-0.6,1-0.4c0.4,0.2,0.6,0.3,0.7,0.5c0.1,0.2,0.3,0.4,0.5,0.7c0.2,0.3,0.5,0.5,1,0.8c0.4,0.3,0.8,0.5,1.2,0.8
		C27.6,79.4,28.2,79.7,28.9,80.1z"/>
	<path class="st0" d="M71.5,80.1c0.4,0.1,0.6,0.2,0.8,0.3c0.2,0.1,0.3,0.3,0.4,0.5c0.1,0.3,0.1,0.5,0,0.7s-0.3,0.4-0.5,0.5
		c-0.2,0.1-0.5,0.1-0.8,0c-0.3-0.1-0.7-0.2-1.1-0.4c-0.3,0.1-0.5,0.1-0.8,0c-0.2,0-0.5,0-0.7,0c-0.2,0.1-0.3,0.1-0.5,0
		c-0.1-0.1-0.3-0.2-0.4,0s-0.4,0.1-0.7-0.1c-0.3,0.1-0.5,0.2-0.7,0.3c-0.1,0-0.4,0-0.8-0.1c-0.4,0.1-0.8,0.2-1,0.2
		c-0.4,0-0.7,0-0.9,0c-0.2,0-0.4,0-0.5,0.1c-0.1,0.1-0.3,0.1-0.5,0.1c-0.2,0-1.1,0-2.6,0.1c-1.5,0.1-2.4,0.1-2.7,0.2
		c-0.2,0.1-0.6,0.1-0.9,0.1c-0.4,0-0.9,0-1.5,0.1c-0.7,0.1-1.1,0.1-1.3,0.1c-0.2,0-0.4,0-0.6,0c-0.5,0-1,0-1.4,0.1
		c-0.4,0.1-0.9,0.1-1.4,0c-0.4,0-0.9-0.1-1.5-0.2c-0.5-0.1-1-0.3-1.5-0.6c-0.4-0.3-0.7-0.5-0.9-0.8c-0.2-0.2-0.3-0.5-0.4-0.9
		C45.9,80,46,79,46.2,77.5c0.2-1.5,0.4-2.5,0.5-3.2c0.1-0.7,0.3-1.5,0.5-2.4c0.2-0.9,0.3-1.6,0.4-2.1c0.3-1.2,0.5-2.4,0.8-3.6
		c0.5-0.5,0.9-0.7,1.3-0.7c0.4,0.1,0.7,0.2,0.9,0.4c0.2,0.2,0.4,0.4,0.4,0.6s0,0.5-0.1,0.7c-0.1,0.2-0.3,0.4-0.7,0.6
		C50,68,50,68.2,49.9,68.4c-0.1,0.2-0.2,0.4-0.4,0.7c0,0.3,0,0.5-0.1,0.6c-0.1,0.2-0.1,0.3-0.1,0.5S49.2,70.7,49,71
		c0.1,0.4,0.1,0.7,0,0.8c-0.1,0.2-0.2,0.3-0.1,0.5c0.1,0.2,0,0.4-0.1,0.5c-0.1,0.2-0.2,0.3-0.1,0.5s0,0.4-0.1,0.6
		c-0.1,0.2-0.2,0.3-0.3,0.3c0.1,0.4,0,0.8-0.2,1.1c-0.1,0.5-0.2,0.8-0.1,0.9c0.1,0.1,0,0.4-0.3,0.9c0,0.4,0,1-0.1,1.8
		c-0.1,0.8,0,1.3,0.4,1.6c0.3,0.3,0.9,0.5,1.6,0.6c0.7,0.2,2.2,0.2,4.4,0.1c1.1-0.1,2.9-0.3,5.3-0.4s4.6-0.3,6.6-0.6
		c2-0.2,3.3-0.4,3.9-0.5C70.2,79.9,70.8,79.9,71.5,80.1z M57.5,75.1c0.3,0,0.5,0,0.7,0c0.1,0,0.4,0,0.6,0c0.3,0,0.5,0.1,0.8,0.1
		c0.4-0.2,1-0.2,1.6-0.2c0.6,0,1.1,0,1.6-0.1c0.3-0.1,0.6-0.1,1-0.1c0.4-0.2,0.7-0.2,0.9-0.2c0.3-0.6,0.5-1.4,0.6-2.3h-3
		c-0.4,0.2-0.7,0.2-0.9,0.2c-0.2,0-0.5,0-0.9,0s-0.7,0.1-1,0.2c-0.5,0.1-0.8,0.1-0.9,0.2c-0.1,0.1-0.4,0.1-0.8,0.1
		c-0.4,0.1-0.6,0.2-0.8,0.3c-0.1,0.1-0.3,0.1-0.5,0c-0.2-0.1-0.4-0.3-0.6-0.4s-0.2-0.3-0.2-0.5c0-0.2,0.1-0.4,0.2-0.6
		c0.1-0.2,0.4-0.4,1-0.6c0.4-0.2,0.8-0.3,1-0.3c0.3-0.1,0.5-0.1,0.8-0.2c0.4-0.4,0.7-0.7,0.9-0.8c0.2-0.1,0.5-0.3,0.8-0.5
		c0.3-0.2,0.6-0.5,1-0.7c0.4-0.3,0.8-0.6,1.3-1c-0.7-0.2-1.2-0.2-1.7-0.2c-0.4,0.1-0.8,0.1-0.9,0.1c-0.2,0-0.4,0.1-0.5,0
		c-0.2,0-0.4,0.1-0.7,0.2c-0.3,0.1-0.5,0.3-0.7,0.4c-0.2,0.5-0.3,0.8-0.5,0.9s-0.5,0.1-1-0.1c-0.4-0.2-0.7-0.4-0.7-0.8
		c0-0.4,0.1-0.7,0.2-0.9c0.2-0.3,0.4-0.5,0.7-0.6c0.3-0.2,0.7-0.3,1-0.3c0.2,0,0.5-0.1,0.7-0.2c0.3-0.1,0.6-0.2,0.8-0.2s0.6,0,1,0
		c0.1-0.1,0.2-0.1,0.4-0.1c0.2,0.1,0.4,0.1,0.6,0c0.1-0.1,0.3-0.2,0.4-0.2c0.2,0,0.4,0,0.8,0.1c0.3,0,0.6,0.1,0.8,0.1
		c0.2,0,0.4,0.1,0.7,0.1c0.4,0.5,0.6,0.9,0.7,1.2c0.1,0.3,0,0.7-0.3,1.2c-0.3,0.3-0.7,0.6-1.1,0.8c-0.4,0.3-0.7,0.5-1.1,0.8
		c-0.4,0.3-0.8,0.6-1.4,1c1.4-0.1,2.3-0.2,2.8-0.2c0.4,0,0.9-0.1,1.6-0.2c0.1-0.8,0.2-1.3,0.2-1.6c0-0.3,0-0.6,0-0.8
		c0-0.3,0.1-0.6,0.1-1.1c0.1-0.5,0.1-1,0.1-1.5c0-0.5,0-1.1,0-1.9c-0.2-0.2-0.4-0.4-0.7-0.5C64.9,63,64.7,63,64.5,63
		c-0.2,0-0.5,0.1-0.9,0.1c-0.5,0-1,0.1-1.5,0.2c-0.4,0.1-1,0.3-1.8,0.6c-0.2,0.4-0.4,0.6-0.6,0.7c-0.2,0.1-0.4,0.2-0.7,0.1
		c-0.2,0-0.5-0.1-0.7-0.1c-0.2,0-0.4-0.2-0.5-0.4c-0.1-0.2-0.1-0.5,0-0.9c0.2-0.2,0.4-0.3,0.6-0.5c0.2-0.1,0.4-0.3,0.8-0.4
		c0.1-0.3,0.1-0.6,0.1-0.9c0-0.4,0-0.8,0.1-1.3c0.1-0.4,0.3-1.5,0.5-3.1c-1.6,0.2-2.6,0.3-2.8,0.3c-0.2,0-0.6,0.1-1.1,0.2
		c-0.4,0.1-0.7,0.2-0.9,0.3c-0.2,0.1-0.5,0.1-0.8,0c-0.4,0.2-1.1,0.3-1.9,0.4c-0.6,0.2-1,0.4-1.2,0.6c-0.2,0.1-0.4,0.2-0.5,0.3
		s-0.3,0-0.4,0c-0.4,0.2-0.6,0.4-0.8,0.5c-0.2,0.1-0.4,0.2-0.8,0.3s-0.6-0.1-0.7-0.4C48,59.3,47.9,59,48,58.7c0-0.3,0.2-0.6,0.5-0.7
		c0.4-0.2,0.7-0.3,1.1-0.4c1.1-0.3,2-0.5,2.8-0.6c0.8-0.1,1.7-0.3,2.7-0.4c1-0.1,2.8-0.3,5.2-0.6c0.2-1,0.4-1.8,0.4-2.2
		c0-0.5,0-0.9-0.1-1.2c-0.2-0.5-0.2-0.9,0-1.2s0.5-0.5,0.9-0.5c0.5,0,0.8,0.2,0.8,0.4c0,0.3,0.1,0.6,0.2,0.9c0,0.5,0,0.9,0.1,1.3
		c0,0.3-0.1,1.1-0.4,2.3c3-0.2,4.8-0.4,5.3-0.4c0.5,0,1,0,1.3-0.1c0.3,0,0.6,0,0.9,0c0.3,0,0.6,0,0.9,0c0.3,0,0.8,0.1,1.7,0.3
		c0.3,0.1,0.5,0.3,0.6,0.5c0.1,0.2,0.2,0.4,0.1,0.7c-0.1,0.3-0.2,0.6-0.6,0.8c-0.3,0.2-0.6,0.2-0.9,0.1c-0.3-0.1-0.7-0.3-1.2-0.6
		c-0.2,0.1-0.4,0-0.5-0.1c-0.1-0.1-0.3-0.2-0.5-0.3c-0.2-0.1-0.4-0.1-0.8,0c-0.5-0.1-1-0.2-1.6-0.2c-0.7,0.1-1.4,0.1-2.2,0.2
		c-0.8,0.1-1.7,0.2-2.9,0.4c-0.1,0.4-0.3,1.1-0.4,1.9c-0.2,0.9-0.3,1.5-0.4,1.9c-0.1,0.4-0.1,0.8,0,1.2c0.8-0.2,1.6-0.4,2.5-0.5
		s1.5-0.1,1.8,0c0.3,0,0.6,0.1,0.9,0.3c0.3,0.2,0.5,0.4,0.7,0.7c0.2,0.3,0.4,0.8,0.4,1.4c0,0.9-0.1,1.4-0.1,1.7c0,0.2,0,0.5,0,0.8
		c0,0.3-0.1,0.5-0.2,0.8c0.1,0.4,0.1,0.9-0.1,1.3c0,0.3-0.1,1-0.2,2.1c0.4,0.1,0.6,0.1,0.8,0.2c0.3,0.2,0.4,0.5,0.4,0.8
		c0,0.3-0.1,0.5-0.4,0.5c-0.2,0.1-0.5,0.1-0.9,0.1c0,0.3,0,0.5,0,0.6c0,0.4-0.1,0.8-0.3,1.4h0.8c0.3,0,0.6,0.1,1,0.4
		c0.1,0.3,0.1,0.5,0.1,0.8c-0.1,0.2-0.2,0.4-0.3,0.5S67.5,76,67.3,76c-0.3,0-0.6,0-0.9,0.1c-0.1,0.5-0.3,0.9-0.5,1.2
		c-0.2,0.2-0.5,0.4-0.7,0.4c-0.2,0.1-0.5,0-0.8-0.1c-0.3-0.1-0.5-0.3-0.6-0.5c-0.1-0.2,0-0.4,0.1-0.7c-0.6,0-1.1,0-1.5,0.1
		s-0.9,0.1-1.6,0.2c-0.7,0-1.2,0.1-1.6,0.2S58.3,77,58.2,77c-0.2,0-0.4,0-0.7,0.1s-0.5,0-0.7,0c-0.6-0.1-0.9-0.4-0.9-0.9
		c0-0.5,0.1-0.7,0.3-0.9s0.4-0.2,0.6-0.2C56.8,75.1,57.1,75.1,57.5,75.1z M54.9,67.8c0,0.1,0,0.4-0.2,0.7c0,0.3,0,0.6-0.1,0.8
		c-0.1,0.3-0.2,0.7-0.2,1.3c0,0.3-0.1,0.5-0.1,0.6c-0.1,0.1-0.1,0.2,0,0.4s0,0.3,0,0.4c-0.1,0.1-0.1,0.3-0.1,0.6c0,0.3,0,0.7,0,1.2
		c-0.1,0.4-0.1,0.7,0.1,0.9c0.1,0.2,0.3,0.4,0.4,0.5c0.2,0.2,0.3,0.3,0.6,0.4c0.2,0.1,0.3,0.4,0.3,0.9c-0.1,0.5-0.2,0.8-0.5,0.9
		s-0.5,0.1-0.7,0c-0.2-0.1-0.4-0.2-0.7-0.4c-0.3-0.2-0.5-0.5-0.7-0.8c-0.2-0.3-0.3-0.8-0.4-1.4c-0.1-0.7,0-1.8,0.3-3.5
		c0.3-1.7,0.5-3,0.7-3.9c0.2-1,0.3-1.8,0.4-2.5c0.1-0.7,0.2-1.3,0.3-1.8s0.3-0.9,0.4-1.2c0.3-0.6,0.6-0.9,1.1-1
		c0.4-0.1,0.8,0.1,1,0.5c0.2,0.4,0.2,0.7,0.1,0.9c-0.2,0.2-0.4,0.5-0.6,0.9c-0.1,0.5-0.2,1-0.5,1.4c-0.2,0.3-0.2,0.5-0.2,0.7
		c0,0.1,0,0.3-0.1,0.5c-0.1,0.2-0.2,0.4-0.2,0.7C55.2,66.7,55.1,67.2,54.9,67.8z"/>
	<path class="st0" d="M85.5,69.3c-0.1,0.3-0.1,0.6-0.2,0.7s-0.1,0.4-0.2,0.6c0,0.4,0,0.7-0.2,0.9c0.1,0.3,0,0.6-0.1,0.7
		c-0.1,0.1-0.1,0.3-0.1,0.4c0,0.1,0,0.3,0,0.5c-0.1,0.2-0.1,0.5,0,0.9c-0.1,0.3-0.1,0.7,0,1c0,0.3,0,0.5,0,0.8c0,0.2,0,0.5,0,0.9
		c0,0.4,0,0.9,0.2,1.4c0.1,0.6,0.4,1,0.7,1.3c0.5,0,0.9-0.1,1.3-0.2c0.4-0.1,0.7-0.1,1-0.1s0.5,0.1,0.6,0.3s0.2,0.4,0.3,0.5
		c0,0.2,0,0.4-0.1,0.7c-0.1,0.3-0.2,0.5-0.4,0.5c-0.2,0.1-0.4,0.1-0.6,0.2c-0.2,0.1-0.5,0.2-0.9,0.3c-0.4,0.1-0.8,0.2-1.2,0.2
		c-0.4-0.1-0.7-0.2-1.1-0.5s-0.6-0.6-0.7-1c0-0.1,0-0.3-0.1-0.4s-0.1-0.4-0.2-0.6c0-0.2-0.1-0.5-0.1-0.8c0-0.2,0-0.4,0-0.5
		c-0.1-0.2-0.1-0.5,0-0.9c0.1-0.3,0.1-0.5,0-0.7c-0.1-0.2-0.1-0.4-0.1-0.7c0-0.3,0.1-0.8,0.2-1.5c0.1-1.7,0.3-3.1,0.6-4.3
		c0.2-1.2,0.6-2.5,0.9-3.9c0.4-1.4,0.7-2.6,1-3.6c0.3-0.9,0.6-1.8,0.9-2.6c0.3-0.8,0.5-1.4,0.7-1.8c0.4-0.9,0.7-1.5,0.8-1.7
		c0.1-0.2,0.3-0.6,0.6-1.1c0.3-0.4,0.6-0.6,1-0.7c0.2,0,0.4,0,0.5,0s0.3,0,0.5,0.1c0.2,0,0.3,0.2,0.4,0.5c0.1,0.3,0.1,0.6,0,0.8
		c-0.1,0.2-0.2,0.4-0.4,0.5c-0.2,0.1-0.4,0.3-0.7,0.6c-0.3,0.3-0.4,0.5-0.4,0.7c0,0.1-0.1,0.3-0.3,0.4c-0.1,0.4-0.2,0.7-0.3,0.8
		c-0.1,0.1-0.1,0.3-0.3,0.4c-0.1,0.2-0.2,0.3-0.4,0.4c0,0.4-0.1,0.6-0.2,0.7c-0.1,0.1-0.2,0.4-0.4,0.7c-0.1,0.4-0.2,0.7-0.4,0.8
		c0,0.4,0,0.7-0.1,0.9c-0.1,0.2-0.2,0.5-0.3,0.9C87.1,64,87,64.2,87,64.4c0,0.2-0.1,0.3-0.2,0.5c-0.1,0.2-0.2,0.4-0.3,0.6
		c-0.1,0.2-0.1,0.4-0.1,0.5c0,0.2,0,0.3-0.2,0.4c-0.1,0.3-0.2,0.6-0.1,0.7c0,0.1-0.1,0.3-0.3,0.5c0,0.3-0.1,0.5-0.2,0.7
		C85.7,68.7,85.6,69,85.5,69.3z M98.7,72.2c0.4,0.3,0.8,0.5,1.3,0.6c0.5,0.2,0.9,0.3,1.3,0.4c0.4,0.1,0.8,0.2,1.2,0.3
		c0.7,0,1.2,0.1,1.5,0.1c0.3,0,0.5,0,0.7,0c0.2,0,0.5,0,0.8,0c0.4-0.1,0.6-0.1,0.8-0.1c0.2,0,0.4,0.1,0.5,0.1
		c0.2,0.1,0.3,0.2,0.4,0.4c0.1,0.2,0.1,0.4,0.1,0.6c0,0.2-0.1,0.4-0.3,0.6c-0.2,0.2-0.4,0.3-0.8,0.4c-0.6-0.1-1.1-0.1-1.5-0.1
		s-0.9-0.1-1.3-0.1c-0.8-0.1-1.3-0.2-1.5-0.3c-0.3-0.1-0.6-0.1-0.9-0.2c-0.3-0.2-0.6-0.2-0.9-0.3c-0.3,0-0.5-0.1-0.7-0.2
		c-0.2-0.1-0.4-0.1-0.6-0.1c-0.2,0.1-0.5-0.1-1-0.4c-0.3,0-0.6-0.2-0.9-0.5c-0.3,0-0.6-0.2-0.8-0.6c-0.2-0.4-0.2-0.7-0.1-1
		s0.4-0.5,0.7-0.6c0.3-0.1,0.6-0.1,0.7,0s0.3,0.1,0.6,0.1C98.5,71.6,98.6,71.8,98.7,72.2z M98.3,63c0.5-0.2,0.9-0.3,1.2-0.3
		c0.3-0.1,0.7-0.1,1.3-0.2c0.6-0.1,1.2-0.1,1.7-0.1c0.4,0,0.8,0,1.2,0c0.4,0,0.8,0,1.1,0.1c0.3,0.1,0.7,0.3,1,0.4
		c0.2,0.3,0.4,0.6,0.5,0.8c0.1,0.3,0.1,0.5,0,0.7c-0.1,0.2-0.3,0.4-0.5,0.5s-0.5,0.1-0.9-0.1c-0.2-0.1-0.3-0.2-0.4-0.2
		c-0.1,0-0.4-0.1-0.8-0.3c-0.3,0.2-0.5,0.3-0.7,0.2c-0.2-0.1-0.4-0.1-0.8-0.1c-0.3-0.1-0.6-0.1-0.7,0c-0.1,0.1-0.4,0.1-0.9,0
		c-0.3,0.2-0.5,0.3-0.7,0.2c-0.2,0.2-0.4,0.3-0.5,0.2s-0.4,0-0.6,0.2c-0.1,0.1-0.2,0.2-0.3,0.3c-0.1,0.1-0.3,0.2-0.4,0.3
		s-0.3,0.1-0.5,0c-0.2-0.1-0.4-0.2-0.5-0.4c-0.1-0.2-0.2-0.4-0.3-0.6c0.1-0.4,0.2-0.8,0.5-1.1C97.6,63.3,97.9,63.1,98.3,63z"/>
	<path class="st0" d="M122.4,75.8c-0.3,0.2-0.6,0.4-0.9,0.5c-0.3,0.1-0.5,0.1-0.8,0.3s-0.5,0.2-0.8,0.2c-0.2-0.1-0.5-0.1-0.7,0.1
		c-0.2,0.1-0.5,0-0.7-0.1c-0.3,0-0.7-0.1-0.9-0.3c-0.5-0.1-1-0.3-1.2-0.7c-0.2-0.2-0.4-0.4-0.6-0.7c0-0.2-0.1-0.4-0.2-0.6
		c-0.1-0.2-0.1-0.3-0.1-0.5c-0.2-0.4-0.2-0.9-0.1-1.3c0.1-0.4,0.2-0.8,0.3-1.2c0.1-0.4,0.3-0.8,0.5-1.1c0.1-0.3,0.2-0.5,0.5-0.6
		c0.1-0.2,0.2-0.3,0.3-0.5s0.2-0.3,0.4-0.4c0.1-0.2,0.2-0.3,0.3-0.4c0.2-0.1,0.3-0.2,0.5-0.3c0.3-0.4,0.6-0.6,1.1-0.7
		c0.3-0.3,0.6-0.6,0.8-0.7c0.2-0.1,0.5-0.2,0.8-0.4c0.3-0.1,0.6-0.3,0.9-0.4c0.3-0.1,0.6-0.3,0.9-0.4c0.5-0.2,0.9-0.4,1.4-0.5
		c0.3-1.4,0.5-2.7,0.7-3.8c0.2-1.1,0.6-2.6,1.1-4.6c-0.3,0.1-0.7,0.1-1.1,0.2c-0.4,0.1-0.9,0.2-1.4,0.2c-0.6,0.2-1,0.2-1.2,0.1
		s-0.4-0.2-0.5-0.3c-0.2-0.3-0.2-0.7-0.1-0.9c0.1-0.3,0.3-0.5,0.5-0.6c0.4-0.2,0.8-0.3,1.1-0.3c0.3,0.1,0.5,0.1,0.6,0s0.3,0,0.6,0
		c0.3-0.1,0.5-0.1,0.8-0.1c0.4-0.1,0.7-0.2,1.1-0.2c0.2-0.5,0.4-0.9,0.6-1.2c0.2-0.2,0.4-0.5,0.5-0.7c0.3-0.3,0.6-0.4,1-0.4
		c0.4,0,0.6,0.1,0.7,0.2s0.3,0.3,0.4,0.7c-0.1,0.4-0.3,0.7-0.6,1.1c0.8-0.1,1.4-0.2,1.8-0.3c0.5-0.1,1-0.2,1.6-0.3
		c0.4-0.1,0.8-0.2,1.2-0.3c0.4-0.1,0.7-0.1,0.9,0c0.2,0.1,0.3,0.3,0.4,0.6c0.1,0.3,0,0.6-0.3,1c-0.1,0.1-0.3,0.2-0.4,0.3
		s-0.3,0.1-0.6,0.3c-0.7,0.1-1.4,0.1-2.1,0.2c-0.7,0.1-1.4,0.2-2,0.4c-0.7,0.1-1.2,0.2-1.6,0.3c-0.3,0.6-0.5,1.4-0.9,2.3
		s-0.6,1.8-0.7,2.6c-0.2,0.8-0.3,1.9-0.5,3.1c1.2-0.2,2.3-0.4,3.2-0.5c0.9-0.1,1.6-0.2,2.1-0.2c0.5-0.1,0.9-0.1,1.2-0.1
		c0.2-0.4,0.4-0.7,0.5-0.9c0.2-0.4,0.4-0.8,0.6-1.2c0.1-0.3,0.1-0.5,0.2-0.8c0.2-0.3,0.3-0.6,0.4-0.9c0.1-0.3,0.4-0.6,0.9-0.7
		c0.3,0,0.6,0.1,0.9,0.2s0.4,0.4,0.4,0.8c0,0.4-0.1,0.6-0.2,0.8c-0.1,0.2-0.3,0.4-0.6,0.5c-0.3,0.4-0.5,0.8-0.7,1.1
		c-0.2,0.4-0.4,0.7-0.6,0.9c0.6,0.1,1.1,0.1,1.4,0.1c0.3,0,0.6,0.1,1,0.2c0.4,0.1,0.7,0.2,1,0.2s0.5,0.1,0.5,0.2
		c0.1,0.1,0.3,0.2,0.6,0.2c0.3,0,0.6,0.1,0.8,0.3c0.2,0.2,0.5,0.3,0.8,0.5c0.4,0.4,0.8,0.8,1.1,1.2c0.4,0.4,0.7,0.9,0.9,1.4
		s0.4,1.2,0.5,1.8c0,0.4,0,0.9-0.1,1.3c0,0.4-0.2,0.8-0.4,1.2c-0.1,0.3-0.2,0.6-0.4,1c-0.1,0.4-0.3,0.7-0.6,0.9
		c-0.2,0.4-0.4,0.7-0.8,1c-1.6,1.9-3.4,3.6-5.5,5c-0.6,0.7-1.4,1.2-2.2,1.8c-0.4,0.3-0.7,0.5-1,0.6c-0.2,0.2-0.4,0.4-0.6,0.6
		c-0.2,0.2-0.5,0.2-0.8,0.2c-0.2,0.3-0.4,0.5-0.7,0.6c-0.2,0.1-0.5,0.2-0.7,0.3c-0.2,0.1-0.5,0.1-0.8-0.1c-0.3-0.1-0.5-0.3-0.6-0.5
		c-0.1-0.2,0-0.5,0.1-1c0.2-0.4,0.7-0.7,1.4-0.8c0.5-0.2,1.1-0.4,1.7-0.7c0.6-0.3,1.1-0.5,1.6-0.7c1.7-1.2,3.4-2.5,5-3.9
		c1.6-1.5,2.6-2.5,2.9-3.2c0.3-0.7,0.5-1.2,0.5-1.4c0-0.3,0.1-0.5,0.3-0.6c0.1-0.4,0.1-0.8,0.1-1.4c-0.2-0.3-0.4-0.7-0.6-1.2
		c-0.2-0.5-0.6-0.9-1-1.3c-0.2-0.1-0.3-0.2-0.4-0.4c-0.3-0.1-0.6-0.2-0.8-0.4c-0.5-0.1-1.1-0.3-1.6-0.4c-0.5-0.2-1-0.3-1.6-0.3
		c-0.3-0.2-0.6-0.2-1-0.2c-0.3,0-0.6,0-0.9,0c-0.4,0.7-0.8,1.1-0.9,1.3c-0.2,0.2-0.5,0.6-1,1.1c-0.9,1.2-1.8,2.2-2.7,3.1
		c-0.8,0.9-1.5,1.5-2,1.9c-0.5,0.4-0.8,0.7-1,0.9c0.2,0.3,0.4,0.5,0.6,0.6c0.2,0.1,0.4,0.2,0.7,0.3c0.3,0.1,0.6,0.3,0.8,0.5
		c0.2,0.3,0.2,0.5,0.3,0.8c0,0.3-0.1,0.5-0.3,0.6c-0.1,0.4-0.4,0.5-0.9,0.4c-0.7-0.3-1.1-0.6-1.3-0.8s-0.4-0.4-0.6-0.5
		c-0.2-0.2-0.5-0.4-0.9-0.7c-0.4,0.3-0.7,0.5-1,0.6C122.9,75.5,122.7,75.6,122.4,75.8z M123.5,71.1c0.1-0.7,0.1-1.3,0.1-1.8
		c0-0.5,0.1-1.3,0.2-2.3c-0.3,0-0.5,0.1-0.7,0.2c-0.2,0.1-0.4,0.2-0.5,0.2c-0.2,0-0.5,0.2-0.9,0.4c-0.7,0.4-1.2,0.7-1.6,1
		c-0.4,0.2-0.9,0.6-1.5,1.2c-0.2,0.2-0.3,0.4-0.4,0.6c-0.1,0.2-0.3,0.3-0.4,0.4s-0.2,0.3-0.3,0.4c-0.1,0.2-0.2,0.3-0.3,0.5
		c0,0.2-0.1,0.4-0.2,0.8c-0.1,0.5,0,0.9,0.1,1.2c0.1,0.3,0.4,0.6,0.7,0.8c0.6,0.3,1.2,0.4,1.7,0.4c0.5,0,0.9-0.1,1.2-0.2
		c0.2-0.1,0.5-0.2,0.7-0.4c0.4-0.2,0.8-0.3,1.1-0.5c0.3-0.2,0.8-0.5,1.5-1c-0.1-0.4-0.2-0.7-0.3-1C123.7,71.8,123.6,71.4,123.5,71.1
		z M130.4,66.8c0.3-0.6,0.6-1.1,0.9-1.5c-0.2-0.1-0.5-0.1-0.8,0.1c-0.2-0.1-0.5,0-0.7,0c-0.2,0.1-0.5,0.1-0.8,0.1
		c-0.2,0.1-0.5,0.1-0.7,0.1c-0.2,0-0.4,0.1-0.7,0.2c-0.4,0-0.8,0-1.1,0.1c-0.3,0.1-0.7,0.2-1.2,0.4c-0.2,1.3-0.3,2.3-0.3,3
		c0,0.7,0,1.6,0.2,2.6c0.3-0.3,0.6-0.5,0.9-0.5c0.1-0.2,0.3-0.4,0.6-0.6c0.5-0.4,1-0.8,1.4-1.2c0.2-0.5,0.4-0.7,0.8-0.8
		c0-0.3,0.1-0.4,0.2-0.5c0.1-0.1,0.3-0.2,0.4-0.4c0.1-0.1,0.2-0.3,0.3-0.5C130,67.1,130.2,66.9,130.4,66.8z"/>
	<path class="st0" d="M155.4,59.3c-0.2,0.7-0.3,1.2-0.4,1.3c-0.1,0.1-0.3,0.9-0.7,2.3c-0.1,0.8-0.2,1.6-0.3,2.4
		c-0.1,0.8,0,1.6,0.3,2.4c0.5,0.1,0.8,0.1,1,0c0.2-0.1,0.5-0.2,0.7-0.4c0.2-0.2,0.5-0.4,1-0.5c0.5-0.2,0.8-0.3,0.9-0.4
		c0.1-0.1,0.4-0.2,0.7-0.3c0.3-0.1,0.6,0,0.7,0.1c0.2,0.1,0.3,0.4,0.3,0.7c0,0.3,0,0.5-0.1,0.7c-0.1,0.1-0.4,0.3-0.7,0.5
		c-0.1,0.1-0.3,0.2-0.5,0.3c-0.2,0.1-0.4,0.2-0.7,0.2c-0.3,0.3-0.6,0.4-0.8,0.5c-0.2,0.1-0.4,0.1-0.5,0.1s-0.3,0.1-0.4,0.2
		c-0.4,0.1-0.7,0.1-0.9,0.1c-0.2,0-0.4-0.1-0.6-0.1c-0.2,0-0.5-0.1-0.9-0.4c-0.3-0.2-0.5-0.4-0.7-0.5c-0.2-0.1-0.4-0.6-0.4-1.4
		c-0.1-0.2-0.1-0.5,0-0.9c-0.1-0.2-0.1-0.4-0.1-0.6s0-0.3,0-0.5c0-0.2,0-0.4,0.2-0.7c-0.1-0.4,0-0.8,0.1-1.2
		c0.1-0.2,0.1-0.5,0.1-0.9s0.2-0.6,0.4-0.7c0.1-0.3,0.2-0.6,0.2-0.9c0-0.3,0.1-0.6,0.2-0.9c0.5-1.3,0.7-2.1,0.8-2.5
		c0-0.3,0.1-0.6,0.3-0.9c0.2-0.3,0.3-0.5,0.3-0.7c0.1-0.2,0.2-0.4,0.3-0.7c0-0.2,0.1-0.3,0.3-0.4c0.2-0.1,0.4-0.2,0.6-0.3
		c0.2-0.1,0.5,0,0.8,0.2c0.3,0.2,0.4,0.4,0.4,0.6c0,0.2,0,0.4-0.2,0.6c-0.1,0.2-0.3,0.4-0.4,0.6c-0.2,0.2-0.3,0.4-0.4,0.5
		c-0.1,0.4-0.2,0.7-0.3,0.9c-0.1,0.2-0.2,0.4-0.2,0.7C155.7,58.8,155.6,59.1,155.4,59.3z M167.6,56.2c0,0.4,0,0.7,0,0.9
		c0,0.2,0,0.4,0,0.5c0,0.2-0.1,0.4-0.3,0.7c0.1,0.2,0.2,0.3,0.1,0.5c-0.1,0.1-0.1,0.3,0,0.5c0,0.2-0.1,0.4-0.2,0.6
		c0.1,0.2,0.1,0.5,0.1,0.7c0,0.2-0.1,0.5-0.3,0.6c0.2,0.4,0.2,0.6,0.1,0.8s-0.1,0.4-0.2,0.7c0,0.3-0.1,0.8-0.2,1.4
		c-0.1,0.6-0.2,1.1-0.3,1.3c0.1,0.2,0.1,0.4,0,0.5c-0.1,0.1-0.1,0.3-0.1,0.4c0,0.1,0,0.4-0.2,0.8c0,0.4,0,0.6-0.1,0.8
		c-0.1,0.2-0.1,0.3-0.1,0.5c-0.1,0.5-0.2,0.9-0.3,1.1c-0.4,1.5-0.7,2.6-0.9,3.2s-0.5,1.3-0.9,2.2c-0.4,0.9-0.8,1.8-1.2,2.5
		s-0.8,1.5-1.2,2.1c-0.4,0.6-0.7,1.1-1,1.4c-0.1,0.3-0.3,0.6-0.5,0.8c-0.2,0.2-0.3,0.5-0.4,0.7c-0.1,0.2-0.2,0.4-0.5,0.5
		c-0.1,0.3-0.1,0.4-0.3,0.5s-0.2,0.2-0.3,0.4c-0.1,0.2-0.2,0.4-0.4,0.6c-0.2,0.3-0.4,0.4-0.7,0.5c-0.3,0.1-0.6,0-1-0.1
		c-0.4-0.1-0.5-0.4-0.5-0.8c0-0.4,0.1-0.8,0.4-1.1c0.3-0.3,0.5-0.5,0.7-0.6c0.2-0.1,0.3-0.3,0.4-0.5c0.1-0.2,0.3-0.4,0.5-0.5
		c0.3-0.2,0.6-0.5,0.7-0.7c0.3-0.2,0.4-0.4,0.4-0.5c0-0.1,0.2-0.3,0.5-0.6c0-0.2,0.2-0.4,0.5-0.5c0.1-0.2,0.1-0.4,0.1-0.6
		c0-0.2,0.2-0.4,0.4-0.5s0.3-0.4,0.4-0.6c0.4-0.8,0.8-1.6,1.2-2.2c0.3-0.6,0.6-1.3,0.9-1.9s0.6-1.6,1-2.9c0.4-1.3,0.7-2.6,0.9-3.8
		c0.2-1.2,0.3-2,0.4-2.5c0.1-0.9,0.2-1.4,0.2-1.6c0.1-0.2,0.1-0.7,0-1.4c0.1-1.4,0.1-2.4,0.1-3.1c0-0.7,0-1.1-0.1-1.4
		c-0.1-0.3-0.1-0.7-0.1-1.1c-0.1-0.4-0.1-0.7,0-0.8c0.1-0.2,0.1-0.3,0.2-0.5c0.1-0.2,0.2-0.3,0.5-0.4c0.3,0.1,0.6,0.2,0.9,0.4
		c0.3,0.2,0.4,0.4,0.4,0.6c0,0.2,0,0.4,0.1,0.6C167.7,55.5,167.7,55.8,167.6,56.2z"/>
	<path class="st0" d="M193.6,74.8c0.3-0.5,0.7-1,1-1.5c0.4-0.5,0.7-1.1,1-1.7c0.1-0.3,0.3-0.6,0.4-0.9c0.2-0.3,0.3-0.6,0.4-1
		c0.2-0.7,0.3-1.1,0.3-1.4c0-0.3,0.1-0.5,0-0.7c0-0.2,0-0.5-0.1-0.8c-0.1-0.6-0.3-1.3-0.6-2.1c-0.4-0.8-0.7-1.4-1-1.6
		c-0.3-0.3-0.6-0.5-0.9-0.8c-0.2-0.3-0.4-0.4-0.7-0.5c-0.3-0.1-0.4-0.2-0.5-0.4c-0.3,0-0.5,0.1-0.6,0.1c-0.1,0-0.2,0-0.3,0
		c-0.1-0.1-0.4-0.1-0.7-0.2c-0.1,0.2-0.3,0.3-0.7,0.2c-0.4-0.1-0.7,0-1.1,0.1c-1.2,0.2-2.1,0.5-2.9,0.8c-0.7,0.3-1.7,0.9-2.9,1.8
		s-2.2,2-3,3.4c-0.1,0.4-0.2,0.7-0.3,0.7c-0.1,0.1-0.1,0.2-0.1,0.3c0,0.1-0.1,0.3-0.4,0.5c0,0.4-0.1,0.7-0.3,1
		c0.2,0.2,0.2,0.4,0.2,0.6c0,0.2,0,0.4-0.1,0.7c0.1,0.5,0.2,0.7,0.3,0.8s0.2,0.2,0.1,0.5c0.3,0.1,0.6,0.2,0.9,0.4
		c0.4,0,0.7,0,0.9-0.1c0.2-0.1,0.4-0.1,0.6-0.1c0.3-0.2,0.6-0.3,0.9-0.4c0.4-0.3,0.6-0.5,0.7-0.7c0.1-0.1,0.3-0.2,0.4-0.2
		c0.2,0,0.3-0.1,0.4-0.3c0.1-0.1,0.3-0.3,0.7-0.5c0.4-0.3,0.8-0.7,1.3-1.3s0.9-1,1.1-1.3c0.2-0.3,0.5-0.8,0.9-1.7
		c0.1-0.3,0.2-0.7,0.4-1c0-0.3,0-0.6,0-0.8c0-0.2-0.1-0.4-0.1-0.5s-0.1-0.4-0.1-0.7c0-0.3,0.2-0.6,0.5-0.8c0.3-0.2,0.6-0.2,1-0.1
		c0.4,0.2,0.6,0.4,0.7,0.5c0.1,0.2,0.1,0.5,0.1,1c0,0.5-0.1,1-0.2,1.6c-0.1,0.4-0.2,0.7-0.3,0.9c-0.1,0.2-0.2,0.5-0.4,0.8
		s-0.4,0.8-0.8,1.3c-0.4,0.5-0.8,1-1.2,1.4c-0.4,0.4-0.9,1-1.7,1.6c-0.8,0.7-1.5,1.3-2.4,1.9c-0.8,0.6-1.7,1-2.7,1.1
		c-0.3,0.1-0.5,0.1-0.7,0.1c-0.2,0-0.5-0.1-0.7-0.1c-0.2-0.1-0.5-0.2-0.7-0.4c-0.4-0.2-0.7-0.6-1-1c-0.3-0.4-0.5-0.9-0.5-1.5
		c0-0.6,0-1.1,0-1.7c0.1-0.4,0.1-0.7,0.1-0.8c0-0.1,0.1-0.3,0.1-0.5c0.1-0.2,0.2-0.5,0.3-0.8c0.1-0.3,0.4-0.9,0.9-1.7
		c0.2-0.4,0.4-0.7,0.6-0.8c0.2-0.2,0.3-0.4,0.3-0.5c0-0.1,0.1-0.3,0.3-0.4c0.1-0.2,0.2-0.4,0.3-0.4c0.1-0.1,0.3-0.2,0.4-0.3
		c0.1-0.1,0.3-0.3,0.5-0.3c0.2-0.3,0.3-0.4,0.5-0.5c0.2,0,0.3-0.1,0.5-0.3c0.1-0.2,0.2-0.3,0.4-0.4c0.2-0.1,0.4-0.2,0.7-0.5
		c0.3-0.2,0.7-0.4,1.2-0.7c0.5-0.3,1-0.5,1.6-0.6c0.2-0.2,0.5-0.3,0.9-0.3c0.4-0.2,1.4-0.3,2.8-0.4c0.4,0,0.8,0,1.2,0
		c0.9,0,1.5,0.1,2,0.2c0.6,0.2,1,0.4,1.2,0.5c0.2,0.1,0.5,0.3,0.8,0.7c0.3,0.2,0.5,0.4,0.6,0.5c0.1,0.2,0.4,0.5,0.8,1.1
		c0.1,0.2,0.3,0.4,0.4,0.6c0.2,0.2,0.3,0.4,0.3,0.5c0,0.1,0,0.3,0.1,0.6c0.2,0.2,0.3,0.5,0.3,0.8c0,0.3,0,0.6,0.1,0.8
		c0.2,0.2,0.2,0.4,0.1,0.8c0.1,0.3,0.2,0.6,0.1,1s-0.1,0.7-0.1,1c0.1,0.3,0,0.6-0.1,0.6c-0.1,0.1-0.2,0.3-0.3,0.5s-0.2,0.5-0.4,0.7
		c-0.1,0.3-0.1,0.5-0.1,0.6c0,0.1-0.1,0.3-0.4,0.5c-0.2,0.1-0.3,0.2-0.3,0.4c0,0.2-0.1,0.4-0.3,0.6c-0.2,0.3-0.3,0.6-0.4,0.7
		c-0.1,0.1-0.2,0.3-0.2,0.4c0,0.1-0.1,0.3-0.3,0.5c-0.1,0.3-0.2,0.5-0.4,0.6c-0.1,0.1-0.3,0.2-0.3,0.4c-0.2,0.4-0.4,0.8-0.7,1.1
		c-0.2,0.2-0.3,0.3-0.4,0.5c-0.1,0.2-0.2,0.4-0.3,0.7c-0.1,0.1-0.2,0.2-0.4,0.4c-0.1,0.1-0.2,0.2-0.4,0.4c-0.2,0.3-0.3,0.6-0.4,0.7
		c-0.1,0.1-0.3,0.2-0.7,0.2c-0.2,0.1-0.4,0.2-0.6,0.2s-0.4,0-0.6-0.2s-0.3-0.4-0.4-0.6c0-0.2,0-0.4,0-0.6c0.1-0.2,0.2-0.4,0.5-0.6
		c0.3-0.2,0.5-0.4,0.8-0.7c0.2-0.3,0.4-0.6,0.6-0.8c0.2-0.2,0.4-0.4,0.6-0.6C193.2,75.1,193.4,74.9,193.6,74.8z"/>
	<path class="st0" d="M221.1,69c0,0.5-0.1,1-0.2,1.4c-0.1,0.5-0.2,0.8-0.2,1c0,0.1,0,0.3-0.1,0.5c-0.1,0.2-0.1,0.4-0.1,0.6
		c0,0.2-0.1,0.5-0.2,0.9c1-0.1,2,0,3.1,0.1c1.1,0.1,2.4,0.2,3.8,0.3c0.6,0.1,1.1,0.2,1.5,0.3c0.4,0.1,0.7,0.1,0.9,0.1
		c0.2,0,0.4,0.1,0.6,0.2c0.2,0.1,0.4,0.2,0.5,0.3c0.1,0.1,0.1,0.4,0,0.8c-0.1,0.4-0.2,0.6-0.4,0.7c-0.1,0.1-0.4,0.2-0.6,0.2
		c-0.3,0.1-0.5,0-0.7-0.1c-0.2-0.1-0.4-0.2-0.8-0.3c-0.4-0.2-0.6-0.3-0.8-0.2c-0.2,0.1-0.3,0-0.5-0.1c-0.2-0.1-0.4-0.2-0.5-0.3
		c-0.2,0-0.5-0.1-0.9-0.2c-0.3,0-0.7,0-1.1-0.1c-0.3-0.2-0.6-0.3-0.8-0.2s-0.5,0-0.9,0c-0.6,0-1,0-1.2,0c-0.2,0.1-0.4,0-0.6,0
		c-0.2-0.1-0.5-0.1-1,0c-0.2,0.8-0.4,1.3-0.6,1.7c-0.2,0.3-0.4,0.7-0.5,1c-0.2,0.3-0.4,0.7-0.7,1c-0.4,0.5-0.7,0.9-0.9,1.1
		c-0.2,0.2-0.4,0.4-0.7,0.5s-0.5,0.2-0.8,0.2s-0.6,0.1-0.9,0.1c-0.3,0-0.6,0-1.1-0.1c-0.4-0.1-0.9-0.3-1.3-0.7
		c-0.4-0.4-0.7-0.9-0.9-1.4c-0.1-0.5-0.1-0.9,0-1.4s0.3-0.8,0.5-1.2c0.3-0.4,0.6-0.7,1.1-1c0.6-0.3,1.2-0.5,1.8-0.7
		c0.6-0.2,1.2-0.3,1.9-0.4s1.2-0.2,1.7-0.2c0.2-0.5,0.4-0.9,0.5-1.2c0.1-0.3,0.1-0.6,0.2-0.7c0-0.2,0.1-0.4,0.1-0.6
		c0-0.2,0.1-0.8,0.2-1.6c0.1-0.4,0.1-0.7,0.1-1c0-0.2,0-0.6,0.1-1.2c-0.7,0.1-1,0.2-1.1,0.3c-0.1,0.1-0.3,0.1-0.7,0
		c-0.2,0.2-0.5,0.3-0.8,0.2c-0.2,0-0.5,0.1-0.7,0.3c-0.2,0.1-0.5,0.2-0.7,0.2c-0.5,0.1-0.9,0.2-1.3,0.4c-0.4,0.2-0.8,0.2-1.3,0.2
		c-0.4,0.2-0.7,0.3-0.9,0.3c-0.2,0-0.5,0.1-0.7,0c-0.2,0-0.6-0.1-1-0.1c-0.4-0.1-0.7-0.2-1-0.5c-0.3-0.3-0.3-0.6-0.1-0.9
		c0.2-0.4,0.4-0.6,0.6-0.6c0.2-0.1,0.5-0.1,0.7-0.1c0.2,0,0.4,0.1,0.6,0.3c0.4,0,0.7,0,1,0c0.3,0,0.5,0,0.7-0.1c0.2,0,0.4,0,0.5-0.1
		c0.5,0,1.2-0.1,1.9-0.3c0.8-0.2,1.2-0.3,1.5-0.4s0.5-0.2,0.8-0.2c0.3-0.1,0.6-0.2,0.8-0.2c0.2-0.1,0.7-0.2,1.4-0.5
		c0-0.6,0.1-1.1,0.1-1.5c0-0.4,0.1-0.8,0.1-1.2c0-0.4,0-0.8,0-1.3c0-0.4-0.1-0.9-0.2-1.3c-0.4,0-0.7,0-0.8,0c-0.2,0-0.4-0.1-0.8-0.1
		c-0.3,0.1-0.7,0.1-1,0.1c-0.3,0-0.6,0-0.8-0.1c-0.2,0-0.4,0-0.6,0.1c-0.2,0.1-0.4,0.1-0.6-0.1c-0.4,0.1-0.6,0.2-0.7,0.1
		c-0.1-0.1-0.3-0.1-0.4,0.1c-0.2,0.1-0.4,0.2-0.7,0.3c-0.3,0.1-0.6,0.2-0.7,0.3c-0.1,0.2-0.4,0.2-0.6,0.2c-0.3,0-0.6-0.1-0.8-0.4
		c-0.3-0.2-0.4-0.6-0.3-1c0.1-0.4,0.3-0.7,0.6-0.8c0.3-0.2,0.6-0.3,0.9-0.3c0.3,0,0.6,0,1.1-0.1c0.5-0.1,1.1-0.1,1.8-0.1
		c0.8,0,1.4,0,2,0c0.5,0,1,0.1,1.4,0.1c0.4,0,0.9,0,1.5-0.1c0.1-0.3,0.1-0.7,0.2-1.2c0-0.4,0-0.8,0.1-1.2c0.1-0.3,0.1-0.6,0.2-0.8
		c0.1-0.2,0.4-0.4,0.9-0.5c0.3,0.1,0.6,0.1,0.8,0.2c0.2,0.1,0.4,0.2,0.5,0.4c0.1,0.1,0.2,0.4,0.1,0.7s-0.2,0.7-0.4,1
		c-0.2,0.6-0.3,1.2-0.3,1.6c0.3,0.1,0.7,0.1,1.1,0.2c0.4,0.1,0.7,0.1,1,0.3c0.2,0.1,0.5,0.3,0.6,0.6c0.2,0.3,0.2,0.5,0.1,0.8
		c-0.1,0.2-0.3,0.4-0.5,0.5c-0.2,0.1-0.5,0.2-0.9,0.2c-0.6-0.2-1.1-0.4-1.6-0.4c-0.1,0.8-0.2,1.3-0.1,1.6c0,0.3,0,0.7-0.2,1.2
		c0.1,0.5,0,1-0.2,1.6c0.7-0.2,1.3-0.4,1.9-0.6c0.6-0.3,1.1-0.5,1.5-0.7c0.3-0.2,0.7-0.4,1.1-0.7c0.3-0.2,0.6-0.3,0.8-0.2
		c0.3,0.1,0.5,0.2,0.7,0.5c0.2,0.3,0.3,0.5,0.3,0.7c0,0.2-0.2,0.3-0.5,0.5c-0.3,0.2-0.6,0.3-1,0.5c-0.4,0.2-0.7,0.3-0.8,0.4
		c-0.1,0.1-0.4,0.1-0.8,0.1c-0.2,0.3-0.5,0.4-1,0.5c-0.3,0.1-0.6,0.2-0.9,0.4c-0.3,0.1-0.7,0.3-1.4,0.5c-0.1,0.5-0.1,0.8-0.1,0.9
		c0,0.1,0,0.3-0.1,0.7C221.3,68.6,221.3,68.9,221.1,69z M216.6,78.3c0.4-0.5,0.7-1,0.9-1.4c0.2-0.4,0.5-1,0.8-1.9
		c-0.4,0.1-0.7,0.1-0.9,0.1c-0.3,0.2-0.7,0.3-1.1,0.2c-0.4,0.2-0.6,0.3-0.8,0.3s-0.3,0-0.5,0.1c-0.2,0.1-0.4,0.2-0.7,0.3
		c-0.3,0.3-0.6,0.6-0.8,0.8s-0.3,0.4-0.2,0.5c0,0.1,0.1,0.3,0.1,0.5c0,0.2,0.2,0.5,0.5,0.8c0.4,0.2,0.7,0.3,0.9,0.4
		c0.2,0,0.4,0,0.8,0C215.7,78.9,216.1,78.7,216.6,78.3z"/>
	<path class="st0" d="M250.5,69c0,0.5-0.1,1-0.2,1.4c-0.1,0.5-0.2,0.8-0.2,1c0,0.1,0,0.3-0.1,0.5c-0.1,0.2-0.1,0.4-0.1,0.6
		c0,0.2-0.1,0.5-0.2,0.9c1-0.1,2,0,3.1,0.1c1.1,0.1,2.4,0.2,3.8,0.3c0.6,0.1,1.1,0.2,1.5,0.3c0.4,0.1,0.7,0.1,0.9,0.1
		c0.2,0,0.4,0.1,0.6,0.2c0.2,0.1,0.4,0.2,0.5,0.3c0.1,0.1,0.1,0.4,0,0.8c-0.1,0.4-0.2,0.6-0.4,0.7c-0.1,0.1-0.4,0.2-0.6,0.2
		c-0.3,0.1-0.5,0-0.7-0.1c-0.2-0.1-0.4-0.2-0.8-0.3c-0.4-0.2-0.6-0.3-0.8-0.2c-0.2,0.1-0.3,0-0.5-0.1c-0.2-0.1-0.4-0.2-0.5-0.3
		c-0.2,0-0.5-0.1-0.9-0.2c-0.3,0-0.7,0-1.1-0.1c-0.3-0.2-0.6-0.3-0.8-0.2s-0.5,0-0.9,0c-0.6,0-1,0-1.2,0c-0.2,0.1-0.4,0-0.6,0
		c-0.2-0.1-0.5-0.1-1,0c-0.2,0.8-0.4,1.3-0.6,1.7c-0.2,0.3-0.4,0.7-0.5,1c-0.2,0.3-0.4,0.7-0.7,1c-0.4,0.5-0.7,0.9-0.9,1.1
		c-0.2,0.2-0.4,0.4-0.7,0.5s-0.5,0.2-0.8,0.2s-0.6,0.1-0.9,0.1c-0.3,0-0.6,0-1.1-0.1c-0.4-0.1-0.9-0.3-1.3-0.7
		c-0.4-0.4-0.7-0.9-0.9-1.4c-0.1-0.5-0.1-0.9,0-1.4s0.3-0.8,0.5-1.2c0.3-0.4,0.6-0.7,1.1-1c0.6-0.3,1.2-0.5,1.8-0.7
		c0.6-0.2,1.2-0.3,1.9-0.4s1.2-0.2,1.7-0.2c0.2-0.5,0.4-0.9,0.5-1.2c0.1-0.3,0.1-0.6,0.2-0.7c0-0.2,0.1-0.4,0.1-0.6
		c0-0.2,0.1-0.8,0.2-1.6c0.1-0.4,0.1-0.7,0.1-1c0-0.2,0-0.6,0.1-1.2c-0.7,0.1-1,0.2-1.1,0.3c-0.1,0.1-0.3,0.1-0.7,0
		c-0.2,0.2-0.5,0.3-0.8,0.2c-0.2,0-0.5,0.1-0.7,0.3c-0.2,0.1-0.5,0.2-0.7,0.2c-0.5,0.1-0.9,0.2-1.3,0.4c-0.4,0.2-0.8,0.2-1.3,0.2
		c-0.4,0.2-0.7,0.3-0.9,0.3c-0.2,0-0.5,0.1-0.7,0c-0.2,0-0.6-0.1-1-0.1c-0.4-0.1-0.7-0.2-1-0.5c-0.3-0.3-0.3-0.6-0.1-0.9
		c0.2-0.4,0.4-0.6,0.6-0.6c0.2-0.1,0.5-0.1,0.7-0.1c0.2,0,0.4,0.1,0.6,0.3c0.4,0,0.7,0,1,0c0.3,0,0.5,0,0.7-0.1c0.2,0,0.4,0,0.5-0.1
		c0.5,0,1.2-0.1,1.9-0.3c0.8-0.2,1.2-0.3,1.5-0.4s0.5-0.2,0.8-0.2c0.3-0.1,0.6-0.2,0.8-0.2c0.2-0.1,0.7-0.2,1.4-0.5
		c0-0.6,0.1-1.1,0.1-1.5c0-0.4,0.1-0.8,0.1-1.2c0-0.4,0-0.8,0-1.3c0-0.4-0.1-0.9-0.2-1.3c-0.4,0-0.7,0-0.8,0c-0.2,0-0.4-0.1-0.8-0.1
		c-0.3,0.1-0.7,0.1-1,0.1c-0.3,0-0.6,0-0.8-0.1c-0.2,0-0.4,0-0.6,0.1c-0.2,0.1-0.4,0.1-0.6-0.1c-0.4,0.1-0.6,0.2-0.7,0.1
		c-0.1-0.1-0.3-0.1-0.4,0.1c-0.2,0.1-0.4,0.2-0.7,0.3c-0.3,0.1-0.6,0.2-0.7,0.3c-0.1,0.2-0.4,0.2-0.6,0.2c-0.3,0-0.6-0.1-0.8-0.4
		c-0.3-0.2-0.4-0.6-0.3-1c0.1-0.4,0.3-0.7,0.6-0.8c0.3-0.2,0.6-0.3,0.9-0.3c0.3,0,0.6,0,1.1-0.1c0.5-0.1,1.1-0.1,1.8-0.1
		c0.8,0,1.4,0,2,0c0.5,0,1,0.1,1.4,0.1c0.4,0,0.9,0,1.5-0.1c0.1-0.3,0.1-0.7,0.2-1.2c0-0.4,0-0.8,0.1-1.2c0.1-0.3,0.1-0.6,0.2-0.8
		c0.1-0.2,0.4-0.4,0.9-0.5c0.3,0.1,0.6,0.1,0.8,0.2c0.2,0.1,0.4,0.2,0.5,0.4c0.1,0.1,0.2,0.4,0.1,0.7s-0.2,0.7-0.4,1
		c-0.2,0.6-0.3,1.2-0.3,1.6c0.3,0.1,0.7,0.1,1.1,0.2c0.4,0.1,0.7,0.1,1,0.3c0.2,0.1,0.5,0.3,0.6,0.6c0.2,0.3,0.2,0.5,0.1,0.8
		c-0.1,0.2-0.3,0.4-0.5,0.5c-0.2,0.1-0.5,0.2-0.9,0.2c-0.6-0.2-1.1-0.4-1.6-0.4c-0.1,0.8-0.2,1.3-0.1,1.6c0,0.3,0,0.7-0.2,1.2
		c0.1,0.5,0,1-0.2,1.6c0.7-0.2,1.3-0.4,1.9-0.6c0.6-0.3,1.1-0.5,1.5-0.7c0.3-0.2,0.7-0.4,1.1-0.7c0.3-0.2,0.6-0.3,0.8-0.2
		c0.3,0.1,0.5,0.2,0.7,0.5c0.2,0.3,0.3,0.5,0.3,0.7c0,0.2-0.2,0.3-0.5,0.5c-0.3,0.2-0.6,0.3-1,0.5c-0.4,0.2-0.7,0.3-0.8,0.4
		c-0.1,0.1-0.4,0.1-0.8,0.1c-0.2,0.3-0.5,0.4-1,0.5c-0.3,0.1-0.6,0.2-0.9,0.4c-0.3,0.1-0.7,0.3-1.4,0.5c-0.1,0.5-0.1,0.8-0.1,0.9
		c0,0.1,0,0.3-0.1,0.7C250.7,68.6,250.6,68.9,250.5,69z M245.9,78.3c0.4-0.5,0.7-1,0.9-1.4c0.2-0.4,0.5-1,0.8-1.9
		c-0.4,0.1-0.7,0.1-0.9,0.1c-0.3,0.2-0.7,0.3-1.1,0.2c-0.4,0.2-0.6,0.3-0.8,0.3s-0.3,0-0.5,0.1c-0.2,0.1-0.4,0.2-0.7,0.3
		c-0.3,0.3-0.6,0.6-0.8,0.8s-0.3,0.4-0.2,0.5c0,0.1,0.1,0.3,0.1,0.5c0,0.2,0.2,0.5,0.5,0.8c0.4,0.2,0.7,0.3,0.9,0.4
		c0.2,0,0.4,0,0.8,0C245.1,78.9,245.5,78.7,245.9,78.3z"/>
	<path class="st0" d="M275,73.8c0.2,0.4,0.4,0.6,0.5,0.8c0.1,0.2,0.2,0.4,0.4,0.7c0.3,0.1,0.5,0.2,0.6,0.5c0.4,0.3,0.7,0.5,0.8,0.6
		c0.1,0.1,0.2,0.2,0.4,0.2c0.2,0,0.4,0.2,0.8,0.5c0.3,0.2,0.5,0.2,0.7,0.2s0.3,0,0.4,0c0.1,0,0.3,0.1,0.6,0.4c0.2,0,0.3,0,0.5,0.1
		s0.3,0.2,0.6,0.3c0.2,0.1,0.3,0.2,0.4,0.5c0,0.2,0,0.4-0.2,0.6c-0.2,0.2-0.4,0.3-0.6,0.4c-0.2,0.1-0.5,0.1-0.8,0s-0.6-0.2-1-0.4
		c-0.7-0.3-1.3-0.6-1.8-0.9s-1.1-0.8-1.7-1.3c-0.6-0.5-1.2-1.5-2-2.8c-0.1-0.3-0.1-0.6-0.2-0.9c-0.1-0.3,0-0.8,0.2-1.4
		c0.2-0.6,0.5-1.1,0.9-1.6c0.4-0.5,0.8-0.8,0.9-1c0.2-0.2,0.5-0.4,0.9-0.8c0.1-0.2,0.2-0.4,0.4-0.5s0.4-0.3,0.7-0.4
		c0.1-0.2,0.2-0.4,0.4-0.5c0.2-0.2,0.4-0.3,0.6-0.4c0.3-0.3,0.5-0.5,0.7-0.6c0.1-0.2,0.3-0.4,0.4-0.4c0.1-0.1,0.2-0.2,0.4-0.3
		c0.1-0.2,0.3-0.3,0.5-0.3c0.2-0.2,0.3-0.4,0.5-0.5c0.1-0.2,0.2-0.4,0.4-0.5c0.1-0.1,0.3-0.3,0.6-0.5c0-0.2,0.1-0.4,0.4-0.6
		c0.1-0.3,0.1-0.5,0.2-0.7c0.1-0.2,0-0.3-0.1-0.4c-0.3-0.1-0.6-0.2-0.8-0.2c-0.2-0.1-0.4,0-0.5,0c-0.1,0.1-0.4,0.1-0.7,0
		c-0.1,0.2-0.3,0.2-0.5,0.2c-0.2,0-0.4-0.1-0.8-0.3c-0.2,0.2-0.4,0.4-0.6,0.4c-0.2,0-0.4,0-0.6,0c-0.2,0.1-0.5,0.2-0.7,0.3
		c-0.2,0.1-0.5,0-0.7-0.1c-0.4,0.1-0.7,0.2-1,0.3c-0.3,0.1-0.7,0.2-1,0.2c-0.2,0-0.4,0.1-0.6,0.2c-0.2,0.1-0.4,0.2-0.6,0.1
		c-0.3,0.2-0.6,0.3-0.9,0.4c-0.3,0.1-0.6,0.2-0.9,0.4c-0.1,0.3-0.3,0.5-0.5,0.7c-0.3,0.2-0.6,0.2-0.9,0.1c-0.3-0.1-0.5-0.4-0.6-0.6
		c-0.1-0.3-0.1-0.6-0.1-0.9c0-0.3,0.1-0.5,0.4-0.7c0.2-0.2,0.5-0.3,0.9-0.5c0.4-0.1,0.7-0.2,1-0.3c0.3-0.1,0.6-0.1,1.1-0.3
		c0.5-0.1,1-0.2,1.4-0.3c0.3-0.1,0.5-0.1,0.7-0.2c0.2-0.1,0.4-0.1,0.8,0.1c0.2-0.2,0.4-0.3,0.7-0.3c0.3,0,0.6,0,0.9-0.2s1-0.2,2-0.3
		c1-0.1,1.9-0.2,2.8-0.2c0.4,0,0.7,0,1,0c0.2,0,0.6,0.2,1,0.4s0.7,0.7,0.9,1.1c0.1,0.5,0.2,0.9,0.2,1.2c0,0.3-0.1,0.6-0.2,0.7
		c-0.1,0.2-0.3,0.4-0.6,0.6c-0.8,0.9-1.7,1.7-2.5,2.3c-0.8,0.6-1.7,1.2-2.5,1.9c-0.8,0.7-1.6,1.4-2.3,2.2c-0.3,0.3-0.6,0.6-0.9,1
		c-0.3,0.3-0.5,0.7-0.6,1.2C275,72.9,274.9,73.3,275,73.8z M285.7,56.6c-0.1-0.5-0.2-0.9-0.1-1.2c0.1-0.3,0.2-0.5,0.3-0.6
		s0.3-0.1,0.5-0.2c0.2,0,0.4,0,0.5,0.1c0.2,0.1,0.4,0.2,0.5,0.3s0.3,0.4,0.3,0.7c0,0.3,0,0.7-0.1,1c0.2,0.2,0.2,0.4,0.2,0.9
		c0,0.4,0.1,0.7,0.1,0.9c0.1,0.2,0.1,0.3,0.3,0.4c0.1,0.1,0.2,0.2,0.2,0.4s0.1,0.4,0.3,0.7c0.3,0.1,0.5,0.3,0.4,0.6
		c0.3,0.2,0.5,0.4,0.7,0.5s0.3,0.3,0.2,0.5c-0.1,0.2-0.2,0.4-0.3,0.5c-0.1,0.1-0.3,0.2-0.5,0.4c-0.2,0.1-0.4,0.1-0.7,0
		c-0.3-0.1-0.6-0.3-1-0.6c-0.3-0.5-0.5-0.9-0.6-1.1c-0.1-0.2-0.3-0.5-0.4-0.8c-0.1-0.3-0.3-0.6-0.4-0.9c-0.1-0.3-0.2-0.5-0.2-0.7
		C286,58.1,285.9,57.5,285.7,56.6z M295.3,56.1c-0.2,0.3-0.4,0.6-0.5,0.9c-0.1,0.3-0.2,0.5-0.2,0.6c0,0.1,0,0.3,0,0.5
		s-0.1,0.4-0.1,0.8c0.1,0.4,0.1,0.7,0.2,0.8c0.1,0.2,0.1,0.4,0.1,0.6c0,0.3-0.1,0.5-0.3,0.7c-0.2,0.2-0.4,0.3-0.8,0.3
		c-0.3,0-0.5,0-0.7-0.1c-0.1-0.1-0.2-0.3-0.3-0.4s-0.1-0.4-0.1-0.6c0-0.2,0-0.4,0-0.6c0.2-0.4,0.2-0.7,0.1-0.9
		c-0.1-0.2-0.1-0.4,0-0.6c0.1-0.2,0.1-0.5,0.2-1c0.1-0.5,0.2-1,0.4-1.6c0.2-0.5,0.4-0.7,0.5-0.8c0.2-0.1,0.4-0.1,0.6-0.2
		c0.5,0,0.8,0.2,0.9,0.4c0.1,0.2,0.2,0.4,0.3,0.5C295.7,55.5,295.6,55.8,295.3,56.1z"/>
</g>
</svg>
