<?xml version="1.0" encoding="utf-8"?>
<!-- Generator: Adobe Illustrator 28.0.0, SVG Export Plug-In . SVG Version: 6.00 Build 0)  -->
<svg version="1.1" id="レイヤー_1" xmlns="http://www.w3.org/2000/svg" xmlns:xlink="http://www.w3.org/1999/xlink" x="0px"
	 y="0px" width="307.7px" height="85.9px" viewBox="0 0 307.7 85.9" style="enable-background:new 0 0 307.7 85.9;"
	 xml:space="preserve">
<style type="text/css">
	.st0{fill:#0000FF;}
</style>
<g>
	<path class="st0" d="M4,9c0.7-0.3,1.2-0.4,1.4-0.4C6,8.5,6.4,8.5,6.8,8.4C7.2,8.3,8,8.2,9.1,8c0.1-1.1,0.1-2.1,0.2-2.8
		C9.3,4.4,9.2,3.8,9.2,3.4c0.1-0.3,0.1-0.7,0-0.9c-0.1-0.3,0-0.6,0-0.8c0.1-0.2,0.4-0.4,0.8-0.4c0.5,0,0.8,0.1,1,0.4
		c0.2,0.2,0.4,0.6,0.4,1c0,0.3-0.1,0.8-0.4,1.3c0,0.3,0,0.6,0,0.9c0,0.3-0.1,0.6-0.2,0.9c-0.1,0.4-0.1,1-0.1,1.8
		c0.8-0.1,1.4-0.2,1.7-0.2c0.4,0,0.7,0,1,0c0.3,0,0.6,0.1,1,0.2C14.8,7.8,15,8,15.1,8.2c0.1,0.2,0,0.5-0.1,0.8
		c-0.1,0.3-0.4,0.5-0.7,0.6c-0.3,0.1-0.7-0.1-1.2-0.4c-0.5-0.1-0.9-0.1-1.1-0.1c-0.2,0-0.4,0-0.7,0c-0.2,0-0.5,0.1-0.8,0.2
		c-0.1,0.7-0.2,1.4-0.3,2.1c-0.1,0.7-0.1,1.5-0.2,2.3c-0.1,0.8-0.2,1.7-0.3,2.8c1-0.4,1.8-0.7,2.2-0.9c0.4-0.2,1-0.4,1.8-0.7
		c0.4-0.1,0.8,0,1,0.3c0.3,0.3,0.3,0.5,0.2,0.7c-0.1,0.2-0.3,0.4-0.5,0.5c-0.2,0.1-0.6,0.2-1.1,0.3c-0.5,0.2-1.1,0.4-1.8,0.6
		c-0.7,0.3-1.4,0.5-1.9,0.7c-0.1,0.9-0.2,1.8-0.3,2.7c-0.1,0.8-0.2,1.8-0.4,2.7c-0.1,1-0.2,1.6-0.3,2s-0.1,0.8-0.2,1.2
		c-0.1,0.5-0.2,0.9-0.3,1.2C8.1,28.4,8,28.7,8,28.9c-0.1,0.2-0.2,0.6-0.4,1c-0.2,0.4-0.4,0.6-0.6,0.8s-0.6,0.4-1,0.5
		c-0.3,0-0.6-0.1-0.9-0.2s-0.5-0.3-0.8-0.7c-0.3-0.4-0.6-0.8-0.8-1.1c-0.2-0.4-0.4-0.7-0.6-0.9c-0.2-0.3-0.6-0.9-1.2-2
		c-0.2-0.4-0.3-0.8-0.3-1.1c0-0.3,0.1-0.5,0.4-0.7c0.3-0.2,0.6-0.2,0.8-0.2c0.2,0.1,0.4,0.2,0.6,0.4s0.3,0.6,0.4,1
		c0.3,0.7,0.6,1.4,1,2c0.4,0.6,0.8,1.1,1.2,1.5c0.4-0.1,0.7-0.3,0.8-0.6c0.1-0.3,0.3-0.7,0.3-0.9c0.1-0.3,0.2-0.7,0.3-1.1
		c0.1-0.5,0.2-0.9,0.3-1.3c-0.1-0.3-0.1-0.6,0.1-0.8c0.1-0.2,0.2-0.4,0.1-0.6c-0.1-0.2,0-0.8,0.2-1.9c0.2-1.1,0.3-2.2,0.3-3.4
		c-0.3,0.2-0.6,0.3-0.9,0.4c-0.3,0.1-0.5,0.2-0.7,0.3c-0.1,0.2-0.3,0.3-0.5,0.4c-0.2,0.1-0.5,0.1-0.9,0.2c-0.3,0.3-0.5,0.4-0.7,0.5
		c-0.2,0-0.3,0.1-0.5,0.3S3.4,21,3,21.2c-0.2,0.4-0.4,0.7-0.5,0.9c-0.1,0.2-0.3,0.3-0.6,0.4c-0.3,0.1-0.5,0.1-0.7,0.1
		c-0.2,0-0.5-0.1-0.7-0.2C0.1,22.2,0,22,0,21.6c0-0.4,0.1-0.7,0.2-0.9c0.1-0.2,0.4-0.5,1-0.7c0.4-0.2,0.8-0.4,1.2-0.5
		c0.6-0.2,0.9-0.3,1.1-0.4c0.2-0.1,0.4-0.2,0.7-0.3c0.5-0.2,1.1-0.5,1.7-0.8c0.7-0.3,1.5-0.7,2.5-1c0.2-1.2,0.4-2.4,0.4-3.7
		c0.1-1.3,0.1-2.5,0.3-3.8c-0.3,0.1-0.7,0.1-1.1,0C7.6,9.8,7.4,9.9,7.2,10C7,10,6.8,10,6.6,9.9c-0.5,0.3-0.9,0.4-1.2,0.2
		c-0.3,0.2-0.5,0.3-0.9,0.4c-0.3,0.1-0.5,0.1-0.8,0.2c-0.2,0.1-0.4,0.1-0.6,0.2c-0.2,0.1-0.3,0.2-0.5,0.4c0,0.4-0.2,0.7-0.6,0.9
		s-0.7,0.1-1.1-0.1c-0.3-0.2-0.5-0.5-0.5-0.7c-0.1-0.2,0-0.5,0.1-0.8c0.1-0.3,0.3-0.5,0.6-0.7c0.3-0.2,0.7-0.4,1.3-0.6
		C3.1,9.1,3.6,9,4,9z M15.4,26.4c1.3-1.4,2.4-3,3.4-4.6c0.5-0.9,1-1.8,1.4-2.8c-0.3,0.2-0.6,0.4-0.9,0.7c-0.4,0.3-0.6,0.5-0.8,0.6
		s-0.5,0.3-1,0.7c-0.3,0.3-0.6,0.5-0.7,0.6c-0.2,0.1-0.4,0.2-0.6,0.4c-0.2,0.2-0.5,0.4-0.7,0.5c-0.2,0.2-0.5,0.3-0.8,0.4
		c-0.3,0.1-0.6,0-1-0.2c-0.4-0.2-0.6-0.5-0.6-0.9c0-0.4,0.1-0.7,0.3-0.8c0.2-0.2,0.4-0.3,0.6-0.3c0.2-0.1,0.5,0,0.9,0.1
		c1-0.5,2-1.2,3.1-1.9c1-0.7,2.1-1.5,3-2.2c0.3-0.9,0.5-1.6,0.7-2.3c0.2-0.7,0.4-2.1,0.7-4.2c0.3-2.1,0.2-4.2-0.2-6.1
		c0-0.2,0-0.4,0.2-0.6C22.6,3.1,22.8,3,23,3c0.2,0,0.4,0,0.5,0c0.1,0,0.3,0.3,0.6,0.7c0.2,0.2,0.2,0.4,0.2,0.6c0,0.2,0,0.4,0,0.8
		c0,0.4,0,0.7,0,1c0,0.3-0.1,0.6-0.1,1c0,0.6-0.1,1.2-0.2,1.7c0,0.2,0,0.4,0,0.5C24,9.5,24,9.7,24,9.9s0,0.4-0.1,0.6
		c-0.1,0.2-0.1,0.4-0.1,0.6c0,0.2-0.1,0.4-0.3,0.6c0.1,0.3,0.1,0.6,0,0.9s-0.1,0.5-0.2,0.7c0,0.2-0.1,0.5-0.3,1
		c-0.1,0.3-0.2,0.6-0.3,1c0.4-0.2,0.8-0.2,1,0c0.2,0.2,0.3,0.5,0.3,0.9c0,0.4-0.3,0.7-0.7,0.8c-0.2,0.2-0.6,0.4-1.2,0.7
		c-0.1,0.5-0.3,0.9-0.6,1.2c-0.7,1.8-1.5,3.6-2.5,5.3c-0.4,0.5-0.7,1-1,1.4c-0.3,0.4-0.6,0.8-0.9,1.2c-0.2,0.3-0.5,0.8-0.9,1.3
		c-0.2,0.2-0.4,0.4-0.7,0.8s-0.4,0.6-0.6,0.7s-0.3,0.2-0.5,0.4c-0.2,0.1-0.4,0.2-0.6,0.2c-0.2,0-0.4-0.2-0.6-0.4
		c-0.2-0.2-0.2-0.4-0.1-0.6c-0.1-0.6,0-1,0.2-1c0.2-0.1,0.3-0.2,0.4-0.4c0-0.2,0.2-0.3,0.5-0.4c0.1-0.2,0.2-0.4,0.4-0.6
		C14.7,26.6,15,26.5,15.4,26.4z M17.2,11c-0.2,0.2-0.4,0.2-0.7,0.2c-0.3-0.1-0.5-0.2-0.7-0.4s-0.3-0.5-0.3-0.9
		c-0.1-0.4,0.2-0.6,0.7-0.7c0.5-0.1,1-0.2,1.3-0.1c0.4,0.2,0.7,0.3,0.9,0.5c0.2,0.1,0.4,0.3,0.7,0.6c0.4,0.2,0.6,0.4,0.7,0.8
		c0.3,0.2,0.4,0.5,0.4,0.9c0.2,0.3,0.4,0.5,0.5,0.7c0.1,0.2,0.2,0.5,0.2,0.9c0.2,0.3,0.2,0.6,0,0.9c-0.1,0.2-0.4,0.4-0.7,0.5
		c-0.3,0.1-0.6-0.1-0.9-0.4C19.2,14,19,13.6,19,13.3c0-0.3-0.2-0.7-0.4-1c-0.2-0.3-0.4-0.6-0.6-0.9S17.6,11,17.2,11z M28.5,6.3
		c0.1-0.6,0.2-1,0.2-1.3c0-0.2,0-0.5,0.1-0.7s0.1-0.5,0.3-0.7c0.1-0.2,0.3-0.3,0.6-0.3c0.2,0,0.4,0,0.6,0c0.2,0,0.4,0.1,0.5,0.3
		C31,3.8,31,4,31,4.4c-0.2,0.3-0.3,0.6-0.4,0.9c-0.1,0.3-0.2,0.6-0.3,0.9c-0.2,0.6-0.3,1-0.3,1.2c-0.1,0.2-0.1,0.5-0.2,1
		c-0.1,0.4-0.3,1-0.6,1.7c0,0.2-0.1,0.3-0.1,0.4c-0.1,0.1-0.1,0.4-0.2,0.7c-0.1,0.3-0.2,0.6-0.2,0.7c0,0.2-0.1,0.4-0.3,0.8
		c-0.2,0.4-0.3,0.8-0.4,1.2s-0.3,1-0.5,1.4c-0.2,0.5-0.3,0.8-0.3,0.9c0,0.1-0.1,0.4-0.2,0.6c-0.1,0.3-0.2,0.6-0.3,0.9
		c-0.1,0.3-0.2,0.6-0.2,1s-0.1,0.6-0.3,0.9c-0.1,0.3-0.1,0.6-0.1,0.8c0,0.2-0.1,0.5-0.3,0.7c0.1,0.3,0,0.7,0,1.1c0,0.4,0,0.7,0,0.9
		c0,0.2,0,0.3,0,0.4c0.1,0.1,0,0.4,0,0.9c0.1,1.3,0.5,2.4,1.3,3.3c0.8,0.9,1.7,1.5,2.8,1.9c0.6,0.1,1.2,0,1.7,0
		c0.5-0.1,1-0.2,1.5-0.5c0.4-0.3,0.9-0.7,1.4-1.1c0.5-0.4,0.9-0.9,1.1-1.4c0.2-0.3,0.4-0.6,0.5-0.8s0.2-0.5,0.5-0.7
		c0.1-0.3,0.2-0.5,0.3-0.7c0.1-0.2,0.2-0.3,0.4-0.4c0.1-0.1,0.3-0.2,0.5-0.3s0.4-0.1,0.6-0.1c0.2,0,0.4,0.2,0.6,0.4s0.1,0.7-0.2,1.4
		c-0.3,0.5-0.7,1.2-1.2,1.8s-1.1,1.2-1.6,1.8c-0.5,0.5-1.2,0.9-1.9,1.3c-0.7,0.4-1.5,0.6-2.2,0.6c-0.7,0-1.5,0-2.3-0.2
		c-0.8-0.2-1.5-0.6-2.1-1.1s-1.1-0.9-1.4-1.4c-0.4-0.4-0.7-1.1-1-2.1c-0.3-1-0.4-2.4-0.2-4.3c0.3-1.9,0.7-4,1.3-6.1
		c0.6-2.2,1.2-4.1,1.6-5.7c0.5-1.7,0.7-2.7,0.8-3C28.5,6.9,28.5,6.6,28.5,6.3z M28.4,19.1c-0.3-0.1-0.6-0.2-0.8-0.5
		c-0.2-0.3-0.3-0.6-0.2-0.9c0.1-0.3,0.3-0.4,0.5-0.5c0.2,0,0.7,0.1,1.4,0.4c0.2,0.1,0.4,0.1,0.6,0.3s0.5,0.2,0.7,0.4
		c0.2,0.1,0.5,0.3,1,0.4c0.3,0.2,0.6,0.3,0.8,0.5c0.2,0.1,0.4,0.2,0.6,0.2c0.2,0,0.4,0.1,0.5,0.2c0.2,0.1,0.5,0.2,1,0.4
		c0.3,0.2,0.5,0.3,0.6,0.4c0.1,0.1,0.3,0.1,0.5,0.1s0.4,0.1,0.6,0.4c0.2,0.3,0.3,0.5,0.3,0.7c0,0.2-0.1,0.4-0.2,0.5
		c-0.1,0.2-0.3,0.3-0.4,0.4c-0.2,0.1-0.4,0.1-0.8,0.1c-0.3,0-0.7-0.2-0.9-0.5c-0.6-0.5-1.3-0.9-2-1.3c-0.8-0.4-1.3-0.6-1.7-0.8
		s-0.7-0.3-1.1-0.5C29.1,19.2,28.8,19.1,28.4,19.1z M30.9,11.8c0.4-0.2,0.7-0.5,1.1-0.8c0.2-0.2,0.4-0.3,0.6-0.4
		c0.2-0.3,0.5-0.5,0.8-0.7c0.3-0.3,0.6-0.5,0.7-0.6c0.1-0.1,0.4-0.2,0.7-0.4c0.3-0.1,0.6-0.2,0.7-0.2c0.2,0,0.4,0,0.6,0.1
		c0.2,0.1,0.4,0.2,0.5,0.4c0.1,0.1,0.1,0.4,0.1,0.7c-0.1,0.3-0.2,0.6-0.5,0.7c-0.3,0.1-0.6,0.2-1,0.4c-0.9,0.6-1.6,1.1-2.2,1.6
		c-0.6,0.5-1.3,1.1-1.9,1.8c-0.2,0.3-0.4,0.5-0.6,0.7c-0.2,0.1-0.5,0.1-0.9,0c-0.4-0.1-0.6-0.5-0.5-1c0-0.5,0.3-0.9,0.8-1.3
		C30.4,12.3,30.7,12,30.9,11.8z"/>
	<path class="st0" d="M60.4,24.4c-0.7,0.1-1.1,0.1-1.3,0.1c-0.2,0-0.4,0-0.5,0c-0.2,0-0.3,0-0.5,0c-0.2,0-0.4,0-0.5,0.1
		c-0.2,0.1-0.4,0.1-0.5,0c-0.3,0.2-0.7,0.2-1.2,0.2c-0.8,0-2.1,0.2-4.1,0.6c-0.1,0.5-0.1,1.1-0.2,1.6c-0.2,2.2-0.4,3.7-0.4,4.4
		c0.1,0.5,0.1,1,0,1.2c-0.1,0.3-0.2,0.5-0.4,0.6c-0.2,0.1-0.4,0.2-0.8,0.2c-0.3,0-0.5-0.2-0.7-0.5c-0.1-0.3-0.2-0.6-0.2-1
		c0-0.4,0.1-0.8,0.2-1.4c0.1-0.4,0.2-0.7,0.3-0.9c0.1-0.5,0.2-1.1,0.4-1.9c0.1-0.5,0.2-1.2,0.4-2c-0.7,0.1-1.1,0.2-1.2,0.2
		c-0.2,0-0.3,0.1-0.4,0.2c-0.1,0.1-0.3,0.1-0.5,0.1c-0.2,0.2-0.5,0.3-0.7,0.3c-0.2,0-0.4,0-0.6,0.1c-0.1,0.1-0.3,0.1-0.5,0.1
		c-0.2,0-0.3,0-0.5,0.1c-0.2,0.1-0.4,0.2-0.5,0.4c-0.2,0.2-0.4,0.2-0.5,0.1c-0.2-0.1-0.3-0.1-0.4,0.1c-0.1,0.1-0.4,0.3-0.8,0.5
		c-0.4,0.7-0.8,1-1.2,1.1c-0.3,0.1-0.6,0.1-0.9-0.1c-0.3-0.1-0.4-0.3-0.4-0.6c0-0.3,0-0.5,0.1-0.8c0.2-0.4,0.5-0.7,0.8-0.9
		s0.6-0.3,0.9-0.4l2.9-0.9c0.6-0.2,2.2-0.5,4.6-1.1c0.1-0.5,0.2-1,0.3-1.6c0.1-0.6,0.2-1.3,0.3-2.1c-0.3,0.1-0.6,0.1-1,0.2
		c-0.2,0.1-0.3,0.2-0.5,0.2c-0.2,0-0.4,0.1-0.6,0.2c-0.2,0.1-0.3,0.2-0.5,0.2c-0.3,0.3-0.5,0.5-0.6,0.6c-0.1,0.1-0.4,0.2-0.8,0.2
		s-0.8-0.1-1.2-0.4c-0.4-0.2-0.8-0.6-1.2-1.1c-0.4-0.5-0.7-1.1-0.9-1.7c-0.2-0.6-0.4-1.2-0.4-1.8c-0.1-1.4-0.1-2.7-0.1-3.7
		c0-1,0.1-2,0.3-2.9c0.1-0.4,0.1-0.7,0.2-0.9c0.1-0.2,0.2-0.4,0.4-0.8c0.2-0.4,0.5-0.6,0.7-0.6c0.2,0,0.5,0.1,0.7,0.2
		C45.8,8.5,46,8.7,46,8.9c0,0.2,0,0.4-0.1,0.6s-0.2,0.4-0.3,0.7c0,0.4-0.1,0.7-0.1,0.8c-0.1,0.1-0.1,0.3-0.2,0.6
		c-0.1,0.2-0.2,0.5-0.3,0.9c0.1,0.3,0.1,0.6,0,0.7c-0.1,0.2-0.2,0.4-0.2,0.6c0,0.2,0,0.4,0.1,0.5c0.1,0.1,0,0.3-0.1,0.6
		c0.1,0.3,0.1,0.5,0.1,0.7c-0.1,0.2,0,0.5,0.1,0.8c0.1,0.3,0.1,0.6,0.1,0.8c0,0.2,0,0.5,0.1,0.9c0.2,0.1,0.3,0.2,0.3,0.4
		c0.1,0.2,0.1,0.3,0.2,0.5c0.1,0.1,0.2,0.3,0.3,0.5c0.1,0.2,0.3,0.3,0.6,0.4c0.3,0.1,0.6,0.2,0.9,0.4c0.2-0.3,0.5-0.5,1-0.7
		c0.4-0.1,0.8-0.2,1-0.2c0.2,0,0.5-0.1,1-0.2c0.4-0.1,0.8-0.2,1.1-0.2c0.2-0.7,0.3-1.3,0.3-1.8c0-0.5,0-0.9,0.1-1.2
		c-0.5,0.1-0.9,0.1-1.1,0.2c-0.2,0-0.4,0.1-0.8,0.3c-0.3,0.1-0.6,0.2-0.9,0.4c-0.3,0.2-0.5,0.3-0.6,0.3c-0.1,0.1-0.3,0-0.6-0.1
		c-0.5-0.2-0.7-0.5-0.6-1c0.1-0.5,0.4-0.7,0.8-0.8c0.4-0.1,0.8-0.2,1.1-0.3c0.3-0.1,0.7-0.2,1-0.3c0.7-0.1,1.2-0.2,1.7-0.4
		c0-0.4,0.1-0.9,0.1-1.3s0.1-0.8,0.1-1.2c-0.8,0.1-1.5,0.3-2.1,0.6c-0.4,0.2-0.7,0.4-0.9,0.5c-0.2,0.1-0.3,0.3-0.4,0.4
		c-0.1,0.1-0.4,0.2-0.8,0.1c-0.4-0.2-0.6-0.4-0.5-0.8c0.1-0.4,0.2-0.7,0.4-1c0.2-0.3,1.2-0.7,2.9-1.2c-0.1-0.3-0.1-0.5,0.1-0.7
		s0.3-0.4,0.5-0.5c0.2-0.1,0.4-0.3,0.7-0.5C53,7.7,53.6,7.2,53.8,7c0.3-0.4,0.5-0.6,0.8-0.8c0.3-0.1,0.5-0.3,0.6-0.6
		c0.3-0.2,0.4-0.3,0.5-0.5C55.9,5,56,4.9,56.2,4.8c0.1-0.2,0.3-0.4,0.5-0.4c0.2-0.1,0.4-0.2,0.4-0.3c0.1-0.2,0.2-0.3,0.3-0.3
		c0.1-0.1,0.2-0.1,0.3-0.3C57.8,3.3,58,3.2,58.2,3c0.3-0.3,0.5-0.4,0.6-0.6s0.2-0.2,0.4-0.4c0.2-0.1,0.3-0.3,0.5-0.5
		c0.1-0.2,0.3-0.4,0.6-0.7c0.1-0.2,0.3-0.3,0.5-0.3c0.2,0,0.4,0,0.6,0c0.2,0,0.4,0.2,0.5,0.5c0.1,0.3,0.2,0.5,0.1,0.7
		c-0.1,0.2-0.3,0.4-0.6,0.5c-0.3,0.3-1.1,1-2.4,2.1c-1.3,1.1-3.2,2.8-5.6,5.2c0.4-0.1,0.9-0.2,1.3-0.3c0.4-0.1,1-0.1,1.7-0.2
		c0.7,0.1,1.2,0.2,1.6,0.3c0.4,0.2,0.7,0.4,1,0.7c0.3,0.3,0.4,0.6,0.5,1c0.1,0.4,0.2,0.7,0.2,1.1c0,0.4,0,0.6,0,0.8
		c0,0.2-0.1,0.5-0.3,1c-0.1,0.9-0.5,2-1.2,3.4c-0.2,0.5-0.4,1-0.4,1.3c-0.2,0.3-0.3,0.6-0.4,1s-0.2,0.8-0.5,1.1
		c-0.3,0.3-0.6,0.6-1,0.8c-0.4,0.2-0.8,0-1-0.3c-0.3-0.4-0.3-0.7,0-1.1c-0.6,0.1-1.3,0.1-2.1,0.2c-0.3,1.2-0.5,2.4-0.7,3.6
		c2.3-0.5,4.6-0.8,6.7-1.1c0.7-0.1,1.2-0.2,1.7-0.1s0.8,0.2,1,0.5c0.2,0.3,0.2,0.6,0,0.8C61.2,24.3,60.9,24.4,60.4,24.4z M47.8,6.3
		c0.3,0.1,0.5,0.2,0.7,0.4c0.2,0.1,0.3,0.3,0.4,0.4c0.1,0.2,0,0.4-0.1,0.5C48.6,7.8,48.5,8,48.3,8c-0.2,0.1-0.5,0.1-0.9,0
		c-0.6,0-1.2-0.3-1.9-0.7s-1.1-1-1.3-1.8s-0.4-1.4-0.4-1.9c0-0.5-0.1-0.9-0.2-1.4c-0.1-0.5-0.1-1,0.1-1.3c0.2-0.3,0.5-0.3,1-0.1
		c0.5,0.2,0.8,0.5,0.8,0.8c0.1,0.3,0,0.7-0.1,1c0.1,0.2,0.1,0.5,0.1,0.9c0,0.4,0,0.7,0,0.9c0,0.2,0,0.4,0.2,0.5
		c0.1,0.2,0.3,0.3,0.3,0.5c0.1,0.2,0.3,0.3,0.6,0.5C46.9,6.1,47.3,6.2,47.8,6.3z M51,0.6c0.2-0.3,0.4-0.5,0.6-0.5
		C51.9,0,52.2,0,52.3,0c0.1,0,0.3,0.1,0.4,0.3C52.9,0.4,53,0.6,53,0.8c0,0.2-0.1,0.3-0.2,0.4c-0.1,0.1-0.2,0.4-0.4,0.7
		c-0.1,0.6-0.1,1-0.1,1.3c0,0.3,0,0.8,0,1.6c0.3,0.4,0.5,0.8,0.6,1.1c0.1,0.3-0.1,0.6-0.5,0.8c-0.4,0.2-0.8,0.2-1.1,0
		c-0.3-0.2-0.5-0.7-0.6-1.4c-0.1-1.1-0.1-1.8-0.1-2c0-0.2,0-0.6,0-1.1C50.6,1.8,50.8,1.2,51,0.6z M53,18.7c0.5,0,1-0.1,1.5-0.2
		c0.5-0.1,1-0.1,1.5,0c0.7-1.2,1.1-2.1,1.3-2.8c0.2-0.7,0.4-1.5,0.6-2.3c0.2-0.8,0.1-1.5-0.1-1.9c-0.2-0.4-0.5-0.6-0.8-0.7
		c-0.3-0.1-0.6-0.2-0.9-0.2c-0.3,0.1-0.7,0.2-1.1,0.2c-0.4,0-0.9,0.1-1.5,0.3c0.3,0.5,0.5,0.9,0.4,1.2c-0.1,0.3-0.2,0.9-0.3,1.7
		c0.4,0.1,0.7,0.1,0.9,0.1c0.2,0,0.5,0.1,1,0.4c0.3,0.4,0.5,0.7,0.5,1c0,0.2,0,0.4,0,0.6c-0.1,0.2-0.2,0.4-0.6,0.7
		c-0.2,0.1-0.3,0.2-0.5,0.1c-0.1,0-0.3-0.1-0.5-0.2c-0.2-0.1-0.3-0.3-0.3-0.5c0-0.3-0.2-0.4-0.8-0.4c-0.1,0.7-0.2,1.2-0.3,1.6
		C53.1,17.7,53,18.2,53,18.7z M73.3,12.6c-0.3-0.2-0.5-0.3-0.7-0.3c-0.2,0-0.6,0-1,0c-0.8,0.1-1.3,0.2-1.6,0.3
		c-0.3,0.1-0.7,0.2-1.2,0.3c-0.1,0.5-0.1,1.2,0,2c0.1,0.4,0.2,0.8,0.2,1.2c0.1,0.9,0.1,1.5,0.2,2s0.2,1.1,0.3,1.8
		c0.1,0.7,0.2,1.2,0.3,1.6c0.4-0.4,0.7-0.8,1-1.2c0.3-0.4,0.5-0.7,0.7-1.1c0.2-0.4,0.3-0.7,0.4-1s0.2-0.5,0.3-0.7
		c0.1-0.2,0.1-0.5,0.1-0.9c0.1-0.6,0.4-0.9,0.9-1c0.5,0,0.8,0.1,1,0.4c0.2,0.3,0.2,0.5,0.2,0.8c0,0.2-0.1,0.5-0.2,0.8
		c-0.1,0.3-0.2,0.6-0.4,1c-0.2,0.4-0.4,0.7-0.7,0.9c-0.1,0.3-0.2,0.6-0.4,0.7c-0.2,0.2-0.3,0.3-0.5,0.4c-0.1,0.1-0.3,0.4-0.5,0.9
		c-0.5,0.5-1,1-1.5,1.4c0.2,0.8,0.3,1.4,0.4,1.6c0.1,0.3,0.4,0.8,0.7,1.6c0.3,0.8,0.6,1.5,1,2c0.3,0.5,0.6,0.9,0.9,1.2
		c0.3,0.3,0.6,0.7,1,1c0.4-0.2,0.6-0.4,0.7-0.5c0.1-0.2,0.3-0.6,0.4-1.1c0.2-0.5,0.3-1,0.4-1.5c0.1-0.5,0.1-0.8,0.2-1.2
		c0.1-0.3,0.2-1,0.3-2c0-0.3,0-0.6,0.1-0.9c0-0.2,0.1-0.5,0.3-0.8s0.5-0.4,0.9-0.4s0.7,0.2,0.8,0.4c0.1,0.2,0.1,0.5,0.1,0.9
		c-0.1,0.4-0.2,0.7-0.3,0.9c-0.1,0.2-0.1,0.4-0.2,0.6c-0.1,0.2-0.1,0.4-0.1,0.6c-0.1,0.3-0.2,0.6-0.2,0.8c-0.1,0.2-0.2,0.6-0.4,1.1
		c0,0.3,0,0.6-0.1,0.8c-0.1,0.2-0.1,0.4-0.2,0.5c-0.1,0.1-0.1,0.3-0.2,0.5c-0.1,0.2-0.2,0.5-0.2,0.9c-0.3,0.7-0.6,1.1-0.8,1.3
		c-0.2,0.2-0.5,0.4-0.9,0.4c-0.4,0-0.8,0-1.2-0.1c-0.5-0.3-0.9-0.6-1.2-1c-0.3-0.4-0.7-0.9-1-1.4c-0.4-0.6-0.6-1.1-0.9-1.7
		c-0.2-0.6-0.4-1.1-0.6-1.6c-0.2-0.5-0.4-1.1-0.6-1.8c-0.7,0.7-1.7,1.7-3.1,3c-1.6,1.5-3.3,3.1-4.8,4.6c-0.9,0.1-1.4,0-1.6-0.4
		c-0.1-0.4-0.2-0.7,0-0.9s0.3-0.4,0.5-0.5c0.2-0.2,0.5-0.3,0.7-0.4c0.2-0.1,0.5-0.3,0.8-0.5c0.3-0.2,0.5-0.4,0.7-0.5
		c0.2-0.1,0.4-0.3,0.5-0.4c0.2-0.2,0.4-0.3,0.7-0.3c0.2-0.3,0.5-0.6,0.7-0.7l0.6-0.5c0.3-0.3,0.8-0.8,1.4-1.4
		c0.3-0.3,0.6-0.5,0.8-0.7c0.3-0.2,0.5-0.4,0.5-0.6c0.1-0.2,0.2-0.3,0.4-0.4c0.2-0.1,0.5-0.3,0.8-0.7c-0.4-1.6-0.7-2.9-0.8-4
		c-0.1-1.1-0.3-2.8-0.6-5.3c-0.7,0.2-1.2,0.2-1.6,0.2c-0.3,0.2-0.6,0.4-0.8,0.5C64.6,14,64.3,14,64,14.1c-0.3,0.2-0.5,0.4-0.6,0.5
		c-0.1,0.1-0.3,0.2-0.7,0.4c-0.2,0.2-0.4,0.3-0.7,0.5c-0.3,0.2-0.5,0.2-0.8,0c-0.3-0.2-0.5-0.4-0.6-0.6c-0.1-0.2,0-0.6,0.2-1
		c0.3-0.4,0.6-0.6,1-0.7c0.4-0.1,0.7-0.2,1-0.4c0.8-0.3,1.4-0.5,1.8-0.6c0.4-0.1,0.7-0.2,1-0.3c0.5-0.2,1-0.3,1.4-0.3
		C67,10.8,67,10.2,67,9.7c0-0.4,0-0.8,0-1c-0.1-0.3-0.2-0.5-0.1-0.9c0-0.3,0.1-0.6,0.1-0.8c-0.1-0.5-0.1-0.9-0.1-1.2
		C67,5.6,67,5.3,67.2,5c0.1-0.3,0.3-0.5,0.5-0.6s0.4-0.2,0.6-0.2c0.2,0,0.4,0.1,0.5,0.2c0.2,0.1,0.3,0.3,0.4,0.6
		c0.1,0.2,0.1,0.5,0,0.7c-0.1,0.2-0.2,0.4-0.3,0.6c-0.1,0.2-0.2,0.4-0.2,0.7c0,0.4,0,0.7-0.1,0.9c0,0.2,0,0.4-0.1,0.6
		c-0.1,0.2-0.1,0.4,0,0.7c0,0.5,0,1.2,0,2.2c0.5-0.1,0.9-0.2,1.2-0.2c0.2-0.1,0.6-0.1,1.1-0.2c0.3-0.1,0.7-0.1,1-0.2
		c0.3,0,0.7-0.1,1.2-0.1c0.4-0.1,0.6-0.1,0.8-0.1c0.2,0,0.4,0.1,0.6,0.1c0.2,0.1,0.4,0.2,0.6,0.5c0.2,0.3,0.3,0.5,0.1,0.8
		c-0.2,0.3-0.4,0.5-0.8,0.5S73.6,12.6,73.3,12.6z M76.1,9.5c-0.2-0.5-0.4-0.8-0.6-1.1S75.1,8,74.9,7.8c-0.3-0.4-0.6-0.7-0.8-0.9
		c-0.2-0.2-0.5-0.4-0.9-0.6C73,6.1,72.8,6,72.7,5.9c-0.2-0.1-0.3-0.3-0.3-0.5c-0.1-0.3,0-0.5,0.2-0.7s0.4-0.3,0.6-0.4
		c0.2,0,0.4,0,0.7,0.2c0.3,0.2,0.5,0.4,0.8,0.6c0.4,0.4,0.6,0.7,0.7,0.9c0.1,0.2,0.4,0.4,0.7,0.8c0.2,0.2,0.4,0.4,0.5,0.6
		c0.1,0.2,0.3,0.5,0.6,0.6c0.1,0.3,0.2,0.5,0.4,0.8c0.1,0.3,0.3,0.6,0.5,1c0.1,0.5,0.2,0.9,0.2,1.1c0,0.2-0.2,0.3-0.5,0.5
		c-0.3,0.2-0.6,0.2-0.9-0.1c-0.2-0.2-0.4-0.5-0.5-0.9C76.3,10,76.2,9.7,76.1,9.5z"/>
	<path class="st0" d="M90.3,24.7c-0.3,0.2-0.6,0.4-0.9,0.5c-0.3,0.1-0.5,0.1-0.8,0.3s-0.5,0.2-0.8,0.2c-0.2-0.1-0.5-0.1-0.7,0.1
		c-0.2,0.1-0.5,0-0.7-0.1c-0.3,0-0.7-0.1-0.9-0.3c-0.5-0.1-1-0.3-1.2-0.7c-0.2-0.2-0.4-0.4-0.6-0.7c0-0.2-0.1-0.4-0.2-0.6
		c-0.1-0.2-0.1-0.3-0.1-0.5c-0.2-0.4-0.2-0.9-0.1-1.3c0.1-0.4,0.2-0.8,0.3-1.2c0.1-0.4,0.3-0.8,0.5-1.1c0.1-0.3,0.2-0.5,0.5-0.6
		c0.1-0.2,0.2-0.3,0.3-0.5s0.2-0.3,0.4-0.4c0.1-0.2,0.2-0.3,0.3-0.4c0.2-0.1,0.3-0.2,0.5-0.3c0.3-0.4,0.6-0.6,1.1-0.7
		c0.3-0.3,0.6-0.6,0.8-0.7c0.2-0.1,0.5-0.2,0.8-0.4c0.3-0.1,0.6-0.3,0.9-0.4c0.3-0.1,0.6-0.3,0.9-0.4c0.5-0.2,0.9-0.4,1.4-0.5
		c0.3-1.4,0.5-2.7,0.7-3.8c0.2-1.1,0.6-2.6,1.1-4.6c-0.3,0.1-0.7,0.1-1.1,0.2C92.1,5.9,91.7,6,91.2,6c-0.6,0.2-1,0.2-1.2,0.1
		s-0.4-0.2-0.5-0.3c-0.2-0.3-0.2-0.7-0.1-0.9c0.1-0.3,0.3-0.5,0.5-0.6C90.4,4,90.7,3.9,91,4C91.3,4,91.5,4,91.6,4c0.1,0,0.3,0,0.6,0
		c0.3-0.1,0.5-0.1,0.8-0.1c0.4-0.1,0.7-0.2,1.1-0.2c0.2-0.5,0.4-0.9,0.6-1.2c0.2-0.2,0.4-0.5,0.5-0.7c0.3-0.3,0.6-0.4,1-0.4
		c0.4,0,0.6,0.1,0.7,0.2s0.3,0.3,0.4,0.7c-0.1,0.4-0.3,0.7-0.6,1.1c0.8-0.1,1.4-0.2,1.8-0.3c0.5-0.1,1-0.2,1.6-0.3
		c0.4-0.1,0.8-0.2,1.2-0.3c0.4-0.1,0.7-0.1,0.9,0c0.2,0.1,0.3,0.3,0.4,0.6c0.1,0.3,0,0.6-0.3,1c-0.1,0.1-0.3,0.2-0.4,0.3
		s-0.3,0.1-0.6,0.3c-0.7,0.1-1.4,0.1-2.1,0.2c-0.7,0.1-1.4,0.2-2,0.4c-0.7,0.1-1.2,0.2-1.6,0.3c-0.3,0.6-0.5,1.4-0.9,2.3
		s-0.6,1.8-0.7,2.6c-0.2,0.8-0.3,1.9-0.5,3.1c1.2-0.2,2.3-0.4,3.2-0.5c0.9-0.1,1.6-0.2,2.1-0.2c0.5-0.1,0.9-0.1,1.2-0.1
		c0.2-0.4,0.4-0.7,0.5-0.9c0.2-0.4,0.4-0.8,0.6-1.2c0.1-0.3,0.1-0.5,0.2-0.8c0.2-0.3,0.3-0.6,0.4-0.9c0.1-0.3,0.4-0.6,0.9-0.7
		c0.3,0,0.6,0.1,0.9,0.2s0.4,0.4,0.4,0.8c0,0.4-0.1,0.6-0.2,0.8c-0.1,0.2-0.3,0.4-0.6,0.5c-0.3,0.4-0.5,0.8-0.7,1.1
		c-0.2,0.4-0.4,0.7-0.6,0.9c0.6,0.1,1.1,0.1,1.4,0.1c0.3,0,0.6,0.1,1,0.2c0.4,0.1,0.7,0.2,1,0.2s0.5,0.1,0.5,0.2
		c0.1,0.1,0.3,0.2,0.6,0.2c0.3,0,0.6,0.1,0.8,0.3c0.2,0.2,0.5,0.3,0.8,0.5c0.4,0.4,0.8,0.8,1.1,1.2c0.4,0.4,0.7,0.9,0.9,1.4
		s0.4,1.2,0.5,1.8c0,0.4,0,0.9-0.1,1.3c0,0.4-0.2,0.8-0.4,1.2c-0.1,0.3-0.2,0.6-0.4,1c-0.1,0.4-0.3,0.7-0.6,0.9
		c-0.2,0.4-0.4,0.7-0.8,1c-1.6,1.9-3.4,3.6-5.5,5c-0.6,0.7-1.4,1.2-2.2,1.8c-0.4,0.3-0.7,0.5-1,0.6c-0.2,0.2-0.4,0.4-0.6,0.6
		c-0.2,0.2-0.5,0.2-0.8,0.2c-0.2,0.3-0.4,0.5-0.7,0.6c-0.2,0.1-0.5,0.2-0.7,0.3c-0.2,0.1-0.5,0.1-0.8-0.1c-0.3-0.1-0.5-0.3-0.6-0.5
		c-0.1-0.2,0-0.5,0.1-1c0.2-0.4,0.7-0.7,1.4-0.8c0.5-0.2,1.1-0.4,1.7-0.7c0.6-0.3,1.1-0.5,1.6-0.7c1.7-1.2,3.4-2.5,5-3.9
		c1.6-1.5,2.6-2.5,2.9-3.2c0.3-0.7,0.5-1.2,0.5-1.4c0-0.3,0.1-0.5,0.3-0.6c0.1-0.4,0.1-0.8,0.1-1.4c-0.2-0.3-0.4-0.7-0.6-1.2
		c-0.2-0.5-0.6-0.9-1-1.3c-0.2-0.1-0.3-0.2-0.4-0.4c-0.3-0.1-0.6-0.2-0.8-0.4c-0.5-0.1-1.1-0.3-1.6-0.4c-0.5-0.2-1-0.3-1.6-0.3
		c-0.3-0.2-0.6-0.2-1-0.2c-0.3,0-0.6,0-0.9,0c-0.4,0.7-0.8,1.1-0.9,1.3c-0.2,0.2-0.5,0.6-1,1.1c-0.9,1.2-1.8,2.2-2.7,3.1
		c-0.8,0.9-1.5,1.5-2,1.9c-0.5,0.4-0.8,0.7-1,0.9c0.2,0.3,0.4,0.5,0.6,0.6c0.2,0.1,0.4,0.2,0.7,0.3c0.3,0.1,0.6,0.3,0.8,0.5
		c0.2,0.3,0.2,0.5,0.3,0.8c0,0.3-0.1,0.5-0.3,0.6c-0.1,0.4-0.4,0.5-0.9,0.4c-0.7-0.3-1.1-0.6-1.3-0.8s-0.4-0.4-0.6-0.5
		c-0.2-0.2-0.5-0.4-0.9-0.7c-0.4,0.3-0.7,0.5-1,0.6C90.8,24.4,90.6,24.6,90.3,24.7z M91.4,20c0.1-0.7,0.1-1.3,0.1-1.8
		c0-0.5,0.1-1.3,0.2-2.3c-0.3,0-0.5,0.1-0.7,0.2c-0.2,0.1-0.4,0.2-0.5,0.2c-0.2,0-0.5,0.2-0.9,0.4c-0.7,0.4-1.2,0.7-1.6,1
		c-0.4,0.2-0.9,0.6-1.5,1.2c-0.2,0.2-0.3,0.4-0.4,0.6c-0.1,0.2-0.3,0.3-0.4,0.4s-0.2,0.3-0.3,0.4c-0.1,0.2-0.2,0.3-0.3,0.5
		c0,0.2-0.1,0.4-0.2,0.8c-0.1,0.5,0,0.9,0.1,1.2c0.1,0.3,0.4,0.6,0.7,0.8c0.6,0.3,1.2,0.4,1.7,0.4c0.5,0,0.9-0.1,1.2-0.2
		c0.2-0.1,0.5-0.2,0.7-0.4c0.4-0.2,0.8-0.3,1.1-0.5c0.3-0.2,0.8-0.5,1.5-1c-0.1-0.4-0.2-0.7-0.3-1C91.6,20.7,91.5,20.4,91.4,20z
		 M98.3,15.7c0.3-0.6,0.6-1.1,0.9-1.5c-0.2-0.1-0.5-0.1-0.8,0.1c-0.2-0.1-0.5,0-0.7,0c-0.2,0.1-0.5,0.1-0.8,0.1
		c-0.2,0.1-0.5,0.1-0.7,0.1c-0.2,0-0.4,0.1-0.7,0.2c-0.4,0-0.8,0-1.1,0.1c-0.3,0.1-0.7,0.2-1.2,0.4c-0.2,1.3-0.3,2.3-0.3,3
		c0,0.7,0,1.6,0.2,2.6c0.3-0.3,0.6-0.5,0.9-0.5c0.1-0.2,0.3-0.4,0.6-0.6c0.5-0.4,1-0.8,1.4-1.2c0.2-0.5,0.4-0.7,0.8-0.8
		c0-0.3,0.1-0.4,0.2-0.5c0.1-0.1,0.3-0.2,0.4-0.4c0.1-0.1,0.2-0.3,0.3-0.5C97.9,16,98.1,15.9,98.3,15.7z"/>
	<path class="st0" d="M134.2,16c0.5,0.3,0.8,0.6,1,0.9c0.2,0.3,0.4,0.6,0.5,1c0.1,0.4,0.1,0.7,0.1,1c0,0.3,0,0.5-0.1,0.8
		c0,0.2-0.1,0.5-0.4,0.8c-0.2,0.3-0.4,0.7-0.7,1c-0.3,0.4-0.9,1-1.8,1.7c-0.9,0.8-1.8,1.5-2.9,2.2c-1.1,0.7-2.2,1.5-3.3,2.2
		c-1,0.5-1.7,1-2.3,1.2c-0.8,0.5-1.4,0.7-1.8,0.6c-0.3-0.1-0.6-0.2-0.8-0.4c-0.2-0.2-0.2-0.4-0.2-0.6c0.1-0.2,0.1-0.4,0.3-0.5
		c0.1-0.1,0.2-0.3,0.4-0.4c0.2-0.2,0.4-0.3,0.8-0.4c0.3-0.1,0.8-0.2,1.3-0.3c0.3-0.2,0.6-0.4,1.1-0.5c0.2-0.2,0.4-0.3,0.6-0.4
		s0.4-0.2,0.7-0.3c0.3-0.3,0.5-0.5,0.8-0.6c0.2-0.1,0.7-0.3,1.3-0.6l1.6-1.2c0.3-0.3,0.6-0.6,0.9-0.7c0.3-0.2,0.5-0.3,0.5-0.4
		c0.1-0.1,0.3-0.3,0.7-0.6c0.1-0.3,0.3-0.6,0.6-0.7c0.2-0.2,0.3-0.3,0.4-0.5c0.1-0.2,0.2-0.4,0.3-0.6c0.1-0.2,0.1-0.6,0-1.2
		c-0.3-0.4-0.5-0.7-0.6-0.7c-0.1-0.1-0.2-0.1-0.3-0.3c-0.1-0.1-0.2-0.2-0.4-0.2c-0.2,0-0.4-0.1-0.5-0.1s-0.4-0.2-0.7-0.4
		c-0.4-0.1-0.7-0.1-1-0.1c-0.3,0-0.6,0-0.8-0.1c-0.2-0.1-0.8-0.1-1.8,0c-1,0.1-2.1,0.2-3.5,0.4c-0.3,0.3-0.7,0.4-1.1,0.4
		c-0.2,0.2-0.5,0.4-0.9,0.4c-0.3,0.2-0.6,0.3-1,0.4c-0.4,0.1-0.7,0.3-1,0.6c-0.1,0.4-0.3,0.7-0.5,0.9c-0.2,0.2-0.5,0.3-0.8,0.4
		c-0.3,0.1-0.6,0.1-0.9-0.1c-0.3-0.2-0.4-0.4-0.4-0.8c-0.1-0.4,0-0.7,0.3-1c0.2-0.3,0.5-0.5,0.8-0.7c0.3-0.2,0.8-0.5,1.6-0.8
		s2.1-0.6,3.9-1c1.6-0.3,2.6-0.5,3.2-0.5c0.5,0,1,0,1.4,0c1.2,0.1,2.3,0.2,3.2,0.4C133.1,15.6,133.7,15.8,134.2,16z"/>
	<path class="st0" d="M157.1,13.9c0.2-0.4,0.5-0.5,0.8-0.5c0.1-0.3,0.2-0.4,0.4-0.4c0.1,0,0.3-0.1,0.3-0.2c0.1-0.1,0.2-0.3,0.5-0.4
		c0.2-0.1,0.4-0.2,0.5-0.4c0.1-0.2,0.2-0.3,0.4-0.4c0.1,0,0.3-0.3,0.5-0.6c0.1-0.2,0-0.4-0.4-0.6s-1-0.2-2.2-0.3
		c-0.3,0-0.5-0.1-0.7-0.1c-0.2,0-0.4,0-0.6,0c-0.2,0-0.4,0.1-0.5,0.1c-0.1,0-0.3,0-0.5,0c-0.2-0.1-0.3,0-0.5,0
		c-0.1,0.1-0.4,0-0.7-0.1c-0.1,0.2-0.3,0.2-0.4,0.1c-0.2-0.1-0.3-0.1-0.4,0c-0.1,0.1-0.3,0.1-0.4,0.1c-0.2,0.1-0.3,0.2-0.5,0.2
		c-0.2,0-0.4,0-0.7-0.1c-0.3,0.2-0.5,0.2-0.7,0.2c-0.3,0.1-0.6,0.1-0.7,0.2c-0.1,0.1-0.3,0.1-0.4,0c-0.5,0-0.9,0.1-1.3,0.2
		c-0.2,0.1-0.4,0.1-0.6,0.2c-0.2,0-0.4,0.1-0.7,0.1c-0.2,0-0.6,0.2-1.1,0.4c-0.2,0.5-0.3,0.8-0.5,1c-0.1,0.1-0.3,0.2-0.4,0.4
		c-0.2,0.1-0.4,0.1-0.7,0s-0.6-0.3-0.9-0.6c-0.3-0.3-0.4-0.7-0.3-1.1s0.3-0.7,0.6-1c0.4-0.2,0.8-0.4,1.3-0.4
		c0.6-0.2,1.4-0.3,2.2-0.5c0.8-0.1,1.6-0.3,2.1-0.3c0.4-0.1,0.7-0.2,0.9-0.1s0.4,0,0.5,0c0.2-0.1,0.4-0.1,0.6-0.1c0.2,0,0.5,0,0.7,0
		c0.2,0,0.4,0,0.5-0.1c0.1-0.1,0.3-0.1,0.6-0.1c0.3,0,0.7,0.1,1.1,0.2c0.3-0.1,0.7-0.2,1.3-0.3c0.4,0.1,0.8,0.1,1.2,0
		c1.3,0.1,2.5,0.2,3.7,0.5c0.4,0.2,0.7,0.4,1,0.6c0.3,0.3,0.4,0.6,0.4,1c0,0.4-0.1,0.8-0.3,1.1c-0.2,0.3-0.3,0.6-0.4,0.8
		s-0.4,0.5-0.9,0.8c-0.4,0.2-0.9,0.5-1.5,1c-0.6,0.4-1.3,0.9-2,1.5c-0.7,0.5-1.5,1.1-2.3,1.8c-0.8,0.7-1.6,1.3-2.4,2
		c-0.4,0.5-0.9,1-1.2,1.5c-0.4,0.5-0.6,0.9-0.7,1.2c-0.1,0.3-0.2,0.6-0.2,1.1c0,0.4,0.2,0.8,0.6,1.2c0.3,0.2,0.6,0.4,0.9,0.7
		c0.3,0,0.6,0.1,0.8,0.2c0.2,0.1,0.4,0.2,0.7,0.3s0.9,0.3,1.8,0.6c0.2,0.1,0.4,0.1,0.7,0.1c0.3,0,0.6,0.1,0.9,0.3
		c0.5,0,0.9,0.1,1.2,0.3c0.2,0.1,0.4,0.3,0.6,0.4c0.2,0.1,0.2,0.3,0.2,0.5c0,0.2-0.1,0.4-0.2,0.6c-0.1,0.2-0.3,0.4-0.5,0.4
		c-0.2,0.1-0.4,0.1-0.6,0.1c-0.2,0-0.6-0.1-1.1-0.3c-0.4-0.1-0.8-0.3-1-0.4c-0.4-0.2-1-0.4-1.7-0.7c-0.8-0.3-1.4-0.6-1.9-0.9
		c-0.4-0.2-0.8-0.3-1.1-0.5c-0.3-0.2-0.6-0.5-0.9-0.8c-0.6-0.4-1-0.9-1.1-1.5c-0.1-0.6,0-1.3,0.2-1.9c0.3-0.6,0.6-1.2,1-1.7
		s0.8-1,1.2-1.4c0.1-0.3,0.4-0.4,0.7-0.5c0.1-0.3,0.2-0.5,0.3-0.6c0.1-0.1,0.3-0.3,0.8-0.5c0.4-0.4,1-0.9,1.5-1.3
		c0.6-0.5,1-0.8,1.4-1c0.1-0.2,0.2-0.4,0.4-0.5C156.8,14,157,14,157.1,13.9z"/>
	<path class="st0" d="M175.1,24.8c-0.4-0.1-0.7-0.3-0.9-0.4c-0.2-0.2-0.4-0.3-0.6-0.5c-0.2-0.2-0.3-0.3-0.4-0.5
		c-0.1-0.2-0.1-0.4-0.2-0.7c-0.1-0.3,0-0.5,0.2-0.7s0.3-0.4,0.5-0.6c0.3-0.2,0.6-0.3,1-0.3c0.4,0,0.7,0.2,0.7,0.4
		c0.1,0.2,0.1,0.4,0.1,0.6c0,0.2-0.1,0.4-0.1,0.6c0,0.2,0.2,0.4,0.7,0.5c0.5,0.3,1,0.4,1.4,0.5c0.4,0.1,1,0.1,1.9,0.2
		c0.8,0.1,1.8,0,2.9-0.2c0.5-0.1,0.8-0.1,1.1-0.2c0.3-0.1,0.6-0.1,1,0c0.4-0.1,0.7-0.2,0.9-0.2c0.2,0,0.4,0,0.6,0
		c0.5-0.1,0.9-0.2,1.2-0.2c0.3-0.1,0.5-0.1,0.7-0.1c0.2,0,0.4-0.1,0.8-0.3c0.3-0.1,0.6,0,0.9,0.1c0.3,0.1,0.5,0.3,0.6,0.5
		c0.1,0.2,0.1,0.4,0,0.6c-0.1,0.2-0.3,0.4-0.6,0.5s-0.5,0.2-0.8,0.2c-0.2,0-0.6,0.1-1,0.1c-0.4,0-0.8,0.1-1.1,0.1
		c-0.3,0.1-0.6,0.1-0.9,0.1c-0.3,0-0.5,0-0.6,0c-0.1,0-0.3,0.1-0.4,0c-0.2,0-0.4,0-0.6,0c-0.2,0-0.4,0-0.5,0.1
		c-0.1,0.1-0.2,0.1-0.4,0.1c-0.1,0-0.4,0-0.7,0.1s-0.6,0.1-0.9-0.1c-0.3,0.2-0.6,0.2-1,0.1c-0.4,0.1-0.7,0.1-0.9,0.1
		c-0.2,0-0.5,0-0.9-0.1c-0.4,0.1-0.7,0.1-1,0.1c-0.2,0-0.5-0.1-0.7-0.1c-0.3,0-0.6-0.1-0.9-0.1C175.8,25,175.5,25,175.1,24.8z
		 M177.9,10.6c-0.3,0.1-0.7,0.2-1.1,0.3c-0.3,0.3-0.5,0.4-0.6,0.4c-0.1,0-0.3,0-0.4-0.1c-0.1-0.1-0.3-0.2-0.5-0.4
		c-0.2-0.2-0.3-0.5-0.3-0.7c0-0.3,0.1-0.5,0.2-0.7c0.2-0.2,0.3-0.4,0.5-0.5c0.2-0.1,0.5-0.2,0.9-0.2c0.5,0,1-0.1,1.2-0.1
		c0.4,0,0.7,0,1,0c0.4,0.1,0.7,0.1,1.1,0.2s0.6,0.1,0.8,0.2c0.2,0,0.7,0.2,1.4,0.4c0.4,0,0.7,0.1,1,0.4c0.3,0.1,0.6,0.2,0.7,0.4
		c0.4,0.2,0.7,0.3,1.1,0.3c0.2,0.1,0.4,0.2,0.6,0.4c0.3,0.1,0.6,0.2,0.8,0.3c0.2,0.1,0.5,0.2,0.9,0.4c0.4,0.2,0.8,0.4,1.3,0.6
		c0.2,0.1,0.4,0.2,0.6,0.4c0.2,0.2,0.2,0.5,0.1,0.9c-0.1,0.4-0.2,0.6-0.5,0.7s-0.5,0.2-0.7,0.1c-0.2,0-0.4-0.1-0.6-0.3
		c-0.3-0.3-0.7-0.6-1.2-0.8c-0.5-0.3-0.8-0.4-1-0.5c-0.2-0.1-0.4-0.1-0.5-0.2c-0.2-0.1-0.4-0.2-0.6-0.3c-0.3-0.2-0.5-0.3-0.7-0.3
		c-0.2-0.1-0.5-0.2-0.8-0.4c-0.3,0-0.5-0.1-0.6-0.1c-0.2-0.1-0.4-0.1-0.6-0.1c-0.2,0-0.5-0.1-0.7-0.2c-0.2-0.1-0.5-0.1-0.8-0.2
		c-0.3,0-0.7-0.1-1.1-0.2C178.5,10.5,178.2,10.5,177.9,10.6z"/>
	<path class="st0" d="M203.9,14.4c0.4,0,0.8,0,1.1-0.1c0.3-0.1,0.6-0.1,0.9-0.2c0.3,0,0.7,0,0.9-0.1c0.3-0.1,0.6-0.1,0.9-0.2
		c0.3,0,0.7,0,1.1,0c0.4-0.2,0.8-0.2,1.1-0.2c0.1-0.1,0.3-0.2,0.5-0.2c0.2,0,0.4,0.1,0.7,0.1c0.3-0.2,0.5-0.2,0.6-0.2
		c0.1,0,0.2,0,0.4,0c0.1-0.1,0.4,0,0.7,0c0.3-0.2,0.7-0.2,1.2-0.2c0.3,0,0.7,0.1,1.2,0.1c0.5,0.1,0.8,0.2,0.9,0.4
		c0.1,0.2,0.2,0.5,0.2,0.9s0,0.7-0.1,0.8c-0.1,0.1-0.4,0.3-0.7,0.5c-0.3,0.2-0.5,0.4-0.7,0.5c-0.2,0.1-0.5,0.3-1.1,0.7
		s-1.3,0.9-2.3,1.5c-1.1,0.6-2,1.2-2.8,1.7s-1.4,1.1-1.9,1.6c-0.4,0.3-0.8,0.7-1.2,1.1c-0.3,0.4-0.5,0.7-0.6,1
		c-0.1,0.2-0.1,0.5-0.1,0.7c0,0.3,0.1,0.5,0.3,0.7c0.2,0.2,0.5,0.4,0.8,0.6c1,0.6,1.7,1,2.1,1.2c0.4,0.1,0.8,0.3,1.2,0.4
		c0.4,0.1,0.9,0.2,1.6,0.3c0.3,0.1,0.5,0.2,0.7,0.2c0.2,0,0.4,0.1,0.6,0.1c0.2,0.1,0.4,0.2,0.5,0.5c0.2,0.2,0.3,0.5,0.3,0.7
		c0,0.2-0.1,0.4-0.3,0.5c-0.2,0.1-0.3,0.2-0.5,0.3s-0.4,0.1-0.8,0c-0.4,0-0.6-0.1-0.8-0.2c-0.2-0.1-0.3-0.2-0.5-0.2
		c-0.2,0-0.4-0.1-0.5-0.5c-0.2,0-0.5-0.1-0.8-0.2c-0.3,0-0.6-0.1-0.7-0.2c-0.2-0.1-0.5-0.2-0.9-0.4c-0.3-0.2-0.6-0.4-0.8-0.5
		c-0.2-0.1-0.5-0.2-0.8-0.3c-0.4-0.3-0.8-0.7-1.2-1.1c-0.4-0.4-0.7-0.8-0.9-1.1c-0.2-0.3-0.2-0.7-0.2-1c0-0.3,0.1-0.7,0.3-1.2
		c0.2-0.5,0.3-0.8,0.5-1c0.2-0.2,0.4-0.4,0.7-0.6c0.2-0.3,0.4-0.5,0.7-0.7c0.3-0.3,0.5-0.5,0.6-0.6c0.1-0.1,0.3-0.2,0.4-0.4
		c0.2-0.1,0.4-0.1,0.4-0.3c0.1-0.1,0.3-0.2,0.6-0.4c0.1-0.3,0.3-0.4,0.5-0.4c0.2,0,0.3-0.1,0.4-0.3c0.1-0.2,0.2-0.3,0.4-0.3
		c0.1,0,0.3-0.1,0.4-0.2s0.2-0.2,0.4-0.4c0.1-0.1,0.3-0.2,0.6-0.2c0.2-0.3,0.4-0.4,0.6-0.3c0.2-0.3,0.5-0.6,1-0.7
		c0.3-0.3,0.5-0.5,0.6-0.5c0.1-0.1,0.3-0.2,0.5-0.4c0.2-0.2,0.4-0.4,0.8-0.6c-0.5-0.1-0.9-0.1-1.2-0.1c-0.3,0-0.8,0-1.2,0.1
		c-0.9,0.1-1.6,0.1-2.1,0.2c-0.5,0.1-1,0.1-1.5,0.2c-0.5,0.1-0.9,0.1-1.2,0.2c-0.2,0-0.4,0.1-0.6,0.2c-0.1,0.1-0.4,0.2-0.7,0.2
		c-0.5,0.1-0.8,0.2-1,0.2c-0.2,0-0.4,0-0.7,0.1s-0.6,0.1-1,0.1c-0.4,0.1-0.8,0.2-1.1,0.1c-0.3-0.1-0.5-0.3-0.7-0.7
		c-0.2-0.4-0.2-0.8,0-1.2c0.1-0.2,0.2-0.4,0.4-0.6c0.2-0.2,0.5-0.4,0.9-0.5c0.1-0.2,0.3-0.4,0.4-0.4c0.2,0,0.3-0.1,0.4-0.3
		s0.3-0.3,0.5-0.3s0.4-0.1,0.5-0.3c0.2-0.1,0.6-0.5,1.5-1c0.8-0.6,1.9-1.2,3.2-2.1s2.2-1.3,2.6-1.6c0.4-0.2,0.8-0.5,1.3-0.9
		c-0.3-0.3-0.5-0.4-0.6-0.4c-0.1,0-0.3,0-0.8-0.1c-0.3,0.1-0.6,0.1-0.9,0c-0.3,0.1-0.5,0.1-0.7,0c-0.2-0.1-0.3-0.1-0.5,0
		c-0.2,0-0.4,0-0.6,0c-0.2-0.1-0.4-0.1-0.6,0c-0.2,0.1-0.4,0.1-0.8,0c-0.3,0.1-0.5,0.1-0.6,0c-0.1-0.1-0.3,0-0.6,0.1
		c-0.3,0.1-0.7,0.3-1.1,0.6c-0.2,0.2-0.4,0.3-0.5,0.5c-0.1,0.1-0.3,0.2-0.6,0.3c-0.2,0-0.5-0.1-0.9-0.4c-0.3-0.3-0.5-0.6-0.5-0.8
		c0-0.3,0.1-0.5,0.1-0.7c0.1-0.2,0.2-0.3,0.4-0.5c0.2-0.1,0.4-0.2,0.7-0.3c0.3-0.1,1.1-0.2,2.4-0.4c1.3-0.1,2.4-0.2,3.1-0.1
		c0.3-0.1,0.5-0.1,0.7-0.1c0.3,0,0.5,0.1,0.7,0.2c0.3-0.1,0.6-0.1,0.9-0.1c0.3,0,0.5,0.1,0.7,0.2c0.4,0,0.9,0,1.4,0.1
		c0.4,0.1,0.7,0.2,0.8,0.3c0.1,0.1,0.2,0.3,0.3,0.4c0.1,0.1,0.2,0.3,0.3,0.6c0.1,0.3,0.1,0.6,0,0.9c-0.1,0.3-0.3,0.5-0.4,0.7
		c-0.1,0.1-0.3,0.3-0.5,0.4c-0.2,0.2-0.4,0.3-0.6,0.4c-0.2,0.1-0.4,0.2-0.8,0.4c-0.5,0.2-0.9,0.4-1.2,0.6c-0.3,0.2-0.5,0.3-0.8,0.4
		c-0.3,0.2-0.5,0.4-0.6,0.4s-0.3,0.1-0.4,0.2c-0.1,0.1-0.2,0.3-0.4,0.4c-0.1,0.1-0.3,0.2-0.6,0.3c-0.4,0.3-1,0.7-1.8,1.2
		c-0.7,0.5-1.3,0.9-1.7,1.2S204.1,14,203.9,14.4z"/>
	<path class="st0" d="M5.6,60.3C5.9,60.1,6,60,6.2,59.9c0.1-0.1,0.5-0.4,1.2-0.9c0.7-0.5,1.6-1.3,2.7-2.2c0.6-0.5,1-0.8,1.1-0.9
		c0.1-0.1,0.3-0.2,0.6-0.4c0.3-0.2,0.5-0.3,0.7-0.4c0.1-0.1,0.4-0.2,0.7-0.2c0.4-0.1,0.7,0,0.9,0.3c0.2,0.2,0.3,0.5,0.3,0.8
		c0,0.3-0.1,0.6-0.2,0.8c-0.1,0.2-0.3,0.4-0.6,0.5c-0.3,0.1-0.5,0.1-0.8,0.1s-0.6,0.1-1,0.4c-0.7,0.4-1.5,1-2.4,1.6
		c-0.9,0.6-1.6,1.3-2.3,2c-0.7,0.7-1.3,1.3-1.8,1.8c-0.5,0.5-0.8,1-0.9,1.4c0.3,0.1,0.5,0.2,0.7,0.4c0.2,0.2,0.2,0.3,0.3,0.5
		c0,0.2,0,0.4-0.1,0.8c-0.1,0.4-0.3,0.5-0.8,0.5s-0.9-0.1-1.3-0.4c-0.4-0.2-0.7-0.5-0.9-0.9c-0.2-0.4-0.3-0.7-0.2-1.2
		c0.3-0.5,0.6-1,1-1.3c0.2-0.3,0.4-0.5,0.7-0.8c0.2-0.3,0.5-0.4,0.8-0.4c0.2-0.3,0.3-0.5,0.4-0.6C4.9,61,5,60.9,5,60.7
		C5.1,60.6,5.3,60.4,5.6,60.3z M13.1,66.5c-0.1,0.2-0.2,0.4-0.3,0.6c-0.1,0.2-0.2,0.5-0.3,1c-0.1,0.5-0.2,0.8-0.2,1
		c0,0.2-0.1,0.3-0.1,0.6c-0.1,0.2-0.1,0.5-0.3,0.7c0,0.2-0.1,0.5-0.3,0.9c-0.1,0.4-0.1,0.7-0.1,0.8c0,0.1-0.1,0.4-0.2,0.8
		c-0.1,0.4-0.2,0.7-0.2,0.8c0,0.2,0,0.3-0.1,0.4c-0.1,0.1-0.1,0.3-0.1,0.4c0,0.2,0,0.3-0.1,0.4c-0.1,0.1-0.1,0.3-0.2,0.5
		c0.1,0.4,0,0.8-0.3,1.1c0,0.3,0,0.6,0,0.8c0,0.2-0.1,0.4-0.3,0.5l-0.1,0.7c-0.1,0.2-0.1,0.4-0.1,0.6c0,0.2-0.1,0.4-0.1,0.5
		S9.6,80,9.5,80.2c0.1,0.3,0.1,0.7,0,0.9c0,0.3,0.1,0.5,0.3,0.6s0.3,0.3,0.5,0.4c0.2,0.2,0.2,0.4,0,0.8c-0.1,0.4-0.3,0.5-0.6,0.6
		c-0.2,0-0.5,0-0.9-0.1c-0.4-0.1-0.7-0.3-0.8-0.7c-0.2-0.3-0.3-0.7-0.3-1.1c0-0.4,0-0.7,0.1-1C8,80,8.2,79.2,8.4,78.5
		c0.2-0.7,0.5-1.5,0.6-2.2c0.4-1.8,0.8-3.2,1-4.4c0.3-1.1,0.5-2.4,0.8-3.7c0.2-1.1,0.3-1.9,0.3-2.3c-0.4,0.4-0.7,0.8-1.1,1.2
		c-0.6,0.5-1,0.9-1.4,1.3c-0.3,0.4-0.7,0.8-1.1,1.2c-0.5,0.5-0.9,1-1.2,1.6c-0.3,0.5-0.7,1.1-1,1.7c0.1,0.6,0,1-0.3,1.2
		c-0.3,0.2-0.6,0.3-0.8,0.2S3.8,74,3.5,73.9c-0.2-0.2-0.3-0.5-0.3-0.8c0.1-0.4,0.2-0.7,0.4-1.1c0.2-0.3,0.4-0.6,0.6-1
		c0.5-0.6,1.3-1.5,2.5-2.9C8,66.7,9,65.6,9.9,64.7c0.3-0.2,0.5-0.4,0.6-0.5c0.1-0.2,0.2-0.3,0.4-0.3c0.2-0.3,0.4-0.5,0.6-0.6
		s0.4-0.3,0.5-0.5l1.1-1.1c0.1-0.2,0.2-0.3,0.4-0.3c0.2-0.1,0.3-0.2,0.3-0.3c0.1-0.2,0.2-0.3,0.4-0.4c0.2-0.1,0.3-0.2,0.4-0.4
		c0.1-0.2,0.2-0.3,0.4-0.4c0.1-0.1,0.5-0.2,1.1-0.2c0.4,0.1,0.7,0.3,0.8,0.5c0.1,0.2,0.1,0.5,0,0.7c-0.2,0.2-0.4,0.4-0.5,0.6
		c-0.2,0.2-0.4,0.3-0.6,0.5c-0.2,0.2-0.4,0.3-0.6,0.5c-0.7,0.7-1.4,1.3-2.2,2c0.3,0.4,0.5,0.8,0.5,1.1
		C13.2,65.7,13.2,66.1,13.1,66.5z M29.2,72.6c-0.5,0.1-1.5,0.2-3,0.3c-0.5,0.1-0.8,0.1-1.1,0.2c-0.2,0.1-0.6,0.1-1.2,0.1
		c-0.4,0.1-0.6,0.1-0.7,0.2c-0.1,0.1-0.2,0.1-0.4,0.1c-0.2,0-0.3,0-0.5,0.1c-0.2,0.1-0.4,0.1-0.6,0.1c-0.2,0-0.5,0.1-0.9,0.2
		c-0.4,0.1-0.7,0.2-0.9,0.2c-0.2,0.1-0.4,0.1-0.6,0.1c-0.2,0-0.4,0.1-0.8,0.2c-0.3,0.1-0.6,0.2-0.7,0.3c-0.2,0-0.4,0.2-0.8,0.4
		c-0.3,0.4-0.6,0.5-0.8,0.5c-0.3,0.2-0.6,0.4-0.6,0.5c-0.1,0.1-0.3,0.1-0.5,0.1c-0.2,0-0.5-0.1-0.8-0.3c-0.3-0.2-0.4-0.5-0.3-0.9
		c0.1-0.4,0.4-0.6,0.9-0.8c1.3-0.5,2.4-0.9,3.6-1.2c1.1-0.3,2.6-0.6,4.4-0.9c1.8-0.3,3.9-0.5,6.3-0.7c-0.1-0.7-0.1-1.3,0-1.7
		c0.1-0.4,0.4-0.6,0.8-0.6c0.4,0,0.7,0.1,0.9,0.4c0.1,0.3,0.2,0.5,0.2,0.8c0,0.2,0,0.5-0.1,1c1.8-0.2,3.3-0.2,4.3-0.2
		c0.5,0,1,0.1,1.3,0.3c0.3,0.2,0.5,0.5,0.6,0.8c0.1,0.3,0,0.6-0.3,0.7s-0.4,0.3-0.6,0.3c-0.2,0-0.4,0-0.5-0.2s-0.4-0.2-0.8-0.3
		c-0.3,0-0.5-0.1-0.6-0.1c-0.1-0.1-0.2-0.1-0.5-0.1c-0.3,0-0.5,0-0.7,0.1s-0.5,0.1-1-0.1c-0.4,0.1-0.8,0.1-1.2,0.1
		c0,0.4,0,0.7-0.1,0.9c0,0.3-0.1,0.5-0.1,0.8c0,0.3,0,0.6-0.1,0.8c0,0.2-0.1,0.4-0.1,0.6c0,0.2-0.1,0.8-0.2,1.6
		c-0.1,0.5-0.2,0.9-0.3,1.2c-0.1,0.3-0.1,0.5-0.1,0.7c0,0.2,0,0.4-0.2,0.6c-0.1,0.2-0.2,0.4-0.2,0.6c0,0.2,0,0.4-0.1,0.6
		c-0.1,0.2-0.1,0.4-0.1,0.6c0,0.2-0.1,0.4-0.4,0.8c-0.1,0.6-0.2,1-0.4,1.3c-0.2,0.3-0.3,0.5-0.4,0.7c-0.1,0.2-0.3,0.3-0.5,0.5
		c-0.3,0.2-0.8,0.2-1.5,0c-0.8-0.3-1.5-0.8-2.4-1.4s-1.6-1.2-2.2-1.6c-0.4-0.4-0.6-0.6-0.6-0.8c0-0.2,0-0.4,0.1-0.6
		c0.1-0.2,0.3-0.4,0.6-0.4c0.3,0,0.6,0,0.9,0.2c0.9,0.7,2,1.7,3.4,2.8c0.5,0.3,0.8,0.5,1,0.5c0.2,0,0.3-0.2,0.6-0.6
		c0.2-0.4,0.4-0.9,0.6-1.5c0.2-0.7,0.4-1.3,0.5-2.1c0.1-0.7,0.2-1.7,0.4-2.9C29.2,75.3,29.3,74,29.2,72.6z M34.3,68.4
		c-0.6-0.1-1.1-0.2-1.5-0.3c-0.4-0.1-0.7-0.1-1.1-0.1c-0.3,0-0.7-0.1-1.1-0.1c-0.4,0.1-1.1,0.1-2,0.1c-0.9,0-1.9,0.1-3.1,0.2
		c-0.4,0-0.7,0-0.9,0.1c-0.2,0.1-0.4,0.1-0.5,0.1c-0.2,0-0.3,0-0.4,0c-0.1,0.1-0.3,0.1-0.5,0.1c-0.2,0-0.4,0.1-0.7,0.1
		c-0.2,0-0.6,0.1-1,0.3c-0.5,0.1-1.3,0.4-2.5,0.7c-0.4,0.2-0.7,0.4-0.9,0.6c-0.2,0.1-0.5,0.2-0.9,0.1c-0.4-0.1-0.6-0.4-0.7-0.9
		s0.2-0.9,0.8-1c0.5-0.2,0.9-0.3,1.1-0.3c0.2,0,0.5-0.1,1-0.2c2.8-0.7,5.5-1.1,8.1-1.2c2.6-0.2,4.6-0.2,5.9-0.2c0.3,0,0.6,0,0.8,0
		c0.2,0,0.5,0.1,0.8,0.3c0.4,0.2,0.6,0.4,0.7,0.6c0.1,0.3,0.1,0.5-0.1,0.8c-0.2,0.3-0.4,0.4-0.7,0.3C34.7,68.5,34.5,68.5,34.3,68.4z
		 M28.7,64.2c-0.4,0.1-0.7,0.2-1,0.3c-0.2,0.1-0.9,0.1-1.9,0.2c-1.6,0.4-2.4,0.6-2.6,0.6c-0.1,0.1-0.4,0.1-0.9,0.2
		c-0.1,0.4-0.3,0.7-0.5,0.7c-0.2,0.1-0.5,0.1-0.7,0c-0.2-0.1-0.5-0.3-0.9-0.7c-0.3-0.2-0.5-0.4-0.7-0.8c-0.2-0.4-0.3-0.8-0.5-1.2
		c-0.1-0.4-0.2-1.2-0.3-2.4c-0.1-1.2,0-2.7,0.1-4.5c0.2-0.3,0.2-0.5,0.1-0.6c-0.1-0.1-0.1-0.4,0.1-0.9c0.1-0.2,0.2-0.4,0.3-0.8
		c0-0.3,0.1-0.5,0.3-0.6c0.2-0.1,0.4-0.2,0.6-0.4c0.2-0.1,0.4-0.2,0.7-0.2c0.3,0,0.5,0.1,0.7,0.3c0.2,0.3,0.3,0.5,0.3,0.8
		S21.5,54.8,21,55c-0.3,1.1-0.6,2.2-0.7,3.4c-0.1,1.2-0.2,2.1-0.2,2.7c0,0.6,0.1,1.2,0.2,1.7c0.1,0.5,0.4,0.9,0.9,1.3
		c0.3-0.1,0.5-0.2,0.7-0.2c0.2,0,0.5-0.1,0.9-0.2c1.5-0.3,2.7-0.5,3.5-0.6c0.5-0.2,1.4-0.3,2.6-0.5c1.2-0.2,1.9-0.2,2.1-0.2
		c0.2,0,0.5,0,0.8,0c0.2-0.6,0.5-1.3,0.7-2c0.2-0.7,0.5-1.6,0.8-2.8c0-0.4,0-0.7,0-1.1c0-0.3-0.2-0.6-0.6-0.9
		c-0.3-0.1-0.6-0.2-1.1-0.4c-0.3,0-0.5,0-0.8,0c-0.3-0.1-0.5,0-0.6,0s-0.3,0.1-0.6,0.1s-0.5,0-0.7,0c-0.2,0.1-0.5,0.2-1,0.3
		c-0.5,0.2-0.9,0.3-1,0.3c-0.1,0-0.3,0.1-0.5,0.2c-0.2,0.1-0.4,0.1-0.6,0.2c-0.2,0-0.3,0.2-0.4,0.3c-0.3,0.1-0.5,0.3-0.6,0.6
		c-0.1,0.3-0.3,0.5-0.6,0.5c-0.4,0-0.8-0.2-1-0.6c-0.2-0.4-0.2-0.7,0-1.1c0.2-0.4,0.4-0.7,0.9-0.9c0.4-0.2,0.8-0.3,1.1-0.5
		c0.3-0.1,0.6-0.2,1-0.3c0.4-0.1,0.9-0.2,1.6-0.3c0.7-0.1,1.8-0.2,3.2-0.3c0.8,0.1,1.5,0.2,1.9,0.3c0.4,0.2,0.8,0.4,1,0.7
		c0.4,0.4,0.7,0.7,0.7,0.9c0.1,0.2,0.1,0.4,0.2,0.7c0.1,0.3,0,0.6-0.1,1c0,0.4-0.1,0.8-0.3,1.2c-0.1,0.4-0.1,0.7-0.2,1.1
		s-0.2,0.6-0.4,0.9c-0.1,0.2-0.2,0.5-0.2,0.7c-0.1,0.2-0.1,0.4-0.1,0.6c0,0.2-0.1,0.5-0.3,1c-0.2,0.4-0.4,0.8-0.5,1.2
		c0,0.3-0.1,0.5-0.3,0.8c-0.2,0.2-0.4,0.4-0.6,0.6c-0.2,0.2-0.4,0.3-0.7,0.3c-0.3,0-0.5,0-0.7-0.1c-0.2-0.1-0.3-0.3-0.4-0.5
		c0-0.3,0-0.6,0.2-0.9C29.5,64.3,29,64.3,28.7,64.2z M26.2,79.2c-0.4-0.1-0.9-0.2-1.3-0.4c-0.5-0.2-0.9-0.3-1.4-0.5
		c-0.5-0.2-1.1-0.4-1.7-0.5c-0.7-0.3-1-0.7-0.9-1c0-0.4,0.1-0.6,0.3-0.8s0.4-0.2,0.6-0.2c0.3,0,0.6,0.2,1,0.5
		c0.6,0.2,1.2,0.5,1.8,0.7s1.3,0.4,2.1,0.5c0.4,0.2,0.6,0.5,0.5,0.9C27,78.9,26.6,79.2,26.2,79.2z M31.3,59.1
		c0.2,0.1,0.3,0.2,0.4,0.4c0.1,0.2,0,0.5-0.1,0.8c-0.1,0.4-0.4,0.5-0.7,0.6s-0.6,0-0.7-0.2c-0.1-0.2-0.2-0.3-0.2-0.4
		c-0.1-0.1-0.3-0.2-0.8-0.2c-0.4,0.1-0.7,0.1-0.9,0.1c-0.2,0-0.4,0.1-0.7,0.1c-0.4,0.1-1,0.1-1.7,0.2c-0.7,0.1-1.1,0.2-1.4,0.3
		c-0.2,0.1-0.5,0.2-0.8,0.2c-0.3,0.5-0.6,0.8-1.1,0.9c-0.5,0-0.7-0.1-0.9-0.5c-0.1-0.4-0.1-0.7,0-1.1c0.1-0.3,0.3-0.5,0.5-0.6
		c0.2-0.1,0.6-0.2,1-0.3c0.4-0.1,1.2-0.3,2.4-0.4c1.1-0.2,2-0.3,2.6-0.4c0.6-0.1,1-0.1,1.3-0.1c0.3,0,0.6,0.1,0.9,0.1
		S31,58.8,31.3,59.1z"/>
	<path class="st0" d="M45.8,67.6c0-0.3,0.1-0.8,0.3-1.3c0.2-0.5,0.3-0.9,0.4-1.2c0.1-0.3,0.2-0.6,0.4-0.9c0.1-0.4,0.2-0.7,0.3-0.9
		c0.1-0.2,0.3-0.5,0.5-0.9c0.2-0.2,0.4-0.4,0.6-0.5c0.2-0.2,0.4-0.3,0.7-0.3c0.3,0,0.6,0.1,0.9,0.5c0.3,0.4,0.4,0.6,0.3,0.8
		c-0.1,0.2-0.4,0.5-0.9,1c-0.3,0.4-0.5,0.8-0.6,1c-0.1,0.3-0.3,0.6-0.4,1.1c-0.2,0.4-0.3,0.7-0.4,1c-0.1,0.3-0.2,0.5-0.2,0.8
		c-0.1,0.2-0.1,0.5-0.2,0.7s-0.1,0.6-0.2,1.2c0.1,0.4,0.1,0.7,0.2,0.8c0.1,0.2,0.1,0.3,0.3,0.5c0.1,0.2,0.5,0.3,1.2,0.3
		c0.5-0.1,1.1-0.2,1.6-0.3c0.5-0.1,1.1-0.2,1.6-0.4c0.5-0.1,1-0.2,1.3-0.3c0.4,0,0.7-0.1,1-0.2c0.3-0.1,0.6-0.1,0.9-0.2
		c0.3-0.1,0.6-0.1,1.1-0.1c0.5,0,1,0,1.3,0s0.7,0.1,1,0.2c0.3,0.1,0.5,0.2,0.8,0.4s0.4,0.3,0.5,0.5c0.3,0.4,0.5,0.8,0.5,1.3
		c0,0.5,0,0.8-0.2,1.1c-0.1,0.3-0.4,0.7-0.9,1.3c-0.5,0.7-1.1,1.4-1.7,2.1c-0.6,0.7-1.3,1.4-2,2c-0.9,0.8-1.7,1.7-2.5,2.5
		c-0.8,0.9-1.4,1.4-1.7,1.8c-0.2,0.4-0.4,0.7-0.5,0.9s-0.3,0.3-0.6,0.4c-0.3,0.1-0.6,0.1-0.8,0.1c-0.2-0.1-0.4-0.2-0.6-0.4
		c-0.2-0.2-0.2-0.4-0.2-0.6c0.1-0.2,0.1-0.4,0.2-0.6c0.1-0.2,0.2-0.4,0.4-0.5c0.3-0.3,0.5-0.5,0.7-0.7c0.2-0.2,0.3-0.3,0.5-0.4
		c0.2-0.1,0.3-0.2,0.4-0.3s0.3-0.3,0.6-0.5c0.3-0.4,0.7-0.7,1-0.8c0.3-0.3,0.5-0.5,0.5-0.7c0.1-0.1,0.2-0.3,0.5-0.5
		c0.2-0.3,0.4-0.4,0.5-0.5c0.2,0,0.3-0.1,0.3-0.3c0-0.1,0.3-0.5,0.9-1.1c0.2-0.3,0.5-0.6,0.9-0.8c0.1-0.3,0.3-0.5,0.5-0.6
		c0.2-0.1,0.3-0.2,0.5-0.4c0.1-0.2,0.3-0.4,0.6-0.6c0.2-0.2,0.5-0.5,0.7-0.8c0.1-0.4,0.2-0.7,0.1-0.9c-0.1-0.2-0.2-0.3-0.3-0.4
		c-0.1-0.1-0.5-0.3-1-0.5c-0.4-0.1-0.7-0.1-0.9-0.1c-0.2,0-0.6,0-1,0c-0.3,0.2-0.7,0.2-1.1,0.1c-0.4,0.1-0.7,0.3-1,0.4
		C53.2,72,53,72,52.8,71.9c-0.2-0.1-0.4,0-0.7,0.2c-0.3,0.2-0.5,0.3-0.7,0.1c-0.2,0.2-0.4,0.2-0.6,0.2c-0.2-0.1-0.4,0-0.6,0.2
		c-0.3,0-0.5,0-0.7,0.1c-0.1,0.1-0.4,0.1-0.8,0.2c-0.4,0-0.8,0-1-0.1c-0.2-0.1-0.4-0.2-0.7-0.3s-0.5-0.3-0.7-0.5
		c-0.2-0.2-0.4-0.5-0.5-0.9c-0.1-0.4-0.1-0.7-0.1-1.1c0-0.3,0-0.7,0-1.1C45.6,68.6,45.7,68.1,45.8,67.6z M57,58
		c-0.8-0.7-1.6-1.2-2.3-1.4c-0.7-0.2-1.2-0.4-1.6-0.6c-0.3-0.2-0.9-0.3-1.6-0.4c-0.3,0.1-0.5,0.2-0.6,0.2c-0.1,0-0.3-0.1-0.6-0.2
		c-0.3-0.1-0.5-0.3-0.6-0.7c-0.1-0.3,0-0.7,0.3-1c0.2-0.3,0.5-0.4,0.9-0.4c0.3-0.1,0.6,0,0.8,0.1c0.2,0.1,0.4,0.2,0.6,0.2
		s0.4,0.1,0.5,0.1c0.2,0.1,0.3,0.1,0.5,0.2c0.2,0.1,0.3,0.2,0.6,0.2c0.2,0,0.4,0.1,0.6,0.2c0.2,0.1,0.4,0.2,0.6,0.3
		c0.2,0.1,0.4,0.2,0.5,0.4c0.2,0.1,0.4,0.2,0.6,0.2c0.2,0,0.4,0.1,0.6,0.3c0.3,0,0.6,0.2,0.9,0.4c0.2,0.2,0.4,0.3,0.5,0.4
		c0.1,0.1,0.3,0.3,0.6,0.7c0.2,0.5,0.3,0.9,0.5,1.4c0.1,0.5,0.1,0.8,0,1.1c-0.1,0.2-0.3,0.4-0.5,0.5c-0.2,0.1-0.4,0.1-0.6,0.1
		s-0.4-0.2-0.6-0.3c-0.2-0.1-0.3-0.3-0.4-0.5c-0.1-0.3-0.1-0.5-0.1-0.7C57,58.5,57,58.3,57,58z"/>
	<path class="st0" d="M80.8,73.3c-0.7,0.7-1.2,1.2-1.6,1.6s-1.1,1.1-2.3,2.1c-0.4,0.4-0.7,0.8-1.1,1.1c-0.4,0.3-0.7,0.5-0.9,0.5
		c-0.2,0-0.6-0.1-1-0.2c-0.4-0.1-0.7-0.4-0.7-0.9c0-0.5,0-0.8,0.1-1.1c0.1-0.2,0.3-0.6,0.6-1c0.2-0.3,0.3-0.6,0.4-0.8
		s0.3-0.5,0.5-0.9c0.2-0.5,0.4-1,0.9-1.4c0.1-0.3,0.2-0.6,0.4-0.9c0.2-0.2,0.3-0.5,0.4-0.8c0.1-0.4,0.2-0.6,0.3-0.7
		c0.1-0.1,0.2-0.3,0.3-0.5c0.2-0.5,0.4-0.8,0.7-0.9c0-0.4,0-0.6,0.1-0.8s0.2-0.3,0.2-0.5c0-0.2,0-0.5,0-0.7c0-0.2-0.1-0.5-0.2-0.9
		c-0.1-0.2-0.3-0.4-0.6-0.5c-0.3-0.1-0.6-0.1-0.9,0c-0.3,0.1-0.6,0.1-1,0.2c-0.2,0.2-0.4,0.2-0.6,0.2s-0.4,0-0.6,0.1
		c-0.2,0.1-0.4,0.2-0.5,0.3c-0.1,0.1-0.4,0.3-0.8,0.4c-0.2,0.3-0.4,0.5-0.5,0.8c-0.1,0.2-0.3,0.4-0.6,0.4c-0.3,0-0.6-0.1-0.8-0.4
		c-0.2-0.3-0.3-0.6-0.3-1c0.1-0.3,0.3-0.6,0.6-0.8c0.4-0.3,0.8-0.6,1.3-0.9c0.5-0.3,1.2-0.6,2.1-0.8c0.6-0.2,1.1-0.3,1.4-0.3
		c0.4,0,0.7-0.1,1-0.1c0.3,0,0.6,0.1,1,0.2c0.4,0.2,0.7,0.4,0.9,0.5c0.2,0.2,0.3,0.4,0.5,0.7c0.2,0.3,0.3,0.6,0.3,0.8
		s0.1,0.5,0.1,0.9c0.1,0.3,0,0.6-0.1,0.7c-0.1,0.2-0.2,0.4-0.3,0.6c0,0.3-0.1,0.6-0.4,1c-0.2,0.6-0.4,0.9-0.5,1.1
		c-0.1,0.2-0.5,0.8-1.1,1.9c-0.6,1.1-1,1.8-1.2,2.1c-0.2,0.3-0.5,1-1,1.8c0.6-0.5,1.1-0.9,1.4-1.2c0.3-0.3,0.6-0.6,1.1-1
		c0.4-0.4,1.4-1.2,3-2.6c0.5-2.2,0.8-3.8,1-5c0.2-1.1,0.6-2.8,1.2-5.1s1-4,1.2-5.2c0.3-1.2,0.5-2.1,0.7-2.9c0.3-0.7,0.5-1.1,0.7-1.2
		s0.4-0.2,0.6-0.3c0.2,0,0.4,0.1,0.6,0.2c0.1,0.1,0.3,0.3,0.3,0.5c0.1,0.2,0.1,0.4,0,0.7c-0.1,0.2-0.2,0.5-0.5,1
		c-0.1,0.3-0.2,0.7-0.3,1c-0.1,0.3-0.2,0.8-0.4,1.4c-0.2,0.6-0.3,1-0.4,1.1c-0.1,0.1-0.2,0.3-0.3,0.5c0.1,0.4,0,0.8-0.1,1.1
		c0,0.3-0.1,0.5-0.2,0.7C85,59.6,85,59.8,85,60c0,0.2,0,0.5-0.2,0.9c-0.1,0.6-0.3,1-0.4,1.4c-0.2,0.3-0.2,0.7-0.2,1
		c0,0.3-0.1,0.6-0.2,0.8c0,0.4,0,0.9-0.2,1.4c-0.1,0.4-0.3,0.8-0.4,1.2c0.1,0.3,0,0.5-0.1,0.7c-0.1,0.2-0.2,0.5-0.2,0.9
		c0,0.5-0.2,1-0.3,1.6c0.8-0.7,1.6-1.3,2.4-1.9c0.8-0.6,1.6-1.1,2.4-1.6c0.8-0.5,1.5-0.9,2.2-1.2c0.3-0.2,0.7-0.3,1.1-0.4
		c0.4-0.1,0.7-0.2,1.1-0.3c0.3-0.1,0.7-0.1,1.1,0c0.4,0.1,0.7,0.2,1,0.6c0.3,0.3,0.4,0.7,0.4,1c0,0.4-0.1,0.7-0.3,1.1
		c0,0.4-0.1,0.7-0.1,0.9c-0.1,0.2-0.1,0.5-0.2,0.7c-0.1,0.2-0.1,0.5-0.2,0.8c-0.1,0.3-0.1,0.7-0.2,1.2c0,0.4,0,0.7,0,1.1
		c0,0.4,0.1,0.9,0.1,1.4c0.1,0.5,0.3,1,0.7,1.3c0.4,0.4,0.8,0.6,1.2,0.7c0.4,0.1,0.9,0.1,1.5,0.1c0.4,0,0.7,0,1-0.1
		c0.3-0.1,0.7-0.2,1.2-0.4l0.9-0.3c0.8-0.3,1.4-0.5,1.7-0.7c0.4-0.2,0.9-0.4,1.7-0.7c0.3-0.2,0.6-0.3,0.8-0.4
		c0.2-0.1,0.4-0.2,0.8-0.3c0.4-0.2,0.7-0.3,0.9-0.2s0.4,0.2,0.6,0.4c0.1,0.2,0.2,0.5,0.1,0.7c-0.1,0.2-0.2,0.5-0.3,0.6
		c-0.1,0.2-0.3,0.3-0.6,0.4c-0.3,0.1-0.6,0.2-0.9,0.3c-0.3,0.1-0.5,0.1-0.6,0.3s-0.3,0.2-0.5,0.1c-0.2,0-0.3,0-0.4,0.1
		c-0.1,0.1-0.3,0.2-0.7,0.3c-0.2,0.2-0.4,0.3-0.6,0.4c-0.2,0.1-0.4,0.1-0.8,0.1c-0.3,0.2-0.5,0.3-0.8,0.4c-0.3,0.1-0.5,0.1-0.7,0
		c-0.2,0.2-0.5,0.3-0.7,0.3c-0.2,0-0.6,0.1-1,0.2c-0.4,0.2-1.1,0.2-2,0.1s-1.6-0.4-2.1-0.7c-0.5-0.3-0.8-0.5-1-0.6
		c-0.2-0.1-0.3-0.3-0.3-0.6c-0.1-0.1-0.3-0.3-0.5-0.5c-0.2-0.2-0.2-0.5-0.2-0.9c-0.2-0.3-0.3-0.5-0.3-0.8c0-0.2,0-0.5,0-0.7
		c0-0.2,0-0.5,0-0.8c0-0.3,0.1-1,0.2-2.2c0.2-0.9,0.3-1.5,0.3-1.9c0-0.3,0.1-0.6,0-0.7c0-0.2-0.3-0.3-0.7-0.3
		c-0.6,0.3-1,0.4-1.2,0.5s-0.4,0.1-0.6,0.1c-0.2,0.2-0.4,0.4-0.7,0.5c-0.3,0.2-0.6,0.3-0.9,0.4c-0.3,0.1-0.5,0.2-0.6,0.3
		c-0.1,0.1-0.4,0.3-0.9,0.7c-0.2,0.3-0.6,0.6-1.2,0.9c-0.4,0.2-0.7,0.4-1,0.7s-0.5,0.5-0.8,0.8c-0.3,0.3-0.7,0.7-1.2,1.1
		c-0.1,0.4-0.2,0.7-0.2,0.9c0,0.2-0.1,0.4-0.2,0.7C82,74,82,74.2,82.1,74.4c0.1,0.2,0,0.4-0.1,0.7c0,0.4-0.2,0.7-0.4,1.1
		c0.1,0.3,0.1,0.7,0,1.1c0,0.4,0,0.6,0,0.8c0,0.2-0.1,0.5-0.1,0.9c0.1,0.5,0.1,1,0.1,1.6c0.1,0.4,0.2,0.7,0.3,0.9
		c0.1,0.2,0.3,0.4,0.4,0.6s0.3,0.4,0.3,0.6c0,0.2,0,0.3-0.1,0.4c-0.1,0.1-0.2,0.2-0.4,0.4c-0.2,0.2-0.4,0.3-0.7,0.2
		c-0.3,0-0.5-0.1-0.7-0.3c-0.2-0.2-0.3-0.4-0.4-0.7c-0.1-0.3-0.2-0.5-0.2-0.7s-0.1-0.5-0.2-0.9c0.1-0.2,0-0.4,0-0.6s-0.1-0.5,0-0.8
		C80,79.4,80,79,80,78.4c0.1-0.3,0.1-0.6,0.2-1c0.1-0.8,0.2-1.3,0.2-1.7c0.1-0.3,0.1-0.7,0.2-1L80.8,73.3z"/>
	<path class="st0" d="M128.1,76.1c-0.6,0-1.1,0-1.3,0c-0.3,0-0.7,0-1.4-0.1c-0.2,0.5-0.3,0.9-0.4,1c-0.1,0.1-0.3,0.3-0.5,0.6
		c-0.2,0.2-0.5,0.5-0.8,0.7c-0.1,0.3-0.3,0.5-0.4,0.5c-0.2,0-0.3,0.1-0.4,0.3c-0.1,0.2-0.3,0.3-0.5,0.5c-0.2,0.2-0.6,0.4-1.1,0.5
		c-0.5,0.3-0.9,0.5-1.4,0.6c-0.3,0.2-0.5,0.3-0.7,0.2s-0.4,0-0.5,0.1c-0.2,0.1-0.3,0.2-0.5,0.2c-0.2,0.1-0.4,0.1-0.7,0
		c-0.2-0.1-0.5-0.1-0.6-0.2c-0.2-0.1-0.4,0-0.7,0.1c-0.5-0.1-0.9-0.3-1.4-0.7c-0.5-0.4-0.8-1-1-1.6c-0.1-0.6-0.1-1,0-1.3
		s0.2-0.6,0.4-0.9c0.2-0.3,0.5-0.6,1-1c0.7-0.4,1.5-0.8,2.6-1c1.1-0.2,2.1-0.4,3.2-0.4c1.1,0,2.1-0.1,3.1-0.2c0-0.4,0-0.9-0.1-1.4
		c-0.1-0.5-0.2-1-0.4-1.4c-0.2-0.4-0.5-0.8-0.8-1.1c-0.3-0.3-0.6-0.5-1.1-0.7c-0.4-0.2-0.8-0.4-1.2-0.5s-0.8-0.2-1.2-0.3
		c-0.3,0-0.6-0.1-0.9-0.1c-0.3,0-0.5-0.1-0.8-0.3s-0.5-0.3-0.6-0.5c-0.1-0.2-0.1-0.5,0-0.9c0.1-0.4,0.3-0.6,0.4-0.8
		c0.2-0.2,0.3-0.3,0.5-0.4c0.2-0.1,0.4-0.2,0.7-0.4c0.3-0.2,0.7-0.3,1-0.4c0.3-0.2,0.5-0.3,0.6-0.3c0.2,0,0.4,0,0.7-0.2
		c0.2-0.2,0.4-0.4,0.7-0.6c0.3-0.2,0.6-0.4,0.9-0.5c0.1-0.2,0.3-0.3,0.6-0.5c0.3-0.2,0.6-0.4,0.8-0.6c0.2-0.3,0.4-0.5,0.6-0.7
		c0.1-0.2,0.3-0.4,0.3-0.7c0.1-0.4,0.1-0.7,0-0.9c-0.1-0.2-0.3-0.4-0.7-0.6c-0.2-0.1-0.5-0.2-0.8-0.4c-0.3-0.1-0.6-0.2-0.9-0.3
		c-0.3-0.1-0.9-0.1-1.6-0.2c-0.8-0.1-1.5-0.1-2.2,0.2c-0.5,0.2-0.8,0.4-0.9,0.6c-0.1,0.2-0.3,0.4-0.5,0.6c-0.2,0.2-0.4,0.2-0.6,0.2
		c-0.2-0.1-0.4-0.1-0.6-0.3c-0.2-0.1-0.3-0.4-0.3-0.7s0.2-0.6,0.5-0.9c0.3-0.3,0.6-0.5,0.9-0.7c0.4-0.2,0.8-0.4,1.4-0.5
		c0.6-0.1,1-0.2,1.3-0.1c0.3,0.1,0.8,0,1.4-0.1c0.3,0,0.5,0.1,0.8,0.3c0.3,0,0.5,0,0.8,0c0.2,0,0.5,0.1,0.8,0.3c0.4,0,0.8,0,1,0.2
		c0.2,0.2,0.4,0.3,0.6,0.4c0.2,0.1,0.4,0.3,0.7,0.5c0.3,0.2,0.5,0.5,0.6,1c0.1,0.4,0.2,0.7,0.2,0.9c0.1,0.2,0,0.5-0.1,0.9
		c-0.1,0.4-0.2,0.7-0.4,1c-0.2,0.2-0.5,0.5-0.9,0.9c-0.8,0.7-1.4,1.1-1.7,1.3c-0.3,0.2-0.6,0.5-1.1,0.8c-0.5,0.3-1.4,0.9-2.7,1.7
		c0.4,0.1,0.7,0.1,0.9,0.3c0.2,0.1,0.4,0.2,0.6,0.3c0.2,0.1,0.4,0.2,0.6,0.5c0.4,0.1,0.7,0.2,0.8,0.4c0.1,0.1,0.3,0.3,0.4,0.4
		c0.2,0.1,0.4,0.3,0.5,0.6s0.3,0.5,0.4,0.7c0.4,0.4,0.6,0.7,0.6,0.8c0,0.1,0.1,0.3,0.3,0.5c0.2,0.4,0.4,0.8,0.4,1.1
		c0.1,0.3,0.1,0.6,0.1,0.8s0,0.6,0,1c0.6,0,1.1,0.1,1.4,0.1c0.3,0.1,0.8,0.1,1.5,0c0.4,0,0.8,0.1,1.1,0.2c0.4,0.1,0.7,0.3,0.9,0.6
		c0.2,0.3,0.3,0.6,0.1,0.8c-0.2,0.2-0.4,0.4-0.6,0.5c-0.2,0.1-0.4,0.1-0.7,0c-0.3-0.1-0.4-0.2-0.6-0.2
		C128.8,76.3,128.5,76.2,128.1,76.1z M116.3,79.6c1.4,0.3,2.6,0.2,3.6-0.3c1-0.5,1.9-1.2,2.8-1.9c0.2-0.4,0.4-0.7,0.5-0.8
		c0.1-0.2,0.2-0.4,0.3-0.7c-0.4-0.1-0.7-0.1-0.9-0.1c-0.2,0-0.4,0-0.7,0c-0.3-0.1-0.6,0-1,0c-0.2,0.1-0.4,0.1-0.6,0.1
		c-0.2,0-0.3,0-0.4,0.1s-0.3,0.1-0.4,0.1c-0.2,0-0.4,0-0.7,0c-0.3,0.1-0.6,0.1-0.8,0.2c-0.3,0.3-0.5,0.4-0.6,0.4
		c-0.1,0-0.3,0.1-0.7,0.4c-0.3,0.2-0.6,0.5-0.9,0.7c-0.3,0.2-0.4,0.6-0.3,1C115.6,79.1,115.8,79.4,116.3,79.6z"/>
	<path class="st0" d="M158.5,71.2c0.6-0.5,1.1-0.8,1.4-0.9c0.3-0.3,0.5-0.4,0.6-0.4c0.1,0,0.3-0.1,0.4-0.3c0.3-0.2,0.5-0.4,0.8-0.6
		c0.3-0.2,0.5-0.2,0.7-0.2c0.2,0,0.4,0.1,0.6,0.3c0.2,0.2,0.3,0.4,0.4,0.7c0.1,0.3,0.1,0.5-0.1,0.7s-0.5,0.3-0.9,0.4
		c-0.4,0.2-0.6,0.4-0.8,0.4c-0.2,0.1-0.5,0.3-0.9,0.5c-0.5,0.2-0.9,0.4-1.2,0.5c-0.3,0.1-0.7,0.4-1.1,0.7c-0.4,0.3-1,0.6-1.6,0.8
		c2.2,0.1,4.1,0.1,5.7,0.1c1.6,0,2.7,0,3.5,0.1c0.7,0.1,1.3,0.2,1.6,0.2c0.4,0.1,0.6,0.1,0.8,0.1c0.2,0,0.5,0,0.8,0.1
		c0.7,0.1,1.1,0.3,1.4,0.4c0.3,0.1,0.4,0.4,0.4,0.8c0,0.4-0.1,0.7-0.4,0.8s-0.5,0.2-0.6,0.2s-0.3,0.1-0.6,0.1
		c-0.3,0-0.5,0.1-0.6,0.1s-0.4,0.1-0.7,0.1c-0.4-0.1-0.6-0.2-0.7-0.6c-0.1-0.3-0.2-0.6-0.4-0.8c-1.1-0.2-2.9-0.4-5.4-0.6
		c-2.4-0.1-4.7-0.2-6.8-0.2c-2.1,0-4,0.1-5.7,0.4s-3.2,0.5-4.4,0.7c-1.2,0.2-2.4,0.6-3.7,1c-0.4,0.1-0.7,0.2-0.9,0.3
		c-0.2,0.1-0.5,0.2-0.7,0.3c-0.3,0.2-0.5,0.3-0.6,0.5c-0.1,0.2-0.3,0.3-0.5,0.3c-0.2,0-0.4,0.1-0.4,0.3c-0.1,0.2-0.2,0.3-0.4,0.3
		c-0.2,0.1-0.4,0-0.7-0.1c-0.3-0.1-0.5-0.4-0.6-0.7c-0.2-0.3,0.2-0.8,1-1.3c1.3-0.7,2.4-1.1,3.4-1.3c1-0.2,1.9-0.4,2.9-0.6
		c0.9-0.2,2.7-0.5,5.4-0.8c-0.3-0.2-0.5-0.3-0.6-0.4c-0.1-0.1-0.2-0.2-0.4-0.3c-0.1-0.1-0.3-0.3-0.4-0.6c-0.3-0.2-0.5-0.6-0.7-1.1
		c-0.2-0.4-0.2-0.7-0.1-0.9c0.1-0.2,0.2-0.5,0.3-0.6c0.1-0.2,0.3-0.3,0.7-0.4c0.3-0.1,0.6,0,0.8,0.3c0.2,0.3,0.3,0.5,0.2,0.6
		c0,0.2-0.1,0.4-0.1,0.8c0.2,0.3,0.5,0.5,0.8,0.8s0.6,0.4,1,0.6c0.3,0.1,0.6,0.2,0.6,0.3c0.1,0.1,0.2,0.3,0.3,0.6c0.8,0,1.3,0,1.5,0
		c0.3,0,0.7,0,1.2-0.1c0.2-0.4,0.4-0.6,0.6-0.6c0.2-0.1,0.4-0.2,0.7-0.3c0.2-0.1,0.5-0.2,0.8-0.4c0.3-0.1,0.5-0.3,0.8-0.4
		S158,71.6,158.5,71.2z M152.6,59.1c0.5-0.3,0.8-0.8,1.1-1.5s0.5-1.5,0.7-2.5c-1.6,0.1-2.8,0.2-3.6,0.3s-1.4,0.3-1.7,0.3
		c-0.3,0-0.6,0.1-0.8,0.1c-0.2,0-0.6,0.2-1.1,0.3c-0.3,0-0.5,0-0.7,0.2s-0.4,0.2-0.7,0.2c-0.4,0.3-0.6,0.4-0.7,0.4
		c-0.1,0-0.4,0-0.8,0.1c-0.4,0.3-0.7,0.5-0.9,0.7c-0.2,0.1-0.4,0.3-0.6,0.4c-0.2,0.1-0.4,0.1-0.8-0.1c-0.3-0.2-0.5-0.4-0.5-0.7
		s0.2-0.7,0.6-1.1c0.4-0.3,0.7-0.4,0.9-0.4c0.2,0,0.8-0.2,1.7-0.5c1.5-0.4,2.9-0.7,4.2-0.9c1.3-0.2,3.2-0.4,5.5-0.6
		c0.2-0.6,0.3-1.1,0.2-1.5c0-0.4-0.1-0.8-0.2-1.2c0-0.5,0.2-0.9,0.7-1.1c0.5,0,0.9,0.2,1.1,0.6c0.2,0.3,0.2,0.6,0.3,0.8
		c0,0.2,0,0.4,0.1,0.5c0,0.2,0,0.4-0.1,0.7c-0.1,0.3-0.1,0.7-0.3,1.1c0.4,0,0.7,0,1.1,0c0.4,0,0.8,0,1.2-0.1c0.4,0,1,0,1.7,0
		c0.5,0.1,0.9,0.1,1.2,0c0.3,0,0.5,0,0.8,0c0.2-0.1,0.6,0,1,0c0.4,0,0.8,0.1,1.2,0.1c0.6,0,1.2,0,1.6,0s0.8,0.1,1.2,0.4
		s0.6,0.5,0.7,0.8c0.1,0.3,0.1,0.6-0.2,0.9c-0.3,0.3-0.6,0.4-0.9,0.4c-0.3,0-0.5-0.1-0.6-0.2c-0.1-0.1-0.2-0.3-0.4-0.4
		c-0.3,0-0.6-0.1-1-0.3c-0.2,0-0.6,0-1.1-0.2c-0.3,0.1-0.6,0.1-1.1-0.2c-0.3,0-0.5,0-0.8-0.1c-0.3,0.1-0.5,0.1-0.7,0
		c-0.2,0-0.4-0.1-0.8-0.1c-0.4,0-0.7,0-1,0c-0.2,0-0.6,0-1-0.1c-0.4,0.1-0.8,0.1-1,0.1s-0.7,0-1.3,0c-0.1,0.6-0.2,1-0.3,1.2
		c-0.1,0.2-0.2,0.4-0.3,0.7s-0.2,0.5-0.2,0.7c0,0.2-0.1,0.4-0.2,0.6c-0.1,0.2-0.2,0.5-0.4,1c1-0.1,1.8-0.1,2.4-0.1
		c0.6,0,1.3,0,2.2,0.1c0.8,0,1.5,0.1,2.3,0.1c0.7,0.1,1.1,0.4,1.2,0.8c0.1,0.4,0,0.7-0.1,0.9c-0.2,0.1-0.4,0.2-0.6,0.2
		c-0.2,0-0.4-0.1-0.5-0.1s-0.3-0.1-0.5-0.1s-0.4,0-0.7-0.1c-0.4-0.1-0.8-0.2-1.2-0.2c-0.5-0.1-1-0.1-1.5-0.2
		c-0.4,0.1-0.7,0.1-0.9,0.1s-0.4,0-0.8-0.1c-0.2,0.1-0.5,0.1-0.7,0c-0.2-0.1-0.5-0.1-0.9,0c-0.2,0.2-0.4,0.4-0.6,0.6
		s-0.5,0.3-0.8,0.4c-0.3,0.1-0.6-0.1-1-0.4c-0.8,0.1-1.3,0.2-1.4,0.2c-0.2,0-0.4,0.1-0.5,0.2s-0.3,0.2-0.5,0.2
		c-0.2,0.1-0.4,0.1-0.5,0.2c-0.2,0.1-0.4,0.2-0.8,0.2c-0.3,0-0.6-0.2-0.8-0.5c-0.2-0.3-0.2-0.6-0.1-0.8c0.1-0.2,0.3-0.4,0.5-0.5
		c0.2-0.1,0.6-0.3,1.1-0.4c0.4-0.1,0.9-0.1,1.3-0.2c0.4-0.2,0.7-0.2,0.9-0.2C151.9,59.2,152.3,59.1,152.6,59.1z M148.8,81.8l0.1,0.7
		c0.2,0.2,0.3,0.5,0.3,0.7c0.1,0.2,0.2,0.4,0.4,0.5c0.2,0.1,0.3,0.2,0.3,0.2c0.3,0.2,0.5,0.4,0.5,0.6c0.1,0.2,0.1,0.4,0,0.7
		c0,0.3-0.2,0.5-0.4,0.7c-0.2,0.1-0.5,0.1-0.9,0c-0.3-0.2-0.6-0.4-0.9-0.7c-0.2-0.3-0.4-0.7-0.6-1c-0.2-0.4-0.3-1-0.3-2s0-1.6,0-1.8
		c0-0.4,0-0.9,0.1-1.3c0.1-0.4,0.2-1,0.5-1.7c0.4-0.6,0.7-0.9,0.9-1c0.2-0.1,0.4-0.1,0.6,0c0.2,0.1,0.4,0.3,0.5,0.7
		c0.1,0.4,0.1,0.7-0.2,1.1c-0.3,0.3-0.5,0.5-0.5,0.8c0,0.2-0.1,0.5-0.1,0.8c-0.2,0.3-0.2,0.6-0.2,0.7c0.1,0.2,0,0.3,0,0.5
		C148.8,81,148.8,81.3,148.8,81.8z M152.2,69.5c-0.3,0.5-0.6,0.7-1.1,0.6c-0.4-0.1-0.8-0.2-1.1-0.4s-0.6-0.4-1-0.7
		c-0.4-0.4-0.7-0.7-0.7-1c-0.1-0.3-0.2-0.5-0.2-0.8S148,66.6,148,66c0-0.5,0-1.1-0.1-1.5c0-0.4,0-0.9,0.1-1.3
		c0.1-0.5,0.2-0.8,0.5-0.9c0.2-0.1,0.5-0.1,0.8,0s0.5,0.2,0.6,0.5c0.1,0.3,0.1,0.5,0.1,0.7c-0.1,0.2-0.1,0.5-0.2,0.7
		c-0.1,0.2-0.1,0.5-0.1,0.8c-0.1,0.3-0.1,0.7-0.1,1.1c0,0.4,0.1,0.7,0.2,0.9c0.1,0.2,0.2,0.5,0.4,0.6c0.2,0.2,0.5,0.4,0.9,0.6
		c0.5-0.4,0.9-0.5,1.1-0.5c0.2,0,0.5,0,0.9-0.1c0.4-0.1,0.6-0.1,0.8,0c0.2,0,0.4,0,0.5-0.1s0.5-0.1,0.9,0c0.4-0.2,0.7-0.2,1-0.2
		c0.2,0,0.6,0,1,0c0.2-0.2,0.3-0.3,0.4-0.4c0.1-0.1,0.4-0.3,0.8-0.6c0.3-0.2,0.5-0.4,0.7-0.6c0.2-0.2,0.4-0.4,0.7-0.7
		c0.2-0.4,0.2-0.7,0-0.9c-0.1-0.2-0.4-0.3-0.7-0.4c-0.5-0.1-1-0.2-1.4-0.2c-0.3,0-0.7,0-1.2,0c-0.5,0-1,0-1.6,0.1
		c-0.6,0.1-1.3,0.3-2.1,0.7c-0.3,0.6-0.6,0.9-0.9,1s-0.7,0-1-0.3c-0.3-0.3-0.4-0.6-0.3-0.9c0.1-0.3,0.2-0.6,0.4-0.8
		c0.4-0.3,0.8-0.4,1.2-0.6c0.4-0.1,0.8-0.2,1.2-0.3c0.5-0.2,1-0.3,1.2-0.3c0.3-0.1,0.5-0.1,0.8-0.1s0.5,0,0.9-0.1
		c0.4,0,1-0.1,1.8-0.1c0.8,0,1.7,0.1,2.5,0.4c0.4,0.3,0.7,0.5,0.8,0.6c0.1,0.1,0.2,0.2,0.3,0.4c0.1,0.1,0.2,0.4,0.2,0.8
		c-0.1,0.5-0.2,0.9-0.3,1.1c-0.1,0.2-0.3,0.5-0.5,0.8c-0.2,0.4-0.5,0.7-0.9,1c0.4,0.3,0.6,0.7,0.6,1c-0.1,0.3-0.2,0.5-0.4,0.6
		s-0.7,0.3-1.4,0.4c-0.5-0.1-0.8,0-1,0s-0.4,0.1-0.6,0.1c-0.2,0-0.4-0.1-0.6-0.3c-0.3,0-0.7,0-1.1-0.1c-0.8,0.1-1.5,0.2-2,0.2
		C153,69.3,152.6,69.4,152.2,69.5z M159.9,80.3c0.3-0.4,0.5-0.6,0.7-0.8c0.1-0.2,0.2-0.4,0.1-0.5c-0.1-0.2-0.3-0.3-0.4-0.4
		s-0.4-0.1-0.7-0.2c-0.2-0.1-0.5-0.1-0.8-0.1c-0.3,0-0.5,0-0.7-0.1c-0.2-0.1-0.4-0.1-0.7-0.1c-0.4,0-0.7,0-0.9,0.1
		c-0.2,0.1-0.5,0.1-0.9,0.1c-0.7,0.1-1.3,0.3-1.8,0.4c-0.4,0.1-0.7,0.3-0.9,0.5c-0.1,0.2-0.4,0.4-0.8,0.5c-0.2,0.2-0.5,0.3-0.9,0.2
		c-0.3-0.1-0.5-0.3-0.6-0.5c-0.1-0.2-0.1-0.5,0-0.7s0.2-0.4,0.5-0.6c0.3-0.2,0.5-0.3,0.8-0.5c0.2-0.1,0.8-0.3,1.6-0.5
		c0.8-0.2,1.8-0.3,2.9-0.4c1.1,0,1.8-0.1,2.1,0c0.3,0,0.5,0,0.8,0.1c0.3,0,0.7,0.1,1.2,0.3c0.3,0.1,0.6,0.3,0.8,0.4
		c0.2,0.1,0.5,0.4,0.8,0.8c0.1,0.4,0.2,0.8,0.1,1.1c-0.1,0.3-0.2,0.7-0.4,1.1c-0.2,0.4-0.4,0.7-0.6,0.9s-0.4,0.4-0.5,0.6
		c-0.1,0.2-0.6,0.5-1.4,0.9c0.8,0.1,1.4,0.1,1.6,0.1c0.5-0.1,0.9,0,1,0c0.2,0.1,0.3,0.3,0.5,0.6s0.1,0.6-0.1,0.9
		c-0.2,0.3-0.5,0.4-0.9,0.4c-0.2,0.1-0.5,0.1-0.7,0c-0.3-0.1-0.6-0.1-1-0.1c-0.4,0-0.8-0.1-1.1-0.2c-0.8,0-1.5,0.1-2.1,0.2
		c-0.3,0.1-0.7,0.2-1.1,0.1c-0.8,0.2-1.3,0.2-1.6,0.1c-0.3,0.3-0.5,0.5-0.8,0.4c-0.2-0.1-0.4-0.1-0.6-0.1c-0.3,0.1-0.5,0.1-0.7-0.1
		c-0.2-0.2-0.4-0.3-0.7-0.4c-0.2-0.4-0.2-0.7,0.1-1.1c0.2-0.3,0.5-0.5,0.8-0.4c0.3-0.1,0.6-0.2,0.9-0.1c0.3-0.1,0.5-0.1,0.7-0.1
		c0.2,0,0.4,0,0.6,0c0.2,0,0.5,0,0.7,0c0.2,0,0.4-0.1,0.6-0.1s0.4-0.1,0.8-0.4c0.3,0,0.7-0.1,1.3-0.4c0.6-0.3,1-0.5,1.2-0.7
		C159.2,81.1,159.5,80.8,159.9,80.3z"/>
	<path class="st0" d="M189.6,76.4c-0.5,0.5-0.9,0.9-1.3,1.3c-0.4,0.4-0.9,0.7-1.5,1.1s-1.2,0.6-1.8,0.5c-0.5,0-1-0.2-1.5-0.5
		c-0.5-0.3-0.8-0.8-0.9-1.4c-0.1-0.6-0.2-1.1-0.3-1.6c0-0.5,0-0.9,0.1-1.2c0.1-0.3,0.1-0.5,0.1-0.7c0-0.1,0-0.3,0.1-0.4
		c0.1-0.1,0.2-0.3,0.3-0.5c0-0.3,0.1-0.5,0.2-0.7c0.1-0.2,0.2-0.4,0.4-0.5c0-0.4,0.1-0.7,0.2-0.9c0.1-0.2,0.2-0.4,0.3-0.6
		c0.2-0.5,0.5-1.1,0.8-1.6c0.3-0.5,0.6-1.1,0.9-1.6c0.1-0.2,0.1-0.4,0.2-0.5c0.1-0.1,0.2-0.3,0.4-0.5c0.1-0.3,0.2-0.5,0.3-0.6
		c0.1-0.1,0.3-0.4,0.5-0.8c0.4-0.6,0.7-1.1,0.8-1.4c0.1-0.3,0.4-0.8,0.7-1.3c0-0.3,0-0.5-0.2-0.5c-0.1-0.1-0.3-0.1-0.5-0.2
		c-0.2-0.1-0.4,0-0.7,0.1c-0.3,0.1-0.7,0.2-1,0.2c-0.3,0-0.5,0.1-0.6,0.2c-0.1,0.1-0.2,0.2-0.4,0.2c-0.2,0-0.4,0-0.6,0.1
		c-0.2,0.1-0.5,0.2-0.9,0.3c-0.1,0.2-0.3,0.3-0.5,0.3c-0.2,0.2-0.4,0.3-0.5,0.3c-0.2,0-0.3,0-0.4,0.2c-0.1,0.1-0.2,0.2-0.4,0.2
		c-0.4,0.1-0.7,0.3-1,0.5c-0.2,0.2-0.4,0.4-0.6,0.7c0.3,0.5,0.3,0.9,0.1,1.2c-0.2,0.3-0.5,0.5-1,0.4c-0.5-0.1-0.9-0.3-1.1-0.7
		c-0.3-0.4-0.4-0.8-0.3-1.2c0-0.3,0.1-0.5,0.3-0.8c0.2-0.2,0.3-0.4,0.4-0.5s0.3-0.3,0.6-0.4c0.2-0.2,0.4-0.4,0.6-0.5
		s0.4-0.1,0.6-0.1c0.2-0.3,0.5-0.4,0.9-0.5c0.3-0.2,0.5-0.3,0.7-0.4s0.4-0.2,0.7-0.2c0.6-0.2,1.4-0.4,2.5-0.8
		c1.1-0.3,2.1-0.5,2.9-0.5c0.4,0,0.8,0,1.1,0.1c0.3,0.1,0.5,0.3,0.7,0.5c0.2,0.2,0.3,0.4,0.5,0.7c0.1,0.3,0.2,0.5,0.1,0.8
		c-0.1,0.3-0.2,0.5-0.3,0.9c-0.2,0.4-0.3,0.7-0.5,0.9c-0.1,0.2-0.3,0.4-0.4,0.7c-0.1,0.2-0.3,0.5-0.4,0.8c-0.8,1.4-1.6,2.6-2.5,3.8
		c-0.1,0.3-0.3,0.5-0.4,0.8c-0.2,0.2-0.3,0.5-0.4,0.8c-0.2,0.3-0.3,0.5-0.4,0.6c0,0.1-0.1,0.3-0.2,0.4c-0.1,0.1-0.2,0.2-0.2,0.4
		c0,0.1-0.1,0.4-0.3,0.7c-0.1,0.5-0.2,0.9-0.3,1.1s-0.1,0.4-0.2,0.6c-0.1,0.2-0.1,0.4-0.1,0.5c0,0.2,0,0.4-0.1,0.8
		c0,0.5,0.1,0.8,0.2,0.9c0.1,0.1,0.1,0.4,0.1,0.7c0.2,0.2,0.3,0.3,0.5,0.4c0.1,0.1,0.4,0.2,0.6,0.1c0.3-0.1,0.6-0.2,0.9-0.3
		c0.3-0.2,0.6-0.3,0.9-0.6c0.3-0.2,0.5-0.4,0.8-0.6c0.2-0.2,0.3-0.3,0.4-0.4c0.1-0.1,0.3-0.2,0.5-0.5c0.1-0.2,0.3-0.4,0.4-0.4
		c0.1-0.1,0.2-0.2,0.2-0.3c0-0.1,0.2-0.2,0.5-0.4c0.1-0.2,0.2-0.4,0.3-0.5c0.1-0.1,0.3-0.2,0.6-0.4c0.2-0.4,0.3-0.6,0.4-0.7
		c0.1-0.1,0.3-0.2,0.6-0.3c0.1-0.3,0.3-0.5,0.4-0.7c0.2-0.1,0.3-0.2,0.4-0.4c0.2-0.1,0.4-0.3,0.5-0.5s0.2-0.4,0.5-0.4
		c0-0.4,0.1-0.6,0.3-0.8s0.3-0.3,0.4-0.4c0.1-0.2,0.2-0.3,0.5-0.4c0.1-0.4,0.2-0.7,0.5-0.9c-0.1-0.3-0.1-0.6-0.1-0.7
		c0-0.2,0-0.4,0-0.7c0-0.4,0-0.8,0-1.1c0-0.3,0.2-0.5,0.5-0.7c0.3-0.2,0.6-0.3,0.8-0.2c0.2,0.1,0.4,0.2,0.5,0.3
		c0.1,0.1,0.2,0.3,0.3,0.6c0.2,0.4,0.4,0.7,0.4,0.9c0,0.3,0,0.5-0.1,0.8c-0.1,0.2-0.2,0.6-0.3,1c0.2,0.4,0.4,0.7,0.5,0.9
		s0.2,0.3,0.3,0.4s0.2,0.3,0.3,0.4c0.1,0.2,0.3,0.3,0.4,0.4c0.1,0.1,0.2,0.2,0.4,0.5c0.3,0.1,0.5,0.3,0.7,0.4s0.3,0.2,0.5,0.3
		c0.2,0,0.4,0.1,0.5,0.2c0.1,0.1,0.3,0.3,0.6,0.5c0.2,0,0.3,0,0.5,0.1c0.1,0.1,0.3,0.2,0.4,0.2c0.1,0,0.3,0,0.5,0.1
		c0.2,0,0.4,0.1,0.6,0.3c0.3,0,0.6,0,1,0c0.3,0,0.7,0.1,1,0.1c0.3-0.1,0.6-0.1,0.7,0c0.1,0,0.3,0.1,0.6,0.1c0.1,0.1,0.2,0.2,0.4,0.3
		c0.1,0.1,0.2,0.2,0.4,0.4c0.1,0.2,0.1,0.4,0.1,0.6c-0.1,0.2-0.2,0.4-0.4,0.5c-0.2,0.1-0.5,0.1-0.9,0.1c-0.6-0.1-1-0.2-1.4-0.3
		c-0.3-0.1-0.6-0.2-0.9-0.3c-0.3-0.1-0.6-0.2-0.9-0.2c-0.3-0.1-0.8-0.3-1.3-0.5c-0.5-0.2-1.1-0.5-1.8-0.9s-1.2-0.7-1.6-1.2
		c-0.4-0.4-0.8-0.7-1-1s-0.5-0.6-0.9-1.2c-1.1,1.2-2,2.2-2.6,2.8c-0.6,0.7-1.3,1.4-2.2,2.4C190.8,75.4,190.1,76.1,189.6,76.4z
		 M201.1,60.1l0.3,0.5c0.1,0.1,0.2,0.2,0.3,0.4c0.1,0.1,0.3,0.2,0.5,0.4c0.4,0.1,0.7,0.3,0.8,0.4c0.1,0.2,0.1,0.4,0.2,0.6
		c0,0.2,0,0.4-0.2,0.6c-0.2,0.1-0.3,0.3-0.5,0.3s-0.4,0.1-0.7,0.1c-0.3,0-0.6-0.2-1-0.6c-0.4-0.5-0.7-0.8-0.8-1.1s-0.4-0.7-0.7-1.2
		c-0.3-0.6-0.5-1.1-0.6-1.4c-0.1-0.3-0.2-0.6-0.2-0.9c0-0.3,0.1-0.5,0.2-0.7c0.1-0.2,0.3-0.3,0.4-0.4c0.1-0.1,0.3-0.2,0.4-0.3
		c0.1-0.1,0.3-0.1,0.5-0.1c0.2,0,0.4,0.2,0.6,0.4c0.2,0.2,0.2,0.6,0.1,1.1c0,0.4,0.1,0.6,0.2,0.7c0.1,0.1,0.2,0.2,0.1,0.4
		S201,59.9,201.1,60.1z M206.6,58c0.3,0.5,0.6,0.9,0.8,1.2c0.2,0.2,0.4,0.5,0.7,0.7c0.3,0.3,0.4,0.4,0.5,0.5
		c0.1,0.1,0.2,0.2,0.3,0.3s0.2,0.3,0.2,0.5c0,0.2,0,0.3-0.2,0.5c-0.1,0.2-0.3,0.3-0.6,0.4s-0.5,0.1-0.7,0c-0.2-0.1-0.4-0.2-0.6-0.4
		c-0.2-0.2-0.4-0.5-0.8-0.9c-0.4-0.4-0.7-0.8-0.9-1.1c-0.2-0.3-0.4-0.7-0.5-1c-0.2-0.3-0.3-0.7-0.3-1.1c-0.1-0.4,0-0.6,0.3-0.8
		s0.4-0.3,0.6-0.4c0.3,0,0.4,0,0.6,0c0.1,0,0.3,0.1,0.4,0.3c0.2,0.2,0.3,0.4,0.2,0.5C206.5,57.2,206.5,57.5,206.6,58z"/>
	<path class="st0" d="M228.6,59.7c-0.3,0.3-0.6,0.7-1,1.2c-0.3,0.4-0.6,0.8-0.8,1.1c-0.2,0.3-0.5,0.7-0.9,1.2
		c-0.4,0.5-0.7,1-1.1,1.5c0.5,0.1,0.8,0.1,1.1,0.1c0.3,0,0.6,0,0.9,0.1c0.3,0,0.7,0.1,1.1,0.3c0.4,0.2,0.7,0.3,0.8,0.4
		c0.1,0.1,0.3,0.3,0.4,0.4c0.1,0.1,0.3,0.4,0.6,0.9c0.1,0.2,0.2,0.5,0.2,0.8s0.1,0.6,0.1,0.8s-0.1,0.6-0.2,1.1
		c-0.2,0.6-0.4,1-0.5,1.3s-0.3,0.6-0.4,1c-0.2,0.4-0.5,0.9-1,1.6c-0.5,0.7-0.9,1.2-1.1,1.4c-0.2,0.2-0.5,0.5-0.7,0.7
		c-0.2,0.2-0.5,0.4-0.7,0.6c-0.4,0.3-0.7,0.5-1,0.6c-0.3,0.1-0.6,0.1-0.8,0.2s-0.5,0-0.8,0c-0.3,0-0.6-0.2-1-0.5
		c-0.5-0.5-0.9-0.9-1.2-1.3c-0.3-0.4-0.4-0.7-0.4-0.9c0-0.2,0.1-0.5,0.4-0.8c0.3-0.3,0.7-0.2,1.3,0.1c0.2,0.3,0.4,0.6,0.6,0.8
		c0.2,0.2,0.4,0.4,0.4,0.5c0.1,0.1,0.3,0.2,0.5,0.2c0.3,0,0.6-0.1,1.1-0.4c0.3-0.3,0.5-0.5,0.7-0.6c0.2-0.1,0.3-0.3,0.4-0.4
		s0.3-0.3,0.5-0.3c0-0.3,0.2-0.6,0.5-0.8c0.2-0.4,0.4-0.6,0.5-0.8c0.1-0.2,0.2-0.4,0.4-0.6c0.1-0.2,0.2-0.5,0.3-0.8
		c0.1-0.3,0.2-0.5,0.3-0.8c0.1-0.3,0.2-0.6,0.3-1.1c0-0.8-0.2-1.2-0.4-1.3c-0.2-0.1-0.6-0.3-0.9-0.6c-0.4,0-0.7-0.1-1-0.2
		c-0.3,0.1-0.5,0.1-0.7,0c-0.2-0.1-0.4-0.1-0.7-0.1c-0.3,0-0.7,0.1-1.3,0.1c-0.8,1.1-1.3,1.9-1.6,2.4c-0.2,0.2-0.4,0.4-0.6,0.8
		s-0.4,0.7-0.6,1c-0.7,1.1-1.2,2-1.8,2.7c-0.5,0.7-1,1.4-1.5,2c-0.5,0.6-0.8,1.1-1,1.5c-0.2,0.4-0.6,0.8-1,1.4
		c-0.2,0.5-0.4,0.8-0.7,1c-0.2,0.1-0.5,0.2-0.9,0.2c-0.4,0-0.6-0.3-0.7-0.8c-0.1-0.5,0-0.9,0.2-1.1c0.2-0.2,0.4-0.5,0.6-0.6
		c0.2-0.2,0.4-0.3,0.5-0.5c0.2-0.3,0.4-0.6,0.7-0.9c0.2-0.3,0.4-0.6,0.7-0.7c0.3-0.4,0.6-0.8,0.9-1.1c0.1-0.3,0.2-0.4,0.3-0.5
		c0.1-0.1,0.2-0.2,0.3-0.4c0.1-0.2,0.3-0.4,0.6-0.5c0-0.2,0.1-0.3,0.2-0.5s0.2-0.3,0.3-0.4c0.1-0.1,0.2-0.3,0.3-0.6
		c0.2-0.2,0.3-0.4,0.4-0.4c0.1-0.1,0.1-0.2,0.2-0.3c0-0.1,0.1-0.2,0.3-0.3c0.2-0.1,0.3-0.1,0.4-0.3c0.1-0.1,0.1-0.3,0.3-0.6
		c0.2-0.1,0.3-0.3,0.4-0.5c0.1-0.2,0.2-0.3,0.2-0.5c0-0.1,0.4-0.7,1.1-1.6c-0.6,0.1-1,0.1-1.3,0.2c-0.3,0.1-0.6,0.1-1.1,0.2
		c-0.3,0.2-0.6,0.2-0.9,0.2c-0.2,0.2-0.5,0.3-0.8,0.2c-0.2,0.2-0.5,0.3-0.9,0.3c-0.4,0.3-0.7,0.5-0.9,0.6s-0.4,0.2-0.6,0.4
		c0.1,0.4,0.1,0.7,0,0.8c-0.1,0.1-0.3,0.3-0.5,0.4c-0.2,0.2-0.4,0.2-0.5,0.1c-0.1-0.1-0.3-0.1-0.5-0.2c-0.5-0.3-0.7-0.8-0.7-1.4
		c0-0.6,0.2-1,0.6-1.2c1-0.5,1.8-0.8,2.2-1c0.5-0.1,0.9-0.3,1.4-0.4c0.5-0.1,1.2-0.3,2-0.4c0.8-0.2,2-0.3,3.5-0.5
		c0.2-0.3,0.3-0.6,0.5-0.9c0.2-0.3,0.3-0.5,0.3-0.6c0-0.1,0.1-0.3,0.3-0.5c0.2-0.3,0.4-0.6,0.6-0.9c0-0.2,0.1-0.4,0.2-0.5
		c0.1-0.2,0.3-0.5,0.6-0.8c0.1-0.3,0.2-0.6,0.5-0.8c0.1-0.2,0.1-0.3,0.2-0.4c0.1-0.1,0.2-0.4,0.4-0.9c0.1-0.3,0.2-0.4,0.4-0.6
		c0.2-0.1,0.5-0.2,1-0.3c0.4,0.1,0.7,0.2,1,0.5c0.3,0.3,0.4,0.6,0.2,0.8C229,59.3,228.8,59.5,228.6,59.7z M243.3,74.3
		c0.4,0.1,0.7,0.2,0.9,0.4c0.2,0.2,0.4,0.3,0.6,0.3c0.2,0.1,0.4,0.2,0.6,0.3c0.3,0.2,0.6,0.3,1,0.4s0.7,0.2,1,0.4
		c0.3,0.1,0.5,0.3,0.6,0.7c0.1,0.3,0.1,0.6-0.1,0.8s-0.4,0.3-0.6,0.4c-0.2,0.1-0.4,0.1-0.6,0.1c-0.1,0-0.3-0.1-0.4-0.2
		c-0.1-0.1-0.4-0.3-0.9-0.4c-0.8-0.5-1.4-0.8-1.7-1c-0.4-0.2-0.7-0.4-0.9-0.6c-0.4-0.3-0.8-0.5-1-0.8c-0.2-0.2-0.5-0.5-0.8-0.8
		c-0.3-0.1-0.5-0.3-0.7-0.8c-0.1-0.3-0.3-0.6-0.5-0.7c-0.2-0.1-0.3-0.3-0.5-0.6c-0.2-0.1-0.4-0.3-0.4-0.4c-0.1-0.1-0.1-0.3-0.3-0.4
		c-0.1-0.1-0.3-0.4-0.5-0.7c-0.3-0.6-0.7-1.2-1-1.7c-0.4-0.5-0.7-1-0.9-1.6c-0.1-0.3-0.2-0.5-0.3-0.6s-0.2-0.3-0.3-0.4
		c-0.1-0.2-0.2-0.4-0.3-0.7c-0.2-0.2-0.4-0.3-0.4-0.6c-0.1-0.2-0.2-0.4-0.3-0.6c-0.3-0.4-0.3-0.8-0.1-1.1c0.2-0.3,0.4-0.4,0.6-0.4
		c0.2,0,0.4,0,0.6,0.1c0.2,0,0.4,0.1,0.7,0.3c0.2,0.2,0.3,0.4,0.4,0.8c0.3,0.5,0.4,0.8,0.5,1c0,0.2,0.1,0.4,0.3,0.6
		c0.2,0.4,0.5,0.9,0.8,1.6c0.4,0.6,0.8,1.4,1.4,2.4c0.5,1,1,1.6,1.3,2c0.3,0.4,0.7,0.8,0.9,1.2c0.3,0.2,0.5,0.4,0.7,0.7
		c0.2,0.1,0.3,0.2,0.4,0.3C242.8,73.9,243,74.1,243.3,74.3z M240.3,64.7c-0.2-0.4-0.3-0.7-0.5-1c-0.1-0.3-0.3-0.8-0.4-1.4
		c-0.2-0.6-0.3-1.1-0.3-1.4c-0.1-0.3,0-0.7,0.1-1c0.1-0.3,0.2-0.5,0.4-0.8c0.2-0.3,0.4-0.4,0.6-0.4c0.2,0,0.4,0,0.6,0
		c0.2,0,0.3,0.1,0.4,0.3c0.1,0.2,0.2,0.3,0.2,0.5c0,0.1,0,0.4-0.1,0.7c-0.1,0.4-0.2,0.6-0.2,0.7c-0.1,0.1,0,0.4,0.1,0.9
		c0.2,0.4,0.3,0.7,0.2,1.1c0.1,0.2,0.2,0.4,0.3,0.6c0.1,0.2,0.2,0.4,0.4,0.8c0.2,0.3,0.5,0.6,0.7,0.7c0.2,0.1,0.3,0.3,0.3,0.6
		c0,0.3-0.1,0.5-0.4,0.8c-0.2,0.3-0.6,0.3-1,0.1c-0.4-0.2-0.7-0.4-0.9-0.7C240.7,65.3,240.5,65,240.3,64.7z M245.4,64.8
		c0-0.4,0-0.7-0.1-1c0-0.3,0-0.5,0-0.8c0-0.2,0-0.5,0-0.9c-0.1-0.4,0-0.8,0-1.2c-0.1-0.4,0-0.7,0.2-1s0.5-0.4,0.9-0.4
		c0.4,0.1,0.7,0.2,0.8,0.4c0.2,0.2,0.3,0.3,0.3,0.5s0,0.5-0.1,0.8c0,0.3,0,0.6-0.1,1c-0.1,0.3-0.1,0.6-0.1,0.8c0,0.2,0,0.6,0,1.2
		c0.2,0.4,0.3,0.7,0.3,1c-0.1,0.3-0.2,0.5-0.3,0.6c-0.1,0.1-0.3,0.2-0.5,0.2c-0.2,0-0.4,0-0.5,0c-0.1-0.1-0.3-0.2-0.5-0.4
		C245.5,65.3,245.4,65.1,245.4,64.8z"/>
	<path class="st0" d="M260.9,76.7c-0.3,0.2-0.6,0.4-0.9,0.5c-0.3,0.1-0.5,0.1-0.8,0.3s-0.5,0.2-0.8,0.2c-0.2-0.1-0.5-0.1-0.7,0.1
		c-0.2,0.1-0.5,0-0.7-0.1c-0.3,0-0.7-0.1-0.9-0.3c-0.5-0.1-1-0.3-1.2-0.7c-0.2-0.2-0.4-0.4-0.6-0.7c0-0.2-0.1-0.4-0.2-0.6
		c-0.1-0.2-0.1-0.3-0.1-0.5c-0.2-0.4-0.2-0.9-0.1-1.3c0.1-0.4,0.2-0.8,0.3-1.2c0.1-0.4,0.3-0.8,0.5-1.1c0.1-0.3,0.2-0.5,0.5-0.6
		c0.1-0.2,0.2-0.3,0.3-0.5s0.2-0.3,0.4-0.4c0.1-0.2,0.2-0.3,0.3-0.4c0.2-0.1,0.3-0.2,0.5-0.3c0.3-0.4,0.6-0.6,1.1-0.7
		c0.3-0.3,0.6-0.6,0.8-0.7c0.2-0.1,0.5-0.2,0.8-0.4c0.3-0.1,0.6-0.3,0.9-0.4c0.3-0.1,0.6-0.3,0.9-0.4c0.5-0.2,0.9-0.4,1.4-0.5
		c0.3-1.4,0.5-2.7,0.7-3.8c0.2-1.1,0.6-2.6,1.1-4.6c-0.3,0.1-0.7,0.1-1.1,0.2c-0.4,0.1-0.9,0.2-1.4,0.2c-0.6,0.2-1,0.2-1.2,0.1
		s-0.4-0.2-0.5-0.3c-0.2-0.3-0.2-0.7-0.1-0.9c0.1-0.3,0.3-0.5,0.5-0.6c0.4-0.2,0.8-0.3,1.1-0.3c0.3,0.1,0.5,0.1,0.6,0s0.3,0,0.6,0
		c0.3-0.1,0.5-0.1,0.8-0.1c0.4-0.1,0.7-0.2,1.1-0.2c0.2-0.5,0.4-0.9,0.6-1.2c0.2-0.2,0.4-0.5,0.5-0.7c0.3-0.3,0.6-0.4,1-0.4
		c0.4,0,0.6,0.1,0.7,0.2s0.3,0.3,0.4,0.7c-0.1,0.4-0.3,0.7-0.6,1.1c0.8-0.1,1.4-0.2,1.8-0.3c0.5-0.1,1-0.2,1.6-0.3
		c0.4-0.1,0.8-0.2,1.2-0.3c0.4-0.1,0.7-0.1,0.9,0c0.2,0.1,0.3,0.3,0.4,0.6c0.1,0.3,0,0.6-0.3,1c-0.1,0.1-0.3,0.2-0.4,0.3
		s-0.3,0.1-0.6,0.3c-0.7,0.1-1.4,0.1-2.1,0.2c-0.7,0.1-1.4,0.2-2,0.4c-0.7,0.1-1.2,0.2-1.6,0.3c-0.3,0.6-0.5,1.4-0.9,2.3
		s-0.6,1.8-0.7,2.6c-0.2,0.8-0.3,1.9-0.5,3.1c1.2-0.2,2.3-0.4,3.2-0.5c0.9-0.1,1.6-0.2,2.1-0.2c0.5-0.1,0.9-0.1,1.2-0.1
		c0.2-0.4,0.4-0.7,0.5-0.9c0.2-0.4,0.4-0.8,0.6-1.2c0.1-0.3,0.1-0.5,0.2-0.8c0.2-0.3,0.3-0.6,0.4-0.9c0.1-0.3,0.4-0.6,0.9-0.7
		c0.3,0,0.6,0.1,0.9,0.2s0.4,0.4,0.4,0.8c0,0.4-0.1,0.6-0.2,0.8c-0.1,0.2-0.3,0.4-0.6,0.5c-0.3,0.4-0.5,0.8-0.7,1.1
		c-0.2,0.4-0.4,0.7-0.6,0.9c0.6,0.1,1.1,0.1,1.4,0.1c0.3,0,0.6,0.1,1,0.2c0.4,0.1,0.7,0.2,1,0.2s0.5,0.1,0.5,0.2
		c0.1,0.1,0.3,0.2,0.6,0.2c0.3,0,0.6,0.1,0.8,0.3c0.2,0.2,0.5,0.3,0.8,0.5c0.4,0.4,0.8,0.8,1.1,1.2c0.4,0.4,0.7,0.9,0.9,1.4
		s0.4,1.2,0.5,1.8c0,0.4,0,0.9-0.1,1.3c0,0.4-0.2,0.8-0.4,1.2c-0.1,0.3-0.2,0.6-0.4,1c-0.1,0.4-0.3,0.7-0.6,0.9
		c-0.2,0.4-0.4,0.7-0.8,1c-1.6,1.9-3.4,3.6-5.5,5c-0.6,0.7-1.4,1.2-2.2,1.8c-0.4,0.3-0.7,0.5-1,0.6c-0.2,0.2-0.4,0.4-0.6,0.6
		c-0.2,0.2-0.5,0.2-0.8,0.2c-0.2,0.3-0.4,0.5-0.7,0.6c-0.2,0.1-0.5,0.2-0.7,0.3c-0.2,0.1-0.5,0.1-0.8-0.1c-0.3-0.1-0.5-0.3-0.6-0.5
		c-0.1-0.2,0-0.5,0.1-1c0.2-0.4,0.7-0.7,1.4-0.8c0.5-0.2,1.1-0.4,1.7-0.7c0.6-0.3,1.1-0.5,1.6-0.7c1.7-1.2,3.4-2.5,5-3.9
		c1.6-1.5,2.6-2.5,2.9-3.2c0.3-0.7,0.5-1.2,0.5-1.4c0-0.3,0.1-0.5,0.3-0.6c0.1-0.4,0.1-0.8,0.1-1.4c-0.2-0.3-0.4-0.7-0.6-1.2
		c-0.2-0.5-0.6-0.9-1-1.3c-0.2-0.1-0.3-0.2-0.4-0.4c-0.3-0.1-0.6-0.2-0.8-0.4c-0.5-0.1-1.1-0.3-1.6-0.4c-0.5-0.2-1-0.3-1.6-0.3
		c-0.3-0.2-0.6-0.2-1-0.2c-0.3,0-0.6,0-0.9,0c-0.4,0.7-0.8,1.1-0.9,1.3c-0.2,0.2-0.5,0.6-1,1.1c-0.9,1.2-1.8,2.2-2.7,3.1
		c-0.8,0.9-1.5,1.5-2,1.9c-0.5,0.4-0.8,0.7-1,0.9c0.2,0.3,0.4,0.5,0.6,0.6c0.2,0.1,0.4,0.2,0.7,0.3c0.3,0.1,0.6,0.3,0.8,0.5
		c0.2,0.3,0.2,0.5,0.3,0.8c0,0.3-0.1,0.5-0.3,0.6c-0.1,0.4-0.4,0.5-0.9,0.4c-0.7-0.3-1.1-0.6-1.3-0.8s-0.4-0.4-0.6-0.5
		c-0.2-0.2-0.5-0.4-0.9-0.7c-0.4,0.3-0.7,0.5-1,0.6C261.4,76.4,261.2,76.6,260.9,76.7z M262,72c0.1-0.7,0.1-1.3,0.1-1.8
		c0-0.5,0.1-1.3,0.2-2.3c-0.3,0-0.5,0.1-0.7,0.2c-0.2,0.1-0.4,0.2-0.5,0.2c-0.2,0-0.5,0.2-0.9,0.4c-0.7,0.4-1.2,0.7-1.6,1
		c-0.4,0.2-0.9,0.6-1.5,1.2c-0.2,0.2-0.3,0.4-0.4,0.6c-0.1,0.2-0.3,0.3-0.4,0.4s-0.2,0.3-0.3,0.4c-0.1,0.2-0.2,0.3-0.3,0.5
		c0,0.2-0.1,0.4-0.2,0.8c-0.1,0.5,0,0.9,0.1,1.2c0.1,0.3,0.4,0.6,0.7,0.8c0.6,0.3,1.2,0.4,1.7,0.4c0.5,0,0.9-0.1,1.2-0.2
		c0.2-0.1,0.5-0.2,0.7-0.4c0.4-0.2,0.8-0.3,1.1-0.5c0.3-0.2,0.8-0.5,1.5-1c-0.1-0.4-0.2-0.7-0.3-1C262.2,72.7,262.1,72.4,262,72z
		 M268.9,67.7c0.3-0.6,0.6-1.1,0.9-1.5c-0.2-0.1-0.5-0.1-0.8,0.1c-0.2-0.1-0.5,0-0.7,0c-0.2,0.1-0.5,0.1-0.8,0.1
		c-0.2,0.1-0.5,0.1-0.7,0.1c-0.2,0-0.4,0.1-0.7,0.2c-0.4,0-0.8,0-1.1,0.1c-0.3,0.1-0.7,0.2-1.2,0.4c-0.2,1.3-0.3,2.3-0.3,3
		c0,0.7,0,1.6,0.2,2.6c0.3-0.3,0.6-0.5,0.9-0.5c0.1-0.2,0.3-0.4,0.6-0.6c0.5-0.4,1-0.8,1.4-1.2c0.2-0.5,0.4-0.7,0.8-0.8
		c0-0.3,0.1-0.4,0.2-0.5c0.1-0.1,0.3-0.2,0.4-0.4c0.1-0.1,0.2-0.3,0.3-0.5C268.5,68,268.7,67.9,268.9,67.7z"/>
	<path class="st0" d="M304.9,76.1c-0.6,0-1.1,0-1.3,0c-0.3,0-0.7,0-1.4-0.1c-0.2,0.5-0.3,0.9-0.4,1c-0.1,0.1-0.3,0.3-0.5,0.6
		c-0.2,0.2-0.5,0.5-0.8,0.7c-0.1,0.3-0.3,0.5-0.4,0.5c-0.2,0-0.3,0.1-0.4,0.3c-0.1,0.2-0.3,0.3-0.5,0.5c-0.2,0.2-0.6,0.4-1.1,0.5
		c-0.5,0.3-0.9,0.5-1.4,0.6c-0.3,0.2-0.5,0.3-0.7,0.2s-0.4,0-0.5,0.1c-0.2,0.1-0.3,0.2-0.5,0.2c-0.2,0.1-0.4,0.1-0.7,0
		c-0.2-0.1-0.5-0.1-0.6-0.2c-0.2-0.1-0.4,0-0.7,0.1c-0.5-0.1-0.9-0.3-1.4-0.7c-0.5-0.4-0.8-1-1-1.6c-0.1-0.6-0.1-1,0-1.3
		s0.2-0.6,0.4-0.9c0.2-0.3,0.5-0.6,1-1c0.7-0.4,1.5-0.8,2.6-1c1.1-0.2,2.1-0.4,3.2-0.4c1.1,0,2.1-0.1,3.1-0.2c0-0.4,0-0.9-0.1-1.4
		c-0.1-0.5-0.2-1-0.4-1.4c-0.2-0.4-0.5-0.8-0.8-1.1c-0.3-0.3-0.6-0.5-1.1-0.7c-0.4-0.2-0.8-0.4-1.2-0.5s-0.8-0.2-1.2-0.3
		c-0.3,0-0.6-0.1-0.9-0.1c-0.3,0-0.5-0.1-0.8-0.3s-0.5-0.3-0.6-0.5c-0.1-0.2-0.1-0.5,0-0.9c0.1-0.4,0.3-0.6,0.4-0.8
		c0.2-0.2,0.3-0.3,0.5-0.4c0.2-0.1,0.4-0.2,0.7-0.4c0.3-0.2,0.7-0.3,1-0.4c0.3-0.2,0.5-0.3,0.6-0.3c0.2,0,0.4,0,0.7-0.2
		c0.2-0.2,0.4-0.4,0.7-0.6c0.3-0.2,0.6-0.4,0.9-0.5c0.1-0.2,0.3-0.3,0.6-0.5c0.3-0.2,0.6-0.4,0.8-0.6c0.2-0.3,0.4-0.5,0.6-0.7
		c0.1-0.2,0.3-0.4,0.3-0.7c0.1-0.4,0.1-0.7,0-0.9c-0.1-0.2-0.3-0.4-0.7-0.6c-0.2-0.1-0.5-0.2-0.8-0.4c-0.3-0.1-0.6-0.2-0.9-0.3
		c-0.3-0.1-0.9-0.1-1.6-0.2c-0.8-0.1-1.5-0.1-2.2,0.2c-0.5,0.2-0.8,0.4-0.9,0.6c-0.1,0.2-0.3,0.4-0.5,0.6c-0.2,0.2-0.4,0.2-0.6,0.2
		c-0.2-0.1-0.4-0.1-0.6-0.3c-0.2-0.1-0.3-0.4-0.3-0.7s0.2-0.6,0.5-0.9c0.3-0.3,0.6-0.5,0.9-0.7c0.4-0.2,0.8-0.4,1.4-0.5
		c0.6-0.1,1-0.2,1.3-0.1c0.3,0.1,0.8,0,1.4-0.1c0.3,0,0.5,0.1,0.8,0.3c0.3,0,0.5,0,0.8,0c0.2,0,0.5,0.1,0.8,0.3c0.4,0,0.8,0,1,0.2
		c0.2,0.2,0.4,0.3,0.6,0.4c0.2,0.1,0.4,0.3,0.7,0.5c0.3,0.2,0.5,0.5,0.6,1c0.1,0.4,0.2,0.7,0.2,0.9c0.1,0.2,0,0.5-0.1,0.9
		c-0.1,0.4-0.2,0.7-0.4,1c-0.2,0.2-0.5,0.5-0.9,0.9c-0.8,0.7-1.4,1.1-1.7,1.3c-0.3,0.2-0.6,0.5-1.1,0.8c-0.5,0.3-1.4,0.9-2.7,1.7
		c0.4,0.1,0.7,0.1,0.9,0.3c0.2,0.1,0.4,0.2,0.6,0.3c0.2,0.1,0.4,0.2,0.6,0.5c0.4,0.1,0.7,0.2,0.8,0.4c0.1,0.1,0.3,0.3,0.4,0.4
		c0.2,0.1,0.4,0.3,0.5,0.6s0.3,0.5,0.4,0.7c0.4,0.4,0.6,0.7,0.6,0.8c0,0.1,0.1,0.3,0.3,0.5c0.2,0.4,0.4,0.8,0.4,1.1
		c0.1,0.3,0.1,0.6,0.1,0.8s0,0.6,0,1c0.6,0,1.1,0.1,1.4,0.1c0.3,0.1,0.8,0.1,1.5,0c0.4,0,0.8,0.1,1.1,0.2c0.4,0.1,0.7,0.3,0.9,0.6
		c0.2,0.3,0.3,0.6,0.1,0.8c-0.2,0.2-0.4,0.4-0.6,0.5c-0.2,0.1-0.4,0.1-0.7,0c-0.3-0.1-0.4-0.2-0.6-0.2
		C305.6,76.3,305.3,76.2,304.9,76.1z M293.1,79.6c1.4,0.3,2.6,0.2,3.6-0.3c1-0.5,1.9-1.2,2.8-1.9c0.2-0.4,0.4-0.7,0.5-0.8
		c0.1-0.2,0.2-0.4,0.3-0.7c-0.4-0.1-0.7-0.1-0.9-0.1c-0.2,0-0.4,0-0.7,0c-0.3-0.1-0.6,0-1,0c-0.2,0.1-0.4,0.1-0.6,0.1
		c-0.2,0-0.3,0-0.4,0.1s-0.3,0.1-0.4,0.1c-0.2,0-0.4,0-0.7,0c-0.3,0.1-0.6,0.1-0.8,0.2c-0.3,0.3-0.5,0.4-0.6,0.4
		c-0.1,0-0.3,0.1-0.7,0.4c-0.3,0.2-0.6,0.5-0.9,0.7c-0.3,0.2-0.4,0.6-0.3,1C292.4,79.1,292.6,79.4,293.1,79.6z"/>
</g>
</svg>
